<svg xmlns="http://www.w3.org/2000/svg" xmlns:xlink="http://www.w3.org/1999/xlink" width="32" height="32"><defs><linearGradient id="b" x1="405.57" x2="427.57" y1="509.8" y2="533.8" gradientUnits="userSpaceOnUse"><stop offset="0" stop-opacity=".286"/><stop offset="1" stop-opacity="0"/></linearGradient><linearGradient id="a" x1="417.096" x2="430.665" y1="551.608" y2="537.184" gradientTransform="matrix(-1 0 0 1 452.144 499.8)" gradientUnits="userSpaceOnUse" spreadMethod="pad"><stop offset="0" stop-color="#2f74c8"/><stop offset="1" stop-color="#4699d7"/></linearGradient><linearGradient xlink:href="#a" id="c" x1="29" x2="2" y1="1049.362" y2="1024.362" gradientUnits="userSpaceOnUse"/><linearGradient xlink:href="#b" id="d" x1="-20.639" x2="-4.924" y1="1051.363" y2="1067.078" gradientTransform="translate(30.7 -122) scale(1.09987)" gradientUnits="userSpaceOnUse"/></defs><g transform="translate(0 -1020.362)"><rect width="28" height="28" x="2" y="1022.362" rx="1" ry="1" style="fill:url(#c);fill-opacity:1"/><path d="m7 1042.362 7 7h16v-14l-5-5H7.459l4 4H23v7.066l-3.48-2.01H11v-3.056l-4-4.636z" style="font-variation-settings:normal;opacity:.2;vector-effect:none;fill:url(#d);fill-opacity:1;stroke:none;stroke-width:.4;stroke-linecap:butt;stroke-linejoin:miter;stroke-miterlimit:4;stroke-dasharray:none;stroke-dashoffset:0;stroke-opacity:1;-inkscape-stroke:none;stop-color:#000;stop-opacity:1"/><path d="M3 2c-.554 0-1 .446-1 1v1c0-.554.446-1 1-1h26c.554 0 1 .446 1 1V3c0-.554-.446-1-1-1H3z" style="fill:#fff;color:#000;clip-rule:nonzero;display:inline;overflow:visible;visibility:visible;opacity:.3;isolation:auto;mix-blend-mode:normal;color-interpolation:sRGB;color-interpolation-filters:linearRGB;solid-color:#000;solid-opacity:1;fill-opacity:1;fill-rule:nonzero;stroke-width:1;stroke-linecap:butt;stroke-linejoin:miter;stroke-miterlimit:4;stroke-dasharray:none;stroke-dashoffset:0;stroke-opacity:1;filter-blend-mode:normal;filter-gaussianBlur-deviation:0;color-rendering:auto;image-rendering:auto;shape-rendering:auto;text-rendering:auto;enable-background:accumulate" transform="translate(0 1020.362)"/><path d="M3 1050.362c-.554 0-1-.446-1-1v-1c0 .554.446 1 1 1h26c.554 0 1-.446 1-1v1c0 .554-.446 1-1 1H3z" style="color:#000;clip-rule:nonzero;display:inline;overflow:visible;visibility:visible;opacity:.3;isolation:auto;mix-blend-mode:normal;color-interpolation:sRGB;color-interpolation-filters:linearRGB;solid-color:#000;solid-opacity:1;fill:#000;fill-opacity:1;fill-rule:nonzero;stroke-width:1;stroke-linecap:butt;stroke-linejoin:miter;stroke-miterlimit:4;stroke-dasharray:none;stroke-dashoffset:0;stroke-opacity:1;color-rendering:auto;image-rendering:auto;shape-rendering:auto;text-rendering:auto;enable-background:accumulate;filter-blend-mode:normal;filter-gaussianBlur-deviation:0"/><path fill="#ebeded" d="m7.459 1030.362 4.855 2.944h9.975v1.584h-7.362l4.855 2.944h2.507v1.52l2.711 1.644v-10.636zM7 1031.726v10.636h17.541l-4.855-2.944H9.711v-6.048z" style="stroke-width:1;fill:#dee2e2;fill-opacity:1"/></g></svg>