<svg width="24" height="24" version="1" xmlns="http://www.w3.org/2000/svg">
<rect x="1.5" y="1.8752" width="21" height="21" rx="1.05" ry="1.05" opacity=".2" stroke-width=".375"/>
<rect x="1.5002" y="1.5" width="21" height="21" rx="1.05" ry="1.05" fill="#60a5fa" stop-color="#000000"/>
<rect x="1.5002" y="12.303" width="21" height="10.197" rx="1.05" ry="1.05" fill="#1d4ed8" stop-color="#000000"/>
<path d="m2.5505 1.5c-0.5817 0-1.0503 0.46859-1.0503 1.0503v0.375c0-0.5817 0.46859-1.0503 1.0503-1.0503h18.899c0.5817 0 1.0503 0.46859 1.0503 1.0503v-0.375c0-0.5817-0.46859-1.0503-1.0503-1.0503z" fill="#fff" opacity=".2" stroke-width=".375"/>
<path d="m7.4012 12.941c-0.12582 2e-3 -0.25124 0.0063-0.37573 0.01318-0.24897 0.01376-0.49497 0.03699-0.73828 0.06885-0.2433 0.03185-0.48426 0.0726-0.72143 0.12085-0.23717 0.04824-0.47109 0.10406-0.70165 0.16699-0.23056 0.06293-0.45766 0.13281-0.68115 0.20874-0.22348 0.07593-0.44323 0.15741-0.65917 0.24463-0.21594 0.08722-0.42781 0.18004-0.63574 0.27685-0.20793 0.09681-0.41139 0.19778-0.61083 0.30249-0.19945 0.10471-0.3947 0.21282-0.5852 0.32373-0.065422 0.03809-0.12756 0.0785-0.19189 0.11719v2.0859c0.14098-0.05219 0.29043-0.10365 0.4497-0.15234 0.16671-0.05096 0.34327-0.09929 0.5288-0.14282 0.18553-0.04353 0.37989-0.08256 0.583-0.11499 0.20311-0.03243 0.41484-0.05853 0.63427-0.07617s0.44663-0.02646 0.68115-0.02564c0.23451 8.25e-4 0.47675 0.01146 0.72509 0.03442 0.24834 0.02297 0.50299 0.05814 0.76391 0.10693 0.26092 0.04879 0.52754 0.11141 0.7998 0.1897 0.13613 0.03914 0.27362 0.08243 0.41235 0.12964 0.13873 0.04721 0.27924 0.09808 0.42041 0.15381 0.14117 0.05573 0.28281 0.11619 0.42627 0.18091 0.14346 0.06472 0.288 0.13385 0.43359 0.20801 0.14559 0.07416 0.28654 0.15229 0.42187 0.23364 0.13533 0.08135 0.26494 0.16623 0.39038 0.25415 0.12544 0.08792 0.24663 0.17858 0.36255 0.27246 0.11591 0.09388 0.22722 0.1908 0.33398 0.29004 0.10676 0.09923 0.20891 0.20072 0.30688 0.30469 0.09797 0.10397 0.19169 0.20978 0.28125 0.31787 0.08955 0.10809 0.17484 0.21872 0.25635 0.33032 0.0815 0.1116 0.15909 0.22462 0.23291 0.33911 0.07382 0.11449 0.1437 0.23039 0.2102 0.34716 0.06651 0.11677 0.1294 0.23458 0.18896 0.35302 0.11913 0.23689 0.22504 0.47642 0.3186 0.7163 0.09356 0.23988 0.17442 0.4798 0.24536 0.71777 0.06657 0.22332 0.12295 0.44466 0.17212 0.6621h9.3705c0.5817 0 1.0496-0.46859 1.0496-1.0503v-0.52221c-0.59227-0.24411-1.1863-0.56034-1.3909-0.67309-0.36177-0.19935-0.74244-0.41901-1.1418-0.66064-0.39939-0.24162-0.81755-0.50528-1.2554-0.79321s-0.8948-0.59998-1.3718-0.93822c-0.47702-0.33825-0.97419-0.7031-1.4912-1.0957-0.51701-0.3926-1.0535-0.81317-1.6113-1.2642-0.2789-0.22549-0.5575-0.43411-0.83495-0.62622-0.27745-0.1921-0.5543-0.36763-0.82983-0.52806-0.27553-0.16043-0.55009-0.30534-0.82324-0.43579-0.27314-0.13045-0.54489-0.24646-0.81518-0.34863-0.27028-0.10217-0.5387-0.19102-0.80566-0.2666-0.26696-0.075581-0.53224-0.13827-0.7954-0.18896-0.26317-0.050697-0.52478-0.088943-0.78369-0.11645-0.2589-0.02751-0.51486-0.04451-0.76904-0.05054-0.12709-3e-3 -0.25357-0.0028-0.37939-7.5e-4z" fill="#2563eb" fill-rule="evenodd" stop-color="#000000" stroke-width=".031141px" style="paint-order:stroke fill markers"/>
<path d="m8.9979 6.8339c-0.28016 0.002475-0.5548 0.012716-0.82383 0.03012-0.26903 0.017404-0.53257 0.041914-0.79051 0.073058-0.25794 0.031144-0.51031 0.069111-0.75718 0.11279-0.24687 0.043681-0.48802 0.093345-0.72386 0.14836-0.23583 0.055015-0.46635 0.11526-0.69117 0.1804-0.22482 0.065146-0.44401 0.13517-0.65785 0.20924-0.21384 0.074074-0.42228 0.15212-0.62516 0.23392-0.20289 0.081798-0.4002 0.16738-0.59216 0.2557-0.19196 0.08832-0.37842 0.17937-0.55947 0.27301-0.18106 0.093639-0.35692 0.18967-0.52711 0.28743-0.17019 0.097754-0.33476 0.19733-0.49411 0.298-0.088118 0.055671-0.17058 0.11227-0.25538 0.16855v5.6797c0.064329-0.03869 0.12588-0.07887 0.1913-0.11696 0.1905-0.11091 0.38566-0.21892 0.58511-0.32364 0.19945-0.10471 0.40313-0.20599 0.61106-0.30281 0.20793-0.09681 0.42012-0.18931 0.63606-0.27653s0.43564-0.1692 0.65913-0.24513c0.22348-0.07593 0.45068-0.14567 0.68124-0.2086 0.23056-0.06293 0.46458-0.11902 0.70175-0.16726 0.23717-0.04824 0.47767-0.08863 0.72097-0.12048 0.2433-0.03185 0.4893-0.05513 0.73827-0.06889s0.50076-0.0182 0.75494-0.01218c0.12709 3e-3 0.25463 0.0087 0.38292 0.01698 0.12841 0.0083 0.2572 0.01924 0.38676 0.033 0.2589 0.02751 0.52029 0.06626 0.78346 0.11696 0.13158 0.02535 0.26349 0.05378 0.39605 0.08524 1.016e-4 2.4e-5 1.639e-4 -2.4e-5 3.281e-4 0 0.13246 0.03144 0.26556 0.06606 0.39894 0.10382 0.13348 0.03779 0.26717 0.07871 0.4015 0.12305 9.9e-5 3.2e-5 1.64e-4 -3.3e-5 3.28e-4 0 0.13424 0.0443 0.26902 0.09187 0.40406 0.14291 0.27029 0.10216 0.54204 0.21818 0.81518 0.34863 0.27314 0.13045 0.54766 0.27536 0.82319 0.43579s0.55215 0.33628 0.8296 0.52839 0.55582 0.40064 0.83472 0.62612c0.5578 0.45098 1.0948 0.87182 1.6118 1.2644 0.51701 0.3926 1.014 0.75699 1.491 1.0952 0.47702 0.33825 0.93428 0.6503 1.3721 0.93822 0.43781 0.28792 0.85606 0.55176 1.2555 0.79339 0.39939 0.24163 0.77993 0.46106 1.1417 0.66041 0.20461 0.11275 0.79872 0.42944 1.391 0.67355v-11.93c-0.0056 1.968e-4 -0.01076 7.499e-4 -0.01635 9.749e-4 -0.23508 0.00894-0.47622 0.012934-0.72322 0.011857-0.247-0.00109-0.49972-0.00726-0.75878-0.019226-0.25906-0.011958-0.52437-0.02947-0.79563-0.053187-0.27126-0.023719-0.54855-0.053703-0.83216-0.090041-0.28361-0.036337-0.57355-0.079307-0.86965-0.12913-0.2961-0.049827-0.59842-0.10661-0.90714-0.17079-0.30873-0.064184-0.62377-0.1356-0.94527-0.21501s-0.64963-0.16661-0.98405-0.26211c-0.33441-0.095499-0.67503-0.19932-1.0225-0.31178-0.34747-0.11246-0.68952-0.21347-1.0257-0.30377-0.33618-0.090296-0.6665-0.17002-0.99142-0.23936-0.32492-0.069338-0.64441-0.12826-0.95809-0.17784-0.31369-0.049584-0.62164-0.08977-0.92413-0.1208-0.30248-0.031031-0.59949-0.052966-0.8908-0.06665-0.29131-0.013684-0.577-0.019125-0.85716-0.016661z" fill="#3b82f6" fill-rule="evenodd" stop-color="#000000" stroke-width=".031141px" style="paint-order:stroke fill markers"/>
<path d="m5.5142 7.9245 4.026 2.2479h8.2747v1.2103h-6.1061l4.026 2.2479h2.0801v1.1614l2.2479 1.2549v-6.0934h5.62e-4v-2.0289zm-0.38015 1.042-5.625e-4 8.1224h14.549l-4.0265-2.2479h-8.2742v-4.6196z" fill-opacity=".2" stop-color="#000000" style="-inkscape-stroke:none;font-variation-settings:normal"/>
<path d="m4.8847 7.3712 4.026 2.2479h8.2747v1.2103h-6.1061l4.026 2.2479h2.0801v1.1614l2.2479 1.2549v-6.0934h5.62e-4v-2.0289zm-0.38015 1.042-5.625e-4 8.1224h14.549l-4.0265-2.2479h-8.2742v-4.6196z" fill="#fff" stroke-width="1.0646"/>
</svg>
