<?xml version="1.0" encoding="UTF-8" standalone="no"?>
<svg
   width="24"
   height="24"
   version="1"
   id="svg12"
   xmlns="http://www.w3.org/2000/svg"
   xmlns:svg="http://www.w3.org/2000/svg">
  <defs
     id="defs16" />
  <path
     id="path12"
     style="font-variation-settings:normal;opacity:0.2;vector-effect:none;fill:#000000;fill-opacity:1;stroke:none;stroke-width:1;stroke-linecap:butt;stroke-linejoin:miter;stroke-miterlimit:4;stroke-dasharray:none;stroke-dashoffset:0;stroke-opacity:1;-inkscape-stroke:none;stop-color:#000000;stop-opacity:1"
     d="M 1.5474903,5.345766 7.6042996,8.7275813 H 20.053124 v 1.8208507 h -9.18619 l 6.056831,3.381816 h 3.12938 v 1.747189 l 3.381816,1.887895 V 8.3981741 h 8.46e-4 V 5.345766 Z M 0.97557622,6.9133525 0.97473084,19.132919 H 22.863027 L 16.805388,15.751098 H 15.634247 15.633403 4.3573691 V 8.8012442 Z" />
  <path
     style="fill:#2563eb;fill-opacity:1;stroke-width:0.811139"
     d="M 0.69816397,6.3631751 0.69731841,18.582738 H 22.585613 L 16.527973,15.20092 H 15.356836 15.355991 4.0799567 V 8.2510669 Z"
     id="path44874" />
  <path
     style="fill:#3b82f6;fill-opacity:1;stroke-width:0.811139"
     d="M 1.270078,4.7955885 7.3268873,8.177404 H 19.775711 v 1.8208506 h -9.18619 l 6.05683,3.3818164 h 3.129379 v 1.747189 l 3.381818,1.887893 V 7.8479969 h 8.44e-4 V 4.7955885 Z"
     id="path29607" />
  <path
     id="path31"
     style="font-variation-settings:normal;opacity:0.2;vector-effect:none;fill:#ffffff;fill-opacity:1;stroke-width:1;stroke-linecap:butt;stroke-linejoin:miter;stroke-miterlimit:4;stroke-dasharray:none;stroke-dashoffset:0;stroke-opacity:1;-inkscape-stroke:none;stop-color:#000000;stop-opacity:1"
     d="M 1.2714843,4.795899 2.0009767,5.203125 H 22.6875 v 3.0527341 8.4990239 l 0.46875,0.260742 V 7.848633 h 0.0031 V 4.795899 Z M 0.69726563,6.3632805 V 6.937317 L 3.6093751,8.563293 v 7.046082 H 16.309571 l 5.326171,2.973633 h 0.949219 L 16.529297,15.202149 H 4.0810547 V 8.2500001 Z M 10.59082,9.9990241 11.320312,10.40625 19.775711,10.405481 V 9.9982546 Z" />
</svg>
