<?xml version="1.0" encoding="UTF-8" standalone="no"?>
<svg
   width="24"
   height="24"
   version="1"
   id="svg12"
   xmlns="http://www.w3.org/2000/svg"
   xmlns:svg="http://www.w3.org/2000/svg">
  <defs
     id="defs16" />
  <rect
     style="opacity:0.2;stroke-width:0.374997"
     width="20.999834"
     height="20.999834"
     x="1.4999995"
     y="1.8751503"
     rx="1.0499916"
     ry="1.0499916"
     id="rect28957-5" />
  <rect
     style="fill:#60a5fa;fill-opacity:1;stroke:none;stroke-width:8.75899;stroke-linecap:round;stop-color:#000000"
     id="rect24605-7"
     width="20.999834"
     height="20.999834"
     x="1.5001655"
     y="1.5000167"
     ry="1.0499916"
     rx="1.0499916" />
  <rect
     style="fill:#1d4ed8;fill-opacity:1;stroke:none;stroke-width:8.75899;stroke-linecap:round;stop-color:#000000"
     id="rect25882-1"
     width="20.999834"
     height="10.196795"
     x="1.5001655"
     y="12.303055"
     ry="1.0499916"
     rx="1.0499916" />
  <path
     style="opacity:0.2;fill:#ffffff;stroke-width:0.374997"
     d="m 2.5504502,1.5000167 c -0.5816954,0 -1.0502845,0.4685896 -1.0502845,1.0502849 v 0.3749971 c 0,-0.5816954 0.4685891,-1.0502849 1.0502845,-1.0502849 H 21.449715 c 0.581696,0 1.050285,0.4685895 1.050285,1.0502849 V 2.5503016 c 0,-0.5816953 -0.468589,-1.0502849 -1.050285,-1.0502849 z"
     id="path10-6-5" />
  <path
     id="path146-4"
     style="fill:#2563eb;fill-opacity:1;fill-rule:evenodd;stroke-width:0.0311406px;paint-order:stroke fill markers;stop-color:#000000"
     d="m 7.4012436,12.940628 c -0.1258216,0.002 -0.2512435,0.0063 -0.3757293,0.01318 -0.2489729,0.01376 -0.4949717,0.03699 -0.7382754,0.06885 -0.243303,0.03185 -0.4842641,0.0726 -0.7214302,0.120848 -0.2371657,0.04824 -0.4710949,0.104057 -0.7016543,0.166991 -0.2305594,0.06293 -0.4576625,0.132812 -0.6811472,0.208739 -0.2234843,0.07593 -0.4432337,0.157406 -0.6591742,0.244627 -0.215941,0.08722 -0.427809,0.180037 -0.6357374,0.276853 -0.2079283,0.09681 -0.4113878,0.197776 -0.6108349,0.302488 -0.1994474,0.104711 -0.3947031,0.212819 -0.5852004,0.323727 -0.065422,0.03809 -0.1275639,0.0785 -0.1918928,0.117187 v 2.085921 c 0.140976,-0.05219 0.290433,-0.103653 0.4497032,-0.152343 0.1667117,-0.05096 0.3432708,-0.09929 0.5288047,-0.142821 0.1855339,-0.04353 0.3798941,-0.08256 0.583003,-0.114989 0.2031089,-0.03243 0.4148371,-0.05853 0.6342722,-0.07617 0.2194351,-0.01764 0.4466346,-0.02646 0.6811472,-0.02564 0.2345123,8.25e-4 0.4767491,0.01146 0.7250916,0.03442 0.2483418,0.02297 0.5029865,0.05814 0.7639102,0.106932 0.2609237,0.04879 0.527542,0.111409 0.7997981,0.189696 0.1361281,0.03914 0.2736237,0.08243 0.4123505,0.129638 0.1387283,0.04721 0.2792374,0.09808 0.4204065,0.153807 0.141171,0.05573 0.2828097,0.116192 0.4262663,0.180907 0.1434581,0.06472 0.2880003,0.133848 0.4335903,0.208006 0.1455888,0.07416 0.2865438,0.152294 0.4218716,0.233641 0.1353293,0.08135 0.2649418,0.166227 0.3903779,0.254148 0.1254358,0.08792 0.2466333,0.178576 0.362546,0.272459 0.115912,0.09388 0.2272238,0.190805 0.3339817,0.290036 0.1067576,0.09923 0.2089135,0.200719 0.3068825,0.304686 0.09797,0.103966 0.191694,0.20978 0.281247,0.317868 0.08955,0.108089 0.174844,0.218723 0.256346,0.33032 0.0815,0.111597 0.159087,0.224616 0.232908,0.339109 0.07382,0.114491 0.143695,0.230391 0.210204,0.347165 0.06651,0.116774 0.129401,0.234581 0.188963,0.353024 0.119129,0.236886 0.225042,0.476422 0.3186,0.716303 0.09356,0.239882 0.174419,0.479797 0.245361,0.717768 0.06657,0.223316 0.122946,0.444657 0.172116,0.662104 h 9.370534 c 0.581696,0 1.04955,-0.468589 1.04955,-1.050285 v -0.522212 c -0.592271,-0.244112 -1.186251,-0.560343 -1.390857,-0.673091 -0.361767,-0.19935 -0.742445,-0.419014 -1.141836,-0.660639 -0.399394,-0.241625 -0.817553,-0.505281 -1.255362,-0.793206 -0.437809,-0.287925 -0.894796,-0.599976 -1.371814,-0.938225 -0.477015,-0.33825 -0.974186,-0.703095 -1.491199,-1.095695 -0.517012,-0.3926 -1.05352,-0.813174 -1.611317,-1.26415 -0.2789,-0.225488 -0.5575,-0.434107 -0.834953,-0.626216 C 13.125213,14.684296 12.848367,14.508762 12.572835,14.348333 12.297306,14.187905 12.022744,14.042994 11.7496,13.912546 11.476457,13.782098 11.204706,13.666081 10.934418,13.563916 10.664134,13.46175 10.39572,13.372899 10.12876,13.297316 9.8618001,13.221735 9.5965242,13.15905 9.3333569,13.108353 9.07019,13.057656 8.8085748,13.01941 8.5496716,12.991899 c -0.2589047,-0.02751 -0.5148634,-0.04451 -0.7690367,-0.05054 -0.1270865,-0.003 -0.2535715,-0.0028 -0.3793916,-7.5e-4 z" />
  <path
     id="path148-9"
     style="fill:#3b82f6;fill-opacity:1;fill-rule:evenodd;stroke-width:0.0311406px;paint-order:stroke fill markers;stop-color:#000000"
     d="M 8.9979498,6.833924 C 8.7177941,6.836399 8.4431526,6.8466401 8.1741189,6.8640438 7.9050848,6.8814474 7.6415537,6.9059575 7.3836135,6.9371022 7.1256733,6.9682457 6.8733082,7.006213 6.6264342,7.0498942 6.3795598,7.0935753 6.1384146,7.1432392 5.9025786,7.1982542 5.6667437,7.2532693 5.4362315,7.3135114 5.2114073,7.378657 4.9865831,7.443803 4.7674018,7.5138255 4.5535609,7.587899 4.3397196,7.6619725 4.1312843,7.7400165 3.9283985,7.8218143 3.7255127,7.9036127 3.5281987,7.9891987 3.3362407,8.0775188 3.1442827,8.1658388 2.9578248,8.2568877 2.7767669,8.3505267 2.5957086,8.4441653 2.4198421,8.5401995 2.2496565,8.637954 2.0794704,8.7357083 1.9148921,8.8352883 1.7555506,8.9359555 1.6674323,8.9916265 1.5849754,9.048227 1.5001668,9.1045028 v 5.6796532 c 0.064329,-0.03869 0.1258756,-0.07887 0.1912976,-0.116958 0.190497,-0.110908 0.3856612,-0.218925 0.5851086,-0.323636 0.199447,-0.104712 0.4031345,-0.205993 0.6110633,-0.302808 0.2079283,-0.09681 0.4201159,-0.189312 0.6360568,-0.276532 0.2159409,-0.08722 0.4356434,-0.169204 0.6591281,-0.245131 0.2234847,-0.07593 0.4506786,-0.145667 0.681238,-0.208601 0.2305598,-0.06293 0.4645797,-0.119022 0.7017458,-0.167265 0.2371661,-0.04824 0.4776693,-0.08863 0.7209719,-0.120483 0.243304,-0.03185 0.4893021,-0.05513 0.7382746,-0.06889 0.2489725,-0.01376 0.5007635,-0.0182 0.7549369,-0.01218 0.1270865,0.003 0.2546308,0.0087 0.3829151,0.01698 0.1284124,0.0083 0.2572018,0.01924 0.3867625,0.033 0.2589032,0.02751 0.5202885,0.06626 0.7834554,0.116957 0.1315838,0.02535 0.2634905,0.05378 0.3960535,0.08524 1.016e-4,2.4e-5 1.639e-4,-2.4e-5 3.281e-4,0 0.1324628,0.03144 0.2655575,0.06606 0.398937,0.10382 0.13348,0.03779 0.267166,0.07871 0.401502,0.123046 9.9e-5,3.2e-5 1.64e-4,-3.3e-5 3.28e-4,0 0.134242,0.0443 0.269018,0.09187 0.404065,0.142912 0.270287,0.102165 0.542036,0.218182 0.815179,0.34863 0.27314,0.130448 0.54766,0.275358 0.823189,0.435787 0.275529,0.160429 0.55215,0.336283 0.829599,0.528392 0.277449,0.192109 0.555824,0.400636 0.834724,0.626124 0.557797,0.450976 1.094759,0.871823 1.611771,1.264423 0.517013,0.3926 1.013951,0.756986 1.49097,1.095236 0.477015,0.33825 0.934279,0.6503 1.372088,0.938224 0.437809,0.287925 0.856058,0.551765 1.255452,0.793389 0.399391,0.241626 0.779934,0.46106 1.141697,0.66041 C 21.31361,20.36699 21.907729,20.683678 22.5,20.92779 V 18.56749 8.9974751 C 22.4944,8.9976719 22.48924,8.998225 22.48365,8.99845 22.248572,9.00739 22.00743,9.011384 21.76043,9.010307 21.513435,9.009217 21.260709,9.003047 21.00165,8.991081 20.742591,8.9791229 20.477281,8.9616106 20.206019,8.9378939 19.934754,8.9141753 19.65747,8.8841913 19.373856,8.8478526 19.090245,8.8115154 18.800305,8.768546 18.504208,8.7187183 18.208106,8.6688913 17.905791,8.6121119 17.597063,8.5479281 17.288336,8.4837444 16.97329,8.4123262 16.65179,8.3329187 16.33029,8.2535112 16.002156,8.1663042 15.667741,8.0708056 15.33333,7.9753066 14.992713,7.8714822 14.645244,7.7590255 14.297776,7.646568 13.955722,7.5455525 13.619545,7.4552558 13.283364,7.3649595 12.953044,7.2852322 12.628128,7.2158933 12.303208,7.1465553 11.983722,7.0876376 11.670037,7.038054 11.356351,6.9884696 11.048392,6.9482835 10.745911,6.917251 10.443428,6.88622 10.146417,6.8642849 9.8551116,6.8506012 9.5638065,6.8369176 9.278112,6.8314764 8.9979566,6.8339401 Z" />
  <path
     id="path42840"
     style="font-variation-settings:normal;vector-effect:none;fill:#000000;fill-opacity:0.2;stroke:none;stroke-width:0.61162;stroke-linecap:butt;stroke-linejoin:miter;stroke-miterlimit:4;stroke-dasharray:none;stroke-dashoffset:0;stroke-opacity:1;-inkscape-stroke:none;stop-color:#000000"
     d="m 5.5142496,7.9244885 4.0259699,2.2478975 h 8.2747485 v 1.210322 h -6.106072 l 4.025983,2.247897 h 2.080102 v 1.161359 l 2.247898,1.254884 V 9.9534282 h 5.62e-4 V 7.9244885 Z M 5.1340983,8.9664653 5.1335358,17.088825 H 19.682713 l -4.02652,-2.247898 h -0.778457 -5.62e-4 -7.4951936 v -4.619578 z" />
  <path
     id="path31"
     style="fill:#ffffff;fill-opacity:1;stroke-width:1.06462"
     d="m 4.8847466,7.3712141 4.0259699,2.2478971 h 8.2747485 v 1.2103218 h -6.106072 l 4.025983,2.247898 h 2.080102 v 1.161359 l 2.247898,1.254884 V 9.4001539 h 5.62e-4 V 7.3712141 Z M 4.5045953,8.413191 4.5040328,16.53555 H 19.05321 L 15.02669,14.287652 H 14.248233 14.247671 6.7524774 V 9.668075 Z" />
</svg>
