<svg width="48" height="48" version="1" xmlns="http://www.w3.org/2000/svg">
<rect x="3" y="3.3753" width="42" height="42" rx="2.1" ry="2.1" opacity=".2" stroke-width=".74999"/>
<rect x="3.0003" y="2.625" width="42" height="42" rx="2.1" ry="2.1" fill="#60a5fa" stop-color="#000000"/>
<rect x="3.0003" y="24.231" width="42" height="20.394" rx="2.1" ry="2.1" fill="#1d4ed8" stop-color="#000000"/>
<path d="m5.1009 2.625c-1.1634 0-2.1006 0.93718-2.1006 2.1006v0.74999c0-1.1634 0.93718-2.1006 2.1006-2.1006h37.799c1.1634 0 2.1006 0.93718 2.1006 2.1006v-0.74999c0-1.1634-0.93718-2.1006-2.1006-2.1006z" fill="#fff" opacity=".2" stroke-width=".74999"/>
<path d="m14.802 25.506c-0.25164 0.0041-0.50249 0.01261-0.75146 0.02637-0.49795 0.02753-0.98994 0.07399-1.4766 0.1377-0.4866 0.0637-0.96853 0.14521-1.4429 0.2417-0.47433 0.09649-0.94219 0.20811-1.4033 0.33398-0.46112 0.12587-0.91532 0.26562-1.3623 0.41748-0.44697 0.15185-0.88647 0.31481-1.3183 0.48925-0.43188 0.17444-0.85562 0.36008-1.2715 0.55371-0.41586 0.19363-0.82278 0.39555-1.2217 0.60498-0.39889 0.20942-0.78941 0.42564-1.1704 0.64746-0.13084 0.076178-0.25513 0.157-0.38379 0.23437v4.1718c0.28195-0.10438 0.58087-0.2073 0.89941-0.30468 0.33342-0.10193 0.68654-0.19857 1.0576-0.28564 0.37107-0.08707 0.75979-0.16513 1.166-0.22998 0.40622-0.06485 0.82967-0.11706 1.2685-0.15234 0.43887-0.03528 0.89327-0.05292 1.3623-0.05127 0.46902 0.0016 0.9535 0.02291 1.4502 0.06885 0.49668 0.04594 1.006 0.11629 1.5278 0.21386 0.52185 0.09758 1.0551 0.22282 1.5996 0.37939 0.27226 0.07829 0.54725 0.16486 0.8247 0.25928 0.27746 0.09441 0.55848 0.19615 0.84081 0.30762 0.28234 0.11146 0.56562 0.23238 0.85253 0.36181 0.28692 0.12943 0.576 0.2677 0.86718 0.41601 0.29118 0.14832 0.57309 0.30459 0.84374 0.46728 0.27066 0.16269 0.52988 0.33245 0.78076 0.5083 0.25087 0.17584 0.49327 0.35715 0.72509 0.54492 0.23182 0.18777 0.45445 0.38161 0.66796 0.58007 0.21352 0.19846 0.41783 0.40144 0.61376 0.60937 0.19594 0.20793 0.38339 0.41956 0.5625 0.63574 0.1791 0.21618 0.34969 0.43745 0.51269 0.66064 0.163 0.22319 0.31817 0.44923 0.46582 0.67822 0.14764 0.22898 0.28739 0.46078 0.42041 0.69433 0.13301 0.23355 0.2588 0.46916 0.37793 0.70605 0.23826 0.47377 0.45008 0.95284 0.6372 1.4326 0.18712 0.47976 0.34884 0.95959 0.49072 1.4355 0.13314 0.44663 0.24589 0.88932 0.34423 1.3242h18.741c1.1634 0 2.0991-0.93718 2.0991-2.1006v-1.0444c-1.1845-0.48822-2.3725-1.1207-2.7817-1.3462-0.72354-0.3987-1.4849-0.83803-2.2837-1.3213-0.79879-0.48325-1.6351-1.0106-2.5107-1.5864-0.87562-0.57585-1.7896-1.2-2.7436-1.8764-0.95403-0.6765-1.9484-1.4062-2.9824-2.1914s-2.107-1.6263-3.2226-2.5283c-0.5578-0.45098-1.115-0.86822-1.6699-1.2524-0.5549-0.38422-1.1086-0.73529-1.6597-1.0561-0.55106-0.32086-1.1002-0.61068-1.6465-0.87158-0.54629-0.2609-1.0898-0.49293-1.6304-0.69726-0.54057-0.20433-1.0774-0.38203-1.6113-0.5332-0.53392-0.15116-1.0645-0.27653-1.5908-0.37793-0.52633-0.10139-1.0496-0.17788-1.5674-0.23291-0.51781-0.05502-1.0297-0.08902-1.5381-0.10107-0.25417-6e-3 -0.50714-0.0056-0.75878-0.0015z" fill="#2563eb" fill-rule="evenodd" stop-color="#000000" stroke-width=".062281px" style="paint-order:stroke fill markers"/>
<path d="m17.996 13.293c-0.56031 0.0049-1.1096 0.02543-1.6477 0.06024-0.53807 0.03481-1.0651 0.08383-1.581 0.14612-0.51588 0.06229-1.0206 0.13822-1.5144 0.22558-0.49375 0.08736-0.97604 0.18669-1.4477 0.29672-0.47167 0.11003-0.93269 0.23051-1.3823 0.3608-0.44965 0.13029-0.88801 0.27034-1.3157 0.41848-0.42768 0.14815-0.84455 0.30424-1.2503 0.46783-0.40577 0.1636-0.8004 0.33477-1.1843 0.51141-0.38392 0.17664-0.75683 0.35874-1.1189 0.54602-0.36212 0.18728-0.71385 0.37934-1.0542 0.57485-0.34037 0.19551-0.66953 0.39467-0.98821 0.596-0.17624 0.11134-0.34115 0.22454-0.51077 0.3371v11.359c0.12866-0.07737 0.25175-0.15774 0.3826-0.23392 0.38099-0.22182 0.77132-0.43785 1.1702-0.64727 0.39889-0.20942 0.80627-0.41198 1.2221-0.60562 0.41586-0.19363 0.84023-0.37862 1.2721-0.55307 0.43188-0.17444 0.87129-0.33841 1.3183-0.49026 0.44697-0.15186 0.90136-0.29133 1.3625-0.4172 0.46112-0.12587 0.92916-0.23805 1.4035-0.33453 0.47433-0.09649 0.95534-0.17726 1.4419-0.24096 0.48661-0.0637 0.9786-0.11026 1.4766-0.13779 0.49794-0.02752 1.0015-0.0364 1.5099-0.02435 0.25417 6e-3 0.50926 0.01736 0.76583 0.03397 0.25682 0.01657 0.5144 0.03847 0.77352 0.06601 0.51781 0.05502 1.0406 0.13252 1.5669 0.23392 0.26317 0.0507 0.52698 0.10755 0.79211 0.17047 2.03e-4 4.9e-5 3.27e-4 -4.9e-5 6.56e-4 0 0.26493 0.06288 0.53112 0.13212 0.79787 0.20764 0.26696 0.07558 0.53433 0.15743 0.803 0.24609 1.97e-4 6.4e-5 3.28e-4 -6.5e-5 6.56e-4 0 0.26848 0.08861 0.53804 0.18373 0.80813 0.28582 0.54058 0.20433 1.0841 0.43636 1.6304 0.69726 0.54628 0.2609 1.0953 0.55072 1.6464 0.87157 0.55106 0.32086 1.1043 0.67257 1.6592 1.0568 0.5549 0.38422 1.1116 0.80127 1.6694 1.2522 1.1156 0.90195 2.1895 1.7436 3.2235 2.5288s2.0279 1.514 2.9819 2.1905c0.95403 0.6765 1.8686 1.3006 2.7442 1.8764 0.87562 0.57585 1.7121 1.1035 2.5109 1.5868 0.79878 0.48325 1.5599 0.92212 2.2834 1.3208 0.40921 0.2255 1.5974 0.85887 2.782 1.3471v-23.861c-0.01118 3.94e-4 -0.02152 0.0015-0.0327 2e-3 -0.47016 0.01789-0.95244 0.02587-1.4464 0.02371-0.49399-0.0022-0.99944-0.01453-1.5176-0.03845-0.51812-0.02392-1.0487-0.05895-1.5913-0.10638-0.54253-0.04744-1.0971-0.1074-1.6643-0.18008-0.56722-0.07268-1.1471-0.15861-1.7393-0.25827-0.5922-0.09965-1.1968-0.21321-1.8143-0.34158-0.61746-0.12837-1.2475-0.2712-1.8905-0.43002s-1.2993-0.33323-1.9681-0.52423c-0.66882-0.191-1.3501-0.39865-2.045-0.62356-0.69494-0.22492-1.379-0.42695-2.0514-0.60754-0.67236-0.18059-1.333-0.34005-1.9828-0.47872-0.64984-0.13868-1.2888-0.25651-1.9162-0.35568-0.62737-0.09917-1.2433-0.17954-1.8483-0.24161-0.60496-0.06206-1.199-0.10593-1.7816-0.1333-0.58261-0.02737-1.154-0.03825-1.7143-0.03332z" fill="#3b82f6" fill-rule="evenodd" stop-color="#000000" stroke-width=".062281px" style="paint-order:stroke fill markers"/>
<path d="m11.028 15.474 8.0519 4.4958h16.549v2.4206h-12.212l8.052 4.4958h4.1602v2.3227l4.4958 2.5098v-12.187h0.0015v-4.0579zm-0.7603 2.084-0.0011 16.245h29.098l-8.053-4.4958h-16.548v-9.2392z" fill-opacity=".2" stop-color="#000000" style="-inkscape-stroke:none;font-variation-settings:normal"/>
<path d="m9.7695 14.367 8.0519 4.4958h16.549v2.4206h-12.212l8.052 4.4958h4.1602v2.3227l4.4958 2.5098v-12.187h0.0015v-4.0579zm-0.7603 2.084-0.001125 16.245h29.098l-8.053-4.4958h-16.548v-9.2392z" fill="#fff" stroke-width="2.1292"/>
</svg>
