<?xml version="1.0" encoding="UTF-8" standalone="no"?>
<svg
   width="48"
   height="48"
   version="1"
   id="svg12"
   xmlns="http://www.w3.org/2000/svg"
   xmlns:svg="http://www.w3.org/2000/svg">
  <defs
     id="defs16" />
  <path
     id="path12"
     style="font-variation-settings:normal;opacity:0.2;vector-effect:none;fill:#000000;fill-opacity:1;stroke:none;stroke-width:1;stroke-linecap:butt;stroke-linejoin:miter;stroke-miterlimit:4;stroke-dasharray:none;stroke-dashoffset:0;stroke-opacity:1;-inkscape-stroke:none;stop-color:#000000;stop-opacity:1"
     d="m 3.0949805,10.691532 12.1136185,6.76363 h 24.897648 v 3.641702 H 21.733868 l 12.11366,6.763632 h 6.258761 v 3.494378 l 6.763632,3.775789 V 16.796348 h 0.0017 v -6.104816 z m -1.143828,3.135173 -0.00169,24.439132 H 45.726052 L 33.610774,31.502195 H 31.268493 31.266843 8.7147754 V 17.602488 Z" />
  <path
     style="fill:#2563eb;fill-opacity:1;stroke-width:0.811139"
     d="m 1.3963279,12.72635 -0.00169,24.439125 H 45.171225 L 33.055945,30.401839 H 30.713671 30.712021 8.1599536 V 16.502133 Z"
     id="path44874" />
  <path
     style="fill:#3b82f6;fill-opacity:1;stroke-width:0.811139"
     d="m 2.540156,9.5911767 12.113618,6.7636303 h 24.897647 v 3.641702 h -18.37238 l 12.11366,6.763632 h 6.258758 v 3.494378 l 6.763636,3.775786 V 15.695994 h 0.0016 V 9.5911767 Z"
     id="path29607" />
  <path
     id="path31"
     style="font-variation-settings:normal;opacity:0.2;vector-effect:none;fill:#ffffff;fill-opacity:1;stroke-width:1;stroke-linecap:butt;stroke-linejoin:miter;stroke-miterlimit:4;stroke-dasharray:none;stroke-dashoffset:0;stroke-opacity:1;-inkscape-stroke:none;stop-color:#000000;stop-opacity:1"
     d="M 2.5429686,9.5917977 4.0019533,10.40625 H 45.374998 v 6.105468 16.998047 l 0.9375,0.521484 V 15.697266 h 0.0062 V 9.5917977 Z M 1.3945312,12.726561 v 1.148073 L 7.21875,17.126586 v 14.092162 h 25.400391 l 10.652341,5.947266 h 1.898439 L 33.058593,30.404296 H 8.1621091 V 16.5 Z M 21.181639,19.998048 22.640623,20.8125 39.551421,20.811 v -0.814452 z" />
</svg>
