<?xml version="1.0" encoding="UTF-8" standalone="no"?>
<svg
   width="48"
   height="48"
   version="1"
   id="svg12"
   xmlns="http://www.w3.org/2000/svg"
   xmlns:svg="http://www.w3.org/2000/svg">
  <defs
     id="defs16" />
  <rect
     style="opacity:0.2;stroke-width:0.749994"
     width="41.999668"
     height="41.999668"
     x="2.9999995"
     y="3.3753002"
     rx="2.0999832"
     ry="2.0999832"
     id="rect28957-8" />
  <rect
     style="fill:#60a5fa;fill-opacity:1;stroke:none;stroke-width:17.518;stroke-linecap:round;stop-color:#000000"
     id="rect24605-6"
     width="41.999668"
     height="41.999668"
     x="3.0003314"
     y="2.6250324"
     ry="2.0999832"
     rx="2.0999832" />
  <rect
     style="fill:#1d4ed8;fill-opacity:1;stroke:none;stroke-width:17.518;stroke-linecap:round;stop-color:#000000"
     id="rect25882-3"
     width="41.999668"
     height="20.393591"
     x="3.0003314"
     y="24.23111"
     ry="2.0999832"
     rx="2.0999832" />
  <path
     style="opacity:0.2;fill:#ffffff;stroke-width:0.749994"
     d="m 5.1008999,2.6250323 c -1.1633908,0 -2.1005692,0.9371785 -2.1005692,2.1005693 v 0.749994 c 0,-1.1633907 0.9371784,-2.1005692 2.1005692,-2.1005692 H 42.899431 C 44.062822,3.3750264 45,4.3122049 45,5.4755956 V 4.7256016 C 45,3.5622109 44.062822,2.6250323 42.899431,2.6250323 Z"
     id="path10-6-6" />
  <path
     id="path146-8"
     style="fill:#2563eb;fill-opacity:1;fill-rule:evenodd;stroke-width:0.0622812px;paint-order:stroke fill markers;stop-color:#000000"
     d="m 14.802487,25.506254 c -0.251643,0.0041 -0.502487,0.01261 -0.751459,0.02637 -0.497946,0.02753 -0.989943,0.07399 -1.476551,0.137695 -0.486605,0.0637 -0.968528,0.14521 -1.44286,0.241696 -0.474331,0.09649 -0.94219,0.208113 -1.4033085,0.333983 C 9.2671896,26.371866 8.8129835,26.511621 8.366014,26.663475 7.9190453,26.815329 7.4795465,26.978287 7.0476654,27.152728 6.6157836,27.32717 6.1920475,27.512804 5.7761908,27.706435 5.3603341,27.900065 4.953415,28.101988 4.5545209,28.311411 4.1556261,28.520833 3.7651147,28.73705 3.38412,28.958866 3.2532767,29.035044 3.1289922,29.115869 3.0003345,29.193239 v 4.171842 c 0.281952,-0.10438 0.5808659,-0.207305 0.8994064,-0.304685 0.3334233,-0.101931 0.6865415,-0.198574 1.0576093,-0.285642 0.3710679,-0.08707 0.7597883,-0.165128 1.1660061,-0.229979 0.4062177,-0.06485 0.8296741,-0.117064 1.2685444,-0.152342 0.4388703,-0.03528 0.8932692,-0.05292 1.3622945,-0.05127 0.4690245,0.0016 0.9534982,0.02291 1.4501828,0.06885 0.496684,0.04594 1.005973,0.116288 1.527821,0.213865 0.521847,0.09758 1.055084,0.222817 1.599596,0.379391 0.272256,0.07829 0.547248,0.16486 0.824701,0.259276 0.277457,0.09441 0.558475,0.196152 0.840813,0.307615 0.282342,0.111463 0.565619,0.232383 0.852533,0.361813 0.286916,0.129431 0.576,0.267696 0.86718,0.416012 0.291178,0.148318 0.573088,0.30459 0.843744,0.467282 0.270658,0.162694 0.529883,0.332454 0.780755,0.508296 0.250872,0.175843 0.493267,0.357152 0.725092,0.544918 0.231824,0.187767 0.454448,0.381611 0.667964,0.580074 0.213515,0.198463 0.417826,0.401436 0.613764,0.60937 0.195942,0.207933 0.38339,0.419561 0.562496,0.635737 0.179105,0.216177 0.349686,0.437446 0.512691,0.660639 0.163005,0.223194 0.318174,0.449233 0.465816,0.678218 0.147642,0.228984 0.28739,0.460783 0.420407,0.69433 0.133014,0.233549 0.258803,0.469163 0.377928,0.706049 0.238256,0.473772 0.450084,0.952844 0.6372,1.432606 0.187123,0.479763 0.348837,0.959594 0.490721,1.435536 0.133139,0.446632 0.245893,0.889315 0.344232,1.324208 H 42.900901 C 44.064292,44.625248 45,43.688069 45,42.524679 v -1.044426 c -1.184541,-0.488222 -2.372502,-1.120686 -2.781713,-1.34618 -0.723535,-0.398702 -1.484891,-0.838029 -2.283672,-1.321279 -0.798789,-0.48325 -1.635107,-1.010563 -2.510725,-1.586413 -0.875618,-0.575849 -1.789591,-1.199951 -2.743629,-1.87645 -0.95403,-0.6765 -1.948372,-1.406189 -2.982396,-2.191389 -1.034024,-0.7852 -2.107041,-1.626349 -3.222635,-2.5283 C 27.91743,30.179266 27.360229,29.762027 26.805324,29.37781 26.250426,28.993592 25.696735,28.642524 25.145669,28.321666 24.594611,28.000809 24.045488,27.710987 23.4992,27.450091 22.952914,27.189196 22.409411,26.957161 21.868837,26.752831 21.328269,26.5485 20.791441,26.370797 20.257521,26.219632 19.7236,26.068469 19.193048,25.9431 18.666714,25.841705 18.14038,25.740311 17.617149,25.66382 17.099343,25.608797 c -0.517809,-0.05502 -1.029727,-0.08902 -1.538073,-0.101073 -0.254173,-0.006 -0.507143,-0.0056 -0.758784,-0.0015 z" />
  <path
     id="path148-2"
     style="fill:#3b82f6;fill-opacity:1;fill-rule:evenodd;stroke-width:0.0622812px;paint-order:stroke fill markers;stop-color:#000000"
     d="m 17.995899,13.292847 c -0.560311,0.0049 -1.109594,0.02543 -1.647661,0.06024 -0.538069,0.03481 -1.065131,0.08383 -1.581011,0.146117 -0.515881,0.06229 -1.020611,0.138221 -1.514359,0.225584 -0.493749,0.08736 -0.976039,0.18669 -1.447711,0.29672 -0.47167,0.11003 -0.932694,0.230514 -1.382343,0.360805 C 9.9731658,14.512605 9.5348032,14.65265 9.1071214,14.800797 8.6794388,14.948944 8.2625681,15.105032 7.8567965,15.268628 7.451025,15.432225 7.0563969,15.603397 6.6724809,15.780037 6.288565,15.956677 5.9156492,16.138775 5.5535333,16.326053 5.1914166,16.51333 4.8396837,16.705398 4.4993124,16.900907 4.1589403,17.096416 3.8297837,17.295576 3.5111007,17.49691 3.3348641,17.608252 3.1699502,17.721453 3.000333,17.834005 v 11.359306 c 0.1286577,-0.07737 0.2517513,-0.157738 0.3825952,-0.233915 0.380994,-0.221817 0.7713224,-0.43785 1.1702172,-0.647273 0.3988941,-0.209423 0.8062692,-0.411985 1.2221266,-0.605615 0.4158567,-0.193631 0.8402319,-0.378624 1.2721137,-0.553066 0.4318818,-0.174441 0.8712868,-0.338406 1.3182563,-0.49026 0.4469695,-0.151855 0.9013571,-0.291334 1.362476,-0.417202 0.46112,-0.12587 0.929159,-0.238046 1.403492,-0.334532 0.474332,-0.09649 0.955338,-0.177258 1.441943,-0.240964 0.486609,-0.0637 0.978605,-0.110258 1.47655,-0.137786 0.497945,-0.02752 1.001527,-0.0364 1.509874,-0.02435 0.254173,0.006 0.509261,0.01736 0.76583,0.03397 0.256825,0.01657 0.514403,0.03847 0.773525,0.06601 0.517806,0.05502 1.040577,0.132521 1.566911,0.233915 0.263167,0.0507 0.526981,0.107552 0.792107,0.17047 2.03e-4,4.9e-5 3.27e-4,-4.9e-5 6.56e-4,0 0.264926,0.06288 0.531115,0.132115 0.797874,0.20764 0.266961,0.07558 0.534331,0.157429 0.803004,0.246092 1.97e-4,6.4e-5 3.28e-4,-6.5e-5 6.56e-4,0 0.268483,0.08861 0.538035,0.183731 0.808129,0.285825 0.540575,0.20433 1.084073,0.436364 1.630358,0.697259 0.546281,0.260896 1.095322,0.550717 1.64638,0.871574 0.551058,0.320858 1.104299,0.672567 1.659197,1.056785 0.554898,0.384217 1.111648,0.801271 1.669449,1.252247 1.115594,0.901952 2.189518,1.743647 3.223542,2.528847 1.034024,0.7852 2.027901,1.513972 2.981939,2.190472 0.95403,0.676499 1.868558,1.300599 2.744176,1.876448 0.875618,0.57585 1.712116,1.103529 2.510905,1.586778 0.798781,0.483251 1.559867,0.922119 2.283394,1.32082 0.409212,0.225495 1.59745,0.858872 2.781991,1.347095 V 36.759988 17.619957 c -0.01118,3.94e-4 -0.02152,0.0015 -0.0327,0.002 -0.470156,0.01789 -0.95244,0.02587 -1.446439,0.02371 -0.493991,-0.0022 -0.999442,-0.01453 -1.51756,-0.03845 -0.518119,-0.02392 -1.048739,-0.05895 -1.591263,-0.106383 -0.54253,-0.04744 -1.097098,-0.107405 -1.664326,-0.180082 -0.567221,-0.07268 -1.147101,-0.158614 -1.739297,-0.258269 -0.592202,-0.09965 -1.196833,-0.213213 -1.814288,-0.34158 -0.617455,-0.128368 -1.247547,-0.271204 -1.890547,-0.430019 -0.643,-0.158815 -1.299267,-0.333229 -1.968097,-0.524227 -0.668822,-0.190998 -1.350057,-0.398646 -2.044994,-0.62356 -0.694937,-0.224915 -1.379044,-0.426946 -2.051399,-0.607539 -0.672362,-0.180593 -1.333002,-0.340047 -1.982834,-0.478725 -0.64984,-0.138676 -1.288812,-0.256512 -1.916182,-0.355679 -0.627373,-0.09917 -1.243291,-0.179541 -1.848253,-0.241606 -0.604965,-0.06206 -1.198987,-0.105932 -1.781598,-0.133299 -0.58261,-0.02737 -1.153999,-0.03825 -1.71431,-0.03332 z" />
  <path
     id="path42840"
     style="font-variation-settings:normal;vector-effect:none;fill:#000000;fill-opacity:0.2;stroke:none;stroke-width:1.22324;stroke-linecap:butt;stroke-linejoin:miter;stroke-miterlimit:4;stroke-dasharray:none;stroke-dashoffset:0;stroke-opacity:1;-inkscape-stroke:none;stop-color:#000000"
     d="m 11.028499,15.473976 8.05194,4.495795 h 16.549497 v 2.420644 H 23.417792 l 8.051967,4.495795 h 4.160203 v 2.322717 l 4.495796,2.509768 V 19.531856 h 0.0015 v -4.05788 z m -0.760303,2.083954 -0.0011,16.244719 H 39.365454 L 31.31241,29.306853 h -1.556912 -0.0011 -14.990387 v -9.239155 z" />
  <path
     id="path31"
     style="fill:#ffffff;fill-opacity:1;stroke-width:2.12923"
     d="m 9.7694929,14.367427 8.0519401,4.495795 H 34.37093 v 2.420644 H 22.158786 l 8.051967,4.495795 h 4.160203 v 2.322717 l 4.495795,2.509769 v -12.18684 h 0.0015 v -4.05788 z M 9.0091902,16.451381 9.0080652,32.6961 H 38.106422 l -8.053043,-4.495796 h -1.556912 -0.0011 -14.990387 v -9.239155 z" />
</svg>
