<?xml version="1.0" encoding="UTF-8"?>
<!-- Created with Inkscape (http://www.inkscape.org/) -->
<svg width="2560" height="1600" version="1.1" viewBox="0 0 677.33 423.33" xmlns="http://www.w3.org/2000/svg" xmlns:xlink="http://www.w3.org/1999/xlink">
 <defs>
  <linearGradient id="linearGradient16905">
   <stop stop-color="#1b668f" offset="0"/>
   <stop stop-color="#121c94" offset=".5"/>
   <stop stop-color="#382279" offset="1"/>
  </linearGradient>
  <linearGradient id="linearGradient78639">
   <stop stop-color="#2936ea" offset="0"/>
   <stop stop-color="#164593" offset="1"/>
  </linearGradient>
  <linearGradient id="linearGradient75480-3" x1="-21.655" x2="1378.4" y1="110.14" y2="110.14" gradientTransform="matrix(.49585 0 0 .49585 3.1213e-6 55.336)" gradientUnits="userSpaceOnUse" xlink:href="#linearGradient16905"/>
  <linearGradient id="linearGradient3595-6" x1="-21.656" x2="383.08" y1="81.035" y2="81.035" gradientTransform="matrix(1.8741 0 0 1.8741 3.1213e-6 34.768)" gradientUnits="userSpaceOnUse">
   <stop stop-color="#51d677" stop-opacity=".47843" offset="0"/>
   <stop stop-color="#eded84" stop-opacity=".32941" offset=".26488"/>
   <stop stop-color="#a9ebf6" stop-opacity=".19951" offset=".49538"/>
   <stop stop-color="#e9bf9d" stop-opacity=".35686" offset=".74191"/>
   <stop stop-color="#5138aa" stop-opacity=".52157" offset="1"/>
  </linearGradient>
  <linearGradient id="linearGradient21995-7" x1="-21.655" x2="383.08" y1="92.147" y2="92.147" gradientTransform="translate(0 -155.84)" gradientUnits="userSpaceOnUse">
   <stop stop-color="#445feb" offset="0"/>
   <stop stop-color="#252fb5" offset=".5"/>
   <stop stop-color="#9b53c1" offset="1"/>
  </linearGradient>
  <linearGradient id="linearGradient21997-5" x1="-21.655" x2="383.08" y1="99.556" y2="99.556" gradientTransform="translate(0 -189.92)" gradientUnits="userSpaceOnUse">
   <stop stop-color="#3410ab" stop-opacity=".67526" offset="0"/>
   <stop stop-color="#169bd6" offset=".5"/>
   <stop stop-color="#0940a2" stop-opacity=".56984" offset="1"/>
  </linearGradient>
  <linearGradient id="linearGradient21999-5" x1="-24.528" x2="386.16" y1="-24.045" y2="-24.045" gradientTransform="translate(0 -138.44)" gradientUnits="userSpaceOnUse">
   <stop stop-color="#6a5e19" offset="0"/>
   <stop stop-color="#85751e" stop-opacity=".98824" offset=".14669"/>
   <stop stop-color="#8c7b20" stop-opacity=".96863" offset=".30531"/>
   <stop stop-color="#bda62c" stop-opacity=".95686" offset=".51079"/>
   <stop stop-color="#82721e" stop-opacity=".94902" offset=".6231"/>
   <stop stop-color="#968623" stop-opacity=".99608" offset=".83541"/>
   <stop stop-color="#4e4412" stop-opacity=".92157" offset="1"/>
  </linearGradient>
  <linearGradient id="linearGradient22001-2" x1="-21.655" x2="1378.4" y1="110.14" y2="110.14" gradientTransform="matrix(.26458 0 0 .26458 0 -4.9003)" gradientUnits="userSpaceOnUse" xlink:href="#linearGradient16905"/>
  <linearGradient id="linearGradient22003-9" x1="181.04" x2="361.42" y1="110.14" y2="110.14" gradientTransform="translate(0 -18.521)" gradientUnits="userSpaceOnUse" xlink:href="#linearGradient78639"/>
  <linearGradient id="linearGradient22005-1" x1="-21.655" x2="183.99" y1="110.14" y2="110.14" gradientTransform="translate(0 -18.521)" gradientUnits="userSpaceOnUse">
   <stop stop-color="#2f38a6" offset="0"/>
   <stop stop-color="#3d33eb" offset="1"/>
  </linearGradient>
  <linearGradient id="linearGradient22007-2" x1="-82.44" x2="1448.4" y1="345.52" y2="345.52" gradientTransform="scale(.26458)" gradientUnits="userSpaceOnUse" xlink:href="#linearGradient1294-7"/>
  <linearGradient id="linearGradient1294-7">
   <stop stop-color="#6a5e19" offset="0"/>
   <stop stop-color="#d1b832" stop-opacity=".98824" offset=".14669"/>
   <stop stop-color="#8c7b20" stop-opacity=".96863" offset=".30531"/>
   <stop stop-color="#dbc865" stop-opacity=".95686" offset=".51079"/>
   <stop stop-color="#82721e" stop-opacity=".94902" offset=".6231"/>
   <stop stop-color="#968623" stop-opacity=".99608" offset=".83541"/>
   <stop stop-color="#cfb530" stop-opacity=".92157" offset="1"/>
  </linearGradient>
  <linearGradient id="linearGradient22009-0" x1="-21.655" x2="383.08" y1="92.147" y2="92.147" gradientTransform="translate(0 -18.521)" gradientUnits="userSpaceOnUse">
   <stop stop-color="#445feb" offset="0"/>
   <stop stop-color="#4a55ed" offset=".5"/>
   <stop stop-color="#9b53c1" offset="1"/>
  </linearGradient>
  <linearGradient id="linearGradient22011-9" x1="-24.528" x2="386.16" y1="-24.045" y2="-24.045" gradientTransform="translate(0 -2.3527)" gradientUnits="userSpaceOnUse" xlink:href="#linearGradient1056-3"/>
  <linearGradient id="linearGradient1056-3">
   <stop stop-color="#6a5e19" offset="0"/>
   <stop stop-color="#85751e" stop-opacity=".98824" offset=".14669"/>
   <stop stop-color="#a38f26" stop-opacity=".96863" offset=".30531"/>
   <stop stop-color="#f5d737" stop-opacity=".95686" offset=".51079"/>
   <stop stop-color="#968623" stop-opacity=".99608" offset=".83541"/>
   <stop stop-color="#4e4412" stop-opacity=".92157" offset="1"/>
  </linearGradient>
  <linearGradient id="linearGradient22013-6" x1="-21.655" x2="383.08" y1="99.556" y2="99.556" gradientTransform="translate(0 -59.037)" gradientUnits="userSpaceOnUse">
   <stop stop-color="#3410ab" stop-opacity=".67526" offset="0"/>
   <stop stop-color="#2936e9" offset=".5"/>
   <stop stop-color="#0940a2" stop-opacity=".56984" offset="1"/>
  </linearGradient>
  <linearGradient id="linearGradient22015-0" x1="-24.528" x2="386.16" y1="-24.045" y2="-24.045" gradientTransform="translate(0 -44.553)" gradientUnits="userSpaceOnUse" xlink:href="#linearGradient17531-6"/>
  <linearGradient id="linearGradient17531-6">
   <stop stop-color="#6a5e19" offset="0"/>
   <stop stop-color="#85751e" stop-opacity=".98824" offset=".14669"/>
   <stop stop-color="#8c7b20" stop-opacity=".96863" offset=".30531"/>
   <stop stop-color="#d1b637" stop-opacity=".95686" offset=".51079"/>
   <stop stop-color="#82721e" stop-opacity=".94902" offset=".6231"/>
   <stop stop-color="#968623" stop-opacity=".99608" offset=".83541"/>
   <stop stop-color="#4e4412" stop-opacity=".92157" offset="1"/>
  </linearGradient>
  <linearGradient id="linearGradient22017-2" x1="253.56" x2="239.42" y1="147.01" y2="130.45" gradientTransform="translate(0 -18.521)" gradientUnits="userSpaceOnUse">
   <stop stop-color="#28ead8" stop-opacity=".58819" offset="0"/>
   <stop stop-color="#164593" stop-opacity=".023098" offset="1"/>
  </linearGradient>
  <linearGradient id="linearGradient22019-6" x1="251.13" x2="241.25" y1="138.13" y2="126.04" gradientTransform="matrix(-1 0 0 1 361.42 -18.521)" gradientUnits="userSpaceOnUse">
   <stop stop-color="#dc29ea" stop-opacity=".68736" offset="0"/>
   <stop stop-color="#164593" stop-opacity=".023098" offset="1"/>
  </linearGradient>
  <linearGradient id="linearGradient24593-1" x1="181.04" x2="361.42" y1="110.14" y2="110.14" gradientTransform="matrix(1.8741 0 0 1.8741 3.1213e-6 29.81)" gradientUnits="userSpaceOnUse" xlink:href="#linearGradient78639"/>
  <linearGradient id="linearGradient78325-8" x1="-21.655" x2="183.99" y1="110.14" y2="110.14" gradientTransform="matrix(1.8741 0 0 1.8741 3.1213e-6 29.81)" gradientUnits="userSpaceOnUse">
   <stop stop-color="#2e3476" offset="0"/>
   <stop stop-color="#3d33eb" offset="1"/>
  </linearGradient>
  <linearGradient id="linearGradient87990-7" x1="-82.44" x2="1448.4" y1="345.52" y2="345.52" gradientTransform="matrix(.49585 0 0 .49585 3.1213e-6 64.519)" gradientUnits="userSpaceOnUse" xlink:href="#linearGradient1294-7"/>
  <linearGradient id="linearGradient25753-9" x1="-21.655" x2="383.08" y1="92.147" y2="92.147" gradientTransform="matrix(1.8741 0 0 1.8741 3.1213e-6 29.81)" gradientUnits="userSpaceOnUse">
   <stop stop-color="#4465eb" offset="0"/>
   <stop stop-color="#46a7e1" offset=".5"/>
   <stop stop-color="#6b50c1" offset="1"/>
  </linearGradient>
  <linearGradient id="linearGradient25219-2" x1="-24.528" x2="386.16" y1="-24.045" y2="-24.045" gradientTransform="matrix(1.8741 0 0 1.8741 3.1213e-6 60.11)" gradientUnits="userSpaceOnUse" xlink:href="#linearGradient1056-3"/>
  <linearGradient id="linearGradient14910-0" x1="253.56" x2="239.42" y1="147.01" y2="130.45" gradientTransform="matrix(1.8741 0 0 1.8741 3.1213e-6 29.81)" gradientUnits="userSpaceOnUse">
   <stop stop-color="#e06fea" stop-opacity=".39011" offset="0"/>
   <stop stop-color="#164593" stop-opacity=".023098" offset="1"/>
  </linearGradient>
  <linearGradient id="linearGradient15720-2" x1="251.13" x2="241.25" y1="138.13" y2="126.04" gradientTransform="matrix(-1.8741 0 0 1.8741 677.33 29.81)" gradientUnits="userSpaceOnUse">
   <stop stop-color="#dc29ea" stop-opacity=".18321" offset="0"/>
   <stop stop-color="#164593" stop-opacity=".023098" offset="1"/>
  </linearGradient>
  <linearGradient id="linearGradient35006-37" x1="542.26" x2="409.86" y1="531.52" y2="437.69" gradientTransform="matrix(.49585 0 0 .49585 3.1213e-6 34.768)" gradientUnits="userSpaceOnUse">
   <stop stop-color="#9e80dc" stop-opacity=".08" offset="0"/>
   <stop stop-color="#9e80dc" stop-opacity="0" offset="1"/>
  </linearGradient>
  <linearGradient id="linearGradient35006-3-5" x1="542.26" x2="409.86" y1="531.52" y2="437.69" gradientTransform="matrix(-.49585 0 0 .49585 856.05 -93.682)" gradientUnits="userSpaceOnUse">
   <stop stop-color="#9e80dc" stop-opacity=".12323" offset="0"/>
   <stop stop-color="#9e80dc" stop-opacity="0" offset="1"/>
  </linearGradient>
  <linearGradient id="linearGradient26562-9" x1="-21.655" x2="383.08" y1="99.556" y2="99.556" gradientTransform="matrix(1.8741 0 0 1.8741 3.1213e-6 -46.121)" gradientUnits="userSpaceOnUse">
   <stop stop-color="#0031b6" offset="0"/>
   <stop stop-color="#255cc7" offset=".5"/>
   <stop stop-color="#3d3dd3" offset="1"/>
  </linearGradient>
  <linearGradient id="linearGradient34063-2" x1="79.735" x2="21.187" y1="42.158" y2="1.0037" gradientTransform="matrix(1.8741 0 0 1.8741 3.1213e-6 34.768)" gradientUnits="userSpaceOnUse">
   <stop stop-color="#9e7fdc" stop-opacity=".1" offset="0"/>
   <stop stop-color="#9e7fdc" stop-opacity="0" offset="1"/>
  </linearGradient>
  <linearGradient id="linearGradient53858-2" x1="79.735" x2="21.187" y1="42.158" y2="1.0037" gradientTransform="matrix(-1.8741 0 0 1.8741 515.18 251.22)" gradientUnits="userSpaceOnUse">
   <stop stop-color="#7fdcdb" stop-opacity=".07" offset="0"/>
   <stop stop-color="#9e7fdc" stop-opacity="0" offset="1"/>
  </linearGradient>
  <linearGradient id="linearGradient35392-8" x1="654.09" x2="409.86" y1="615.36" y2="437.69" gradientTransform="matrix(.49585 0 0 .49585 14.38 -18.847)" gradientUnits="userSpaceOnUse">
   <stop stop-color="#b1cdef" stop-opacity=".26275" offset="0"/>
   <stop stop-color="#9e80dc" stop-opacity="0" offset="1"/>
  </linearGradient>
  <linearGradient id="linearGradient37083-9" x1="32.688" x2="-4.3074" y1="61.359" y2="35.59" gradientTransform="matrix(1.8741 0 0 1.8741 3.1213e-6 34.768)" gradientUnits="userSpaceOnUse">
   <stop stop-color="#a9e3ed" stop-opacity=".05" offset="0"/>
   <stop stop-color="#a9e3ed" stop-opacity="0" offset="1"/>
  </linearGradient>
  <linearGradient id="linearGradient37280-7" x1="32.688" x2="-4.3074" y1="61.359" y2="35.59" gradientTransform="matrix(4.5921 0 0 4.5921 165.55 -47.178)" gradientUnits="userSpaceOnUse">
   <stop stop-color="#60cbde" stop-opacity=".059582" offset="0"/>
   <stop stop-color="#a9e3ed" stop-opacity="0" offset="1"/>
  </linearGradient>
  <linearGradient id="linearGradient37849-3" x1="32.688" x2="-4.3074" y1="61.359" y2="35.59" gradientTransform="matrix(4.5921 0 0 4.5921 46.401 -31.369)" gradientUnits="userSpaceOnUse">
   <stop stop-color="#84b0b8" stop-opacity=".05" offset="0"/>
   <stop stop-color="#a9e3ed" stop-opacity="0" offset="1"/>
  </linearGradient>
  <linearGradient id="linearGradient69576-6" x1="-24.528" x2="386.16" y1="-24.045" y2="-24.045" gradientTransform="matrix(1.8741 0 0 1.8741 3.1213e-6 -18.976)" gradientUnits="userSpaceOnUse" xlink:href="#linearGradient17531-6"/>
  <linearGradient id="linearGradient53643-1" x1="79.735" x2="21.187" y1="42.158" y2="1.0037" gradientTransform="matrix(-1.8741 0 0 1.8741 515.76 166.62)" gradientUnits="userSpaceOnUse">
   <stop stop-color="#dc7fdc" stop-opacity=".08" offset="0"/>
   <stop stop-color="#9e7fdc" stop-opacity="0" offset="1"/>
  </linearGradient>
  <linearGradient id="linearGradient53697-2" x1="32.688" x2="-4.3074" y1="61.359" y2="35.59" gradientTransform="matrix(-4.5921 0 0 4.5921 626.57 -157.07)" gradientUnits="userSpaceOnUse">
   <stop stop-color="#a9e3ed" stop-opacity=".06" offset="0"/>
   <stop stop-color="#a9e3ed" stop-opacity="0" offset="1"/>
  </linearGradient>
  <linearGradient id="linearGradient53804-9" x1="32.688" x2="-4.3074" y1="61.359" y2="35.59" gradientTransform="matrix(-4.5921 0 0 4.5921 594.12 -102.35)" gradientUnits="userSpaceOnUse">
   <stop stop-color="#dd83f2" stop-opacity=".12549" offset="0"/>
   <stop stop-color="#a9e3ed" stop-opacity="0" offset="1"/>
  </linearGradient>
  <linearGradient id="linearGradient5163-3" x1="654.09" x2="409.86" y1="615.36" y2="437.69" gradientTransform="matrix(-.49585 0 0 .49585 662.95 -18.847)" gradientUnits="userSpaceOnUse">
   <stop stop-color="#b1cdef" stop-opacity=".14678" offset="0"/>
   <stop stop-color="#9e80dc" stop-opacity="0" offset="1"/>
  </linearGradient>
 </defs>
 <rect width="677.33" height="423.33" fill="#2a2e32" stop-color="#000000" style="-inkscape-stroke:none;font-variation-settings:normal;paint-order:stroke fill markers"/>
 <path d="m-40.584 22.543v39.204l358.67 263.39 20.58 43.438 20.58-43.438 358.67-263.39v-39.204l-379.25 278.5z" fill="url(#linearGradient75480-3)" stop-color="#000000" style="-inkscape-stroke:none;font-variation-settings:normal"/>
 <path d="m-77.502 64.457s20.31 42.24 94.807 38.563c10.643-0.52532 22.391-1.9877 35.344-4.6442 77.718-15.939 105.76 41.619 126.07 95.441 6.769 17.941 12.679 35.466 19.283 49.716 18.974 40.942 66.26 91.415 118.19 114.5 31.158 13.852 63.987 17.845 93.376 4.0042 25.04-11.793 29.922-26.092 28.908-39.406-1.0142-13.313-7.9248-25.64-6.4697-33.488 3.7639-20.299 18.393-22.82 33.078-21.456 24.476 2.2734 49.107 15.337 23.853-25.138-7.8447-12.572-11.741-23.882-13.042-33.861-3.9047-29.939 15.541-47.912 21.772-52.122 8.1993-5.5405 17.807-9.7032 28.442-12.824 74.445-21.843 199.24 7.3817 243.8-27.43m-844.72-53.217c1.7989 0.56283 21.833 43.818 94.132 41.919 10.32-0.16172 21.77-1.2926 34.435-3.6354 75.992-14.057 105.29 41.504 126.59 93.114 7.024 17.239 13.299 34.229 20.267 48.147 19.816 39.964 67.272 89.896 118.29 113.23 30.61 13.998 62.63 18.508 91.049 5.6458 24.14-10.673 28.228-23.842 26.033-36.42-2.1944-12.579-9.863-26.064-8.2906-35.227 3.7776-20.886 18.742-24.505 34.742-23.594 25.789 1.7305 52.448 13.835 29.43-25.925-7.013-12.387-10.375-23.515-11.525-33.302-3.0727-29.633 14.675-48.172 20.994-52.738 8.0151-5.4652 17.439-9.5744 27.916-12.649 74.449-21.559 195.18 4.2544 238.5-29.59m-839.88-50.331c3.5977 1.1257 23.356 45.396 93.456 45.275 9.9975 0.20187 21.148-0.59744 33.526-2.6266 74.266-12.175 104.83 41.388 127.12 90.787 7.2789 16.536 13.919 32.992 21.252 46.578 20.659 38.986 68.283 88.376 118.39 111.95 30.063 14.144 61.273 19.17 88.723 7.2875 23.24-9.5524 26.533-21.591 23.158-33.435-3.3746-11.844-11.801-26.487-10.112-36.966 3.7913-21.472 19.09-26.191 36.405-25.731 27.103 1.1876 55.789 12.332 35.007-26.711-6.1813-12.201-9.0101-23.149-10.008-32.742-2.2407-29.326 13.809-48.433 20.217-53.354 7.8309-5.39 17.071-9.4457 27.39-12.474 74.454-21.275 191.12 1.1271 233.2-31.75m-835.04-47.445c5.3966 1.6885 24.879 46.974 92.781 48.631 9.675 0.56547 20.527 0.0977 32.617-1.6178 72.539-10.293 104.36 41.273 127.65 88.46 7.5339 15.834 14.54 31.754 22.236 45.008 21.501 38.009 69.295 86.857 118.49 110.67 29.516 14.29 59.916 19.833 86.396 8.9291 22.34-8.4323 24.838-19.34 20.283-30.449-4.5548-11.109-13.739-26.911-11.933-38.706 3.805-22.059 19.439-27.876 38.069-27.869 28.417 0.64468 59.131 10.83 40.584-27.498-5.3496-12.015-7.6447-22.783-8.4906-32.183-1.4087-29.02 12.943-48.694 19.439-53.969 7.6467-5.3147 16.702-9.3169 26.864-12.298 74.458-20.991 187.06-2.0002 227.91-33.911m-830.2-44.56c7.1955 2.2513 26.402 48.552 92.105 51.987 9.3525 0.92906 19.905 0.79282 31.707-0.60903 70.813-8.4112 103.9 41.158 128.18 86.133 7.7888 15.132 15.16 30.517 23.221 43.439 22.343 37.031 70.306 85.338 118.59 109.4 28.968 14.436 58.559 20.496 84.069 10.571 21.44-7.3122 23.143-17.09 17.408-27.464s-15.678-27.334-13.754-40.445c3.8188-22.645 19.788-29.561 39.732-30.007 29.73 0.10177 62.472 9.3278 46.161-28.285-4.518-11.83-6.2794-22.416-6.9734-31.623-0.57673-28.713 12.077-48.955 18.661-54.585 7.4624-5.2395 16.334-9.1882 26.338-12.123 74.463-20.706 183-5.1275 222.61-36.071m-825.36-41.674c8.9943 2.8141 27.925 50.13 91.43 55.344 9.03 1.2926 19.284 1.488 30.798 0.39975 69.087-6.5292 103.43 41.042 128.7 83.806 8.0437 14.43 15.78 29.28 24.205 41.87 23.185 36.053 71.318 83.818 118.69 108.12 28.421 14.582 57.202 21.159 81.743 12.212 20.54-6.192 21.448-14.839 14.533-24.478-6.9152-9.6394-17.616-27.757-15.574-42.184 3.8324-23.232 20.136-31.247 41.396-32.145 31.044-0.44113 65.813 7.8256 51.739-29.072-3.6863-11.644-4.9141-22.05-5.4561-31.064 0.25525-28.407 11.212-49.216 17.884-55.201 7.2782-5.1642 15.966-9.0594 25.812-11.948 74.468-20.422 178.94-8.2548 217.31-38.231m-820.52-38.788c10.793 3.377 29.448 51.708 90.755 58.7 8.7075 1.6562 18.663 2.1831 29.889 1.4085 67.36-4.6472 102.96 40.927 129.23 81.479 8.2987 13.728 16.4 28.043 25.19 40.3 24.027 35.075 72.33 82.299 118.79 106.84 27.874 14.727 55.845 21.821 79.416 13.854 19.64-5.0719 19.754-12.588 11.658-21.493-8.0954-8.9046-19.554-28.181-17.395-43.923 3.8462-23.818 20.485-32.932 43.059-34.283 32.358-0.98405 69.154 6.3233 57.316-29.858-2.8546-11.458-3.5487-21.684-3.9389-30.504 1.0872-28.101 10.346-49.477 17.106-55.817 7.094-5.089 15.598-8.9307 25.286-11.773 74.472-20.138 174.88-11.382 212.01-40.391m-815.68-35.903c12.592 3.9398 30.971 53.286 90.079 62.056 8.385 2.0198 18.041 2.8782 28.98 2.4173 65.634-2.7652 102.5 40.811 129.76 79.152 8.5536 13.026 17.02 26.805 26.174 38.731 24.869 34.098 73.341 80.78 118.88 105.57 27.326 14.873 54.488 22.484 77.089 15.496 18.74-3.9518 18.059-10.338 8.7833-18.508-9.2756-8.1698-21.492-28.604-19.216-45.662 3.8599-24.404 20.834-34.617 44.722-36.421 33.671-1.527 72.496 4.8211 62.893-30.645-2.0229-11.273-2.1834-21.317-2.4217-29.945 1.9192-27.794 9.4798-49.737 16.328-56.432 6.9098-5.0137 15.23-8.8019 24.76-11.598 74.477-19.854 170.82-14.509 206.71-42.552m-810.84-33.017c14.391 4.5026 32.494 54.864 89.404 65.412 8.0625 2.3834 17.42 3.5734 28.071 3.4261 63.907-0.88329 102.03 40.696 130.29 76.825 8.8086 12.324 17.641 25.568 27.158 37.162 25.711 33.12 74.353 79.26 118.98 104.29 26.779 15.019 53.132 23.147 74.763 17.137 17.84-2.8316 16.364-8.0871 5.9083-15.522-10.456-7.435-23.431-29.027-21.037-47.401 3.8736-24.991 21.182-36.303 46.386-38.558 34.985-2.0699 75.837 3.3189 68.47-31.432-1.1912-11.087-0.81807-20.951-0.90443-29.385 2.7512-27.488 8.6139-49.998 15.551-57.048 6.7256-4.9385 14.862-8.6732 24.235-11.423 74.481-19.569 166.76-17.637 201.42-44.712m-806-30.131c16.19 5.0654 34.017 56.442 88.728 68.768 7.7401 2.747 16.798 4.2685 27.162 4.4349 62.181 0.99867 101.57 40.581 130.82 74.498 9.0635 11.621 18.261 24.331 28.143 35.593 26.553 32.142 75.364 77.741 119.08 103.02 26.231 15.165 51.775 23.81 72.436 18.779 16.94-1.7115 14.669-5.8365 3.0333-12.537-11.636-6.7003-25.369-29.451-22.858-49.14 3.8873-25.577 21.531-37.988 48.049-40.696 36.299-2.6128 79.178 1.8166 74.047-32.219-0.35949-10.901 0.54726-20.585 0.6128-28.826 3.5832-27.181 7.748-50.259 14.773-57.664 6.5414-4.8632 14.494-8.5444 23.709-11.248 74.486-19.285 162.7-20.764 196.12-46.872m-801.16-27.245c17.989 5.6283 35.54 58.02 88.053 72.124 7.4176 3.1106 16.177 4.9636 26.253 5.4437 60.455 2.8806 101.1 40.465 131.34 72.171 9.3184 10.919 18.881 23.093 29.127 34.023 27.395 31.164 76.376 76.222 119.18 101.74 25.684 15.311 50.418 24.472 70.109 20.42 16.04-0.5914 12.975-3.5858 0.15832-9.5513s-27.307-29.874-24.679-50.879c3.901-26.164 21.88-39.674 49.713-42.834 37.612-3.1557 82.519 0.31439 79.624-33.006 0.4722-10.715 1.9126-20.218 2.13-28.266 4.4152-26.875 6.8822-50.52 13.995-58.28 6.3572-4.7879 14.125-8.4156 23.183-11.073 74.491-19.001 158.64-23.891 190.82-49.033m-796.32-24.36c19.788 6.1911 37.063 59.598 87.378 75.481 7.0951 3.4742 15.556 5.6587 25.344 6.4525 58.728 4.7626 100.64 40.35 131.87 69.844 9.5734 10.217 19.501 21.856 30.112 32.454 28.237 30.187 77.387 74.702 119.28 100.46 25.137 15.457 49.061 25.135 67.782 22.062 15.14 0.52872 11.28-1.3352-2.7167-6.5659-13.996-5.2307-29.245-30.298-26.5-52.618 3.9147-26.75 22.228-41.359 51.376-44.972 38.926-3.6986 85.86-1.1878 85.202-33.792 1.3039-10.53 3.2779-19.852 3.6473-27.707 5.2471-26.569 6.0163-50.781 13.217-58.895 6.1729-4.7127 13.757-8.2869 22.657-10.898 74.495-18.717 154.58-27.019 185.52-51.193m-791.48-21.474c21.586 6.7539 38.586 61.176 86.702 78.837 6.7726 3.8378 14.934 6.3539 24.434 7.4613 57.002 6.6446 100.17 40.235 132.4 67.517 9.8283 9.515 20.122 20.619 31.096 30.885 29.079 29.209 78.399 73.183 119.38 99.188 24.589 15.603 47.704 25.798 65.456 23.704 14.24 1.6489 9.585 0.91542-5.5916-3.5805-15.177-4.4959-31.183-30.721-28.321-54.358 3.9284-27.337 22.577-43.044 53.04-47.11 40.24-4.2415 89.202-2.6901 90.779-34.579 2.1356-10.344 4.6432-19.486 5.1645-27.147 6.0791-26.262 5.1504-51.042 12.44-59.511 5.9887-4.6374 13.389-8.1581 22.131-10.723 74.5-18.433 150.52-30.146 180.23-53.353m-786.64-18.588c23.385 7.3168 40.109 62.754 86.027 82.193 6.4501 4.2014 14.313 7.049 23.525 8.4701 55.276 8.5265 99.704 40.119 132.93 65.19 10.083 8.8128 20.742 19.381 32.081 29.315 29.921 28.231 79.41 71.664 119.48 97.912 24.042 15.749 46.347 26.461 63.129 25.345 13.339 2.769 7.8902 3.166-8.4666-0.59509-16.357-3.7612-33.122-31.144-30.142-56.097 3.9421-27.923 22.926-44.73 54.703-49.248 41.554-4.7844 92.543-4.1923 96.356-35.366 2.9673-10.158 6.0086-19.12 6.6817-26.588 6.9111-25.956 4.2846-51.302 11.662-60.127 5.8045-4.5622 13.021-8.0294 21.605-10.548 74.504-18.148 146.46-33.273 174.93-55.514m-781.81-15.703c25.184 7.8796 41.632 64.332 85.351 85.549 6.1276 4.565 13.691 7.7441 22.616 9.4789 53.549 10.408 99.239 40.004 133.45 62.863 10.338 8.1107 21.362 18.144 33.065 27.746 30.763 27.254 80.422 70.144 119.58 96.636 23.495 15.895 44.99 27.123 60.802 26.987 12.439 3.8891 6.1954 5.4167-11.342 2.3903s-35.06-31.568-31.963-57.836c3.9558-28.51 23.274-46.415 56.366-51.385 42.867-5.3273 95.884-5.6945 101.93-36.153 3.799-9.9727 7.3739-18.753 8.199-26.028 7.7431-25.649 3.4187-51.563 10.884-60.743 5.6203-4.4869 12.653-7.9006 21.079-10.373 74.509-17.864 142.4-36.4 169.63-57.674m-776.97-12.817c26.983 8.4424 43.155 65.91 84.676 88.905 5.8051 4.9286 13.07 8.4393 21.707 10.488 51.823 12.29 98.773 39.888 133.98 60.536 10.593 7.4086 21.982 16.907 34.049 26.177 31.605 26.276 81.433 68.625 119.68 95.359 22.947 16.041 43.633 27.786 58.476 28.629 11.539 5.0092 4.5006 7.6673-14.217 5.3758-18.717-2.2916-36.998-31.991-33.784-59.575 3.9695-29.096 23.623-48.1 58.03-53.523 44.181-5.8702 99.225-7.1968 107.51-36.939 4.6307-9.787 8.7392-18.387 9.7162-25.469 8.5751-25.343 2.5528-51.824 10.107-61.358 5.4361-4.4117 12.285-7.7718 20.553-10.197 74.513-17.58 138.34-39.528 164.33-59.834m-772.13-9.9312c28.782 9.0052 44.678 67.488 84 92.261 5.4826 5.2922 12.449 9.1344 20.798 11.496 50.097 14.172 98.307 39.773 134.51 58.209 10.848 6.7064 22.602 15.67 35.034 24.607 32.448 25.298 82.445 67.106 119.78 94.083 22.4 16.187 42.276 28.449 56.149 30.27 10.639 6.1294 2.8058 9.918-17.092 8.3612-19.897-1.5568-38.936-32.414-35.605-61.314 3.9833-29.682 23.972-49.786 59.693-55.661 45.495-6.4131 102.57-8.699 113.09-37.726 5.4624-9.6013 10.105-18.021 11.233-24.909 9.4071-25.036 1.687-52.085 9.329-61.974 5.2518-4.3364 11.917-7.6431 20.027-10.022 74.518-17.296 134.28-42.655 159.03-61.995m-767.29-7.0455c30.581 9.5681 46.201 69.066 83.325 95.617 5.1601 5.6558 11.827 9.8295 19.889 12.505 48.37 16.054 97.842 39.658 135.04 55.882 11.103 6.0043 23.223 14.432 36.018 23.038 33.29 24.32 83.456 65.586 119.88 92.807 21.852 16.332 40.919 29.111 53.822 31.912 9.7392 7.2495 1.111 12.169-19.967 11.347-21.078-0.82202-40.875-32.838-37.426-63.053 3.997-30.269 24.32-51.471 61.357-57.799 46.808-6.956 105.91-10.201 118.66-38.513 6.294-9.4156 11.47-17.654 12.751-24.35 10.239-24.73 0.82113-52.346 8.5512-62.59 5.0676-4.2612 11.549-7.5143 19.502-9.8473 74.523-17.011 130.22-45.782 153.74-64.155m-762.45-4.1598c32.38 10.131 47.724 70.644 82.65 98.974 4.8376 6.0194 11.206 10.525 18.98 13.514 46.644 17.936 97.376 39.542 135.56 53.555 11.358 5.3021 23.843 13.195 37.003 21.469 34.132 23.343 84.468 64.067 119.98 91.531 21.305 16.478 39.562 29.774 51.496 33.553 8.8392 8.3696-0.58374 14.419-22.842 14.332-22.258-0.0872-42.813-33.261-39.247-64.792 4.0107-30.855 24.669-53.157 63.02-59.937 48.122-7.499 109.25-11.703 124.24-39.3 7.1257-9.2299 12.835-17.288 14.268-23.79 11.071-24.424-0.0447-52.607 7.7736-63.206 4.8834-4.1859 11.18-7.3856 18.976-9.6722 74.527-16.727 126.16-48.91 148.44-66.315m-757.61-1.2741c34.179 10.694 49.247 72.222 81.974 102.33 4.5151 6.383 10.584 11.22 18.071 14.523 44.918 19.818 96.91 39.427 136.09 51.228 11.613 4.6 24.463 11.958 37.987 19.899 34.974 22.365 85.48 62.548 120.08 90.255 20.758 16.624 38.205 30.437 49.169 35.195 7.9391 9.4898-2.2785 16.67-25.716 17.317s-44.751-33.685-41.068-66.531c4.0244-31.442 25.018-54.842 64.684-62.075 49.436-8.0419 112.59-13.206 129.82-40.087 7.9574-9.0442 14.201-16.922 15.785-23.231 11.903-24.117-0.9106-52.867 6.9958-63.822 4.6992-4.1106 10.812-7.2568 18.45-9.4971 74.532-16.443 122.1-52.037 143.14-68.476m-752.77 1.6116c35.977 11.257 50.77 73.8 81.299 105.69 4.1926 6.7465 9.9629 11.915 17.161 15.532 43.191 21.7 96.444 39.311 136.62 48.901 11.868 3.8978 25.083 10.72 38.972 18.33 35.816 21.387 86.491 61.028 120.18 88.979 20.21 16.77 36.848 31.1 46.842 36.837 7.039 10.61-3.9733 18.921-28.591 20.303-24.618 1.3823-46.689-34.108-42.889-68.271 4.0381-32.028 25.366-56.527 66.347-64.212 50.749-8.5848 115.93-14.708 135.4-40.873 8.7891-8.8585 15.566-16.555 17.302-22.671 12.735-23.811-1.7765-53.128 6.2182-64.437 4.515-4.0354 10.444-7.1281 17.924-9.3221 74.536-16.159 118.04-55.164 137.84-70.636m-747.93 4.4973c37.776 11.819 52.293 75.378 80.623 109.04 3.8701 7.1101 9.3415 12.61 16.252 16.54 41.465 23.582 95.979 39.196 137.15 46.574 12.123 3.1957 25.704 9.4831 39.956 16.761 36.658 20.409 87.503 59.509 120.27 87.703 19.663 16.916 35.491 31.762 44.516 38.478 6.139 11.73-5.6681 21.171-31.466 23.288-25.798 2.1171-48.628-34.531-44.71-70.01 4.0518-32.614 25.715-58.213 68.01-66.35 52.063-9.1277 119.27-16.21 140.97-41.66 9.6208-8.6728 16.931-16.189 18.82-22.112 13.567-23.504-2.6423-53.389 5.4404-65.053 4.3308-3.9601 10.076-6.9993 17.398-9.147 74.541-15.874 113.98-58.292 132.55-72.796m-743.09 7.383c39.575 12.382 53.816 76.956 79.948 112.4 3.5476 7.4737 8.7201 13.305 15.343 17.549 39.739 25.464 95.513 39.081 137.68 44.247 12.378 2.4935 26.324 8.2458 40.94 15.191 37.5 19.432 88.514 57.99 120.37 86.426 19.116 17.062 34.134 32.425 42.189 40.12 5.2389 12.85-7.3629 23.422-34.341 26.274-26.979 2.8519-50.566-34.955-46.531-71.749 4.0655-33.201 26.064-59.898 69.674-68.488 53.377-9.6706 122.61-17.712 146.55-42.447 10.452-8.4871 18.297-15.823 20.337-21.552 14.399-23.198-3.5082-53.65 4.6628-65.669 4.1466-3.8849 9.7079-6.8706 16.872-8.9719 74.546-15.59 109.92-61.419 127.25-74.957m-738.25 10.269c41.374 12.945 55.339 78.534 79.272 115.75 3.2251 7.8373 8.0987 14 14.434 18.558 38.012 27.346 95.047 38.965 138.2 41.92 12.633 1.7914 26.944 7.0085 41.925 13.622 38.342 18.454 89.526 56.47 120.47 85.15 18.568 17.208 32.777 33.088 39.862 41.761 4.3388 13.97-9.0576 25.672-37.216 29.259-28.159 3.5867-52.504-35.378-48.352-73.488 4.0792-33.787 26.412-61.583 71.337-70.626 54.691-10.214 125.96-19.215 152.13-43.234 11.284-8.3014 19.662-15.456 21.854-20.993 15.231-22.892-4.3741-53.911 3.8851-66.285 3.9624-3.8096 9.3398-6.7418 16.346-8.7968 74.55-15.306 105.86-64.546 121.95-77.117m-733.41 13.154c43.173 13.508 56.862 80.112 78.597 119.11 2.9026 8.2009 7.4773 14.695 13.525 19.567 36.286 29.228 94.582 38.85 138.73 39.593 12.888 1.0892 27.564 5.7712 42.909 12.053 39.184 17.476 90.537 54.951 120.57 83.874 18.021 17.354 31.42 33.751 37.536 43.403 3.4388 15.09-10.752 27.923-40.091 32.245-29.339 4.3214-54.442-35.801-50.173-75.227 4.0929-34.374 26.761-63.269 73.001-72.764 56.004-10.756 129.3-20.717 157.71-44.021 12.116-8.1157 21.027-15.09 23.371-20.433 16.063-22.585-5.2399-54.172 3.1074-66.9 3.7781-3.7344 8.9716-6.613 15.82-8.6217 74.555-15.022 101.8-67.673 116.65-79.277m-728.57 16.04c44.972 14.071 58.385 81.69 77.922 122.47 2.5801 8.5645 6.8559 15.391 12.616 20.576 34.56 31.11 94.116 38.735 139.26 37.266 13.143 0.3871 28.184 4.5339 43.894 10.483 40.026 16.498 91.549 53.432 120.67 82.598 17.474 17.5 30.063 34.413 35.209 45.045 2.5387 16.211-12.447 30.174-42.966 35.23-30.519 5.0562-56.38-36.225-51.994-76.966 4.1066-34.96 27.11-64.954 74.664-74.902 57.318-11.299 132.64-22.219 163.28-44.807 12.948-7.93 22.393-14.724 24.888-19.873 16.895-22.279-6.1058-54.432 2.3297-67.516 3.5939-3.6591 8.6035-6.4843 15.294-8.4466 74.559-14.737 97.738-70.801 111.35-81.438m-723.73 18.926c46.771 14.634 59.908 83.268 77.246 125.82 2.2576 8.9281 6.2345 16.086 11.707 21.584 32.833 32.992 93.65 38.619 139.79 34.939 13.398-0.31505 28.805 3.2966 44.878 8.9142 40.868 15.521 92.56 51.912 120.77 81.322 16.926 17.646 28.706 35.076 32.882 46.686 1.6386 17.331-14.142 32.424-45.841 38.215s-58.319-36.648-53.815-78.705c4.1204-35.547 27.458-66.64 76.328-77.039 58.632-11.842 135.98-23.721 168.86-45.594 13.779-7.7443 23.758-14.357 26.406-19.314 17.727-21.972-6.9716-54.693 1.552-68.132 3.4097-3.5838 8.2354-6.3555 14.768-8.2716 74.564-14.453 93.678-73.928 106.06-83.598m-718.89 21.812c48.569 15.196 61.431 84.846 76.571 129.18 1.9351 9.2917 5.6131 16.781 10.798 22.593 31.107 34.874 93.185 38.504 140.31 32.612 13.652-1.0172 29.425 2.0593 45.863 7.3448 41.71 14.543 93.572 50.393 120.87 80.046 16.379 17.792 27.349 35.739 30.556 48.328 0.7386 18.451-15.837 34.675-48.716 41.201-32.88 6.5258-60.257-37.072-55.636-80.444 4.134-36.133 27.807-68.325 77.991-79.177 59.945-12.385 139.32-25.224 174.44-46.381 14.611-7.5586 25.123-13.991 27.923-18.754 18.559-21.666-7.8375-54.954 0.77426-68.748 3.2255-3.5086 7.8672-6.2268 14.243-8.0965 74.568-14.169 89.618-77.055 100.76-85.758m-714.06 24.697c50.368 15.759 62.954 86.424 75.895 132.54 1.6126 9.6553 4.9917 17.476 9.8885 23.602 29.38 36.756 92.719 38.388 140.84 30.285 13.907-1.7193 30.045 0.82203 46.847 5.7755 42.552 13.565 94.583 48.874 120.97 78.769 15.831 17.937 25.992 36.402 28.229 49.97-0.16147 19.571-17.532 36.926-51.591 44.186-34.06 7.2606-62.195-37.495-57.457-82.184 4.1478-36.72 28.156-70.01 79.654-81.315 61.259-12.928 142.66-26.726 180.01-47.168 15.443-7.3729 26.489-13.625 29.44-18.195 19.391-21.36-8.7034-55.215-3e-3 -69.363 3.0413-3.4333 7.4991-6.098 13.717-7.9214 74.573-13.885 85.558-80.183 95.461-87.918m-709.22 27.583c52.167 16.322 64.477 88.002 75.22 135.89 1.2901 10.019 4.3704 18.171 8.9794 24.611 27.654 38.638 92.253 38.273 141.37 27.958 14.162-2.4215 30.665-0.41527 47.831 4.2062 43.394 12.587 95.595 47.354 121.07 77.493 15.284 18.083 24.636 37.064 25.902 51.611-1.0615 20.691-19.226 39.176-54.466 47.172s-64.133-37.918-59.278-83.923c4.1615-37.306 28.504-71.696 81.318-83.453 62.573-13.471 146-28.228 185.59-47.954 16.274-7.1872 27.854-13.258 30.957-17.635 20.223-21.053-9.5692-55.476-0.78113-69.979 2.857-3.3581 7.131-5.9693 13.191-7.7463 74.578-13.6 81.498-83.31 90.163-90.079m-704.38 30.469c53.966 16.885 66 89.58 74.545 139.25 0.96764 10.382 3.749 18.866 8.0703 25.62 25.928 40.52 91.788 38.158 141.9 25.631 14.417-3.1236 31.286-1.6526 48.816 2.6369 44.237 11.61 96.606 45.835 121.17 76.217 14.737 18.229 23.279 37.727 23.575 53.253-1.9616 21.811-20.921 41.427-57.341 50.157-36.42 8.7301-66.072-38.342-61.099-85.662 4.1752-37.892 28.853-73.381 82.981-85.591 63.886-14.014 149.34-29.73 191.17-48.741 17.106-7.0015 29.219-12.892 32.475-17.076 21.055-20.747-10.435-55.737-1.5588-70.595 2.6728-3.2828 6.7628-5.8405 12.665-7.5712 74.582-13.316 77.438-86.437 84.865-92.239m-699.54 33.354c55.765 17.448 67.523 91.158 73.869 142.6 0.64514 10.746 3.1276 19.561 7.1611 26.628 24.201 42.402 91.322 38.042 142.43 23.304 14.672-3.8258 31.906-2.8898 49.8 1.0676 45.079 10.632 97.618 44.316 121.27 74.941 14.189 18.375 21.922 38.39 21.249 54.894-2.8617 22.931-22.616 43.678-60.216 53.142-37.6 9.4649-68.01-38.765-62.92-87.401 4.1889-38.479 29.202-75.066 84.645-87.729 65.2-14.557 152.68-31.233 196.75-49.528 17.938-6.8158 30.585-12.526 33.992-16.516 21.887-20.44-11.301-55.997-2.3365-71.211 2.4886-3.2076 6.3947-5.7117 12.139-7.3961 74.587-13.032 73.378-89.565 79.567-94.399m-694.7 36.24c57.564 18.01 69.046 92.736 73.194 145.96 0.32265 11.11 2.5062 20.256 6.252 27.637 22.475 44.284 90.856 37.927 142.95 20.977 14.927-4.5279 32.526-4.1272 50.785-0.50174 45.921 9.6543 98.63 42.796 121.37 73.665 13.642 18.521 20.565 39.053 18.922 56.536-3.7617 24.051-24.311 45.928-63.091 56.128-38.781 10.2-69.948-39.188-64.74-89.14 4.2026-39.065 29.551-76.752 86.308-89.867 66.514-15.1 156.03-32.735 202.32-50.315 18.769-6.6301 31.95-12.159 35.509-15.957 22.719-20.134-12.167-56.258-3.1142-71.826 2.3044-3.1323 6.0266-5.583 11.613-7.2211 74.591-12.748 69.318-92.692 74.27-96.56m-689.86 39.126c59.363 18.573 70.569 94.314 72.518 149.32 1.52e-4 11.473 1.8848 20.952 5.3429 28.646 20.749 46.166 90.39 37.811 143.48 18.65 15.182-5.2301 33.146-5.3644 51.769-2.0711 46.763 8.6765 99.641 41.277 121.47 72.389 13.095 18.667 19.208 39.715 16.595 58.178-4.6618 25.172-26.005 48.179-65.966 59.113s-71.886-39.612-66.561-90.879c4.2163-39.652 29.899-78.437 87.972-92.004 67.827-15.643 159.37-34.237 207.9-51.102 19.601-6.4444 33.315-11.793 37.026-15.397 23.551-19.828-13.033-56.519-3.8919-72.442 2.1202-3.0571 5.6584-5.4542 11.087-7.046 74.596-12.463 65.258-95.819 68.972-98.72m-685.02 42.011c61.162 19.136 72.092 95.892 71.843 152.67-0.32234 11.837 1.2634 21.647 4.4338 29.655 19.022 48.048 89.925 37.696 144.01 16.323 15.437-5.9322 33.766-6.6018 52.754-3.6404 47.605 7.6988 100.65 39.758 121.56 71.112 12.547 18.813 17.851 40.378 14.269 59.819-5.5618 26.292-27.7 50.429-68.841 62.099-41.141 11.669-73.824-40.035-68.382-92.618 4.23-40.238 30.248-80.123 89.635-94.142 69.141-16.186 162.71-35.739 213.48-51.888 20.433-6.2587 34.681-11.427 38.544-14.838 24.383-19.521-13.899-56.78-4.6696-73.058 1.936-2.9818 5.2903-5.3255 10.561-6.8709 74.601-12.179 61.198-98.946 63.674-100.88m-680.18 44.897c62.96 19.699 73.615 97.47 71.167 156.03-0.64484 12.2 0.64196 22.342 3.5246 30.664 17.296 49.93 89.459 37.581 144.54 13.996 15.692-6.6344 34.387-7.839 53.738-5.2097 48.447 6.7211 101.66 38.238 121.66 69.836 12 18.959 16.494 41.041 11.942 61.461-6.4619 27.412-29.395 52.68-71.716 65.084s-75.763-40.459-70.203-94.357c4.2437-40.825 30.597-81.808 91.298-96.28 70.455-16.728 166.05-37.241 219.05-52.675 21.264-6.073 36.046-11.06 40.061-14.278 25.215-19.215-14.764-57.041-5.4473-73.674 1.7518-2.9065 4.9222-5.1967 10.035-6.6958 74.605-11.895 57.138-102.07 58.376-103.04m-675.34 47.783c64.759 20.262 75.138 99.048 70.492 159.38-0.96734 12.564 0.02056 23.037 2.6155 31.672 15.57 51.812 88.993 37.465 145.06 11.67 15.947-7.3365 35.007-9.0763 54.722-6.779 49.289 5.7433 102.68 36.719 121.76 68.56 11.453 19.105 15.137 41.704 9.6154 63.103-7.362 28.532-31.09 54.931-74.591 68.07s-77.701-40.882-72.024-96.097c4.2574-41.411 30.945-83.493 92.962-98.418 71.769-17.271 169.39-38.744 224.63-53.462 22.096-5.8873 37.411-10.694 41.578-13.719 26.047-18.908-15.63-57.302-6.225-74.289 1.5675-2.8313 4.554-5.068 9.5095-6.5207 74.61-11.611 53.078-105.2 53.078-105.2" fill="none" stroke="url(#linearGradient3595-6)" stroke-width=".49585px"/>
 <path d="m721.61 86.933v368.35h-767.41l5e-6 -369.82 384.47 282.68z" fill="#2a2e32" stop-color="#000000" style="-inkscape-stroke:none;font-variation-settings:normal"/>
 <g transform="matrix(2.7224,0,0,2.7224,-153.29,182.19)" opacity=".02" stroke-width=".6884">
  <g transform="translate(0,77.637)" opacity=".075" stroke-width=".6884">
   <path d="m-21.655-173.61 202.37 148.61 202.37-148.61v16.181l-202.37 148.61-202.37-148.61z" fill="url(#linearGradient21995-7)" stop-color="#000000" style="-inkscape-stroke:none;font-variation-settings:normal"/>
   <path d="m-21.655-193.8 202.37 148.61 202.37-148.61v22.391l-202.37 148.61-202.37-148.61z" fill="url(#linearGradient21997-5)"/>
   <path d="m-21.655-157.94 202.37 148.61 202.37-148.61v1.7412l-202.37 148.61-202.37-148.61z" fill="url(#linearGradient21999-5)" stop-color="#000000" style="-inkscape-stroke:none;font-variation-settings:normal;paint-order:stroke fill markers"/>
  </g>
  <path d="m-21.656-22.398v20.919l191.38 140.54 10.981 23.178 10.981-23.178 191.38-140.54v-20.919l-202.37 148.61z" fill="url(#linearGradient22001-2)" stop-color="#000000" style="-inkscape-stroke:none;font-variation-settings:normal"/>
  <path d="m191.22 138.75-10.513 23.491 202.37-148.61v-15.771z" fill="url(#linearGradient22003-9)"/>
  <path d="m-21.656-2.1353v15.771l202.37 148.61-10.513-23.491z" fill="url(#linearGradient22005-1)"/>
  <path d="m-21.656-2.1353v1.3126l190.92 140.2 11.449 22.866 11.449-22.866 190.92-140.2v-1.3126l-191.85 140.89-10.513 21.102-10.513-21.102-191.54-140.66z" color="#000000" fill="url(#linearGradient22007-2)" stroke-linecap="square" stroke-width=".18214" style="-inkscape-stroke:none"/>
  <path d="m-21.655-41.581 202.37 148.61 202.37-148.61v21.473l-202.37 148.61-202.37-148.61z" fill="url(#linearGradient22009-0)" stop-color="#000000" style="-inkscape-stroke:none;font-variation-settings:normal"/>
  <path d="m-21.655-23.098 202.37 148.61 202.37-148.61v2.9889l-202.37 148.61-202.37-148.61z" fill="url(#linearGradient22011-9)" stop-color="#000000" style="-inkscape-stroke:none;font-variation-settings:normal;paint-order:stroke fill markers"/>
  <path d="m-21.655-62.914 202.37 148.61 202.37-148.61v22.391l-202.37 148.61-202.37-148.61z" fill="url(#linearGradient22013-6)"/>
  <path d="m-21.655-64.05 202.37 148.61 202.37-148.61v1.7412l-202.37 148.61-202.37-148.61z" fill="url(#linearGradient22015-0)" stop-color="#000000" style="-inkscape-stroke:none;font-variation-settings:normal;paint-order:stroke fill markers"/>
  <path d="m191.22 138.75-10.513 23.491 202.37-148.61v-15.771z" fill="url(#linearGradient22017-2)"/>
  <path d="m170.2 138.75 10.513 23.491-202.37-148.61-2e-6 -15.771z" fill="url(#linearGradient22019-6)"/>
 </g>
 <g transform="matrix(1.8741,0,0,1.8741,3.1213e-6,210.02)" opacity=".02">
  <path d="m-21.655-173.61 202.37 148.61 202.37-148.61v16.181l-202.37 148.61-202.37-148.61z" fill="url(#linearGradient21995-7)" stop-color="#000000" style="-inkscape-stroke:none;font-variation-settings:normal"/>
  <path d="m-21.655-193.8 202.37 148.61 202.37-148.61v22.391l-202.37 148.61-202.37-148.61z" fill="url(#linearGradient21997-5)"/>
  <path d="m-21.655-157.94 202.37 148.61 202.37-148.61v1.7412l-202.37 148.61-202.37-148.61z" fill="url(#linearGradient21999-5)" stop-color="#000000" style="-inkscape-stroke:none;font-variation-settings:normal;paint-order:stroke fill markers"/>
 </g>
 <path d="m358.37 324.55-19.702 44.024 379.25-278.5v-29.555z" fill="url(#linearGradient24593-1)"/>
 <path d="m-40.584 60.517v29.555l379.25 278.5-19.702-44.024z" fill="url(#linearGradient78325-8)"/>
 <path d="m-40.584 60.517v2.4599l357.79 262.74 21.457 42.852 21.457-42.852 357.79-262.74v-2.4599l-359.55 264.03-19.702 39.546-19.702-39.546-358.96-263.6z" color="#000000" fill="url(#linearGradient87990-7)" stroke-linecap="square" stroke-width=".49585" style="-inkscape-stroke:none"/>
 <path d="m-40.584-13.408 379.25 278.5 379.25-278.5v40.242l-379.25 278.5-379.25-278.5z" fill="url(#linearGradient25753-9)" stop-color="#000000" style="-inkscape-stroke:none;font-variation-settings:normal"/>
 <path d="m-40.584 21.233 379.25 278.5 379.25-278.5v5.6014l-379.25 278.5-379.25-278.5z" fill="url(#linearGradient25219-2)" stop-color="#000000" style="-inkscape-stroke:none;font-variation-settings:normal;paint-order:stroke fill markers"/>
 <path d="m358.37 324.55-19.702 44.024 379.25-278.5v-29.555z" fill="url(#linearGradient14910-0)"/>
 <path d="m318.96 324.55 19.702 44.024-379.25-278.5-4e-6 -29.555z" fill="url(#linearGradient15720-2)"/>
 <path d="m208.31 245.75v5.8834l63.689 46.771v-5.8834zm0 8.8585v9.301l63.689 46.771v-9.301zm63.689 58.923-63.689-46.771v3.9668l63.689 46.771z" fill="url(#linearGradient35006-37)"/>
 <path d="m647.75 117.3v5.8834l-63.689 46.771v-5.8834zm0 8.8585v9.301l-63.689 46.771v-9.301zm-63.689 58.923 63.689-46.771v3.9668l-63.689 46.771z" fill="url(#linearGradient35006-3-5)"/>
 <path d="m338.66 267.08 379.57-277.47-0.32249-3.0199z" fill="#d0b2e4"/>
 <path d="m338.66 267.08-379.57-277.47 0.32249-3.0199z" fill="#b2e3e4"/>
 <path d="m-40.584-53.387 379.25 278.5 379.25-278.5v41.962l-379.25 278.5-379.25-278.5z" fill="url(#linearGradient26562-9)"/>
 <g transform="matrix(1.5255 0 0 1.5266 83.183 85.013)" fill="none" stop-color="#000000" stroke="#235dc6" stroke-width=".64985" style="-inkscape-stroke:none;font-variation-settings:normal;paint-order:stroke fill markers">
  <path d="m116.37 53.187v6.7346" stop-color="#000000" style="-inkscape-stroke:none;font-variation-settings:normal;paint-order:stroke fill markers"/>
  <path d="m122.49 57.678v8.7187" stop-color="#000000" style="-inkscape-stroke:none;font-variation-settings:normal;paint-order:stroke fill markers"/>
  <path d="m133.56 65.81v8.379" stop-color="#000000" style="-inkscape-stroke:none;font-variation-settings:normal;paint-order:stroke fill markers"/>
  <path d="m128.48 62.077v4.1961" stop-color="#000000" style="-inkscape-stroke:none;font-variation-settings:normal;paint-order:stroke fill markers"/>
  <circle cx="116.42" cy="61.028" r="1.21" stop-color="#000000" style="-inkscape-stroke:none;font-variation-settings:normal;paint-order:stroke fill markers"/>
  <circle cx="122.45" cy="66.901" r=".64061" stop-color="#000000" style="-inkscape-stroke:none;font-variation-settings:normal;paint-order:stroke fill markers"/>
  <circle cx="128.5" cy="67.357" r="1.21" stop-color="#000000" style="-inkscape-stroke:none;font-variation-settings:normal;paint-order:stroke fill markers"/>
  <circle cx="133.55" cy="75.222" r="1.21" stop-color="#000000" style="-inkscape-stroke:none;font-variation-settings:normal;paint-order:stroke fill markers"/>
 </g>
 <path d="m52.731 27.546v29.555l16.32 11.985v-29.555zm21.147 15.529v29.555l32.828 24.108v-29.556zm42.844 31.462 0.27407 29.757 20.589 15.12 0.0359-29.529zm28.471 20.908-0.38545 29.273 6.2156 4.5643v-29.556z" fill="url(#linearGradient34063-2)" stop-color="#000000" style="-inkscape-stroke:none;font-variation-settings:normal"/>
 <path d="m462.45 259.86v13.688l-16.32 11.985v-13.688zm-21.147 15.529v13.688l-32.828 24.108v-13.689zm-42.844 31.462-0.27407 13.89-20.589 15.12-0.0358-13.662zm-28.471 20.908 0.38546 13.405-6.2156 4.5643v-13.689z" fill="url(#linearGradient53858-2)" stop-color="#000000" style="-inkscape-stroke:none;font-variation-settings:normal"/>
 <g transform="matrix(1.8741,0,0,1.8741,3.1213e-6,107.75)" opacity=".02">
  <path d="m-21.655-173.61 202.37 148.61 202.37-148.61v16.181l-202.37 148.61-202.37-148.61z" fill="url(#linearGradient21995-7)" stop-color="#000000" style="-inkscape-stroke:none;font-variation-settings:normal"/>
  <path d="m-21.655-193.8 202.37 148.61 202.37-148.61v22.391l-202.37 148.61-202.37-148.61z" fill="url(#linearGradient21997-5)"/>
  <path d="m-21.655-157.94 202.37 148.61 202.37-148.61v1.7412l-202.37 148.61-202.37-148.61z" fill="url(#linearGradient21999-5)" stop-color="#000000" style="-inkscape-stroke:none;font-variation-settings:normal;paint-order:stroke fill markers"/>
 </g>
 <path d="m189.4 120.97v32.622l47.017 34.527v-32.623z" fill="#7777e1" fill-opacity=".095564"/>
 <path d="m222.68 192.13v13.817l115.98 85.474v-13.817zm0 16.792v5.3343l115.98 85.474v-5.3343z" fill="url(#linearGradient35392-8)"/>
 <path d="m-0.065542 102.15v7.9713l61.475 45.145v-7.9723z" fill="url(#linearGradient37083-9)"/>
 <path d="m165.39 117.92v19.532l150.63 110.62v-19.535z" fill="url(#linearGradient37280-7)"/>
 <path d="m46.241 133.73v19.533l41.819 30.711v-6.6417zm49.763 49.436v6.6417l16.361 12.015v-6.6417zm20.319 14.921v6.6417l17.181 12.618v-6.6426zm29.232 21.467v6.6417l21.629 15.884v-6.6426zm28.043 20.593v6.6426l13.283 9.7543v-6.6426zm18.565 13.633v6.6426l4.7115 3.4603v-6.6426z" fill="url(#linearGradient37849-3)"/>
 <g transform="matrix(1.5255 0 0 1.5266 131.21 121.02)" fill="none" stroke="#235dc6" stroke-width=".64985">
  <path d="m116.37 53.187v6.7346" stop-color="#000000" style="font-variation-settings:normal"/>
  <path d="m122.49 57.678v8.7187"/>
  <path d="m128.48 62.077v4.1961"/>
  <circle cx="116.42" cy="61.028" r="1.21" stop-color="#000000" style="font-variation-settings:normal;paint-order:stroke fill markers"/>
  <circle cx="122.45" cy="66.901" r=".64061" stop-color="#000000" style="font-variation-settings:normal;paint-order:stroke fill markers"/>
  <circle cx="128.5" cy="67.357" r="1.21" stop-color="#000000" style="font-variation-settings:normal;paint-order:stroke fill markers"/>
  <path d="m110.31 48.673v8.379"/>
  <circle cx="110.3" cy="58.084" r="1.21" stop-color="#000000" style="font-variation-settings:normal;paint-order:stroke fill markers"/>
 </g>
 <path d="m-40.584-55.515 379.25 278.5 379.25-278.5v3.2631l-379.25 278.5-379.25-278.5z" fill="url(#linearGradient69576-6)" stop-color="#000000" style="-inkscape-stroke:none;font-variation-settings:normal;paint-order:stroke fill markers"/>
 <path d="m463.03 159.39v29.555l-16.32 11.985v-29.555zm-21.147 15.529v29.555l-32.828 24.108v-29.556zm-42.844 31.462-0.27406 29.757-20.589 15.12-0.0358-29.529zm-28.471 20.908 0.38546 29.273-6.2156 4.5643v-29.556z" fill="url(#linearGradient53643-1)" stop-color="#000000" style="-inkscape-stroke:none;font-variation-settings:normal"/>
 <path d="m626.73 8.0268v19.533l-41.819 30.711v-6.6417zm-49.763 49.436v6.6417l-16.361 12.015v-6.6417zm-20.319 14.921v6.6417l-17.181 12.618v-6.6426zm-29.232 21.467v6.6417l-21.629 15.884v-6.6426zm-28.043 20.593v6.6426l-13.283 9.7543v-6.6426zm-18.565 13.633v6.6426l-4.7115 3.4603v-6.6426z" fill="url(#linearGradient53697-2)"/>
 <path d="m594.28 62.748v19.532l-150.63 110.62v-19.535z" fill="url(#linearGradient53804-9)"/>
 <path d="m454.65 192.13v13.817l-115.98 85.474v-13.817zm0 16.792v5.3343l-115.98 85.474v-5.3343z" fill="url(#linearGradient5163-3)"/>
</svg>
