<?xml version="1.0" encoding="UTF-8"?>
<!-- Created with Inkscape (http://www.inkscape.org/) -->
<svg width="360" height="720" version="1.1" viewBox="0 0 95.25 190.5" xmlns="http://www.w3.org/2000/svg" xmlns:xlink="http://www.w3.org/1999/xlink">
 <defs>
  <linearGradient id="linearGradient16905">
   <stop stop-color="#1b668f" offset="0"/>
   <stop stop-color="#121c94" offset=".5"/>
   <stop stop-color="#382279" offset="1"/>
  </linearGradient>
  <linearGradient id="linearGradient78639">
   <stop stop-color="#2936ea" offset="0"/>
   <stop stop-color="#164593" offset="1"/>
  </linearGradient>
  <linearGradient id="linearGradient75480-3" x1="-21.655" x2="1378.4" y1="110.14" y2="110.14" gradientTransform="matrix(.24805 0 0 .24805 -121.79 -13.295)" gradientUnits="userSpaceOnUse" xlink:href="#linearGradient16905"/>
  <linearGradient id="linearGradient3595-6" x1="-21.656" x2="383.08" y1="81.035" y2="81.035" gradientTransform="matrix(.9375 0 0 .9375 -121.79 -23.584)" gradientUnits="userSpaceOnUse">
   <stop stop-color="#51d677" stop-opacity=".47843" offset="0"/>
   <stop stop-color="#eded84" stop-opacity=".32941" offset=".26488"/>
   <stop stop-color="#a9ebf6" stop-opacity=".19951" offset=".49538"/>
   <stop stop-color="#e9bf9d" stop-opacity=".35686" offset=".74191"/>
   <stop stop-color="#5138aa" stop-opacity=".52157" offset="1"/>
  </linearGradient>
  <linearGradient id="linearGradient21995-7" x1="-21.655" x2="383.08" y1="92.147" y2="92.147" gradientTransform="translate(0 -155.84)" gradientUnits="userSpaceOnUse">
   <stop stop-color="#445feb" offset="0"/>
   <stop stop-color="#252fb5" offset=".5"/>
   <stop stop-color="#9b53c1" offset="1"/>
  </linearGradient>
  <linearGradient id="linearGradient21997-5" x1="-21.655" x2="383.08" y1="99.556" y2="99.556" gradientTransform="translate(0 -189.92)" gradientUnits="userSpaceOnUse">
   <stop stop-color="#3410ab" stop-opacity=".67526" offset="0"/>
   <stop stop-color="#169bd6" offset=".5"/>
   <stop stop-color="#0940a2" stop-opacity=".56984" offset="1"/>
  </linearGradient>
  <linearGradient id="linearGradient21999-5" x1="-24.528" x2="386.16" y1="-24.045" y2="-24.045" gradientTransform="translate(0 -138.44)" gradientUnits="userSpaceOnUse">
   <stop stop-color="#6a5e19" offset="0"/>
   <stop stop-color="#85751e" stop-opacity=".98824" offset=".14669"/>
   <stop stop-color="#8c7b20" stop-opacity=".96863" offset=".30531"/>
   <stop stop-color="#bda62c" stop-opacity=".95686" offset=".51079"/>
   <stop stop-color="#82721e" stop-opacity=".94902" offset=".6231"/>
   <stop stop-color="#968623" stop-opacity=".99608" offset=".83541"/>
   <stop stop-color="#4e4412" stop-opacity=".92157" offset="1"/>
  </linearGradient>
  <linearGradient id="linearGradient22001-2" x1="-21.655" x2="1378.4" y1="110.14" y2="110.14" gradientTransform="matrix(.26458 0 0 .26458 0 -4.9003)" gradientUnits="userSpaceOnUse" xlink:href="#linearGradient16905"/>
  <linearGradient id="linearGradient22003-9" x1="181.04" x2="361.42" y1="110.14" y2="110.14" gradientTransform="translate(0 -18.521)" gradientUnits="userSpaceOnUse" xlink:href="#linearGradient78639"/>
  <linearGradient id="linearGradient22005-1" x1="-21.655" x2="183.99" y1="110.14" y2="110.14" gradientTransform="translate(0 -18.521)" gradientUnits="userSpaceOnUse">
   <stop stop-color="#2f38a6" offset="0"/>
   <stop stop-color="#3d33eb" offset="1"/>
  </linearGradient>
  <linearGradient id="linearGradient22007-2" x1="-82.44" x2="1448.4" y1="345.52" y2="345.52" gradientTransform="scale(.26458)" gradientUnits="userSpaceOnUse" xlink:href="#linearGradient1294-7"/>
  <linearGradient id="linearGradient1294-7">
   <stop stop-color="#6a5e19" offset="0"/>
   <stop stop-color="#d1b832" stop-opacity=".98824" offset=".14669"/>
   <stop stop-color="#8c7b20" stop-opacity=".96863" offset=".30531"/>
   <stop stop-color="#dbc865" stop-opacity=".95686" offset=".51079"/>
   <stop stop-color="#82721e" stop-opacity=".94902" offset=".6231"/>
   <stop stop-color="#968623" stop-opacity=".99608" offset=".83541"/>
   <stop stop-color="#cfb530" stop-opacity=".92157" offset="1"/>
  </linearGradient>
  <linearGradient id="linearGradient22009-0" x1="-21.655" x2="383.08" y1="92.147" y2="92.147" gradientTransform="translate(0 -18.521)" gradientUnits="userSpaceOnUse">
   <stop stop-color="#445feb" offset="0"/>
   <stop stop-color="#4a55ed" offset=".5"/>
   <stop stop-color="#9b53c1" offset="1"/>
  </linearGradient>
  <linearGradient id="linearGradient22011-9" x1="-24.528" x2="386.16" y1="-24.045" y2="-24.045" gradientTransform="translate(0 -2.3527)" gradientUnits="userSpaceOnUse" xlink:href="#linearGradient1056-3"/>
  <linearGradient id="linearGradient1056-3">
   <stop stop-color="#6a5e19" offset="0"/>
   <stop stop-color="#85751e" stop-opacity=".98824" offset=".14669"/>
   <stop stop-color="#a38f26" stop-opacity=".96863" offset=".30531"/>
   <stop stop-color="#f5d737" stop-opacity=".95686" offset=".51079"/>
   <stop stop-color="#968623" stop-opacity=".99608" offset=".83541"/>
   <stop stop-color="#4e4412" stop-opacity=".92157" offset="1"/>
  </linearGradient>
  <linearGradient id="linearGradient22013-6" x1="-21.655" x2="383.08" y1="99.556" y2="99.556" gradientTransform="translate(0 -59.037)" gradientUnits="userSpaceOnUse">
   <stop stop-color="#3410ab" stop-opacity=".67526" offset="0"/>
   <stop stop-color="#2936e9" offset=".5"/>
   <stop stop-color="#0940a2" stop-opacity=".56984" offset="1"/>
  </linearGradient>
  <linearGradient id="linearGradient22015-0" x1="-24.528" x2="386.16" y1="-24.045" y2="-24.045" gradientTransform="translate(0 -44.553)" gradientUnits="userSpaceOnUse" xlink:href="#linearGradient17531-6"/>
  <linearGradient id="linearGradient17531-6">
   <stop stop-color="#6a5e19" offset="0"/>
   <stop stop-color="#85751e" stop-opacity=".98824" offset=".14669"/>
   <stop stop-color="#8c7b20" stop-opacity=".96863" offset=".30531"/>
   <stop stop-color="#d1b637" stop-opacity=".95686" offset=".51079"/>
   <stop stop-color="#82721e" stop-opacity=".94902" offset=".6231"/>
   <stop stop-color="#968623" stop-opacity=".99608" offset=".83541"/>
   <stop stop-color="#4e4412" stop-opacity=".92157" offset="1"/>
  </linearGradient>
  <linearGradient id="linearGradient22017-2" x1="253.56" x2="239.42" y1="147.01" y2="130.45" gradientTransform="translate(0 -18.521)" gradientUnits="userSpaceOnUse">
   <stop stop-color="#28ead8" stop-opacity=".58819" offset="0"/>
   <stop stop-color="#164593" stop-opacity=".023098" offset="1"/>
  </linearGradient>
  <linearGradient id="linearGradient22019-6" x1="251.13" x2="241.25" y1="138.13" y2="126.04" gradientTransform="matrix(-1 0 0 1 361.42 -18.521)" gradientUnits="userSpaceOnUse">
   <stop stop-color="#dc29ea" stop-opacity=".68736" offset="0"/>
   <stop stop-color="#164593" stop-opacity=".023098" offset="1"/>
  </linearGradient>
  <linearGradient id="linearGradient24593-1" x1="181.04" x2="361.42" y1="110.14" y2="110.14" gradientTransform="matrix(.9375 0 0 .9375 -121.79 -26.064)" gradientUnits="userSpaceOnUse" xlink:href="#linearGradient78639"/>
  <linearGradient id="linearGradient78325-8" x1="-21.655" x2="183.99" y1="110.14" y2="110.14" gradientTransform="matrix(.9375 0 0 .9375 -121.79 -26.064)" gradientUnits="userSpaceOnUse">
   <stop stop-color="#2e3476" offset="0"/>
   <stop stop-color="#3d33eb" offset="1"/>
  </linearGradient>
  <linearGradient id="linearGradient87990-7" x1="-82.44" x2="1448.4" y1="345.52" y2="345.52" gradientTransform="matrix(.24805 0 0 .24805 -121.79 -8.7008)" gradientUnits="userSpaceOnUse" xlink:href="#linearGradient1294-7"/>
  <linearGradient id="linearGradient25753-9" x1="-21.655" x2="383.08" y1="92.147" y2="92.147" gradientTransform="matrix(.9375 0 0 .9375 -121.79 -26.064)" gradientUnits="userSpaceOnUse">
   <stop stop-color="#4465eb" offset="0"/>
   <stop stop-color="#46a7e1" offset=".5"/>
   <stop stop-color="#6b50c1" offset="1"/>
  </linearGradient>
  <linearGradient id="linearGradient25219-2" x1="-24.528" x2="386.16" y1="-24.045" y2="-24.045" gradientTransform="matrix(.9375 0 0 .9375 -121.79 -10.906)" gradientUnits="userSpaceOnUse" xlink:href="#linearGradient1056-3"/>
  <linearGradient id="linearGradient14910-0" x1="253.56" x2="239.42" y1="147.01" y2="130.45" gradientTransform="matrix(.9375 0 0 .9375 -121.79 -26.064)" gradientUnits="userSpaceOnUse">
   <stop stop-color="#e06fea" stop-opacity=".39011" offset="0"/>
   <stop stop-color="#164593" stop-opacity=".023098" offset="1"/>
  </linearGradient>
  <linearGradient id="linearGradient15720-2" x1="251.13" x2="241.25" y1="138.13" y2="126.04" gradientTransform="matrix(-.9375 0 0 .9375 217.04 -26.064)" gradientUnits="userSpaceOnUse">
   <stop stop-color="#dc29ea" stop-opacity=".18321" offset="0"/>
   <stop stop-color="#164593" stop-opacity=".023098" offset="1"/>
  </linearGradient>
  <linearGradient id="linearGradient35006-37" x1="542.26" x2="409.86" y1="531.52" y2="437.69" gradientTransform="matrix(.24805 0 0 .24805 -121.79 -23.584)" gradientUnits="userSpaceOnUse">
   <stop stop-color="#9e80dc" stop-opacity=".08" offset="0"/>
   <stop stop-color="#9e80dc" stop-opacity="0" offset="1"/>
  </linearGradient>
  <linearGradient id="linearGradient35006-3-5" x1="542.26" x2="409.86" y1="531.52" y2="437.69" gradientTransform="matrix(-.24805 0 0 .24805 306.45 -87.84)" gradientUnits="userSpaceOnUse">
   <stop stop-color="#9e80dc" stop-opacity=".12323" offset="0"/>
   <stop stop-color="#9e80dc" stop-opacity="0" offset="1"/>
  </linearGradient>
  <linearGradient id="linearGradient26562-9" x1="-21.655" x2="383.08" y1="99.556" y2="99.556" gradientTransform="matrix(.9375 0 0 .9375 -121.79 -64.048)" gradientUnits="userSpaceOnUse">
   <stop stop-color="#0031b6" offset="0"/>
   <stop stop-color="#255cc7" offset=".5"/>
   <stop stop-color="#3d3dd3" offset="1"/>
  </linearGradient>
  <linearGradient id="linearGradient34063-2" x1="79.735" x2="21.187" y1="42.158" y2="1.0037" gradientTransform="matrix(.9375 0 0 .9375 -121.79 -23.584)" gradientUnits="userSpaceOnUse">
   <stop stop-color="#9e7fdc" stop-opacity=".1" offset="0"/>
   <stop stop-color="#9e7fdc" stop-opacity="0" offset="1"/>
  </linearGradient>
  <linearGradient id="linearGradient53858-2" x1="79.735" x2="21.187" y1="42.158" y2="1.0037" gradientTransform="matrix(-.9375 0 0 .9375 135.92 84.694)" gradientUnits="userSpaceOnUse">
   <stop stop-color="#7fdcdb" stop-opacity=".07" offset="0"/>
   <stop stop-color="#9e7fdc" stop-opacity="0" offset="1"/>
  </linearGradient>
  <linearGradient id="linearGradient35392-8" x1="654.09" x2="409.86" y1="615.36" y2="437.69" gradientTransform="matrix(.24805 0 0 .24805 -114.6 -50.404)" gradientUnits="userSpaceOnUse">
   <stop stop-color="#b1cdef" stop-opacity=".26275" offset="0"/>
   <stop stop-color="#9e80dc" stop-opacity="0" offset="1"/>
  </linearGradient>
  <linearGradient id="linearGradient37083-9" x1="32.688" x2="-4.3074" y1="61.359" y2="35.59" gradientTransform="matrix(.9375 0 0 .9375 -121.79 -23.584)" gradientUnits="userSpaceOnUse">
   <stop stop-color="#a9e3ed" stop-opacity=".05" offset="0"/>
   <stop stop-color="#a9e3ed" stop-opacity="0" offset="1"/>
  </linearGradient>
  <linearGradient id="linearGradient37280-7" x1="32.688" x2="-4.3074" y1="61.359" y2="35.59" gradientTransform="matrix(2.2972 0 0 2.2972 -38.973 -64.577)" gradientUnits="userSpaceOnUse">
   <stop stop-color="#60cbde" stop-opacity=".059582" offset="0"/>
   <stop stop-color="#a9e3ed" stop-opacity="0" offset="1"/>
  </linearGradient>
  <linearGradient id="linearGradient37849-3" x1="32.688" x2="-4.3074" y1="61.359" y2="35.59" gradientTransform="matrix(2.2972 0 0 2.2972 -98.579 -56.669)" gradientUnits="userSpaceOnUse">
   <stop stop-color="#84b0b8" stop-opacity=".05" offset="0"/>
   <stop stop-color="#a9e3ed" stop-opacity="0" offset="1"/>
  </linearGradient>
  <linearGradient id="linearGradient69576-6" x1="-24.528" x2="386.16" y1="-24.045" y2="-24.045" gradientTransform="matrix(.9375 0 0 .9375 -121.79 -50.469)" gradientUnits="userSpaceOnUse" xlink:href="#linearGradient17531-6"/>
  <linearGradient id="linearGradient53643-1" x1="79.735" x2="21.187" y1="42.158" y2="1.0037" gradientTransform="matrix(-.9375 0 0 .9375 136.22 42.373)" gradientUnits="userSpaceOnUse">
   <stop stop-color="#dc7fdc" stop-opacity=".08" offset="0"/>
   <stop stop-color="#9e7fdc" stop-opacity="0" offset="1"/>
  </linearGradient>
  <linearGradient id="linearGradient53697-2" x1="32.688" x2="-4.3074" y1="61.359" y2="35.59" gradientTransform="matrix(-2.2972 0 0 2.2972 191.65 -119.55)" gradientUnits="userSpaceOnUse">
   <stop stop-color="#a9e3ed" stop-opacity=".06" offset="0"/>
   <stop stop-color="#a9e3ed" stop-opacity="0" offset="1"/>
  </linearGradient>
  <linearGradient id="linearGradient53804-9" x1="32.688" x2="-4.3074" y1="61.359" y2="35.59" gradientTransform="matrix(-2.2972 0 0 2.2972 175.41 -92.176)" gradientUnits="userSpaceOnUse">
   <stop stop-color="#dd83f2" stop-opacity=".12549" offset="0"/>
   <stop stop-color="#a9e3ed" stop-opacity="0" offset="1"/>
  </linearGradient>
  <linearGradient id="linearGradient5163-3" x1="654.09" x2="409.86" y1="615.36" y2="437.69" gradientTransform="matrix(-.24805 0 0 .24805 209.85 -50.404)" gradientUnits="userSpaceOnUse">
   <stop stop-color="#b1cdef" stop-opacity=".14678" offset="0"/>
   <stop stop-color="#9e80dc" stop-opacity="0" offset="1"/>
  </linearGradient>
 </defs>
 <rect width="95.25" height="190.5" fill="#2a2e32" stop-color="#000000" style="-inkscape-stroke:none;font-variation-settings:normal;paint-order:stroke fill markers"/>
 <path d="m-142.09-29.699v19.612l179.42 131.76 10.295 21.73 10.295-21.73 179.42-131.76v-19.612l-189.72 139.32z" fill="url(#linearGradient75480-3)" stop-color="#000000" style="-inkscape-stroke:none;font-variation-settings:normal"/>
 <path d="m-160.56-8.732s10.16 21.13 47.427 19.291c5.3239-0.26278 11.201-0.99434 17.681-2.3232 38.878-7.9734 52.905 20.82 63.064 47.744 3.3862 8.9748 6.3426 17.742 9.6463 24.87 9.4919 20.481 33.146 45.73 59.124 57.279 15.587 6.9294 32.009 8.9268 46.711 2.0031 12.526-5.8992 14.969-13.053 14.461-19.712-0.50737-6.6599-3.9643-12.827-3.2364-16.752 1.8829-10.155 9.2011-11.416 16.547-10.733 12.244 1.1373 24.566 7.6722 11.932-12.575-3.9243-6.2893-5.8733-11.947-6.5244-16.939-1.9533-14.977 7.7742-23.968 10.891-26.074 4.1017-2.7716 8.9078-4.854 14.228-6.415 37.241-10.927 99.667 3.6927 121.96-13.722m-422.57-26.622c0.89988 0.28155 10.922 21.92 47.089 20.97 5.1626-0.0809 10.89-0.64661 17.226-1.8186 38.015-7.032 52.672 20.762 63.328 46.58 3.5137 8.6235 6.6528 17.123 10.139 24.085 9.9131 19.992 33.653 44.97 59.174 56.641 15.313 7.0024 31.331 9.2584 45.547 2.8243 12.076-5.3389 14.121-11.927 13.023-18.219s-4.9339-13.038-4.1474-17.622c1.8897-10.448 9.3755-12.259 17.379-11.803 12.901 0.86568 26.237 6.9207 14.722-12.969-3.5082-6.1964-5.1903-11.764-5.7654-16.659-1.5371-14.824 7.3411-24.098 10.502-26.382 4.0095-2.734 8.7236-4.7896 13.965-6.3274 37.243-10.785 97.636 2.1282 119.31-14.802m-420.15-25.178c1.7998 0.5631 11.684 22.709 46.751 22.649 5.0012 0.10099 10.579-0.29887 16.771-1.314 37.151-6.0905 52.439 20.704 63.592 45.416 3.6413 8.2723 6.9631 16.504 10.631 23.3 10.334 19.503 34.159 44.21 59.223 56.002 15.039 7.0754 30.652 9.5899 44.383 3.6455 11.626-4.7786 13.273-10.801 11.585-16.726s-5.9035-13.25-5.0583-18.492c1.8966-10.741 9.5499-13.102 18.212-12.872 13.558 0.59409 27.908 6.1692 17.512-13.362-3.0922-6.1035-4.5073-11.58-5.0064-16.379-1.1209-14.67 6.9079-24.229 10.113-26.69 3.9174-2.6963 8.5395-4.7252 13.702-6.2398 37.245-10.643 95.605 0.56383 116.66-15.883m-417.72-23.734c2.6996 0.84466 12.445 23.499 46.413 24.328 4.8399 0.28287 10.268 0.04887 16.316-0.80931 36.287-5.1491 52.206 20.647 63.856 44.252 3.7688 7.921 7.2733 15.885 11.124 22.515 10.756 19.014 34.665 43.45 59.273 55.364 14.765 7.1484 29.973 9.9214 43.219 4.4668 11.176-4.2182 12.425-9.6749 10.147-15.232s-6.8731-13.462-5.9692-19.362c1.9035-11.035 9.7243-13.945 19.044-13.942 14.215 0.3225 29.58 5.4177 20.302-13.756-2.6761-6.0106-3.8242-11.397-4.2474-16.099-0.7047-14.517 6.4748-24.359 9.7243-26.998 3.8252-2.6587 8.3553-4.6608 13.439-6.1523 37.248-10.501 93.574-1.0006 114.01-16.964m-415.3-22.291c3.5995 1.1262 13.207 24.288 46.075 26.007 4.6786 0.46476 9.9576 0.3966 15.862-0.30467 35.424-4.2076 51.973 20.589 64.12 43.088 3.8963 7.5698 7.5836 15.266 11.616 21.73 11.177 18.525 35.171 42.69 59.323 54.726 14.491 7.2214 29.294 10.253 42.055 5.288 10.725-3.6579 11.577-8.549 8.7084-13.739-2.8689-5.1896-7.8427-13.674-6.8801-20.232 1.9103-11.328 9.8988-14.788 19.876-15.011 14.872 0.05091 31.251 4.6662 23.092-14.149-2.2601-5.9177-3.1412-11.214-3.4884-15.819-0.28851-14.364 6.0417-24.489 9.3353-27.306 3.7331-2.621 8.1712-4.5964 13.176-6.0647 37.25-10.358 91.543-2.565 111.36-18.044m-412.88-20.847c4.4994 1.4078 13.969 25.077 45.738 27.685 4.5172 0.64664 9.6467 0.74434 15.407 0.19998 34.56-3.2662 51.74 20.531 64.384 41.924 4.0239 7.2186 7.8939 14.647 12.109 20.945 11.598 18.035 35.677 41.93 59.372 54.087 14.217 7.2944 28.615 10.584 40.891 6.1092 10.275-3.0975 10.73-7.4232 7.2702-12.245-3.4593-4.8221-8.8123-13.885-7.7911-21.102 1.9172-11.622 10.073-15.631 20.708-16.08 15.53-0.22068 32.923 3.9147 25.882-14.543-1.844-5.8249-2.4582-11.031-2.7294-15.54 0.12769-14.211 5.6085-24.62 8.9462-27.614 3.6409-2.5834 7.987-4.5319 12.912-5.9771 37.252-10.216 89.512-4.1294 108.71-19.125m-410.46-19.404c5.3993 1.6893 14.731 25.867 45.4 29.364 4.3559 0.82853 9.3359 1.0921 14.952 0.70462 33.697-2.3248 51.507 20.474 64.648 40.76 4.1514 6.8673 8.2041 14.028 12.601 20.16 12.019 17.546 36.183 41.17 59.422 53.449 13.944 7.3674 27.936 10.916 39.728 6.9304 9.8248-2.5372 9.8817-6.2973 5.832-10.752-4.0497-4.4545-9.7819-14.097-8.702-21.972 1.924-11.915 10.248-16.474 21.54-17.15 16.187-0.49227 34.594 3.1632 28.672-14.937-1.428-5.732-1.7752-10.847-1.9704-15.26 0.54388-14.057 5.1754-24.75 8.5572-27.922 3.5488-2.5457 7.8028-4.4675 12.649-5.8895 37.254-10.074 87.481-5.6939 106.06-20.206m-408.04-17.96c6.2992 1.9709 15.493 26.656 45.062 31.043 4.1946 1.0104 9.025 1.4398 14.497 1.2093 32.833-1.3833 51.274 20.416 64.912 39.596 4.2789 6.5161 8.5144 13.409 13.093 19.375 12.441 17.057 36.689 40.41 59.472 52.81 13.67 7.4404 27.258 11.248 38.564 7.7516 9.3746-1.9769 9.0339-5.1714 4.3938-9.2584s-10.751-14.309-9.6129-22.842c1.9309-12.208 10.422-17.317 22.372-18.219 16.844-0.76386 36.266 2.4117 31.462-15.33-1.0119-5.6391-1.0922-10.664-1.2114-14.98 0.96008-13.904 4.7422-24.881 8.1681-28.23 3.4566-2.5081 7.6187-4.4031 12.386-5.8019 37.257-9.9318 85.45-7.2583 103.41-21.286m-405.62-16.517c7.199 2.2524 16.255 27.445 44.724 32.722 4.0333 1.1923 8.7142 1.7876 14.042 1.7139 31.969-0.44186 51.042 20.358 65.176 38.432 4.4065 6.1648 8.8247 12.79 13.586 18.59 12.862 16.568 37.195 39.65 59.521 52.172 13.396 7.5134 26.579 11.579 37.4 8.5728 8.9243-1.4165 8.1861-4.0456 2.9556-7.7649s-11.721-14.521-10.524-23.712c1.9377-12.502 10.596-18.16 23.204-19.289 17.501-1.0354 37.937 1.6602 34.252-15.724-0.59588-5.5462-0.40924-10.481-0.45244-14.7 1.3763-13.751 4.3091-25.011 7.7791-28.538 3.3644-2.4704 7.4345-4.3387 12.123-5.7143 37.259-9.7896 83.419-8.8227 100.76-22.367m-403.2-15.073c8.0989 2.534 17.017 28.235 44.386 34.401 3.8719 1.3742 8.4033 2.1353 13.588 2.2186 31.106 0.49958 50.809 20.3 65.44 37.268 4.534 5.8136 9.1349 12.171 14.078 17.805 13.283 16.079 37.701 38.89 59.571 51.534 13.122 7.5863 25.9 11.911 36.236 9.394 8.474-0.85619 7.3383-2.9197 1.5174-6.2715s-12.691-14.733-11.435-24.582c1.9446-12.795 10.771-19.003 24.036-20.358 18.158-1.307 39.609 0.90876 37.042-16.117-0.17983-5.4533 0.27376-10.297 0.30655-14.42 1.7925-13.597 3.8759-25.142 7.39-28.846 3.2723-2.4328 7.2504-4.2743 11.86-5.6268 37.261-9.6474 81.388-10.387 98.108-23.448m-400.78-13.629c8.9988 2.8155 17.779 29.024 44.048 36.08 3.7106 1.5561 8.0925 2.483 13.133 2.7232 30.242 1.441 50.576 20.243 65.704 36.103 4.6615 5.4623 9.4452 11.552 14.571 17.02 13.704 15.59 38.207 38.13 59.621 50.895 12.848 7.6593 25.221 12.242 35.072 10.215 8.0238-0.29584 6.4905-1.7938 0.0792-4.778s-13.66-14.944-12.346-25.452c1.9515-13.088 10.945-19.847 24.869-21.428 18.816-1.5786 41.28 0.15727 39.832-16.511 0.23621-5.3604 0.95676-10.114 1.0655-14.14 2.2087-13.444 3.4428-25.272 7.001-29.154 3.1801-2.3952 7.0662-4.2099 11.597-5.5392 37.264-9.5052 79.358-11.952 95.458-24.528m-398.36-12.186c9.8987 3.0971 18.54 29.814 43.71 37.759 3.5493 1.738 7.7816 2.8308 12.678 3.2278 29.379 2.3825 50.343 20.185 65.968 34.939 4.7891 5.1111 9.7555 10.933 15.063 16.235 14.126 15.101 38.713 37.37 59.67 50.257 12.575 7.7323 24.542 12.574 33.908 11.036 7.5735 0.2645 5.6427-0.66793-1.359-3.2846-7.0017-2.6166-14.63-15.156-13.257-26.322 1.9583-13.382 11.12-20.69 25.701-22.497 19.473-1.8502 42.951-0.59421 42.622-16.905 0.65227-5.2675 1.6398-9.931 1.8245-13.86 2.6249-13.291 3.0096-25.403 6.612-29.462 3.088-2.3575 6.8821-4.1455 11.334-5.4516 37.266-9.363 77.327-13.516 92.807-25.609m-395.94-10.742c10.799 3.3786 19.302 30.603 43.372 39.438 3.3879 1.9198 7.4707 3.1785 12.223 3.7325 28.515 3.3239 50.11 20.127 66.232 33.775 4.9166 4.7598 10.066 10.314 15.556 15.45 14.547 14.612 39.219 36.61 59.72 49.618 12.301 7.8053 23.864 12.905 32.744 11.858 7.1233 0.82483 4.7948 0.45793-2.7972-1.7911-7.592-2.2491-15.599-15.368-14.168-27.192 1.9652-13.675 11.294-21.533 26.533-23.567 20.13-2.1218 44.623-1.3457 45.412-17.298 1.0683-5.1746 2.3228-9.7477 2.5835-13.58 3.0411-13.138 2.5765-25.533 6.2229-29.77 2.9958-2.3199 6.6979-4.0811 11.071-5.364 37.268-9.2208 75.296-15.08 90.157-26.69m-393.52-9.2987c11.698 3.6602 20.064 31.392 43.035 41.117 3.2266 2.1017 7.1599 3.5262 11.768 4.2371 27.651 4.2654 49.877 20.069 66.496 32.611 5.0441 4.4086 10.376 9.6955 16.048 14.665 14.968 14.123 39.725 35.85 59.77 48.98 12.027 7.8783 23.185 13.237 31.58 12.679 6.673 1.3852 3.947 1.5838-4.2354-0.29769-8.1824-1.8815-16.569-15.58-15.079-28.062 1.972-13.968 11.469-22.376 27.365-24.636 20.787-2.3934 46.294-2.0972 48.202-17.692 1.4844-5.0817 3.0058-9.5645 3.3425-13.3 3.4573-12.984 2.1434-25.664 5.8339-30.078 2.9037-2.2822 6.5138-4.0167 10.808-5.2764 37.271-9.0786 73.265-16.645 87.507-27.771m-391.1-7.8552c12.598 3.9417 20.826 32.182 42.697 42.796 3.0653 2.2836 6.849 3.874 11.314 4.7418 26.788 5.2068 49.644 20.012 66.76 31.447 5.1717 4.0573 10.686 9.0766 16.541 13.88 15.389 13.633 40.231 35.09 59.819 48.342 11.753 7.9513 22.506 13.568 30.416 13.5 6.2228 1.9455 3.0992 2.7097-5.6736 1.1958s-17.539-15.792-15.989-28.932c1.9789-14.262 11.643-23.219 28.197-25.705 21.444-2.665 47.966-2.8487 50.992-18.085 1.9004-4.9888 3.6888-9.3812 4.1015-13.021 3.8734-12.831 1.7102-25.794 5.4448-30.386 2.8115-2.2446 6.3296-3.9523 10.545-5.1888 37.273-8.9364 71.234-18.209 84.857-28.851m-388.67-6.4116c13.498 4.2233 21.588 32.971 42.359 44.474 2.904 2.4655 6.5382 4.2217 10.859 5.2464 25.924 6.1483 49.411 19.954 67.024 30.283 5.2992 3.7061 10.997 8.4576 17.033 13.095 15.811 13.144 40.737 34.329 59.869 47.703 11.479 8.0243 21.827 13.9 29.252 14.321 5.7725 2.5059 2.2514 3.8356-7.1118 2.6892s-18.508-16.003-16.9-29.802c1.9858-14.555 11.817-24.062 29.029-26.775 22.101-2.9366 49.637-3.6002 53.782-18.479 2.3165-4.8959 4.3718-9.198 4.8605-12.741 4.2897-12.678 1.2771-25.925 5.0558-30.694 2.7194-2.2069 6.1454-3.8878 10.282-5.1012 37.275-8.7942 69.203-19.774 82.206-29.932m-386.25-4.9681c14.398 4.5048 22.35 33.761 42.021 46.153 2.7426 2.6474 6.2273 4.5695 10.404 5.7511 25.061 7.0897 49.178 19.896 67.288 29.119 5.4267 3.3549 11.307 7.8387 17.526 12.31 16.232 12.655 41.243 33.569 59.919 47.065 11.205 8.0973 21.148 14.231 28.088 15.143 5.3223 3.0662 1.4036 4.9614-8.55 4.1826-9.9536-0.77878-19.478-16.215-17.811-30.672 1.9926-14.848 11.992-24.905 29.861-27.844 22.759-3.2082 51.309-4.3517 56.572-18.872 2.7325-4.803 5.0548-9.0147 5.6195-12.461 4.7058-12.524 0.84391-26.055 4.6668-31.002 2.6272-2.1693 5.9613-3.8234 10.019-5.0137 37.277-8.652 67.172-21.338 79.556-31.013m-383.83-3.5245c15.298 4.7864 23.112 34.55 41.683 47.832 2.5813 2.8293 5.9165 4.9172 9.9493 6.2557 24.197 8.0312 48.945 19.839 67.552 27.955 5.5543 3.0036 11.617 7.2197 18.018 11.525 16.653 12.166 41.749 32.809 59.968 46.426 10.932 8.1702 20.47 14.563 26.924 15.964 4.872 3.6265 0.5558 6.0873-9.9882 5.6761-10.544-0.41121-20.447-16.427-18.722-31.542 1.9995-15.142 12.166-25.748 30.693-28.914 23.416-3.4797 52.98-5.1031 59.362-19.266 3.1486-4.7101 5.7378-8.8314 6.3785-12.181 5.122-12.371 0.41076-26.186 4.2777-31.31 2.5351-2.1316 5.7771-3.759 9.7556-4.9261 37.28-8.5098 65.141-22.902 76.906-32.093m-381.41-2.0809c16.198 5.0679 23.874 35.339 41.345 49.511 2.42 3.0112 5.6056 5.2649 9.4945 6.7604 23.333 8.9726 48.712 19.781 67.816 26.791 5.6818 2.6524 11.927 6.6008 18.51 10.74 17.074 11.677 42.255 32.049 60.018 45.788 10.658 8.2432 19.791 14.894 25.761 16.785 4.4218 4.1869-0.29201 7.2132-11.426 7.1695-11.134-0.0436-21.417-16.639-19.633-32.412 2.0063-15.435 12.341-26.591 31.526-29.983 24.073-3.7513 54.651-5.8546 62.152-19.66 3.5646-4.6172 6.4208-8.6482 7.1375-11.901 5.5382-12.218-0.0224-26.316 3.8887-31.618 2.4429-2.094 5.593-3.6946 9.4925-4.8385 37.282-8.3677 63.11-24.467 74.256-33.174m-378.99-0.63736c17.098 5.3495 24.635 36.129 41.007 51.19 2.2587 3.193 5.2948 5.6127 9.0398 7.265 22.47 9.914 48.479 19.723 68.08 25.627 5.8093 2.3011 12.238 5.9818 19.003 9.9546 17.496 11.188 42.761 31.289 60.068 45.15 10.384 8.3162 19.112 15.226 24.597 17.606 3.9715 4.7472-1.1398 8.339-12.865 8.663-11.725 0.32393-22.387-16.851-20.544-33.282 2.0132-15.729 12.515-27.434 32.358-31.053 24.73-4.0229 56.323-6.6061 64.942-20.053 3.9807-4.5243 7.1038-8.4649 7.8964-11.621 5.9544-12.065-0.45552-26.447 3.4996-31.926 2.3508-2.0563 5.4088-3.6302 9.2294-4.7509 37.284-8.2255 61.079-26.031 71.606-34.255m-376.57 0.8062c17.998 5.6311 25.397 36.918 40.669 52.869 2.0973 3.3749 4.9839 5.9604 8.585 7.7696 21.606 10.855 48.246 19.665 68.344 24.463 5.9369 1.9499 12.548 5.3628 19.495 9.1695 17.917 10.699 43.267 30.529 60.117 44.511 10.11 8.3892 18.433 15.558 23.433 18.427 3.5213 5.3076-1.9876 9.4649-14.303 10.156-12.315 0.6915-23.356-17.062-21.455-34.152 2.02-16.022 12.689-28.278 33.19-32.122 25.387-4.2945 57.994-7.3576 67.732-20.447 4.3967-4.4314 7.7868-8.2817 8.6554-11.341 6.3706-11.911-0.88867-26.577 3.1106-32.235 2.2586-2.0187 5.2246-3.5658 8.9663-4.6633 37.287-8.0833 59.048-27.596 68.956-35.335m-374.15 2.2498c18.897 5.9126 26.159 37.707 40.332 54.548 1.936 3.5568 4.6731 6.3081 8.1302 8.2743 20.743 11.797 48.013 19.608 68.608 23.299 6.0644 1.5986 12.858 4.7439 19.988 8.3845 18.338 10.21 43.773 29.769 60.167 43.873 9.8364 8.4622 17.754 15.889 22.269 19.249 3.071 5.8679-2.8354 10.591-15.741 11.65-12.906 1.0591-24.326-17.274-22.366-35.022 2.0269-16.315 12.864-29.121 34.022-33.192 26.044-4.5661 59.666-8.1091 70.522-20.84 4.8128-4.3385 8.4698-8.0984 9.4144-11.061 6.7868-11.758-1.3218-26.708 2.7216-32.543 2.1665-1.981 5.0405-3.5014 8.7033-4.5757 37.289-7.9411 57.017-29.16 66.305-36.416m-371.73 3.6933c19.797 6.1942 26.921 38.497 39.994 56.227 1.7747 3.7387 4.3622 6.6559 7.6754 8.7789 19.879 12.738 47.78 19.55 68.872 22.135 6.1919 1.2474 13.168 4.1249 20.48 7.5995 18.759 9.7206 44.279 29.009 60.216 43.235 9.5625 8.5352 17.076 16.221 21.105 20.07 2.6207 6.4282-3.6833 11.717-17.179 13.143-13.496 1.4266-25.295-17.486-23.277-35.892 2.0338-16.609 13.038-29.964 34.854-34.261 26.702-4.8377 61.337-8.8606 73.312-21.234 5.2288-4.2456 9.1528-7.9152 10.173-10.781 7.203-11.605-1.755-26.838 2.3325-32.851 2.0743-1.9434 4.8563-3.437 8.4402-4.4882 37.291-7.7989 54.986-30.725 63.655-37.497m-369.31 5.1369c20.697 6.4757 27.683 39.286 39.656 57.906 1.6134 3.9206 4.0514 7.0036 7.2206 9.2836 19.015 13.68 47.547 19.492 69.136 20.971 6.3195 0.89614 13.479 3.506 20.973 6.8144 19.18 9.2315 44.785 28.249 60.266 42.596 9.2887 8.6082 16.397 16.552 19.941 20.891 2.1705 6.9886-4.5311 12.843-18.617 14.637-14.086 1.7942-26.265-17.698-24.188-36.762 2.0406-16.902 13.213-30.807 35.686-35.33 27.359-5.1093 63.009-9.6121 76.102-21.628 5.6449-4.1527 9.8358-7.7319 10.932-10.501 7.6192-11.451-2.1881-26.969 1.9435-33.159 1.9822-1.9057 4.6722-3.3726 8.1771-4.4006 37.293-7.6567 52.955-32.289 61.005-38.577m-366.89 6.5805c21.597 6.7573 28.445 40.076 39.318 59.585 1.452 4.1025 3.7405 7.3513 6.7658 9.7882 18.152 14.621 47.314 19.435 69.4 19.806 6.447 0.54489 13.789 2.887 21.465 6.0294 19.602 8.7424 45.291 27.489 60.316 41.958 9.0149 8.6812 15.718 16.884 18.777 21.712 1.7202 7.5489-5.3789 13.968-20.056 16.13-14.677 2.1618-27.235-17.91-25.099-37.632 2.0475-17.195 13.387-31.65 36.518-36.4 28.016-5.3809 64.68-10.364 78.891-22.021 6.0609-4.0598 10.519-7.5487 11.691-10.222 8.0354-11.298-2.6212-27.099 1.5544-33.467 1.89-1.8681 4.488-3.3082 7.914-4.313 37.296-7.5145 50.924-33.853 58.355-39.658m-364.47 8.024c22.497 7.0388 29.207 40.865 38.98 61.264 1.2907 4.2844 3.4297 7.6991 6.311 10.293 17.288 15.563 47.081 19.377 69.664 18.642 6.5745 0.19364 14.099 2.2681 21.958 5.2443 20.023 8.2533 45.797 26.729 60.365 41.319 8.7411 8.7542 15.039 17.215 17.613 22.533 1.27 8.1093-6.2267 15.094-21.494 17.624-15.267 2.5294-28.204-18.121-26.01-38.502 2.0543-17.489 13.562-32.493 37.35-37.469 28.673-5.6525 66.352-11.115 81.681-22.415 6.477-3.9669 11.202-7.3654 12.45-9.9416 8.4516-11.145-3.0544-27.23 1.1654-33.775 1.7978-1.8305 4.3039-3.2437 7.651-4.2254 37.298-7.3723 48.893-35.418 55.704-40.739m-362.05 9.4676c23.397 7.3204 29.969 41.654 38.642 62.942 1.1294 4.4662 3.1188 8.0468 5.8563 10.798 16.425 16.504 46.848 19.319 69.928 17.478 6.7021-0.1576 14.409 1.6491 22.45 4.4593 20.444 7.7642 46.303 25.969 60.415 40.681 8.4673 8.8272 14.36 17.547 16.449 23.355 0.81973 8.6696-7.0745 16.22-22.932 19.117-15.857 2.8969-29.174-18.333-26.921-39.372 2.0612-17.782 13.736-33.336 38.183-38.539 29.33-5.924 68.023-11.867 84.471-22.808 6.893-3.8741 11.885-7.1822 13.209-9.6618 8.8678-10.992-3.4876-27.36 0.77636-34.083 1.7057-1.7928 4.1197-3.1793 7.3879-4.1378 37.3-7.2301 46.862-36.982 53.054-41.82m-359.62 10.911c24.297 7.6019 30.73 42.444 38.304 64.621 0.96804 4.6481 2.808 8.3946 5.4015 11.302 15.561 17.446 46.615 19.261 70.192 16.314 6.8296-0.50885 14.72 1.0302 22.943 3.6742 20.865 7.2751 46.809 25.209 60.465 40.043 8.1935 8.9002 13.681 17.878 15.285 24.176 0.36948 9.2299-7.9223 17.346-24.37 20.611-16.448 3.2645-30.143-18.545-27.832-40.242 2.068-18.075 13.91-34.179 39.015-39.608 29.987-6.1956 69.694-12.618 87.261-23.202 7.3091-3.7812 12.568-6.9989 13.968-9.3819 9.284-10.838-3.9207-27.491 0.38733-34.391 1.6135-1.7552 3.9356-3.1149 7.1248-4.0502 37.303-7.0879 44.831-38.547 50.404-42.9m-357.2 12.355c25.197 7.8835 31.492 43.233 37.966 66.3 0.80671 4.83 2.4971 8.7423 4.9467 11.807 14.697 18.387 46.382 19.204 70.456 15.15 6.9571-0.86009 15.03 0.41122 23.435 2.8892 21.287 6.786 47.315 24.449 60.514 39.404 7.9196 8.9731 13.003 18.21 14.121 24.997-0.08078 9.7903-8.7701 18.472-25.808 22.104-17.038 3.6321-31.113-18.757-28.742-41.112 2.0749-18.369 14.085-35.022 39.847-40.678 30.645-6.4672 71.366-13.37 90.051-23.595 7.7251-3.6883 13.251-6.8156 14.727-9.102 9.7002-10.685-4.3538-27.621-2e-3 -34.699 1.5214-1.7175 3.7514-3.0505 6.8617-3.9627 37.305-6.9457 42.8-40.111 47.754-43.981m-354.78 13.798c26.096 8.165 32.254 44.023 37.629 67.979 0.64539 5.0119 2.1863 9.09 4.4919 12.311 13.834 19.329 46.149 19.146 70.72 13.986 7.0847-1.2113 15.34-0.20773 23.928 2.1041 21.708 6.2968 47.821 23.689 60.564 38.766 7.6458 9.0461 12.324 18.541 12.957 25.818-0.53103 10.351-9.6179 19.598-27.247 23.597-17.628 3.9996-32.082-18.969-29.653-41.982 2.0818-18.662 14.259-35.866 40.679-41.747 31.302-6.7388 73.037-14.121 92.841-23.989 8.1412-3.5954 13.934-6.6324 15.486-8.8221 10.116-10.532-4.787-27.752-0.39076-35.007 1.4292-1.6799 3.5672-2.9861 6.5986-3.8751 37.307-6.8035 40.769-41.676 45.104-45.062m-352.36 15.242c26.996 8.4466 33.016 44.812 37.291 69.658 0.48406 5.1938 1.8754 9.4378 4.0371 12.816 12.97 20.27 45.916 19.088 70.984 12.822 7.2122-1.5626 15.65-0.82669 24.42 1.3191 22.129 5.8077 48.327 22.929 60.614 38.127 7.372 9.1191 11.645 18.873 11.794 26.64-0.98128 10.911-10.466 20.724-28.685 25.091-18.219 4.3672-33.052-19.18-30.564-42.852 2.0886-18.956 14.434-36.709 41.511-42.817 31.959-7.0104 74.709-14.872 95.631-24.383 8.5572-3.5025 14.617-6.4491 16.245-8.5422 10.533-10.378-5.2201-27.882-0.7798-35.315 1.3371-1.6422 3.3831-2.9217 6.3356-3.7875 37.31-6.6614 38.738-43.24 42.453-46.142m-349.94 16.685c27.896 8.7281 33.778 45.601 36.953 71.337 0.32273 5.3757 1.5645 9.7855 3.5823 13.321 12.107 21.211 45.683 19.031 71.248 11.658 7.3397-1.9138 15.961-1.4456 24.912 0.53405 22.55 5.3186 48.833 22.169 60.663 37.489 7.0982 9.1921 10.966 19.204 10.63 27.461-1.4315 11.471-11.314 21.85-30.123 26.584-18.809 4.7348-34.022-19.392-31.475-43.722 2.0955-19.249 14.608-37.552 42.343-43.886 32.616-7.282 76.38-15.624 98.421-24.776 8.9733-3.4096 15.3-6.2659 17.004-8.2623 10.949-10.225-5.6533-28.013-1.1688-35.623 1.2449-1.6046 3.1989-2.8573 6.0725-3.6999 37.312-6.5192 36.707-44.804 39.803-47.223m-347.52 18.129c28.796 9.0097 34.54 46.391 36.615 73.016 0.1614 5.5576 1.2537 10.133 3.1275 13.825 11.243 22.153 45.45 18.973 71.512 10.494 7.4673-2.2651 16.271-2.0646 25.405-0.251 22.972 4.8295 49.339 21.409 60.713 36.851 6.8244 9.2651 10.287 19.536 9.4657 28.282-1.8818 12.032-12.161 22.975-31.561 28.078-19.4 5.1024-34.991-19.604-32.386-44.592 2.1023-19.542 14.783-38.395 43.175-44.955 33.273-7.5536 78.052-16.375 101.21-25.17 9.3893-3.3167 15.983-6.0826 17.763-7.9824 11.365-10.072-6.0864-28.143-1.5579-35.931 1.1528-1.5669 3.0148-2.7929 5.8094-3.6123 37.314-6.377 34.676-46.369 37.153-48.304m-345.1 19.573c29.696 9.2912 35.302 47.18 36.277 74.695 7.6e-5 5.7394 0.94284 10.481 2.6728 14.33 10.379 23.094 45.218 18.915 71.776 9.3298 7.5948-2.6163 16.581-2.6835 25.897-1.036 23.393 4.3404 49.845 20.649 60.763 36.212 6.5506 9.3381 9.6086 19.867 8.3018 29.103-2.332 12.592-13.009 24.101-32.999 29.571-19.99 5.4699-35.961-19.816-33.297-45.462 2.1092-19.836 14.957-39.238 44.007-46.025 33.93-7.8252 79.723-17.127 104-25.563 9.8054-3.2238 16.666-5.8994 18.522-7.7025 11.781-9.9186-6.5196-28.274-1.9469-36.239 1.0606-1.5293 2.8306-2.7285 5.5463-3.5247 37.316-6.2348 32.645-47.933 34.503-49.384m-342.68 21.016c30.596 9.5728 36.064 47.969 35.939 76.374-0.16125 5.9213 0.63199 10.829 2.218 14.835 9.5159 24.036 44.985 18.857 72.04 8.1658 7.7223-2.9676 16.892-3.3025 26.39-1.8211 23.814 3.8513 50.351 19.889 60.812 35.574 6.2767 9.4111 8.9298 20.199 7.1379 29.924-2.7823 13.152-13.857 25.227-34.438 31.065-20.581 5.8375-36.93-20.028-34.208-46.332 2.116-20.129 15.131-40.081 44.84-47.094 34.588-8.0967 81.394-17.878 106.79-25.957 10.221-3.1309 17.349-5.7161 19.281-7.4226 12.197-9.7654-6.9527-28.404-2.336-36.547 0.96847-1.4916 2.6465-2.6641 5.2833-3.4371 37.319-6.0926 30.614-49.498 31.853-50.465m-340.26 22.46c31.496 9.8543 36.825 48.759 35.601 78.053-0.32258 6.1032 0.32114 11.176 1.7632 15.339 8.6523 24.977 44.752 18.8 72.304 7.0017 7.8499-3.3188 17.202-3.9215 26.882-2.6061 24.235 3.3622 50.857 19.129 60.862 34.935 6.0029 9.4841 8.251 20.531 5.974 30.746-3.2326 13.713-14.705 26.353-35.876 32.558-21.171 6.2051-37.9-20.239-35.119-47.202 2.1229-20.422 15.306-40.924 45.672-48.164 35.245-8.3683 83.066-18.63 109.58-26.351 10.637-3.038 18.032-5.5329 20.04-7.1427 12.614-9.6121-7.3858-28.534-2.725-36.855 0.87631-1.454 2.4623-2.5996 5.0202-3.3496 37.321-5.9504 28.583-51.062 29.202-51.546m-337.84 23.903c32.396 10.136 37.587 49.548 35.263 79.731-0.48391 6.2851 0.01029 11.524 1.3084 15.844 7.7887 25.919 44.519 18.742 72.568 5.8376 7.9774-3.6701 17.512-4.5404 27.375-3.3912 24.657 2.8731 51.363 18.369 60.912 34.297 5.7291 9.5571 7.5722 20.862 4.8101 31.567-3.6828 14.273-15.553 27.479-37.314 34.052-21.761 6.5726-38.87-20.451-36.03-48.072 2.1298-20.716 15.48-41.767 46.504-49.233 35.902-8.6399 84.737-19.381 112.37-26.744 11.054-2.9451 18.715-5.3496 20.799-6.8628 13.03-9.4588-7.819-28.665-3.114-37.163 0.78416-1.4163 2.2782-2.5352 4.7571-3.262 37.323-5.8082 26.552-52.626 26.552-52.626" fill="none" stroke="url(#linearGradient3595-6)" stroke-width=".24805px"/>
 <path d="m239.19 2.5115v184.27h-383.89v-185l192.33 141.41z" fill="#2a2e32" stop-color="#000000" style="-inkscape-stroke:none;font-variation-settings:normal"/>
 <g transform="matrix(1.3619,0,0,1.3619,-198.48,50.166)" opacity=".02" stroke-width=".6884">
  <g transform="translate(0,77.637)" opacity=".075" stroke-width=".6884">
   <path d="m-21.655-173.61 202.37 148.61 202.37-148.61v16.181l-202.37 148.61-202.37-148.61z" fill="url(#linearGradient21995-7)" stop-color="#000000" style="-inkscape-stroke:none;font-variation-settings:normal"/>
   <path d="m-21.655-193.8 202.37 148.61 202.37-148.61v22.391l-202.37 148.61-202.37-148.61z" fill="url(#linearGradient21997-5)"/>
   <path d="m-21.655-157.94 202.37 148.61 202.37-148.61v1.7412l-202.37 148.61-202.37-148.61z" fill="url(#linearGradient21999-5)" stop-color="#000000" style="-inkscape-stroke:none;font-variation-settings:normal;paint-order:stroke fill markers"/>
  </g>
  <path d="m-21.656-22.398v20.919l191.38 140.54 10.981 23.178 10.981-23.178 191.38-140.54v-20.919l-202.37 148.61z" fill="url(#linearGradient22001-2)" stop-color="#000000" style="-inkscape-stroke:none;font-variation-settings:normal"/>
  <path d="m191.22 138.75-10.513 23.491 202.37-148.61v-15.771z" fill="url(#linearGradient22003-9)"/>
  <path d="m-21.656-2.1353v15.771l202.37 148.61-10.513-23.491z" fill="url(#linearGradient22005-1)"/>
  <path d="m-21.656-2.1353v1.3126l190.92 140.2 11.449 22.866 11.449-22.866 190.92-140.2v-1.3126l-191.85 140.89-10.513 21.102-10.513-21.102-191.54-140.66z" color="#000000" fill="url(#linearGradient22007-2)" stroke-linecap="square" stroke-width=".18214" style="-inkscape-stroke:none"/>
  <path d="m-21.655-41.581 202.37 148.61 202.37-148.61v21.473l-202.37 148.61-202.37-148.61z" fill="url(#linearGradient22009-0)" stop-color="#000000" style="-inkscape-stroke:none;font-variation-settings:normal"/>
  <path d="m-21.655-23.098 202.37 148.61 202.37-148.61v2.9889l-202.37 148.61-202.37-148.61z" fill="url(#linearGradient22011-9)" stop-color="#000000" style="-inkscape-stroke:none;font-variation-settings:normal;paint-order:stroke fill markers"/>
  <path d="m-21.655-62.914 202.37 148.61 202.37-148.61v22.391l-202.37 148.61-202.37-148.61z" fill="url(#linearGradient22013-6)"/>
  <path d="m-21.655-64.05 202.37 148.61 202.37-148.61v1.7412l-202.37 148.61-202.37-148.61z" fill="url(#linearGradient22015-0)" stop-color="#000000" style="-inkscape-stroke:none;font-variation-settings:normal;paint-order:stroke fill markers"/>
  <path d="m191.22 138.75-10.513 23.491 202.37-148.61v-15.771z" fill="url(#linearGradient22017-2)"/>
  <path d="m170.2 138.75 10.513 23.491-202.37-148.61-2e-6 -15.771z" fill="url(#linearGradient22019-6)"/>
 </g>
 <g transform="matrix(.9375 0 0 .9375 -121.79 64.084)" opacity=".02">
  <path d="m-21.655-173.61 202.37 148.61 202.37-148.61v16.181l-202.37 148.61-202.37-148.61z" fill="url(#linearGradient21995-7)" stop-color="#000000" style="-inkscape-stroke:none;font-variation-settings:normal"/>
  <path d="m-21.655-193.8 202.37 148.61 202.37-148.61v22.391l-202.37 148.61-202.37-148.61z" fill="url(#linearGradient21997-5)"/>
  <path d="m-21.655-157.94 202.37 148.61 202.37-148.61v1.7412l-202.37 148.61-202.37-148.61z" fill="url(#linearGradient21999-5)" stop-color="#000000" style="-inkscape-stroke:none;font-variation-settings:normal;paint-order:stroke fill markers"/>
 </g>
 <path d="m57.481 121.38-9.856 22.023 189.72-139.32v-14.785z" fill="url(#linearGradient24593-1)"/>
 <path d="m-142.09-10.703v14.785l189.72 139.32-9.856-22.023z" fill="url(#linearGradient78325-8)"/>
 <path d="m-142.09-10.703v1.2305l178.98 131.44 10.734 21.437 10.734-21.437 178.98-131.44v-1.2305l-179.86 132.08-9.856 19.783-9.856-19.783-179.57-131.87z" color="#000000" fill="url(#linearGradient87990-7)" stroke-linecap="square" stroke-width=".24805" style="-inkscape-stroke:none"/>
 <path d="m-142.09-47.683 189.72 139.32 189.72-139.32v20.131l-189.72 139.32-189.72-139.32z" fill="url(#linearGradient25753-9)" stop-color="#000000" style="-inkscape-stroke:none;font-variation-settings:normal"/>
 <path d="m-142.09-30.355 189.72 139.32 189.72-139.32v2.8021l-189.72 139.32-189.72-139.32z" fill="url(#linearGradient25219-2)" stop-color="#000000" style="-inkscape-stroke:none;font-variation-settings:normal;paint-order:stroke fill markers"/>
 <path d="m57.481 121.38-9.856 22.023 189.72-139.32v-14.785z" fill="url(#linearGradient14910-0)"/>
 <path d="m37.769 121.38 9.856 22.023-189.72-139.32v-14.785z" fill="url(#linearGradient15720-2)"/>
 <path d="m-17.587 81.959v2.9431l31.86 23.397v-2.9431zm0 4.4314v4.6528l31.86 23.397v-4.6528zm31.86 29.476-31.86-23.397v1.9844l31.86 23.397z" fill="url(#linearGradient35006-37)"/>
 <path d="m202.24 17.702v2.9431l-31.86 23.397v-2.9431zm0 4.4314v4.6528l-31.86 23.397v-4.6528zm-31.86 29.476 31.86-23.397v1.9844l-31.86 23.397z" fill="url(#linearGradient35006-3-5)"/>
 <path d="m47.625 92.629 189.88-138.8-0.16133-1.5107z" fill="#d0b2e4"/>
 <path d="m47.625 92.629-189.88-138.8 0.16132-1.5107z" fill="#b2e3e4"/>
 <path d="m-142.09-67.683 189.72 139.32 189.72-139.32v20.992l-189.72 139.32-189.72-139.32z" fill="url(#linearGradient26562-9)"/>
 <g transform="matrix(.7631 0 0 .76369 -80.179 1.5511)" fill="none" stop-color="#000000" stroke="#235dc6" stroke-width=".64985" style="-inkscape-stroke:none;font-variation-settings:normal;paint-order:stroke fill markers">
  <path d="m116.37 53.187v6.7346" stop-color="#000000" style="-inkscape-stroke:none;font-variation-settings:normal;paint-order:stroke fill markers"/>
  <path d="m122.49 57.678v8.7187" stop-color="#000000" style="-inkscape-stroke:none;font-variation-settings:normal;paint-order:stroke fill markers"/>
  <path d="m133.56 65.81v8.379" stop-color="#000000" style="-inkscape-stroke:none;font-variation-settings:normal;paint-order:stroke fill markers"/>
  <path d="m128.48 62.077v4.1961" stop-color="#000000" style="-inkscape-stroke:none;font-variation-settings:normal;paint-order:stroke fill markers"/>
  <circle cx="116.42" cy="61.028" r="1.21" stop-color="#000000" style="-inkscape-stroke:none;font-variation-settings:normal;paint-order:stroke fill markers"/>
  <circle cx="122.45" cy="66.901" r=".64061" stop-color="#000000" style="-inkscape-stroke:none;font-variation-settings:normal;paint-order:stroke fill markers"/>
  <circle cx="128.5" cy="67.357" r="1.21" stop-color="#000000" style="-inkscape-stroke:none;font-variation-settings:normal;paint-order:stroke fill markers"/>
  <circle cx="133.55" cy="75.222" r="1.21" stop-color="#000000" style="-inkscape-stroke:none;font-variation-settings:normal;paint-order:stroke fill markers"/>
 </g>
 <path d="m-95.413-27.196v14.785l8.1642 5.9953v-14.785zm10.579 7.7684v14.785l16.422 12.06v-14.785zm21.432 15.739 0.1371 14.886 10.3 7.5635 0.01793-14.772zm14.242 10.459-0.19282 14.643 3.1093 2.2833v-14.785z" fill="url(#linearGradient34063-2)" stop-color="#000000" style="-inkscape-stroke:none;font-variation-settings:normal"/>
 <path d="m109.55 89.018v6.8474l-8.1642 5.9953v-6.8474zm-10.579 7.7684v6.8474l-16.422 12.06v-6.8479zm-21.432 15.739-0.1371 6.9482-10.3 7.5635-0.01791-6.8344zm-14.242 10.459 0.19282 6.706-3.1093 2.2833v-6.8479z" fill="url(#linearGradient53858-2)" stop-color="#000000" style="-inkscape-stroke:none;font-variation-settings:normal"/>
 <g transform="matrix(.9375 0 0 .9375 -121.79 12.925)" opacity=".02">
  <path d="m-21.655-173.61 202.37 148.61 202.37-148.61v16.181l-202.37 148.61-202.37-148.61z" fill="url(#linearGradient21995-7)" stop-color="#000000" style="-inkscape-stroke:none;font-variation-settings:normal"/>
  <path d="m-21.655-193.8 202.37 148.61 202.37-148.61v22.391l-202.37 148.61-202.37-148.61z" fill="url(#linearGradient21997-5)"/>
  <path d="m-21.655-157.94 202.37 148.61 202.37-148.61v1.7412l-202.37 148.61-202.37-148.61z" fill="url(#linearGradient21999-5)" stop-color="#000000" style="-inkscape-stroke:none;font-variation-settings:normal;paint-order:stroke fill markers"/>
 </g>
 <path d="m-27.045 19.541v16.319l23.52 17.272v-16.32z" fill="#7777e1" fill-opacity=".095564"/>
 <path d="m-10.394 55.138v6.9119l58.019 42.758v-6.9119zm0 8.4002v2.6684l58.019 42.758v-2.6684z" fill="url(#linearGradient35392-8)"/>
 <path d="m-121.82 10.122v3.9876l30.752 22.583v-3.9881z" fill="url(#linearGradient37083-9)"/>
 <path d="m-39.053 18.012v9.771l75.354 55.337v-9.7722z" fill="url(#linearGradient37280-7)"/>
 <path d="m-98.659 25.92v9.7712l20.92 15.363v-3.3225zm24.894 24.73v3.3225l8.1846 6.0103v-3.3225zm10.165 7.4642v3.3225l8.5949 6.3121v-3.323zm14.623 10.739v3.3225l10.82 7.9457v-3.323zm14.028 10.302v3.323l6.6449 4.8795v-3.323zm9.2872 6.8198v3.323l2.3569 1.731v-3.3229z" fill="url(#linearGradient37849-3)"/>
 <g transform="matrix(.7631 0 0 .76369 -56.155 19.564)" fill="none" stroke="#235dc6" stroke-width=".64985">
  <path d="m116.37 53.187v6.7346" stop-color="#000000" style="font-variation-settings:normal"/>
  <path d="m122.49 57.678v8.7187"/>
  <path d="m128.48 62.077v4.1961"/>
  <circle cx="116.42" cy="61.028" r="1.21" stop-color="#000000" style="font-variation-settings:normal;paint-order:stroke fill markers"/>
  <circle cx="122.45" cy="66.901" r=".64061" stop-color="#000000" style="font-variation-settings:normal;paint-order:stroke fill markers"/>
  <circle cx="128.5" cy="67.357" r="1.21" stop-color="#000000" style="font-variation-settings:normal;paint-order:stroke fill markers"/>
  <path d="m110.31 48.673v8.379"/>
  <circle cx="110.3" cy="58.084" r="1.21" stop-color="#000000" style="font-variation-settings:normal;paint-order:stroke fill markers"/>
 </g>
 <path d="m-142.09-68.748 189.72 139.32 189.72-139.32v1.6323l-189.72 139.32-189.72-139.32z" fill="url(#linearGradient69576-6)" stop-color="#000000" style="-inkscape-stroke:none;font-variation-settings:normal;paint-order:stroke fill markers"/>
 <path d="m109.84 38.76v14.785l-8.1642 5.9953v-14.785zm-10.579 7.7684v14.785l-16.422 12.06v-14.785zm-21.432 15.739-0.1371 14.886-10.3 7.5635-0.01791-14.772zm-14.242 10.459 0.19282 14.643-3.1093 2.2833v-14.785z" fill="url(#linearGradient53643-1)" stop-color="#000000" style="-inkscape-stroke:none;font-variation-settings:normal"/>
 <path d="m191.73-36.961v9.7712l-20.92 15.363v-3.3225zm-24.894 24.73v3.3225l-8.1846 6.0103v-3.3225zm-10.165 7.4642v3.3225l-8.5949 6.3121v-3.323zm-14.623 10.739v3.3225l-10.82 7.9457v-3.323zm-14.028 10.302v3.3229l-6.6449 4.8795v-3.323zm-9.2872 6.8198v3.323l-2.3569 1.731v-3.323z" fill="url(#linearGradient53697-2)"/>
 <path d="m175.49-9.5869v9.771l-75.354 55.337v-9.7722z" fill="url(#linearGradient53804-9)"/>
 <path d="m105.64 55.138v6.9119l-58.019 42.758v-6.9119zm0 8.4002v2.6684l-58.019 42.758v-2.6684z" fill="url(#linearGradient5163-3)"/>
</svg>
