<?xml version="1.0" encoding="UTF-8"?>
<!-- Created with Inkscape (http://www.inkscape.org/) -->
<svg width="5120" height="2880" version="1.1" viewBox="0 0 1354.7 762" xmlns="http://www.w3.org/2000/svg" xmlns:xlink="http://www.w3.org/1999/xlink">
 <defs>
  <linearGradient id="linearGradient16905">
   <stop stop-color="#1b668f" offset="0"/>
   <stop stop-color="#121c94" offset=".5"/>
   <stop stop-color="#382279" offset="1"/>
  </linearGradient>
  <linearGradient id="linearGradient78639">
   <stop stop-color="#2936ea" offset="0"/>
   <stop stop-color="#164593" offset="1"/>
  </linearGradient>
  <linearGradient id="linearGradient75480-3" x1="-21.655" x2="1378.4" y1="110.14" y2="110.14" gradientTransform="matrix(.99221 0 0 .99221 -.33075 41.147)" gradientUnits="userSpaceOnUse" xlink:href="#linearGradient16905"/>
  <linearGradient id="linearGradient3595-6" x1="-21.656" x2="383.08" y1="81.035" y2="81.035" gradientTransform="matrix(3.7501 0 0 3.7501 -.33075 -.0094738)" gradientUnits="userSpaceOnUse">
   <stop stop-color="#51d677" stop-opacity=".47843" offset="0"/>
   <stop stop-color="#eded84" stop-opacity=".32941" offset=".26488"/>
   <stop stop-color="#a9ebf6" stop-opacity=".19951" offset=".49538"/>
   <stop stop-color="#e9bf9d" stop-opacity=".35686" offset=".74191"/>
   <stop stop-color="#5138aa" stop-opacity=".52157" offset="1"/>
  </linearGradient>
  <linearGradient id="linearGradient21995-7" x1="-21.655" x2="383.08" y1="92.147" y2="92.147" gradientTransform="translate(0 -155.84)" gradientUnits="userSpaceOnUse">
   <stop stop-color="#445feb" offset="0"/>
   <stop stop-color="#252fb5" offset=".5"/>
   <stop stop-color="#9b53c1" offset="1"/>
  </linearGradient>
  <linearGradient id="linearGradient21997-5" x1="-21.655" x2="383.08" y1="99.556" y2="99.556" gradientTransform="translate(0 -189.92)" gradientUnits="userSpaceOnUse">
   <stop stop-color="#3410ab" stop-opacity=".67526" offset="0"/>
   <stop stop-color="#169bd6" offset=".5"/>
   <stop stop-color="#0940a2" stop-opacity=".56984" offset="1"/>
  </linearGradient>
  <linearGradient id="linearGradient21999-5" x1="-24.528" x2="386.16" y1="-24.045" y2="-24.045" gradientTransform="translate(0 -138.44)" gradientUnits="userSpaceOnUse">
   <stop stop-color="#6a5e19" offset="0"/>
   <stop stop-color="#85751e" stop-opacity=".98824" offset=".14669"/>
   <stop stop-color="#8c7b20" stop-opacity=".96863" offset=".30531"/>
   <stop stop-color="#bda62c" stop-opacity=".95686" offset=".51079"/>
   <stop stop-color="#82721e" stop-opacity=".94902" offset=".6231"/>
   <stop stop-color="#968623" stop-opacity=".99608" offset=".83541"/>
   <stop stop-color="#4e4412" stop-opacity=".92157" offset="1"/>
  </linearGradient>
  <linearGradient id="linearGradient22001-2" x1="-21.655" x2="1378.4" y1="110.14" y2="110.14" gradientTransform="matrix(.26458 0 0 .26458 0 -4.9003)" gradientUnits="userSpaceOnUse" xlink:href="#linearGradient16905"/>
  <linearGradient id="linearGradient22003-9" x1="181.04" x2="361.42" y1="110.14" y2="110.14" gradientTransform="translate(0 -18.521)" gradientUnits="userSpaceOnUse" xlink:href="#linearGradient78639"/>
  <linearGradient id="linearGradient22005-1" x1="-21.655" x2="183.99" y1="110.14" y2="110.14" gradientTransform="translate(0 -18.521)" gradientUnits="userSpaceOnUse">
   <stop stop-color="#2f38a6" offset="0"/>
   <stop stop-color="#3d33eb" offset="1"/>
  </linearGradient>
  <linearGradient id="linearGradient22007-2" x1="-82.44" x2="1448.4" y1="345.52" y2="345.52" gradientTransform="scale(.26458)" gradientUnits="userSpaceOnUse" xlink:href="#linearGradient1294-7"/>
  <linearGradient id="linearGradient1294-7">
   <stop stop-color="#6a5e19" offset="0"/>
   <stop stop-color="#d1b832" stop-opacity=".98824" offset=".14669"/>
   <stop stop-color="#8c7b20" stop-opacity=".96863" offset=".30531"/>
   <stop stop-color="#dbc865" stop-opacity=".95686" offset=".51079"/>
   <stop stop-color="#82721e" stop-opacity=".94902" offset=".6231"/>
   <stop stop-color="#968623" stop-opacity=".99608" offset=".83541"/>
   <stop stop-color="#cfb530" stop-opacity=".92157" offset="1"/>
  </linearGradient>
  <linearGradient id="linearGradient22009-0" x1="-21.655" x2="383.08" y1="92.147" y2="92.147" gradientTransform="translate(0 -18.521)" gradientUnits="userSpaceOnUse">
   <stop stop-color="#445feb" offset="0"/>
   <stop stop-color="#4a55ed" offset=".5"/>
   <stop stop-color="#9b53c1" offset="1"/>
  </linearGradient>
  <linearGradient id="linearGradient22011-9" x1="-24.528" x2="386.16" y1="-24.045" y2="-24.045" gradientTransform="translate(0 -2.3527)" gradientUnits="userSpaceOnUse" xlink:href="#linearGradient1056-3"/>
  <linearGradient id="linearGradient1056-3">
   <stop stop-color="#6a5e19" offset="0"/>
   <stop stop-color="#85751e" stop-opacity=".98824" offset=".14669"/>
   <stop stop-color="#a38f26" stop-opacity=".96863" offset=".30531"/>
   <stop stop-color="#f5d737" stop-opacity=".95686" offset=".51079"/>
   <stop stop-color="#968623" stop-opacity=".99608" offset=".83541"/>
   <stop stop-color="#4e4412" stop-opacity=".92157" offset="1"/>
  </linearGradient>
  <linearGradient id="linearGradient22013-6" x1="-21.655" x2="383.08" y1="99.556" y2="99.556" gradientTransform="translate(0 -59.037)" gradientUnits="userSpaceOnUse">
   <stop stop-color="#3410ab" stop-opacity=".67526" offset="0"/>
   <stop stop-color="#2936e9" offset=".5"/>
   <stop stop-color="#0940a2" stop-opacity=".56984" offset="1"/>
  </linearGradient>
  <linearGradient id="linearGradient22015-0" x1="-24.528" x2="386.16" y1="-24.045" y2="-24.045" gradientTransform="translate(0 -44.553)" gradientUnits="userSpaceOnUse" xlink:href="#linearGradient17531-6"/>
  <linearGradient id="linearGradient17531-6">
   <stop stop-color="#6a5e19" offset="0"/>
   <stop stop-color="#85751e" stop-opacity=".98824" offset=".14669"/>
   <stop stop-color="#8c7b20" stop-opacity=".96863" offset=".30531"/>
   <stop stop-color="#d1b637" stop-opacity=".95686" offset=".51079"/>
   <stop stop-color="#82721e" stop-opacity=".94902" offset=".6231"/>
   <stop stop-color="#968623" stop-opacity=".99608" offset=".83541"/>
   <stop stop-color="#4e4412" stop-opacity=".92157" offset="1"/>
  </linearGradient>
  <linearGradient id="linearGradient22017-2" x1="253.56" x2="239.42" y1="147.01" y2="130.45" gradientTransform="translate(0 -18.521)" gradientUnits="userSpaceOnUse">
   <stop stop-color="#28ead8" stop-opacity=".58819" offset="0"/>
   <stop stop-color="#164593" stop-opacity=".023098" offset="1"/>
  </linearGradient>
  <linearGradient id="linearGradient22019-6" x1="251.13" x2="241.25" y1="138.13" y2="126.04" gradientTransform="matrix(-1 0 0 1 361.42 -18.521)" gradientUnits="userSpaceOnUse">
   <stop stop-color="#dc29ea" stop-opacity=".68736" offset="0"/>
   <stop stop-color="#164593" stop-opacity=".023098" offset="1"/>
  </linearGradient>
  <linearGradient id="linearGradient24593-1" x1="181.04" x2="361.42" y1="110.14" y2="110.14" gradientTransform="matrix(3.7501 0 0 3.7501 -.33075 -9.9316)" gradientUnits="userSpaceOnUse" xlink:href="#linearGradient78639"/>
  <linearGradient id="linearGradient78325-8" x1="-21.655" x2="183.99" y1="110.14" y2="110.14" gradientTransform="matrix(3.7501 0 0 3.7501 -.33075 -9.9316)" gradientUnits="userSpaceOnUse">
   <stop stop-color="#2e3476" offset="0"/>
   <stop stop-color="#3d33eb" offset="1"/>
  </linearGradient>
  <linearGradient id="linearGradient87990-7" x1="-82.44" x2="1448.4" y1="345.52" y2="345.52" gradientTransform="matrix(.99221 0 0 .99221 -.33075 59.523)" gradientUnits="userSpaceOnUse" xlink:href="#linearGradient1294-7"/>
  <linearGradient id="linearGradient25753-9" x1="-21.655" x2="383.08" y1="92.147" y2="92.147" gradientTransform="matrix(3.7501 0 0 3.7501 -.33075 -9.9316)" gradientUnits="userSpaceOnUse">
   <stop stop-color="#4465eb" offset="0"/>
   <stop stop-color="#46a7e1" offset=".5"/>
   <stop stop-color="#6b50c1" offset="1"/>
  </linearGradient>
  <linearGradient id="linearGradient25219-2" x1="-24.528" x2="386.16" y1="-24.045" y2="-24.045" gradientTransform="matrix(3.7501 0 0 3.7501 -.33075 50.7)" gradientUnits="userSpaceOnUse" xlink:href="#linearGradient1056-3"/>
  <linearGradient id="linearGradient14910-0" x1="253.56" x2="239.42" y1="147.01" y2="130.45" gradientTransform="matrix(3.7501 0 0 3.7501 -.33075 -9.9316)" gradientUnits="userSpaceOnUse">
   <stop stop-color="#e06fea" stop-opacity=".39011" offset="0"/>
   <stop stop-color="#164593" stop-opacity=".023098" offset="1"/>
  </linearGradient>
  <linearGradient id="linearGradient15720-2" x1="251.13" x2="241.25" y1="138.13" y2="126.04" gradientTransform="matrix(-3.7501 0 0 3.7501 1355 -9.9316)" gradientUnits="userSpaceOnUse">
   <stop stop-color="#dc29ea" stop-opacity=".18321" offset="0"/>
   <stop stop-color="#164593" stop-opacity=".023098" offset="1"/>
  </linearGradient>
  <linearGradient id="linearGradient35006-37" x1="542.26" x2="409.86" y1="531.52" y2="437.69" gradientTransform="matrix(.99221 0 0 .99221 -.33075 -.0094738)" gradientUnits="userSpaceOnUse">
   <stop stop-color="#9e80dc" stop-opacity=".08" offset="0"/>
   <stop stop-color="#9e80dc" stop-opacity="0" offset="1"/>
  </linearGradient>
  <linearGradient id="linearGradient35006-3-5" x1="542.26" x2="409.86" y1="531.52" y2="437.69" gradientTransform="matrix(-.99221 0 0 .99221 1712.7 -257.04)" gradientUnits="userSpaceOnUse">
   <stop stop-color="#9e80dc" stop-opacity=".12323" offset="0"/>
   <stop stop-color="#9e80dc" stop-opacity="0" offset="1"/>
  </linearGradient>
  <linearGradient id="linearGradient26562-9" x1="-21.655" x2="383.08" y1="99.556" y2="99.556" gradientTransform="matrix(3.7501 0 0 3.7501 -.33075 -161.87)" gradientUnits="userSpaceOnUse">
   <stop stop-color="#0031b6" offset="0"/>
   <stop stop-color="#255cc7" offset=".5"/>
   <stop stop-color="#3d3dd3" offset="1"/>
  </linearGradient>
  <linearGradient id="linearGradient34063-2" x1="79.735" x2="21.187" y1="42.158" y2="1.0037" gradientTransform="matrix(3.7501 0 0 3.7501 -.33075 -.0094738)" gradientUnits="userSpaceOnUse">
   <stop stop-color="#9e7fdc" stop-opacity=".1" offset="0"/>
   <stop stop-color="#9e7fdc" stop-opacity="0" offset="1"/>
  </linearGradient>
  <linearGradient id="linearGradient53858-2" x1="79.735" x2="21.187" y1="42.158" y2="1.0037" gradientTransform="matrix(-3.7501 0 0 3.7501 1030.6 433.11)" gradientUnits="userSpaceOnUse">
   <stop stop-color="#7fdcdb" stop-opacity=".07" offset="0"/>
   <stop stop-color="#9e7fdc" stop-opacity="0" offset="1"/>
  </linearGradient>
  <linearGradient id="linearGradient35392-8" x1="654.09" x2="409.86" y1="615.36" y2="437.69" gradientTransform="matrix(.99221 0 0 .99221 28.443 -107.29)" gradientUnits="userSpaceOnUse">
   <stop stop-color="#b1cdef" stop-opacity=".26275" offset="0"/>
   <stop stop-color="#9e80dc" stop-opacity="0" offset="1"/>
  </linearGradient>
  <linearGradient id="linearGradient37083-9" x1="32.688" x2="-4.3074" y1="61.359" y2="35.59" gradientTransform="matrix(3.7501 0 0 3.7501 -.33075 -.0094738)" gradientUnits="userSpaceOnUse">
   <stop stop-color="#a9e3ed" stop-opacity=".05" offset="0"/>
   <stop stop-color="#a9e3ed" stop-opacity="0" offset="1"/>
  </linearGradient>
  <linearGradient id="linearGradient37280-7" x1="32.688" x2="-4.3074" y1="61.359" y2="35.59" gradientTransform="matrix(9.189 0 0 9.189 330.95 -163.99)" gradientUnits="userSpaceOnUse">
   <stop stop-color="#60cbde" stop-opacity=".059582" offset="0"/>
   <stop stop-color="#a9e3ed" stop-opacity="0" offset="1"/>
  </linearGradient>
  <linearGradient id="linearGradient37849-3" x1="32.688" x2="-4.3074" y1="61.359" y2="35.59" gradientTransform="matrix(9.189 0 0 9.189 92.52 -132.35)" gradientUnits="userSpaceOnUse">
   <stop stop-color="#84b0b8" stop-opacity=".05" offset="0"/>
   <stop stop-color="#a9e3ed" stop-opacity="0" offset="1"/>
  </linearGradient>
  <linearGradient id="linearGradient69576-6" x1="-24.528" x2="386.16" y1="-24.045" y2="-24.045" gradientTransform="matrix(3.7501 0 0 3.7501 -.33075 -107.55)" gradientUnits="userSpaceOnUse" xlink:href="#linearGradient17531-6"/>
  <linearGradient id="linearGradient53643-1" x1="79.735" x2="21.187" y1="42.158" y2="1.0037" gradientTransform="matrix(-3.7501 0 0 3.7501 1031.7 263.82)" gradientUnits="userSpaceOnUse">
   <stop stop-color="#dc7fdc" stop-opacity=".08" offset="0"/>
   <stop stop-color="#9e7fdc" stop-opacity="0" offset="1"/>
  </linearGradient>
  <linearGradient id="linearGradient53697-2" x1="32.688" x2="-4.3074" y1="61.359" y2="35.59" gradientTransform="matrix(-9.189 0 0 9.189 1253.5 -383.88)" gradientUnits="userSpaceOnUse">
   <stop stop-color="#a9e3ed" stop-opacity=".06" offset="0"/>
   <stop stop-color="#a9e3ed" stop-opacity="0" offset="1"/>
  </linearGradient>
  <linearGradient id="linearGradient53804-9" x1="32.688" x2="-4.3074" y1="61.359" y2="35.59" gradientTransform="matrix(-9.189 0 0 9.189 1188.5 -274.39)" gradientUnits="userSpaceOnUse">
   <stop stop-color="#dd83f2" stop-opacity=".12549" offset="0"/>
   <stop stop-color="#a9e3ed" stop-opacity="0" offset="1"/>
  </linearGradient>
  <linearGradient id="linearGradient5163-3" x1="654.09" x2="409.86" y1="615.36" y2="437.69" gradientTransform="matrix(-.99221 0 0 .99221 1326.3 -107.29)" gradientUnits="userSpaceOnUse">
   <stop stop-color="#b1cdef" stop-opacity=".14678" offset="0"/>
   <stop stop-color="#9e80dc" stop-opacity="0" offset="1"/>
  </linearGradient>
 </defs>
 <rect x="1.6211e-6" y="-1.2773e-5" width="1354.7" height="762" fill="#2a2e32" stop-color="#000000" style="-inkscape-stroke:none;font-variation-settings:normal;paint-order:stroke fill markers"/>
 <path d="m-81.541-24.472v78.449l717.71 527.05 41.181 86.921 41.181-86.921 717.71-527.05v-78.449l-758.89 557.29z" fill="url(#linearGradient75480-3)" stop-color="#000000" style="-inkscape-stroke:none;font-variation-settings:normal"/>
 <path d="m-155.41 59.398s40.64 84.524 189.71 77.166c21.296-1.0512 44.805-3.9775 70.725-9.2932 155.52-31.895 211.63 83.281 252.26 190.98 13.545 35.9 25.371 70.969 38.586 99.484 37.969 81.926 132.59 182.92 236.5 229.12 62.348 27.718 128.04 35.708 186.85 8.0126 50.107-23.598 59.876-52.211 57.846-78.852-2.0295-26.64-15.858-51.307-12.946-67.011 7.5317-40.62 36.805-45.663 66.191-42.934 48.976 4.5492 98.265 30.689 47.73-50.301-15.698-25.158-23.494-47.788-26.098-67.758-7.8134-59.909 31.098-95.873 43.567-104.3 16.407-11.087 35.632-19.416 56.913-25.661 148.97-43.709 398.68 14.771 487.85-54.888m-1690.3-106.49c3.5996 1.1262 43.688 87.681 188.36 83.881 20.651-0.32361 43.562-2.5865 68.905-7.2746 152.06-28.129 210.69 83.051 253.32 186.33 14.055 34.495 26.612 68.494 40.556 96.344 39.654 79.97 134.61 179.88 236.7 226.57 61.252 28.01 125.33 37.034 182.19 11.298 48.305-21.356 56.484-47.708 52.093-72.878-4.3912-25.17-19.736-52.155-16.59-70.491 7.5592-41.793 37.503-49.036 69.52-47.212 51.605 3.4628 104.95 27.683 58.89-51.876-14.033-24.786-20.762-47.055-23.062-66.638-6.1486-59.296 29.365-96.395 42.011-105.53 16.038-10.936 34.895-19.159 55.861-25.31 148.98-43.141 390.55 8.5132 477.25-59.21m-1680.6-100.71c7.1992 2.2525 46.735 90.839 187.01 90.597 20.005 0.40396 42.318-1.1955 67.086-5.256 148.61-24.363 209.76 82.82 254.37 181.67 14.565 33.09 27.853 66.018 42.526 93.204 41.339 78.013 136.64 176.84 236.9 224.02 60.157 28.302 122.61 38.361 177.54 14.582 46.504-19.115 53.093-43.204 46.34-66.904-6.7528-23.7-23.615-53.002-20.234-73.971 7.5866-42.967 38.201-52.408 72.848-51.49 54.234 2.3764 111.64 24.677 70.05-53.45-12.369-24.415-18.029-46.322-20.026-65.519-4.4837-58.683 27.632-96.917 40.454-106.76 15.67-10.786 34.159-18.901 54.808-24.96 148.98-42.572 382.43 2.2554 466.65-63.533m-1670.9-94.94c10.799 3.3787 49.783 93.997 185.66 97.313 19.36 1.1315 41.075 0.19548 65.267-3.2373 145.15-20.597 208.83 82.589 255.43 177.01 15.076 31.685 29.094 63.542 44.496 90.063 43.024 76.057 138.66 173.8 237.1 221.46 59.062 28.594 119.89 39.687 172.88 17.867 44.703-16.873 49.702-38.701 40.587-60.93-9.1144-22.229-27.493-53.849-23.877-77.451 7.614-44.14 38.898-55.781 76.177-55.767 56.863 1.29 118.32 21.671 81.21-55.025-10.705-24.043-15.297-45.589-16.99-64.399-2.8189-58.07 25.9-97.438 38.898-107.99 15.301-10.635 33.422-18.644 53.756-24.61 148.99-42.003 374.31-4.0025 456.05-67.856m-1661.3-89.165c14.398 4.505 52.83 97.154 184.31 104.03 18.715 1.8591 39.831 1.5865 63.448-1.2187 141.7-16.831 207.9 82.358 256.49 172.36 15.586 30.28 30.335 61.066 46.465 86.923 44.709 74.1 140.69 170.76 237.3 218.91 57.966 28.886 117.18 41.013 168.23 21.152 42.902-14.632 46.31-34.197 34.834-54.956s-31.372-54.696-27.521-80.931c7.6414-45.314 39.596-59.153 79.505-60.045 59.491 0.20365 125.01 18.665 92.37-56.599-9.0406-23.672-12.565-44.856-13.954-63.28-1.1541-57.457 24.167-97.96 37.342-109.23 14.933-10.484 32.686-18.386 52.704-24.259 149-41.434 366.18-10.26 445.45-72.179m-1651.6-83.391c17.998 5.6312 55.878 100.31 182.95 110.74 18.069 2.5866 38.588 2.9774 61.629 0.79992 138.24-13.065 206.97 82.127 257.54 167.7 16.096 28.875 31.576 58.59 48.435 83.783 46.394 72.144 142.71 167.72 237.5 216.35 56.871 29.178 114.46 42.339 163.57 24.437 41.101-12.39 42.919-29.693 29.081-48.982s-35.25-55.543-31.165-84.411c7.6689-46.487 40.294-62.526 82.834-64.323 62.12-0.88273 131.69 15.659 103.53-58.173-7.3763-23.3-9.8332-44.123-10.918-62.16 0.51076-56.843 22.435-98.482 35.786-110.46 14.564-10.334 31.949-18.128 51.651-23.909 149.01-40.866 358.06-16.518 434.84-76.502m-1641.9-77.617c21.598 6.7574 58.926 103.47 181.6 117.46 17.424 3.3142 37.344 4.3684 59.809 2.8186 134.79-9.2992 206.03 81.896 258.6 163.04 16.606 27.47 32.817 56.114 50.405 80.643 48.079 70.187 144.73 164.68 237.69 213.8 55.776 29.47 111.75 43.665 158.91 27.722 39.3-10.149 39.528-25.19 23.329-43.008s-39.129-56.39-34.809-87.891c7.6963-47.661 40.991-65.898 86.162-68.601 64.749-1.9691 138.38 12.653 114.69-59.748-5.712-22.928-7.1011-43.39-7.8818-61.04 2.1756-56.23 20.702-99.004 34.23-111.69 14.195-10.183 31.212-17.871 50.599-23.559 149.02-40.297 349.93-22.776 424.24-80.825m-1632.2-71.842c25.197 7.8837 61.973 106.63 180.25 124.18 16.779 4.0418 36.101 5.7594 57.99 4.8372 131.34-5.5334 205.1 81.665 259.65 158.39 17.116 26.065 34.058 53.638 52.375 77.502 49.764 68.231 146.76 161.64 237.89 211.25 54.681 29.762 109.03 44.991 154.26 31.007 37.499-7.9077 36.136-20.686 17.576-37.034-18.561-16.348-43.007-57.238-38.453-91.371 7.7238-48.834 41.689-69.271 89.491-72.879 67.378-3.0555 145.07 9.6472 125.85-61.322-4.0479-22.557-4.3691-42.657-4.8459-59.921 3.8404-55.617 18.969-99.526 32.673-112.92 13.827-10.033 30.476-17.613 49.547-23.208 149.03-39.728 341.81-29.034 413.64-85.148m-1622.5-66.068c28.797 9.0099 65.021 109.78 178.9 130.89 16.133 4.7693 34.857 7.1504 56.171 6.8558 127.88-1.7675 204.17 81.434 260.71 153.73 17.626 24.66 35.3 51.162 54.345 74.362 51.449 66.274 148.78 158.6 238.09 208.69 53.585 30.054 106.32 46.318 149.6 34.292 35.698-5.6662 32.745-16.183 11.823-31.06-20.922-14.878-46.885-58.085-42.097-94.851 7.7512-50.008 42.387-72.643 92.82-77.157 70.006-4.1419 151.75 6.6412 137.01-62.897-2.3836-22.185-1.637-41.924-1.8098-58.801 5.5052-55.004 17.237-100.05 31.117-114.16 13.458-9.882 29.739-17.355 48.494-22.858 149.04-39.159 333.69-35.292 403.04-89.471m-1612.8-60.293c32.396 10.136 68.068 112.94 177.55 137.61 15.488 5.4969 33.614 8.5414 54.352 8.8744 124.43 1.9984 203.24 81.203 261.77 149.07 18.136 23.255 36.541 48.687 56.315 71.222 53.134 64.318 150.81 155.56 238.29 206.14 52.49 30.346 103.6 47.644 144.95 37.577 33.897-3.4248 29.354-11.679 6.0697-25.086-23.284-13.407-50.764-58.932-45.74-98.331 7.7786-51.181 43.084-76.016 96.148-81.435 72.635-5.2282 158.44 3.6351 148.17-64.471-0.7194-21.814 1.0951-41.191 1.2262-57.681 7.1701-54.391 15.504-100.57 29.561-115.39 13.09-9.7314 29.002-17.098 47.442-22.508 149.05-38.59 325.56-41.549 392.44-93.793m-1603.2-54.519c35.996 11.262 71.116 116.1 176.2 144.32 14.843 6.2244 32.371 9.9324 52.533 10.893 120.97 5.7643 202.31 80.973 262.82 144.42 18.647 21.85 37.782 46.211 58.285 68.082 54.819 62.361 152.83 152.52 238.49 203.59 51.395 30.638 100.89 48.97 140.29 40.862 32.096-1.1834 25.962-7.1754 0.3168-19.113-25.646-11.937-54.642-59.779-49.384-101.81 7.806-52.355 43.782-79.388 99.477-85.713 75.264-6.3146 165.12 0.62912 159.33-66.045 0.9449-21.442 3.8272-40.458 4.2623-56.562 8.8349-53.778 13.771-101.09 28.005-116.62 12.721-9.5808 28.266-16.84 46.39-22.157 149.06-38.022 317.44-47.807 381.84-98.116m-1593.5-48.745c39.596 12.389 74.163 119.26 174.85 151.04 14.197 6.952 31.127 11.323 50.713 12.912 117.52 9.5301 201.38 80.742 263.88 139.76 19.157 20.445 39.023 43.735 60.255 64.941 56.504 60.405 154.85 149.48 238.69 201.03 50.299 30.93 98.172 50.296 135.64 44.147 30.295 1.058 22.571-2.6718-5.4361-13.139s-58.521-60.626-53.028-105.29c7.8335-53.528 44.48-82.761 102.81-89.99 77.893-7.401 171.81-2.3769 170.49-67.62 2.6092-21.07 6.5593-39.725 7.2983-55.442 10.5-53.165 12.039-101.61 26.449-117.85 12.352-9.4302 27.529-16.582 45.337-21.807 149.07-37.453 309.31-54.065 371.24-102.44m-1583.8-42.97c43.195 13.515 77.211 122.42 173.49 157.75 13.552 7.6796 29.884 12.714 48.894 14.93 114.06 13.296 200.44 80.511 264.93 135.1 19.667 19.04 40.264 41.259 62.225 61.801 58.189 58.448 156.88 146.44 238.89 198.48 49.204 31.222 95.457 51.622 130.98 47.432 28.494 3.2994 19.18 1.8318-11.189-7.1647s-62.399-61.474-56.672-108.77c7.8609-54.702 45.178-86.133 106.13-94.268 80.521-8.4874 178.5-5.3829 181.65-69.194 4.2734-20.699 9.2914-38.992 10.334-54.323 12.164-52.551 10.306-102.14 24.892-119.08 11.984-9.2797 26.792-16.325 44.285-21.457 149.08-36.884 301.19-60.323 360.64-106.76m-1574.1-37.196c46.795 14.641 80.259 125.57 172.14 164.47 12.907 8.4071 28.64 14.105 47.075 16.949 110.61 17.062 199.51 80.28 265.99 130.45 20.177 17.635 41.505 38.783 64.194 58.661 59.874 56.492 158.9 143.4 239.08 195.93 48.109 31.514 92.742 52.948 126.32 50.717 26.693 5.5408 15.789 6.3354-16.942-1.1908s-66.278-62.321-60.316-112.25c7.8883-55.875 45.875-89.506 109.46-98.546 83.15-9.5738 185.18-8.389 192.81-70.768 5.9376-20.327 12.023-38.259 13.37-53.203 13.829-51.938 8.5736-102.66 23.336-120.32 11.615-9.1291 26.056-16.067 43.233-21.106 149.09-36.315 293.07-66.581 350.04-111.08m-1564.4-31.421c50.394 15.767 83.306 128.73 170.79 171.19 12.261 9.1347 27.397 15.496 45.256 18.968 107.15 20.828 198.58 80.049 267.05 125.79 20.687 16.23 42.746 36.307 66.164 55.521 61.559 54.535 160.93 140.36 239.28 193.37 47.014 31.806 90.026 54.275 121.67 54.002 24.892 7.7823 12.397 10.839-22.695 4.7831s-70.156-63.168-63.959-115.73c7.9158-57.049 46.573-92.878 112.79-102.82 85.779-10.66 191.87-11.395 203.97-72.343 7.6018-19.956 14.756-37.526 16.406-52.083 15.494-51.325 6.8409-103.18 21.78-121.55 11.246-8.9785 25.319-15.809 42.18-20.756 149.09-35.747 284.94-72.839 339.44-115.41m-1554.7-25.647c53.994 16.894 86.354 131.89 169.44 177.9 11.616 9.8623 26.153 16.887 43.437 20.986 103.7 24.594 197.65 79.818 268.1 121.14 21.197 14.825 43.987 33.831 68.134 52.38 63.244 52.579 162.95 137.32 239.48 190.82 45.918 32.098 87.311 55.601 117.01 57.287 23.091 10.024 9.0059 15.343-28.448 10.757-37.454-4.5856-74.035-64.015-67.603-119.21 7.9432-58.222 47.271-96.251 116.12-107.1 88.408-11.747 198.55-14.401 215.13-73.917 9.2661-19.584 17.488-36.793 19.442-50.964 17.159-50.712 5.1084-103.7 20.224-122.78 10.878-8.8279 24.582-15.552 41.128-20.405 149.1-35.178 276.82-79.096 328.83-119.73m-1545.1-19.873c57.594 18.02 89.401 135.05 168.09 184.62 10.971 10.59 24.91 18.278 41.618 23.005 100.25 28.36 196.72 79.587 269.16 116.48 21.707 13.42 45.228 31.355 70.104 49.24 64.929 50.622 164.98 134.28 239.68 188.26 44.823 32.39 84.596 56.927 112.36 60.572 21.29 12.265 5.6146 19.846-34.201 16.731-39.815-3.1152-77.913-64.862-71.247-122.69 7.9706-59.395 47.968-99.623 119.45-111.38 91.036-12.833 205.24-17.407 226.29-75.492 10.93-19.212 20.22-36.06 22.478-49.844 18.824-50.099 3.3757-104.22 18.668-124.01 10.509-8.6773 23.846-15.294 40.076-20.055 149.11-34.609 268.69-85.354 318.23-124.05m-1535.4-14.098c61.193 19.146 92.449 138.2 166.74 191.33 10.326 11.317 23.667 19.669 39.798 25.023 96.791 32.125 195.78 79.356 270.21 111.82 22.218 12.015 46.469 28.88 72.074 46.1 66.614 48.666 167 131.24 239.88 185.71 43.728 32.682 81.88 58.253 107.7 63.857 19.489 14.507 2.2232 24.35-39.954 22.705-42.177-1.6449-81.792-65.71-74.891-126.17 7.9981-60.569 48.666-103 122.78-115.66 93.665-13.919 211.93-20.413 237.45-77.066 12.595-18.841 22.952-35.327 25.514-48.724 20.489-49.486 1.6431-104.75 17.111-125.24 10.14-8.5267 23.109-15.036 39.023-19.705 149.12-34.04 260.57-91.612 307.63-128.38m-1525.7-8.3239c64.793 20.272 95.496 141.36 165.38 198.05 9.6802 12.045 22.423 21.06 37.979 27.042 93.336 35.891 194.85 79.125 271.27 107.17 22.728 10.61 47.71 26.404 74.044 42.96 68.299 46.709 169.02 128.2 240.08 183.16 42.632 32.974 79.165 59.579 103.04 67.142 17.687 16.748-1.1681 28.853-45.707 28.679s-85.67-66.557-78.535-129.65c8.0255-61.742 49.364-106.37 126.11-119.94 96.294-15.006 218.61-23.419 248.61-78.64 14.259-18.469 25.684-34.594 28.551-47.605 22.154-48.873-0.09-105.27 15.555-126.48 9.7719-8.3761 22.372-14.779 37.971-19.354 149.13-33.471 252.45-97.87 297.03-132.7m-1516-2.5495c68.392 21.399 98.544 144.52 164.03 204.77 9.0349 12.772 21.18 22.451 36.16 29.061 89.882 39.657 193.92 78.895 272.33 102.51 23.238 9.2047 48.952 23.928 76.014 39.819 69.984 44.753 171.05 125.16 240.28 180.6 41.537 33.266 76.45 60.905 98.389 70.426 15.886 18.989-4.5594 33.357-51.46 34.653-46.9 1.2958-89.548-67.404-82.178-133.13 8.0529-62.916 50.062-109.74 129.43-124.21 98.923-16.092 225.3-26.425 259.77-80.215 15.923-18.098 28.416-33.861 31.586-46.485 23.818-48.26-1.8221-105.79 13.999-127.71 9.4032-8.2255 21.636-14.521 36.919-19.004 149.14-32.903 244.32-104.13 286.43-137.02m-1506.3 3.2249c71.992 22.525 101.59 147.68 162.68 211.48 8.3895 13.5 19.936 23.842 34.341 31.079 86.427 43.423 192.99 78.664 273.38 97.853 23.748 7.7997 50.193 21.452 77.984 36.679 71.669 42.796 173.07 122.12 240.47 178.05 40.442 33.558 73.734 62.232 93.733 73.711 14.085 21.231-7.9507 37.861-57.213 40.627-49.262 2.7661-93.427-68.251-85.822-136.61 8.0804-64.089 50.759-113.11 132.76-128.49 101.55-17.178 231.98-29.431 270.93-81.789 17.587-17.726 31.148-33.128 34.623-45.366 25.483-47.646-3.5548-106.31 12.443-128.94 9.0347-8.0749 20.899-14.264 35.866-18.654 149.15-32.334 236.2-110.39 275.83-141.35m-1496.6 8.9993c75.592 23.651 104.64 150.83 161.33 218.2 7.7442 14.228 18.693 25.233 32.522 33.098 82.973 47.189 192.06 78.433 274.44 93.197 24.258 6.3947 51.434 18.976 79.953 33.539 73.354 40.84 175.1 119.08 240.67 175.5 39.346 33.85 71.019 63.558 89.077 76.996 12.284 23.472-11.342 42.364-62.966 46.601-51.623 4.2364-97.305-69.098-89.466-140.09 8.1078-65.263 51.457-116.49 136.09-132.77 104.18-18.265 238.67-32.437 282.09-83.364 19.252-17.355 33.88-32.395 37.659-44.246 27.148-47.033-5.2874-106.83 10.887-130.17 8.666-7.9244 20.162-14.006 34.814-18.303 149.16-31.765 228.07-116.64 265.23-145.67m-1487 14.774c79.191 24.777 107.69 153.99 159.98 224.91 7.0989 14.955 17.449 26.624 30.702 35.117 79.518 50.955 191.13 78.202 275.49 88.541 24.768 4.9896 52.675 16.5 81.923 30.399 75.039 38.883 177.12 116.04 240.87 172.94 38.251 34.142 68.304 64.884 84.422 80.281 10.483 25.714-14.733 46.868-68.718 52.575-53.985 5.7067-101.18-69.946-93.11-143.57 8.1352-66.436 52.155-119.86 139.42-137.05 106.81-19.351 245.35-35.443 293.25-84.938 20.916-16.983 36.612-31.661 40.695-43.126 28.813-46.42-7.0201-107.36 9.3303-131.41 8.2974-7.7738 19.426-13.748 33.762-17.953 149.17-31.196 219.95-122.9 254.63-149.99m-1477.3 20.548c82.791 25.903 110.73 157.15 158.63 231.63 6.4536 15.683 16.206 28.015 28.883 37.135 76.064 54.721 190.19 77.971 276.55 83.884 25.278 3.5846 53.916 14.024 83.893 27.258 76.724 36.927 179.14 113 241.07 170.39 37.156 34.434 65.588 66.21 79.766 83.566 8.6822 27.955-18.125 51.371-74.471 58.548-56.347 7.177-105.06-70.793-96.754-147.05 8.1626-67.61 52.852-123.23 142.75-141.33 109.44-20.438 252.04-38.449 304.41-86.512 22.58-16.611 39.344-30.928 43.731-42.007 30.478-45.807-8.7527-107.88 7.7741-132.64 7.9289-7.6232 18.689-13.491 32.709-17.603 149.18-30.628 211.82-129.16 244.03-154.31m-1467.6 26.322c86.39 27.03 113.78 160.31 157.28 238.34 5.8082 16.41 14.962 29.406 27.064 39.154 72.609 58.487 189.26 77.74 277.61 79.228 25.789 2.1796 55.157 11.548 85.863 24.118 78.409 34.97 181.17 109.96 241.27 167.83 36.061 34.726 62.873 67.536 75.11 86.851 6.8811 30.196-21.516 55.875-80.224 64.522-58.708 8.6474-108.94-71.64-100.4-150.53 8.1901-68.783 53.55-126.6 146.08-145.6 112.07-21.524 258.73-41.455 315.57-88.087 24.244-16.24 42.076-30.195 46.767-40.887 32.142-45.194-10.485-108.4 6.2179-133.87 7.5602-7.4726 17.952-13.233 31.657-17.252 149.19-30.059 203.7-135.42 233.42-158.64m-1457.9 32.097c89.99 28.156 116.83 163.46 155.92 245.06 5.1629 17.138 13.719 30.797 25.245 41.173 69.155 62.252 188.33 77.509 278.66 74.571 26.299 0.77459 56.398 9.0725 87.833 20.978 80.094 33.014 183.19 106.92 241.47 165.28 34.965 35.018 60.158 68.862 70.454 90.136 5.0801 32.438-24.907 60.379-85.977 70.496-61.07 10.118-112.82-72.487-104.04-154.01 8.2175-69.957 54.248-129.98 149.41-149.88 114.7-22.61 265.41-44.461 326.73-89.661 25.908-15.868 44.808-29.462 49.803-39.768 33.807-44.581-12.218-108.92 4.6617-135.1 7.1916-7.322 17.216-12.975 30.605-16.902 149.2-29.49 195.58-141.67 222.82-162.96m-1448.2 37.871c93.59 29.282 119.88 166.62 154.57 251.78 4.5176 17.865 12.476 32.188 23.426 43.191 65.7 66.018 187.4 77.278 279.72 69.915 26.809-0.63042 57.639 6.5967 89.803 17.838 81.779 31.057 185.22 103.88 241.67 162.73 33.87 35.31 57.442 70.189 65.798 93.421 3.279 34.679-28.299 64.882-91.73 76.47-63.432 11.588-116.7-73.334-107.69-157.49 8.245-71.13 54.945-133.35 152.73-154.16 117.32-23.697 272.1-47.467 337.89-91.235 27.573-15.497 47.54-28.729 52.839-38.648 35.472-43.968-13.951-109.44 3.1055-136.33 6.8229-7.1714 16.479-12.718 29.552-16.552 149.2-28.921 187.45-147.93 212.22-167.28m-1438.5 43.646c97.189 30.408 122.92 169.78 153.22 258.49 3.8722 18.593 11.232 33.579 21.606 45.21 62.246 69.784 186.47 77.047 280.77 65.259 27.319-2.0354 58.88 4.1208 91.773 14.697 83.464 29.101 187.24 100.84 241.86 160.17 32.775 35.601 54.727 71.515 61.143 96.706 1.478 36.921-31.69 69.386-97.483 82.444s-120.58-74.182-111.33-160.97c8.2724-72.304 55.643-136.72 156.06-158.44 119.95-24.783 278.78-50.473 349.05-92.81 29.237-15.125 50.272-27.996 55.875-37.528 37.137-43.354-15.683-109.97 1.5493-137.57 6.4544-7.0208 15.743-12.46 28.5-16.201 149.21-28.352 179.33-154.19 201.62-171.61m-1428.9 49.42c100.79 31.535 125.97 172.94 151.87 265.21 3.2269 19.321 9.9887 34.97 19.787 47.228 58.791 73.55 185.53 76.817 281.83 60.602 27.829-3.4404 60.121 1.6449 93.743 11.557 85.149 27.144 189.26 97.798 242.06 157.62 31.679 35.893 52.012 72.841 56.487 99.991-0.32311 39.162-35.081 73.889-103.24 88.418-68.155 14.529-124.45-75.029-114.97-164.45 8.2998-73.477 56.341-140.09 159.39-162.71 122.58-25.87 285.47-53.479 360.21-94.384 30.901-14.753 53.005-27.263 58.911-36.409 38.802-42.741-17.416-110.49-0.01-138.8 6.0857-6.8702 15.006-12.202 27.448-15.851 149.22-27.784 171.2-160.45 191.02-175.93m-1419.2 55.194c104.39 32.661 129.02 176.09 150.52 271.92 2.5816 20.048 8.7452 36.361 17.968 49.247 55.337 77.316 184.6 76.586 282.89 55.946 28.339-4.8455 61.362-0.83096 95.712 8.4168 86.834 25.188 191.29 94.758 242.26 155.07 30.584 36.185 49.297 74.167 51.831 103.28-2.1242 41.404-38.473 78.393-108.99 94.392-70.516 15.999-128.33-75.876-118.62-167.93 8.3272-74.65 57.039-143.47 162.72-166.99 125.21-26.956 292.16-56.485 371.37-95.959 32.566-14.382 55.737-26.53 61.947-35.289 40.467-42.128-19.148-111.01-1.5631-140.03 5.7171-6.7196 14.269-11.945 26.395-15.501 149.23-27.215 163.08-166.71 180.42-180.25m-1409.5 60.969c107.99 33.787 132.07 179.25 149.17 278.64 1.9363 20.776 7.5018 37.752 16.149 51.266 51.882 81.082 183.67 76.355 283.94 51.289 28.849-6.2505 62.604-3.3068 97.682 5.2765 88.519 23.232 193.31 91.718 242.46 152.51 29.489 36.477 46.581 75.493 47.175 106.56-3.9252 43.645-41.864 82.897-114.74 100.37-72.878 17.469-132.21-76.723-122.26-171.41 8.3547-75.824 57.736-146.84 166.05-171.27 127.84-28.042 298.84-59.491 382.53-97.533 34.23-14.01 58.469-25.797 64.983-34.169 42.131-41.515-20.881-111.53-3.1193-141.26 5.3484-6.569 13.533-11.687 25.343-15.15 149.24-26.646 154.96-172.96 169.82-184.57m-1399.8 66.743c111.59 34.913 135.11 182.41 147.81 285.35 1.291 21.503 6.2583 39.143 14.33 53.284 48.428 84.848 182.74 76.124 285 46.633 29.36-7.6555 63.845-5.7827 99.652 2.1362 90.204 21.275 195.34 88.677 242.66 149.96 28.393 36.769 43.866 76.819 42.52 109.85-5.7263 45.886-45.255 87.4-120.49 106.34-75.24 18.94-136.09-77.57-125.9-174.89 8.3821-76.997 58.434-150.21 169.38-175.55 130.47-29.129 305.53-62.497 393.69-99.107 35.894-13.639 61.201-25.064 68.019-33.05 43.796-40.902-22.614-112.05-4.6755-142.49 4.9799-6.4184 12.796-11.429 24.291-14.8 149.25-26.077 146.83-179.22 159.22-188.9m-1390.1 72.518c115.19 36.04 138.16 185.57 146.46 292.07 0.64563 22.231 5.0149 40.534 12.51 55.303 44.973 88.614 181.81 75.893 286.05 41.977 29.87-9.0605 65.086-8.2586 101.62-1.004 91.889 19.319 197.36 85.637 242.86 147.41 27.298 37.061 41.151 78.146 37.864 113.13-7.5274 48.128-48.647 91.904-126.25 112.31-77.601 20.41-139.97-78.418-129.55-178.37 8.4095-78.171 59.132-153.58 172.71-179.83 133.1-30.215 312.21-65.503 404.86-100.68 37.558-13.267 63.933-24.331 71.055-31.93 45.461-40.289-24.346-112.57-6.2317-143.73 4.6112-6.2679 12.059-11.172 23.238-14.45 149.26-25.509 138.71-185.48 148.62-193.22m-1380.4 78.292c118.79 37.166 141.21 188.72 145.11 298.79 3e-4 22.958 3.7715 41.925 10.691 57.322 41.519 92.379 180.87 75.662 287.11 37.32 30.38-10.466 66.327-10.734 103.59-4.1443 93.574 17.362 199.39 82.597 243.06 144.85 26.203 37.353 38.435 79.472 33.208 116.42-9.3284 50.369-52.038 96.408-132 118.29-79.963 21.88-143.85-79.265-133.19-181.85 8.437-79.344 59.829-156.96 176.03-184.1 135.73-31.301 318.9-68.509 416.02-102.26 39.222-12.895 66.665-23.598 74.091-30.811 47.126-39.676-26.079-113.1-7.7879-144.96 4.2426-6.1173 11.323-10.914 22.186-14.099 149.27-24.94 130.58-191.74 138.01-197.54m-1370.7 84.066c122.39 38.292 144.26 191.88 143.76 305.5-0.64502 23.686 2.528 43.316 8.8721 59.34 38.065 96.145 179.94 75.431 288.17 32.664 30.89-11.871 67.568-13.21 105.56-7.2845 95.259 15.406 201.41 79.557 243.26 142.3 25.108 37.645 35.72 80.798 28.552 119.7-11.129 52.611-55.429 100.91-137.75 124.26-82.324 23.351-147.73-80.112-136.84-185.33 8.4644-80.518 60.527-160.33 179.36-188.38 138.35-32.388 325.59-71.516 427.18-103.83 40.887-12.524 69.397-22.865 77.127-29.691 48.791-39.062-27.812-113.62-9.3441-146.19 3.8739-5.9667 10.586-10.656 21.134-13.749 149.28-24.371 122.46-198 127.41-201.87m-1361.1 89.841c125.99 39.418 147.31 195.04 142.41 312.22-1.2904 24.413 1.2846 44.707 7.0529 61.359 34.61 99.911 179.01 75.2 289.22 28.007 31.4-13.276 68.809-15.686 107.53-10.425 96.944 13.449 203.43 76.516 243.45 139.74 24.012 37.937 33.005 82.124 23.896 122.99-12.931 54.852-58.821 105.41-143.51 130.24-84.686 24.821-151.6-80.959-140.48-188.81 8.4918-81.691 61.225-163.7 182.69-192.66 140.98-33.474 332.27-74.522 438.34-105.4 42.551-12.152 72.129-22.132 80.163-28.571 50.456-38.449-29.544-114.14-10.9-147.42 3.5054-5.8161 9.8495-10.399 20.081-13.399 149.29-23.802 114.34-204.25 116.81-206.19m-1351.4 95.615c129.59 40.545 150.35 198.2 141.06 318.93-1.9357 25.141 0.0411 46.098 5.2337 63.377 31.156 103.68 178.08 74.969 290.28 23.351 31.91-14.681 70.05-18.162 109.5-13.565 98.629 11.493 205.46 73.476 243.65 137.19 22.917 38.229 30.289 83.45 19.241 126.27-14.732 57.093-62.212 109.92-149.26 136.21-87.048 26.291-155.48-81.806-144.12-192.29 8.5193-82.865 61.922-167.07 186.02-196.94 143.61-34.561 338.96-77.528 449.5-106.98 44.215-11.781 74.861-21.399 83.199-27.452 52.12-37.836-31.277-114.66-12.456-148.66 3.1367-5.6655 9.1128-10.141 19.029-13.048 149.3-23.233 106.21-210.51 106.21-210.51" fill="none" stroke="url(#linearGradient3595-6)" stroke-width=".99221px"/>
 <path d="m1443.6 104.37v737.08h-1535.6l1.1e-5 -740.02 769.33 565.65z" fill="#2a2e32" stop-color="#000000" style="-inkscape-stroke:none;font-variation-settings:normal"/>
 <g transform="matrix(5.4475 0 0 5.4475 -307.08 295)" opacity=".02" stroke-width=".6884">
  <g transform="translate(0 77.637)" opacity=".075" stroke-width=".6884">
   <path d="m-21.655-173.61 202.37 148.61 202.37-148.61v16.181l-202.37 148.61-202.37-148.61z" fill="url(#linearGradient21995-7)" stop-color="#000000" style="-inkscape-stroke:none;font-variation-settings:normal"/>
   <path d="m-21.655-193.8 202.37 148.61 202.37-148.61v22.391l-202.37 148.61-202.37-148.61z" fill="url(#linearGradient21997-5)"/>
   <path d="m-21.655-157.94 202.37 148.61 202.37-148.61v1.7412l-202.37 148.61-202.37-148.61z" fill="url(#linearGradient21999-5)" stop-color="#000000" style="-inkscape-stroke:none;font-variation-settings:normal;paint-order:stroke fill markers"/>
  </g>
  <path d="m-21.656-22.398v20.919l191.38 140.54 10.981 23.178 10.981-23.178 191.38-140.54v-20.919l-202.37 148.61z" fill="url(#linearGradient22001-2)" stop-color="#000000" style="-inkscape-stroke:none;font-variation-settings:normal"/>
  <path d="m191.22 138.75-10.513 23.491 202.37-148.61v-15.771z" fill="url(#linearGradient22003-9)"/>
  <path d="m-21.656-2.1353v15.771l202.37 148.61-10.513-23.491z" fill="url(#linearGradient22005-1)"/>
  <path d="m-21.656-2.1353v1.3126l190.92 140.2 11.449 22.866 11.449-22.866 190.92-140.2v-1.3126l-191.85 140.89-10.513 21.102-10.513-21.102-191.54-140.66z" color="#000000" fill="url(#linearGradient22007-2)" stroke-linecap="square" stroke-width=".18214" style="-inkscape-stroke:none"/>
  <path d="m-21.655-41.581 202.37 148.61 202.37-148.61v21.473l-202.37 148.61-202.37-148.61z" fill="url(#linearGradient22009-0)" stop-color="#000000" style="-inkscape-stroke:none;font-variation-settings:normal"/>
  <path d="m-21.655-23.098 202.37 148.61 202.37-148.61v2.9889l-202.37 148.61-202.37-148.61z" fill="url(#linearGradient22011-9)" stop-color="#000000" style="-inkscape-stroke:none;font-variation-settings:normal;paint-order:stroke fill markers"/>
  <path d="m-21.655-62.914 202.37 148.61 202.37-148.61v22.391l-202.37 148.61-202.37-148.61z" fill="url(#linearGradient22013-6)"/>
  <path d="m-21.655-64.05 202.37 148.61 202.37-148.61v1.7412l-202.37 148.61-202.37-148.61z" fill="url(#linearGradient22015-0)" stop-color="#000000" style="-inkscape-stroke:none;font-variation-settings:normal;paint-order:stroke fill markers"/>
  <path d="m191.22 138.75-10.513 23.491 202.37-148.61v-15.771z" fill="url(#linearGradient22017-2)"/>
  <path d="m170.2 138.75 10.513 23.491-202.37-148.61-2e-6 -15.771z" fill="url(#linearGradient22019-6)"/>
 </g>
 <g transform="matrix(3.7501 0 0 3.7501 -.33075 350.67)" opacity=".02">
  <path d="m-21.655-173.61 202.37 148.61 202.37-148.61v16.181l-202.37 148.61-202.37-148.61z" fill="url(#linearGradient21995-7)" stop-color="#000000" style="-inkscape-stroke:none;font-variation-settings:normal"/>
  <path d="m-21.655-193.8 202.37 148.61 202.37-148.61v22.391l-202.37 148.61-202.37-148.61z" fill="url(#linearGradient21997-5)"/>
  <path d="m-21.655-157.94 202.37 148.61 202.37-148.61v1.7412l-202.37 148.61-202.37-148.61z" fill="url(#linearGradient21999-5)" stop-color="#000000" style="-inkscape-stroke:none;font-variation-settings:normal;paint-order:stroke fill markers"/>
 </g>
 <path d="m716.77 579.86-39.425 88.094 758.89-557.29v-59.141z" fill="url(#linearGradient24593-1)"/>
 <path d="m-81.541 51.516v59.141l758.89 557.29-39.425-88.094z" fill="url(#linearGradient78325-8)"/>
 <path d="m-81.541 51.516v4.9223l715.95 525.76 42.936 85.749 42.936-85.749 715.95-525.76v-4.9223l-719.47 528.34-39.425 79.134-39.425-79.134-718.29-527.48z" color="#000000" fill="url(#linearGradient87990-7)" stroke-linecap="square" stroke-width=".99221" style="-inkscape-stroke:none"/>
 <path d="m-81.54-96.411 758.89 557.29 758.89-557.29v80.525l-758.89 557.29-758.89-557.29z" fill="url(#linearGradient25753-9)" stop-color="#000000" style="-inkscape-stroke:none;font-variation-settings:normal"/>
 <path d="m-81.54-27.095 758.89 557.29 758.89-557.29v11.209l-758.89 557.29-758.89-557.29z" fill="url(#linearGradient25219-2)" stop-color="#000000" style="-inkscape-stroke:none;font-variation-settings:normal;paint-order:stroke fill markers"/>
 <path d="m716.77 579.86-39.425 88.094 758.89-557.29v-59.141z" fill="url(#linearGradient14910-0)"/>
 <path d="m637.93 579.86 39.425 88.094-758.89-557.29-8e-6 -59.141z" fill="url(#linearGradient15720-2)"/>
 <path d="m416.5 422.17v11.773l127.44 93.59v-11.773zm0 17.726v18.612l127.44 93.59v-18.612zm127.44 117.91-127.44-93.59v7.9377l127.44 93.59z" fill="url(#linearGradient35006-37)"/>
 <path d="m1295.8 165.14v11.773l-127.44 93.59v-11.773zm0 17.726v18.612l-127.44 93.59v-18.612zm-127.44 117.91 127.44-93.59v7.9377l-127.44 93.59z" fill="url(#linearGradient35006-3-5)"/>
 <path d="m677.35 464.85 759.54-555.22-0.6453-6.0428z" fill="#d0b2e4"/>
 <path d="m677.35 464.85-759.54-555.22 0.64532-6.0428z" fill="#b2e3e4"/>
 <path d="m-81.54-176.41 758.89 557.29 758.89-557.29v83.968l-758.89 557.29-758.89-557.29z" fill="url(#linearGradient26562-9)"/>
 <g transform="matrix(3.0525 0 0 3.0548 166.12 100.53)" fill="none" stop-color="#000000" stroke="#235dc6" stroke-width=".64985" style="-inkscape-stroke:none;font-variation-settings:normal;paint-order:stroke fill markers">
  <path d="m116.37 53.187v6.7346" stop-color="#000000" style="-inkscape-stroke:none;font-variation-settings:normal;paint-order:stroke fill markers"/>
  <path d="m122.49 57.678v8.7187" stop-color="#000000" style="-inkscape-stroke:none;font-variation-settings:normal;paint-order:stroke fill markers"/>
  <path d="m133.56 65.81v8.379" stop-color="#000000" style="-inkscape-stroke:none;font-variation-settings:normal;paint-order:stroke fill markers"/>
  <path d="m128.48 62.077v4.1961" stop-color="#000000" style="-inkscape-stroke:none;font-variation-settings:normal;paint-order:stroke fill markers"/>
  <circle cx="116.42" cy="61.028" r="1.21" stop-color="#000000" style="-inkscape-stroke:none;font-variation-settings:normal;paint-order:stroke fill markers"/>
  <circle cx="122.45" cy="66.901" r=".64061" stop-color="#000000" style="-inkscape-stroke:none;font-variation-settings:normal;paint-order:stroke fill markers"/>
  <circle cx="128.5" cy="67.357" r="1.21" stop-color="#000000" style="-inkscape-stroke:none;font-variation-settings:normal;paint-order:stroke fill markers"/>
  <circle cx="133.55" cy="75.222" r="1.21" stop-color="#000000" style="-inkscape-stroke:none;font-variation-settings:normal;paint-order:stroke fill markers"/>
 </g>
 <path d="m105.19-14.461v59.141l32.658 23.982v-59.141zm42.316 31.074v59.141l65.689 48.24v-59.143zm85.731 62.957 0.54842 59.544 41.2 30.255 0.0717-59.089zm56.971 41.838-0.77129 58.575 12.438 9.1334v-59.143z" fill="url(#linearGradient34063-2)" stop-color="#000000" style="-inkscape-stroke:none;font-variation-settings:normal"/>
 <path d="m925.04 450.41v27.39l-32.658 23.982v-27.39zm-42.316 31.074v27.39l-65.689 48.241v-27.392zm-85.731 62.957-0.54842 27.794-41.2 30.255-0.0716-27.338zm-56.971 41.838 0.77132 26.825-12.438 9.1334v-27.392z" fill="url(#linearGradient53858-2)" stop-color="#000000" style="-inkscape-stroke:none;font-variation-settings:normal"/>
 <g transform="matrix(3.7501 0 0 3.7501 -.33075 146.03)" opacity=".02">
  <path d="m-21.655-173.61 202.37 148.61 202.37-148.61v16.181l-202.37 148.61-202.37-148.61z" fill="url(#linearGradient21995-7)" stop-color="#000000" style="-inkscape-stroke:none;font-variation-settings:normal"/>
  <path d="m-21.655-193.8 202.37 148.61 202.37-148.61v22.391l-202.37 148.61-202.37-148.61z" fill="url(#linearGradient21997-5)"/>
  <path d="m-21.655-157.94 202.37 148.61 202.37-148.61v1.7412l-202.37 148.61-202.37-148.61z" fill="url(#linearGradient21999-5)" stop-color="#000000" style="-inkscape-stroke:none;font-variation-settings:normal;paint-order:stroke fill markers"/>
 </g>
 <path d="m378.66 172.49v65.279l94.082 69.09v-65.281z" fill="#7777e1" fill-opacity=".095564"/>
 <path d="m445.27 314.89v27.648l232.08 171.04v-27.648zm0 33.601v10.674l232.08 171.04v-10.674z" fill="url(#linearGradient35392-8)"/>
 <path d="m-0.46191 134.81v15.951l123.01 90.336v-15.953z" fill="url(#linearGradient37083-9)"/>
 <path d="m330.63 166.38v39.085l301.42 221.35v-39.09z" fill="url(#linearGradient37280-7)"/>
 <path d="m92.199 198.01v39.086l83.681 61.453v-13.29zm99.578 98.923v13.29l32.739 24.042v-13.29zm40.659 29.857v13.29l34.381 25.249v-13.292zm58.494 42.956v13.29l43.279 31.784v-13.292zm56.114 41.208v13.292l26.58 19.519v-13.292zm37.15 27.28v13.292l9.428 6.9241v-13.292z" fill="url(#linearGradient37849-3)"/>
 <g transform="matrix(3.0525 0 0 3.0548 262.22 172.59)" fill="none" stroke="#235dc6" stroke-width=".64985">
  <path d="m116.37 53.187v6.7346" stop-color="#000000" style="font-variation-settings:normal"/>
  <path d="m122.49 57.678v8.7187"/>
  <path d="m128.48 62.077v4.1961"/>
  <circle cx="116.42" cy="61.028" r="1.21" stop-color="#000000" style="font-variation-settings:normal;paint-order:stroke fill markers"/>
  <circle cx="122.45" cy="66.901" r=".64061" stop-color="#000000" style="font-variation-settings:normal;paint-order:stroke fill markers"/>
  <circle cx="128.5" cy="67.357" r="1.21" stop-color="#000000" style="font-variation-settings:normal;paint-order:stroke fill markers"/>
  <path d="m110.31 48.673v8.379"/>
  <circle cx="110.3" cy="58.084" r="1.21" stop-color="#000000" style="font-variation-settings:normal;paint-order:stroke fill markers"/>
 </g>
 <path d="m-81.54-180.67 758.89 557.29 758.89-557.29v6.5296l-758.89 557.29-758.89-557.29z" fill="url(#linearGradient69576-6)" stop-color="#000000" style="-inkscape-stroke:none;font-variation-settings:normal;paint-order:stroke fill markers"/>
 <path d="m926.2 249.37v59.141l-32.658 23.982v-59.141zm-42.316 31.074v59.141l-65.689 48.24v-59.143zm-85.731 62.957-0.54842 59.544-41.2 30.255-0.0716-59.089zm-56.971 41.838 0.77132 58.575-12.438 9.1334v-59.143z" fill="url(#linearGradient53643-1)" stop-color="#000000" style="-inkscape-stroke:none;font-variation-settings:normal"/>
 <path d="m1253.8-53.52v39.086l-83.681 61.453v-13.29zm-99.578 98.923v13.29l-32.739 24.042v-13.29zm-40.659 29.857v13.29l-34.38 25.249v-13.292zm-58.494 42.956v13.29l-43.279 31.784v-13.292zm-56.114 41.208v13.292l-26.58 19.519v-13.292zm-37.15 27.28v13.292l-9.428 6.9241v-13.292z" fill="url(#linearGradient53697-2)"/>
 <path d="m1188.8 55.979v39.085l-301.42 221.35v-39.09z" fill="url(#linearGradient53804-9)"/>
 <path d="m909.43 314.89v27.648l-232.08 171.04v-27.648zm0 33.601v10.674l-232.08 171.04v-10.674z" fill="url(#linearGradient5163-3)"/>
</svg>
