<?xml version="1.0" encoding="UTF-8"?>
<!-- Created with Inkscape (http://www.inkscape.org/) -->
<svg width="640" height="480" version="1.1" viewBox="0 0 169.33 127" xmlns="http://www.w3.org/2000/svg" xmlns:xlink="http://www.w3.org/1999/xlink">
 <defs>
  <linearGradient id="linearGradient16905">
   <stop stop-color="#1b668f" offset="0"/>
   <stop stop-color="#121c94" offset=".5"/>
   <stop stop-color="#382279" offset="1"/>
  </linearGradient>
  <linearGradient id="linearGradient78639">
   <stop stop-color="#2936ea" offset="0"/>
   <stop stop-color="#164593" offset="1"/>
  </linearGradient>
  <linearGradient id="linearGradient75480-3" x1="-21.655" x2="1378.4" y1="110.14" y2="110.14" gradientTransform="matrix(.13967 0 0 .13967 -10.732 20.726)" gradientUnits="userSpaceOnUse" xlink:href="#linearGradient16905"/>
  <linearGradient id="linearGradient3595-6" x1="-21.656" x2="383.08" y1="81.035" y2="81.035" gradientTransform="matrix(.5279 0 0 .5279 -10.732 14.933)" gradientUnits="userSpaceOnUse">
   <stop stop-color="#51d677" stop-opacity=".47843" offset="0"/>
   <stop stop-color="#eded84" stop-opacity=".32941" offset=".26488"/>
   <stop stop-color="#a9ebf6" stop-opacity=".19951" offset=".49538"/>
   <stop stop-color="#e9bf9d" stop-opacity=".35686" offset=".74191"/>
   <stop stop-color="#5138aa" stop-opacity=".52157" offset="1"/>
  </linearGradient>
  <linearGradient id="linearGradient21995-7" x1="-21.655" x2="383.08" y1="92.147" y2="92.147" gradientTransform="translate(0 -155.84)" gradientUnits="userSpaceOnUse">
   <stop stop-color="#445feb" offset="0"/>
   <stop stop-color="#252fb5" offset=".5"/>
   <stop stop-color="#9b53c1" offset="1"/>
  </linearGradient>
  <linearGradient id="linearGradient21997-5" x1="-21.655" x2="383.08" y1="99.556" y2="99.556" gradientTransform="translate(0 -189.92)" gradientUnits="userSpaceOnUse">
   <stop stop-color="#3410ab" stop-opacity=".67526" offset="0"/>
   <stop stop-color="#169bd6" offset=".5"/>
   <stop stop-color="#0940a2" stop-opacity=".56984" offset="1"/>
  </linearGradient>
  <linearGradient id="linearGradient21999-5" x1="-24.528" x2="386.16" y1="-24.045" y2="-24.045" gradientTransform="translate(0 -138.44)" gradientUnits="userSpaceOnUse">
   <stop stop-color="#6a5e19" offset="0"/>
   <stop stop-color="#85751e" stop-opacity=".98824" offset=".14669"/>
   <stop stop-color="#8c7b20" stop-opacity=".96863" offset=".30531"/>
   <stop stop-color="#bda62c" stop-opacity=".95686" offset=".51079"/>
   <stop stop-color="#82721e" stop-opacity=".94902" offset=".6231"/>
   <stop stop-color="#968623" stop-opacity=".99608" offset=".83541"/>
   <stop stop-color="#4e4412" stop-opacity=".92157" offset="1"/>
  </linearGradient>
  <linearGradient id="linearGradient22001-2" x1="-21.655" x2="1378.4" y1="110.14" y2="110.14" gradientTransform="matrix(.26458 0 0 .26458 0 -4.9003)" gradientUnits="userSpaceOnUse" xlink:href="#linearGradient16905"/>
  <linearGradient id="linearGradient22003-9" x1="181.04" x2="361.42" y1="110.14" y2="110.14" gradientTransform="translate(0 -18.521)" gradientUnits="userSpaceOnUse" xlink:href="#linearGradient78639"/>
  <linearGradient id="linearGradient22005-1" x1="-21.655" x2="183.99" y1="110.14" y2="110.14" gradientTransform="translate(0 -18.521)" gradientUnits="userSpaceOnUse">
   <stop stop-color="#2f38a6" offset="0"/>
   <stop stop-color="#3d33eb" offset="1"/>
  </linearGradient>
  <linearGradient id="linearGradient22007-2" x1="-82.44" x2="1448.4" y1="345.52" y2="345.52" gradientTransform="scale(.26458)" gradientUnits="userSpaceOnUse" xlink:href="#linearGradient1294-7"/>
  <linearGradient id="linearGradient1294-7">
   <stop stop-color="#6a5e19" offset="0"/>
   <stop stop-color="#d1b832" stop-opacity=".98824" offset=".14669"/>
   <stop stop-color="#8c7b20" stop-opacity=".96863" offset=".30531"/>
   <stop stop-color="#dbc865" stop-opacity=".95686" offset=".51079"/>
   <stop stop-color="#82721e" stop-opacity=".94902" offset=".6231"/>
   <stop stop-color="#968623" stop-opacity=".99608" offset=".83541"/>
   <stop stop-color="#cfb530" stop-opacity=".92157" offset="1"/>
  </linearGradient>
  <linearGradient id="linearGradient22009-0" x1="-21.655" x2="383.08" y1="92.147" y2="92.147" gradientTransform="translate(0 -18.521)" gradientUnits="userSpaceOnUse">
   <stop stop-color="#445feb" offset="0"/>
   <stop stop-color="#4a55ed" offset=".5"/>
   <stop stop-color="#9b53c1" offset="1"/>
  </linearGradient>
  <linearGradient id="linearGradient22011-9" x1="-24.528" x2="386.16" y1="-24.045" y2="-24.045" gradientTransform="translate(0 -2.3527)" gradientUnits="userSpaceOnUse" xlink:href="#linearGradient1056-3"/>
  <linearGradient id="linearGradient1056-3">
   <stop stop-color="#6a5e19" offset="0"/>
   <stop stop-color="#85751e" stop-opacity=".98824" offset=".14669"/>
   <stop stop-color="#a38f26" stop-opacity=".96863" offset=".30531"/>
   <stop stop-color="#f5d737" stop-opacity=".95686" offset=".51079"/>
   <stop stop-color="#968623" stop-opacity=".99608" offset=".83541"/>
   <stop stop-color="#4e4412" stop-opacity=".92157" offset="1"/>
  </linearGradient>
  <linearGradient id="linearGradient22013-6" x1="-21.655" x2="383.08" y1="99.556" y2="99.556" gradientTransform="translate(0 -59.037)" gradientUnits="userSpaceOnUse">
   <stop stop-color="#3410ab" stop-opacity=".67526" offset="0"/>
   <stop stop-color="#2936e9" offset=".5"/>
   <stop stop-color="#0940a2" stop-opacity=".56984" offset="1"/>
  </linearGradient>
  <linearGradient id="linearGradient22015-0" x1="-24.528" x2="386.16" y1="-24.045" y2="-24.045" gradientTransform="translate(0 -44.553)" gradientUnits="userSpaceOnUse" xlink:href="#linearGradient17531-6"/>
  <linearGradient id="linearGradient17531-6">
   <stop stop-color="#6a5e19" offset="0"/>
   <stop stop-color="#85751e" stop-opacity=".98824" offset=".14669"/>
   <stop stop-color="#8c7b20" stop-opacity=".96863" offset=".30531"/>
   <stop stop-color="#d1b637" stop-opacity=".95686" offset=".51079"/>
   <stop stop-color="#82721e" stop-opacity=".94902" offset=".6231"/>
   <stop stop-color="#968623" stop-opacity=".99608" offset=".83541"/>
   <stop stop-color="#4e4412" stop-opacity=".92157" offset="1"/>
  </linearGradient>
  <linearGradient id="linearGradient22017-2" x1="253.56" x2="239.42" y1="147.01" y2="130.45" gradientTransform="translate(0 -18.521)" gradientUnits="userSpaceOnUse">
   <stop stop-color="#28ead8" stop-opacity=".58819" offset="0"/>
   <stop stop-color="#164593" stop-opacity=".023098" offset="1"/>
  </linearGradient>
  <linearGradient id="linearGradient22019-6" x1="251.13" x2="241.25" y1="138.13" y2="126.04" gradientTransform="matrix(-1 0 0 1 361.42 -18.521)" gradientUnits="userSpaceOnUse">
   <stop stop-color="#dc29ea" stop-opacity=".68736" offset="0"/>
   <stop stop-color="#164593" stop-opacity=".023098" offset="1"/>
  </linearGradient>
  <linearGradient id="linearGradient24593-1" x1="181.04" x2="361.42" y1="110.14" y2="110.14" gradientTransform="matrix(.5279 0 0 .5279 -10.732 13.536)" gradientUnits="userSpaceOnUse" xlink:href="#linearGradient78639"/>
  <linearGradient id="linearGradient78325-8" x1="-21.655" x2="183.99" y1="110.14" y2="110.14" gradientTransform="matrix(.5279 0 0 .5279 -10.732 13.536)" gradientUnits="userSpaceOnUse">
   <stop stop-color="#2e3476" offset="0"/>
   <stop stop-color="#3d33eb" offset="1"/>
  </linearGradient>
  <linearGradient id="linearGradient87990-7" x1="-82.44" x2="1448.4" y1="345.52" y2="345.52" gradientTransform="matrix(.13967 0 0 .13967 -10.732 23.313)" gradientUnits="userSpaceOnUse" xlink:href="#linearGradient1294-7"/>
  <linearGradient id="linearGradient25753-9" x1="-21.655" x2="383.08" y1="92.147" y2="92.147" gradientTransform="matrix(.5279 0 0 .5279 -10.732 13.536)" gradientUnits="userSpaceOnUse">
   <stop stop-color="#4465eb" offset="0"/>
   <stop stop-color="#46a7e1" offset=".5"/>
   <stop stop-color="#6b50c1" offset="1"/>
  </linearGradient>
  <linearGradient id="linearGradient25219-2" x1="-24.528" x2="386.16" y1="-24.045" y2="-24.045" gradientTransform="matrix(.5279 0 0 .5279 -10.732 22.071)" gradientUnits="userSpaceOnUse" xlink:href="#linearGradient1056-3"/>
  <linearGradient id="linearGradient14910-0" x1="253.56" x2="239.42" y1="147.01" y2="130.45" gradientTransform="matrix(.5279 0 0 .5279 -10.732 13.536)" gradientUnits="userSpaceOnUse">
   <stop stop-color="#e06fea" stop-opacity=".39011" offset="0"/>
   <stop stop-color="#164593" stop-opacity=".023098" offset="1"/>
  </linearGradient>
  <linearGradient id="linearGradient15720-2" x1="251.13" x2="241.25" y1="138.13" y2="126.04" gradientTransform="matrix(-.5279 0 0 .5279 180.06 13.536)" gradientUnits="userSpaceOnUse">
   <stop stop-color="#dc29ea" stop-opacity=".18321" offset="0"/>
   <stop stop-color="#164593" stop-opacity=".023098" offset="1"/>
  </linearGradient>
  <linearGradient id="linearGradient35006-37" x1="542.26" x2="409.86" y1="531.52" y2="437.69" gradientTransform="matrix(.13967 0 0 .13967 -10.732 14.933)" gradientUnits="userSpaceOnUse">
   <stop stop-color="#9e80dc" stop-opacity=".08" offset="0"/>
   <stop stop-color="#9e80dc" stop-opacity="0" offset="1"/>
  </linearGradient>
  <linearGradient id="linearGradient35006-3-5" x1="542.26" x2="409.86" y1="531.52" y2="437.69" gradientTransform="matrix(-.13967 0 0 .13967 230.41 -21.25)" gradientUnits="userSpaceOnUse">
   <stop stop-color="#9e80dc" stop-opacity=".12323" offset="0"/>
   <stop stop-color="#9e80dc" stop-opacity="0" offset="1"/>
  </linearGradient>
  <linearGradient id="linearGradient26562-9" x1="-21.655" x2="383.08" y1="99.556" y2="99.556" gradientTransform="matrix(.5279 0 0 .5279 -10.732 -7.8526)" gradientUnits="userSpaceOnUse">
   <stop stop-color="#0031b6" offset="0"/>
   <stop stop-color="#255cc7" offset=".5"/>
   <stop stop-color="#3d3dd3" offset="1"/>
  </linearGradient>
  <linearGradient id="linearGradient34063-2" x1="79.735" x2="21.187" y1="42.158" y2="1.0037" gradientTransform="matrix(.5279 0 0 .5279 -10.732 14.933)" gradientUnits="userSpaceOnUse">
   <stop stop-color="#9e7fdc" stop-opacity=".1" offset="0"/>
   <stop stop-color="#9e7fdc" stop-opacity="0" offset="1"/>
  </linearGradient>
  <linearGradient id="linearGradient53858-2" x1="79.735" x2="21.187" y1="42.158" y2="1.0037" gradientTransform="matrix(-.5279 0 0 .5279 134.39 75.903)" gradientUnits="userSpaceOnUse">
   <stop stop-color="#7fdcdb" stop-opacity=".07" offset="0"/>
   <stop stop-color="#9e7fdc" stop-opacity="0" offset="1"/>
  </linearGradient>
  <linearGradient id="linearGradient35392-8" x1="654.09" x2="409.86" y1="615.36" y2="437.69" gradientTransform="matrix(.13967 0 0 .13967 -6.6815 -.16999)" gradientUnits="userSpaceOnUse">
   <stop stop-color="#b1cdef" stop-opacity=".26275" offset="0"/>
   <stop stop-color="#9e80dc" stop-opacity="0" offset="1"/>
  </linearGradient>
  <linearGradient id="linearGradient37083-9" x1="32.688" x2="-4.3074" y1="61.359" y2="35.59" gradientTransform="matrix(.5279 0 0 .5279 -10.732 14.933)" gradientUnits="userSpaceOnUse">
   <stop stop-color="#a9e3ed" stop-opacity=".05" offset="0"/>
   <stop stop-color="#a9e3ed" stop-opacity="0" offset="1"/>
  </linearGradient>
  <linearGradient id="linearGradient37280-7" x1="32.688" x2="-4.3074" y1="61.359" y2="35.59" gradientTransform="matrix(1.2935 0 0 1.2935 35.902 -8.1506)" gradientUnits="userSpaceOnUse">
   <stop stop-color="#60cbde" stop-opacity=".059582" offset="0"/>
   <stop stop-color="#a9e3ed" stop-opacity="0" offset="1"/>
  </linearGradient>
  <linearGradient id="linearGradient37849-3" x1="32.688" x2="-4.3074" y1="61.359" y2="35.59" gradientTransform="matrix(1.2935 0 0 1.2935 2.3386 -3.6974)" gradientUnits="userSpaceOnUse">
   <stop stop-color="#84b0b8" stop-opacity=".05" offset="0"/>
   <stop stop-color="#a9e3ed" stop-opacity="0" offset="1"/>
  </linearGradient>
  <linearGradient id="linearGradient69576-6" x1="-24.528" x2="386.16" y1="-24.045" y2="-24.045" gradientTransform="matrix(.5279 0 0 .5279 -10.732 -.20648)" gradientUnits="userSpaceOnUse" xlink:href="#linearGradient17531-6"/>
  <linearGradient id="linearGradient53643-1" x1="79.735" x2="21.187" y1="42.158" y2="1.0037" gradientTransform="matrix(-.5279 0 0 .5279 134.55 52.072)" gradientUnits="userSpaceOnUse">
   <stop stop-color="#dc7fdc" stop-opacity=".08" offset="0"/>
   <stop stop-color="#9e7fdc" stop-opacity="0" offset="1"/>
  </linearGradient>
  <linearGradient id="linearGradient53697-2" x1="32.688" x2="-4.3074" y1="61.359" y2="35.59" gradientTransform="matrix(-1.2935 0 0 1.2935 165.76 -39.105)" gradientUnits="userSpaceOnUse">
   <stop stop-color="#a9e3ed" stop-opacity=".06" offset="0"/>
   <stop stop-color="#a9e3ed" stop-opacity="0" offset="1"/>
  </linearGradient>
  <linearGradient id="linearGradient53804-9" x1="32.688" x2="-4.3074" y1="61.359" y2="35.59" gradientTransform="matrix(-1.2935 0 0 1.2935 156.62 -23.691)" gradientUnits="userSpaceOnUse">
   <stop stop-color="#dd83f2" stop-opacity=".12549" offset="0"/>
   <stop stop-color="#a9e3ed" stop-opacity="0" offset="1"/>
  </linearGradient>
  <linearGradient id="linearGradient5163-3" x1="654.09" x2="409.86" y1="615.36" y2="437.69" gradientTransform="matrix(-.13967 0 0 .13967 176.01 -.16999)" gradientUnits="userSpaceOnUse">
   <stop stop-color="#b1cdef" stop-opacity=".14678" offset="0"/>
   <stop stop-color="#9e80dc" stop-opacity="0" offset="1"/>
  </linearGradient>
 </defs>
 <rect x="8.8818e-16" width="169.33" height="127" fill="#1b1e20" stop-color="#000000" style="-inkscape-stroke:none;font-variation-settings:normal;paint-order:stroke fill markers"/>
 <path d="m-22.164 11.489v11.043l101.03 74.193 5.797 12.236 5.797-12.236 101.03-74.193v-11.043l-106.83 78.45z" fill="url(#linearGradient75480-3)" stop-color="#000000" style="-inkscape-stroke:none;font-variation-settings:normal"/>
 <path d="m-32.563 23.295s5.7209 11.898 26.706 10.863c2.9978-0.14797 6.3072-0.55991 9.9559-1.3082 21.892-4.4898 29.791 11.724 35.511 26.884 1.9067 5.0536 3.5714 9.9904 5.4317 14.004 5.3448 11.533 18.665 25.75 33.292 32.254 8.7767 3.9019 18.024 5.0266 26.303 1.1279 7.0535-3.3218 8.4287-7.3498 8.143-11.1s-2.2323-7.2225-1.8224-9.4331c1.0602-5.7181 5.181-6.428 9.3177-6.0438 6.8944 0.64039 13.833 4.3201 6.7189-7.0809-2.2097-3.5415-3.3072-6.7271-3.6738-9.5383-1.0999-8.4334 4.3776-13.496 6.1329-14.682 2.3096-1.5607 5.0159-2.7333 8.0116-3.6122 20.97-6.153 56.122 2.0793 68.675-7.7265m-237.94-14.99c0.50672 0.15854 6.1499 12.343 26.516 11.808 2.907-0.04555 6.1322-0.3641 9.6998-1.024 21.406-3.9597 29.659 11.691 35.659 26.229 1.9786 4.8559 3.7462 9.6418 5.709 13.562 5.582 11.257 18.949 25.322 33.32 31.894 8.6225 3.943 17.642 5.2133 25.647 1.5904 6.8-3.0063 7.9513-6.7158 7.3332-10.259-0.61814-3.5432-2.7783-7.3418-2.3353-9.923 1.0641-5.8833 5.2793-6.9028 9.7862-6.646 7.2644 0.48746 14.774 3.897 8.2899-7.3026-1.9755-3.4892-2.9226-6.624-3.2464-9.3807-0.86553-8.3471 4.1337-13.569 5.9138-14.855 2.2577-1.5395 4.9122-2.697 7.8635-3.5629 20.971-6.0729 54.978 1.1984 67.182-8.335m-236.58-14.178c1.0134 0.31708 6.5789 12.787 26.325 12.753 2.8162 0.05687 5.9571-0.16829 9.4437-0.73988 20.92-3.4295 29.528 11.659 35.808 25.573 2.0504 4.6581 3.9209 9.2933 5.9863 13.12 5.8192 10.982 19.234 24.894 33.348 31.535 8.4683 3.9841 17.26 5.4 24.992 2.0528 6.5464-2.6908 7.4739-6.0818 6.5233-9.4181-0.95059-3.3362-3.3242-7.461-2.8483-10.413 1.068-6.0484 5.3775-7.3775 10.255-7.2482 7.6345 0.33453 15.715 3.4738 9.861-7.5242-1.7412-3.4369-2.538-6.5208-2.8191-9.2231-0.63117-8.2608 3.8898-13.643 5.6948-15.029 2.2058-1.5183 4.8085-2.6607 7.7154-3.5136 20.973-5.9928 53.835 0.31749 65.69-8.9436m-235.22-13.365c1.5201 0.47562 7.0079 13.232 26.135 13.699 2.7253 0.15928 5.7821 0.02752 9.1876-0.45572 20.433-2.8994 29.397 11.626 35.957 24.918 2.1222 4.4603 4.0956 8.9448 6.2636 12.678 6.0564 10.706 19.519 24.466 33.376 31.175 8.3141 4.0252 16.878 5.5867 24.336 2.5152 6.2929-2.3752 6.9965-5.4479 5.7135-8.5771s-3.8702-7.5803-3.3612-10.903c1.0718-6.2136 5.4757-7.8522 10.723-7.8504 8.0046 0.1816 16.656 3.0507 11.432-7.7458-1.5069-3.3846-2.1534-6.4176-2.3917-9.0655-0.39681-8.1745 3.6459-13.716 5.4757-15.202 2.154-1.4971 4.7048-2.6244 7.5672-3.4643 20.974-5.9128 52.691-0.56343 64.198-9.5521m-233.85-12.552c2.0269 0.63416 7.4369 13.676 25.945 14.644 2.6345 0.2617 5.607 0.22333 8.9315-0.17156 19.947-2.3693 29.266 11.594 36.105 24.263 2.194 4.2625 4.2703 8.5962 6.5409 12.236 6.2936 10.431 19.804 24.038 33.404 30.816 8.1599 4.0663 16.495 5.7734 23.681 2.9776 6.0394-2.0597 6.5191-4.8139 4.9036-7.7362s-4.4162-7.6996-3.8742-11.393c1.0757-6.3788 5.5739-8.327 11.192-8.4526 8.3746 0.02867 17.597 2.6275 13.003-7.9674-1.2726-3.3322-1.7688-6.3144-1.9643-8.9078-0.16246-8.0882 3.402-13.79 5.2566-15.376 2.1021-1.4759 4.6011-2.5882 7.4191-3.415 20.975-5.8327 51.547-1.4443 62.705-10.161m-232.49-11.739c2.5336 0.7927 7.8659 14.121 25.755 15.589 2.5436 0.36412 5.432 0.41913 8.6754 0.1126 19.461-1.8392 29.135 11.561 36.254 23.607 2.2658 4.0647 4.445 8.2477 6.8182 11.794 6.5308 10.156 20.089 23.61 33.432 30.456 8.0057 4.1074 16.113 5.9601 23.026 3.44 5.7858-1.7442 6.0417-4.1799 4.0938-6.8952s-4.9621-7.8188-4.3871-11.883c1.0796-6.544 5.6721-8.8017 11.661-9.0548 8.7446-0.12426 18.539 2.2043 14.574-8.1891-1.0384-3.2799-1.3842-6.2112-1.5369-8.7502 0.0719-8.0018 3.1581-13.863 5.0376-15.549 2.0502-1.4547 4.4974-2.5519 7.2709-3.3657 20.976-5.7526 50.404-2.3253 61.213-10.769m-231.13-10.926c3.0403 0.95124 8.2949 14.565 25.564 16.535 2.4528 0.46654 5.257 0.61494 8.4194 0.39677 18.974-1.3091 29.003 11.528 36.403 22.952 2.3376 3.8669 4.6197 7.8992 7.0955 11.352 6.768 9.8802 20.374 23.182 33.46 30.097 7.8516 4.1485 15.731 6.1467 22.37 3.9024 5.5323-1.4287 5.5643-3.546 3.284-6.0543-2.2804-2.5083-5.5081-7.9381-4.9-12.372 1.0834-6.7092 5.7704-9.2765 12.129-9.657 9.1147-0.27719 19.48 1.7812 16.145-8.4107-0.80409-3.2276-0.99963-6.108-1.1095-8.5926 0.30626-7.9155 2.9142-13.937 4.8185-15.723 1.9983-1.4335 4.3937-2.5156 7.1228-3.3163 20.978-5.6726 49.26-3.2062 59.721-11.378m-229.77-10.113c3.547 1.1098 8.7239 15.01 25.374 17.48 2.3619 0.56896 5.0819 0.81075 8.1633 0.68093 18.488-0.77893 28.872 11.496 36.551 22.296 2.4094 3.6692 4.7944 7.5507 7.3728 10.91 7.0052 9.6048 20.659 22.754 33.488 29.737 7.6974 4.1896 15.349 6.3334 21.715 4.3649 5.2787-1.1132 5.0869-2.912 2.4741-5.2133s-6.0541-8.0573-5.413-12.862c1.0873-6.8744 5.8686-9.7512 12.598-10.259 9.4847-0.43012 20.421 1.358 17.716-8.6323-0.56981-3.1753-0.61503-6.0048-0.68214-8.435 0.54061-7.8292 2.6703-14.01 4.5994-15.896 1.9464-1.4123 4.29-2.4794 6.9747-3.267 20.979-5.5925 48.117-4.0871 58.228-11.986m-228.4-9.3004c4.0537 1.2683 9.1529 15.454 25.184 18.426 2.2711 0.67138 4.9069 1.0066 7.9072 0.96509 18.002-0.24881 28.741 11.463 36.7 21.641 2.4812 3.4714 4.9691 7.2021 7.6501 10.468 7.2424 9.3294 20.944 22.327 33.516 29.378 7.5432 4.2307 14.966 6.5201 21.06 4.8273 5.0252-0.79763 4.6095-2.278 1.6643-4.3724-2.9452-2.0943-6.6001-8.1766-5.9259-13.352 1.0911-7.0396 5.9668-10.226 13.066-10.861 9.8548-0.58305 21.362 0.93488 19.287-8.8539-0.33554-3.123-0.23044-5.9016-0.25477-8.2774 0.77498-7.7429 2.4264-14.084 4.3804-16.07 1.8945-1.3911 4.1863-2.4431 6.8265-3.2177 20.98-5.5124 46.973-4.968 56.736-12.595m-227.04-8.4875c4.5604 1.4269 9.582 15.899 24.993 19.371 2.1803 0.7738 4.7318 1.2024 7.6511 1.2493 17.516 0.28131 28.61 11.431 36.849 20.985 2.5531 3.2736 5.1438 6.8536 7.9274 10.026 7.4796 9.054 21.229 21.899 33.544 29.018 7.389 4.2718 14.584 6.7068 20.404 5.2897 4.7717-0.48211 4.1321-1.644 0.85443-3.5314-3.2777-1.8874-7.146-8.2959-6.4388-13.842 1.095-7.2048 6.065-10.701 13.535-11.464 10.225-0.73598 22.303 0.51172 20.858-9.0756-0.10126-3.0707 0.15416-5.7984 0.17262-8.1198 1.0093-7.6566 2.1825-14.157 4.1613-16.243 1.8426-1.3699 4.0826-2.4068 6.6784-3.1684 20.982-5.4324 45.829-5.8489 55.244-13.203m-225.68-7.6746c5.0672 1.5854 10.011 16.343 24.803 20.316 2.0894 0.87621 4.5568 1.3982 7.395 1.5334 17.029 0.81143 28.479 11.398 36.997 20.33 2.6249 3.0758 5.3185 6.5051 8.2047 9.5838 7.7168 8.7786 21.514 21.471 33.572 28.659 7.2348 4.3129 14.202 6.8935 19.749 5.7521 4.5181-0.16659 3.6547-1.0101 0.0446-2.6905s-7.692-8.4151-6.9518-14.332c1.0989-7.37 6.1632-11.175 14.003-12.066 10.595-0.88891 23.244 0.08856 22.429-9.2972 0.13302-3.0184 0.53875-5.6953 0.60001-7.9622 1.2437-7.5703 1.9386-14.231 3.9422-16.417 1.7907-1.3487 3.9789-2.3706 6.5302-3.1191 20.983-5.3523 44.686-6.7298 53.751-13.812m-224.31-6.8618c5.5739 1.7439 10.44 16.788 24.613 21.262 1.9986 0.97863 4.3818 1.594 7.1389 1.8176 16.543 1.3416 28.348 11.366 37.146 19.674 2.6967 2.878 5.4932 6.1565 8.482 9.1418 7.954 8.5032 21.799 21.043 33.6 28.299 7.0806 4.354 13.82 7.0802 19.093 6.2146 4.2646 0.14894 3.1773-0.37611-0.76525-1.8495-3.9426-1.4734-8.238-8.5344-7.4647-14.822 1.1027-7.5351 6.2614-11.65 14.472-12.668 10.965-1.0418 24.186-0.3346 24-9.5188 0.36729-2.9661 0.92334-5.5921 1.0274-7.8046 1.478-7.484 1.6947-14.304 3.7232-16.59 1.7388-1.3275 3.8752-2.3343 6.3821-3.0698 20.984-5.2722 43.542-7.6107 52.259-14.42m-222.95-6.0489c6.0806 1.9025 10.869 17.232 24.423 22.207 1.9077 1.0811 4.2067 1.7898 6.8828 2.1017 16.057 1.8717 28.216 11.333 37.295 19.019 2.7685 2.6802 5.6679 5.808 8.7593 8.6997 8.1912 8.2278 22.084 20.615 33.628 27.94 6.9265 4.3951 13.437 7.2669 18.438 6.677 4.0111 0.46447 2.6999 0.25787-1.5751-1.0086-4.275-1.2664-8.7839-8.6536-7.9777-15.312 1.1066-7.7003 6.3596-12.125 14.94-13.27 11.335-1.1948 25.127-0.75776 25.571-9.7404 0.60157-2.9138 1.3079-5.4889 1.4548-7.647 1.7124-7.3977 1.4508-14.378 3.5041-16.763 1.6869-1.3063 3.7715-2.298 6.234-3.0204 20.985-5.1922 42.398-8.4917 50.767-15.029m-221.59-5.2361c6.5873 2.061 11.298 17.677 24.232 23.153 1.8169 1.1835 4.0317 1.9856 6.6267 2.3859 15.57 2.4018 28.085 11.301 37.443 18.363 2.8403 2.4824 5.8427 5.4595 9.0366 8.2577 8.4284 7.9523 22.369 20.187 33.656 27.58 6.7723 4.4362 13.055 7.4535 17.783 7.1394 3.7575 0.77998 2.2225 0.89183-2.3849-0.16763-4.6075-1.0595-9.3299-8.7729-8.4906-15.802 1.1104-7.8655 6.4579-12.6 15.409-13.872 11.705-1.3477 26.068-1.1809 27.142-9.9621 0.83584-2.8615 1.6925-5.3857 1.8821-7.4894 1.9468-7.3113 1.2069-14.451 3.285-16.937 1.635-1.2851 3.6678-2.2618 6.0858-2.9711 20.987-5.1121 41.255-9.3726 49.275-15.637m-220.22-4.4232c7.094 2.2196 11.727 18.121 24.042 24.098 1.726 1.2859 3.8566 2.1814 6.3707 2.6701 15.084 2.9319 27.954 11.268 37.592 17.708 2.9121 2.2847 6.0174 5.111 9.3139 7.8156 8.6656 7.6769 22.654 19.759 33.684 27.221 6.6181 4.4773 12.673 7.6402 17.127 7.6018 3.504 1.0955 1.7452 1.5258-3.1948 0.67333-4.9399-0.85249-9.8759-8.8922-9.0036-16.292 1.1143-8.0307 6.5561-13.074 15.878-14.475 12.075-1.5006 27.009-1.6041 28.713-10.184 1.0701-2.8092 2.0771-5.2825 2.3095-7.3318 2.1811-7.225 0.963-14.525 3.066-17.11 1.5832-1.2639 3.5642-2.2255 5.9377-2.9218 20.988-5.032 40.111-10.253 47.782-16.246m-218.86-3.6103c7.6007 2.3781 12.156 18.566 23.852 25.043 1.6352 1.3883 3.6816 2.3772 6.1146 2.9542 14.598 3.462 27.823 11.236 37.741 17.052 2.9839 2.0869 6.1921 4.7624 9.5912 7.3736 8.9028 7.4015 22.939 19.331 33.712 26.861 6.4639 4.5184 12.291 7.8269 16.472 8.0642 3.2505 1.411 1.2678 2.1598-4.0046 1.5143-5.2724-0.64551-10.422-9.0114-9.5165-16.781 1.1182-8.1959 6.6543-13.549 16.346-15.077 12.445-1.6536 27.95-2.0272 30.284-10.405 1.3044-2.7568 2.4617-5.1793 2.7369-7.1742 2.4155-7.1387 0.7191-14.598 2.8469-17.284 1.5313-1.2427 3.4604-2.1892 5.7896-2.8725 20.989-4.952 38.968-11.134 46.29-16.854m-217.5-2.7975c8.1074 2.5366 12.585 19.01 23.662 25.989 1.5444 1.4907 3.5066 2.573 5.8585 3.2384 14.112 3.9922 27.692 11.203 37.889 16.397 3.0558 1.8891 6.3668 4.4139 9.8685 6.9315 9.14 7.1261 23.224 18.903 33.74 26.502 6.3097 4.5595 11.908 8.0136 15.816 8.5267 2.9969 1.7266 0.79036 2.7938-4.8144 2.3552-5.6048-0.43853-10.968-9.1307-10.029-17.271 1.122-8.3611 6.7525-14.024 16.815-15.679 12.815-1.8065 28.892-2.4504 31.855-10.627 1.5387-2.7045 2.8463-5.0761 3.1643-7.0165 2.6498-7.0524 0.4752-14.672 2.6278-17.457 1.4794-1.2215 3.3568-2.153 5.6414-2.8232 20.991-4.8719 37.824-12.015 44.798-17.463m-216.13-1.9846c8.6142 2.6952 13.014 19.455 23.471 26.934 1.4535 1.5931 3.3315 2.7688 5.6024 3.5226 13.625 4.5223 27.561 11.171 38.038 15.741 3.1276 1.6913 6.5415 4.0654 10.146 6.4895 9.3772 6.8507 23.508 18.475 33.768 26.142 6.1555 4.6006 11.526 8.2003 15.161 8.9891 2.7434 2.0421 0.31296 3.4277-5.6243 3.1962-5.9372-0.23155-11.514-9.2499-10.542-17.761 1.1259-8.5263 6.8507-14.499 17.283-16.281 13.185-1.9594 29.833-2.8735 33.426-10.849 1.7729-2.6522 3.2309-4.9729 3.5917-6.8589 2.8842-6.9661 0.2313-14.745 2.4088-17.631 1.4275-1.2003 3.2531-2.1167 5.4933-2.7738 20.992-4.7918 36.68-12.896 43.305-18.072m-214.77-1.1718c9.1209 2.8537 13.443 19.899 23.281 27.879 1.3627 1.6956 3.1565 2.9646 5.3463 3.8067 13.139 5.0524 27.429 11.138 38.187 15.086 3.1994 1.4935 6.7162 3.7168 10.423 6.0474 9.6144 6.5753 23.793 18.047 33.796 25.783 6.0013 4.6417 11.144 8.387 14.506 9.4515 2.4899 2.3576-0.16443 4.0617-6.4341 4.0371-6.2697-0.0246-12.06-9.3692-11.055-18.251 1.1297-8.6915 6.9489-14.973 17.752-16.883 13.555-2.1123 30.774-3.2967 34.997-11.07 2.0072-2.5999 3.6155-4.8697 4.0191-6.7013 3.1185-6.8798-0.0126-14.819 2.1897-17.804 1.3756-1.1791 3.1494-2.0804 5.3452-2.7245 20.993-4.7118 35.537-13.777 41.813-18.68m-213.41-0.3589c9.6276 3.0123 13.872 20.344 23.091 28.825 1.2718 1.798 2.9815 3.1605 5.0902 4.0909 12.653 5.5825 27.298 11.106 38.335 14.43 3.2712 1.2957 6.8909 3.3683 10.7 5.6054 9.8516 6.2999 24.078 17.619 33.824 25.423 5.8472 4.6828 10.762 8.5736 13.85 9.9139 2.2363 2.6731-0.64183 4.6957-7.244 4.8781-6.6021 0.1824-12.606-9.4885-11.568-18.741 1.1336-8.8566 7.0471-15.448 18.22-17.486 13.925-2.2653 31.715-3.7199 36.568-11.292 2.2415-2.5476 4.0001-4.7665 4.4464-6.5437 3.3529-6.7935-0.2565-14.892 1.9706-17.978 1.3237-1.1579 3.0457-2.0441 5.197-2.6752 20.995-4.6317 34.393-14.658 40.321-19.289m-212.04 0.45397c10.134 3.1708 14.301 20.788 22.901 29.77 1.181 1.9004 2.8064 3.3563 4.8341 4.375 12.166 6.1127 27.167 11.073 38.484 13.775 3.343 1.098 7.0656 3.0198 10.978 5.1633 10.089 6.0244 24.363 17.191 33.852 25.064 5.693 4.7239 10.38 8.7603 13.195 10.376 1.9828 2.9887-1.1192 5.3296-8.0538 5.719-6.9346 0.38938-13.152-9.6077-12.081-19.231 1.1375-9.0218 7.1454-15.923 18.689-18.088 14.295-2.4182 32.656-4.143 38.139-11.513 2.4758-2.4953 4.3847-4.6634 4.8738-6.3861 3.5873-6.7072-0.50041-14.965 1.7516-18.151 1.2718-1.1367 2.942-2.0079 5.0489-2.6259 20.996-4.5516 33.249-15.539 38.828-19.897m-210.68 1.2668c10.641 3.3293 14.73 21.233 22.71 30.716 1.0902 2.0028 2.6314 3.5521 4.5781 4.6592 11.68 6.6428 27.036 11.041 38.633 13.119 3.4148 0.90018 7.2403 2.6713 11.255 4.7213 10.326 5.749 24.648 16.763 33.88 24.705 5.5388 4.765 9.9973 8.947 12.539 10.839 1.7292 3.3042-1.5966 5.9636-8.8636 6.56-7.267 0.59636-13.698-9.727-12.594-19.721 1.1413-9.187 7.2436-16.398 19.158-18.69 14.665-2.5711 33.597-4.5662 39.71-11.735 2.71-2.443 4.7693-4.5602 5.3012-6.2285 3.8216-6.6209-0.7443-15.039 1.5325-18.324 1.2199-1.1155 2.8383-1.9716 4.9008-2.5766 20.997-4.4716 32.106-16.42 37.336-20.506m-209.32 2.0797c11.148 3.4879 15.159 21.677 22.52 31.661 0.99931 2.1052 2.4563 3.7479 4.322 4.9434 11.194 7.1729 26.905 11.008 38.781 12.464 3.4866 0.70239 7.415 2.3227 11.532 4.2792 10.563 5.4736 24.933 16.335 33.907 24.345 5.3846 4.8061 9.6151 9.1337 11.884 11.301 1.4757 3.6197-2.074 6.5976-9.6735 7.4009-7.5995 0.80333-14.244-9.8462-13.107-20.211 1.1452-9.3522 7.3418-16.872 19.626-19.292 15.035-2.7241 34.539-4.9893 41.281-11.957 2.9443-2.3907 5.1539-4.457 5.7286-6.0709 4.056-6.5345-0.98821-15.112 1.3134-18.498 1.168-1.0943 2.7346-1.9353 4.7526-2.5272 20.998-4.3915 30.962-17.301 35.844-21.114m-207.95 2.8925c11.654 3.6464 15.588 22.122 22.33 32.606 0.90847 2.2077 2.2813 3.9437 4.0659 5.2275 10.707 7.703 26.773 10.976 38.93 11.808 3.5584 0.50461 7.5897 1.9742 11.81 3.8371 10.8 5.1982 25.218 15.907 33.935 23.986 5.2304 4.8472 9.2329 9.3204 11.229 11.764 1.2222 3.9352-2.5514 7.2316-10.483 8.2419-7.9319 1.0103-14.79-9.9655-13.62-20.7 1.1491-9.5174 7.44-17.347 20.095-19.894 15.406-2.877 35.48-5.4125 42.852-12.178 3.1786-2.3384 5.5385-4.3538 6.156-5.9133 4.2903-6.4482-1.2321-15.186 1.0944-18.671 1.1161-1.0731 2.6309-1.8991 4.6045-2.4779 21-4.3114 29.819-18.182 34.351-21.723m-206.59 3.7054c12.161 3.805 16.017 22.566 22.14 33.552 0.81762 2.3101 2.1063 4.1395 3.8098 5.5117 10.221 8.2331 26.642 10.943 39.079 11.153 3.6303 0.30682 7.7644 1.6257 12.087 3.3951 11.038 4.9228 25.503 15.479 33.963 23.626 5.0762 4.8883 8.8506 9.5071 10.573 12.226 0.96866 4.2508-3.0288 7.8655-11.293 9.0828-8.2644 1.2173-15.336-10.085-14.133-21.19 1.1529-9.6826 7.5382-17.822 20.563-20.497 15.776-3.0299 36.421-5.8356 44.423-12.4 3.4129-2.2861 5.9231-4.2506 6.5833-5.7557 4.5247-6.3619-1.476-15.259 0.8753-18.845 1.0642-1.0519 2.5272-1.8628 4.4563-2.4286 21.001-4.2314 28.675-19.063 32.859-22.331m-205.23 4.5183c12.668 3.9635 16.446 23.011 21.949 34.497 0.72678 2.4125 1.9312 4.3353 3.5537 5.7958 9.7349 8.7633 26.511 10.911 39.227 10.497 3.7021 0.10904 7.9391 1.2771 12.364 2.953 11.275 4.6474 25.788 15.051 33.991 23.267 4.922 4.9294 8.4684 9.6938 9.9178 12.688 0.71512 4.5663-3.5062 8.4995-12.103 9.9238s-15.882-10.204-14.646-21.68c1.1568-9.8478 7.6364-18.297 21.032-21.099 16.146-3.1829 37.362-6.2588 45.994-12.622 3.6471-2.2338 6.3077-4.1474 7.0107-5.5981 4.759-6.2756-1.7199-15.333 0.65623-19.018 1.0124-1.0307 2.4235-1.8265 4.3082-2.3793 21.002-4.1513 27.531-19.944 31.367-22.94m-203.87 5.3311c13.175 4.122 16.875 23.455 21.759 35.442 0.63594 2.5149 1.7562 4.5311 3.2976 6.08 9.2486 9.2934 26.38 10.878 39.376 9.8419 3.7739-0.08874 8.1139 0.92861 12.642 2.511 11.512 4.372 26.073 14.623 34.019 22.907 4.7679 4.9705 8.0862 9.8804 9.2624 13.151 0.46159 4.8818-3.9836 9.1335-12.913 10.765-8.9292 1.6312-16.428-10.323-15.159-22.17 1.1606-10.013 7.7347-18.771 21.5-21.701 16.516-3.3358 38.303-6.682 47.565-12.843 3.8814-2.1815 6.6923-4.0442 7.4381-5.4405 4.9934-6.1893-1.9638-15.406 0.43716-19.192 0.96046-1.0095 2.3198-1.7903 4.1601-2.33 21.004-4.0712 26.388-20.824 29.874-23.548m-202.5 6.144c13.681 4.2806 17.304 23.9 21.569 36.388 0.5451 2.6173 1.5811 4.7269 3.0415 6.3642 8.7623 9.8235 26.249 10.846 39.525 9.1865 3.8457-0.28653 8.2886 0.58008 12.919 2.0689 11.749 4.0965 26.358 14.195 34.047 22.548 4.6137 5.0116 7.7039 10.067 8.6071 13.613 0.20805 5.1973-4.461 9.7674-13.723 11.606-9.2617 1.8382-16.973-10.443-15.672-22.66 1.1645-10.178 7.8329-19.246 21.969-22.303 16.886-3.4887 39.244-7.1051 49.136-13.065 4.1157-2.1291 7.0768-3.941 7.8655-5.2829 5.2278-6.103-2.2077-15.48 0.2181-19.365 0.90857-0.98832 2.2161-1.754 4.0119-2.2807 21.005-3.9912 25.244-21.705 28.382-24.157m-201.14 6.9569c14.188 4.4391 17.733 24.344 21.379 37.333 0.45425 2.7198 1.4061 4.9227 2.7854 6.6483 8.2761 10.354 26.118 10.813 39.673 8.531 3.9175-0.48431 8.4633 0.23155 13.196 1.6269 11.986 3.8211 26.643 13.767 34.075 22.188 4.4595 5.0527 7.3217 10.254 7.9517 14.076-0.0455 5.5128-4.9384 10.401-14.533 12.447-9.5941 2.0452-17.519-10.562-16.185-23.15 1.1684-10.343 7.9311-19.721 22.437-22.905 17.256-3.6416 40.186-7.5283 50.707-13.286 4.35-2.0768 7.4614-3.8378 8.2929-5.1252 5.4621-6.0167-2.4516-15.553-9.7e-4 -19.539 0.85668-0.96712 2.1124-1.7177 3.8638-2.2313 21.006-3.9111 24.1-22.586 26.89-24.765m-199.78 7.7697c14.695 4.5977 18.162 24.789 21.188 38.279 0.36341 2.8222 1.2311 5.1185 2.5294 6.9325 7.7898 10.884 25.986 10.781 39.822 7.8755 3.9893-0.6821 8.638-0.11697 13.473 1.1848 12.224 3.5457 26.928 13.339 34.103 21.829 4.3053 5.0938 6.9395 10.44 7.2963 14.538-0.29902 5.8284-5.4158 11.035-15.342 13.288-9.9266 2.2522-18.065-10.681-16.698-23.64 1.1722-10.509 8.0293-20.196 22.906-23.507 17.626-3.7946 41.127-7.9514 52.278-13.508 4.5842-2.0245 7.846-3.7347 8.7203-4.9676 5.6965-5.9304-2.6955-15.627-0.22004-19.712 0.80479-0.94592 2.0087-1.6815 3.7156-2.182 21.007-3.831 22.957-23.467 25.398-25.374m-198.41 8.5826c15.201 4.7562 18.591 25.233 20.998 39.224 0.27257 2.9246 1.056 5.3143 2.2733 7.2167 7.3035 11.414 25.855 10.748 39.971 7.22 4.0611-0.87988 8.8127-0.4655 13.751 0.74277 12.461 3.2703 27.213 12.911 34.131 21.469 4.1511 5.1349 6.5572 10.627 6.6409 15.001-0.55255 6.1439-5.8932 11.669-16.152 14.129-10.259 2.4591-18.611-10.8-17.211-24.13 1.1761-10.674 8.1275-20.67 23.375-24.11 17.996-3.9475 42.068-8.3746 53.849-13.73 4.8185-1.9722 8.2306-3.6315 9.1476-4.81 5.9308-5.8441-2.9394-15.7-0.4391-19.886 0.7529-0.92472 1.905-1.6452 3.5675-2.1327 21.009-3.751 21.813-24.348 23.905-25.982m-197.05 9.3954c15.708 4.9148 19.02 25.678 20.808 40.169 0.18173 3.027 0.88099 5.5102 2.0172 7.5008 6.8172 11.944 25.724 10.716 40.119 6.5645 4.133-1.0777 8.9874-0.81403 14.028 0.30072 12.698 2.9949 27.498 12.483 34.159 21.11 3.9969 5.176 6.175 10.814 5.9855 15.463-0.80609 6.4594-6.3706 12.303-16.962 14.969-10.591 2.6661-19.157-10.92-17.724-24.62 1.1799-10.839 8.2257-21.145 23.843-24.712 18.366-4.1004 43.009-8.7978 55.42-13.951 5.0528-1.9199 8.6152-3.5283 9.575-4.6524 6.1652-5.7577-3.1833-15.774-0.65817-20.059 0.70101-0.90352 1.8013-1.6089 3.4194-2.0834 21.01-3.6709 20.67-25.229 22.413-26.591m-195.69 10.208c16.215 5.0733 19.449 26.122 20.618 41.115 0.09089 3.1294 0.70595 5.706 1.7611 7.785 6.3309 12.474 25.593 10.683 40.268 5.909 4.2048-1.2754 9.1621-1.1626 14.305-0.14133 12.935 2.7195 27.782 12.055 34.187 20.75 3.8428 5.2171 5.7928 11.001 5.3301 15.925-1.0596 6.7749-6.848 12.937-17.772 15.81-10.924 2.8731-19.703-11.039-18.236-25.109 1.1838-11.004 8.3239-21.62 24.312-25.314 18.736-4.2534 43.95-9.2209 56.991-14.173 5.2871-1.8676 8.9998-3.4251 10.002-4.4948 6.3996-5.6714-3.4272-15.847-0.87723-20.232 0.64912-0.88232 1.6976-1.5726 3.2712-2.0341 21.011-3.5908 19.526-26.11 20.921-27.199m-194.32 11.021c16.722 5.2318 19.878 26.567 20.427 42.06 4.2e-5 3.2318 0.53091 5.9018 1.505 8.0691 5.8446 13.004 25.462 10.651 40.417 5.2536 4.2766-1.4732 9.3368-1.5111 14.583-0.58339 13.172 2.4441 28.067 11.627 34.215 20.391 3.6886 5.2582 5.4105 11.187 4.6747 16.388-1.3132 7.0905-7.3254 13.571-18.582 16.651-11.256 3.0801-20.249-11.158-18.749-25.599 1.1877-11.169 8.4222-22.095 24.78-25.916 19.106-4.4063 44.891-9.6441 58.562-14.395 5.5213-1.8153 9.3844-3.3219 10.43-4.3372 6.6339-5.5851-3.6711-15.921-1.0963-20.406 0.59722-0.86113 1.5939-1.5364 3.1231-1.9848 21.013-3.5108 18.382-26.991 19.428-27.808m-192.96 11.834c17.228 5.3904 20.307 27.011 20.237 43.005-0.0908 3.3343 0.35587 6.0976 1.2489 8.3533 5.3583 13.534 25.33 10.618 40.565 4.5981 4.3484-1.671 9.5115-1.8596 14.86-1.0254 13.41 2.1686 28.352 11.199 34.243 20.031 3.5344 5.2993 5.0283 11.374 4.0193 16.85-1.5667 7.406-7.8028 14.205-19.392 17.492-11.589 3.287-20.795-11.277-19.262-26.089 1.1915-11.334 8.5204-22.569 25.249-26.518 19.476-4.5592 45.833-10.067 60.133-14.616 5.7556-1.763 9.769-3.2187 10.857-4.1796 6.8683-5.4988-3.915-15.994-1.3154-20.579 0.54533-0.83993 1.4902-1.5001 2.975-1.9354 21.014-3.4307 17.239-27.872 17.936-28.417m-191.6 12.647c17.735 5.5489 20.736 27.456 20.047 43.951-0.18164 3.4367 0.18083 6.2934 0.99284 8.6375 4.872 14.064 25.199 10.586 40.714 3.9426 4.4202-1.8688 9.6862-2.2081 15.137-1.4675 13.647 1.8932 28.637 10.771 34.271 19.672 3.3802 5.3404 4.6461 11.561 3.3639 17.313-1.8202 7.7215-8.2802 14.839-20.201 18.333-11.921 3.494-21.341-11.397-19.775-26.579 1.1954-11.5 8.6186-23.044 25.717-27.121 19.846-4.7122 46.774-10.49 61.704-14.838 5.9899-1.7107 10.154-3.1155 11.285-4.022 7.1026-5.4125-4.1589-16.068-1.5344-20.753 0.49344-0.81873 1.3865-1.4638 2.8268-1.8861 21.015-3.3506 16.095-28.753 16.444-29.025m-190.23 13.46c18.242 5.7075 21.165 27.9 19.857 44.896-0.27248 3.5391 0.0058 6.4892 0.73675 8.9216 4.3858 14.595 25.068 10.553 40.863 3.2871 4.492-2.0666 9.8609-2.5567 15.415-1.9095 13.884 1.6178 28.922 10.343 34.299 19.312 3.226 5.3815 4.2638 11.747 2.7085 17.775-2.0738 8.037-8.7576 15.473-21.011 19.174-12.254 3.701-21.887-11.516-20.288-27.069 1.1993-11.665 8.7168-23.519 26.186-27.723 20.216-4.8651 47.715-10.914 63.275-15.059 6.2242-1.6584 10.538-3.0123 11.712-3.8644 7.337-5.3262-4.4028-16.141-1.7535-20.926 0.44155-0.79753 1.2828-1.4276 2.6787-1.8368 21.016-3.2706 14.951-29.634 14.951-29.634" fill="none" stroke="url(#linearGradient3595-6)" stroke-width=".13967px"/>
 <path d="m192.53 29.626v103.76h-216.17l2e-6 -104.17 108.3 79.627z" fill="#1b1e20" stop-color="#000000" style="-inkscape-stroke:none;font-variation-settings:normal"/>
 <g transform="matrix(.76685 0 0 .76685 -53.913 56.46)" opacity=".02" stroke-width=".6884">
  <g transform="translate(0 77.637)" opacity=".075" stroke-width=".6884">
   <path d="m-21.655-173.61 202.37 148.61 202.37-148.61v16.181l-202.37 148.61-202.37-148.61z" fill="url(#linearGradient21995-7)" stop-color="#000000" style="-inkscape-stroke:none;font-variation-settings:normal"/>
   <path d="m-21.655-193.8 202.37 148.61 202.37-148.61v22.391l-202.37 148.61-202.37-148.61z" fill="url(#linearGradient21997-5)"/>
   <path d="m-21.655-157.94 202.37 148.61 202.37-148.61v1.7412l-202.37 148.61-202.37-148.61z" fill="url(#linearGradient21999-5)" stop-color="#000000" style="-inkscape-stroke:none;font-variation-settings:normal;paint-order:stroke fill markers"/>
  </g>
  <path d="m-21.656-22.398v20.919l191.38 140.54 10.981 23.178 10.981-23.178 191.38-140.54v-20.919l-202.37 148.61z" fill="url(#linearGradient22001-2)" stop-color="#000000" style="-inkscape-stroke:none;font-variation-settings:normal"/>
  <path d="m191.22 138.75-10.513 23.491 202.37-148.61v-15.771z" fill="url(#linearGradient22003-9)"/>
  <path d="m-21.656-2.1353v15.771l202.37 148.61-10.513-23.491z" fill="url(#linearGradient22005-1)"/>
  <path d="m-21.656-2.1353v1.3126l190.92 140.2 11.449 22.866 11.449-22.866 190.92-140.2v-1.3126l-191.85 140.89-10.513 21.102-10.513-21.102-191.54-140.66z" color="#000000" fill="url(#linearGradient22007-2)" stroke-linecap="square" stroke-width=".18214" style="-inkscape-stroke:none"/>
  <path d="m-21.655-41.581 202.37 148.61 202.37-148.61v21.473l-202.37 148.61-202.37-148.61z" fill="url(#linearGradient22009-0)" stop-color="#000000" style="-inkscape-stroke:none;font-variation-settings:normal"/>
  <path d="m-21.655-23.098 202.37 148.61 202.37-148.61v2.9889l-202.37 148.61-202.37-148.61z" fill="url(#linearGradient22011-9)" stop-color="#000000" style="-inkscape-stroke:none;font-variation-settings:normal;paint-order:stroke fill markers"/>
  <path d="m-21.655-62.914 202.37 148.61 202.37-148.61v22.391l-202.37 148.61-202.37-148.61z" fill="url(#linearGradient22013-6)"/>
  <path d="m-21.655-64.05 202.37 148.61 202.37-148.61v1.7412l-202.37 148.61-202.37-148.61z" fill="url(#linearGradient22015-0)" stop-color="#000000" style="-inkscape-stroke:none;font-variation-settings:normal;paint-order:stroke fill markers"/>
  <path d="m191.22 138.75-10.513 23.491 202.37-148.61v-15.771z" fill="url(#linearGradient22017-2)"/>
  <path d="m170.2 138.75 10.513 23.491-202.37-148.61-2e-6 -15.771z" fill="url(#linearGradient22019-6)"/>
 </g>
 <g transform="matrix(.5279 0 0 .5279 -10.732 64.298)" opacity=".02">
  <path d="m-21.655-173.61 202.37 148.61 202.37-148.61v16.181l-202.37 148.61-202.37-148.61z" fill="url(#linearGradient21995-7)" stop-color="#000000" style="-inkscape-stroke:none;font-variation-settings:normal"/>
  <path d="m-21.655-193.8 202.37 148.61 202.37-148.61v22.391l-202.37 148.61-202.37-148.61z" fill="url(#linearGradient21997-5)"/>
  <path d="m-21.655-157.94 202.37 148.61 202.37-148.61v1.7412l-202.37 148.61-202.37-148.61z" fill="url(#linearGradient21999-5)" stop-color="#000000" style="-inkscape-stroke:none;font-variation-settings:normal;paint-order:stroke fill markers"/>
 </g>
 <path d="m90.215 96.56-5.5498 12.401 106.83-78.45v-8.3253z" fill="url(#linearGradient24593-1)"/>
 <path d="m-22.164 22.186v8.3253l106.83 78.45-5.5498-12.401z" fill="url(#linearGradient78325-8)"/>
 <path d="m-22.164 22.186v0.69291l100.78 74.011 6.0442 12.071 6.0442-12.071 100.78-74.011v-0.69291l-101.28 74.374-5.5498 11.14-5.5498-11.14-101.11-74.253z" color="#000000" fill="url(#linearGradient87990-7)" stroke-linecap="square" stroke-width=".13967" style="-inkscape-stroke:none"/>
 <path d="m-22.164 1.3621 106.83 78.45 106.83-78.45v11.335l-106.83 78.45-106.83-78.45z" fill="url(#linearGradient25753-9)" stop-color="#000000" style="-inkscape-stroke:none;font-variation-settings:normal"/>
 <path d="m-22.164 11.12 106.83 78.45 106.83-78.45v1.5778l-106.83 78.45-106.83-78.45z" fill="url(#linearGradient25219-2)" stop-color="#000000" style="-inkscape-stroke:none;font-variation-settings:normal;paint-order:stroke fill markers"/>
 <path d="m90.215 96.56-5.5498 12.401 106.83-78.45v-8.3253z" fill="url(#linearGradient14910-0)"/>
 <path d="m79.115 96.56 5.5498 12.401-106.83-78.45-1e-6 -8.3253z" fill="url(#linearGradient15720-2)"/>
 <path d="m47.945 74.363v1.6573l17.94 13.175v-1.6573zm0 2.4953v2.62l17.94 13.175v-2.62zm17.94 16.598-17.94-13.175v1.1174l17.94 13.175z" fill="url(#linearGradient35006-37)"/>
 <path d="m171.73 38.18v1.6573l-17.94 13.175v-1.6573zm0 2.4953v2.62l-17.94 13.175v-2.62zm-17.94 16.598 17.94-13.175v1.1174l-17.94 13.175z" fill="url(#linearGradient35006-3-5)"/>
 <path d="m84.665 80.371 106.92-78.158-0.09084-0.85065z" fill="#d0b2e4"/>
 <path d="m84.665 80.371-106.92-78.158 0.09084-0.85065z" fill="#b2e3e4"/>
 <path d="m-22.164-9.8994 106.83 78.45 106.83-78.45v11.82l-106.83 78.45-106.83-78.45z" fill="url(#linearGradient26562-9)"/>
 <g transform="matrix(.4297 0 0 .43003 12.699 29.086)" fill="none" stop-color="#000000" stroke="#235dc6" stroke-width=".64985" style="-inkscape-stroke:none;font-variation-settings:normal;paint-order:stroke fill markers">
  <path d="m116.37 53.187v6.7346" stop-color="#000000" style="-inkscape-stroke:none;font-variation-settings:normal;paint-order:stroke fill markers"/>
  <path d="m122.49 57.678v8.7187" stop-color="#000000" style="-inkscape-stroke:none;font-variation-settings:normal;paint-order:stroke fill markers"/>
  <path d="m133.56 65.81v8.379" stop-color="#000000" style="-inkscape-stroke:none;font-variation-settings:normal;paint-order:stroke fill markers"/>
  <path d="m128.48 62.077v4.1961" stop-color="#000000" style="-inkscape-stroke:none;font-variation-settings:normal;paint-order:stroke fill markers"/>
  <circle cx="116.42" cy="61.028" r="1.21" stop-color="#000000" style="-inkscape-stroke:none;font-variation-settings:normal;paint-order:stroke fill markers"/>
  <circle cx="122.45" cy="66.901" r=".64061" stop-color="#000000" style="-inkscape-stroke:none;font-variation-settings:normal;paint-order:stroke fill markers"/>
  <circle cx="128.5" cy="67.357" r="1.21" stop-color="#000000" style="-inkscape-stroke:none;font-variation-settings:normal;paint-order:stroke fill markers"/>
  <circle cx="133.55" cy="75.222" r="1.21" stop-color="#000000" style="-inkscape-stroke:none;font-variation-settings:normal;paint-order:stroke fill markers"/>
 </g>
 <path d="m4.1215 12.898v8.3253l4.5972 3.3759v-8.3253zm5.9569 4.3743v8.3253l9.2471 6.7908v-8.3256zm12.068 8.8624 0.0772 8.382 5.7997 4.2589 0.0101-8.3179zm8.0198 5.8895-0.10858 8.2456 1.7508 1.2857v-8.3256z" fill="url(#linearGradient34063-2)" stop-color="#000000" style="-inkscape-stroke:none;font-variation-settings:normal"/>
 <path d="m119.53 78.338v3.8557l-4.5972 3.3759v-3.8557zm-5.9569 4.3743v3.8557l-9.2471 6.7908v-3.856zm-12.068 8.8624-0.0772 3.9125-5.7997 4.259-0.01008-3.8484zm-8.0198 5.8895 0.10858 3.7761-1.7508 1.2857v-3.856z" fill="url(#linearGradient53858-2)" stop-color="#000000" style="-inkscape-stroke:none;font-variation-settings:normal"/>
 <g transform="matrix(.5279 0 0 .5279 -10.732 35.49)" opacity=".02">
  <path d="m-21.655-173.61 202.37 148.61 202.37-148.61v16.181l-202.37 148.61-202.37-148.61z" fill="url(#linearGradient21995-7)" stop-color="#000000" style="-inkscape-stroke:none;font-variation-settings:normal"/>
  <path d="m-21.655-193.8 202.37 148.61 202.37-148.61v22.391l-202.37 148.61-202.37-148.61z" fill="url(#linearGradient21997-5)"/>
  <path d="m-21.655-157.94 202.37 148.61 202.37-148.61v1.7412l-202.37 148.61-202.37-148.61z" fill="url(#linearGradient21999-5)" stop-color="#000000" style="-inkscape-stroke:none;font-variation-settings:normal;paint-order:stroke fill markers"/>
 </g>
 <path d="m42.619 39.216v9.1893l13.244 9.7259v-9.1895z" fill="#7777e1" fill-opacity=".095564"/>
 <path d="m51.995 59.26v3.892l32.67 24.077v-3.892zm0 4.7301v1.5026l32.67 24.077v-1.5026z" fill="url(#linearGradient35392-8)"/>
 <path d="m-10.75 33.912v2.2454l17.317 12.717v-2.2457z" fill="url(#linearGradient37083-9)"/>
 <path d="m35.857 38.355v5.502l42.431 31.16v-5.5027z" fill="url(#linearGradient37280-7)"/>
 <path d="m2.2934 42.808v5.5021l11.78 8.6508v-1.8709zm14.018 13.925v1.8709l4.6087 3.3844v-1.8709zm5.7236 4.203v1.8709l4.8397 3.5543v-1.8711zm8.2342 6.0469v1.8709l6.0924 4.4742v-1.8711zm7.8992 5.8008v1.8711l3.7417 2.7476v-1.8711zm5.2296 3.8402v1.8711l1.3272 0.97471v-1.8711z" fill="url(#linearGradient37849-3)"/>
 <g transform="matrix(.4297 0 0 .43003 26.227 39.229)" fill="none" stroke="#235dc6" stroke-width=".64985">
  <path d="m116.37 53.187v6.7346" stop-color="#000000" style="font-variation-settings:normal"/>
  <path d="m122.49 57.678v8.7187"/>
  <path d="m128.48 62.077v4.1961"/>
  <circle cx="116.42" cy="61.028" r="1.21" stop-color="#000000" style="font-variation-settings:normal;paint-order:stroke fill markers"/>
  <circle cx="122.45" cy="66.901" r=".64061" stop-color="#000000" style="font-variation-settings:normal;paint-order:stroke fill markers"/>
  <circle cx="128.5" cy="67.357" r="1.21" stop-color="#000000" style="font-variation-settings:normal;paint-order:stroke fill markers"/>
  <path d="m110.31 48.673v8.379"/>
  <circle cx="110.3" cy="58.084" r="1.21" stop-color="#000000" style="font-variation-settings:normal;paint-order:stroke fill markers"/>
 </g>
 <path d="m-22.164-10.499 106.83 78.45 106.83-78.45v0.91916l-106.83 78.45-106.83-78.45z" fill="url(#linearGradient69576-6)" stop-color="#000000" style="-inkscape-stroke:none;font-variation-settings:normal;paint-order:stroke fill markers"/>
 <path d="m119.7 50.038v8.3253l-4.5972 3.3759v-8.3253zm-5.9569 4.3743v8.3253l-9.2471 6.7908v-8.3256zm-12.068 8.8624-0.0772 8.382-5.7997 4.259-0.01008-8.3179zm-8.0198 5.8895 0.10858 8.2456-1.7508 1.2857v-8.3256z" fill="url(#linearGradient53643-1)" stop-color="#000000" style="-inkscape-stroke:none;font-variation-settings:normal"/>
 <path d="m165.81 7.3999v5.5021l-11.78 8.6508v-1.8709zm-14.018 13.925v1.8709l-4.6087 3.3844v-1.8709zm-5.7236 4.203v1.8709l-4.8397 3.5543v-1.8711zm-8.2342 6.0469v1.8709l-6.0924 4.4742v-1.8711zm-7.8992 5.8008v1.8711l-3.7417 2.7476v-1.8711zm-5.2296 3.8402v1.8711l-1.3272 0.97471v-1.8711z" fill="url(#linearGradient53697-2)"/>
 <path d="m156.67 22.814v5.502l-42.431 31.16v-5.5027z" fill="url(#linearGradient53804-9)"/>
 <path d="m117.33 59.26v3.892l-32.67 24.077v-3.892zm0 4.7301v1.5026l-32.67 24.077v-1.5026z" fill="url(#linearGradient5163-3)"/>
</svg>
