<?xml version="1.0" encoding="UTF-8" standalone="no"?>
<!-- Created with Inkscape (http://www.inkscape.org/) -->

<svg
   width="1920.0001"
   height="1080"
   viewBox="0 0 508.00001 285.75001"
   version="1.1"
   id="svg1140"
   xmlns:xlink="http://www.w3.org/1999/xlink"
   xmlns="http://www.w3.org/2000/svg"
   xmlns:svg="http://www.w3.org/2000/svg">
  <defs
     id="defs1137">
    <linearGradient
       xlink:href="#linearGradient29544"
       id="linearGradient29546-2"
       x1="132.10901"
       y1="575.51141"
       x2="1068.3112"
       y2="320.25305"
       gradientUnits="userSpaceOnUse"
       gradientTransform="matrix(0.36819133,0.03908449,-0.03908449,0.36819133,30.485961,30.6221)" />
    <linearGradient
       id="linearGradient29544">
      <stop
         style="stop-color:#1c52f2;stop-opacity:1"
         offset="0"
         id="stop29540" />
      <stop
         style="stop-color:#d62bc3;stop-opacity:0.42363399"
         offset="1"
         id="stop29542" />
    </linearGradient>
    <linearGradient
       xlink:href="#linearGradient4549"
       id="linearGradient4551-1"
       x1="1218.4554"
       y1="30.736158"
       x2="-51.688805"
       y2="481.46146"
       gradientUnits="userSpaceOnUse"
       gradientTransform="matrix(0.36819133,0.03908449,-0.03908449,0.36819133,30.485961,30.6221)" />
    <linearGradient
       id="linearGradient4549">
      <stop
         style="stop-color:#4886f2;stop-opacity:1;"
         offset="0"
         id="stop4545" />
      <stop
         style="stop-color:#8f4bcd;stop-opacity:1"
         offset="1"
         id="stop4547" />
    </linearGradient>
    <linearGradient
       xlink:href="#linearGradient10986"
       id="linearGradient12309-5"
       gradientUnits="userSpaceOnUse"
       x1="1343.8644"
       y1="191.42802"
       x2="861.3941"
       y2="436.60165"
       gradientTransform="matrix(0.37025997,0,0,0.37025997,-1.4372509,18.291792)" />
    <linearGradient
       id="linearGradient10986">
      <stop
         style="stop-color:#6659f2;stop-opacity:1"
         offset="0"
         id="stop10982" />
      <stop
         style="stop-color:#628af5;stop-opacity:1"
         offset="1"
         id="stop10984" />
    </linearGradient>
    <linearGradient
       xlink:href="#linearGradient1509"
       id="linearGradient1511-9"
       x1="466.89359"
       y1="475.49548"
       x2="1404.4065"
       y2="195.51314"
       gradientUnits="userSpaceOnUse"
       gradientTransform="matrix(0.37025997,0,0,0.37025997,-1.4372509,18.291792)" />
    <linearGradient
       id="linearGradient1509">
      <stop
         style="stop-color:#3e2fdd;stop-opacity:1"
         offset="0"
         id="stop1505" />
      <stop
         style="stop-color:#a4007e;stop-opacity:1"
         offset="1"
         id="stop1507" />
    </linearGradient>
    <linearGradient
       xlink:href="#linearGradient4477"
       id="linearGradient4479-5"
       x1="1327.1652"
       y1="150.93445"
       x2="-27.439623"
       y2="614.6449"
       gradientUnits="userSpaceOnUse"
       gradientTransform="matrix(0.36819133,0.03908449,-0.03908449,0.36819133,30.485961,30.6221)" />
    <linearGradient
       id="linearGradient4477">
      <stop
         style="stop-color:#578bf2;stop-opacity:1"
         offset="0"
         id="stop4473" />
      <stop
         style="stop-color:#5a74fa;stop-opacity:1"
         offset="1"
         id="stop4475" />
    </linearGradient>
    <linearGradient
       xlink:href="#linearGradient4685-3"
       id="linearGradient4687-8"
       x1="1284.0638"
       y1="231.57774"
       x2="-19.021584"
       y2="636.71533"
       gradientUnits="userSpaceOnUse"
       gradientTransform="matrix(0.36819133,0.03908449,-0.03908449,0.36819133,30.485961,30.6221)" />
    <linearGradient
       id="linearGradient4685-3">
      <stop
         style="stop-color:#542ef2;stop-opacity:1"
         offset="0"
         id="stop4681-8" />
      <stop
         style="stop-color:#4a98e4;stop-opacity:1"
         offset="0.47512516"
         id="stop26809" />
      <stop
         style="stop-color:#5393f2;stop-opacity:1"
         offset="1"
         id="stop4683-5" />
    </linearGradient>
    <linearGradient
       xlink:href="#linearGradient31045"
       id="linearGradient30817"
       x1="-757.29144"
       y1="414.48566"
       x2="687.20605"
       y2="74.068878"
       gradientUnits="userSpaceOnUse"
       gradientTransform="matrix(0.37025997,0,0,0.37025997,259.17529,100.54593)" />
    <linearGradient
       id="linearGradient31045">
      <stop
         style="stop-color:#94a642;stop-opacity:1"
         offset="0"
         id="stop31041" />
      <stop
         style="stop-color:#83aa61;stop-opacity:1"
         offset="0.31171572"
         id="stop31403" />
      <stop
         style="stop-color:#dc8cd1;stop-opacity:1"
         offset="0.59436423"
         id="stop31273" />
      <stop
         style="stop-color:#6cdddb;stop-opacity:1"
         offset="1"
         id="stop31043" />
    </linearGradient>
    <linearGradient
       xlink:href="#linearGradient25627"
       id="linearGradient25349"
       x1="-19.32687"
       y1="174.87611"
       x2="365.09894"
       y2="71.86953"
       gradientUnits="userSpaceOnUse"
       gradientTransform="matrix(1.5998555,0,0,1.5998555,-78.865065,-33.23707)" />
    <linearGradient
       id="linearGradient25627">
      <stop
         style="stop-color:#bda62c;stop-opacity:1;"
         offset="0"
         id="stop25607" />
      <stop
         style="stop-color:#ae9a28;stop-opacity:0.98823529"
         offset="0.14668909"
         id="stop25609" />
      <stop
         style="stop-color:#8c7b20;stop-opacity:0.96862745"
         offset="0.30530512"
         id="stop25613" />
      <stop
         style="stop-color:#bda62c;stop-opacity:0.95686275;"
         offset="0.51079261"
         id="stop25617" />
      <stop
         style="stop-color:#82721e;stop-opacity:0.94901961"
         offset="0.62310421"
         id="stop25619" />
      <stop
         style="stop-color:#c0ab2c;stop-opacity:0.99607843"
         offset="0.83540899"
         id="stop25623" />
      <stop
         style="stop-color:#7f6f1e;stop-opacity:0.92156863"
         offset="1"
         id="stop25625" />
    </linearGradient>
    <linearGradient
       xlink:href="#linearGradient14653"
       id="linearGradient14655"
       x1="-46.183235"
       y1="706.05402"
       x2="1721.9431"
       y2="445.6926"
       gradientUnits="userSpaceOnUse"
       gradientTransform="matrix(0.42329514,0,0,0.42329514,-78.865065,-33.23707)" />
    <linearGradient
       id="linearGradient14653">
      <stop
         style="stop-color:#bda62c;stop-opacity:1;"
         offset="0"
         id="stop14649" />
      <stop
         style="stop-color:#615516;stop-opacity:0.98823529"
         offset="0.09857609"
         id="stop16599" />
      <stop
         style="stop-color:#cab12f;stop-opacity:0.97647059"
         offset="0.25338677"
         id="stop16339" />
      <stop
         style="stop-color:#8c7b20;stop-opacity:0.96862745"
         offset="0.33815062"
         id="stop16405" />
      <stop
         style="stop-color:#87771f;stop-opacity:0.96470588"
         offset="0.4215126"
         id="stop15309" />
      <stop
         style="stop-color:#bda62c;stop-opacity:0.95686275;"
         offset="0.53338844"
         id="stop15113" />
      <stop
         style="stop-color:#82721e;stop-opacity:0.94901961"
         offset="0.62310421"
         id="stop15179" />
      <stop
         style="stop-color:#80711e;stop-opacity:0.93725497"
         offset="0.73470789"
         id="stop15823" />
      <stop
         style="stop-color:#d7be31;stop-opacity:0.92941177"
         offset="0.83540899"
         id="stop15889" />
      <stop
         style="stop-color:#bda62c;stop-opacity:0.9217537"
         offset="1"
         id="stop14651" />
    </linearGradient>
    <linearGradient
       xlink:href="#linearGradient4685-3"
       id="linearGradient4687-8-6"
       x1="1284.0638"
       y1="231.57774"
       x2="-19.021584"
       y2="636.71533"
       gradientUnits="userSpaceOnUse"
       gradientTransform="matrix(0.5157559,0.05474886,-0.05474886,0.5157559,-44.334545,-58.811484)" />
    <linearGradient
       xlink:href="#linearGradient4477"
       id="linearGradient4479-5-1"
       x1="1327.1652"
       y1="150.93445"
       x2="-27.439623"
       y2="614.6449"
       gradientUnits="userSpaceOnUse"
       gradientTransform="matrix(0.5157559,0.05474886,-0.05474886,0.5157559,-44.334545,-58.811484)" />
    <linearGradient
       xlink:href="#linearGradient1509"
       id="linearGradient6948"
       gradientUnits="userSpaceOnUse"
       gradientTransform="matrix(0.51865364,0,0,0.51865364,-89.052,-77.742767)"
       x1="466.89359"
       y1="475.49548"
       x2="1404.4065"
       y2="195.51314" />
    <linearGradient
       xlink:href="#linearGradient10986"
       id="linearGradient12309-5-4"
       gradientUnits="userSpaceOnUse"
       x1="1343.8644"
       y1="191.42802"
       x2="861.3941"
       y2="436.60165"
       gradientTransform="matrix(0.51865364,0,0,0.51865364,-89.052,-76.083563)" />
    <linearGradient
       xlink:href="#linearGradient4549"
       id="linearGradient4551-1-8"
       x1="1218.4554"
       y1="30.736158"
       x2="-51.688805"
       y2="481.46146"
       gradientUnits="userSpaceOnUse"
       gradientTransform="matrix(0.5157559,0.05474886,-0.05474886,0.5157559,-44.334545,-58.811484)" />
    <linearGradient
       xlink:href="#linearGradient29544"
       id="linearGradient24274"
       gradientUnits="userSpaceOnUse"
       gradientTransform="matrix(0.5157559,0.05474891,-0.05474891,0.5157559,-44.334545,-58.811484)"
       x1="132.10901"
       y1="575.51141"
       x2="1068.3112"
       y2="320.25305" />
    <linearGradient
       xlink:href="#linearGradient29544"
       id="linearGradient1273"
       gradientUnits="userSpaceOnUse"
       gradientTransform="matrix(0.5157559,0.05474891,-0.05474891,0.5157559,-44.334545,-58.811484)"
       x1="132.10901"
       y1="575.51141"
       x2="1068.3112"
       y2="320.25305" />
    <linearGradient
       xlink:href="#linearGradient29544"
       id="linearGradient1275"
       gradientUnits="userSpaceOnUse"
       gradientTransform="matrix(0.5157559,0.05474891,-0.05474891,0.5157559,-44.334545,-58.811484)"
       x1="132.10901"
       y1="575.51141"
       x2="1068.3112"
       y2="320.25305" />
    <linearGradient
       xlink:href="#linearGradient29544"
       id="linearGradient1277"
       gradientUnits="userSpaceOnUse"
       gradientTransform="matrix(0.5157559,0.05474891,-0.05474891,0.5157559,-44.334545,-58.811484)"
       x1="132.10901"
       y1="575.51141"
       x2="1068.3112"
       y2="320.25305" />
    <linearGradient
       xlink:href="#linearGradient29544"
       id="linearGradient1279"
       gradientUnits="userSpaceOnUse"
       gradientTransform="matrix(0.5157559,0.05474891,-0.05474891,0.5157559,-44.334545,-58.811484)"
       x1="132.10901"
       y1="575.51141"
       x2="1068.3112"
       y2="320.25305" />
    <linearGradient
       xlink:href="#linearGradient29544"
       id="linearGradient1281"
       gradientUnits="userSpaceOnUse"
       gradientTransform="matrix(0.5157559,0.05474891,-0.05474891,0.5157559,-44.334545,-58.811484)"
       x1="132.10901"
       y1="575.51141"
       x2="1068.3112"
       y2="320.25305" />
    <linearGradient
       xlink:href="#linearGradient29544"
       id="linearGradient1283"
       gradientUnits="userSpaceOnUse"
       gradientTransform="matrix(0.5157559,0.05474891,-0.05474891,0.5157559,-44.334545,-58.811484)"
       x1="132.10901"
       y1="575.51141"
       x2="1068.3112"
       y2="320.25305" />
    <linearGradient
       xlink:href="#linearGradient29544"
       id="linearGradient1285"
       gradientUnits="userSpaceOnUse"
       gradientTransform="matrix(0.5157559,0.05474891,-0.05474891,0.5157559,-44.334545,-58.811484)"
       x1="132.10901"
       y1="575.51141"
       x2="1068.3112"
       y2="320.25305" />
    <linearGradient
       xlink:href="#linearGradient29544"
       id="linearGradient1287"
       gradientUnits="userSpaceOnUse"
       gradientTransform="matrix(0.5157559,0.05474891,-0.05474891,0.5157559,-44.334545,-58.811484)"
       x1="132.10901"
       y1="575.51141"
       x2="1068.3112"
       y2="320.25305" />
    <linearGradient
       xlink:href="#linearGradient29544"
       id="linearGradient1289"
       gradientUnits="userSpaceOnUse"
       gradientTransform="matrix(0.5157559,0.05474891,-0.05474891,0.5157559,-44.334545,-58.811484)"
       x1="132.10901"
       y1="575.51141"
       x2="1068.3112"
       y2="320.25305" />
    <linearGradient
       xlink:href="#linearGradient29544"
       id="linearGradient1291"
       gradientUnits="userSpaceOnUse"
       gradientTransform="matrix(0.5157559,0.05474891,-0.05474891,0.5157559,-44.334545,-58.811484)"
       x1="132.10901"
       y1="575.51141"
       x2="1068.3112"
       y2="320.25305" />
    <linearGradient
       xlink:href="#linearGradient29544"
       id="linearGradient1293"
       gradientUnits="userSpaceOnUse"
       gradientTransform="matrix(0.5157559,0.05474891,-0.05474891,0.5157559,-44.334545,-58.811484)"
       x1="132.10901"
       y1="575.51141"
       x2="1068.3112"
       y2="320.25305" />
    <linearGradient
       xlink:href="#linearGradient29544"
       id="linearGradient1295"
       gradientUnits="userSpaceOnUse"
       gradientTransform="matrix(0.5157559,0.05474891,-0.05474891,0.5157559,-44.334545,-58.811484)"
       x1="132.10901"
       y1="575.51141"
       x2="1068.3112"
       y2="320.25305" />
    <linearGradient
       xlink:href="#linearGradient29544"
       id="linearGradient1297"
       gradientUnits="userSpaceOnUse"
       gradientTransform="matrix(0.5157559,0.05474891,-0.05474891,0.5157559,-44.334545,-58.811484)"
       x1="132.10901"
       y1="575.51141"
       x2="1068.3112"
       y2="320.25305" />
    <linearGradient
       xlink:href="#linearGradient29544"
       id="linearGradient1299"
       gradientUnits="userSpaceOnUse"
       gradientTransform="matrix(0.5157559,0.05474891,-0.05474891,0.5157559,-44.334545,-58.811484)"
       x1="132.10901"
       y1="575.51141"
       x2="1068.3112"
       y2="320.25305" />
    <linearGradient
       xlink:href="#linearGradient29544"
       id="linearGradient1301"
       gradientUnits="userSpaceOnUse"
       gradientTransform="matrix(0.5157559,0.05474891,-0.05474891,0.5157559,-44.334545,-58.811484)"
       x1="132.10901"
       y1="575.51141"
       x2="1068.3112"
       y2="320.25305" />
    <linearGradient
       xlink:href="#linearGradient29544"
       id="linearGradient1303"
       gradientUnits="userSpaceOnUse"
       gradientTransform="matrix(0.5157559,0.05474891,-0.05474891,0.5157559,-44.334545,-58.811484)"
       x1="132.10901"
       y1="575.51141"
       x2="1068.3112"
       y2="320.25305" />
    <linearGradient
       xlink:href="#linearGradient29544"
       id="linearGradient1305"
       gradientUnits="userSpaceOnUse"
       gradientTransform="matrix(0.5157559,0.05474891,-0.05474891,0.5157559,-44.334545,-58.811484)"
       x1="132.10901"
       y1="575.51141"
       x2="1068.3112"
       y2="320.25305" />
    <linearGradient
       xlink:href="#linearGradient29544"
       id="linearGradient1307"
       gradientUnits="userSpaceOnUse"
       gradientTransform="matrix(0.5157559,0.05474891,-0.05474891,0.5157559,-44.334545,-58.811484)"
       x1="132.10901"
       y1="575.51141"
       x2="1068.3112"
       y2="320.25305" />
    <linearGradient
       xlink:href="#linearGradient29544"
       id="linearGradient1309"
       gradientUnits="userSpaceOnUse"
       gradientTransform="matrix(0.5157559,0.05474891,-0.05474891,0.5157559,-44.334545,-58.811484)"
       x1="132.10901"
       y1="575.51141"
       x2="1068.3112"
       y2="320.25305" />
    <linearGradient
       xlink:href="#linearGradient29544"
       id="linearGradient1311"
       gradientUnits="userSpaceOnUse"
       gradientTransform="matrix(0.5157559,0.05474891,-0.05474891,0.5157559,-44.334545,-58.811484)"
       x1="132.10901"
       y1="575.51141"
       x2="1068.3112"
       y2="320.25305" />
    <linearGradient
       xlink:href="#linearGradient29544"
       id="linearGradient1313"
       gradientUnits="userSpaceOnUse"
       gradientTransform="matrix(0.5157559,0.05474891,-0.05474891,0.5157559,-44.334545,-58.811484)"
       x1="132.10901"
       y1="575.51141"
       x2="1068.3112"
       y2="320.25305" />
    <linearGradient
       xlink:href="#linearGradient29544"
       id="linearGradient1315"
       gradientUnits="userSpaceOnUse"
       gradientTransform="matrix(0.5157559,0.05474891,-0.05474891,0.5157559,-44.334545,-58.811484)"
       x1="132.10901"
       y1="575.51141"
       x2="1068.3112"
       y2="320.25305" />
    <linearGradient
       xlink:href="#linearGradient29544"
       id="linearGradient1317"
       gradientUnits="userSpaceOnUse"
       gradientTransform="matrix(0.5157559,0.05474891,-0.05474891,0.5157559,-44.334545,-58.811484)"
       x1="132.10901"
       y1="575.51141"
       x2="1068.3112"
       y2="320.25305" />
    <linearGradient
       xlink:href="#linearGradient29544"
       id="linearGradient1319"
       gradientUnits="userSpaceOnUse"
       gradientTransform="matrix(0.5157559,0.05474891,-0.05474891,0.5157559,-44.334545,-58.811484)"
       x1="132.10901"
       y1="575.51141"
       x2="1068.3112"
       y2="320.25305" />
    <linearGradient
       xlink:href="#linearGradient29544"
       id="linearGradient1321"
       gradientUnits="userSpaceOnUse"
       gradientTransform="matrix(0.5157559,0.05474891,-0.05474891,0.5157559,-44.334545,-58.811484)"
       x1="132.10901"
       y1="575.51141"
       x2="1068.3112"
       y2="320.25305" />
    <linearGradient
       xlink:href="#linearGradient29544"
       id="linearGradient1323"
       gradientUnits="userSpaceOnUse"
       gradientTransform="matrix(0.5157559,0.05474891,-0.05474891,0.5157559,-44.334545,-58.811484)"
       x1="132.10901"
       y1="575.51141"
       x2="1068.3112"
       y2="320.25305" />
    <linearGradient
       xlink:href="#linearGradient29544"
       id="linearGradient1325"
       gradientUnits="userSpaceOnUse"
       gradientTransform="matrix(0.5157559,0.05474891,-0.05474891,0.5157559,-44.334545,-58.811484)"
       x1="132.10901"
       y1="575.51141"
       x2="1068.3112"
       y2="320.25305" />
    <linearGradient
       xlink:href="#linearGradient29544"
       id="linearGradient1327"
       gradientUnits="userSpaceOnUse"
       gradientTransform="matrix(0.5157559,0.05474891,-0.05474891,0.5157559,-44.334545,-58.811484)"
       x1="132.10901"
       y1="575.51141"
       x2="1068.3112"
       y2="320.25305" />
    <linearGradient
       xlink:href="#linearGradient29544"
       id="linearGradient1329"
       gradientUnits="userSpaceOnUse"
       gradientTransform="matrix(0.5157559,0.05474891,-0.05474891,0.5157559,-44.334545,-58.811484)"
       x1="132.10901"
       y1="575.51141"
       x2="1068.3112"
       y2="320.25305" />
    <linearGradient
       xlink:href="#linearGradient29544"
       id="linearGradient1331"
       gradientUnits="userSpaceOnUse"
       gradientTransform="matrix(0.5157559,0.05474891,-0.05474891,0.5157559,-44.334545,-58.811484)"
       x1="132.10901"
       y1="575.51141"
       x2="1068.3112"
       y2="320.25305" />
    <linearGradient
       xlink:href="#linearGradient29544"
       id="linearGradient1333"
       gradientUnits="userSpaceOnUse"
       gradientTransform="matrix(0.5157559,0.05474891,-0.05474891,0.5157559,-44.334545,-58.811484)"
       x1="132.10901"
       y1="575.51141"
       x2="1068.3112"
       y2="320.25305" />
    <linearGradient
       xlink:href="#linearGradient29544"
       id="linearGradient1335"
       gradientUnits="userSpaceOnUse"
       gradientTransform="matrix(0.5157559,0.05474891,-0.05474891,0.5157559,-44.334545,-58.811484)"
       x1="132.10901"
       y1="575.51141"
       x2="1068.3112"
       y2="320.25305" />
    <linearGradient
       xlink:href="#linearGradient29544"
       id="linearGradient1337"
       gradientUnits="userSpaceOnUse"
       gradientTransform="matrix(0.5157559,0.05474891,-0.05474891,0.5157559,-44.334545,-58.811484)"
       x1="132.10901"
       y1="575.51141"
       x2="1068.3112"
       y2="320.25305" />
    <linearGradient
       xlink:href="#linearGradient29544"
       id="linearGradient1339"
       gradientUnits="userSpaceOnUse"
       gradientTransform="matrix(0.5157559,0.05474891,-0.05474891,0.5157559,-44.334545,-58.811484)"
       x1="132.10901"
       y1="575.51141"
       x2="1068.3112"
       y2="320.25305" />
    <linearGradient
       xlink:href="#linearGradient29544"
       id="linearGradient1341"
       gradientUnits="userSpaceOnUse"
       gradientTransform="matrix(0.5157559,0.05474891,-0.05474891,0.5157559,-44.334545,-58.811484)"
       x1="132.10901"
       y1="575.51141"
       x2="1068.3112"
       y2="320.25305" />
    <linearGradient
       xlink:href="#linearGradient29544"
       id="linearGradient1343"
       gradientUnits="userSpaceOnUse"
       gradientTransform="matrix(0.5157559,0.05474891,-0.05474891,0.5157559,-44.334545,-58.811484)"
       x1="132.10901"
       y1="575.51141"
       x2="1068.3112"
       y2="320.25305" />
    <linearGradient
       xlink:href="#linearGradient29544"
       id="linearGradient1345"
       gradientUnits="userSpaceOnUse"
       gradientTransform="matrix(0.5157559,0.05474891,-0.05474891,0.5157559,-44.334545,-58.811484)"
       x1="132.10901"
       y1="575.51141"
       x2="1068.3112"
       y2="320.25305" />
    <linearGradient
       xlink:href="#linearGradient29544"
       id="linearGradient1347"
       gradientUnits="userSpaceOnUse"
       gradientTransform="matrix(0.5157559,0.05474891,-0.05474891,0.5157559,-44.334545,-58.811484)"
       x1="132.10901"
       y1="575.51141"
       x2="1068.3112"
       y2="320.25305" />
    <linearGradient
       xlink:href="#linearGradient29544"
       id="linearGradient1349"
       gradientUnits="userSpaceOnUse"
       gradientTransform="matrix(0.5157559,0.05474891,-0.05474891,0.5157559,-44.334545,-58.811484)"
       x1="132.10901"
       y1="575.51141"
       x2="1068.3112"
       y2="320.25305" />
    <linearGradient
       xlink:href="#linearGradient25627"
       id="linearGradient25349-5"
       x1="-19.32687"
       y1="174.87611"
       x2="365.09894"
       y2="71.86953"
       gradientUnits="userSpaceOnUse"
       gradientTransform="matrix(1.5861728,0,0,1.5861728,-78.223859,-19.40414)" />
    <linearGradient
       xlink:href="#linearGradient14653"
       id="linearGradient14655-0"
       x1="-46.183235"
       y1="706.05402"
       x2="1721.9431"
       y2="445.6926"
       gradientUnits="userSpaceOnUse"
       gradientTransform="matrix(0.41967495,0,0,0.41967495,-78.223859,-19.40414)" />
    <linearGradient
       xlink:href="#linearGradient4549-9"
       id="linearGradient4687-8-0"
       x1="1155.105"
       y1="262.50851"
       x2="93.583733"
       y2="615.88306"
       gradientUnits="userSpaceOnUse"
       gradientTransform="matrix(0.51134494,0.05428063,-0.05428063,0.51134494,-43.988644,-44.759833)" />
    <linearGradient
       id="linearGradient4549-9">
      <stop
         style="stop-color:#8b5cf6;stop-opacity:1"
         offset="0"
         id="stop4545-6" />
      <stop
         style="stop-color:#6d28d9;stop-opacity:1"
         offset="0.2124767"
         id="stop3695" />
      <stop
         style="stop-color:#6f5cf6;stop-opacity:1"
         offset="0.42963988"
         id="stop3369" />
      <stop
         style="stop-color:#7c3aed;stop-opacity:1"
         offset="0.59961361"
         id="stop3629" />
      <stop
         style="stop-color:#6376f6;stop-opacity:1"
         offset="0.80968213"
         id="stop3499" />
      <stop
         style="stop-color:#6d28d9;stop-opacity:1"
         offset="1"
         id="stop4547-3" />
    </linearGradient>
    <linearGradient
       xlink:href="#linearGradient120453"
       id="linearGradient4479-5-0"
       x1="1143.1901"
       y1="196.74675"
       x2="120.85666"
       y2="539.48602"
       gradientUnits="userSpaceOnUse"
       gradientTransform="matrix(0.51134494,0.05428063,-0.05428063,0.51134494,-43.988644,-44.759833)" />
    <linearGradient
       id="linearGradient120453">
      <stop
         style="stop-color:#8b5cf6;stop-opacity:1"
         offset="0"
         id="stop120441" />
      <stop
         style="stop-color:#5151dc;stop-opacity:1"
         offset="0.25152168"
         id="stop120443" />
      <stop
         style="stop-color:#3b82f6;stop-opacity:1"
         offset="0.44539982"
         id="stop120445" />
      <stop
         style="stop-color:#8b69f6;stop-opacity:1"
         offset="0.63944036"
         id="stop120447" />
      <stop
         style="stop-color:#60a5fa;stop-opacity:1"
         offset="0.83593452"
         id="stop120449" />
      <stop
         style="stop-color:#60a5fa;stop-opacity:1"
         offset="1"
         id="stop120451" />
    </linearGradient>
    <linearGradient
       xlink:href="#linearGradient1509"
       id="linearGradient6948-5"
       gradientUnits="userSpaceOnUse"
       gradientTransform="matrix(0.51421789,0,0,0.51421789,-88.323669,-63.529189)"
       x1="466.89359"
       y1="475.49548"
       x2="1404.4065"
       y2="195.51314" />
    <linearGradient
       xlink:href="#linearGradient10986-5"
       id="linearGradient12309-5-3"
       gradientUnits="userSpaceOnUse"
       x1="1181.7125"
       y1="252.36546"
       x2="861.3941"
       y2="436.60165"
       gradientTransform="matrix(0.51421789,0,0,0.51421789,-88.323669,-61.884186)" />
    <linearGradient
       id="linearGradient10986-5">
      <stop
         style="stop-color:#7e5af0;stop-opacity:1"
         offset="0"
         id="stop10982-8" />
      <stop
         style="stop-color:#7c61ee;stop-opacity:1"
         offset="0.49538255"
         id="stop136405" />
      <stop
         style="stop-color:#4c6fe2;stop-opacity:1"
         offset="1"
         id="stop10984-7" />
    </linearGradient>
    <linearGradient
       xlink:href="#linearGradient4685-3-7"
       id="linearGradient4551-1-1"
       x1="1112.811"
       y1="69.067085"
       x2="89.147026"
       y2="487.89313"
       gradientUnits="userSpaceOnUse"
       gradientTransform="matrix(0.51134494,0.05428063,-0.05428063,0.51134494,-43.988644,-44.759833)" />
    <linearGradient
       id="linearGradient4685-3-7">
      <stop
         style="stop-color:#60a5fa;stop-opacity:1"
         offset="0"
         id="stop4681-8-1" />
      <stop
         style="stop-color:#365fd8;stop-opacity:1"
         offset="0.23215981"
         id="stop17498" />
      <stop
         style="stop-color:#3b82f6;stop-opacity:1"
         offset="0.43870947"
         id="stop26809-2" />
      <stop
         style="stop-color:#4d4eeb;stop-opacity:1"
         offset="0.65562975"
         id="stop12917" />
      <stop
         style="stop-color:#60a5fa;stop-opacity:1"
         offset="1"
         id="stop4683-5-3" />
    </linearGradient>
    <linearGradient
       xlink:href="#linearGradient29544"
       id="linearGradient24274-6"
       gradientUnits="userSpaceOnUse"
       gradientTransform="matrix(0.51134494,0.05428064,-0.05428064,0.51134494,-43.988644,-44.759833)"
       x1="132.10901"
       y1="575.51141"
       x2="1068.3112"
       y2="320.25305" />
    <linearGradient
       xlink:href="#linearGradient4477-8"
       id="linearGradient118139"
       x1="100.59962"
       y1="115.7887"
       x2="345.10434"
       y2="-9.8373604"
       gradientUnits="userSpaceOnUse"
       gradientTransform="matrix(1.3993239,0,0,1.3993239,0.4275058,7.4297705)" />
    <linearGradient
       id="linearGradient4477-8">
      <stop
         style="stop-color:#8b5cf6;stop-opacity:1"
         offset="0"
         id="stop4473-2" />
      <stop
         style="stop-color:#5151dc;stop-opacity:1"
         offset="0.25152168"
         id="stop55155" />
      <stop
         style="stop-color:#3b82f6;stop-opacity:1"
         offset="0.44539982"
         id="stop41682" />
      <stop
         style="stop-color:#8b5cf6;stop-opacity:1"
         offset="0.63944036"
         id="stop94918" />
      <stop
         style="stop-color:#60a5fa;stop-opacity:1"
         offset="0.83593452"
         id="stop98531" />
      <stop
         style="stop-color:#60a5fa;stop-opacity:1"
         offset="1"
         id="stop4475-7" />
    </linearGradient>
    <linearGradient
       xlink:href="#linearGradient25627"
       id="linearGradient161031"
       x1="-12.419965"
       y1="169.75165"
       x2="373.66388"
       y2="-5.8339572"
       gradientUnits="userSpaceOnUse"
       gradientTransform="matrix(1.3993239,0,0,1.3993239,0.4275058,-1.4429506)" />
  </defs>
  <rect
     style="fill:#1b1e20;fill-opacity:1;stroke:none;stroke-width:0.198437;stroke-linecap:round;stroke-linejoin:round;paint-order:stroke fill markers;stop-color:#000000"
     id="rect3074-7"
     width="508.00003"
     height="285.75"
     x="2.3623743e-06"
     y="9.8661801e-08" />
  <path
     id="path145852"
     style="fill:url(#linearGradient161031);fill-opacity:1;stroke:none;stroke-width:0.136053px;stroke-linecap:butt;stroke-linejoin:miter;stroke-opacity:1"
     d="M 512.69127,-16.412778 C 436.71825,-6.8590897 442.16872,91.683706 372.29666,102.94937 325.84806,105.55792 311.10343,91.061105 275.76079,99.959448 233.66242,110.55871 208.54174,148.88383 172.57001,152.34431 134.04065,156.05077 90.220665,136.68654 48.4326,156.58 22.487189,168.93147 10.388201,200.49628 -4.7912587,223.06723 v 28.86491 C 29.254432,232.41248 58.805802,202.55725 83.375229,194.77451 c 25.041531,-7.93227 50.757561,-3.27625 76.955961,-2.64301 23.07301,0.55767 47.04983,-15.44523 70.84631,-17.02515 47.57517,-3.15884 98.99413,9.04759 145.61987,1.43178 45.25418,-7.39176 77.34373,-44.00279 119.99323,-54.80822 5.17366,-1.31077 10.49006,-2.07085 15.90067,-2.46801 z" />
  <path
     id="path3392-9"
     style="fill:none;stroke:url(#linearGradient118139);stroke-width:0.136053px;stroke-linecap:butt;stroke-linejoin:miter;stroke-opacity:1"
     d="m 138.57461,187.65874 c 0,0 39.44987,-6.42501 59.20474,-9.44597 28.34069,-4.3339 57.02506,-6.66106 85.10437,-12.45159 28.06642,-5.78786 56.4177,-11.64023 83.04916,-22.22273 34.42606,-13.67982 63.83178,-37.99739 97.79326,-52.792949 15.78684,-6.877648 48.9271,-16.579315 48.9271,-16.579315 M 137.73338,186.89144 c 0,0 39.79154,-6.34398 59.6755,-9.58886 28.33605,-4.62417 56.89511,-8.08928 84.97398,-14.08019 28.12381,-6.00051 56.79321,-11.08557 83.45438,-21.86224 34.20639,-13.82654 62.96834,-38.81741 96.4891,-54.231985 16.23903,-7.467548 50.37061,-18.38573 50.37061,-18.38573 M 136.89213,186.12412 c 0,0 40.13468,-6.25974 60.14497,-9.72998 28.33907,-4.91465 56.75745,-9.51242 84.84471,-15.70613 28.18078,-6.21436 57.1716,-10.52811 83.85973,-21.50616 33.9857,-13.97986 62.07639,-39.66526 95.15143,-55.681012 16.67929,-8.07652 51.78394,-20.230683 51.78394,-20.230683 M 136.05087,185.35673 c 0,0 40.47931,-6.17247 60.6132,-9.86935 28.34973,-5.20543 56.61229,-10.93061 84.71668,-17.32956 28.23731,-6.42921 57.55478,-9.96338 84.26512,-21.15434 33.80064,-14.16159 61.20765,-40.614197 93.86901,-57.235563 17.15155,-8.728422 53.3122,-22.159847 53.3122,-22.159847 M 135.20964,184.58944 c 0,0 40.82539,-6.0825 61.08015,-10.00714 28.36794,-5.49666 56.45972,-12.34404 84.58988,-18.95057 28.29336,-6.64487 57.9389,-9.40096 84.67055,-20.80655 33.57692,-14.32626 60.25471,-41.50516 92.46073,-58.693028 17.56244,-9.372797 54.65518,-24.070932 54.65518,-24.070932 M 134.3684,183.82212 c 0,0 41.17289,-5.98998 61.54589,-10.14332 28.39359,-5.78846 56.29985,-13.75291 84.46435,-20.56938 28.34893,-6.86112 58.32768,-8.83211 85.07591,-20.46259 33.38683,-14.51701 59.31989,-42.485756 91.10147,-60.244002 17.99944,-10.057347 56.10009,-26.0566 56.10009,-26.0566 M 133.52715,183.05474 c 0,0 41.52182,-5.89515 62.01041,-10.278 28.42665,-6.08096 56.13281,-15.15742 84.34009,-22.18616 28.404,-7.07775 58.71983,-8.25991 85.48121,-20.12204 33.20806,-14.71964 58.37059,-43.505201 89.73688,-61.82452 18.43333,-10.765894 57.55527,-28.08236 57.55527,-28.08236 M 132.68592,182.28742 c 0,0 41.87209,-5.7983 62.4737,-10.41137 28.46697,-6.37427 55.95867,-16.55792 84.21705,-23.80121 28.45861,-7.29461 59.11532,-7.68485 85.88655,-19.78465 33.04063,-14.93339 57.40655,-44.559317 88.3674,-63.430334 18.86264,-11.496999 59.01895,-30.14271 59.01895,-30.14271 M 131.84466,181.52013 c 0,0 42.22368,-5.69967 62.93575,-10.54353 28.51446,-6.66857 55.77743,-17.95476 84.09514,-25.41484 28.51278,-7.51146 59.51396,-7.10733 86.29201,-19.44983 32.88357,-15.15664 56.42654,-45.641188 86.99142,-65.053575 19.28466,-12.248086 60.48516,-32.229914 60.48516,-32.229914 M 131.00339,180.75277 c 0,0 42.57653,-5.59945 63.39652,-10.67457 28.569,-6.96403 55.58912,-19.34844 83.97428,-27.02751 28.56657,-7.72816 59.91564,-6.52765 86.6977,-19.11707 32.73856,-15.38938 55.43329,-46.749582 85.61416,-66.69353 19.70019,-13.018162 61.95941,-34.338961 61.95941,-34.338961 M 130.16217,179.98545 c 0,0 42.93056,-5.49787 63.85605,-10.80456 28.63044,-7.26065 55.39394,-20.7388 83.85452,-28.63908 28.61995,-7.9445 60.30377,-5.98061 87.10349,-18.78652 32.18641,-15.37986 53.88391,-46.998939 83.27403,-67.215909 19.62761,-13.501489 61.80788,-35.882933 61.80788,-35.882933 l 1.29928,-0.872954 1.29927,-0.872968 M 129.32092,179.2181 c 0,0 43.28584,-5.39492 64.31448,-10.93319 28.69882,-7.55832 55.1923,-22.12523 83.73624,-30.24892 28.67289,-8.1604 60.72809,-5.36267 87.50892,-18.459 32.48345,-15.88503 53.40149,-49.040566 82.84591,-70.029473 C 468.23323,34.929662 512.65023,10.91098 512.65023,10.91098 M 128.47966,178.4508 c 0,0 43.64206,-5.29138 64.77136,-11.06161 28.77371,-7.85787 54.98318,-23.51072 83.61818,-31.85985 28.72579,-8.3756 61.13795,-4.77881 87.91569,-18.13071 32.37217,-16.14138 52.36784,-50.202364 81.46338,-71.695406 C 467.1427,30.268388 512.65578,4.9190616 512.65578,4.9190616 M 127.63842,177.68345 c 0,0 43.99918,-5.18733 65.22671,-11.18972 28.85505,-8.15918 54.76673,-24.89501 83.50049,-33.47157 28.77862,-8.58996 61.54969,-4.19472 88.32361,-17.80181 32.26935,-16.400008 51.3225,-51.362675 80.08114,-73.344752 21.26862,-16.256982 67.88341,-42.9141999 67.88341,-42.9141999 M 126.7972,176.91613 c 0,0 44.3571,-5.083 65.68046,-11.31767 28.94269,-8.46247 54.54287,-26.27858 83.38291,-35.08454 28.83153,-8.80338 61.96317,-3.61066 88.73299,-17.47189 C 396.7694,96.3816 414.8623,60.522652 443.29748,38.066148 464.92785,20.983706 512.65331,-6.9551113 512.65331,-6.9551113 M 125.95591,176.1488 c 0,0 44.71576,-4.97861 66.13258,-11.44563 29.03651,-8.76784 54.31158,-27.66178 83.26536,-36.69909 28.88465,-9.01572 62.37811,-3.02686 89.14402,-17.14037 32.09102,-16.921411 49.20808,-53.667755 77.33323,-76.583755 21.97938,-17.908505 70.82368,-47.098569 70.82368,-47.098569 M 125.1147,175.38148 c 0,0 45.07503,-4.87436 66.58295,-11.57367 29.13634,-9.07542 54.07278,-29.04497 83.14763,-38.31547 28.93804,-9.22691 62.79422,-2.44363 89.55692,-16.80692 32.01291,-17.181023 48.14047,-54.800909 75.96751,-78.160494 22.31405,-18.731672 72.28107,-49.138378 72.28107,-49.138378 M 124.27344,174.61413 c 0,0 45.43488,-4.7704 67.03159,-11.70193 29.24204,-9.3853 53.82637,-30.42849 83.02955,-39.93408 28.99189,-9.43682 63.21135,-1.86102 89.97198,-16.47105 31.94276,-17.439246 47.0699,-55.918778 74.61251,-79.706851 22.63657,-19.5508074 73.73477,-51.137242 73.73477,-51.137242 M 123.4322,173.84681 c 0,0 45.79519,-4.66698 67.47838,-11.83051 29.35352,-9.69759 53.57234,-31.81257 82.91099,-41.55505 29.0463,-9.64539 63.62926,-1.27922 90.38933,-16.13247 31.8778,-17.693876 45.9953,-57.013731 73.26471,-81.213876 22.94476,-20.3622477 75.176,-53.087816 75.176,-53.087816 M 122.59097,173.07947 c 0,0 46.15585,-4.56422 67.92327,-11.95951 29.47061,-10.01237 53.31062,-33.19753 82.79182,-43.17868 29.10135,-9.85256 64.04773,-0.69827 90.80918,-15.79085 31.81847,-17.944571 44.91966,-58.084919 71.9279,-82.681199 23.24018,-21.1647315 76.60878,-54.986894 76.60878,-54.986894 M 121.74973,172.31215 c 0,0 46.5168,-4.46225 68.36625,-12.08899 29.59317,-10.32971 53.04112,-34.58356 82.67182,-44.80513 29.1572,-10.05826 64.46662,-0.1181 91.23174,-15.445918 31.76336,-18.190106 43.84352,-59.128376 70.60152,-84.10439 23.52247,-21.9559382 78.02998,-56.830014 78.02998,-56.830014 M 120.90847,171.54484 c 0,0 46.87796,-4.36127 68.80726,-12.21901 29.72108,-10.6497 52.76389,-35.97086 82.55096,-46.43459 29.21399,-10.26241 64.88582,0.46112 91.65718,-15.097428 31.71187,-18.429795 42.76829,-60.142074 69.28657,-85.481381 23.79215,-22.734367 79.43957,-58.614096 79.43957,-58.614096 M 120.06722,170.7775 c 0,0 47.23923,-4.26137 69.24623,-12.34963 29.85425,-10.97237 52.47892,-37.35964 82.42916,-48.06721 29.2718,-10.464994 65.30519,1.0397 92.08563,-14.745148 31.6634,-18.66295 41.69535,-61.124287 67.98401,-86.810528 24.04981,-23.498678 80.83759,-60.336692 80.83759,-60.336692 M 119.22596,170.01016 c 0,0 47.60057,-4.16265 69.68317,-12.4809 29.99249,-11.29778 52.18612,-38.75004 82.30622,-49.70309 29.33069,-10.666 65.72465,1.61763 92.51722,-14.388971 C 395.34971,74.548271 404.35805,31.364016 430.42649,5.3472547 454.72228,-18.90037 512.64952,-56.648461 512.64952,-56.648461 M 118.38473,169.24283 c 0,0 47.96184,-4.06529 70.11802,-12.61285 30.13574,-11.62599 51.88555,-40.14215 82.18211,-51.34233 29.39083,-10.865355 66.14416,2.19507 92.95204,-14.028779 31.57226,-19.107208 39.55938,-62.987374 65.41618,-89.3183263 24.5304,-24.9802127 83.5949,-63.5897837 83.5949,-63.5897837 M 117.54349,168.47551 c 0,0 48.323,-3.96932 70.55077,-12.74553 30.28383,-11.957 51.57722,-41.53611 82.05676,-52.98502 29.45229,-11.063045 66.56364,2.77221 93.39022,-13.664402 C 395.07004,69.762905 402.0399,25.21347 427.69374,-1.4157897 452.44859,-27.111868 512.649,-66.534325 512.649,-66.534325 M 116.70223,167.70813 c 0,0 48.68399,-3.87484 70.9814,-12.87888 30.43669,-12.29084 51.26121,-42.93195 81.93018,-54.63116 29.51511,-11.25906 66.98311,3.34925 93.83175,-13.295846 31.48513,-19.519574 37.4424,-64.710096 62.90019,-91.6216135 24.96847,-26.3942575 86.29983,-66.5812945 86.29983,-66.5812945 M 115.86098,166.94083 c 0,0 49.04474,-3.782 71.40988,-13.01306 30.59419,-12.62755 50.93746,-44.32981 81.80218,-56.280887 29.57947,-11.453396 67.40256,3.926317 94.27682,-12.92298 31.44269,-19.713563 36.39393,-65.51934 61.66406,-92.6981699 25.17388,-27.0753081 87.63576,-67.9790251 87.63576,-67.9790251 M 115.01976,166.17351 c 0,0 49.40516,-3.69077 71.83621,-13.14794 30.7562,-12.96711 50.60616,-45.72961 81.6729,-57.934048 29.64533,-11.646041 67.82204,4.503696 94.72534,-12.545919 31.39923,-19.898833 35.35088,-66.292004 60.43914,-93.722908 25.3695,-27.738406 88.95575,-69.312004 88.95575,-69.312004" />
  <path
     id="path22726-3"
     style="font-variation-settings:normal;vector-effect:none;fill:none;fill-opacity:1;stroke:url(#linearGradient24274-6);stroke-width:0.408158;stroke-linecap:butt;stroke-linejoin:miter;stroke-miterlimit:4;stroke-dasharray:none;stroke-dashoffset:0;stroke-opacity:1;stop-color:#000000"
     d="m -2.3439112,267.3998 c 27.9534962,-7.22514 57.9078152,-49.78195 88.5485452,-54.35995 36.152916,-5.40156 65.591616,25.56809 103.060636,26.28313 62.06352,1.18448 91.79404,-62.18529 167.67053,-18.52426 33.04087,19.01246 89.30183,2.29398 120.05034,-34.82543 M -2.646487,266.75364 c 27.663626,-7.41732 57.298116,-50.64373 88.247214,-55.08009 36.018713,-5.24549 66.011843,25.42138 103.858543,25.78632 61.23193,0.96571 91.2843,-61.16485 166.10542,-18.69557 33.28845,18.43622 88.44047,2.09736 119.60692,-33.98069 M -2.9490628,266.10747 C 24.424679,258.49802 53.739368,214.6019 84.996821,210.30723 c 35.884559,-5.08942 66.432119,25.27475 104.656429,25.28944 60.40037,0.747 90.77462,-60.14437 164.54033,-18.86682 33.53593,17.85998 87.57909,1.90073 119.16348,-33.13591 M -3.2516386,265.46131 C 23.832248,257.65968 52.827106,213.0939 84.392887,208.94092 c 35.750413,-4.93327 66.852363,25.12811 105.454353,24.79263 59.5688,0.52821 90.26491,-59.12396 162.97521,-19.03805 33.78346,17.28366 86.71784,1.70397 118.72012,-32.29123 M -3.5542284,264.81514 c 26.7940164,-7.99374 55.4690734,-53.2292 87.3432094,-57.24053 35.616279,-4.77717 67.272639,24.98144 106.252249,24.29586 58.73726,0.3094 89.75519,-58.10357 161.41013,-19.20934 34.03099,16.70736 85.85646,1.5073 118.27664,-31.44658 M -3.8568042,264.16897 C 22.647342,255.9831 51.00257,210.07794 83.185061,206.20824 c 35.482109,-4.62107 67.692849,24.83488 107.050169,23.79905 57.90564,0.0905 89.24549,-57.08308 159.845,-19.3806 34.27847,16.13111 84.99513,1.31067 117.83315,-30.60178 m -472.07276,83.4979 c 26.214262,-8.37798 54.249689,-54.95284 86.740534,-58.68085 35.347986,-4.46504 68.113096,24.68814 107.848066,23.30219 57.07411,-0.12804 88.7358,-56.06264 158.27992,-19.55189 34.526,15.55485 84.1338,1.11405 117.38974,-29.75707 M -4.4619558,262.87663 C 21.462437,254.3065 49.178047,207.06198 81.977248,203.47562 c 35.213802,-4.30889 68.533362,24.54153 108.645932,22.80537 56.24256,-0.34679 88.2261,-55.04218 156.71483,-19.72309 34.77355,14.9785 83.27248,0.91734 116.94627,-28.91236 M -4.7645456,262.23046 c 25.6345366,-8.76228 53.0303176,-56.67644 86.1378736,-60.12114 35.079652,-4.15277 68.953602,24.39482 109.443822,22.30856 55.41097,-0.5656 87.71635,-54.0218 155.14973,-19.89437 35.02108,14.40223 82.41114,0.72068 116.50287,-28.06768 M -4.7916505,261.48542 c 25.2654225,-9.20687 52.2662025,-57.45133 85.5610865,-60.74241 34.945514,-3.99671 69.373834,24.24816 110.241664,21.81172 54.57944,-0.78439 87.20672,-53.00135 153.58468,-20.06567 35.26857,13.82599 81.54979,0.52404 116.05939,-27.22287 M -4.7916785,260.72016 C 20.096808,251.03717 46.700446,202.5137 80.165515,199.37672 c 34.811355,-3.8406 69.794105,24.10151 111.039575,21.31485 53.74784,-1.00307 86.69704,-51.98088 152.01956,-20.23688 35.5161,13.24968 80.68849,0.32737 115.61602,-26.37823 M -4.7916225,259.9432 C 19.719942,249.77726 45.932064,200.99431 79.561595,198.01038 c 34.677195,-3.68452 70.214365,23.95486 111.837475,20.81806 52.91633,-1.22184 86.18736,-50.96043 150.45443,-20.40817 35.76362,12.6734 79.82717,0.13084 115.17264,-25.5335 M -4.7909089,259.15367 C 19.343636,248.49755 45.169824,199.47573 78.957689,196.64408 c 34.543011,-3.52839 70.634621,23.80818 112.635371,20.32123 52.08475,-1.44063 85.67764,-49.93998 148.88934,-20.5794 36.01117,12.09708 78.96578,-0.0662 114.72917,-24.68879 M -4.7913147,258.35165 C 18.966728,247.19993 44.413168,197.95813 78.353755,195.27774 c 34.408895,-3.37232 71.054895,23.66152 113.433305,19.82443 51.25314,-1.65935 85.16789,-48.91958 147.32428,-20.75068 36.25862,11.52081 78.10443,-0.26264 114.28565,-23.84404 M -4.7914546,257.53581 C 18.590296,245.88199 43.662864,196.44149 77.749863,193.91144 c 34.274727,-3.21623 71.475127,23.51487 114.231187,19.32756 50.42156,-1.87806 84.65819,-47.89907 145.75914,-20.92195 36.50617,10.9446 77.24311,-0.4592 113.84226,-22.99933 M -4.7914546,256.70537 C 18.214326,244.54339 42.919151,194.92584 77.145942,192.54511 c 34.140568,-3.06012 71.895418,23.36825 115.029098,18.83076 49.59,-2.09686 84.1485,-46.87867 144.19405,-21.09319 36.75371,10.36827 76.38182,-0.65598 113.39883,-22.15465 M -4.7915805,255.85979 C 17.838747,243.18387 42.1821,193.41122 76.542036,191.17878 c 34.006424,-2.904 72.315644,23.2216 115.826974,18.33396 48.75841,-2.31564 83.63878,-45.8582 142.62896,-21.26445 37.0012,9.79197 75.52045,-0.85263 112.95534,-21.30991 M -4.7917764,254.99803 C 17.463701,241.80287 41.452002,191.89774 75.938116,189.81248 c 33.872304,-2.74793 72.735904,23.07493 116.624874,17.83712 47.9269,-2.53438 83.12912,-44.83778 141.06384,-21.43569 37.24874,9.21567 74.65916,-1.04931 112.51194,-20.46525 M -4.7917205,254.11913 c 21.8812415,-13.71977 45.5209585,-63.7338 80.1259165,-65.67295 33.738134,-2.59188 73.156164,22.92826 117.422764,17.34027 47.09528,-2.75313 82.61942,-43.81736 139.49877,-21.60699 37.4962,8.63947 73.79777,-1.24594 112.06851,-19.62045 M -4.7914266,253.22198 c 21.5078046,-14.24939 44.8055256,-64.34791 79.5217026,-66.1421 33.603954,-2.43578 73.576404,22.78156 118.220664,16.84341 46.26374,-2.97188 82.10974,-42.79686 137.93368,-21.77821 37.74378,8.06312 72.9365,-1.44261 111.62504,-18.77576 m -447.3011566,88.9367 c 21.1354166,-14.78297 44.0980136,-64.942 78.9178656,-66.59251 33.469841,-2.27962 73.996671,22.63499 119.018531,16.34671 45.43221,-3.19071 81.60003,-41.77648 136.36862,-21.94954 37.99129,7.48686 72.0751,-1.6393 111.18164,-17.93104 M -4.7913706,251.36982 C 15.972721,236.04921 38.607079,185.8552 73.522463,184.34721 c 33.335647,-2.12354 74.416917,22.48832 119.816467,15.84985 44.60061,-3.40941 81.09029,-40.75603 134.80347,-22.12075 38.23881,6.91056 71.21379,-1.83599 110.73816,-17.08637 M -4.7918044,250.41281 C 15.60239,234.55161 37.915659,184.3477 72.918543,182.98087 c 33.201497,-1.96743 74.837167,22.34169 120.614327,15.35305 43.76911,-3.6282 80.58065,-39.73557 133.23843,-22.292 38.48631,6.33425 70.35243,-2.03264 110.29471,-16.24162 M -4.7916365,249.43289 C 15.233948,233.02776 37.233237,182.84154 72.314637,181.61456 c 33.067363,-1.81134 75.257413,22.19501 121.412223,14.85615 42.93749,-3.8469 80.07093,-38.71504 131.6733,-22.46323 38.73389,5.75805 69.49111,-2.2293 109.85132,-15.39692 M -4.7911747,248.42901 C 14.867353,231.47755 36.559924,181.33679 71.710716,180.24825 c 32.933204,-1.65522 75.677704,22.04836 122.210124,14.35934 42.10595,-4.06565 79.56124,-37.69468 130.1082,-22.63451 38.98135,5.18174 68.62985,-2.42595 109.40791,-14.55219 M -4.7916505,247.40097 C 14.501906,229.90236 35.895385,179.83353 71.106796,178.88192 c 32.799064,-1.49911 76.097934,21.90175 123.008034,13.86257 41.27433,-4.28448 79.05148,-36.67424 128.54309,-22.80579 39.2289,4.60541 67.76846,-2.62266 108.96446,-13.70748 M -4.7920003,246.34646 C 14.138571,228.29977 35.240501,178.33175 70.502904,177.51559 c 32.664906,-1.34304 76.518196,21.75508 123.805906,13.36571 40.4428,-4.50316 78.54179,-35.65375 126.97798,-22.97702 39.47643,4.02921 66.90714,-2.8193 108.52106,-12.86276 M -4.7910908,245.26292 C 13.778427,226.66718 34.596393,176.83159 69.898984,176.1493 c 32.530756,-1.18693 76.938396,21.60842 124.603816,12.86887 39.61125,-4.72193 78.03211,-34.63332 125.4129,-23.14831 39.72392,3.45295 66.0458,-3.01594 108.07757,-12.01801 M -4.7918184,244.15169 C 13.419571,225.00902 33.961589,175.33304 69.295064,174.783 c 32.396586,-1.03085 77.358686,21.4617 125.401716,12.37207 38.77966,-4.94073 77.52241,-33.61292 123.84784,-23.31961 39.97147,2.87665 65.18443,-3.21258 107.63408,-11.17329 M -4.7917345,243.00869 C 13.0641,223.32027 33.338023,173.83622 68.691157,173.41668 c 32.262433,-0.87478 77.778933,21.31509 126.199633,11.87519 37.94809,-5.15943 77.01269,-32.59244 122.28268,-23.49081 40.21897,2.30036 64.32315,-3.40927 107.19069,-10.32855 M -4.7917065,241.83323 C 12.711583,221.60204 32.725497,172.34117 68.087237,172.05035 c 32.128283,-0.71868 78.199213,21.1684 126.997513,11.3784 37.11651,-5.37814 76.50301,-31.572 120.7176,-23.66213 40.46648,1.72412 63.46181,-3.60586 106.74725,-9.48382 M -4.7915805,240.62335 C 12.362493,219.85328 32.124543,170.84799 67.483317,170.68402 c 31.994156,-0.56254 78.619443,21.02182 127.795413,10.88158 36.28497,-5.59695 75.99332,-30.55154 119.15251,-23.83333 40.71402,1.14781 62.6005,-3.80259 106.30385,-8.63916 M -4.7915665,239.37754 C 12.01693,218.07393 31.535386,169.35675 66.879425,169.31772 c 31.859946,-0.40645 79.039705,20.87513 128.593295,10.38473 35.45338,-5.81573 75.48357,-29.53108 117.58741,-24.0046 40.96152,0.57154 61.73919,-3.99927 105.86039,-7.79439 M -4.7916085,238.094 C 11.675299,216.26337 30.958458,167.86757 66.275505,167.95141 c 31.725835,-0.25038 79.459945,20.72846 129.391155,9.88794 34.62185,-6.03447 74.97394,-28.51066 116.02238,-24.17588 41.20901,-10e-4 60.87778,-4.1959 105.41691,-6.94971 M -4.7918464,236.77095 C 11.337796,214.42137 30.394055,166.38043 65.671598,166.58509 c 31.591654,-0.094 79.880242,20.58182 130.189042,9.3911 33.79028,-6.25318 74.46428,-27.49022 114.45725,-24.34716 41.45656,-0.58102 60.01651,-4.39254 104.97353,-6.10495 M -4.7920143,235.40619 C 11.004995,212.54703 29.842791,164.89552 65.067678,165.21876 c 31.457529,0.0618 80.300452,20.43513 130.986942,8.89428 32.95877,-6.47199 73.95458,-26.4698 112.89215,-24.51837 41.70407,-1.15734 59.15518,-4.58928 104.53007,-5.26028 M -4.7916085,233.99696 C 10.677693,210.63901 29.305465,163.41288 64.463772,163.85248 c 31.323348,0.21797 80.720728,20.28849 131.784878,8.39741 32.12712,-6.69077 73.44481,-25.44931 111.327,-24.68963 41.95163,-1.73362 58.29383,-4.78596 104.08665,-4.41555 M -4.7940294,232.54656 C 10.35354,208.70392 28.779837,161.93254 63.859852,162.48614 c 31.189222,0.37404 81.140968,20.14181 132.582758,7.90061 31.29556,-6.90947 72.9351,-24.42885 109.76198,-24.86089 42.1991,-2.30991 57.43245,-4.98259 103.64322,-3.57085 M -4.7949109,231.04638 C 10.036439,206.73274 28.269616,160.45472 63.255945,161.1198 c 31.055042,0.53013 81.561215,19.99527 133.380635,7.40382 30.46403,-7.12826 72.42543,-23.40844 108.19685,-25.0322 42.44666,-2.88616 56.57118,-5.17923 103.19976,-2.72608 M -4.7929099,229.49191 C 9.7279722,204.7225 27.77634,158.9795 62.652025,159.7535 c 30.92093,0.68624 81.981505,19.84854 134.178535,6.90696 29.63246,-7.34697 71.91572,-22.38802 106.63177,-25.20343 42.69413,-3.46245 55.70983,-5.37591 102.75633,-1.88142" />
  <path
     id="path2997-1-0"
     style="fill:url(#linearGradient4551-1-1);fill-opacity:1;stroke:none;stroke-width:0.136053px;stroke-linecap:butt;stroke-linejoin:miter;stroke-opacity:1"
     d="m 512.69127,-13.914607 c -75.97302,9.5536743 -70.52255,106.451873 -140.39461,117.717537 -46.4486,2.60853 -61.19323,-10.189836 -96.53587,-1.29149 -42.09837,10.59926 -67.21905,47.22596 -103.19078,50.68645 -38.52936,3.70646 -82.349345,-14.92276 -124.13741,4.97073 -25.945411,12.35147 -38.044399,43.80863 -53.2238587,66.37959 V 255.2953 C 29.254432,235.77564 58.805802,205.92041 83.375229,198.13768 c 25.041531,-7.93228 50.757561,-3.27625 76.955961,-2.64302 23.07301,0.55768 47.04983,-15.44523 70.84631,-17.02515 47.57517,-3.15884 98.99413,9.04759 145.61987,1.43179 45.25418,-7.39176 77.34373,-44.00281 119.99323,-54.80825 5.17366,-1.31076 10.49006,-2.07086 15.90067,-2.46801 z" />
  <path
     id="path6969-8-5"
     style="fill:url(#linearGradient12309-5-3);fill-opacity:1;stroke:none;stroke-width:0.136053px;stroke-linecap:butt;stroke-linejoin:miter;stroke-opacity:1"
     d="m 512.69154,52.471754 c -47.30192,6.285777 -71.17006,25.426457 -100.40722,65.490596 -34.70279,47.55376 -99.34162,29.00761 -99.34162,29.00761 l 76.28166,26.91084 123.46718,-22.47638 z" />
  <path
     id="path3305-6"
     style="fill:none;fill-opacity:1;stroke:url(#linearGradient6948-5);stroke-width:0.136053px;stroke-linecap:butt;stroke-linejoin:miter;stroke-opacity:1"
     d="m 149.54706,174.09953 c 11.2625,1.03624 40.41135,-0.55698 51.45321,-4.32556 56.15463,-27.33526 77.14193,-58.43186 141.1609,-39.85539 71.78279,20.82934 96.51766,-76.94675 170.63518,-87.771849 M 149.14221,196.10708 c 0,0 26.0324,-1.2857 62.49023,-3.4722 64.38516,-4.53622 84.13509,-3.33754 154.54919,15.77752 48.409,13.14142 100.21914,-49.94069 146.63107,-58.28664 m -363.65653,45.22246 c 0.38838,0.0357 26.52823,-1.26061 62.10962,-3.50165 64.07271,-5.4002 84.06907,-5.25154 154.0876,13.8591 C 414.23875,219.04828 465.98012,155.86031 512.81654,147 m -363.6464,47.58931 c 0.77675,0.0719 27.02403,-1.23546 61.72904,-3.53101 63.75898,-6.26204 83.9962,-7.17446 153.62586,11.94067 49.3688,13.55301 101.0352,-49.79034 148.28821,-59.1844 M 149.1841,193.83042 c 1.16508,0.10705 27.51988,-1.21028 61.34849,-3.56048 63.39049,-7.12286 84.00007,-9.08329 153.16419,10.0224 49.86022,13.77324 101.44408,-49.7799 149.10578,-59.72511 m -363.60449,52.50434 c 1.5534,0.14291 28.01569,-1.1852 60.96785,-3.5899 63.09245,-7.98383 83.90359,-11.02758 152.70253,8.10392 50.36708,14.006 101.86791,-49.82147 149.93694,-60.33436 m -363.5934,55.06145 c 1.94186,0.17875 28.51156,-1.16009 60.5873,-3.61931 62.8075,-8.84311 83.78654,-12.98576 152.24094,6.18556 50.889,14.25196 102.30295,-49.92058 150.77656,-61.0137 M 149.226,191.55379 c 2.33015,0.21435 29.00735,-1.13491 60.20665,-3.64871 62.49438,-9.67994 83.63616,-14.96187 151.77925,4.26722 51.42407,14.5112 102.74154,-50.08173 151.61422,-61.76257 m -363.58617,60.38515 c 2.71852,0.25016 29.50316,-1.10975 59.82613,-3.67812 62.17696,-10.52492 83.5286,-16.93522 151.31757,2.34887 51.97054,14.78418 103.17613,-50.31041 152.43975,-62.57972 m -363.56951,63.1501 c 3.10692,0.28588 29.99904,-1.08466 59.44553,-3.70753 61.85981,-11.36502 83.4092,-18.90439 150.85594,0.4304 52.56621,15.06904 103.57866,-50.6068 153.25522,-63.46592 m -363.54271,65.98417 c 3.49524,0.32157 30.49479,-1.0595 59.06494,-3.73698 61.54333,-12.1997 83.28419,-20.89267 150.39418,-1.48791 53.28714,15.40788 103.88038,-50.96062 154.06289,-64.42154 m -363.50803,68.88754 c 3.88362,0.35734 30.99063,-1.0344 58.68432,-3.76642 61.22794,-13.02886 83.15361,-22.90023 149.93258,-3.40628 53.93843,15.74558 104.29417,-51.43869 154.89623,-65.45452 m -363.49921,71.86836 c 4.27202,0.39306 31.48651,-1.00929 58.30378,-3.79586 60.91419,-13.85201 83.0153,-24.92248 149.47085,-5.32467 54.61644,16.10643 104.70271,-52.02095 155.72178,-66.55359 m -363.48246,74.91523 c 4.66036,0.42878 31.9823,-0.98415 57.92319,-3.82528 60.60268,-14.66864 82.86978,-26.96066 149.00925,-7.24307 55.32553,16.49374 105.11514,-52.7219 156.54887,-67.71746 m -363.46732,78.02693 c 5.04871,0.4645 32.47813,-0.95902 57.54258,-3.85472 60.29384,-15.47848 82.71675,-29.01577 148.54755,-9.1614 56.06578,16.90926 105.53459,-53.5544 157.37543,-68.93999 m -363.45159,81.19724 c 5.43709,0.50024 32.97392,-0.93391 57.16199,-3.88416 59.98841,-16.28115 82.55633,-31.08924 148.08588,-11.07975 56.83657,17.35509 105.96887,-54.53265 158.20139,-70.21358 M 149.3516,184.72383 c 5.82544,0.536 33.46983,-0.90875 56.78144,-3.91355 59.68686,-17.07665 82.38846,-33.18151 147.62425,-12.99818 57.63599,17.83204 106.42949,-55.67045 159.02708,-71.52855 m -363.41879,87.68138 c 6.21382,0.57173 33.96561,-0.88364 56.40083,-3.94294 59.38988,-17.86427 82.21282,-35.29294 147.16258,-14.91654 58.461,18.34068 106.93334,-56.98142 159.85468,-72.873909 M 149.37955,183.20611 c 6.60217,0.60746 34.46143,-0.85856 56.02024,-3.97243 59.09796,-18.64399 82.05668,-37.50956 146.70083,-16.8349 58.60822,18.74421 107.73382,-58.54332 160.67686,-74.233464 M 149.39354,182.4472 c 6.9905,0.64321 34.95724,-0.8334 55.63964,-4.00184 58.81175,-19.41564 81.86688,-39.66313 146.23922,-18.75328 59.42858,19.30395 108.2734,-60.190827 161.51358,-75.597173 M 149.40746,181.68832 c 7.3789,0.67889 35.45309,-0.80824 55.25907,-4.03126 58.5317,-20.17896 81.66601,-41.82713 145.7775,-20.67165 60.27981,19.89107 108.85136,-62.001426 162.34051,-76.940846 M 149.42141,180.92942 c 7.76729,0.71471 35.94894,-0.78312 54.87851,-4.06065 58.25829,-20.9341 81.45167,-43.99459 145.31587,-22.59002 61.16889,20.50119 109.48858,-63.966185 163.16756,-78.249532 M 149.43539,180.17055 c 8.15564,0.75042 36.44478,-0.75797 54.49786,-4.09011 57.99204,-21.68038 81.22047,-46.15623 144.85423,-24.50839 62.10197,21.1267 110.19756,-66.063406 163.99514,-79.505228 M 149.44934,179.41169 c 8.544,0.78608 36.94059,-0.73286 54.11733,-4.11956 57.73328,-22.41828 80.96157,-48.28193 144.39255,-26.42672 62.67126,21.59343 110.07748,-67.72894 163.63551,-80.429036 0.40396,-0.09207 0.8069,-0.183241 1.20888,-0.273302 M 149.4633,178.65278 c 8.93234,0.82183 37.43642,-0.70772 53.73673,-4.14897 57.4824,-23.14741 80.30306,-49.27466 143.93091,-28.34511 69.76528,22.94835 100.00685,-67.91974 165.67913,-81.85341 M 149.47725,177.89391 c 9.32074,0.85762 37.93223,-0.68259 53.35615,-4.17841 57.23963,-23.86764 79.84014,-50.88981 143.46923,-30.26351 70.14404,22.7382 99.51035,-69.536689 166.50778,-82.955211 M 149.49124,177.13503 c 9.70904,0.8933 38.42801,-0.65746 52.97556,-4.2078 57.00527,-24.57911 79.35171,-52.47313 143.00759,-32.18193 70.52373,22.48046 98.93617,-71.105843 167.32976,-84.008253 m -363.299,119.639083 c 10.09746,0.92906 38.92389,-0.63238 52.59497,-4.23723 56.77949,-25.2816 78.83648,-54.01861 142.5459,-34.10028 70.88854,22.16286 98.33683,-72.636651 168.1678,-85.01752 M 149.51914,175.61725 c 10.48582,0.96482 39.41968,-0.60721 52.21437,-4.26663 56.5624,-25.97518 78.29675,-55.53013 142.08419,-36.01868 71.21763,21.78424 97.7192,-74.118526 168.98153,-85.977124 M 149.53309,174.85834 c 10.87418,1.00052 39.91555,-0.58203 51.8338,-4.29605 56.35413,-26.65966 77.73065,-56.99846 141.62255,-37.93701 71.52022,21.3373 97.12057,-75.562218 169.82499,-86.897945" />
  <path
     id="path2985-6-3"
     style="fill:url(#linearGradient4479-5-0);fill-opacity:1;stroke:none;stroke-width:0.136053px;stroke-linecap:butt;stroke-linejoin:miter;stroke-opacity:1"
     d="m 512.69127,92.115132 c -5.19843,0.752542 -10.67025,1.739387 -16.62453,3.047951 -61.12999,13.434407 -71.99928,63.718057 -117.96268,59.091277 -22.33475,-2.24828 -71.18075,-16.01631 -93.13288,-11.89534 -37.40203,7.02129 -53.51474,31.00851 -91.82694,34.5254 -44.95758,4.12689 -73.41809,-18.2962 -117.991313,-11.62268 -37.451924,5.6073 -58.336288,48.34227 -75.80214497,69.71314 -1.33478703,1.63323 -2.71867643,3.15331 -4.14204073,4.58749 v 15.71341 C 8.7192136,248.61501 20.176234,241.89295 26.653648,237.68515 119.65812,158.53473 105.20685,224.56143 176.68601,219.98532 c 24.16803,-1.54724 85.26952,-47.75792 109.55062,-52.80879 50.149,-10.43171 60.13895,24.58352 110.10383,16.48716 41.30236,-6.69276 77.96287,-29.94293 116.35081,-44.28394 z" />
  <path
     id="path2974-6-1"
     style="fill:url(#linearGradient4687-8-0);fill-opacity:1;stroke:none;stroke-width:0.136053px;stroke-linecap:butt;stroke-linejoin:miter;stroke-opacity:1"
     d="m 512.69127,125.74385 c -0.79787,0.13154 -1.59239,0.2453 -2.39496,0.40134 -29.81295,5.79624 -51.3933,25.87382 -88.00815,47.31019 -40.7386,23.85071 -99.46415,-29.01846 -139.94265,-18.87562 -41.12527,10.3049 -59.29447,45.73031 -100.08713,51.44137 -41.26763,5.77753 -66.15779,-45.07233 -120.503727,-23.37344 -32.612643,13.02136 -43.228068,45.78287 -58.978452,61.93313 -2.49615595,2.55953 -5.0138755,4.85842 -7.5674597,6.9434 v 18.39837 C -0.63069092,268.19518 3.604013,266.1252 7.9327795,263.643 41.235317,244.54684 54.687312,203.00682 94.867792,200.44442 c 21.929208,-1.39851 47.320828,25.704 80.959158,29.86706 44.99526,5.56866 76.44525,-37.2201 102.31073,-41.81373 53.28133,-9.46249 72.11106,29.57484 111.71277,33.97582 51.76135,5.75229 84.26916,-35.58033 122.84082,-57.24007 z" />
  <path
     id="path1152-0"
     style="opacity:0.239939;fill:#e9ebed;fill-opacity:0.491332;stroke:none;stroke-width:0.136053px;stroke-linecap:butt;stroke-linejoin:miter;stroke-opacity:1"
     d="m 512.70287,133.66275 c -37.01434,26.14904 -68.4589,89.14382 -116.67263,89.12466 48.1824,1.93525 79.66203,-36.78631 116.67263,-57.53293 z m -212.76382,30.82161 c -46.34491,0.76242 -72.14178,63.74553 -119.52317,66.23134 42.54006,2.23378 72.75223,-37.78344 97.7218,-42.21795 53.28133,-9.46249 72.11109,29.57484 111.71277,33.97582 -37.12661,-4.12591 -46.08238,-58.71024 -89.9114,-57.98921 z M 93.086019,188.90848 c -39.52382,-0.47367 -68.002538,65.08085 -97.8780053,76.45266 v 3.91426 c 4.08256942,-1.83531 8.1903967,-3.8649 12.2757088,-6.1082 C 40.78626,244.07102 54.687312,203.00682 94.867792,200.44442 116.797,199.04591 142.18862,226.27714 175.82695,230.44019 142.18862,226.27714 129.42522,189.344 93.086019,188.90848 Z" />
  <path
     id="path4167-5"
     style="fill:url(#linearGradient14655-0);fill-opacity:1;stroke:none;stroke-width:0.136053px;stroke-linecap:butt;stroke-linejoin:miter;stroke-opacity:1"
     d="m 512.69127,161.76397 c -35.81802,21.6259 -68.26081,59.58004 -114.07011,60.95836 -0.85892,0.04 -1.72127,0.0662 -2.59092,0.0658 1.50571,0.0606 2.99511,0.0814 4.46888,0.0644 5.89418,-0.0686 11.53853,-0.74492 16.97595,-1.91194 0.9751,-0.20927 1.93554,-0.45177 2.89756,-0.69202 0.37927,-0.0946 0.7652,-0.17324 1.14256,-0.27262 0,-2e-4 0,-3.8e-4 0.004,-7.4e-4 0.64051,-0.16873 1.26973,-0.3655 1.90469,-0.5474 0.68793,-0.19707 1.38146,-0.38094 2.06308,-0.59297 1.30948,-0.40738 2.60691,-0.84175 3.89396,-1.30161 0,-3.7e-4 0,-0.001 0.004,-0.001 1.28683,-0.45981 2.56312,-0.94479 3.82889,-1.45348 0,-3.7e-4 0.004,-0.001 0.004,-0.001 0.14705,-0.059 0.29062,-0.12538 0.43747,-0.18512 1.11782,-0.45496 2.23108,-0.92127 3.33358,-1.41152 1.246,-0.55408 2.48199,-1.12955 3.70959,-1.72537 0,-7.4e-4 0.004,-0.001 0.004,-0.003 1.15903,-0.56254 2.30977,-1.14605 3.45361,-1.74272 0.069,-0.0361 0.13938,-0.0688 0.20827,-0.10481 1.21012,-0.63382 2.41169,-1.28547 3.60618,-1.95387 0,-10e-4 0.004,-10e-4 0.006,-0.003 1.19454,-0.66844 2.38186,-1.3535 3.5621,-2.05295 0,-0.001 0.004,-0.001 0.006,-0.003 1.18013,-0.69942 2.35368,-1.41285 3.52089,-2.13972 0,-0.001 0.004,-0.003 0.006,-0.004 1.16718,-0.7269 2.32765,-1.46632 3.48327,-2.21709 0,-0.001 0.004,-0.003 0.006,-0.004 2.31276,-1.50261 4.60372,-3.04976 6.87834,-4.62653 0,-0.001 0.004,-0.003 0.006,-0.004 1.05884,-0.73403 2.10409,-1.49176 3.15643,-2.23734 1.21023,-0.85746 2.42764,-1.70425 3.63077,-2.57286 4.49584,-3.24582 8.94716,-6.55456 13.39872,-9.81131 0,-0.001 0.004,-0.001 0.004,-0.003 0.14469,-0.10592 0.28922,-0.20883 0.43387,-0.31456 2.08378,-1.52282 4.16774,-3.03631 6.25644,-4.52312 2.22905,-1.58678 4.46325,-3.1467 6.70837,-4.66484 v -7.5e-4 c 1.81338,-1.22621 3.64091,-2.40178 5.47112,-3.56642 0.43936,-0.27955 0.87276,-0.58071 1.31319,-0.85618 1.13688,-0.71094 2.27767,-1.40712 3.42325,-2.08838 0.66337,-0.39448 1.33209,-0.77197 1.9987,-1.15555 0.48538,-0.27926 0.96769,-0.56779 1.45492,-0.84098 z m -216.63755,23.02344 v 7.5e-4 c -45.07777,-1.1696 -64.40049,47.15475 -115.63784,45.92756 42.54009,2.23378 72.75223,-37.78344 97.7218,-42.21796 1.61892,-0.28752 3.20343,-0.52639 4.7603,-0.72674 0.51446,-0.0662 1.00921,-0.10425 1.51712,-0.16125 1.03213,-0.11587 2.06529,-0.23266 3.07108,-0.31166 0.58433,-0.0459 1.14896,-0.0653 1.72465,-0.0991 0.90053,-0.053 1.80355,-0.10957 2.6835,-0.13378 0.59918,-0.0165 1.18173,-0.01 1.77164,-0.014 0.83637,-0.006 1.67432,-0.0112 2.49261,0.007 0.56974,0.0126 1.12652,0.0466 1.68776,0.0724 0.82199,0.0375 1.64201,0.0764 2.44631,0.13811 0.53379,0.041 1.05813,0.0954 1.58436,0.14679 0.80109,0.0782 1.5985,0.16113 2.38269,0.2625 0.51293,0.0665 1.01841,0.14321 1.52434,0.21911 0.78633,0.11782 1.56778,0.2425 2.33785,0.38252 0.46733,0.0851 0.93046,0.17609 1.392,0.269 0.79895,0.16063 1.59026,0.33105 2.37255,0.51414 0.41884,0.0982 0.83607,0.19872 1.25029,0.303 0.80806,0.20322 1.60723,0.41802 2.39858,0.64357 0.36718,0.10467 0.734,0.20954 1.0977,0.3189 0.85132,0.25565 1.69256,0.52469 2.52586,0.8041 0.28667,0.0963 0.57444,0.19107 0.85907,0.28997 0.90987,0.31582 1.80849,0.64564 2.69868,0.98707 0.1978,0.0758 0.39751,0.14918 0.59441,0.22633 1.01375,0.39679 2.01532,0.80965 3.00601,1.23581 0.0641,0.0276 0.12902,0.054 0.19308,0.0817 4.22604,1.82802 8.2438,3.91367 12.17012,6.0959 0.34671,0.19287 0.69318,0.38482 1.03839,0.57923 6.44509,3.62678 12.65366,7.48483 19.01736,10.97046 0.21253,0.11642 0.42775,0.22715 0.6407,0.34276 7.44681,4.03972 15.14565,7.5234 23.78633,9.40636 -31.99225,-7.26983 -46.1482,-35.49749 -87.1093,-36.56027 z M 96.762364,199.06182 c -0.692511,-0.014 -1.381384,10e-4 -2.066675,0.0448 -40.180494,2.56241 -56.764316,45.34754 -90.0118877,64.53924 -3.2136872,1.85505 -6.3833238,3.44961 -9.47506,4.85214 v 1.40286 c 1.2904705,-0.53826 2.5818925,-1.08075 3.88750372,-1.68705 1.05196972,-0.49179 2.11124388,-0.99944 3.18679228,-1.54241 0.4112193,-0.20701 0.823684,-0.41932 1.2365265,-0.63346 1.4547931,-0.75583 2.9213965,-1.53995 4.4124881,-2.39497 33.3025371,-19.09612 46.7552601,-60.63614 86.9357401,-63.19853 16.446908,-1.0489 34.841138,14.00646 57.201748,23.35609 1.86338,0.77911 3.75396,1.51896 5.67361,2.20623 3.51993,1.2602 7.14961,2.31312 10.86995,3.14413 -29.10641,-6.65523 -51.99569,-29.71153 -71.850736,-30.08905 z m 71.850736,30.08905 c 0.566,0.12943 1.13221,0.25714 1.70295,0.37385 -0.57175,-0.1146 -1.13604,-0.24722 -1.70295,-0.37385 z m 1.70295,0.37385 c 0.75446,0.15121 1.50833,0.30332 2.27131,0.43244 -0.76185,-0.13084 -1.5178,-0.27833 -2.27131,-0.43244 z m 2.27131,0.43244 c 0.11363,0.0195 0.22683,0.0396 0.3406,0.0586 -0.11391,-0.0188 -0.22693,-0.0393 -0.3406,-0.0586 z m 0.3406,0.0586 c 0.96034,0.15795 1.92495,0.30392 2.89899,0.42445 -0.97344,-0.12048 -1.93897,-0.26443 -2.89899,-0.42445 z m 210.23506,-8.66733 c 1.06874,0.24285 2.15912,0.45964 3.27284,0.64791 1.12259,0.18557 2.25792,0.34872 3.41459,0.47726 -2.30059,-0.25567 -4.51621,-0.65202 -6.68743,-1.12517 z" />
  <path
     id="path16839-2"
     style="fill:url(#linearGradient25349-5);fill-opacity:1;stroke:none;stroke-width:1.36053;stroke-linecap:butt;stroke-linejoin:miter;stroke-miterlimit:4;stroke-dasharray:none;stroke-opacity:1"
     d="m 512.69127,90.056404 c 0,0 -10.09786,1.807269 -15.47693,3.395054 -64.04607,18.905002 -68.97975,57.512522 -111.07209,61.235342 -18.07073,1.59825 -70.10037,-16.69441 -99.04004,-12.66548 -37.36846,5.20239 -56.73879,29.57145 -89.41588,34.15361 -40.23887,5.6425 -81.80279,-19.99892 -127.17468,-10.97731 -35.377665,7.03439 -49.55234,44.02964 -75.3029087,72.45281 v 1.71635 C 16.915431,217.64214 34.463695,174.2793 70.51165,166.12393 c 43.95909,-9.94515 91.17298,19.87239 128.08637,11.36706 39.7934,-9.16892 51.43075,-28.72136 88.51503,-34.55131 32.89641,-5.17158 77.857,16.74216 99.24399,14.12546 39.22513,-4.79917 53.61147,-44.50819 114.24368,-62.042339 4.07769,-1.179238 12.09055,-1.882287 12.09055,-1.882287 z" />
</svg>
