<svg width="64" height="64" version="1" xmlns="http://www.w3.org/2000/svg">
<rect x="3.9998" y="5.0002" width="56" height="56" rx="2.8" ry="2.8" opacity=".2"/>
<rect x="4.0002" y="3.9998" width="56" height="56" rx="2.8" ry="2.8" fill="#60a5fa" stop-color="#000000"/>
<rect x="4.0002" y="32.808" width="56" height="27.192" rx="2.8" ry="2.8" fill="#1d4ed8" stop-color="#000000"/>
<path d="m6.801 3.9998c-1.5512 0-2.8008 1.2496-2.8008 2.8008v1c0-1.5512 1.2496-2.8008 2.8008-2.8008h50.398c1.5512 0 2.8008 1.2496 2.8008 2.8008v-1c0-1.5512-1.2496-2.8008-2.8008-2.8008z" fill="#fff" opacity=".2"/>
<path d="m19.737 34.508c-0.33553 0.0054-0.66999 0.01681-1.002 0.03516-0.66393 0.0367-1.3199 0.09865-1.9688 0.18359-0.64881 0.08494-1.2914 0.19362-1.9238 0.32226-0.63245 0.12865-1.2563 0.27749-1.8711 0.44531-0.61483 0.16783-1.2204 0.35417-1.8164 0.55664-0.59596 0.20247-1.182 0.41975-1.7578 0.65234-0.57585 0.23259-1.1408 0.4801-1.6953 0.73828s-1.097 0.52741-1.6289 0.80664c-0.53186 0.27923-1.0526 0.56752-1.5605 0.86328-0.17446 0.10157-0.34017 0.20934-0.51172 0.3125v5.5625c0.37594-0.13918 0.77449-0.27641 1.1992-0.40625 0.44457-0.13591 0.9154-0.26477 1.4102-0.38086 0.49476-0.11609 1.0131-0.22017 1.5547-0.30664 0.54163-0.08647 1.1062-0.15609 1.6914-0.20312 0.58516-0.04704 1.191-0.07056 1.8164-0.06836 0.62537 0.0022 1.2713 0.03055 1.9336 0.0918 0.66225 0.06125 1.3413 0.15505 2.0371 0.28516s1.4068 0.29709 2.1328 0.50586c0.36301 0.10438 0.72967 0.21982 1.0996 0.3457 0.36994 0.12589 0.74464 0.26154 1.1211 0.41016 0.37646 0.14862 0.75416 0.30985 1.1367 0.48242 0.38256 0.17258 0.76801 0.35693 1.1562 0.55469 0.38824 0.19776 0.76412 0.40612 1.125 0.62305 0.36088 0.21693 0.70652 0.44328 1.041 0.67773 0.3345 0.23446 0.65769 0.47621 0.9668 0.72656 0.3091 0.25036 0.60594 0.50882 0.89062 0.77344 0.28469 0.26462 0.55711 0.53525 0.81836 0.8125 0.26126 0.27725 0.51119 0.55942 0.75 0.84766 0.23881 0.28824 0.46625 0.58327 0.68359 0.88086 0.21734 0.29759 0.42424 0.59898 0.62109 0.9043 0.19686 0.30531 0.38319 0.61438 0.56055 0.92578 0.17735 0.3114 0.34507 0.62556 0.50391 0.94141 0.31768 0.6317 0.60012 1.2705 0.84961 1.9102 0.2495 0.63969 0.46512 1.2795 0.6543 1.9141 0.17752 0.59552 0.32786 1.1858 0.45898 1.7656h24.988c1.5512 0 2.7988-1.2496 2.7988-2.8008v-1.3926c-1.5794-0.65097-3.1634-1.4943-3.709-1.7949-0.96472-0.53161-1.9799-1.1174-3.0449-1.7617-1.0651-0.64434-2.1802-1.3474-3.3477-2.1152-1.1675-0.7678-2.3861-1.5999-3.6582-2.502-1.272-0.90201-2.5978-1.8749-3.9766-2.9219s-2.8094-2.1685-4.2969-3.3711c-0.74374-0.60131-1.4867-1.1576-2.2266-1.6699-0.73987-0.5123-1.4781-0.98039-2.2129-1.4082-0.73475-0.42781-1.4669-0.81424-2.1953-1.1621-0.72839-0.34786-1.4531-0.65724-2.1738-0.92969-0.72076-0.27244-1.4365-0.50938-2.1484-0.71094-0.7119-0.20155-1.4193-0.36871-2.1211-0.50391-0.70178-0.13519-1.3994-0.23718-2.0898-0.31055-0.69042-0.07336-1.373-0.1187-2.0508-0.13477-0.3389-8e-3 -0.6762-0.0075-1.0117-2e-3z" fill="#2563eb" fill-rule="evenodd" stop-color="#000000" stroke-width=".083042px" style="paint-order:stroke fill markers"/>
<path d="m23.994 18.224c-0.74709 0.0066-1.4795 0.03391-2.1969 0.08032-0.71743 0.04641-1.4202 0.11177-2.108 0.19482-0.68785 0.08305-1.3608 0.1843-2.0192 0.30078-0.65834 0.11648-1.3014 0.24892-1.9303 0.39563-0.6289 0.14671-1.2436 0.30736-1.8431 0.48108-0.59954 0.17372-1.184 0.36045-1.7543 0.55798-0.57025 0.19753-1.1261 0.40565-1.6671 0.62378-0.54103 0.21813-1.0672 0.44636-1.5791 0.68188s-1.0091 0.47832-1.4919 0.72803c-0.48283 0.2497-0.95181 0.5058-1.4056 0.76648-0.45383 0.26068-0.89271 0.52623-1.3176 0.79468-0.23498 0.14846-0.45487 0.29939-0.68103 0.44946v15.146c0.17154-0.10316 0.33567-0.21032 0.51013-0.31189 0.508-0.29576 1.0284-0.5838 1.5603-0.86304 0.53186-0.27923 1.075-0.54932 1.6295-0.80749 0.55448-0.25818 1.1203-0.50484 1.6962-0.73743 0.57585-0.23259 1.1617-0.45121 1.7577-0.65369s1.2018-0.38845 1.8166-0.55627c0.61483-0.16783 1.2389-0.3174 1.8713-0.44604s1.2738-0.23635 1.9226-0.32129c0.64882-0.08494 1.3048-0.14701 1.9687-0.18372 0.66393-0.0367 1.3354-0.04854 2.0132-0.03247 0.3389 8e-3 0.67902 0.02314 1.0211 0.04529 0.34244 0.0221 0.68588 0.0513 1.0314 0.08801 0.69041 0.07336 1.3874 0.1767 2.0892 0.31189 0.35089 0.0676 0.70265 0.1434 1.0562 0.2273 2.71e-4 6.5e-5 4.37e-4 -6.5e-5 8.75e-4 0 0.35324 0.08384 0.70816 0.17615 1.0638 0.27686 0.35595 0.10078 0.71245 0.20991 1.0707 0.32812 2.63e-4 8.6e-5 4.38e-4 -8.6e-5 8.75e-4 0 0.35798 0.11815 0.71739 0.24498 1.0775 0.3811 0.72077 0.27244 1.4454 0.58182 2.1738 0.92969 0.72838 0.34786 1.4604 0.7343 2.1952 1.1621 0.73475 0.42781 1.4724 0.89676 2.2123 1.4091 0.73987 0.51229 1.4822 1.0684 2.226 1.6697 1.4875 1.2026 2.9194 2.3249 4.2981 3.3718s2.7039 2.0186 3.976 2.9207c1.272 0.90201 2.4914 1.7341 3.6589 2.502 1.1675 0.76781 2.2828 1.4714 3.3479 2.1157 1.065 0.64434 2.0798 1.2295 3.0446 1.7611 0.54562 0.30066 2.13 1.1452 3.7094 1.7961v-31.814c-0.0149 5.25e-4 -0.0287 2e-3 -0.0436 0.0026-0.62688 0.02385-1.2699 0.03449-1.9286 0.03162-0.65866-0.0029-1.3326-0.01937-2.0234-0.05127s-1.3983-0.0786-2.1217-0.14184c-0.72338-0.06325-1.4628-0.14321-2.2191-0.24011-0.7563-0.0969-1.5295-0.21149-2.3191-0.34436-0.78961-0.13287-1.5958-0.28429-2.4191-0.45544s-1.6634-0.36161-2.5208-0.57336-1.7324-0.44431-2.6242-0.69897c-0.89177-0.25467-1.8001-0.53153-2.7267-0.83142-0.92659-0.29989-1.8387-0.56927-2.7352-0.81006-0.89649-0.24079-1.7774-0.4534-2.6438-0.6383-0.86646-0.1849-1.7184-0.34202-2.5549-0.47424-0.8365-0.13223-1.6577-0.23939-2.4644-0.32214-0.80663-0.08275-1.5987-0.14124-2.3755-0.17773s-1.5387-0.051-2.2858-0.04443z" fill="#3b82f6" fill-rule="evenodd" stop-color="#000000" stroke-width=".083042px" style="paint-order:stroke fill markers"/>
<path d="m14.705 21.132 10.736 5.9944h22.066v3.2276h-16.283l10.736 5.9944h5.547v3.097l5.9944 3.3464v-16.249h0.0015v-5.4105zm-1.0137 2.7786-0.0015 21.66h38.798l-10.737-5.9944h-22.065v-12.319z" fill-opacity=".2" stop-color="#000000" style="-inkscape-stroke:none;font-variation-settings:normal"/>
<path d="m13.026 19.656 10.736 5.9944h22.066v3.2276h-16.283l10.736 5.9944h5.547v3.097l5.9944 3.3464v-16.249h0.0015v-5.4105zm-1.0137 2.7786-0.0015 21.66h38.798l-10.737-5.9944h-22.065v-12.319z" fill="#fff" stroke-width="2.839"/>
</svg>
