<?xml version="1.0" encoding="UTF-8" standalone="no"?>
<svg
   width="64"
   height="64"
   version="1"
   id="svg12"
   xmlns="http://www.w3.org/2000/svg"
   xmlns:svg="http://www.w3.org/2000/svg">
  <defs
     id="defs16" />
  <path
     id="path12"
     style="font-variation-settings:normal;opacity:0.2;vector-effect:none;fill:#000000;fill-opacity:1;stroke:none;stroke-width:1;stroke-linecap:butt;stroke-linejoin:miter;stroke-miterlimit:4;stroke-dasharray:none;stroke-dashoffset:0;stroke-opacity:1;-inkscape-stroke:none;stop-color:#000000;stop-opacity:1"
     d="m 4.1266406,14.255376 16.1514904,9.018173 h 33.196864 v 4.855602 H 28.97849 l 16.151546,9.018176 h 8.345015 v 4.659171 l 9.018175,5.034385 V 22.39513 h 0.0023 v -8.139754 z m -1.525104,4.18023 -0.00225,32.585509 H 60.968068 L 44.814364,42.002926 H 41.691323 41.689123 11.6197 V 23.469983 Z" />
  <path
     style="fill:#2563eb;fill-opacity:1;stroke-width:0.811139"
     d="m 1.8617705,16.968466 -0.00225,32.585499 H 60.228298 L 44.074592,40.535784 H 40.95156 40.94936 10.879938 V 22.002843 Z"
     id="path44874" />
  <path
     style="fill:#3b82f6;fill-opacity:1;stroke-width:0.811139"
     d="m 3.3868746,12.788235 16.1514904,9.018174 h 33.196862 v 4.855602 H 28.238721 l 16.151546,9.018176 h 8.34501 v 4.659171 l 9.018181,5.034381 V 20.927991 h 0.0021 v -8.139756 z"
     id="path29607" />
  <path
     id="path31"
     style="font-variation-settings:normal;opacity:0.2;vector-effect:none;fill:#ffffff;fill-opacity:1;stroke-width:1;stroke-linecap:butt;stroke-linejoin:miter;stroke-miterlimit:4;stroke-dasharray:none;stroke-dashoffset:0;stroke-opacity:1;-inkscape-stroke:none;stop-color:#000000;stop-opacity:1"
     d="M 3.3906247,12.789063 5.3359376,13.875 H 60.499996 v 8.140623 22.664063 l 1.25,0.695312 V 20.929687 h 0.0083 v -8.140624 z m -1.5312498,4.179685 v 1.530764 l 7.7656249,4.335935 V 41.624996 H 43.492187 l 14.203121,7.929688 H 60.22656 L 44.078123,40.53906 H 10.882812 V 21.999999 Z m 26.3828101,9.695315 1.945312,1.085936 22.54773,-0.002 v -1.085936 z" />
</svg>
