<?xml version="1.0" encoding="UTF-8" standalone="no"?>
<svg
   width="64"
   height="64"
   version="1"
   id="svg12"
   xmlns="http://www.w3.org/2000/svg"
   xmlns:svg="http://www.w3.org/2000/svg">
  <defs
     id="defs16" />
  <g
     id="layer2">
    <rect
       style="opacity:0.2"
       width="56"
       height="56"
       x="3.9997783"
       y="5.0001826"
       rx="2.8"
       ry="2.8"
       id="rect28957" />
    <rect
       style="fill:#60a5fa;fill-opacity:1;stroke:none;stroke-width:23.3575;stroke-linecap:round;stop-color:#000000"
       id="rect24605"
       width="56"
       height="56"
       x="4.0002208"
       y="3.9998174"
       ry="2.8"
       rx="2.8" />
    <rect
       style="fill:#1d4ed8;fill-opacity:1;stroke:none;stroke-width:23.3575;stroke-linecap:round;stop-color:#000000"
       id="rect25882"
       width="56"
       height="27.191669"
       x="4.0002208"
       y="32.808147"
       ry="2.8"
       rx="2.8" />
    <path
       style="opacity:0.2;fill:#ffffff"
       d="m 6.801001,3.9998174 c -1.5512,0 -2.800781,1.2495812 -2.800781,2.8007812 v 1 c 0,-1.5511999 1.249581,-2.8007812 2.800781,-2.8007812 h 50.398441 c 1.5512,0 2.80078,1.2495812 2.80078,2.8007812 v -1 c 0,-1.5511999 -1.24958,-2.8007812 -2.80078,-2.8007812 z"
       id="path10-6" />
    <path
       id="path146"
       style="fill:#2563eb;fill-opacity:1;fill-rule:evenodd;stroke-width:0.0830422px;paint-order:stroke fill markers;stop-color:#000000"
       d="m 19.736553,34.508355 c -0.335527,0.0054 -0.669988,0.01681 -1.001953,0.03516 -0.663933,0.0367 -1.319935,0.09865 -1.96875,0.183594 -0.648813,0.08494 -1.291381,0.193616 -1.923829,0.322265 -0.632447,0.128649 -1.256263,0.277486 -1.871093,0.445313 -0.61483,0.167826 -1.220443,0.354167 -1.816407,0.556641 -0.595963,0.202473 -1.181966,0.419752 -1.757812,0.652343 -0.575847,0.23259 -1.140833,0.480105 -1.695313,0.738281 -0.55448,0.258176 -1.097043,0.527408 -1.628906,0.806641 -0.531864,0.279232 -1.05255,0.567523 -1.560547,0.863281 -0.174459,0.101571 -0.340173,0.209338 -0.511718,0.3125 v 5.5625 c 0.375939,-0.139175 0.774494,-0.276409 1.199218,-0.40625 0.444568,-0.135909 0.915396,-0.264768 1.410157,-0.380859 0.494761,-0.116092 1.013059,-0.220173 1.554687,-0.306641 0.541628,-0.08647 1.106241,-0.156087 1.691406,-0.203125 0.585165,-0.04704 1.191035,-0.07056 1.816407,-0.06836 0.625371,0.0022 1.271341,0.03055 1.933593,0.0918 0.66225,0.06125 1.341308,0.155052 2.03711,0.285156 0.695802,0.130104 1.40679,0.297092 2.132812,0.505859 0.363011,0.104385 0.729669,0.219815 1.09961,0.345704 0.369945,0.125887 0.744639,0.261538 1.121093,0.410156 0.376459,0.148619 0.754165,0.309847 1.136719,0.482422 0.382558,0.172575 0.768007,0.35693 1.15625,0.554687 0.38824,0.197758 0.764123,0.406122 1.125,0.623047 0.360881,0.216927 0.706517,0.443276 1.041016,0.677734 0.334498,0.234458 0.657694,0.476206 0.966797,0.726563 0.309101,0.250357 0.605935,0.508818 0.890625,0.773437 0.284689,0.26462 0.557106,0.535253 0.818359,0.8125 0.261257,0.277246 0.51119,0.55942 0.75,0.847657 0.238809,0.288238 0.466252,0.583266 0.683594,0.880859 0.217341,0.297594 0.424235,0.598982 0.621093,0.904297 0.196857,0.305314 0.383189,0.614382 0.560547,0.925781 0.177353,0.311401 0.345073,0.625555 0.503907,0.941406 0.317678,0.631701 0.600117,1.270469 0.849607,1.910157 0.2495,0.639689 0.46512,1.279468 0.6543,1.914062 0.17752,0.595515 0.32786,1.185763 0.45898,1.765625 h 24.98829 c 1.5512,0 2.79882,-1.249581 2.79882,-2.800781 v -1.392578 c -1.5794,-0.650969 -3.16336,-1.49426 -3.70898,-1.794922 -0.96472,-0.531606 -1.97987,-1.11738 -3.04492,-1.761719 -1.06506,-0.644338 -2.18016,-1.347428 -3.34766,-2.115234 -1.1675,-0.767805 -2.38614,-1.599947 -3.6582,-2.501953 -1.27205,-0.902007 -2.59785,-1.874933 -3.97656,-2.921875 -1.37871,-1.046942 -2.80941,-2.168482 -4.29688,-3.371094 -0.74374,-0.601306 -1.48668,-1.157628 -2.22656,-1.669922 -0.73987,-0.512295 -1.47813,-0.980389 -2.21289,-1.408203 -0.73475,-0.427813 -1.46692,-0.814245 -2.19531,-1.162109 -0.728387,-0.347863 -1.453063,-0.657245 -2.173835,-0.929688 -0.720763,-0.272443 -1.436539,-0.509382 -2.148438,-0.710937 -0.7119,-0.201553 -1.419308,-0.368713 -2.121093,-0.503907 -0.701784,-0.135193 -1.39943,-0.237182 -2.089844,-0.310546 -0.690418,-0.07336 -1.37298,-0.118701 -2.050781,-0.134766 -0.3389,-0.008 -0.676196,-0.0075 -1.011719,-0.002 z" />
    <path
       id="path148"
       style="fill:#3b82f6;fill-opacity:1;fill-rule:evenodd;stroke-width:0.0830422px;paint-order:stroke fill markers;stop-color:#000000"
       d="m 23.99447,18.223683 c -0.747088,0.0066 -1.479471,0.03391 -2.1969,0.08032 -0.71743,0.04641 -1.420185,0.111771 -2.108031,0.194824 -0.687846,0.08305 -1.360825,0.184297 -2.019161,0.300781 -0.658337,0.116484 -1.301396,0.248922 -1.930297,0.39563 -0.628898,0.146708 -1.243602,0.307355 -1.843138,0.481078 -0.599536,0.173724 -1.184024,0.360452 -1.754271,0.557983 -0.570248,0.197531 -1.12608,0.40565 -1.667113,0.623779 -0.541033,0.218131 -1.067208,0.446362 -1.5791,0.681884 -0.511892,0.235522 -1.009117,0.478321 -1.491942,0.728027 -0.482826,0.249705 -0.951807,0.505798 -1.405639,0.766479 -0.453833,0.26068 -0.892712,0.526229 -1.317626,0.794677 -0.234984,0.148457 -0.454871,0.299393 -0.681029,0.449463 V 39.424469 C 4.171768,39.321307 4.335894,39.214151 4.510354,39.11258 5.01835,38.816822 5.538792,38.528775 6.070656,38.249543 6.602519,37.97031 7.14569,37.700225 7.700171,37.442049 c 0.55448,-0.258176 1.120318,-0.504836 1.696165,-0.737426 0.575847,-0.232591 1.161725,-0.451212 1.757689,-0.653686 0.595964,-0.202474 1.201819,-0.388448 1.816649,-0.556274 0.614831,-0.167827 1.238889,-0.317396 1.871337,-0.446045 0.632448,-0.128649 1.273795,-0.236347 1.922607,-0.321289 0.648816,-0.08494 1.304816,-0.147012 1.968748,-0.183715 0.663932,-0.0367 1.33538,-0.04854 2.013181,-0.03247 0.3389,0.008 0.679021,0.02314 1.021115,0.04529 0.342436,0.0221 0.685877,0.0513 1.031375,0.08801 0.690414,0.07336 1.387447,0.176696 2.089231,0.311889 0.350893,0.0676 0.702647,0.143404 1.056151,0.227295 2.71e-4,6.5e-5 4.37e-4,-6.5e-5 8.75e-4,0 0.353237,0.08384 0.708159,0.176154 1.063841,0.276855 0.35595,0.100777 0.712447,0.209907 1.07068,0.328125 2.63e-4,8.6e-5 4.38e-4,-8.6e-5 8.75e-4,0 0.35798,0.118147 0.717386,0.244977 1.077514,0.381103 0.720772,0.272443 1.445442,0.581824 2.173828,0.929687 0.72838,0.347864 1.46044,0.734295 2.19519,1.162108 0.73475,0.427814 1.47241,0.896762 2.21228,1.409057 0.73987,0.512294 1.48221,1.06837 2.22595,1.669676 1.48747,1.202612 2.91938,2.324881 4.29809,3.371823 1.37871,1.046942 2.70389,2.018645 3.97595,2.920652 1.27205,0.902006 2.49143,1.734146 3.65893,2.501951 1.1675,0.767806 2.28284,1.471383 3.3479,2.115721 1.06505,0.644339 2.07984,1.229501 3.04455,1.761107 0.54562,0.300662 2.12995,1.145172 3.70935,1.796141 V 49.513452 23.993209 c -0.0149,5.25e-4 -0.0287,0.002 -0.0436,0.0026 -0.62688,0.02385 -1.26993,0.03449 -1.9286,0.03162 -0.65866,-0.0029 -1.3326,-0.01937 -2.02343,-0.05127 -0.69083,-0.0319 -1.39833,-0.0786 -2.1217,-0.141845 -0.72338,-0.06325 -1.46281,-0.143208 -2.21912,-0.240112 -0.7563,-0.0969 -1.52948,-0.211486 -2.31908,-0.344361 -0.78961,-0.132873 -1.59579,-0.284286 -2.41907,-0.455444 -0.82328,-0.171158 -1.66341,-0.361608 -2.52075,-0.573363 -0.85734,-0.211755 -1.73237,-0.444309 -2.62415,-0.698974 -0.89177,-0.254666 -1.80009,-0.531533 -2.72668,-0.83142 -0.92659,-0.299889 -1.83874,-0.569266 -2.73522,-0.810059 -0.89649,-0.240792 -1.77735,-0.4534 -2.6438,-0.638305 -0.86646,-0.184903 -1.71843,-0.342018 -2.55493,-0.474242 -0.836503,-0.132226 -1.657734,-0.23939 -2.464356,-0.322144 -0.806627,-0.08275 -1.598663,-0.141244 -2.375483,-0.177734 -0.77682,-0.03649 -1.538678,-0.051 -2.285765,-0.04443 z" />
    <path
       id="path42840"
       style="font-variation-settings:normal;opacity:1;vector-effect:none;fill:#000000;fill-opacity:0.2;stroke:none;stroke-width:1.631;stroke-linecap:butt;stroke-linejoin:miter;stroke-miterlimit:4;stroke-dasharray:none;stroke-dashoffset:0;stroke-opacity:1;-inkscape-stroke:none;stop-color:#000000;stop-opacity:1"
       d="m 14.704529,21.131878 10.736005,5.99444 h 22.066171 v 3.227551 H 31.223717 l 10.736041,5.994441 h 5.546981 v 3.096981 l 5.994443,3.346384 V 26.542427 h 0.0015 v -5.410549 z m -1.013745,2.778627 -0.0015,21.659797 H 52.487397 L 41.749925,39.57586 h -2.0759 -0.0015 -19.987341 V 27.256889 Z" />
    <path
       id="path31"
       style="fill:#ffffff;fill-opacity:1;stroke-width:2.839"
       d="m 13.025841,19.656468 10.736005,5.99444 h 22.066171 v 3.227551 H 29.545029 L 40.28107,34.8729 h 5.546981 v 3.096981 l 5.994443,3.346384 V 25.067017 h 0.0015 v -5.410549 z m -1.013745,2.778627 -0.0015,21.659797 H 50.808709 L 40.071237,38.10045 h -2.0759 -0.0015 -19.987341 V 25.781479 Z" />
  </g>
</svg>
