<?xml version="1.0" encoding="UTF-8"?>
<!-- Created with Inkscape (http://www.inkscape.org/) -->
<svg width="1280" height="800" version="1.1" viewBox="0 0 338.67 211.67" xmlns="http://www.w3.org/2000/svg" xmlns:xlink="http://www.w3.org/1999/xlink">
 <defs>
  <linearGradient id="linearGradient25627">
   <stop stop-color="#bda62c" offset="0"/>
   <stop stop-color="#ae9a28" stop-opacity=".98824" offset=".14669"/>
   <stop stop-color="#8c7b20" stop-opacity=".96863" offset=".30531"/>
   <stop stop-color="#bda62c" stop-opacity=".95686" offset=".51079"/>
   <stop stop-color="#82721e" stop-opacity=".94902" offset=".6231"/>
   <stop stop-color="#c0ab2c" stop-opacity=".99608" offset=".83541"/>
   <stop stop-color="#7f6f1e" stop-opacity=".92157" offset="1"/>
  </linearGradient>
  <linearGradient id="linearGradient25349-1" x1="-19.327" x2="365.1" y1="174.88" y2="71.87" gradientTransform="matrix(1.0559 0 0 1.0559 -50.302 -9.7276)" gradientUnits="userSpaceOnUse" xlink:href="#linearGradient25627"/>
  <linearGradient id="linearGradient14655-4" x1="-46.183" x2="1721.9" y1="706.05" y2="445.69" gradientTransform="matrix(.27937 0 0 .27937 -50.302 -9.7276)" gradientUnits="userSpaceOnUse">
   <stop stop-color="#bda62c" offset="0"/>
   <stop stop-color="#615516" stop-opacity=".98824" offset=".098576"/>
   <stop stop-color="#cab12f" stop-opacity=".97647" offset=".25339"/>
   <stop stop-color="#8c7b20" stop-opacity=".96863" offset=".33815"/>
   <stop stop-color="#87771f" stop-opacity=".96471" offset=".42151"/>
   <stop stop-color="#bda62c" stop-opacity=".95686" offset=".53339"/>
   <stop stop-color="#82721e" stop-opacity=".94902" offset=".6231"/>
   <stop stop-color="#80711e" stop-opacity=".93725" offset=".73471"/>
   <stop stop-color="#d7be31" stop-opacity=".92941" offset=".83541"/>
   <stop stop-color="#bda62c" stop-opacity=".92175" offset="1"/>
  </linearGradient>
  <linearGradient id="linearGradient4687-8-9" x1="1155.1" x2="93.584" y1="262.51" y2="615.88" gradientTransform="matrix(.34039 .036133 -.036133 .34039 -27.512 -26.606)" gradientUnits="userSpaceOnUse">
   <stop stop-color="#8b5cf6" offset="0"/>
   <stop stop-color="#6d28d9" offset=".21248"/>
   <stop stop-color="#6f5cf6" offset=".42964"/>
   <stop stop-color="#7c3aed" offset=".59961"/>
   <stop stop-color="#6376f6" offset=".80968"/>
   <stop stop-color="#6d28d9" offset="1"/>
  </linearGradient>
  <linearGradient id="linearGradient4479-5-19" x1="1143.2" x2="120.86" y1="196.75" y2="539.49" gradientTransform="matrix(.34039 .036133 -.036133 .34039 -27.512 -26.606)" gradientUnits="userSpaceOnUse">
   <stop stop-color="#8b5cf6" offset="0"/>
   <stop stop-color="#5151dc" offset=".25152"/>
   <stop stop-color="#3b82f6" offset=".4454"/>
   <stop stop-color="#8b69f6" offset=".63944"/>
   <stop stop-color="#60a5fa" offset=".83593"/>
   <stop stop-color="#60a5fa" offset="1"/>
  </linearGradient>
  <linearGradient id="linearGradient6948-1" x1="466.89" x2="1404.4" y1="475.5" y2="195.51" gradientTransform="matrix(.3423 0 0 .3423 -57.025 -39.1)" gradientUnits="userSpaceOnUse">
   <stop stop-color="#3e2fdd" offset="0"/>
   <stop stop-color="#a4007e" offset="1"/>
  </linearGradient>
  <linearGradient id="linearGradient12309-5-1" x1="1181.7" x2="861.39" y1="252.37" y2="436.6" gradientTransform="matrix(.3423 0 0 .3423 -57.025 -38.005)" gradientUnits="userSpaceOnUse">
   <stop stop-color="#7e5af0" offset="0"/>
   <stop stop-color="#7c61ee" offset=".49538"/>
   <stop stop-color="#4c6fe2" offset="1"/>
  </linearGradient>
  <linearGradient id="linearGradient4551-1-9" x1="1112.8" x2="89.147" y1="69.067" y2="487.89" gradientTransform="matrix(.34039 .036133 -.036133 .34039 -27.512 -26.606)" gradientUnits="userSpaceOnUse">
   <stop stop-color="#60a5fa" offset="0"/>
   <stop stop-color="#365fd8" offset=".23216"/>
   <stop stop-color="#3b82f6" offset=".43871"/>
   <stop stop-color="#4d4eeb" offset=".65563"/>
   <stop stop-color="#60a5fa" offset="1"/>
  </linearGradient>
  <linearGradient id="linearGradient24274-6" x1="132.11" x2="1068.3" y1="575.51" y2="320.25" gradientTransform="matrix(.34039 .036133 -.036133 .34039 -27.512 -26.606)" gradientUnits="userSpaceOnUse">
   <stop stop-color="#1c52f2" offset="0"/>
   <stop stop-color="#d62bc3" stop-opacity=".42363" offset="1"/>
  </linearGradient>
  <linearGradient id="linearGradient118139" x1="100.6" x2="345.1" y1="115.79" y2="-9.8374" gradientTransform="matrix(.93149 0 0 .93149 2.0543 8.135)" gradientUnits="userSpaceOnUse">
   <stop stop-color="#8b5cf6" offset="0"/>
   <stop stop-color="#5151dc" offset=".25152"/>
   <stop stop-color="#3b82f6" offset=".4454"/>
   <stop stop-color="#8b5cf6" offset=".63944"/>
   <stop stop-color="#60a5fa" offset=".83593"/>
   <stop stop-color="#60a5fa" offset="1"/>
  </linearGradient>
  <linearGradient id="linearGradient161031" x1="-12.42" x2="373.66" y1="169.75" y2="-5.834" gradientTransform="matrix(.93149 0 0 .93149 2.0543 2.2287)" gradientUnits="userSpaceOnUse" xlink:href="#linearGradient25627"/>
 </defs>
 <rect width="338.67" height="211.67" fill="#2a2e32" stop-color="#000000" style="-inkscape-stroke:none;font-variation-settings:normal;paint-order:stroke fill markers"/>
 <path d="m343.05-7.7364c-50.573 6.3596-46.945 71.957-93.457 79.456-30.92 1.7364-40.735-7.9137-64.261-1.9903-28.024 7.0556-44.746 32.568-68.691 34.871-25.648 2.4673-54.818-10.423-82.635 2.8196-17.271 8.222-25.325 29.234-35.43 44.259v19.215c22.663-12.994 42.335-32.868 58.69-38.048 16.669-5.2803 33.788-2.1809 51.228-1.7594 15.359 0.37122 31.32-10.281 47.16-11.333 31.67-2.1028 65.898 6.0227 96.935 0.9531 30.124-4.9205 51.486-29.291 79.876-36.484 3.444-0.87254 6.983-1.3785 10.585-1.6429z" fill="url(#linearGradient161031)"/>
 <path d="m94.015 128.11s26.261-4.277 39.411-6.2879c18.866-2.885 37.96-4.4341 56.652-8.2887 18.683-3.8528 37.556-7.7486 55.284-14.793 22.916-9.1063 42.491-25.294 65.098-35.143 10.509-4.5783 32.569-11.036 32.569-11.036m-249.57 75.038s26.488-4.223 39.724-6.383c18.863-3.0782 37.874-5.3848 56.565-9.3728 18.721-3.9944 37.806-7.3794 55.553-14.553 22.77-9.204 41.916-25.84 64.23-36.101 10.81-4.9709 33.53-12.239 33.53-12.239m-250.16 78.138s26.717-4.1669 40.037-6.477c18.865-3.2716 37.782-6.3322 56.479-10.455 18.759-4.1367 38.058-7.0083 55.823-14.316 22.623-9.306 41.323-26.404 63.34-37.065 11.103-5.3763 34.471-13.467 34.471-13.467m-250.71 81.27s26.946-4.1088 40.349-6.5698c18.872-3.4651 37.685-7.2762 56.394-11.536 18.797-4.2798 38.313-6.6324 56.093-14.082 22.5-9.427 40.744-27.036 62.486-38.1 11.417-5.8103 35.488-14.751 35.488-14.751m-251.37 84.528s27.176-4.049 40.659-6.6615c18.884-3.659 37.584-8.2171 56.309-12.615 18.834-4.4233 38.568-6.258 56.363-13.85 22.351-9.5366 40.11-27.629 61.549-39.07 11.691-6.2392 36.382-16.023 36.382-16.023m-251.82 87.71s27.408-3.9874 40.969-6.7521c18.901-3.8532 37.477-9.1549 56.226-13.692 18.871-4.5673 38.827-5.8793 56.633-13.621 22.225-9.6636 39.488-28.282 60.644-40.103 11.982-6.6949 37.344-17.345 37.344-17.345m-252.38 91.003s27.64-3.9242 41.279-6.8418c18.923-4.0479 37.366-10.09 56.143-14.769 18.908-4.7115 39.088-5.4984 56.903-13.395 22.106-9.7985 38.856-28.96 59.735-41.155 12.271-7.1666 38.313-18.694 38.313-18.694m-252.93 94.343s27.873-3.8598 41.587-6.9306c18.95-4.2432 37.25-11.022 56.061-15.844 18.944-4.8558 39.351-5.1156 57.172-13.17 21.994-9.9408 38.214-29.662 58.824-42.224 12.556-7.6532 39.287-20.065 39.287-20.065m-253.49 97.723s28.107-3.7941 41.895-7.0185c18.981-4.4391 37.13-11.952 55.98-16.918 18.98-5.0002 39.617-4.7312 57.442-12.947 21.89-10.089 37.562-30.382 57.908-43.304 12.837-8.1532 40.263-21.455 40.263-21.455m-254.05 101.13s28.342-3.7274 42.201-7.1058c19.018-4.6358 37.004-12.88 55.899-17.991 19.016-5.1444 39.884-4.3453 57.712-12.726 21.793-10.244 36.9-31.12 56.991-44.396 13.114-8.6658 41.245-22.859 41.245-22.859m-254.61 104.57s28.578-3.6598 42.507-7.1923c19.059-4.8332 36.874-13.805 55.82-19.064 19.052-5.2884 40.143-3.9811 57.982-12.506 21.426-10.238 35.869-31.286 55.433-44.744 13.066-8.9876 41.144-23.886 41.144-23.886l1.7298-1.1622m-255.18 108.04s28.814-3.5913 42.812-7.2779c19.104-5.0314 36.74-14.728 55.741-20.136 19.087-5.4322 40.425-3.5698 58.252-12.288 21.623-10.574 35.548-32.645 55.148-46.617 13.651-9.7307 43.218-25.719 43.218-25.719m-255.73 111.53s29.051-3.5223 43.117-7.3634c19.154-5.2308 36.601-15.65 55.662-21.208 19.122-5.5754 40.698-3.1811 58.523-12.069 21.549-10.745 34.86-33.418 54.228-47.726 13.909-10.275 44.206-27.149 44.206-27.149m-256.3 115s29.289-3.4531 43.42-7.4487c19.208-5.4313 36.457-16.572 55.584-22.281 19.157-5.7181 40.972-2.7923 58.795-11.85 21.481-10.917 34.164-34.191 53.308-48.824 14.158-10.822 45.188-28.567 45.188-28.567m-256.85 118.46s29.527-3.3836 43.722-7.5339c19.266-5.6332 36.308-17.493 55.506-23.355 19.192-5.8602 41.247-2.4035 59.067-11.631 21.419-11.09 33.463-34.961 52.391-49.909 14.399-11.371 46.168-29.969 46.168-29.969m-257.41 121.89s29.766-3.3141 44.023-7.619c19.329-5.8365 36.154-18.414 55.428-24.43 19.228-6.0015 41.523-2.0149 59.341-11.41 21.362-11.264 32.756-35.725 51.479-50.98 14.631-11.921 47.145-31.352 47.145-31.352m-257.98 125.28s30.005-3.2447 44.322-7.7043c19.395-6.0413 35.995-19.334 55.349-25.506 19.263-6.1421 41.8-1.6267 59.616-11.188 21.31-11.437 32.046-36.48 50.57-52.029 14.854-12.469 48.116-32.71 48.116-32.71m-258.53 128.63s30.245-3.1755 44.621-7.7897c19.466-6.2475 35.831-20.255 55.271-26.583 19.299-6.2818 42.078-1.2388 59.892-10.964 21.263-11.609 31.333-37.224 49.668-53.059 15.069-13.014 49.083-34.041 49.083-34.041m-259.09 131.93s30.485-3.1067 44.919-7.8752c19.54-6.4554 35.662-21.177 55.192-27.662 19.335-6.4207 42.356-0.85154 60.17-10.739 21.22-11.778 30.618-37.953 48.77-54.062 15.274-13.555 50.043-35.339 50.043-35.339m-259.65 135.17s30.725-3.0383 45.215-7.9611c19.618-6.665 35.487-22.099 55.112-28.743 19.372-6.5586 42.635-0.46482 60.449-10.512 21.181-11.945 29.902-38.666 47.88-55.039 15.47-14.089 50.996-36.603 50.996-36.603m-260.21 138.35s30.965-2.9704 45.51-8.0473c19.699-6.8762 35.308-23.021 55.032-29.826 19.409-6.6955 42.914-0.07862 60.731-10.282 21.144-12.109 29.185-39.36 46.998-55.986 15.658-14.615 51.942-37.83 51.942-37.83m-260.77 141.46s31.205-2.9032 45.803-8.1339c19.785-7.0892 35.124-23.945 54.952-30.91 19.447-6.8314 43.193 0.30696 61.014-10.05 21.11-12.268 28.47-40.035 46.122-56.903 15.838-15.134 52.881-39.018 52.881-39.018m-261.33 144.5s31.446-2.8367 46.095-8.2208c19.873-7.304 34.934-24.869 54.871-31.997 19.485-6.9663 43.472 0.6921 61.299-9.8155 21.077-12.423 27.755-40.689 45.255-57.787 16.009-15.642 53.811-40.165 53.811-40.165m-261.89 147.47s31.686-2.771 46.386-8.3082c19.965-7.5206 34.739-25.795 54.789-33.086 19.525-7.1001 43.751 1.0768 61.586-9.5783 21.047-12.574 27.043-41.32 44.396-58.639 16.173-16.141 54.734-41.269 54.734-41.269m-262.45 150.37s31.927-2.7062 46.676-8.396c20.061-7.7391 34.539-26.722 54.706-34.177 19.565-7.2328 44.03 1.4612 61.876-9.3386 21.017-12.719 26.334-41.929 43.546-59.457 16.329-16.629 55.647-42.33 55.647-42.33m-263.01 153.19s32.167-2.6423 46.964-8.4844c20.159-7.9595 34.334-27.649 54.623-35.271 19.606-7.3644 44.31 1.8454 62.167-9.096 20.988-12.859 25.628-42.515 42.705-60.241 16.479-17.105 56.552-43.348 56.552-43.348m-263.57 155.93s32.408-2.5794 47.25-8.5731c20.261-8.1817 34.123-28.579 54.539-36.366 19.647-7.4949 44.589 2.2295 62.461-8.8507 20.959-12.994 24.924-43.076 41.871-60.99 16.621-17.57 57.447-44.321 57.447-44.321m-264.13 158.59s32.648-2.5176 47.536-8.6624c20.366-8.4058 33.908-29.509 54.454-37.465 19.69-7.6242 44.868 2.6136 62.758-8.6025 20.931-13.123 24.226-43.614 41.048-61.707 16.758-18.023 58.337-45.252 58.337-45.252m-264.69 161.18s32.888-2.4568 47.819-8.7522c20.474-8.6319 33.687-30.441 54.367-38.565 19.734-7.7525 45.147 2.998 63.056-8.3515 20.902-13.246 23.532-44.129 40.233-62.389 16.888-18.465 59.215-46.139 59.215-46.139" fill="none" stroke="url(#linearGradient118139)" stroke-width=".090567px"/>
 <path d="m0.20948 181.19c18.608-4.8096 38.548-33.139 58.944-36.186 24.066-3.5957 43.663 17.02 68.605 17.496 41.314 0.78847 61.105-41.395 111.61-12.331 21.994 12.656 59.446 1.527 79.914-23.182m-319.28 53.773c18.415-4.9375 38.142-33.712 58.744-36.665 23.977-3.4918 43.942 16.922 69.136 17.165 40.76 0.64285 60.766-40.716 110.57-12.445 22.159 12.272 58.872 1.3962 79.619-22.62m-318.27 54.135c18.222-5.0654 37.736-34.286 58.543-37.145 23.887-3.3879 44.222 16.825 69.667 16.834 40.207 0.49726 60.426-40.036 109.53-12.559 22.324 11.889 58.299 1.2653 79.324-22.058m-317.27 54.497c18.029-5.1933 37.33-34.86 58.343-37.624 23.798-3.2839 44.502 16.727 70.198 16.504 39.653 0.35161 60.087-39.357 108.49-12.673 22.489 11.505 57.726 1.1343 79.029-21.495m-316.26 54.859c17.836-5.3212 36.924-35.433 58.142-38.103 23.709-3.18 44.782 16.629 70.729 16.173 39.1 0.20596 59.748-38.678 107.45-12.787 22.654 11.122 57.152 1.0034 78.734-20.933m-315.25 55.221c17.643-5.4491 36.518-36.007 57.941-38.583 23.619-3.0761 45.061 16.532 71.26 15.842 38.546 0.0603 59.408-37.999 106.4-12.901 22.818 10.738 56.579 0.87249 78.438-20.371m-314.25 55.582c17.45-5.577 36.113-36.581 57.741-39.062 23.53-2.9723 45.341 16.434 71.792 15.512 37.993-0.0852 59.069-37.319 105.36-13.015 22.983 10.354 56.006 0.74159 78.143-19.808m-313.24 55.944c17.257-5.7049 35.707-37.154 57.54-39.542 23.441-2.8683 45.621 16.337 72.323 15.181 37.439-0.23085 58.73-36.64 104.32-13.129 23.148 9.9708 55.432 0.61065 77.848-19.246m-312.23 56.306c17.064-5.8328 35.301-37.728 57.34-40.021 23.352-2.7644 45.901 16.239 72.854 14.85 36.886-0.3765 58.39-35.961 103.28-13.243 23.313 9.5872 54.859 0.47974 77.553-18.684m-311.04 56.602c16.819-6.1288 34.792-38.244 56.956-40.435 23.262-2.6605 46.18 16.141 73.385 14.519 36.332-0.52214 58.051-35.282 102.24-13.357 23.477 9.2036 54.286 0.34885 77.258-18.122m-309.84 56.884c16.568-6.4457 34.277-38.746 56.554-40.835 23.173-2.5566 46.46 16.044 73.916 14.189 35.778-0.66772 57.712-34.602 101.2-13.471 23.642 8.82 53.712 0.21792 76.962-17.559m-308.63 57.159c16.317-6.7672 33.765-39.241 56.152-41.227 23.084-2.4527 46.74 15.946 74.447 13.858 35.225-0.81335 57.373-33.923 100.15-13.585 23.807 8.4363 53.139 0.0871 76.667-16.997m-307.42 57.426c16.066-7.0935 33.258-39.726 55.749-41.611 22.994-2.3488 47.02 15.848 74.978 13.527 34.671-0.95899 57.033-33.244 99.112-13.699 23.972 8.0527 52.565-0.0441 76.372-16.435m-306.21 57.684c15.815-7.4234 32.754-40.202 55.347-41.987 22.905-2.2449 47.299 15.751 75.51 13.197 34.118-1.1046 56.694-32.564 98.07-13.813 24.136 7.6691 51.992-0.17483 76.077-15.872m-305 57.932c15.565-7.7576 32.255-40.669 54.946-42.353 22.816-2.141 47.579 15.653 76.041 12.866 33.564-1.2502 56.355-31.885 97.028-13.927 24.301 7.2855 51.419-0.30568 75.782-15.31m-303.8 58.172c15.314-8.0959 31.76-41.125 54.544-42.71 22.726-2.037 47.859 15.556 76.572 12.535 33.011-1.3958 56.015-31.206 95.986-14.041 24.466 6.9019 50.845-0.43668 75.487-14.748m-302.59 58.401c15.064-8.438 31.269-41.57 54.142-43.056 22.637-1.9331 48.139 15.458 77.103 12.204 32.457-1.5415 55.676-30.527 94.944-14.155 24.631 6.5182 50.272-0.56758 75.191-14.185m-301.38 58.619c14.815-8.7837 30.783-42.004 53.74-43.392 22.548-1.8292 48.418 15.36 77.634 11.874 31.904-1.6871 55.337-29.847 93.902-14.269 24.795 6.1346 49.699-0.6985 74.896-13.623m-300.17 58.826c14.566-9.1329 30.302-42.426 53.338-43.717 22.459-1.7254 48.698 15.263 78.165 11.543 31.35-1.8327 54.998-29.168 92.861-14.383 24.96 5.7511 49.125-0.82939 74.601-13.061m-298.96 59.021c14.317-9.4854 29.826-42.835 52.935-44.029 22.369-1.6214 48.978 15.165 78.696 11.212 30.797-1.9783 54.658-28.489 91.819-14.497 25.125 5.3674 48.552-0.96032 74.306-12.499m-297.76 59.203c14.069-9.8406 29.355-43.23 52.534-44.329 22.28-1.5175 49.258 15.068 79.227 10.882 30.243-2.124 54.319-27.809 90.777-14.611 25.29 4.9838 47.978-1.0912 74.011-11.936m-296.55 59.372c13.822-10.199 28.889-43.611 52.131-44.615 22.191-1.4136 49.537 14.97 79.759 10.551 29.689-2.2696 53.98-27.13 89.735-14.725 25.455 4.6002 47.405-1.2222 73.715-11.374m-295.34 59.526c13.576-10.558 28.429-43.978 51.73-44.888 22.101-1.3097 49.817 14.872 80.29 10.22 29.136-2.4152 53.64-26.451 88.693-14.839 25.619 4.2165 46.832-1.3531 73.42-10.812m-294.13 59.666c13.33-10.92 27.975-44.328 51.328-45.145 22.012-1.2058 50.097 14.775 80.821 9.8893 28.582-2.5608 53.301-25.772 87.651-14.953 25.784 3.833 46.258-1.484 73.125-10.249m-292.92 59.79c13.086-11.284 27.526-44.661 50.925-45.386 21.923-1.1018 50.377 14.677 81.352 9.5586 28.029-2.7064 52.962-25.092 86.61-15.067 25.949 3.4493 45.685-1.6149 72.83-9.687m-291.72 59.897c12.843-11.648 27.084-44.978 50.524-45.611 21.833-0.99791 50.656 14.579 81.883 9.2279 27.475-2.8521 52.622-24.413 85.568-15.181 26.114 3.0657 45.112-1.7458 72.535-9.1247m-290.51 59.987c12.602-12.013 26.649-45.276 50.122-45.819 21.744-0.89403 50.936 14.482 82.414 8.8972 26.922-2.9976 52.283-23.734 84.526-15.295 26.278 2.6821 44.538-1.8767 72.24-8.5624m-289.3 60.058c12.361-12.379 26.219-45.553 49.719-46.007 21.655-0.79011 51.216 14.384 82.945 8.5665 26.368-3.1433 51.944-23.054 83.484-15.409 26.443 2.2985 43.965-2.0076 71.944-8.0001m-288.09 60.11c12.123-12.743 25.797-45.811 49.318-46.177 21.566-0.68621 51.496 14.286 83.477 8.2358 25.815-3.2889 51.605-22.375 82.442-15.523 26.608 1.9149 43.392-2.1385 71.649-7.4378m-286.89 60.141c11.886-13.106 25.382-46.046 48.916-46.326 21.476-0.58231 51.775 14.189 84.008 7.905 25.261-3.4345 51.265-21.696 81.4-15.637 26.773 1.5313 42.818-2.2695 71.354-6.8754m-285.68 60.151c11.651-13.467 24.974-46.259 48.514-46.453 21.387-0.4784 52.055 14.091 84.539 7.5743 24.707-3.5801 50.926-21.017 80.358-15.751 26.937 1.1477 42.245-2.4003 71.059-6.3131m-284.47 60.137c11.419-13.826 24.574-46.448 48.111-46.557 21.298-0.37446 52.335 13.994 85.07 7.2436 24.154-3.7257 50.587-20.337 79.317-15.865 27.102 0.76407 41.671-2.5313 70.764-5.7508m-283.26 60.1c11.189-14.181 24.182-46.611 47.709-46.637 21.208-0.27057 52.615 13.896 85.601 6.9128 23.6-3.8714 50.247-19.658 78.275-15.979 27.267 0.38046 41.098-2.6622 70.468-5.1885m-282.05 60.037c10.962-14.532 23.798-46.748 47.307-46.692 21.119-0.16667 52.894 13.798 86.132 6.5821 23.047-4.017 49.908-18.979 77.233-16.093 27.432-9.3e-4 40.525-2.7931 70.173-4.6262m-280.85 59.949c10.737-14.878 23.422-46.857 46.906-46.721 21.03-0.0626 53.174 13.701 86.663 6.2514 22.493-4.1626 49.569-18.3 76.191-16.207 27.597-0.38677 39.951-2.924 69.878-4.0639m-279.64 59.832c10.516-15.217 23.055-46.937 46.504-46.722 20.94 0.0412 53.454 13.603 87.194 5.9207 21.94-4.3082 49.23-17.62 75.149-16.321 27.761-0.77041 39.378-3.055 69.583-3.5016m-278.43 59.686c10.297-15.549 22.697-46.986 46.101-46.693 20.851 0.1451 53.734 13.506 87.726 5.5899 21.386-4.4539 48.89-16.941 74.107-16.435 27.926-1.154 38.805-3.1859 69.288-2.9393m-277.22 59.512c10.083-15.871 22.349-47.006 45.701-46.637 20.762 0.24899 54.013 13.408 88.257 5.2592 20.833-4.5994 48.551-16.262 73.066-16.549 28.091-1.5376 38.231-3.3168 68.992-2.377m-276.02 59.306c9.8728-16.185 22.01-46.991 45.3-46.548 20.673 0.35289 54.293 13.31 88.788 4.9285 20.279-4.7451 48.212-15.582 72.024-16.663 28.256-1.9212 37.658-3.4477 68.697-1.8147m-274.81 59.063c9.6662-16.488 21.68-46.938 44.896-46.423 20.583 0.45681 54.573 13.213 89.319 4.5978 19.726-4.8907 47.872-14.903 70.982-16.777 28.42-2.3049 37.085-3.5786 68.402-1.2524" fill="none" stop-color="#000000" stroke="url(#linearGradient24274-6)" stroke-width=".2717" style="font-variation-settings:normal"/>
 <path d="m343.05-6.0734c-50.573 6.3596-46.945 70.862-93.457 78.361-30.92 1.7364-40.735-6.7831-64.261-0.85971-28.024 7.0556-44.746 31.437-68.691 33.741-25.648 2.4673-54.818-9.9337-82.635 3.3089-17.271 8.222-25.325 29.162-35.43 44.187v20.468c22.663-12.994 42.335-32.868 58.69-38.048 16.669-5.2803 33.788-2.1809 51.228-1.7594 15.359 0.37123 31.32-10.281 47.16-11.333 31.67-2.1028 65.898 6.0228 96.935 0.95311 30.124-4.9205 51.486-29.291 79.876-36.484 3.444-0.87254 6.983-1.3785 10.585-1.6429z" fill="url(#linearGradient4551-1-9)"/>
 <path d="m343.05 38.118c-31.488 4.1843-47.376 16.926-66.838 43.595-23.101 31.655-66.129 19.31-66.129 19.31l50.779 17.914 82.189-14.962z" fill="url(#linearGradient12309-5-1)"/>
 <path d="m101.32 119.08c7.4972 0.6898 26.901-0.37077 34.251-2.8794 37.381-18.196 51.351-38.897 93.967-26.531 47.784 13.866 64.249-51.221 113.59-58.427m-242.07 102.49s17.329-0.85586 41.598-2.3114c42.859-3.0196 56.006-2.2217 102.88 10.503 32.225 8.7479 66.713-33.244 97.608-38.8m-242.08 30.103c0.25854 0.0238 17.659-0.83915 41.345-2.331 42.651-3.5948 55.963-3.4958 102.57 9.2256 32.542 8.8818 66.984-33.181 98.162-39.079m-242.07 31.679c0.51706 0.0479 17.989-0.82242 41.091-2.3505 42.443-4.1685 55.914-4.7758 102.26 7.9486 32.863 9.0219 67.256-33.144 98.711-39.397m-242.06 33.294c0.77556 0.0713 18.319-0.80565 40.838-2.3701 42.197-4.7415 55.917-6.0465 101.96 6.6716 33.191 9.1685 67.529-33.137 99.256-39.757m-242.04 34.951c1.0341 0.0951 18.649-0.78895 40.585-2.3897 41.999-5.3146 55.852-7.3408 101.65 5.3946 33.528 9.3234 67.811-33.165 99.809-40.163m-242.03 36.653c1.2926 0.11899 18.979-0.77224 40.331-2.4093 41.809-5.8866 55.774-8.6443 101.34 4.1176 33.875 9.4871 68.1-33.231 100.37-40.615m-242.03 38.402c1.5511 0.14268 19.309-0.75548 40.078-2.4288 41.601-6.4437 55.674-9.9597 101.04 2.8406 34.232 9.6597 68.392-33.338 100.93-41.114m-242.03 40.197c1.8096 0.16653 19.639-0.73873 39.825-2.4484 41.39-7.0062 55.603-11.273 100.73 1.5636 34.595 9.8414 68.682-33.49 101.48-41.658m-242.02 42.037c2.0682 0.1903 19.97-0.72203 39.571-2.468 41.178-7.5654 55.523-12.584 100.42 0.28651 34.992 10.031 68.95-33.688 102.02-42.248m-242 43.924c2.3267 0.21406 20.3-0.70528 39.318-2.4876 40.968-8.121 55.44-13.908 100.11-0.99046 35.472 10.257 69.15-33.923 102.56-42.884m-241.98 45.857c2.5852 0.23788 20.63-0.68857 39.065-2.5072 40.758-8.673 55.353-15.244 99.806-2.2675 35.905 10.481 69.426-34.241 103.11-43.571m-241.97 47.841c2.8438 0.26165 20.96-0.67185 38.811-2.5268 40.549-9.2209 55.261-16.59 99.499-3.5445 36.357 10.722 69.698-34.629 103.66-44.303m-241.96 49.869c3.1023 0.28543 21.29-0.65512 38.558-2.5464 40.342-9.7645 55.164-17.947 99.191-4.8215 36.829 10.979 69.972-35.096 104.21-45.078m-241.95 51.94c3.3608 0.30921 21.62-0.63839 38.305-2.566 40.136-10.304 55.062-19.315 98.884-6.0985 37.321 11.256 70.252-35.65 104.76-45.891m-241.94 54.051c3.6193 0.333 21.95-0.62167 38.051-2.5856 39.933-10.838 54.956-20.695 98.577-7.3755 37.835 11.553 70.541-36.301 105.31-46.739m-241.93 56.195c3.8778 0.3568 22.28-0.60493 37.798-2.6051 39.732-11.367 54.844-22.088 98.27-8.6525 38.367 11.87 70.847-37.058 105.86-47.615m-241.92 58.367c4.1364 0.38058 22.61-0.58822 37.545-2.6247 39.534-11.892 54.727-23.494 97.962-9.9295 38.916 12.209 71.183-37.931 106.41-48.51m-241.91 60.559c4.3949 0.40437 22.94-0.57152 37.291-2.6443 39.34-12.411 54.623-24.969 97.655-11.207 39.014 12.478 71.716-38.971 106.96-49.415m-241.89 62.761c4.6534 0.42817 23.27-0.55477 37.038-2.6639 39.149-12.924 54.497-26.403 97.348-12.484 39.56 12.85 72.075-40.067 107.52-50.323m-241.89 64.965c4.9119 0.45192 23.6-0.53802 36.784-2.6835 38.963-13.433 54.363-27.843 97.04-13.761 40.127 13.241 72.459-41.273 108.07-51.217m-241.88 67.156c5.1705 0.47576 23.93-0.5213 36.531-2.7031 38.781-13.935 54.22-29.286 96.733-15.038 40.718 13.647 72.884-42.581 108.62-52.089m-241.87 69.324c5.429 0.49953 24.26-0.50457 36.278-2.7227 38.604-14.432 54.066-30.725 96.426-16.315 41.34 14.063 73.356-43.977 109.17-52.924m-241.86 71.457c5.6875 0.52327 24.59-0.48784 36.024-2.7423 38.431-14.923 53.894-32.14 96.118-17.592 41.719 14.374 73.276-45.085 108.93-53.539 0.2689-0.0612 0.53712-0.12198 0.80471-0.18193m-241.87 73.55c5.946 0.54708 24.92-0.47111 35.771-2.7618 38.264-15.409 53.456-32.801 95.811-18.869 46.441 15.276 66.572-45.212 110.29-54.488m-241.86 75.613c6.2046 0.5709 25.25-0.45438 35.518-2.7814 38.103-15.888 53.147-33.876 95.504-20.146 46.693 15.136 66.241-46.289 110.84-55.221m-241.85 77.643c6.463 0.59464 25.58-0.43765 35.264-2.801 37.947-16.362 52.822-34.93 95.196-21.423 46.946 14.965 65.859-47.333 111.39-55.922m-241.84 79.641c6.7216 0.61845 25.911-0.42096 35.011-2.8206 37.797-16.829 52.479-35.959 94.889-22.7 47.189 14.753 65.46-48.352 111.94-56.594m-241.84 81.609c6.9801 0.64226 26.241-0.4042 34.758-2.8402 37.652-17.291 52.12-36.965 94.582-23.977 47.408 14.501 65.049-49.339 112.49-57.233m-241.82 83.544c7.2386 0.66602 26.571-0.38745 34.504-2.8598 37.513-17.747 51.743-37.942 94.274-25.254 47.609 14.204 64.651-50.3 113.05-57.846" fill="none" stroke="url(#linearGradient6948-1)" stroke-width=".090567px"/>
 <path d="m343.05 64.508c-3.4604 0.50095-7.1029 1.1579-11.066 2.0289-40.693 8.9429-47.928 42.415-78.525 39.335-14.868-1.4966-47.383-10.662-61.996-7.9184-24.898 4.6739-35.623 20.642-61.127 22.983-29.927 2.7472-48.872-12.179-78.544-7.7369-24.931 3.7326-38.833 32.18-50.459 46.406-0.88853 1.0872-1.8097 2.0991-2.7572 3.0538v10.46c8.9936-4.4339 16.62-8.9086 20.932-11.71 61.911-52.688 52.291-8.7361 99.873-11.782 16.088-1.03 56.762-31.791 72.925-35.153 33.383-6.9441 40.033 16.365 73.293 10.975 27.494-4.4552 51.898-19.932 77.452-29.479z" fill="url(#linearGradient4479-5-19)"/>
 <path d="m343.05 86.893c-0.53112 0.08756-1.06 0.16329-1.5943 0.26716-19.846 3.8584-34.211 17.224-58.585 31.493-27.119 15.877-66.211-19.317-93.156-12.565-27.376 6.8597-39.471 30.441-66.625 34.243-27.471 3.846-44.039-30.003-80.216-15.559-21.709 8.668-28.776 30.476-39.26 41.227-1.6616 1.7038-3.3376 3.2341-5.0375 4.622v12.247c2.7696-1.1499 5.5885-2.5278 8.4701-4.1802 22.169-12.712 31.123-40.364 57.87-42.07 14.598-0.93095 31.5 17.11 53.892 19.882 29.952 3.7069 50.888-24.776 68.106-27.834 35.468-6.2989 48.002 19.687 74.364 22.617 34.456 3.8291 56.096-23.685 81.772-38.103z" fill="url(#linearGradient4687-8-9)"/>
 <path d="m343.06 92.165c-24.639 17.407-45.571 59.341-77.666 59.328 32.074 1.2882 53.029-24.488 77.666-38.298zm-141.63 20.517c-30.851 0.50752-48.023 42.434-79.563 44.088 28.318 1.487 48.429-25.151 65.051-28.103 35.468-6.2989 48.002 19.687 74.364 22.617-24.714-2.7465-30.676-39.082-59.852-38.602zm-137.7 16.258c-26.31-0.31531-45.267 43.323-65.155 50.892v2.6056c2.7177-1.2217 5.4521-2.5728 8.1716-4.0661 22.169-12.712 31.422-40.047 58.169-41.753 14.598-0.93095 31.5 17.196 53.892 19.967-22.392-2.7712-30.888-27.357-55.078-27.647z" fill="#e9ebed" fill-opacity=".49133" opacity=".23994"/>
 <path d="m343.05 110.87c-23.843 14.396-45.439 39.661-75.933 40.578-0.57176 0.0266-1.1458 0.0441-1.7247 0.0438 1.0023 0.0403 1.9938 0.0542 2.9748 0.0429 3.9236-0.0456 7.6809-0.49587 11.3-1.2727 0.64909-0.1393 1.2884-0.30073 1.9288-0.46066 0.25247-0.063 0.50938-0.11532 0.76057-0.18147 0-1.3e-4 0-2.5e-4 3e-3 -5e-4 0.42637-0.11232 0.84523-0.2433 1.2679-0.36439 0.45794-0.13118 0.91961-0.25358 1.3733-0.39472 0.87169-0.27118 1.7354-0.56033 2.5921-0.86644 0-2.5e-4 0-7.5e-4 3e-3 -9.3e-4 0.85661-0.30608 1.7062-0.62892 2.5488-0.96755 0-2.4e-4 3e-3 -7.3e-4 3e-3 -9.3e-4 0.0979-0.0393 0.19346-0.0835 0.29121-0.12322 0.74411-0.30286 1.4852-0.61327 2.2191-0.93962 0.82943-0.36883 1.6522-0.75191 2.4694-1.1485 0-4.9e-4 3e-3 -9.3e-4 3e-3 -2e-3 0.77154-0.37447 1.5376-0.76289 2.299-1.1601 0.0459-0.024 0.0928-0.0458 0.13863-0.0698 0.80555-0.42192 1.6054-0.85571 2.4005-1.3006 0-7.4e-4 3e-3 -9.4e-4 4e-3 -2e-3 0.79518-0.44496 1.5855-0.90098 2.3712-1.3666 0-7.4e-4 3e-3 -9.3e-4 4e-3 -2e-3 0.78559-0.46559 1.5668-0.9405 2.3438-1.4244 0-7.3e-4 3e-3 -2e-3 4e-3 -3e-3 0.77696-0.48388 1.5495-0.97609 2.3187-1.4759 0-7.3e-4 3e-3 -2e-3 4e-3 -3e-3 1.5395-1.0002 3.0646-2.0301 4.5787-3.0798 0-9.3e-4 3e-3 -2e-3 4e-3 -3e-3 0.70485-0.48863 1.4006-0.99303 2.1012-1.4893 0.80562-0.57079 1.616-1.1345 2.4169-1.7127 2.9928-2.1606 5.9559-4.3632 8.9192-6.5311 0-7.3e-4 3e-3 -9.3e-4 3e-3 -2e-3 0.0963-0.0705 0.19253-0.13902 0.28882-0.2094 1.3871-1.0137 2.7744-2.0212 4.1647-3.0109 1.4838-1.0563 2.9711-2.0947 4.4656-3.1053v-4.9e-4c1.2071-0.81626 2.4237-1.5988 3.642-2.3741 0.29247-0.18608 0.58097-0.38656 0.87416-0.56993 0.75679-0.47325 1.5162-0.93668 2.2788-1.3902 0.44159-0.2626 0.88674-0.51387 1.3305-0.76922 0.32311-0.18589 0.64417-0.37796 0.9685-0.55981zm-144.21 15.326v5e-4c-30.007-0.77857-42.87 31.39-76.977 30.573 28.318 1.487 48.429-25.151 65.051-28.103 1.0777-0.19139 2.1324-0.3504 3.1688-0.48377 0.34246-0.0441 0.6718-0.0694 1.0099-0.10734 0.68706-0.0771 1.3748-0.15487 2.0443-0.20746 0.38897-0.0306 0.76483-0.0435 1.148-0.066 0.59946-0.0353 1.2006-0.0729 1.7863-0.0891 0.39885-0.011 0.78664-7e-3 1.1793-9e-3 0.55674-4e-3 1.1146-7e-3 1.6593 5e-3 0.37926 8e-3 0.7499 0.031 1.1235 0.0482 0.54718 0.025 1.093 0.0509 1.6284 0.0919 0.35533 0.0273 0.70437 0.0635 1.0547 0.0977 0.53326 0.0521 1.0641 0.10726 1.5861 0.17474 0.34144 0.0442 0.67793 0.0953 1.0147 0.14585 0.52344 0.0784 1.0436 0.16143 1.5562 0.25463 0.31109 0.0566 0.61939 0.11722 0.92662 0.17907 0.53184 0.10693 1.0586 0.22038 1.5794 0.34225 0.2788 0.0654 0.55655 0.13228 0.83228 0.2017 0.53791 0.13528 1.0699 0.27826 1.5967 0.42841 0.24442 0.0697 0.4886 0.13948 0.73071 0.21228 0.5667 0.17018 1.1267 0.34927 1.6814 0.53527 0.19082 0.0641 0.38238 0.12719 0.57186 0.19302 0.60567 0.21023 1.2039 0.42979 1.7964 0.65707 0.13166 0.0505 0.26461 0.0993 0.39568 0.15066 0.67482 0.26413 1.3415 0.53896 2.001 0.82265 0.0427 0.0183 0.0859 0.036 0.12853 0.0544 2.8132 1.2169 5.4877 2.6052 8.1013 4.0579 0.2308 0.12839 0.46144 0.25617 0.69124 0.38558 4.2903 2.4142 8.4232 4.9824 12.659 7.3027 0.14148 0.0775 0.28474 0.15121 0.42649 0.22817 4.9571 2.6891 10.082 5.0081 15.834 6.2616-21.296-4.8393-30.72-23.63-57.986-24.337zm-132.66 9.5021c-0.46099-9e-3 -0.91955 7.4e-4 -1.3757 0.0298-26.747 1.7057-37.786 30.187-59.918 42.962-2.1393 1.2349-4.2492 2.2963-6.3073 3.2299v0.93385c0.85903-0.35831 1.7187-0.71943 2.5878-1.123 0.70027-0.32737 1.4054-0.6653 2.1214-1.0267 0.27374-0.1378 0.5483-0.27913 0.82312-0.42167 0.96842-0.50314 1.9447-1.0251 2.9373-1.5943 22.169-12.712 31.124-40.364 57.871-42.07 10.948-0.69822 23.193 9.3237 38.078 15.548 1.2404 0.51864 2.4989 1.0111 3.7768 1.4686 2.3431 0.83888 4.7593 1.5398 7.2358 2.093-19.375-4.4302-34.612-19.778-47.829-20.029zm47.829 20.029c0.37677 0.0862 0.75368 0.17117 1.1336 0.24887-0.3806-0.0763-0.75623-0.16457-1.1336-0.24887zm1.1336 0.24887c0.50222 0.10066 1.0041 0.20191 1.512 0.28786-0.50714-0.0871-1.0104-0.18528-1.512-0.28786zm1.512 0.28786c0.0756 0.0129 0.151 0.0264 0.22673 0.039-0.0758-0.0125-0.15106-0.0262-0.22673-0.039zm0.22673 0.039c0.63927 0.10514 1.2814 0.20231 1.9298 0.28255-0.64799-0.0802-1.2907-0.17603-1.9298-0.28255zm139.95-5.7696c0.71143 0.16166 1.4373 0.30597 2.1786 0.4313 0.74728 0.12352 1.503 0.23213 2.273 0.31769-1.5314-0.17019-3.0063-0.43403-4.4516-0.74899z" fill="url(#linearGradient14655-4)"/>
 <path d="m343.05 63.137s-6.7219 1.2031-10.303 2.26c-42.634 12.585-45.918 38.285-73.938 40.763-12.029 1.0639-46.664-11.113-65.928-8.4311-24.875 3.4631-37.769 19.685-59.522 22.735-26.786 3.7561-54.454-13.313-84.657-7.3073-23.55 4.6826-32.986 29.309-50.127 48.23v1.1425c14.45-14.462 26.131-43.327 50.127-48.756 29.262-6.6202 60.691 13.229 85.264 7.5667 26.489-6.1035 34.236-19.119 58.922-23 21.898-3.4426 51.827 11.145 66.064 9.4029 26.111-3.1947 35.688-29.628 76.049-41.3 2.7144-0.78499 8.0484-1.253 8.0484-1.253z" fill="url(#linearGradient25349-1)"/>
</svg>
