<?xml version="1.0" encoding="UTF-8"?>
<!-- Created with Inkscape (http://www.inkscape.org/) -->
<svg width="1280" height="1024" version="1.1" viewBox="0 0 338.67 270.93" xmlns="http://www.w3.org/2000/svg" xmlns:xlink="http://www.w3.org/1999/xlink">
 <defs>
  <linearGradient id="linearGradient25627">
   <stop stop-color="#bda62c" offset="0"/>
   <stop stop-color="#ae9a28" stop-opacity=".98824" offset=".14669"/>
   <stop stop-color="#8c7b20" stop-opacity=".96863" offset=".30531"/>
   <stop stop-color="#bda62c" stop-opacity=".95686" offset=".51079"/>
   <stop stop-color="#82721e" stop-opacity=".94902" offset=".6231"/>
   <stop stop-color="#c0ab2c" stop-opacity=".99608" offset=".83541"/>
   <stop stop-color="#7f6f1e" stop-opacity=".92157" offset="1"/>
  </linearGradient>
  <linearGradient id="linearGradient25349-1" x1="-19.327" x2="365.1" y1="174.88" y2="71.87" gradientTransform="matrix(1.3211 0 0 1.3211 -144.01 -10.665)" gradientUnits="userSpaceOnUse" xlink:href="#linearGradient25627"/>
  <linearGradient id="linearGradient14655-6" x1="-46.183" x2="1721.9" y1="706.05" y2="445.69" gradientTransform="matrix(.34953 0 0 .34953 -144.01 -10.665)" gradientUnits="userSpaceOnUse">
   <stop stop-color="#bda62c" offset="0"/>
   <stop stop-color="#615516" stop-opacity=".98824" offset=".098576"/>
   <stop stop-color="#cab12f" stop-opacity=".97647" offset=".25339"/>
   <stop stop-color="#8c7b20" stop-opacity=".96863" offset=".33815"/>
   <stop stop-color="#87771f" stop-opacity=".96471" offset=".42151"/>
   <stop stop-color="#bda62c" stop-opacity=".95686" offset=".53339"/>
   <stop stop-color="#82721e" stop-opacity=".94902" offset=".6231"/>
   <stop stop-color="#80711e" stop-opacity=".93725" offset=".73471"/>
   <stop stop-color="#d7be31" stop-opacity=".92941" offset=".83541"/>
   <stop stop-color="#bda62c" stop-opacity=".92175" offset="1"/>
  </linearGradient>
  <linearGradient id="linearGradient4687-8-9" x1="1155.1" x2="93.584" y1="262.51" y2="615.88" gradientTransform="matrix(.42588 .045208 -.045208 .42588 -115.5 -31.783)" gradientUnits="userSpaceOnUse">
   <stop stop-color="#8b5cf6" offset="0"/>
   <stop stop-color="#6d28d9" offset=".21248"/>
   <stop stop-color="#6f5cf6" offset=".42964"/>
   <stop stop-color="#7c3aed" offset=".59961"/>
   <stop stop-color="#6376f6" offset=".80968"/>
   <stop stop-color="#6d28d9" offset="1"/>
  </linearGradient>
  <linearGradient id="linearGradient4479-5-8" x1="1143.2" x2="120.86" y1="196.75" y2="539.49" gradientTransform="matrix(.42588 .045208 -.045208 .42588 -115.5 -31.783)" gradientUnits="userSpaceOnUse">
   <stop stop-color="#8b5cf6" offset="0"/>
   <stop stop-color="#5151dc" offset=".25152"/>
   <stop stop-color="#3b82f6" offset=".4454"/>
   <stop stop-color="#8b69f6" offset=".63944"/>
   <stop stop-color="#60a5fa" offset=".83593"/>
   <stop stop-color="#60a5fa" offset="1"/>
  </linearGradient>
  <linearGradient id="linearGradient6948-8" x1="466.89" x2="1404.4" y1="475.5" y2="195.51" gradientTransform="matrix(.42827 0 0 .42827 -152.42 -47.415)" gradientUnits="userSpaceOnUse">
   <stop stop-color="#3e2fdd" offset="0"/>
   <stop stop-color="#a4007e" offset="1"/>
  </linearGradient>
  <linearGradient id="linearGradient12309-5-5" x1="1181.7" x2="861.39" y1="252.37" y2="436.6" gradientTransform="matrix(.42827 0 0 .42827 -152.42 -46.045)" gradientUnits="userSpaceOnUse">
   <stop stop-color="#7e5af0" offset="0"/>
   <stop stop-color="#7c61ee" offset=".49538"/>
   <stop stop-color="#4c6fe2" offset="1"/>
  </linearGradient>
  <linearGradient id="linearGradient4551-1-4" x1="1112.8" x2="89.147" y1="69.067" y2="487.89" gradientTransform="matrix(.42588 .045208 -.045208 .42588 -115.5 -31.783)" gradientUnits="userSpaceOnUse">
   <stop stop-color="#60a5fa" offset="0"/>
   <stop stop-color="#365fd8" offset=".23216"/>
   <stop stop-color="#3b82f6" offset=".43871"/>
   <stop stop-color="#4d4eeb" offset=".65563"/>
   <stop stop-color="#60a5fa" offset="1"/>
  </linearGradient>
  <linearGradient id="linearGradient24274-5" x1="132.11" x2="1068.3" y1="575.51" y2="320.25" gradientTransform="matrix(.42588 .045208 -.045208 .42588 -115.5 -31.783)" gradientUnits="userSpaceOnUse">
   <stop stop-color="#1c52f2" offset="0"/>
   <stop stop-color="#d62bc3" stop-opacity=".42363" offset="1"/>
  </linearGradient>
  <linearGradient id="linearGradient118139" x1="100.6" x2="345.1" y1="115.79" y2="-9.8374" gradientTransform="matrix(1.1654 0 0 1.1654 -78.507 11.684)" gradientUnits="userSpaceOnUse">
   <stop stop-color="#8b5cf6" offset="0"/>
   <stop stop-color="#5151dc" offset=".25152"/>
   <stop stop-color="#3b82f6" offset=".4454"/>
   <stop stop-color="#8b5cf6" offset=".63944"/>
   <stop stop-color="#60a5fa" offset=".83593"/>
   <stop stop-color="#60a5fa" offset="1"/>
  </linearGradient>
  <linearGradient id="linearGradient161031" x1="-12.42" x2="373.66" y1="169.75" y2="-5.834" gradientTransform="matrix(1.1654 0 0 1.1654 -78.507 4.2941)" gradientUnits="userSpaceOnUse" xlink:href="#linearGradient25627"/>
 </defs>
 <rect width="338.67" height="270.93" fill="#2a2e32" stop-color="#000000" style="-inkscape-stroke:none;font-variation-settings:normal;paint-order:stroke fill markers"/>
 <path d="m348.14-8.1738c-63.275 7.9569-58.736 90.03-116.93 99.413-38.685 2.1726-50.966-9.9013-80.401-2.4902-35.062 8.8278-55.984 40.747-85.944 43.63-32.09 3.087-68.586-13.041-103.39 3.5278-21.609 10.287-31.686 36.576-44.328 55.375v24.041c28.355-16.257 52.968-41.123 73.431-47.605 20.856-6.6065 42.274-2.7287 64.094-2.2013 19.217 0.46447 39.186-12.864 59.005-14.18 39.624-2.6309 82.449 7.5354 121.28 1.1925 37.691-6.1564 64.417-36.648 99.938-45.648 4.309-1.0917 8.7368-1.7247 13.243-2.0555z" fill="url(#linearGradient161031)"/>
 <path d="m36.551 161.79s32.856-5.3512 49.31-7.8672c23.604-3.6096 47.494-5.5478 70.881-10.371 23.376-4.8205 46.988-9.6948 69.169-18.509 28.672-11.393 53.163-31.647 81.449-43.969 13.148-5.7282 40.75-13.808 40.75-13.808m-312.26 93.885s33.141-5.2837 49.702-7.9862c23.6-3.8513 47.386-6.7373 70.772-11.727 23.423-4.9976 47.301-9.2328 69.506-18.208 28.489-11.516 52.444-32.33 80.362-45.168 13.525-6.2195 41.952-15.313 41.952-15.313m-313 97.763s33.427-5.2135 50.093-8.1038c23.603-4.0932 47.271-7.9226 70.664-13.081 23.471-5.1757 47.616-8.7685 69.844-17.912 28.306-11.643 51.701-33.036 79.248-46.375 13.892-6.7267 43.129-16.849 43.129-16.849m-313.68 101.68s33.714-5.1408 50.483-8.2198c23.612-4.3354 47.15-9.1037 70.558-14.433 23.518-5.3547 47.935-8.2982 70.182-17.619 28.151-11.795 50.978-33.826 78.18-47.67 14.285-7.2696 44.402-18.456 44.402-18.456m-314.5 105.76s34.002-5.0659 50.872-8.3346c23.627-4.578 47.023-10.281 70.452-15.783 23.565-5.5343 48.255-7.8298 70.519-17.329 27.965-11.932 50.184-34.568 77.007-48.883 14.627-7.8063 45.52-20.048 45.52-20.048m-315.07 109.74s34.292-4.9888 51.259-8.448c23.648-4.821 46.89-11.454 70.347-17.132 23.611-5.7144 48.579-7.356 70.857-17.043 27.807-12.091 49.406-35.385 75.875-50.175 14.991-8.3764 46.724-21.702 46.724-21.702m-315.76 113.86s34.582-4.9099 51.646-8.5602c23.676-5.0646 46.751-12.624 70.244-18.478 23.657-5.8948 48.906-6.8794 71.194-16.759 27.658-12.259 48.615-36.234 74.739-51.492 15.352-8.9665 47.936-23.389 47.936-23.389m-316.46 118.04s34.874-4.8292 52.032-8.6713c23.709-5.3089 46.606-13.791 70.142-19.823 23.702-6.0754 49.235-6.4004 71.532-16.478 27.518-12.438 47.812-37.112 73.598-52.829 15.71-9.5755 49.155-25.105 49.155-25.105m-317.16 122.27s35.167-4.7471 52.417-8.7813c23.749-5.554 46.455-14.954 70.04-21.167 23.747-6.256 49.567-5.9194 71.87-16.199 27.388-12.623 46.996-38.013 72.452-54.181 16.062-10.201 50.376-26.843 50.376-26.843m-317.86 126.53s35.461-4.6636 52.801-8.8905c23.794-5.8001 46.298-16.115 69.939-22.51 23.792-6.4365 49.902-5.4366 72.208-15.922 27.267-12.817 46.168-38.936 71.305-55.547 16.408-10.842 51.604-28.6 51.604-28.6m-318.56 130.83s35.755-4.579 53.184-8.9988c23.845-6.0472 46.136-17.273 69.84-23.853 23.837-6.6167 50.225-4.981 72.546-15.647 26.807-12.809 44.878-39.144 69.356-55.982 16.347-11.245 51.478-29.886 51.478-29.886l2.1642-1.4541m-319.27 135.18s36.051-4.4932 53.565-9.1059c23.902-6.2951 45.968-18.427 69.741-25.193 23.881-6.7965 50.578-4.4664 72.883-15.374 27.054-13.23 44.476-40.844 69-58.325 17.079-12.175 54.073-32.179 54.073-32.179m-319.96 139.54s36.348-4.407 53.946-9.2128c23.965-6.5446 45.794-19.581 69.643-26.535 23.925-6.9758 50.92-3.9801 73.222-15.1 26.962-13.444 43.615-41.812 67.848-59.713 17.402-12.855 55.309-33.968 55.309-33.968m-320.67 143.89s36.645-4.3204 54.325-9.3195c24.032-6.7955 45.613-20.734 69.545-27.877 23.969-7.1543 51.263-3.4936 73.562-14.827 26.876-13.659 42.745-42.778 66.697-61.086 17.714-13.54 56.538-35.742 56.538-35.742m-321.37 148.21s36.944-4.2335 54.703-9.4261c24.105-7.0481 45.427-21.887 69.447-29.221 24.013-7.332 51.607-3.0072 73.903-14.552 26.798-13.876 41.867-43.742 65.55-62.445 18.015-14.227 57.764-37.497 57.764-37.497m-322.07 152.5s37.242-4.1465 55.08-9.5327c24.184-7.3024 45.234-23.039 69.349-30.565 24.057-7.5089 51.953-2.521 74.245-14.276 26.728-14.093 40.984-44.698 64.408-63.784 18.306-14.915 58.987-39.227 58.987-39.227m-322.77 156.75s37.541-4.0597 55.455-9.6393c24.267-7.5586 45.035-24.191 69.251-31.912 24.102-7.6848 52.299-2.0352 74.589-13.998 26.662-14.309 40.095-45.642 63.271-65.097 18.585-15.601 60.2-40.926 60.2-40.926m-323.47 160.93s37.841-3.9731 55.828-9.7461c24.355-7.8167 44.83-25.343 69.152-33.26 24.146-7.8596 52.647-1.55 74.935-13.718 26.604-14.525 39.203-46.573 62.142-66.385 18.853-16.283 61.411-42.59 61.411-42.59m-324.17 165.06s38.141-3.887 56.2-9.8532c24.448-8.0768 44.619-26.496 69.054-34.61 24.192-8.0333 52.995-1.0654 75.282-13.436 26.55-14.737 38.308-47.485 61.02-67.64 19.11-16.959 62.612-44.215 62.612-44.215m-324.87 169.12s38.442-3.8014 56.571-9.9607c24.545-8.339 44.401-27.649 68.954-35.962 24.238-8.2059 53.343-0.58156 75.632-13.152 26.501-14.945 37.412-48.377 59.906-68.862 19.356-17.627 63.805-45.797 63.805-45.797m-325.57 173.09s38.742-3.7165 56.94-10.069c24.647-8.6033 44.176-28.803 68.855-37.317 24.284-8.3772 53.692-0.0984 75.984-12.864 26.455-15.15 36.516-49.246 58.802-70.048 19.591-18.286 64.989-47.332 64.989-47.332m-326.27 176.99s39.043-3.6324 57.307-10.177c24.754-8.8698 43.945-29.959 68.754-38.674 24.331-8.5472 54.041 0.38405 76.338-12.574 26.412-15.35 35.62-50.09 57.706-71.195 19.816-18.935 66.163-48.818 66.163-48.818m-326.97 180.8s39.344-3.5492 57.673-10.286c24.865-9.1385 43.708-31.116 68.652-40.034 24.379-8.7159 54.39 0.86593 76.695-12.281 26.371-15.544 34.727-50.908 56.622-72.302 20.03-19.571 67.327-50.252 67.327-50.252m-327.67 184.51s39.645-3.4669 58.037-10.395c24.98-9.4095 43.464-32.274 68.55-41.396 24.429-8.8833 54.74 1.3473 77.054-11.984 26.333-15.732 33.836-51.699 55.547-73.367 20.235-20.195 68.481-51.634 68.481-51.634m-328.37 188.14s39.946-3.3858 58.399-10.505c25.099-9.6829 43.214-33.433 68.447-42.761 24.479-9.0494 55.089 1.8282 77.417-11.684 26.295-15.914 32.948-52.46 54.483-74.39 20.431-20.805 69.623-52.962 69.623-52.962m-329.07 191.66s40.247-3.3059 58.759-10.615c25.222-9.9586 42.957-34.594 68.342-44.129 24.53-9.214 55.439 2.3089 77.782-11.381 26.259-16.089 32.064-53.193 53.43-75.371 20.617-21.401 70.756-54.235 70.756-54.235m-329.77 195.09s40.547-3.2272 59.118-10.726c25.35-10.237 42.694-35.757 68.237-45.5 24.582-9.3773 55.788 2.7895 78.149-11.074 26.223-16.257 31.185-53.895 52.387-76.309 20.795-21.983 71.876-55.453 71.876-55.453m-330.47 198.42s40.848-3.1499 59.475-10.838c25.481-10.517 42.424-36.921 68.13-46.874 24.636-9.5391 56.137 3.2701 78.52-10.763 26.188-16.419 30.311-54.569 51.358-77.205 20.966-22.55 72.989-56.617 72.989-56.617m-331.17 201.66s41.148-3.0739 59.83-10.95c25.616-10.8 42.148-38.087 68.023-48.251 24.691-9.6996 56.487 3.751 78.894-10.449 26.151-16.573 29.443-55.212 50.338-78.059 21.129-23.102 74.088-57.728 74.088-57.728" fill="none" stroke="url(#linearGradient118139)" stroke-width=".11331px"/>
 <path d="m-80.815 228.2c23.282-6.0176 48.229-41.462 73.749-45.275 30.111-4.4988 54.629 21.295 85.836 21.89 51.691 0.98651 76.452-51.792 139.65-15.428 27.519 15.835 74.376 1.9106 99.986-29.005m-399.47 67.279c23.04-6.1776 47.722-42.179 73.498-45.874 29.999-4.3688 54.979 21.173 86.5 21.477 50.998 0.80431 76.028-50.942 138.34-15.571 27.725 15.355 73.659 1.7468 99.617-28.301m-398.21 67.732c22.799-6.3377 47.214-42.897 73.247-46.474 29.887-4.2388 55.329 21.05 87.165 21.063 50.305 0.62215 75.603-50.092 137.04-15.714 27.931 14.875 72.942 1.583 99.247-27.598m-396.95 68.185c22.557-6.4977 46.706-43.615 72.996-47.074 29.775-4.1088 55.679 20.928 87.829 20.649 49.613 0.43992 75.179-49.242 135.74-15.856 28.137 14.395 72.224 1.4192 98.878-26.894m-395.69 68.637c22.316-6.6577 46.198-44.333 72.745-47.674 29.664-3.9787 56.029 20.806 88.494 20.235 48.92 0.25769 74.754-48.392 134.43-15.999 28.343 13.915 71.507 1.2554 98.509-26.191m-394.43 69.09c22.074-6.8177 45.691-45.051 72.494-48.274 29.552-3.8487 56.379 20.684 89.158 19.821 48.228 0.0754 74.33-47.543 133.13-16.141 28.549 13.435 70.79 1.0916 98.139-25.487m-393.17 69.543c21.833-6.9777 45.183-45.768 72.243-48.873 29.44-3.7188 56.729 20.562 89.823 19.408 47.535-0.10664 73.905-46.693 131.83-16.284 28.756 12.955 70.072 0.92785 97.77-24.784m-391.91 69.995c21.592-7.1378 44.675-46.486 71.992-49.473 29.328-3.5887 57.079 20.44 90.487 18.994 46.843-0.28884 73.481-45.843 130.52-16.427 28.962 12.475 69.355 0.76402 97.401-24.08m-390.65 70.448c21.35-7.2978 44.167-47.204 71.741-50.073 29.217-3.4587 57.429 20.318 91.152 18.58 46.15-0.47106 73.056-44.993 129.22-16.569 29.168 11.995 68.637 0.60023 97.031-23.377m-389.17 70.818c21.043-7.6681 43.531-47.849 71.261-50.59 29.105-3.3287 57.779 20.195 91.817 18.166 45.457-0.65329 72.632-44.143 127.92-16.712 29.374 11.515 67.92 0.43646 96.662-22.673m-387.65 71.172c20.729-8.0646 42.886-48.478 70.758-51.091 28.993-3.1987 58.129 20.073 92.481 17.752 44.765-0.83543 72.207-43.293 126.61-16.855 29.58 11.035 67.203 0.27266 96.293-21.97m-386.14 71.515c20.415-8.4669 42.246-49.097 70.255-51.582 28.881-3.0687 58.479 19.951 93.146 17.339 44.072-1.0176 71.783-42.443 125.31-16.997 29.786 10.555 66.485 0.10897 95.923-21.266m-384.63 71.849c20.101-8.8751 41.611-49.704 69.751-52.062 28.77-2.9387 58.829 19.829 93.81 16.925 43.38-1.1999 71.358-41.593 124-17.14 29.992 10.075 65.768-0.0551 95.554-20.562m-383.12 72.172c19.787-9.2879 40.981-50.3 69.249-52.532 28.658-2.8087 59.179 19.707 94.475 16.511 42.687-1.382 70.933-40.743 122.7-17.283 30.199 9.5953 65.051-0.21874 95.185-19.859m-381.61 72.483c19.474-9.7061 40.356-50.883 68.746-52.991 28.546-2.6787 59.529 19.585 95.139 16.097 41.994-1.5642 70.509-39.894 121.4-17.425 30.405 9.1154 64.333-0.38246 94.815-19.155m-380.1 72.782c19.161-10.129 39.737-51.454 68.243-53.437 28.435-2.5487 59.879 19.463 95.804 15.684 41.302-1.7464 70.084-39.044 120.09-17.568 30.611 8.6354 63.616-0.54635 94.446-18.452m-378.59 73.069c18.848-10.557 39.123-52.011 67.74-53.871 28.323-2.4186 60.229 19.34 96.468 15.27 40.609-1.9286 69.66-38.194 118.79-17.71 30.817 8.1554 62.898-0.71013 94.077-17.748m-377.08 73.342c18.536-10.99 38.515-52.554 67.237-54.291 28.211-2.2887 60.579 19.218 97.133 14.856 39.917-2.1108 69.235-37.344 117.49-17.853 31.023 7.6754 62.181-0.87393 93.707-17.045m-375.56 73.601c18.224-11.427 37.913-53.082 66.734-54.697 28.099-2.1587 60.929 19.096 97.797 14.442 39.224-2.293 68.811-36.494 116.18-17.996 31.229 7.1955 61.464-1.0377 93.338-16.341m-374.05 73.844c17.913-11.868 37.317-53.593 66.231-55.088 27.988-2.0287 61.279 18.974 98.462 14.028 38.531-2.4752 68.386-35.644 114.88-18.138 31.436 6.7155 60.746-1.2015 92.969-15.638m-372.54 74.072c17.603-12.312 36.728-54.088 65.728-55.463 27.876-1.8986 61.629 18.852 99.126 13.615 37.839-2.6574 67.962-34.794 113.58-18.281 31.642 6.2356 60.029-1.3653 92.599-14.934m-371.03 74.283c17.294-12.76 36.145-54.565 65.225-55.821 27.764-1.7686 61.979 18.73 99.791 13.201 37.146-2.8396 67.537-33.944 112.27-18.424 31.848 5.7556 59.312-1.5291 92.23-14.231m-369.52 74.477c16.986-13.21 35.57-55.023 64.722-56.162 27.652-1.6386 62.329 18.608 100.46 12.787 36.454-3.0218 67.113-33.094 110.97-18.566 32.054 5.2756 58.594-1.6929 91.861-13.527m-368.01 74.652c16.679-13.663 35.001-55.462 64.219-56.484 27.541-1.5086 62.679 18.485 101.12 12.373 35.761-3.204 66.688-32.244 109.67-18.709 32.26 4.7957 57.877-1.8567 91.491-12.824m-366.5 74.807c16.373-14.118 34.44-55.879 63.716-56.785 27.429-1.3786 63.029 18.363 101.78 11.959 35.069-3.3861 66.264-31.395 108.36-18.852 32.466 4.3157 57.159-2.0205 91.122-12.12m-364.99 74.941c16.069-14.574 33.887-56.275 63.213-57.067 27.317-1.2486 63.379 18.241 102.45 11.546 34.376-3.5684 65.839-30.545 107.06-18.994 32.672 3.8357 56.442-2.1843 90.753-11.416m-363.47 75.054c15.767-15.03 33.342-56.647 62.711-57.327 27.205-1.1186 63.729 18.119 103.11 11.132 33.683-3.7505 65.415-29.695 105.76-19.137 32.879 3.3558 55.725-2.3481 90.383-10.713m-361.96 75.142c15.466-15.488 32.804-56.994 62.207-57.562 27.094-0.98855 64.079 17.997 103.78 10.718 32.991-3.9327 64.99-28.845 104.45-19.279 33.085 2.8758 55.007-2.5119 90.014-10.009m-360.45 75.208c15.168-15.943 32.276-57.317 61.704-57.775 26.982-0.85857 64.429 17.875 104.44 10.304 32.298-4.115 64.566-27.995 103.15-19.422 33.291 2.3959 54.29-2.6756 89.645-9.3058m-358.94 75.247c14.872-16.398 31.757-57.611 61.201-57.961 26.87-0.72857 64.779 17.753 105.11 9.8904 31.606-4.2971 64.141-27.145 101.85-19.565 33.497 1.9159 53.573-2.8395 89.275-8.6023m-357.43 75.258c14.578-16.85 31.247-57.878 60.698-58.12 26.759-0.59856 65.129 17.63 105.77 9.4767 30.913-4.4793 63.717-26.295 100.54-19.707 33.703 1.436 52.855-3.0032 88.906-7.8988m-355.92 75.242c14.287-17.299 30.746-58.114 60.195-58.25 26.647-0.46852 65.479 17.508 106.44 9.0629 30.221-4.6615 63.292-25.445 99.238-19.85 33.909 0.95597 52.138-3.167 88.537-7.1953m-354.41 75.195c13.999-17.743 30.255-58.318 59.692-58.35 26.535-0.33852 65.829 17.386 107.1 8.6491 29.528-4.8437 62.868-24.595 97.935-19.993 34.115 0.47602 51.42-3.3308 88.168-6.4917m-352.9 75.117c13.715-18.182 29.775-58.489 59.189-58.419 26.423-0.20853 66.179 17.264 107.77 8.2353 28.835-5.0259 62.443-23.746 96.631-20.135 34.322-1e-3 50.703-3.4946 87.798-5.7882m-351.38 75.006c13.434-18.614 29.305-58.626 58.687-58.455 26.312-0.0783 66.53 17.142 108.43 7.8215 28.143-5.2081 62.019-22.896 95.328-20.278 34.528-0.48392 49.986-3.6584 87.429-5.0846m-349.87 74.86c13.157-19.039 28.846-58.726 58.184-58.457 26.2 0.0515 66.88 17.02 109.09 7.4077 27.45-5.3903 61.594-22.046 94.024-20.421 34.734-0.96391 49.268-3.8222 87.06-4.3811m-348.36 74.677c12.884-19.454 28.398-58.787 57.68-58.421 26.088 0.18154 67.23 16.898 109.76 6.9939 26.758-5.5725 61.17-21.196 92.72-20.563 34.94-1.4439 48.551-3.9861 86.69-3.6776m-346.85 74.46c12.616-19.858 27.963-58.812 57.179-58.351 25.976 0.31152 67.58 16.775 110.42 6.5802 26.065-5.7547 60.745-20.346 91.417-20.706 35.146-1.9238 47.834-4.1498 86.321-2.974m-345.34 74.201c12.353-20.25 27.538-58.793 56.677-58.239 25.865 0.44153 67.93 16.653 111.09 6.1664 25.372-5.9369 60.321-19.496 90.113-20.848 35.352-2.4038 47.116-4.3136 85.952-2.2704m-343.83 73.897c12.094-20.63 27.126-58.727 56.173-58.083 25.753 0.57155 68.28 16.531 111.75 5.7526 24.68-6.119 59.896-18.646 88.81-20.991 35.558-2.8838 46.399-4.4774 85.582-1.567" fill="none" stop-color="#000000" stroke="url(#linearGradient24274-5)" stroke-width=".33994" style="font-variation-settings:normal"/>
 <path d="m348.14-6.0931c-63.275 7.9569-58.736 88.66-116.93 98.043-38.685 2.1726-50.966-8.4868-80.401-1.0756-35.062 8.8278-55.984 39.333-85.944 42.215-32.09 3.087-68.586-12.429-103.39 4.14-21.609 10.287-31.686 36.487-44.328 55.285v25.608c28.355-16.257 52.968-41.123 73.431-47.605 20.856-6.6065 42.274-2.7287 64.094-2.2013 19.217 0.46447 39.186-12.864 59.005-14.18 39.624-2.6309 82.449 7.5354 121.28 1.1925 37.691-6.1564 64.417-36.648 99.938-45.648 4.309-1.0917 8.7368-1.7248 13.243-2.0555z" fill="url(#linearGradient4551-1-4)"/>
 <path d="m348.14 49.198c-39.396 5.2352-59.275 21.177-83.626 54.545-28.903 39.606-82.738 24.159-82.738 24.159l63.532 22.413 102.83-18.72z" fill="url(#linearGradient12309-5-5)"/>
 <path d="m45.69 150.5c9.3802 0.86305 33.657-0.4639 42.854-3.6026 46.769-22.767 64.249-48.666 117.57-33.194 59.785 17.348 80.386-64.086 142.12-73.102m-302.88 128.23s21.682-1.0708 52.046-2.8919c53.624-3.7781 70.073-2.7797 128.72 13.141 40.318 10.945 83.469-41.594 122.12-48.545m-302.88 37.664c0.32347 0.0297 22.094-1.0499 51.729-2.9164 53.364-4.4976 70.018-4.3738 128.33 11.543 40.715 11.113 83.809-41.514 122.82-48.894m-302.87 39.636c0.64693 0.0599 22.507-1.029 51.412-2.9409 53.103-5.2154 69.958-5.9754 127.95 9.945 41.118 11.288 84.149-41.469 123.5-49.293m-302.85 41.656c0.97035 0.0892 22.92-1.008 51.095-2.9654 52.796-5.9324 69.961-7.5652 127.57 8.3473 41.527 11.471 84.489-41.46 124.19-49.743m-302.83 43.729c1.2938 0.11903 23.333-0.98711 50.778-2.9899 52.548-6.6495 69.88-9.1845 127.18 6.7495 41.949 11.665 84.842-41.495 124.88-50.25m-302.82 45.859c1.6173 0.14888 23.746-0.9662 50.461-3.0144 52.31-7.3651 69.783-10.815 126.8 5.1517 42.384 11.87 85.205-41.577 125.58-50.816m-302.82 48.047c1.9407 0.17853 24.159-0.94522 50.144-3.0389 52.049-8.0621 69.658-12.461 126.41 3.554 42.829 12.086 85.57-41.711 126.27-51.44m-302.82 50.293c2.2642 0.20835 24.572-0.92427 49.827-3.0634 51.785-8.7658 69.568-14.105 126.03 1.9563 43.284 12.313 85.932-41.902 126.96-52.121m-302.8 52.596c2.5876 0.2381 24.985-0.90338 49.51-3.0879 51.521-9.4655 69.469-15.745 125.64 0.35847 43.781 12.55 86.267-42.149 127.64-52.859m-302.78 54.956c2.9111 0.26782 25.398-0.88242 49.193-3.1124 51.257-10.161 69.365-17.401 125.26-1.2392 44.381 12.833 86.518-42.443 128.31-53.655m-302.75 57.374c3.2345 0.29763 25.811-0.86151 48.876-3.1369 50.995-10.851 69.256-19.073 124.87-2.837 44.923 13.114 86.863-42.842 129.01-54.515m-302.75 59.857c3.558 0.32736 26.224-0.8406 48.559-3.1614 50.733-11.537 69.141-20.757 124.49-4.4347 45.488 13.414 87.203-43.326 129.7-55.43m-302.73 62.394c3.8815 0.35712 26.637-0.81966 48.242-3.1859 50.474-12.217 69.019-22.455 124.1-6.0325 46.079 13.737 87.547-43.91 130.38-56.4m-302.72 64.986c4.2049 0.38687 27.05-0.79873 47.925-3.2105 50.217-12.892 68.892-24.166 123.72-7.6302 46.695 14.083 87.896-44.604 131.07-57.418m-302.71 67.626c4.5284 0.41664 27.463-0.77782 47.608-3.235 49.962-13.56 68.758-25.893 123.34-9.228 47.337 14.454 88.258-45.418 131.76-58.478m-302.69 70.309c4.8518 0.44642 27.876-0.75686 47.291-3.2595 49.711-14.223 68.619-27.636 122.95-10.826 48.003 14.852 88.641-46.366 132.45-59.574m-302.68 73.027c5.1753 0.47617 28.289-0.73595 46.974-3.2839 49.464-14.879 68.472-29.394 122.57-12.423 48.69 15.275 89.061-47.458 133.14-60.694m-302.67 75.77c5.4987 0.50594 28.702-0.71506 46.657-3.3085 49.221-15.528 68.342-31.24 122.18-14.021 48.813 15.611 89.728-48.759 133.82-61.827m-302.65 78.524c5.8222 0.53572 29.115-0.6941 46.34-3.333 48.982-16.171 68.184-33.034 121.8-15.619 49.496 16.078 90.177-50.131 134.52-62.962m-302.65 81.282c6.1456 0.56543 29.528-0.67315 46.023-3.3575 48.749-16.806 68.017-34.836 121.41-17.217 50.205 16.567 90.659-51.639 135.21-64.081m-302.63 84.024c6.4691 0.59525 29.941-0.65223 45.706-3.382 48.521-17.435 67.838-36.642 121.03-18.814 50.945 17.075 91.189-53.275 135.9-65.171m-302.62 86.736c6.7926 0.62499 30.354-0.63129 45.389-3.4065 48.3-18.057 67.646-38.442 120.64-20.412 51.723 17.596 91.78-55.022 136.59-66.217m-302.61 89.404c7.116 0.6547 30.767-0.61037 45.072-3.431 48.084-18.671 67.43-40.212 120.26-22.01 52.197 17.984 91.68-56.409 136.29-66.987 0.33644-0.07669 0.67203-0.15262 1.0068-0.22762m-302.61 92.023c7.4394 0.68448 31.18-0.58944 44.755-3.4555 47.875-19.279 66.882-41.039 119.88-23.608 58.105 19.113 83.292-56.568 137.99-68.173m-302.61 94.604c7.7629 0.71428 31.592-0.56851 44.439-3.4801 47.673-19.879 66.496-42.384 119.49-25.205 58.421 18.938 82.879-57.915 138.68-69.091m-302.6 97.144c8.0863 0.744 32.005-0.54757 44.122-3.5045 47.478-20.471 66.089-43.703 119.11-26.803 58.737 18.723 82.401-59.222 139.36-69.968m-302.58 99.643c8.4098 0.77378 32.418-0.52669 43.805-3.529 47.29-21.056 65.66-44.99 118.72-28.401 59.041 18.459 81.901-60.497 140.06-70.808m-302.58 102.11c8.7333 0.80356 32.831-0.50573 43.488-3.5535 47.109-21.634 65.211-46.249 118.34-29.999 59.315 18.143 81.387-61.731 140.74-71.607m-302.55 104.53c9.0567 0.83329 33.244-0.48476 43.171-3.578 46.935-22.204 64.739-47.472 117.95-31.596 59.567 17.771 80.888-62.933 141.44-72.374" fill="none" stroke="url(#linearGradient6948-8)" stroke-width=".11331px"/>
 <path d="m348.14 82.215c-4.3296 0.62677-8.8869 1.4487-13.846 2.5385-50.913 11.189-59.966 53.069-98.247 49.215-18.602-1.8725-59.284-13.339-77.567-9.9072-31.151 5.8478-44.571 25.826-76.48 28.755-37.444 3.4371-61.147-15.238-98.271-9.6801-31.192 4.6701-48.586 40.263-63.133 58.062-1.1117 1.3603-2.2643 2.6263-3.4498 3.8208v13.087c11.252-5.5475 20.795-11.146 26.189-14.651 77.46-65.922 65.424-10.93 124.96-14.742 20.129-1.2886 71.018-39.776 91.241-43.983 41.767-8.6882 50.088 20.475 91.702 13.732 34.399-5.5742 64.933-24.938 96.905-36.883z" fill="url(#linearGradient4479-5-8)"/>
 <path d="m348.14 110.22c-0.66452 0.10955-1.3262 0.20429-1.9947 0.33425-24.83 4.8275-42.804 21.549-73.299 39.403-33.93 19.864-82.84-24.168-116.55-15.721-34.252 8.5826-49.384 38.087-83.359 42.844-34.37 4.8119-55.101-37.539-100.36-19.467-27.162 10.845-36.003 38.131-49.121 51.582-2.079 2.1318-4.1759 4.0464-6.3027 5.7829v15.323c3.4652-1.4387 6.9921-3.1627 10.597-5.2301 27.737-15.905 38.94-50.502 72.405-52.636 18.264-1.1648 39.412 21.408 67.428 24.875 37.475 4.638 63.669-30.999 85.211-34.825 44.376-7.881 60.059 24.632 93.042 28.297 43.11 4.7909 70.185-29.634 102.31-47.673z" fill="url(#linearGradient4687-8-9)"/>
 <path d="m348.15 116.82c-30.828 21.779-57.017 74.245-97.173 74.229 40.129 1.6118 66.348-30.638 97.173-47.917zm-177.2 25.67c-38.599 0.63499-60.084 53.091-99.547 55.162 35.43 1.8604 60.593-31.469 81.389-35.162 44.376-7.881 60.059 24.632 93.042 28.297-30.921-3.4363-38.38-48.898-74.884-48.297zm-172.28 20.342c-32.918-0.3945-56.637 54.204-81.519 63.675v3.2601c3.4002-1.5286 6.8215-3.219 10.224-5.0873 27.737-15.905 39.314-50.106 72.779-52.24 18.264-1.1648 39.412 21.515 67.428 24.982-28.016-3.4673-38.646-34.228-68.912-34.59z" fill="#e9ebed" fill-opacity=".49133" opacity=".23994"/>
 <path d="m348.14 140.22c-29.832 18.011-56.852 49.622-95.005 50.77-0.71536 0.0333-1.4336 0.0551-2.1579 0.0548 1.2541 0.0505 2.4945 0.0678 3.722 0.0536 4.909-0.0571 9.61-0.62042 14.139-1.5924 0.81212-0.1743 1.612-0.37627 2.4133-0.57636 0.31588-0.0788 0.63732-0.14429 0.9516-0.22706 0-1.6e-4 0-3.1e-4 4e-3 -6.1e-4 0.53346-0.14053 1.0575-0.30442 1.5864-0.45592 0.57296-0.16413 1.1506-0.31727 1.7183-0.49386 1.0906-0.33929 2.1712-0.70106 3.2432-1.0841 0-3.2e-4 0-9.3e-4 3e-3 -1e-3 1.0718-0.38295 2.1347-0.78687 3.189-1.2106 0-3e-4 3e-3 -9.2e-4 3e-3 -1e-3 0.12248-0.0492 0.24206-0.10443 0.36436-0.15418 0.93099-0.37892 1.8582-0.7673 2.7764-1.1756 1.0378-0.46147 2.0672-0.94077 3.0896-1.437 0-6.2e-4 3e-3 -1e-3 3e-3 -2e-3 0.96532-0.46853 1.9237-0.95451 2.8764-1.4514 0.0575-0.0301 0.11608-0.0573 0.17346-0.0873 1.0079-0.52789 2.0086-1.0706 3.0035-1.6273 0-9.2e-4 4e-3 -1e-3 5e-3 -2e-3 0.99489-0.55673 1.9838-1.1273 2.9668-1.7098 0-9.2e-4 3e-3 -1e-3 5e-3 -2e-3 0.9829-0.58253 1.9603-1.1767 2.9324-1.7821 0-9.3e-4 3e-3 -2e-3 5e-3 -4e-3 0.9721-0.60542 1.9386-1.2212 2.9011-1.8465 0-9.2e-4 3e-3 -2e-3 5e-3 -4e-3 1.9262-1.2515 3.8343-2.54 5.7287-3.8533 0-1e-3 3e-3 -2e-3 5e-3 -4e-3 0.88187-0.61135 1.7524-1.2424 2.6289-1.8634 1.008-0.71415 2.0219-1.4194 3.0239-2.1428 3.7444-2.7033 7.4518-5.4591 11.159-8.1715 0-9.2e-4 3e-3 -1e-3 3e-3 -2e-3 0.12051-0.0882 0.24089-0.17393 0.36136-0.26199 1.7355-1.2683 3.4712-2.5288 5.2108-3.7672 1.8565-1.3216 3.7173-2.6208 5.5872-3.8852v-6.2e-4c1.5103-1.0213 3.0324-2.0004 4.5567-2.9704 0.36593-0.23282 0.72689-0.48365 1.0937-0.71308 0.94687-0.59212 1.897-1.1719 2.8511-1.7393 0.55249-0.32855 1.1094-0.64295 1.6646-0.96242 0.40426-0.23259 0.80596-0.47289 1.2118-0.70042zm-180.43 19.175v6.2e-4c-37.544-0.97412-53.637 39.274-96.311 38.252 35.43 1.8604 60.593-31.469 81.389-35.162 1.3483-0.23946 2.668-0.43841 3.9647-0.60527 0.42848-0.0551 0.84054-0.0868 1.2636-0.13431 0.85962-0.0965 1.7201-0.19377 2.5578-0.25957 0.48667-0.0382 0.95693-0.0544 1.4364-0.0825 0.75002-0.0442 1.5021-0.0913 2.235-0.11142 0.49903-0.0137 0.98422-8e-3 1.4755-0.0117 0.69658-5e-3 1.3945-9e-3 2.076 6e-3 0.47453 0.0105 0.93825 0.0388 1.4057 0.0603 0.68461 0.0312 1.3676 0.0636 2.0374 0.11503 0.44458 0.0341 0.88128 0.0795 1.3196 0.12225 0.6672 0.0651 1.3313 0.13421 1.9845 0.21863 0.4272 0.0554 0.8482 0.11927 1.2696 0.18249 0.65491 0.0981 1.3058 0.20197 1.9471 0.31858 0.38923 0.0709 0.77496 0.14666 1.1594 0.22405 0.66541 0.13378 1.3245 0.27572 1.976 0.42821 0.34883 0.0818 0.69633 0.1655 1.0413 0.25235 0.67302 0.16926 1.3386 0.34816 1.9977 0.53602 0.30581 0.0872 0.61133 0.17451 0.91424 0.26559 0.70903 0.21293 1.4097 0.437 2.1037 0.66972 0.23876 0.0802 0.47843 0.15913 0.7155 0.2415 0.75779 0.26303 1.5062 0.53773 2.2476 0.8221 0.16474 0.0632 0.33107 0.12424 0.49506 0.1885 0.84433 0.33047 1.6785 0.67432 2.5036 1.0293 0.0534 0.023 0.10745 0.045 0.16081 0.0681 3.5197 1.5225 6.866 3.2596 10.136 5.0771 0.28877 0.16064 0.57733 0.3205 0.86485 0.48242 5.3679 3.0206 10.539 6.2339 15.839 9.1369 0.17701 0.097 0.35625 0.18919 0.53361 0.28548 6.2022 3.3646 12.614 6.266 19.811 7.8342-26.645-6.0548-38.435-29.565-72.55-30.45zm-165.98 11.889c-0.57677-0.0117-1.1505 9.2e-4 -1.7213 0.0373-33.465 2.1342-47.277 37.768-74.968 53.753-2.6766 1.545-5.3165 2.8731-7.8915 4.0412v1.1684c1.0748-0.44831 2.1504-0.90013 3.2378-1.4051 0.87615-0.4096 1.7584-0.8324 2.6542-1.2846 0.34249-0.17242 0.68602-0.34924 1.0299-0.52759 1.2116-0.6295 2.4331-1.2826 3.675-1.9947 27.737-15.905 38.941-50.502 72.406-52.636 13.698-0.8736 29.018 11.666 47.641 19.452 1.5519 0.6489 3.1266 1.2651 4.7254 1.8375 2.9316 1.0496 5.9547 1.9265 9.0532 2.6186-24.242-5.5429-43.305-24.746-59.842-25.06zm59.842 25.06c0.4714 0.1078 0.94298 0.21416 1.4183 0.31137-0.47619-0.0954-0.94617-0.2059-1.4183-0.31137zm1.4183 0.31137c0.62836 0.12594 1.2562 0.25262 1.8917 0.36016-0.63452-0.10897-1.2641-0.23181-1.8917-0.36016zm1.8917 0.36016c0.09464 0.0162 0.18892 0.033 0.28367 0.0488-0.09487-0.0156-0.189-0.0327-0.28367-0.0488zm0.28367 0.0488c0.79984 0.13156 1.6032 0.25313 2.4145 0.35352-0.81074-0.10035-1.6149-0.22024-2.4145-0.35352zm175.1-7.2187c0.89011 0.20226 1.7982 0.38281 2.7258 0.53963 0.93497 0.15455 1.8806 0.29043 2.8439 0.39748-1.9161-0.21294-3.7614-0.54304-5.5697-0.93711z" fill="url(#linearGradient14655-6)"/>
 <path d="m348.14 80.501s-8.4102 1.5052-12.89 2.8276c-53.342 15.745-57.451 47.9-92.508 51.001-15.05 1.3311-58.384-13.904-82.487-10.549-31.123 4.3329-47.256 24.629-74.471 28.445-33.514 4.6994-68.131-16.656-105.92-9.1426-29.465 5.8587-41.27 36.671-62.717 60.343v1.4295c18.079-18.094 32.694-54.209 62.717-61.001 36.612-8.283 75.935 16.551 106.68 9.4672 33.143-7.6365 42.835-23.921 73.721-28.777 27.398-4.3072 64.844 13.944 82.657 11.765 32.669-3.9971 44.651-37.069 95.15-51.673 3.3962-0.98215 10.07-1.5677 10.07-1.5677z" fill="url(#linearGradient25349-1)"/>
</svg>
