<?xml version="1.0" encoding="UTF-8" standalone="no"?>
<!-- Created with Inkscape (http://www.inkscape.org/) -->

<svg
   width="1440"
   height="900"
   viewBox="0 0 380.99998 238.12501"
   version="1.1"
   id="svg1140"
   xmlns:xlink="http://www.w3.org/1999/xlink"
   xmlns="http://www.w3.org/2000/svg"
   xmlns:svg="http://www.w3.org/2000/svg">
  <defs
     id="defs1137">
    <linearGradient
       xlink:href="#linearGradient29544"
       id="linearGradient29546-2"
       x1="132.10901"
       y1="575.51141"
       x2="1068.3112"
       y2="320.25305"
       gradientUnits="userSpaceOnUse"
       gradientTransform="matrix(0.27242247,0.02891837,-0.02891837,0.27242247,23.328807,36.007287)" />
    <linearGradient
       id="linearGradient29544">
      <stop
         style="stop-color:#1c52f2;stop-opacity:1"
         offset="0"
         id="stop29540" />
      <stop
         style="stop-color:#d62bc3;stop-opacity:0.42363399"
         offset="1"
         id="stop29542" />
    </linearGradient>
    <linearGradient
       xlink:href="#linearGradient4549"
       id="linearGradient4551-1"
       x1="1218.4554"
       y1="30.736158"
       x2="-51.688805"
       y2="481.46146"
       gradientUnits="userSpaceOnUse"
       gradientTransform="matrix(0.27242247,0.02891837,-0.02891837,0.27242247,23.328807,36.007287)" />
    <linearGradient
       id="linearGradient4549">
      <stop
         style="stop-color:#4886f2;stop-opacity:1;"
         offset="0"
         id="stop4545" />
      <stop
         style="stop-color:#8f4bcd;stop-opacity:1"
         offset="1"
         id="stop4547" />
    </linearGradient>
    <linearGradient
       xlink:href="#linearGradient10986"
       id="linearGradient12309-5"
       gradientUnits="userSpaceOnUse"
       x1="1343.8644"
       y1="191.42802"
       x2="861.3941"
       y2="436.60165"
       gradientTransform="matrix(0.27395305,0,0,0.27395305,-0.29097645,26.884167)" />
    <linearGradient
       id="linearGradient10986">
      <stop
         style="stop-color:#6659f2;stop-opacity:1"
         offset="0"
         id="stop10982" />
      <stop
         style="stop-color:#628af5;stop-opacity:1"
         offset="1"
         id="stop10984" />
    </linearGradient>
    <linearGradient
       xlink:href="#linearGradient1509"
       id="linearGradient1511-9"
       x1="466.89359"
       y1="475.49548"
       x2="1404.4065"
       y2="195.51314"
       gradientUnits="userSpaceOnUse"
       gradientTransform="matrix(0.27395305,0,0,0.27395305,-0.29097645,26.884167)" />
    <linearGradient
       id="linearGradient1509">
      <stop
         style="stop-color:#3e2fdd;stop-opacity:1"
         offset="0"
         id="stop1505" />
      <stop
         style="stop-color:#a4007e;stop-opacity:1"
         offset="1"
         id="stop1507" />
    </linearGradient>
    <linearGradient
       xlink:href="#linearGradient4477"
       id="linearGradient4479-5"
       x1="1327.1652"
       y1="150.93445"
       x2="-27.439623"
       y2="614.6449"
       gradientUnits="userSpaceOnUse"
       gradientTransform="matrix(0.27242247,0.02891837,-0.02891837,0.27242247,23.328807,36.007287)" />
    <linearGradient
       id="linearGradient4477">
      <stop
         style="stop-color:#578bf2;stop-opacity:1"
         offset="0"
         id="stop4473" />
      <stop
         style="stop-color:#5a74fa;stop-opacity:1"
         offset="1"
         id="stop4475" />
    </linearGradient>
    <linearGradient
       xlink:href="#linearGradient4685-3"
       id="linearGradient4687-8"
       x1="1284.0638"
       y1="231.57774"
       x2="-19.021584"
       y2="636.71533"
       gradientUnits="userSpaceOnUse"
       gradientTransform="matrix(0.27242247,0.02891837,-0.02891837,0.27242247,23.328807,36.007287)" />
    <linearGradient
       id="linearGradient4685-3">
      <stop
         style="stop-color:#542ef2;stop-opacity:1"
         offset="0"
         id="stop4681-8" />
      <stop
         style="stop-color:#4a98e4;stop-opacity:1"
         offset="0.47512516"
         id="stop26809" />
      <stop
         style="stop-color:#5393f2;stop-opacity:1"
         offset="1"
         id="stop4683-5" />
    </linearGradient>
    <linearGradient
       xlink:href="#linearGradient31045"
       id="linearGradient30817"
       x1="-757.29144"
       y1="414.48566"
       x2="687.20605"
       y2="74.068878"
       gradientUnits="userSpaceOnUse"
       gradientTransform="matrix(0.27395305,0,0,0.27395305,192.53462,87.743496)" />
    <linearGradient
       id="linearGradient31045">
      <stop
         style="stop-color:#94a642;stop-opacity:1"
         offset="0"
         id="stop31041" />
      <stop
         style="stop-color:#83aa61;stop-opacity:1"
         offset="0.31171572"
         id="stop31403" />
      <stop
         style="stop-color:#dc8cd1;stop-opacity:1"
         offset="0.59436423"
         id="stop31273" />
      <stop
         style="stop-color:#6cdddb;stop-opacity:1"
         offset="1"
         id="stop31043" />
    </linearGradient>
    <linearGradient
       xlink:href="#linearGradient25627"
       id="linearGradient25349"
       x1="-19.32687"
       y1="174.87611"
       x2="365.09894"
       y2="71.86953"
       gradientUnits="userSpaceOnUse"
       gradientTransform="matrix(1.2365804,0,0,1.2365804,-65.115912,-16.740842)" />
    <linearGradient
       id="linearGradient25627">
      <stop
         style="stop-color:#bda62c;stop-opacity:1;"
         offset="0"
         id="stop25607" />
      <stop
         style="stop-color:#ae9a28;stop-opacity:0.98823529"
         offset="0.14668909"
         id="stop25609" />
      <stop
         style="stop-color:#8c7b20;stop-opacity:0.96862745"
         offset="0.30530512"
         id="stop25613" />
      <stop
         style="stop-color:#bda62c;stop-opacity:0.95686275;"
         offset="0.51079261"
         id="stop25617" />
      <stop
         style="stop-color:#82721e;stop-opacity:0.94901961"
         offset="0.62310421"
         id="stop25619" />
      <stop
         style="stop-color:#c0ab2c;stop-opacity:0.99607843"
         offset="0.83540899"
         id="stop25623" />
      <stop
         style="stop-color:#7f6f1e;stop-opacity:0.92156863"
         offset="1"
         id="stop25625" />
    </linearGradient>
    <linearGradient
       xlink:href="#linearGradient14653"
       id="linearGradient14655"
       x1="-46.183235"
       y1="706.05402"
       x2="1721.9431"
       y2="445.6926"
       gradientUnits="userSpaceOnUse"
       gradientTransform="matrix(0.32717859,0,0,0.32717859,-65.115912,-16.740842)" />
    <linearGradient
       id="linearGradient14653">
      <stop
         style="stop-color:#bda62c;stop-opacity:1;"
         offset="0"
         id="stop14649" />
      <stop
         style="stop-color:#615516;stop-opacity:0.98823529"
         offset="0.09857609"
         id="stop16599" />
      <stop
         style="stop-color:#cab12f;stop-opacity:0.97647059"
         offset="0.25338677"
         id="stop16339" />
      <stop
         style="stop-color:#8c7b20;stop-opacity:0.96862745"
         offset="0.33815062"
         id="stop16405" />
      <stop
         style="stop-color:#87771f;stop-opacity:0.96470588"
         offset="0.4215126"
         id="stop15309" />
      <stop
         style="stop-color:#bda62c;stop-opacity:0.95686275;"
         offset="0.53338844"
         id="stop15113" />
      <stop
         style="stop-color:#82721e;stop-opacity:0.94901961"
         offset="0.62310421"
         id="stop15179" />
      <stop
         style="stop-color:#80711e;stop-opacity:0.93725497"
         offset="0.73470789"
         id="stop15823" />
      <stop
         style="stop-color:#d7be31;stop-opacity:0.92941177"
         offset="0.83540899"
         id="stop15889" />
      <stop
         style="stop-color:#bda62c;stop-opacity:0.9217537"
         offset="1"
         id="stop14651" />
    </linearGradient>
    <linearGradient
       xlink:href="#linearGradient4685-3"
       id="linearGradient4687-8-6"
       x1="1284.0638"
       y1="231.57774"
       x2="-19.021584"
       y2="636.71533"
       gradientUnits="userSpaceOnUse"
       gradientTransform="matrix(0.3986445,0.04231717,-0.04231717,0.3986445,-38.426137,-36.508138)" />
    <linearGradient
       xlink:href="#linearGradient4477"
       id="linearGradient4479-5-1"
       x1="1327.1652"
       y1="150.93445"
       x2="-27.439623"
       y2="614.6449"
       gradientUnits="userSpaceOnUse"
       gradientTransform="matrix(0.3986445,0.04231717,-0.04231717,0.3986445,-38.426137,-36.508138)" />
    <linearGradient
       xlink:href="#linearGradient1509"
       id="linearGradient6948"
       gradientUnits="userSpaceOnUse"
       gradientTransform="matrix(0.40088427,0,0,0.40088427,-72.989719,-51.140735)"
       x1="466.89359"
       y1="475.49548"
       x2="1404.4065"
       y2="195.51314" />
    <linearGradient
       xlink:href="#linearGradient10986"
       id="linearGradient12309-5-4"
       gradientUnits="userSpaceOnUse"
       x1="1343.8644"
       y1="191.42802"
       x2="861.3941"
       y2="436.60165"
       gradientTransform="matrix(0.40088427,0,0,0.40088427,-72.989719,-49.858289)" />
    <linearGradient
       xlink:href="#linearGradient4549"
       id="linearGradient4551-1-8"
       x1="1218.4554"
       y1="30.736158"
       x2="-51.688805"
       y2="481.46146"
       gradientUnits="userSpaceOnUse"
       gradientTransform="matrix(0.3986445,0.04231717,-0.04231717,0.3986445,-38.426137,-36.508138)" />
    <linearGradient
       xlink:href="#linearGradient29544"
       id="linearGradient24274"
       gradientUnits="userSpaceOnUse"
       gradientTransform="matrix(0.3986445,0.04231721,-0.04231721,0.3986445,-38.426137,-36.508138)"
       x1="132.10901"
       y1="575.51141"
       x2="1068.3112"
       y2="320.25305" />
    <linearGradient
       xlink:href="#linearGradient29544"
       id="linearGradient1273"
       gradientUnits="userSpaceOnUse"
       gradientTransform="matrix(0.3986445,0.04231721,-0.04231721,0.3986445,-38.426137,-36.508138)"
       x1="132.10901"
       y1="575.51141"
       x2="1068.3112"
       y2="320.25305" />
    <linearGradient
       xlink:href="#linearGradient29544"
       id="linearGradient1275"
       gradientUnits="userSpaceOnUse"
       gradientTransform="matrix(0.3986445,0.04231721,-0.04231721,0.3986445,-38.426137,-36.508138)"
       x1="132.10901"
       y1="575.51141"
       x2="1068.3112"
       y2="320.25305" />
    <linearGradient
       xlink:href="#linearGradient29544"
       id="linearGradient1277"
       gradientUnits="userSpaceOnUse"
       gradientTransform="matrix(0.3986445,0.04231721,-0.04231721,0.3986445,-38.426137,-36.508138)"
       x1="132.10901"
       y1="575.51141"
       x2="1068.3112"
       y2="320.25305" />
    <linearGradient
       xlink:href="#linearGradient29544"
       id="linearGradient1279"
       gradientUnits="userSpaceOnUse"
       gradientTransform="matrix(0.3986445,0.04231721,-0.04231721,0.3986445,-38.426137,-36.508138)"
       x1="132.10901"
       y1="575.51141"
       x2="1068.3112"
       y2="320.25305" />
    <linearGradient
       xlink:href="#linearGradient29544"
       id="linearGradient1281"
       gradientUnits="userSpaceOnUse"
       gradientTransform="matrix(0.3986445,0.04231721,-0.04231721,0.3986445,-38.426137,-36.508138)"
       x1="132.10901"
       y1="575.51141"
       x2="1068.3112"
       y2="320.25305" />
    <linearGradient
       xlink:href="#linearGradient29544"
       id="linearGradient1283"
       gradientUnits="userSpaceOnUse"
       gradientTransform="matrix(0.3986445,0.04231721,-0.04231721,0.3986445,-38.426137,-36.508138)"
       x1="132.10901"
       y1="575.51141"
       x2="1068.3112"
       y2="320.25305" />
    <linearGradient
       xlink:href="#linearGradient29544"
       id="linearGradient1285"
       gradientUnits="userSpaceOnUse"
       gradientTransform="matrix(0.3986445,0.04231721,-0.04231721,0.3986445,-38.426137,-36.508138)"
       x1="132.10901"
       y1="575.51141"
       x2="1068.3112"
       y2="320.25305" />
    <linearGradient
       xlink:href="#linearGradient29544"
       id="linearGradient1287"
       gradientUnits="userSpaceOnUse"
       gradientTransform="matrix(0.3986445,0.04231721,-0.04231721,0.3986445,-38.426137,-36.508138)"
       x1="132.10901"
       y1="575.51141"
       x2="1068.3112"
       y2="320.25305" />
    <linearGradient
       xlink:href="#linearGradient29544"
       id="linearGradient1289"
       gradientUnits="userSpaceOnUse"
       gradientTransform="matrix(0.3986445,0.04231721,-0.04231721,0.3986445,-38.426137,-36.508138)"
       x1="132.10901"
       y1="575.51141"
       x2="1068.3112"
       y2="320.25305" />
    <linearGradient
       xlink:href="#linearGradient29544"
       id="linearGradient1291"
       gradientUnits="userSpaceOnUse"
       gradientTransform="matrix(0.3986445,0.04231721,-0.04231721,0.3986445,-38.426137,-36.508138)"
       x1="132.10901"
       y1="575.51141"
       x2="1068.3112"
       y2="320.25305" />
    <linearGradient
       xlink:href="#linearGradient29544"
       id="linearGradient1293"
       gradientUnits="userSpaceOnUse"
       gradientTransform="matrix(0.3986445,0.04231721,-0.04231721,0.3986445,-38.426137,-36.508138)"
       x1="132.10901"
       y1="575.51141"
       x2="1068.3112"
       y2="320.25305" />
    <linearGradient
       xlink:href="#linearGradient29544"
       id="linearGradient1295"
       gradientUnits="userSpaceOnUse"
       gradientTransform="matrix(0.3986445,0.04231721,-0.04231721,0.3986445,-38.426137,-36.508138)"
       x1="132.10901"
       y1="575.51141"
       x2="1068.3112"
       y2="320.25305" />
    <linearGradient
       xlink:href="#linearGradient29544"
       id="linearGradient1297"
       gradientUnits="userSpaceOnUse"
       gradientTransform="matrix(0.3986445,0.04231721,-0.04231721,0.3986445,-38.426137,-36.508138)"
       x1="132.10901"
       y1="575.51141"
       x2="1068.3112"
       y2="320.25305" />
    <linearGradient
       xlink:href="#linearGradient29544"
       id="linearGradient1299"
       gradientUnits="userSpaceOnUse"
       gradientTransform="matrix(0.3986445,0.04231721,-0.04231721,0.3986445,-38.426137,-36.508138)"
       x1="132.10901"
       y1="575.51141"
       x2="1068.3112"
       y2="320.25305" />
    <linearGradient
       xlink:href="#linearGradient29544"
       id="linearGradient1301"
       gradientUnits="userSpaceOnUse"
       gradientTransform="matrix(0.3986445,0.04231721,-0.04231721,0.3986445,-38.426137,-36.508138)"
       x1="132.10901"
       y1="575.51141"
       x2="1068.3112"
       y2="320.25305" />
    <linearGradient
       xlink:href="#linearGradient29544"
       id="linearGradient1303"
       gradientUnits="userSpaceOnUse"
       gradientTransform="matrix(0.3986445,0.04231721,-0.04231721,0.3986445,-38.426137,-36.508138)"
       x1="132.10901"
       y1="575.51141"
       x2="1068.3112"
       y2="320.25305" />
    <linearGradient
       xlink:href="#linearGradient29544"
       id="linearGradient1305"
       gradientUnits="userSpaceOnUse"
       gradientTransform="matrix(0.3986445,0.04231721,-0.04231721,0.3986445,-38.426137,-36.508138)"
       x1="132.10901"
       y1="575.51141"
       x2="1068.3112"
       y2="320.25305" />
    <linearGradient
       xlink:href="#linearGradient29544"
       id="linearGradient1307"
       gradientUnits="userSpaceOnUse"
       gradientTransform="matrix(0.3986445,0.04231721,-0.04231721,0.3986445,-38.426137,-36.508138)"
       x1="132.10901"
       y1="575.51141"
       x2="1068.3112"
       y2="320.25305" />
    <linearGradient
       xlink:href="#linearGradient29544"
       id="linearGradient1309"
       gradientUnits="userSpaceOnUse"
       gradientTransform="matrix(0.3986445,0.04231721,-0.04231721,0.3986445,-38.426137,-36.508138)"
       x1="132.10901"
       y1="575.51141"
       x2="1068.3112"
       y2="320.25305" />
    <linearGradient
       xlink:href="#linearGradient29544"
       id="linearGradient1311"
       gradientUnits="userSpaceOnUse"
       gradientTransform="matrix(0.3986445,0.04231721,-0.04231721,0.3986445,-38.426137,-36.508138)"
       x1="132.10901"
       y1="575.51141"
       x2="1068.3112"
       y2="320.25305" />
    <linearGradient
       xlink:href="#linearGradient29544"
       id="linearGradient1313"
       gradientUnits="userSpaceOnUse"
       gradientTransform="matrix(0.3986445,0.04231721,-0.04231721,0.3986445,-38.426137,-36.508138)"
       x1="132.10901"
       y1="575.51141"
       x2="1068.3112"
       y2="320.25305" />
    <linearGradient
       xlink:href="#linearGradient29544"
       id="linearGradient1315"
       gradientUnits="userSpaceOnUse"
       gradientTransform="matrix(0.3986445,0.04231721,-0.04231721,0.3986445,-38.426137,-36.508138)"
       x1="132.10901"
       y1="575.51141"
       x2="1068.3112"
       y2="320.25305" />
    <linearGradient
       xlink:href="#linearGradient29544"
       id="linearGradient1317"
       gradientUnits="userSpaceOnUse"
       gradientTransform="matrix(0.3986445,0.04231721,-0.04231721,0.3986445,-38.426137,-36.508138)"
       x1="132.10901"
       y1="575.51141"
       x2="1068.3112"
       y2="320.25305" />
    <linearGradient
       xlink:href="#linearGradient29544"
       id="linearGradient1319"
       gradientUnits="userSpaceOnUse"
       gradientTransform="matrix(0.3986445,0.04231721,-0.04231721,0.3986445,-38.426137,-36.508138)"
       x1="132.10901"
       y1="575.51141"
       x2="1068.3112"
       y2="320.25305" />
    <linearGradient
       xlink:href="#linearGradient29544"
       id="linearGradient1321"
       gradientUnits="userSpaceOnUse"
       gradientTransform="matrix(0.3986445,0.04231721,-0.04231721,0.3986445,-38.426137,-36.508138)"
       x1="132.10901"
       y1="575.51141"
       x2="1068.3112"
       y2="320.25305" />
    <linearGradient
       xlink:href="#linearGradient29544"
       id="linearGradient1323"
       gradientUnits="userSpaceOnUse"
       gradientTransform="matrix(0.3986445,0.04231721,-0.04231721,0.3986445,-38.426137,-36.508138)"
       x1="132.10901"
       y1="575.51141"
       x2="1068.3112"
       y2="320.25305" />
    <linearGradient
       xlink:href="#linearGradient29544"
       id="linearGradient1325"
       gradientUnits="userSpaceOnUse"
       gradientTransform="matrix(0.3986445,0.04231721,-0.04231721,0.3986445,-38.426137,-36.508138)"
       x1="132.10901"
       y1="575.51141"
       x2="1068.3112"
       y2="320.25305" />
    <linearGradient
       xlink:href="#linearGradient29544"
       id="linearGradient1327"
       gradientUnits="userSpaceOnUse"
       gradientTransform="matrix(0.3986445,0.04231721,-0.04231721,0.3986445,-38.426137,-36.508138)"
       x1="132.10901"
       y1="575.51141"
       x2="1068.3112"
       y2="320.25305" />
    <linearGradient
       xlink:href="#linearGradient29544"
       id="linearGradient1329"
       gradientUnits="userSpaceOnUse"
       gradientTransform="matrix(0.3986445,0.04231721,-0.04231721,0.3986445,-38.426137,-36.508138)"
       x1="132.10901"
       y1="575.51141"
       x2="1068.3112"
       y2="320.25305" />
    <linearGradient
       xlink:href="#linearGradient29544"
       id="linearGradient1331"
       gradientUnits="userSpaceOnUse"
       gradientTransform="matrix(0.3986445,0.04231721,-0.04231721,0.3986445,-38.426137,-36.508138)"
       x1="132.10901"
       y1="575.51141"
       x2="1068.3112"
       y2="320.25305" />
    <linearGradient
       xlink:href="#linearGradient29544"
       id="linearGradient1333"
       gradientUnits="userSpaceOnUse"
       gradientTransform="matrix(0.3986445,0.04231721,-0.04231721,0.3986445,-38.426137,-36.508138)"
       x1="132.10901"
       y1="575.51141"
       x2="1068.3112"
       y2="320.25305" />
    <linearGradient
       xlink:href="#linearGradient29544"
       id="linearGradient1335"
       gradientUnits="userSpaceOnUse"
       gradientTransform="matrix(0.3986445,0.04231721,-0.04231721,0.3986445,-38.426137,-36.508138)"
       x1="132.10901"
       y1="575.51141"
       x2="1068.3112"
       y2="320.25305" />
    <linearGradient
       xlink:href="#linearGradient29544"
       id="linearGradient1337"
       gradientUnits="userSpaceOnUse"
       gradientTransform="matrix(0.3986445,0.04231721,-0.04231721,0.3986445,-38.426137,-36.508138)"
       x1="132.10901"
       y1="575.51141"
       x2="1068.3112"
       y2="320.25305" />
    <linearGradient
       xlink:href="#linearGradient29544"
       id="linearGradient1339"
       gradientUnits="userSpaceOnUse"
       gradientTransform="matrix(0.3986445,0.04231721,-0.04231721,0.3986445,-38.426137,-36.508138)"
       x1="132.10901"
       y1="575.51141"
       x2="1068.3112"
       y2="320.25305" />
    <linearGradient
       xlink:href="#linearGradient29544"
       id="linearGradient1341"
       gradientUnits="userSpaceOnUse"
       gradientTransform="matrix(0.3986445,0.04231721,-0.04231721,0.3986445,-38.426137,-36.508138)"
       x1="132.10901"
       y1="575.51141"
       x2="1068.3112"
       y2="320.25305" />
    <linearGradient
       xlink:href="#linearGradient29544"
       id="linearGradient1343"
       gradientUnits="userSpaceOnUse"
       gradientTransform="matrix(0.3986445,0.04231721,-0.04231721,0.3986445,-38.426137,-36.508138)"
       x1="132.10901"
       y1="575.51141"
       x2="1068.3112"
       y2="320.25305" />
    <linearGradient
       xlink:href="#linearGradient29544"
       id="linearGradient1345"
       gradientUnits="userSpaceOnUse"
       gradientTransform="matrix(0.3986445,0.04231721,-0.04231721,0.3986445,-38.426137,-36.508138)"
       x1="132.10901"
       y1="575.51141"
       x2="1068.3112"
       y2="320.25305" />
    <linearGradient
       xlink:href="#linearGradient29544"
       id="linearGradient1347"
       gradientUnits="userSpaceOnUse"
       gradientTransform="matrix(0.3986445,0.04231721,-0.04231721,0.3986445,-38.426137,-36.508138)"
       x1="132.10901"
       y1="575.51141"
       x2="1068.3112"
       y2="320.25305" />
    <linearGradient
       xlink:href="#linearGradient29544"
       id="linearGradient1349"
       gradientUnits="userSpaceOnUse"
       gradientTransform="matrix(0.3986445,0.04231721,-0.04231721,0.3986445,-38.426137,-36.508138)"
       x1="132.10901"
       y1="575.51141"
       x2="1068.3112"
       y2="320.25305" />
    <linearGradient
       xlink:href="#linearGradient25627"
       id="linearGradient25349-5"
       x1="-19.32687"
       y1="174.87611"
       x2="365.09894"
       y2="71.86953"
       gradientUnits="userSpaceOnUse"
       gradientTransform="matrix(1.192128,0,0,1.192128,-58.445558,-15.216216)" />
    <linearGradient
       xlink:href="#linearGradient14653"
       id="linearGradient14655-4"
       x1="-46.183235"
       y1="706.05402"
       x2="1721.9431"
       y2="445.6926"
       gradientUnits="userSpaceOnUse"
       gradientTransform="matrix(0.31541724,0,0,0.31541724,-58.445558,-15.216216)" />
    <linearGradient
       xlink:href="#linearGradient4549-2"
       id="linearGradient4687-8-4"
       x1="1155.105"
       y1="262.50851"
       x2="93.583733"
       y2="615.88306"
       gradientUnits="userSpaceOnUse"
       gradientTransform="matrix(0.38431413,0.04079597,-0.04079597,0.38431413,-32.715223,-34.272923)" />
    <linearGradient
       id="linearGradient4549-2">
      <stop
         style="stop-color:#8b5cf6;stop-opacity:1"
         offset="0"
         id="stop4545-4" />
      <stop
         style="stop-color:#6d28d9;stop-opacity:1"
         offset="0.2124767"
         id="stop3695" />
      <stop
         style="stop-color:#6f5cf6;stop-opacity:1"
         offset="0.42963988"
         id="stop3369" />
      <stop
         style="stop-color:#7c3aed;stop-opacity:1"
         offset="0.59961361"
         id="stop3629" />
      <stop
         style="stop-color:#6376f6;stop-opacity:1"
         offset="0.80968213"
         id="stop3499" />
      <stop
         style="stop-color:#6d28d9;stop-opacity:1"
         offset="1"
         id="stop4547-4" />
    </linearGradient>
    <linearGradient
       xlink:href="#linearGradient120453"
       id="linearGradient4479-5-7"
       x1="1143.1901"
       y1="196.74675"
       x2="120.85666"
       y2="539.48602"
       gradientUnits="userSpaceOnUse"
       gradientTransform="matrix(0.38431413,0.04079597,-0.04079597,0.38431413,-32.715223,-34.272923)" />
    <linearGradient
       id="linearGradient120453">
      <stop
         style="stop-color:#8b5cf6;stop-opacity:1"
         offset="0"
         id="stop120441" />
      <stop
         style="stop-color:#5151dc;stop-opacity:1"
         offset="0.25152168"
         id="stop120443" />
      <stop
         style="stop-color:#3b82f6;stop-opacity:1"
         offset="0.44539982"
         id="stop120445" />
      <stop
         style="stop-color:#8b69f6;stop-opacity:1"
         offset="0.63944036"
         id="stop120447" />
      <stop
         style="stop-color:#60a5fa;stop-opacity:1"
         offset="0.83593452"
         id="stop120449" />
      <stop
         style="stop-color:#60a5fa;stop-opacity:1"
         offset="1"
         id="stop120451" />
    </linearGradient>
    <linearGradient
       xlink:href="#linearGradient1509"
       id="linearGradient6948-6"
       gradientUnits="userSpaceOnUse"
       gradientTransform="matrix(0.38647336,0,0,0.38647336,-66.036328,-48.379503)"
       x1="466.89359"
       y1="475.49548"
       x2="1404.4065"
       y2="195.51314" />
    <linearGradient
       xlink:href="#linearGradient10986-9"
       id="linearGradient12309-5-3"
       gradientUnits="userSpaceOnUse"
       x1="1181.7125"
       y1="252.36546"
       x2="861.3941"
       y2="436.60165"
       gradientTransform="matrix(0.38647336,0,0,0.38647336,-66.036328,-47.14316)" />
    <linearGradient
       id="linearGradient10986-9">
      <stop
         style="stop-color:#7e5af0;stop-opacity:1"
         offset="0"
         id="stop10982-5" />
      <stop
         style="stop-color:#7c61ee;stop-opacity:1"
         offset="0.49538255"
         id="stop136405" />
      <stop
         style="stop-color:#4c6fe2;stop-opacity:1"
         offset="1"
         id="stop10984-9" />
    </linearGradient>
    <linearGradient
       xlink:href="#linearGradient4685-3-1"
       id="linearGradient4551-1-6"
       x1="1112.811"
       y1="69.067085"
       x2="89.147026"
       y2="487.89313"
       gradientUnits="userSpaceOnUse"
       gradientTransform="matrix(0.38431413,0.04079597,-0.04079597,0.38431413,-32.715223,-34.272923)" />
    <linearGradient
       id="linearGradient4685-3-1">
      <stop
         style="stop-color:#60a5fa;stop-opacity:1"
         offset="0"
         id="stop4681-8-7" />
      <stop
         style="stop-color:#365fd8;stop-opacity:1"
         offset="0.23215981"
         id="stop17498" />
      <stop
         style="stop-color:#3b82f6;stop-opacity:1"
         offset="0.43870947"
         id="stop26809-0" />
      <stop
         style="stop-color:#4d4eeb;stop-opacity:1"
         offset="0.65562975"
         id="stop12917" />
      <stop
         style="stop-color:#60a5fa;stop-opacity:1"
         offset="1"
         id="stop4683-5-9" />
    </linearGradient>
    <linearGradient
       xlink:href="#linearGradient29544"
       id="linearGradient24274-3"
       gradientUnits="userSpaceOnUse"
       gradientTransform="matrix(0.38431413,0.04079598,-0.04079598,0.38431413,-32.715223,-34.272923)"
       x1="132.10901"
       y1="575.51141"
       x2="1068.3112"
       y2="320.25305" />
    <linearGradient
       xlink:href="#linearGradient4477-7"
       id="linearGradient118139"
       x1="100.59962"
       y1="115.7887"
       x2="345.10434"
       y2="-9.8373604"
       gradientUnits="userSpaceOnUse"
       gradientTransform="matrix(1.051697,0,0,1.051697,0.6668495,4.9514837)" />
    <linearGradient
       id="linearGradient4477-7">
      <stop
         style="stop-color:#8b5cf6;stop-opacity:1"
         offset="0"
         id="stop4473-8" />
      <stop
         style="stop-color:#5151dc;stop-opacity:1"
         offset="0.25152168"
         id="stop55155" />
      <stop
         style="stop-color:#3b82f6;stop-opacity:1"
         offset="0.44539982"
         id="stop41682" />
      <stop
         style="stop-color:#8b5cf6;stop-opacity:1"
         offset="0.63944036"
         id="stop94918" />
      <stop
         style="stop-color:#60a5fa;stop-opacity:1"
         offset="0.83593452"
         id="stop98531" />
      <stop
         style="stop-color:#60a5fa;stop-opacity:1"
         offset="1"
         id="stop4475-3" />
    </linearGradient>
    <linearGradient
       xlink:href="#linearGradient25627"
       id="linearGradient161031"
       x1="-12.419965"
       y1="169.75165"
       x2="373.66388"
       y2="-5.8339572"
       gradientUnits="userSpaceOnUse"
       gradientTransform="matrix(1.051697,0,0,1.051697,0.6668495,-1.7170325)" />
  </defs>
  <rect
     style="fill:#1b1e20;fill-opacity:1;stroke:none;stroke-width:0.156879;stroke-linecap:round;stroke-linejoin:round;paint-order:stroke fill markers;stop-color:#000000"
     id="rect3074-7"
     width="381"
     height="238.125"
     x="0"
     y="0" />
  <path
     id="path145852"
     style="fill:url(#linearGradient161031);fill-opacity:1;stroke:none;stroke-width:0.102254px;stroke-linecap:butt;stroke-linejoin:miter;stroke-opacity:1"
     d="m 385.67154,-12.967982 c -57.09943,7.1803141 -53.00299,81.242626 -105.5171,89.709617 -34.90961,1.960521 -45.99131,-8.934923 -72.55395,-2.24715 -31.64009,7.966142 -50.52016,36.770345 -77.55562,39.371165 -28.95771,2.78568 -61.891718,-11.768 -93.298587,3.18343 -19.499925,9.28306 -28.5932229,33.00638 -40.0017269,49.97015 v 21.69415 C 22.332449,174.04289 44.542523,151.60444 63.008293,145.75513 c 18.820591,-5.9617 38.148117,-2.46235 57.838177,-1.98643 17.34111,0.41914 35.36149,-11.60825 53.24633,-12.79568 35.75631,-2.3741 74.40153,6.79995 109.44427,1.0761 34.01191,-5.55546 58.12962,-33.071402 90.18392,-41.192501 3.8884,-0.985135 7.88407,-1.556396 11.95055,-1.854889 z" />
  <path
     id="path3392-4"
     style="fill:none;stroke:url(#linearGradient118139);stroke-width:0.102254px;stroke-linecap:butt;stroke-linejoin:miter;stroke-opacity:1"
     d="m 104.49477,140.40709 c 0,0 29.64954,-4.82888 44.49681,-7.09935 21.30016,-3.25726 42.85862,-5.00629 63.96233,-9.35831 21.09402,-4.35002 42.40214,-8.74851 62.41768,-16.70205 25.87376,-10.281411 47.97438,-28.557896 73.49898,-39.677867 11.86499,-5.16907 36.77239,-12.460601 36.77239,-12.460601 M 103.86252,139.8304 c 0,0 29.90633,-4.76797 44.85062,-7.20674 21.29668,-3.47542 42.76095,-6.0797 63.86433,-10.58232 21.13716,-4.50984 42.68437,-8.33164 62.72224,-16.43112 25.70867,-10.391677 47.32543,-29.174197 72.5188,-40.759407 12.20485,-5.612423 37.8573,-13.818258 37.8573,-13.818258 M 103.23027,139.25371 c 0,0 30.16422,-4.70467 45.20346,-7.31281 21.29893,-3.69373 42.65748,-7.1493 63.76716,-11.80434 21.17998,-4.67056 42.96876,-7.91267 63.02689,-16.16349 25.54281,-10.506918 46.65507,-29.811426 71.51345,-41.848466 12.53573,-6.070111 38.91952,-15.204878 38.91952,-15.204878 M 102.598,138.67696 c 0,0 30.42323,-4.63908 45.55537,-7.41756 21.30695,-3.91227 42.54839,-8.21517 63.67094,-13.02447 21.22246,-4.83203 43.25674,-7.48823 63.33157,-15.89907 25.40372,-10.6435 46.00215,-30.524622 70.54961,-43.016826 12.89068,-6.560066 40.06812,-16.65479 40.06812,-16.65479 M 101.96575,138.10028 c 0,0 30.68334,-4.57146 45.90632,-7.52112 21.32063,-4.13115 42.43371,-9.27747 63.57564,-14.24277 21.26459,-4.99412 43.54544,-7.06553 63.63628,-15.63769 25.23558,-10.767259 45.28594,-31.194244 69.49119,-44.112217 13.19949,-7.044361 41.07746,-18.091113 41.07746,-18.091113 m -284.31915,99.02821 c 0,0 30.94452,-4.50192 46.25636,-7.62347 21.33992,-4.35046 42.31356,-10.33634 63.4813,-15.45943 21.30635,-5.15665 43.83763,-6.63799 63.94094,-15.379174 25.09271,-10.91062 44.58335,-31.931235 68.46959,-45.27789 13.52793,-7.558851 42.16343,-19.583492 42.16343,-19.583492 M 100.70123,136.94684 c 0,0 31.20676,-4.43065 46.60548,-7.72469 21.36476,-4.5703 42.18802,-11.39194 63.38791,-16.67456 21.34774,-5.31947 44.13236,-6.20795 64.24555,-15.123229 24.95835,-11.062916 43.86988,-32.697428 67.44401,-46.465772 13.85402,-8.091378 43.2571,-21.106002 43.2571,-21.106002 M 100.06898,136.37014 c 0,0 31.47002,-4.35786 46.95368,-7.82493 21.39507,-4.79074 42.05714,-12.44452 63.29543,-17.8884 21.38879,-5.48244 44.4296,-5.77574 64.5502,-14.869646 C 299.7008,84.5636 318.01362,62.297492 341.28303,48.114506 355.45971,39.473648 385.6402,25.459996 385.6402,25.459996 M 99.43671,135.79347 c 0,0 31.73426,-4.28374 47.30095,-7.92426 21.43075,-5.01193 41.92092,-13.49435 63.20381,-19.10116 21.42949,-5.64543 44.72921,-5.3417 64.85492,-14.618011 24.71447,-11.39135 42.40878,-34.30278 65.38059,-48.892646 14.49387,-9.205357 45.45914,-24.223201 45.45914,-24.223201 M 98.80443,135.21674 c 0,0 31.99946,-4.20841 47.64725,-8.02275 21.47175,-5.23399 41.7794,-14.5418 63.11298,-20.3132 21.46992,-5.80829 45.0311,-4.90602 65.15983,-14.367917 24.60548,-11.566269 41.66228,-35.135819 64.34547,-50.125193 14.80617,-9.784127 46.56715,-25.808308 46.56715,-25.808308 M 98.172202,134.64004 c 0,0 32.265528,-4.13207 47.992608,-8.12044 21.51793,-5.45693 41.63271,-15.58677 63.02297,-21.52442 21.51004,-5.970893 45.32281,-4.49488 65.46482,-14.119484 24.1905,-11.559117 40.4978,-35.323231 62.58668,-50.517802 14.75162,-10.147383 46.45326,-26.968719 46.45326,-26.968719 l 0.97651,-0.656091 0.9765,-0.656101 M 97.539933,134.06332 c 0,0 32.532557,-4.05469 48.337157,-8.21712 21.56932,-5.68065 41.48116,-16.62877 62.93408,-22.73433 C 230.361,96.978715 254.45288,99.081415 274.58069,89.238541 298.99444,77.29975 314.71592,52.380873 336.84561,36.606133 352.25798,25.619717 385.64069,7.5678744 385.64069,7.5678744 M 96.907663,133.48663 c 0,0 32.800287,-3.97687 48.680537,-8.31363 21.62561,-5.90578 41.32399,-17.67007 62.84535,-23.94507 21.58958,-6.294892 45.94975,-3.591631 66.07524,-13.626587 C 298.8389,75.469881 313.86715,49.870493 335.73463,33.716858 351.43837,22.11642 385.64487,3.0644973 385.64487,3.0644973 M 96.275404,132.90991 c 0,0 33.068686,-3.89867 49.022776,-8.40991 21.68674,-6.13224 41.1613,-18.71047 62.75688,-25.156407 21.6293,-6.456 46.25922,-3.152641 66.38183,-13.379395 24.25284,-12.325836 38.57272,-38.602907 60.18699,-55.124088 15.98497,-12.218343 51.01949,-32.2532442 51.01949,-32.2532442 M 95.643166,132.33321 c 0,0 33.337694,-3.82025 49.363794,-8.50608 21.75261,-6.36018 40.99307,-19.75032 62.66852,-26.368662 21.66906,-6.616405 46.56998,-2.713683 66.68951,-13.131436 24.18256,-12.521568 37.78073,-39.472261 59.15191,-56.35001 16.25685,-12.838738 52.12611,-33.8368678 52.12611,-33.8368678 M 95.010875,131.75651 c 0,0 33.607255,-3.74181 49.703595,-8.60226 21.82312,-6.58969 40.81924,-20.7899 62.58017,-27.582116 21.70898,-6.77599 46.88184,-2.274916 66.99843,-12.882279 24.11881,-12.717709 36.98357,-40.335346 58.12173,-57.558441 16.51916,-13.459587 53.22931,-35.398112 53.22931,-35.398112 M 94.378637,131.17981 c 0,0 33.877273,-3.66345 50.042093,-8.69848 21.89815,-6.82087 40.63975,-21.82948 62.49168,-28.796961 21.74912,-6.934711 47.19458,-1.836568 67.30876,-12.631659 24.0601,-12.912831 36.18117,-41.18701 57.09528,-58.743483 16.77069,-14.0782576 54.32465,-36.931181 54.32465,-36.931181 M 93.746367,130.60309 c 0,0 34.147733,-3.58532 50.379273,-8.79488 21.9776,-7.05376 40.45457,-22.8693 62.40295,-30.013467 21.78958,-7.092476 47.50807,-1.398694 67.6207,-12.379231 24.00738,-13.1069 35.37656,-42.027158 56.0769,-59.905681 17.01308,-14.6939006 55.41722,-38.433478 55.41722,-38.433478 M 93.114118,130.02639 c 0,0 34.418522,-3.50759 50.715072,-8.89152 22.06137,-7.28847 40.26363,-23.909532 62.31383,-31.231741 21.83048,-7.249232 47.82217,-0.96143 67.93437,-12.124762 23.95856,-13.298278 34.56892,-42.850101 55.06393,-61.038328 17.24471,-15.3037579 56.50042,-39.89948 56.50042,-39.89948 M 92.48187,129.44967 c 0,0 34.68958,-3.43035 51.04944,-8.98846 22.14938,-7.52505 40.06693,-24.950443 62.22427,-32.452029 21.87185,-7.404936 48.13668,-0.524797 68.24992,-11.868012 23.91397,-13.486689 33.76049,-43.655175 54.05921,-62.141126 17.46674,-15.9068858 57.57726,-41.326781 57.57726,-41.326781 M 91.84961,128.87297 c 0,0 34.96087,-3.35371 51.38237,-9.08578 22.24149,-7.76355 39.86439,-25.99214 62.13408,-33.674419 21.91383,-7.559535 48.45151,-0.08876 68.56751,-11.608768 23.87255,-13.67123 32.9517,-44.439415 53.06234,-63.210765 17.6789,-16.5015365 58.64539,-42.712034 58.64539,-42.712034 M 91.217341,128.29629 c 0,0 35.232309,-3.27783 51.713819,-9.18351 22.33763,-8.00405 39.65603,-27.034805 62.04325,-34.899079 21.95651,-7.712978 48.76657,0.346566 68.88726,-11.346854 23.83385,-13.851375 32.14358,-45.201285 52.07406,-64.245677 17.88158,-17.0865846 59.7048,-44.052895 59.7048,-44.052895 M 90.585081,127.71957 c 0,0 35.503829,-3.20274 52.043739,-9.28167 22.43772,-8.24657 39.44185,-28.078587 61.95171,-36.12612 21.99995,-7.865231 49.08175,0.781411 69.20926,-11.082088 C 297.58722,57.203082 305.12698,25.290199 324.88488,5.9850599 342.96012,-11.675962 385.6404,-39.362495 385.6404,-39.362495 M 89.952812,127.14286 c 0,0 35.775398,-3.12855 52.372138,-9.38034 22.54161,-8.49113 39.22178,-29.123562 61.8593,-37.355605 22.04422,-8.016297 49.39701,1.215772 69.53364,-10.81439 C 297.48054,55.396078 304.25099,22.939867 323.84338,3.3863166 342.10349,-14.837594 385.64016,-43.20812 385.64016,-43.20812 M 89.320563,126.56615 c 0,0 36.046927,-3.05537 52.698957,-9.4795 22.64928,-8.73781 38.99589,-30.169846 61.76603,-38.587618 22.08941,-8.166133 49.7123,1.649755 69.86044,-10.543683 C 297.37491,53.594847 303.37783,20.615606 322.81116,0.82591821 341.2476,-17.948588 385.639,-46.96659 385.639,-46.96659 M 88.688304,125.98945 c 0,0 36.318366,-2.98324 53.024206,-9.57922 22.76057,-8.98659 38.76415,-31.217504 61.67182,-39.822226 22.1356,-8.314706 50.02757,2.083527 70.18976,-10.269822 23.69626,-14.518666 28.93464,-48.000913 48.21542,-68.0148011 18.60513,-19.3125329 63.85026,-48.9414669 63.85026,-48.9414669 M 88.056034,125.41271 c 0,0 36.589676,-2.91223 53.347856,-9.67945 22.87546,-9.23749 38.52665,-32.26658 61.57668,-41.059419 22.18283,-8.462027 50.34284,2.517216 70.52161,-9.992825 C 297.16562,50.01059 301.64296,16.046519 320.7764,-4.1795075 339.54208,-24.016774 385.6372,-54.220355 385.6372,-54.220355 M 87.423775,124.83602 c 0,0 36.860805,-2.84245 53.669885,-9.78028 22.99383,-9.49056 38.28333,-33.317187 61.48048,-42.299321 22.23119,-8.608087 50.65809,2.950925 70.85611,-9.71259 C 297.0618,48.227606 300.78303,13.801125 319.77542,-6.6258073 338.69549,-26.974935 385.64028,-57.71715 385.64028,-57.71715 M 86.791537,124.25933 c 0,0 37.131683,-2.7739 53.990303,-9.88167 23.1156,-9.74576 38.03433,-34.369233 61.38332,-43.541787 22.28069,-8.752874 50.97335,3.384866 71.19321,-9.4292 C 296.95725,46.451205 299.92721,11.583254 318.78292,-9.0331312 337.85,-29.880626 385.63984,-61.126308 385.63984,-61.126308" />
  <path
     id="path22726-3"
     style="font-variation-settings:normal;vector-effect:none;fill:none;fill-opacity:1;stroke:url(#linearGradient24274-3);stroke-width:0.306761;stroke-linecap:butt;stroke-linejoin:miter;stroke-miterlimit:4;stroke-dasharray:none;stroke-dashoffset:0;stroke-opacity:1;stop-color:#000000"
     d="M -1.4160785,200.33849 C 19.593073,194.90825 42.105993,162.92361 65.134803,159.4829 c 27.171633,-4.05968 49.297027,19.21634 77.457807,19.75375 46.64539,0.89022 68.99012,-46.73692 126.017,-13.92238 24.83269,14.2893 67.11703,1.7241 90.22684,-26.17393 M -1.6434869,199.85284 C 19.147806,194.27818 41.42035,161.79028 64.680922,158.45602 c 27.070765,-3.94238 49.612858,19.10608 78.057498,19.38036 46.02039,0.72581 68.607,-45.96998 124.84069,-14.05113 25.01877,13.85621 66.46966,1.57633 89.89358,-25.53904 M -1.8708954,199.3672 c 20.5734234,-5.71907 42.6056124,-38.7103 66.0979364,-41.93807 26.969939,-3.82508 49.928729,18.99587 78.657169,19.00691 45.39541,0.56143 68.22394,-45.20301 123.66441,-14.17983 25.20477,13.42312 65.82226,1.42854 89.56031,-24.90412 M -2.0983038,198.88156 c 20.3555748,-5.8635 42.1473878,-39.35804 65.8714428,-42.47931 26.869134,-3.70773 50.244571,18.88566 79.256861,18.63352 44.77043,0.39699 67.84086,-44.4361 122.48811,-14.30853 25.39081,12.98998 65.17497,1.28067 89.22709,-24.26928 M -2.3257228,198.39592 c 20.1377158,-6.00789 41.6891748,-40.00575 65.6449808,-43.02056 26.768308,-3.5904 50.560442,18.77543 79.856542,18.26016 44.14547,0.23254 67.45777,-43.66919 121.31184,-14.43725 25.57684,12.55683 64.52757,1.13284 88.89377,-23.63447 M -2.5531312,197.91028 C 17.366725,191.75797 38.677808,157.2568 62.865367,154.34843 c 26.667471,-3.47308 50.876263,18.66528 80.456243,17.88678 43.52044,0.068 67.07469,-42.90223 120.13552,-14.56598 25.76285,12.12374 63.88023,0.98507 88.56046,-22.99953 M -2.7805396,197.42463 c 19.7019866,-6.29667 40.7727146,-41.30118 65.1920366,-44.10306 26.566655,-3.35581 51.192093,18.55499 81.055903,17.51335 42.89549,-0.0962 66.69162,-42.13529 118.95925,-14.69471 25.94889,11.69063 63.23287,0.83728 88.22721,-22.36468 M -3.0079481,196.93898 c 19.4841281,-6.4411 40.3144911,-41.9489 64.9655531,-44.64432 26.465818,-3.23845 51.507965,18.4448 81.655575,17.13995 42.27051,-0.26064 66.30854,-41.36833 117.78296,-14.82338 26.13494,11.25747 62.58553,0.68945 87.89391,-21.72981 M -3.2353671,196.45334 c 19.2662791,-6.58552 39.8562661,-42.5966 64.7390811,-45.18555 26.364992,-3.12112 51.823806,18.33454 82.255256,16.76655 41.6455,-0.42508 65.92542,-40.60143 116.60667,-14.95211 26.32097,10.82436 61.93816,0.54164 87.56065,-21.09497 M -3.2557384,195.89338 C 15.733124,188.97373 36.026238,152.7144 61.049843,150.2409 c 26.264177,-3.00383 52.139647,18.22431 82.854887,16.39315 41.02055,-0.58953 65.5424,-39.8345 115.43043,-15.08086 26.50698,10.39127 61.29078,0.39386 87.22734,-20.46003 M -3.2557595,195.31823 c 18.7055675,-7.27749 38.7001995,-43.74652 63.8517115,-46.1042 26.16335,-2.88649 52.455508,18.1141 83.454578,16.01972 40.39554,-0.75389 65.15934,-39.06754 114.25412,-15.20954 26.69302,9.95813 60.64346,0.24604 86.89412,-19.82523 M -3.2557174,194.73429 c 18.4222814,-7.64047 38.1226594,-44.30452 63.3977784,-46.54716 26.062513,-2.7692 52.771369,18.00387 84.054259,15.64633 39.7706,-0.91831 64.77627,-38.30059 113.0778,-15.33827 26.87905,9.52501 59.99612,0.0983 86.56089,-19.19035 M -3.255181,194.1409 c 18.138923,-8.00887 37.549243,-44.85246 62.943361,-46.98065 25.961666,-2.65186 53.08722,17.89363 84.65394,15.27293 39.1456,-1.08274 64.39318,-37.53364 111.90152,-15.46697 27.0651,9.09187 59.34871,-0.0497 86.22758,-18.55548 M -3.255486,193.53812 c 17.855964,-8.38135 36.980864,-45.39027 62.489764,-47.40478 25.860872,-2.53455 53.403092,17.78341 85.253652,14.89955 38.52058,-1.24712 64.01006,-36.76674 110.72526,-15.5957 27.25107,8.65876 58.70134,-0.19739 85.89425,-17.92058 M -3.2555912,192.92496 c 17.5731422,-8.75872 36.4170592,-45.91698 62.0359992,-47.8185 25.760034,-2.41724 53.718922,17.67319 85.853322,14.52612 37.89558,-1.41151 63.62698,-35.99975 109.54893,-15.72442 27.43713,8.22569 58.054,-0.34513 85.56101,-17.28572 M -3.2555912,192.30082 c 17.2905722,-9.14065 35.8581032,-46.43196 61.5821072,-48.22126 25.659198,-2.29991 54.034804,17.563 86.453004,14.15273 37.27061,-1.57594 63.24392,-35.23283 108.37266,-15.85311 27.62318,7.79253 57.40668,-0.49302 85.22773,-16.65089 M -3.2556858,191.6653 c 17.0083908,-9.5269 35.3042588,-46.93479 61.1283208,-48.61263 25.558383,-2.18258 54.350635,17.45277 87.052675,13.77934 36.6456,-1.74038 62.86082,-34.46588 107.19637,-15.98183 27.80918,7.3594 56.75929,-0.64082 84.89442,-16.016 M -3.2558331,191.01762 c 16.7266621,-9.91715 34.7556731,-47.4246 60.6745771,-48.99183 25.457577,-2.06528 54.666496,17.34254 87.652346,13.40593 36.02067,-1.90477 62.47778,-33.69896 106.02008,-16.11053 27.99522,6.92627 56.11196,-0.78863 84.56117,-15.38117 M -3.255791,190.35706 c 16.445396,-10.31143 34.212419,-47.90074 60.220643,-49.35815 25.356741,-1.94799 54.982348,17.23231 88.252028,13.03252 35.39564,-2.06919 62.09469,-32.93204 104.8438,-16.23928 28.18121,6.49321 55.46457,-0.93642 84.2279,-14.74624 M -3.2555702,189.68279 C 12.90916,178.9733 30.419147,141.3205 56.510961,139.97204 c 25.255894,-1.83068 55.298199,17.12204 88.851709,12.65908 34.77068,-2.23359 61.71163,-32.16506 103.66752,-16.36796 28.36728,6.06004 54.81725,-1.08423 83.8946,-14.11139 M -3.2556227,188.99438 C 12.62923,177.88386 29.887346,140.18558 56.05708,138.94511 c 25.155099,-1.71331 55.61405,17.01189 89.45136,12.28577 34.14572,-2.39805 61.32856,-31.39816 102.49126,-16.49673 28.55331,5.62694 54.16985,-1.23205 83.56136,-13.47652 M -3.2555281,188.29075 C 12.350246,176.77616 29.361666,139.05159 55.603199,137.91823 c 25.054241,-1.596 55.929901,16.90165 90.051071,11.91235 33.52071,-2.56243 60.94544,-30.63122 101.31494,-16.6254 28.73933,5.1938 53.52251,-1.37989 83.22804,-12.8417 m -333.4531041,67.208 C 12.071915,175.6506 28.842012,137.9186 55.149308,136.89132 c 24.953415,-1.47867 56.245752,16.79146 90.650732,11.53897 32.89576,-2.72686 60.5624,-29.86426 100.13868,-16.75411 28.92535,4.76066 52.87513,-1.52769 82.89476,-12.2068 M -3.2557279,186.835 C 11.795003,174.50532 28.32912,136.7866 54.695417,135.86443 c 24.85262,-1.36136 56.561613,16.68122 91.250413,11.16551 32.27075,-2.89123 60.17931,-29.09726 98.96238,-16.88279 29.11142,4.3276 52.22779,-1.67549 82.56151,-11.57195 M -3.2553808,186.08051 C 11.519479,173.34022 27.823075,135.65567 54.241536,134.83755 c 24.751773,-1.24402 56.877474,16.571 91.850084,10.79212 31.64578,-3.05564 59.79625,-28.33038 97.78608,-17.01153 29.29742,3.89446 51.58049,-1.82329 82.22827,-10.93706 M -3.2557384,185.30786 C 11.244818,172.15634 27.323624,134.52585 53.787644,133.81065 c 24.650958,-1.1267 57.193316,16.46081 92.449776,10.41876 31.02076,-3.22011 59.41313,-27.56344 96.60979,-17.14026 29.48346,3.46131 50.93308,-1.97112 81.89497,-10.30221 M -3.2560013,184.51532 C 10.971745,170.95187 26.83143,133.39715 53.333774,132.78375 c 24.550121,-1.0094 57.509166,16.35058 93.049436,10.04534 30.3958,-3.38447 59.03005,-26.79648 95.43349,-17.26896 29.6695,3.02825 50.28574,-2.11892 81.56172,-9.66733 M -3.2553177,183.70096 C 10.70107,169.72486 26.347334,132.26967 52.879883,131.75688 c 24.449305,-0.89207 57.824987,16.24035 93.649127,9.67192 29.77083,-3.54888 58.64699,-26.02954 94.25721,-17.39769 29.85551,2.59515 49.63838,-2.2667 81.22841,-9.03244 M -3.2558646,182.86578 C 10.431362,168.47863 25.870232,131.1434 52.425991,130.73001 c 24.348468,-0.77477 58.140859,16.13007 94.248809,9.29853 29.14582,-3.71333 58.26392,-25.26263 93.08095,-17.52643 30.04156,2.16201 48.991,-2.4145 80.8951,-8.39757 M -3.2558015,182.00673 C 10.164199,167.20941 25.401575,130.01843 51.97211,129.70311 c 24.247642,-0.65746 58.45671,16.01989 94.8485,8.9251 28.52084,-3.8777 57.88082,-24.49566 91.90462,-17.65511 30.22758,1.72889 48.34368,-2.56232 80.56185,-7.76268 M -3.2557805,181.12329 C 9.8992557,165.91803 24.941215,128.89478 51.518219,128.67621 c 24.146816,-0.54014 58.772581,15.90964 95.448171,8.55173 27.89584,-4.04208 57.49776,-23.72874 90.72834,-17.78387 30.4136,1.2958 47.69631,-2.71008 80.22857,-7.12781 M -3.2556858,180.21397 C 9.6368889,164.60371 24.489553,127.77255 51.064327,127.64931 c 24.046011,-0.42279 59.088423,15.79948 96.047853,8.17832 27.27088,-4.20652 57.11468,-22.96177 89.55206,-17.91253 30.59964,0.86266 47.04898,-2.85793 79.89533,-6.49298 M -3.2556753,179.27765 C 9.3771828,163.26639 24.046757,126.65177 50.610457,126.62244 c 23.945143,-0.30548 59.404273,15.68922 96.647513,7.8049 26.64588,-4.37096 56.73158,-22.19482 88.37577,-18.04126 30.78567,0.42955 46.40164,-3.00575 79.56204,-5.85807 M -3.2557069,178.31298 C 9.120411,161.90562 23.613153,125.53254 50.156566,125.59555 c 23.844348,-0.18818 59.720124,15.579 97.247174,7.43153 26.02092,-4.53536 56.34855,-21.4279 87.19953,-18.16999 30.97167,-0.001 45.75422,-3.15353 79.22872,-5.22323 M -3.2558857,177.31861 C 8.8667522,160.52122 23.188962,124.41484 49.702685,124.56866 c 23.7435,-0.0707 60.035995,15.46878 97.846835,7.05812 25.39594,-4.69974 55.9655,-20.66097 86.02322,-18.29872 31.15773,-0.43669 45.10692,-3.30133 78.89549,-4.58833 M -3.2560119,176.29289 c 11.872639,-17.18038 26.0306579,-52.99407 52.5048049,-52.75113 23.642696,0.0465 60.351827,15.35853 98.446527,6.68472 24.77099,-4.86419 55.58242,-19.89404 84.84693,-18.4274 31.34373,-0.86982 44.45955,-3.44919 78.5622,-3.9535 M -3.2557069,175.23374 C 8.3706352,157.67849 22.370794,122.18451 48.794913,122.5149 c 23.541848,0.16382 60.667687,15.24832 99.046237,6.31128 24.14594,-5.02861 55.19928,-19.12706 83.67059,-18.55611 31.52981,-1.30295 43.8122,-3.59701 78.22894,-3.31862 M -3.2575263,174.14366 C 8.1270096,156.22412 21.975756,121.07192 48.341021,121.48799 c 23.441043,0.28112 60.983539,15.13808 99.645899,5.9379 23.52097,-5.19299 54.81621,-18.36012 82.49437,-18.68483 31.7158,-1.73607 43.1648,-3.74479 77.89566,-2.68376 M -3.2581889,173.01616 C 7.8886845,154.74264 21.592286,119.96123 47.88714,120.46108 c 23.340196,0.39843 61.29938,15.02795 100.24556,5.56453 22.89601,-5.35742 54.43316,-17.5932 81.31806,-18.81358 31.90186,-2.16917 42.5175,-3.89258 77.56237,-2.04885 M -3.2566849,171.84786 C 7.6568484,153.23179 21.221552,118.85249 47.433249,119.4342 c 23.239401,0.51577 61.615261,14.91767 100.845251,5.19111 22.27102,-5.5218 54.05006,-16.82628 80.14178,-18.94228 32.08784,-2.60228 41.87012,-4.0404 77.2291,-1.41402" />
  <path
     id="path2997-1-2"
     style="fill:url(#linearGradient4551-1-6);fill-opacity:1;stroke:none;stroke-width:0.102254px;stroke-linecap:butt;stroke-linejoin:miter;stroke-opacity:1"
     d="m 385.67154,-11.090419 c -57.09943,7.1803037 -53.00299,80.006577 -105.5171,88.473569 -34.90961,1.96051 -45.99131,-7.658426 -72.55395,-0.970654 -31.64009,7.966142 -50.52016,35.493864 -77.55562,38.094674 -28.95771,2.78568 -61.891718,-11.21557 -93.298587,3.73588 -19.499925,9.28306 -28.5932229,32.92548 -40.0017269,49.88925 v 23.10874 C 22.332449,176.57056 44.542523,154.13211 63.008293,148.2828 c 18.820591,-5.9617 38.148117,-2.46235 57.838177,-1.98643 17.34111,0.41914 35.36149,-11.60825 53.24633,-12.79568 35.75631,-2.3741 74.40153,6.79995 109.44427,1.0761 34.01191,-5.55546 58.12962,-33.07141 90.18392,-41.192512 3.8884,-0.985146 7.88407,-1.556407 11.95055,-1.854899 z" />
  <path
     id="path6969-8-9"
     style="fill:url(#linearGradient12309-5-3);fill-opacity:1;stroke:none;stroke-width:0.102254px;stroke-linecap:butt;stroke-linejoin:miter;stroke-opacity:1"
     d="M 385.67174,38.803917 C 350.1208,43.52815 332.18209,57.913809 310.20818,88.025019 284.12642,123.76524 235.54549,109.82641 235.54549,109.82641 l 57.3314,20.22553 92.79485,-16.8927 z" />
  <path
     id="path3305-6"
     style="fill:none;fill-opacity:1;stroke:url(#linearGradient6948-6);stroke-width:0.102254px;stroke-linecap:butt;stroke-linejoin:miter;stroke-opacity:1"
     d="m 112.74139,130.21633 c 8.46462,0.77881 30.37217,-0.41862 38.67095,-3.25099 42.20443,-20.5445 57.97796,-43.915931 106.09302,-29.954317 53.95016,15.654817 72.54027,-57.831261 128.24515,-65.967137 M 112.43712,146.75665 c 0,0 19.5653,-0.9663 46.9661,-2.60962 48.39028,-3.40931 63.23384,-2.50841 116.15532,11.85799 36.383,9.87677 75.32221,-37.53417 110.20427,-43.80679 m -273.3152,33.98808 c 0.2919,0.0268 19.93796,-0.94744 46.68005,-2.63175 48.15545,-4.05866 63.18422,-3.94693 115.8084,10.41615 36.74101,10.02797 75.62854,-37.46253 110.82963,-44.12172 m -273.30758,35.76695 c 0.58378,0.0541 20.31059,-0.92855 46.39401,-2.65382 47.91966,-4.7064 63.12945,-5.39215 115.46137,8.97431 37.10436,10.1861 75.93554,-37.42118 111.44973,-44.48153 M 112.4686,145.04557 c 0.87565,0.0805 20.68326,-0.90961 46.108,-2.67597 47.64271,-5.35336 63.13236,-6.82678 115.11439,7.53259 37.4737,10.35162 76.24285,-37.41333 112.06419,-44.88791 M 112.4791,144.47523 c 1.1675,0.10741 21.0559,-0.89076 45.82192,-2.69807 47.41872,-6.00045 63.05985,-8.28806 114.76742,6.0907 37.85464,10.52656 76.56138,-37.44458 112.68887,-45.3458 m -273.26775,41.38282 c 1.45945,0.13434 21.42858,-0.8719 45.53591,-2.72018 47.20455,-6.64627 62.97188,-9.75978 114.4205,4.64891 38.2469,10.71141 76.88835,-37.51907 113.31991,-45.85638 m -273.26579,43.35728 c 1.75129,0.1611 21.80121,-0.85297 45.24982,-2.74228 46.96922,-7.2752 62.85886,-11.24496 114.07351,3.20714 38.64905,10.90626 77.21798,-37.64018 113.94947,-46.419212 M 112.51058,142.76413 c 2.04317,0.18802 22.17384,-0.83406 44.96383,-2.76438 46.73065,-7.91027 62.77801,-12.72809 113.72652,1.76536 39.05976,11.11142 77.5446,-37.81206 114.56991,-47.033366 M 112.52105,142.19379 c 2.33508,0.21486 22.54653,-0.8152 44.67778,-2.78649 46.4923,-8.54167 62.68829,-14.20807 113.37958,0.32348 39.50745,11.32551 77.84713,-38.03481 115.1828,-47.699405 M 112.53156,141.62343 c 2.62694,0.24168 22.91913,-0.79629 44.39174,-2.80862 46.25443,-9.16899 62.59432,-15.70241 113.03252,-1.11828 40.04929,11.58018 78.07391,-38.300731 115.78983,-48.417625 M 112.54206,141.05306 c 2.91884,0.26858 23.29179,-0.77742 44.10568,-2.83074 46.0174,-9.79216 62.49618,-17.21125 112.68559,-2.56008 40.53879,11.83399 78.38491,-38.66003 116.41615,-49.193985 M 112.55253,140.48273 c 3.21075,0.29541 23.66447,-0.75856 43.81967,-2.85288 45.78159,-10.41082 62.39223,-18.73111 112.33857,-4.00188 41.04836,12.10519 78.69195,-39.097658 117.03661,-50.020026 M 112.56301,139.91236 c 3.50262,0.32226 24.03711,-0.73966 43.53363,-2.87498 45.54747,-11.02458 62.28287,-20.26296 111.99164,-5.44371 41.58129,12.39628 79.00192,-39.624472 117.65824,-50.894762 M 112.57353,139.34201 c 3.79448,0.34911 24.40975,-0.72077 43.24757,-2.89711 45.31535,-11.63324 62.16785,-21.80753 111.64464,-6.88548 42.13764,12.70858 79.31717,-40.250153 118.27945,-51.813582 M 112.58403,138.77166 c 4.08638,0.37597 24.78237,-0.7019 42.96153,-2.91924 45.08579,-12.2365 62.04728,-23.3659 111.29766,-8.32726 42.71695,13.04365 79.64356,-40.985379 118.90022,-52.77078 m -273.14895,63.4469 c 4.37826,0.40285 25.15509,-0.68299 42.67552,-2.94132 44.85916,-12.83438 61.92111,-24.9384 110.95071,-9.76911 43.31777,13.40211 79.98975,-41.840522 119.52079,-53.759078 M 112.605,137.63092 c 4.67015,0.42969 25.5277,-0.66413 42.38946,-2.96342 44.63595,-13.42635 61.78911,-26.52529 110.60373,-11.2109 43.93783,13.7844 80.36843,-42.825821 120.14279,-54.770217 M 112.61549,137.0606 c 4.96204,0.45655 25.90036,-0.64527 42.10342,-2.98558 44.41656,-14.01235 61.67177,-28.19125 110.2567,-12.65269 44.04847,14.08768 80.97005,-43.9997 120.76073,-55.792021 M 112.62601,136.49022 c 5.25389,0.48343 26.27299,-0.62635 41.81737,-3.00768 44.20144,-14.59231 61.52911,-29.80982 109.90976,-14.0945 44.66503,14.50837 81.37559,-45.237923 121.38958,-56.816949 M 112.63648,135.91987 c 5.54579,0.51024 26.64565,-0.60745 41.53133,-3.02979 43.99097,-15.16601 61.37814,-31.43624 109.56274,-15.5363 45.30481,14.94963 81.80998,-46.59873 122.01109,-57.826826 M 112.64696,135.3495 c 5.8377,0.53716 27.01833,-0.58857 41.24532,-3.05189 43.78548,-15.73354 61.21705,-33.065234 109.21579,-16.97809 45.97302,15.40818 82.28889,-48.075392 122.63267,-58.8104 m -273.08327,78.27004 c 6.12957,0.56399 27.39098,-0.56968 40.95923,-3.07403 43.58537,-16.29444 61.04328,-34.689879 108.86883,-18.41989 46.6743,15.8783 82.82174,-49.651619 123.25467,-59.754158 M 112.66795,134.20881 c 6.42145,0.5908 27.76363,-0.55079 40.67324,-3.09615 43.39089,-16.84903 60.84869,-36.287505 108.52185,-19.86167 47.10215,16.22908 82.73149,-50.903386 122.98437,-60.448462 0.3036,-0.0692 0.60644,-0.13772 0.90856,-0.205407 M 112.67844,133.63843 c 6.71333,0.61767 28.13628,-0.5319 40.38719,-3.11826 43.20234,-17.39701 60.35378,-37.033604 108.17488,-21.30348 52.43385,17.24741 75.16266,-51.046783 124.52032,-61.518982 M 112.68892,133.06809 c 7.00524,0.64456 28.50892,-0.51302 40.10116,-3.14039 43.01988,-17.93832 60.00586,-38.247518 107.8279,-22.7453 52.71851,17.08946 74.7895,-52.262047 125.1431,-62.347074 M 112.69944,132.49773 c 7.29707,0.67138 28.88154,-0.49413 39.81511,-3.16247 42.84374,-18.47305 59.63877,-39.437505 107.48094,-24.18714 53.00388,16.89575 74.35797,-53.441385 125.76089,-63.138515 M 112.70989,131.92736 c 7.58901,0.69826 29.25423,-0.47528 39.52908,-3.1846 42.67404,-19.00102 59.25153,-40.599036 107.13394,-25.62892 53.27807,16.65705 73.90751,-54.591896 126.39074,-63.897048 M 112.72041,131.35701 c 7.88088,0.72513 29.62685,-0.45637 39.24302,-3.2067 42.51089,-19.52229 58.84589,-41.73506 106.78694,-27.07074 53.52539,16.37249 73.44331,-55.705639 127.00231,-64.618266 M 112.7309,130.78663 c 8.17276,0.75196 29.99953,-0.43744 38.95699,-3.2288 42.35436,-20.03675 58.42042,-42.838631 106.43998,-28.51252 53.75281,16.03658 72.9934,-56.790681 127.63623,-65.310331" />
  <path
     id="path2985-6-8"
     style="fill:url(#linearGradient4479-5-7);fill-opacity:1;stroke:none;stroke-width:0.102254px;stroke-linecap:butt;stroke-linejoin:miter;stroke-opacity:1"
     d="m 385.67154,68.598893 c -3.90701,0.565592 -8.01949,1.30728 -12.49458,2.290764 -45.94378,10.096964 -54.11287,47.888903 -88.65782,44.411533 -16.78624,-1.68975 -53.49768,-12.03746 -69.99635,-8.94024 -28.11043,5.27702 -40.22035,23.30522 -69.01484,25.94843 -33.789,3.10167 -55.179209,-13.75097 -88.679334,-8.73532 -28.147934,4.21431 -43.844102,36.33285 -56.97100528,52.39466 -1.00319272,1.2275 -2.04328952,2.36995 -3.11305462,3.44784 v 11.80981 c 10.1541345,-5.00606 18.7649459,-10.0582 23.6332089,-13.22068 69.899842,-59.48748 59.038631,-9.86346 112.760585,-13.30275 18.16409,-1.16287 64.08645,-35.89366 82.33552,-39.68977 37.69074,-7.84021 45.19894,18.47636 82.75129,12.39134 31.04183,-5.03011 58.59496,-22.50436 87.44638,-33.28271 z" />
  <path
     id="path2974-6-2"
     style="fill:url(#linearGradient4687-8-4);fill-opacity:1;stroke:none;stroke-width:0.102254px;stroke-linecap:butt;stroke-linejoin:miter;stroke-opacity:1"
     d="m 385.67154,93.873401 c -0.59966,0.09886 -1.1968,0.184362 -1.79999,0.301637 -22.40668,4.356308 -38.62593,19.446122 -66.14474,35.557162 -30.61811,17.9256 -74.75478,-21.80956 -105.17741,-14.18645 -30.90873,7.74491 -44.56425,34.36977 -75.22299,38.66206 -31.01572,4.34224 -49.722553,-33.87525 -90.567604,-17.5669 -24.51085,9.78653 -32.489139,34.40927 -44.3267357,46.5474 -1.87604863,1.92368 -3.7683039,3.65147 -5.6875142,5.21848 v 13.82776 c 3.12697909,-1.29828 6.3096771,-2.85402 9.5630703,-4.71959 25.0293576,-14.35219 35.1395416,-45.57263 65.3381906,-47.49847 16.481449,-1.05109 35.565153,19.31848 60.846883,22.44734 33.81732,4.18527 57.45435,-27.9737 76.8942,-31.42616 40.04492,-7.11178 54.19688,22.22771 83.96054,25.53538 38.90254,4.32327 63.3346,-26.74129 92.3241,-43.02021 z" />
  <path
     id="path1152-9"
     style="opacity:0.239939;fill:#e9ebed;fill-opacity:0.491332;stroke:none;stroke-width:0.102254px;stroke-linecap:butt;stroke-linejoin:miter;stroke-opacity:1"
     d="m 385.68026,99.825049 c -27.81906,19.652971 -51.45201,66.998271 -87.68825,66.983871 36.2127,1.45449 59.872,-27.64767 87.68825,-43.24032 z m -159.908,23.164751 c -34.83167,0.57302 -54.21996,47.90955 -89.83063,49.77783 31.97205,1.67885 54.67877,-28.39709 73.44527,-31.72996 40.04492,-7.11178 54.1969,22.22771 83.96054,25.53538 C 265.444,163.47212 258.71307,122.44789 225.77226,122.9898 Z M 70.306681,141.34636 c -29.705109,-0.356 -51.109014,48.91315 -73.5626718,57.45992 v 2.94186 c 3.06835752,-1.37937 6.1556982,-2.90477 9.2261171,-4.59077 25.0293577,-14.35222 35.4770417,-45.21504 65.6756907,-47.14088 16.481449,-1.05109 35.565153,19.41523 60.846883,22.54407 -25.28173,-3.12884 -34.874384,-30.88687 -62.186019,-31.2142 z" />
  <path
     id="path4167-3"
     style="fill:url(#linearGradient14655-4);fill-opacity:1;stroke:none;stroke-width:0.102254px;stroke-linecap:butt;stroke-linejoin:miter;stroke-opacity:1"
     d="m 385.67154,120.94523 c -26.91993,16.25348 -51.30313,44.77887 -85.73226,45.81478 -0.64554,0.0301 -1.29366,0.0498 -1.94727,0.0494 1.13166,0.0455 2.25106,0.0612 3.3587,0.0484 4.42992,-0.0515 8.67208,-0.55986 12.75871,-1.43697 0.73285,-0.15728 1.45469,-0.33954 2.17773,-0.5201 0.28505,-0.0711 0.57511,-0.1302 0.85872,-0.2049 0,-1.4e-4 0,-2.8e-4 0.003,-5.5e-4 0.48139,-0.12682 0.9543,-0.27471 1.43152,-0.41142 0.51703,-0.14811 1.03828,-0.2863 1.55056,-0.44565 0.98418,-0.30618 1.95929,-0.63264 2.92661,-0.97826 0,-2.8e-4 0,-8.4e-4 0.003,-0.001 0.96715,-0.34558 1.92638,-0.71008 2.8777,-1.0924 0,-2.7e-4 0.003,-8.3e-4 0.003,-0.001 0.11053,-0.0444 0.21843,-0.0942 0.3288,-0.13913 0.84012,-0.34194 1.67682,-0.69241 2.50543,-1.06087 0.93646,-0.41643 1.86541,-0.84894 2.78804,-1.29674 0,-5.6e-4 0.003,-0.001 0.003,-0.002 0.8711,-0.4228 1.73596,-0.86134 2.59565,-1.30979 0.0519,-0.0271 0.10475,-0.0517 0.15652,-0.0788 0.9095,-0.47636 1.81257,-0.96613 2.71032,-1.46848 0,-8.3e-4 0.003,-0.001 0.004,-0.002 0.89779,-0.50238 1.79014,-1.01725 2.67718,-1.54294 0,-8.3e-4 0.003,-0.001 0.004,-0.002 0.88696,-0.52567 1.76897,-1.06187 2.64622,-1.60817 0,-8.3e-4 0.003,-0.002 0.004,-0.003 0.87722,-0.54633 1.7494,-1.10205 2.61793,-1.66631 0,-8.3e-4 0.003,-0.002 0.004,-0.003 1.73821,-1.12933 3.46004,-2.29212 5.16959,-3.47719 0,-0.001 0.003,-0.002 0.004,-0.003 0.7958,-0.55168 1.58139,-1.12117 2.37229,-1.68153 0.90958,-0.64445 1.82456,-1.28087 2.7288,-1.9337 3.37896,-2.43948 6.72447,-4.92625 10.07015,-7.37393 0,-8.3e-4 0.003,-0.001 0.003,-0.002 0.10875,-0.0796 0.21738,-0.15695 0.32609,-0.23642 1.56611,-1.14451 3.13236,-2.28201 4.70218,-3.39946 1.6753,-1.19258 3.35447,-2.36498 5.04184,-3.50598 v -5.6e-4 c 1.3629,-0.92159 2.73643,-1.80512 4.11196,-2.68044 0.33021,-0.2101 0.65594,-0.43644 0.98697,-0.64348 0.85445,-0.53432 1.71183,-1.05755 2.57283,-1.56957 0.49856,-0.29649 1.00116,-0.58019 1.50217,-0.86848 0.3648,-0.20989 0.72729,-0.42674 1.09348,-0.63206 z m -162.81939,17.30384 v 5.6e-4 c -33.87933,-0.87904 -48.4018,35.44034 -86.91052,34.51801 31.97207,1.67886 54.67877,-28.39709 73.44527,-31.72996 1.21674,-0.21609 2.40762,-0.39563 3.57772,-0.5462 0.38666,-0.0497 0.7585,-0.0784 1.14023,-0.1212 0.77573,-0.0871 1.55222,-0.17485 2.30815,-0.23423 0.43917,-0.0345 0.86353,-0.0491 1.29621,-0.0745 0.67681,-0.0399 1.3555,-0.0823 2.01685,-0.10054 0.45032,-0.0124 0.88816,-0.007 1.33152,-0.0105 0.62859,-0.004 1.25838,-0.008 1.87338,0.005 0.42821,0.009 0.84667,0.035 1.26848,0.0544 0.61779,0.0282 1.23409,0.0574 1.83859,0.1038 0.40118,0.0308 0.79526,0.0717 1.19076,0.11033 0.60208,0.0588 1.2014,0.1211 1.79077,0.19728 0.38551,0.05 0.76541,0.10763 1.14565,0.16468 0.59099,0.0885 1.17831,0.18226 1.75707,0.28749 0.35124,0.0639 0.69932,0.13235 1.0462,0.20218 0.60047,0.12072 1.1952,0.24881 1.78315,0.38641 0.31479,0.0738 0.62837,0.14935 0.93968,0.22773 0.60733,0.15273 1.20796,0.31417 1.80272,0.48369 0.27596,0.0787 0.55165,0.15748 0.825,0.23967 0.63983,0.19215 1.27209,0.39435 1.89838,0.60435 0.21545,0.0724 0.43173,0.1436 0.64565,0.21793 0.68384,0.23736 1.35922,0.48525 2.02827,0.74186 0.14865,0.057 0.29875,0.11212 0.44674,0.1701 0.76191,0.29822 1.51466,0.60851 2.25924,0.92881 0.0482,0.0207 0.097,0.0406 0.14511,0.0614 3.17619,1.37389 6.19583,2.94142 9.14676,4.58153 0.26058,0.14495 0.52098,0.28921 0.78043,0.43533 4.84397,2.72579 9.51017,5.62541 14.29297,8.24512 0.15974,0.0875 0.32149,0.17072 0.48153,0.25761 5.59684,3.03616 11.3831,5.6544 17.87722,7.06958 -24.04458,-5.46381 -34.68384,-26.67902 -65.46918,-27.47778 z M 73.069731,148.97736 c -0.520475,-0.0105 -1.038215,8.3e-4 -1.553262,0.0336 -30.198659,1.92585 -42.662646,34.08209 -67.6506938,48.50609 -2.4153273,1.39421 -4.79754721,2.59264 -7.1212191,3.64675 v 1.05436 c 0.9698854,-0.40455 1.9404861,-0.81227 2.92175094,-1.26795 0.79063425,-0.36962 1.58675836,-0.75115 2.39511376,-1.15923 0.3090622,-0.15559 0.6190604,-0.31516 0.9293425,-0.4761 1.0933863,-0.56806 2.1956489,-1.15739 3.3163162,-1.8 25.0293575,-14.35217 35.1400885,-45.57262 65.3387375,-47.49844 12.361089,-0.78833 26.18573,10.52691 42.991403,17.55385 1.40047,0.58557 2.82139,1.14162 4.26415,1.65815 2.64549,0.94714 5.37347,1.73849 8.16958,2.36305 -21.87565,-5.0019 -39.078659,-22.33044 -54.001219,-22.61418 z m 54.001219,22.61418 c 0.42539,0.0973 0.85094,0.19326 1.2799,0.28098 -0.42972,-0.0861 -0.85382,-0.1858 -1.2799,-0.28098 z m 1.2799,0.28098 c 0.56703,0.11365 1.13362,0.22797 1.70706,0.32501 -0.57259,-0.0983 -1.14074,-0.20919 -1.70706,-0.32501 z m 1.70706,0.32501 c 0.0854,0.0146 0.17048,0.0298 0.25598,0.0441 -0.0856,-0.0141 -0.17055,-0.0296 -0.25598,-0.0441 z m 0.25598,0.0441 c 0.72177,0.11872 1.44675,0.22842 2.17881,0.31901 -0.73161,-0.0906 -1.45728,-0.19874 -2.17881,-0.31901 z m 158.00744,-6.51415 c 0.80324,0.18253 1.62274,0.34545 2.45979,0.48696 0.84371,0.13947 1.69699,0.26208 2.56632,0.35869 -1.72907,-0.19215 -3.39427,-0.49004 -5.02611,-0.84565 z" />
  <path
     id="path16839-6"
     style="fill:url(#linearGradient25349-5);fill-opacity:1;stroke:none;stroke-width:1.02254;stroke-linecap:butt;stroke-linejoin:miter;stroke-miterlimit:4;stroke-dasharray:none;stroke-opacity:1"
     d="m 385.67154,67.051604 c 0,0 -7.5893,1.358299 -11.63207,2.551638 -48.13544,14.208532 -51.84347,43.224978 -83.47902,46.022958 -13.58151,1.2012 -52.6857,-12.54711 -74.43603,-9.51906 -28.0852,3.90999 -42.64347,22.22517 -67.20275,25.669 -30.24253,4.24077 -61.480942,-15.03069 -95.581323,-8.25027 -26.588972,5.28687 -37.242305,33.09158 -56.5957909,54.45373 v 1.28997 c 16.3142079,-16.3277 29.5030459,-48.91813 56.5957909,-55.04751 33.038556,-7.47452 68.523343,14.93559 96.266523,8.5432 29.90773,-6.89113 38.65408,-21.58626 66.5257,-25.9679 24.72412,-3.88683 58.51538,12.58299 74.5893,10.61634 29.48064,-3.60694 40.29305,-33.45125 85.86271,-46.629476 3.06469,-0.886286 9.08696,-1.414679 9.08696,-1.414679 z" />
</svg>
