<?xml version="1.0" encoding="UTF-8"?>
<!-- Created with Inkscape (http://www.inkscape.org/) -->
<svg width="1440" height="900" version="1.1" viewBox="0 0 381 238.13" xmlns="http://www.w3.org/2000/svg" xmlns:xlink="http://www.w3.org/1999/xlink">
 <defs>
  <linearGradient id="linearGradient25627">
   <stop stop-color="#bda62c" offset="0"/>
   <stop stop-color="#ae9a28" stop-opacity=".98824" offset=".14669"/>
   <stop stop-color="#8c7b20" stop-opacity=".96863" offset=".30531"/>
   <stop stop-color="#bda62c" stop-opacity=".95686" offset=".51079"/>
   <stop stop-color="#82721e" stop-opacity=".94902" offset=".6231"/>
   <stop stop-color="#c0ab2c" stop-opacity=".99608" offset=".83541"/>
   <stop stop-color="#7f6f1e" stop-opacity=".92157" offset="1"/>
  </linearGradient>
  <linearGradient id="linearGradient25349-5" x1="-19.327" x2="365.1" y1="174.88" y2="71.87" gradientTransform="matrix(1.1921 0 0 1.1921 -58.446 -15.216)" gradientUnits="userSpaceOnUse" xlink:href="#linearGradient25627"/>
  <linearGradient id="linearGradient14655-4" x1="-46.183" x2="1721.9" y1="706.05" y2="445.69" gradientTransform="matrix(.31542 0 0 .31542 -58.446 -15.216)" gradientUnits="userSpaceOnUse">
   <stop stop-color="#bda62c" offset="0"/>
   <stop stop-color="#615516" stop-opacity=".98824" offset=".098576"/>
   <stop stop-color="#cab12f" stop-opacity=".97647" offset=".25339"/>
   <stop stop-color="#8c7b20" stop-opacity=".96863" offset=".33815"/>
   <stop stop-color="#87771f" stop-opacity=".96471" offset=".42151"/>
   <stop stop-color="#bda62c" stop-opacity=".95686" offset=".53339"/>
   <stop stop-color="#82721e" stop-opacity=".94902" offset=".6231"/>
   <stop stop-color="#80711e" stop-opacity=".93725" offset=".73471"/>
   <stop stop-color="#d7be31" stop-opacity=".92941" offset=".83541"/>
   <stop stop-color="#bda62c" stop-opacity=".92175" offset="1"/>
  </linearGradient>
  <linearGradient id="linearGradient4687-8-4" x1="1155.1" x2="93.584" y1="262.51" y2="615.88" gradientTransform="matrix(.38431 .040796 -.040796 .38431 -32.715 -34.273)" gradientUnits="userSpaceOnUse">
   <stop stop-color="#8b5cf6" offset="0"/>
   <stop stop-color="#6d28d9" offset=".21248"/>
   <stop stop-color="#6f5cf6" offset=".42964"/>
   <stop stop-color="#7c3aed" offset=".59961"/>
   <stop stop-color="#6376f6" offset=".80968"/>
   <stop stop-color="#6d28d9" offset="1"/>
  </linearGradient>
  <linearGradient id="linearGradient4479-5-7" x1="1143.2" x2="120.86" y1="196.75" y2="539.49" gradientTransform="matrix(.38431 .040796 -.040796 .38431 -32.715 -34.273)" gradientUnits="userSpaceOnUse">
   <stop stop-color="#8b5cf6" offset="0"/>
   <stop stop-color="#5151dc" offset=".25152"/>
   <stop stop-color="#3b82f6" offset=".4454"/>
   <stop stop-color="#8b69f6" offset=".63944"/>
   <stop stop-color="#60a5fa" offset=".83593"/>
   <stop stop-color="#60a5fa" offset="1"/>
  </linearGradient>
  <linearGradient id="linearGradient6948-6" x1="466.89" x2="1404.4" y1="475.5" y2="195.51" gradientTransform="matrix(.38647 0 0 .38647 -66.036 -48.38)" gradientUnits="userSpaceOnUse">
   <stop stop-color="#3e2fdd" offset="0"/>
   <stop stop-color="#a4007e" offset="1"/>
  </linearGradient>
  <linearGradient id="linearGradient12309-5-3" x1="1181.7" x2="861.39" y1="252.37" y2="436.6" gradientTransform="matrix(.38647 0 0 .38647 -66.036 -47.143)" gradientUnits="userSpaceOnUse">
   <stop stop-color="#7e5af0" offset="0"/>
   <stop stop-color="#7c61ee" offset=".49538"/>
   <stop stop-color="#4c6fe2" offset="1"/>
  </linearGradient>
  <linearGradient id="linearGradient4551-1-6" x1="1112.8" x2="89.147" y1="69.067" y2="487.89" gradientTransform="matrix(.38431 .040796 -.040796 .38431 -32.715 -34.273)" gradientUnits="userSpaceOnUse">
   <stop stop-color="#60a5fa" offset="0"/>
   <stop stop-color="#365fd8" offset=".23216"/>
   <stop stop-color="#3b82f6" offset=".43871"/>
   <stop stop-color="#4d4eeb" offset=".65563"/>
   <stop stop-color="#60a5fa" offset="1"/>
  </linearGradient>
  <linearGradient id="linearGradient24274-3" x1="132.11" x2="1068.3" y1="575.51" y2="320.25" gradientTransform="matrix(.38431 .040796 -.040796 .38431 -32.715 -34.273)" gradientUnits="userSpaceOnUse">
   <stop stop-color="#1c52f2" offset="0"/>
   <stop stop-color="#d62bc3" stop-opacity=".42363" offset="1"/>
  </linearGradient>
  <linearGradient id="linearGradient118139" x1="100.6" x2="345.1" y1="115.79" y2="-9.8374" gradientTransform="matrix(1.0517 0 0 1.0517 .66685 4.9515)" gradientUnits="userSpaceOnUse">
   <stop stop-color="#8b5cf6" offset="0"/>
   <stop stop-color="#5151dc" offset=".25152"/>
   <stop stop-color="#3b82f6" offset=".4454"/>
   <stop stop-color="#8b5cf6" offset=".63944"/>
   <stop stop-color="#60a5fa" offset=".83593"/>
   <stop stop-color="#60a5fa" offset="1"/>
  </linearGradient>
  <linearGradient id="linearGradient161031" x1="-12.42" x2="373.66" y1="169.75" y2="-5.834" gradientTransform="matrix(1.0517 0 0 1.0517 .66685 -1.717)" gradientUnits="userSpaceOnUse" xlink:href="#linearGradient25627"/>
 </defs>
 <rect width="381" height="238.12" fill="#2a2e32" stop-color="#000000" style="-inkscape-stroke:none;font-variation-settings:normal;paint-order:stroke fill markers"/>
 <path d="m385.67-12.968c-57.099 7.1803-53.003 81.243-105.52 89.71-34.91 1.9605-45.991-8.9349-72.554-2.2472-31.64 7.9661-50.52 36.77-77.556 39.371-28.958 2.7857-61.892-11.768-93.299 3.1834-19.5 9.2831-28.593 33.006-40.002 49.97v21.694c25.588-14.67 47.798-37.109 66.264-42.958 18.821-5.9617 38.148-2.4624 57.838-1.9864 17.341 0.41914 35.361-11.608 53.246-12.796 35.756-2.3741 74.402 6.8 109.44 1.0761 34.012-5.5555 58.13-33.071 90.184-41.193 3.8884-0.98514 7.8841-1.5564 11.951-1.8549z" fill="url(#linearGradient161031)"/>
 <path d="m104.49 140.41s29.65-4.8289 44.497-7.0994c21.3-3.2573 42.859-5.0063 63.962-9.3583 21.094-4.35 42.402-8.7485 62.418-16.702 25.874-10.281 47.974-28.558 73.499-39.678 11.865-5.1691 36.772-12.461 36.772-12.461m-281.78 84.721s29.906-4.768 44.851-7.2067c21.297-3.4754 42.761-6.0797 63.864-10.582 21.137-4.5098 42.684-8.3316 62.722-16.431 25.709-10.392 47.325-29.174 72.519-40.759 12.205-5.6124 37.857-13.818 37.857-13.818m-282.45 88.221s30.164-4.7047 45.203-7.3128c21.299-3.6937 42.657-7.1493 63.767-11.804 21.18-4.6706 42.969-7.9127 63.027-16.163 25.543-10.507 46.655-29.811 71.513-41.848 12.536-6.0701 38.92-15.205 38.92-15.205m-283.06 91.757s30.423-4.6391 45.555-7.4176c21.307-3.9123 42.548-8.2152 63.671-13.024 21.222-4.832 43.257-7.4882 63.332-15.899 25.404-10.644 46.002-30.525 70.55-43.017 12.891-6.5601 40.068-16.655 40.068-16.655m-283.81 95.436s30.683-4.5715 45.906-7.5211c21.321-4.1312 42.434-9.2775 63.576-14.243 21.265-4.9941 43.545-7.0655 63.636-15.638 25.236-10.767 45.286-31.194 69.491-44.112 13.199-7.0444 41.077-18.091 41.077-18.091m-284.32 99.028s30.945-4.5019 46.256-7.6235c21.34-4.3505 42.314-10.336 63.481-15.459 21.306-5.1566 43.838-6.638 63.941-15.379 25.093-10.911 44.583-31.931 68.47-45.278 13.528-7.5589 42.163-19.583 42.163-19.583m-284.94 102.75s31.207-4.4306 46.605-7.7247c21.365-4.5703 42.188-11.392 63.388-16.675 21.348-5.3195 44.132-6.208 64.246-15.123 24.958-11.063 43.87-32.697 67.444-46.466 13.854-8.0914 43.257-21.106 43.257-21.106m-285.57 106.52s31.47-4.3579 46.954-7.8249c21.395-4.7907 42.057-12.445 63.295-17.888 21.389-5.4824 44.43-5.7757 64.55-14.87 24.833-11.224 43.145-33.49 66.415-47.673 14.177-8.6409 44.357-22.655 44.357-22.655m-286.2 110.33s31.734-4.2837 47.301-7.9243c21.431-5.0119 41.921-13.494 63.204-19.101 21.429-5.6454 44.729-5.3417 64.855-14.618 24.714-11.391 42.409-34.303 65.381-48.893 14.494-9.2054 45.459-24.223 45.459-24.223m-286.83 114.18s31.999-4.2084 47.647-8.0228c21.472-5.234 41.779-14.542 63.113-20.313 21.47-5.8083 45.031-4.906 65.16-14.368 24.605-11.566 41.662-35.136 64.345-50.125 14.806-9.7841 46.567-25.808 46.567-25.808m-287.46 118.06s32.266-4.1321 47.993-8.1204c21.518-5.4569 41.633-15.587 63.023-21.524 21.51-5.9709 45.323-4.4949 65.465-14.119 24.19-11.559 40.498-35.323 62.587-50.518 14.752-10.147 46.453-26.969 46.453-26.969l1.953-1.3122m-288.11 121.99s32.533-4.0547 48.337-8.2171c21.569-5.6806 41.481-16.629 62.934-22.734 21.55-6.1332 45.642-4.0305 65.77-13.873 24.414-11.939 40.135-36.858 62.265-52.632 15.412-10.986 48.795-29.038 48.795-29.038m-288.73 125.92s32.8-3.9769 48.681-8.3136c21.626-5.9058 41.324-17.67 62.845-23.945 21.59-6.2949 45.95-3.5916 66.075-13.627 24.33-12.131 39.358-37.731 61.226-53.884 15.704-11.6 49.91-30.652 49.91-30.652m-289.37 129.85s33.069-3.8987 49.023-8.4099c21.687-6.1322 41.161-18.71 62.757-25.156 21.629-6.456 46.259-3.1526 66.382-13.379 24.253-12.326 38.573-38.603 60.187-55.124 15.985-12.218 51.019-32.253 51.019-32.253m-290 133.75s33.338-3.8202 49.364-8.5061c21.753-6.3602 40.993-19.75 62.669-26.369 21.669-6.6164 46.57-2.7137 66.69-13.131 24.183-12.522 37.781-39.472 59.152-56.35 16.257-12.839 52.126-33.837 52.126-33.837m-290.63 137.62s33.607-3.7418 49.704-8.6023c21.823-6.5897 40.819-20.79 62.58-27.582 21.709-6.776 46.882-2.2749 66.998-12.882 24.119-12.718 36.984-40.335 58.122-57.558 16.519-13.46 53.229-35.398 53.229-35.398m-291.27 141.45s33.877-3.6634 50.042-8.6985c21.898-6.8209 40.64-21.829 62.492-28.797 21.749-6.9347 47.195-1.8366 67.309-12.632 24.06-12.913 36.181-41.187 57.095-58.743 16.771-14.078 54.325-36.931 54.325-36.931m-291.89 145.23s34.148-3.5853 50.379-8.7949c21.978-7.0538 40.455-22.869 62.403-30.013 21.79-7.0925 47.508-1.3987 67.621-12.379 24.007-13.107 35.377-42.027 56.077-59.906 17.013-14.694 55.417-38.433 55.417-38.433m-292.53 148.95s34.419-3.5076 50.715-8.8915c22.061-7.2885 40.264-23.91 62.314-31.232 21.83-7.2492 47.822-0.96143 67.934-12.125 23.959-13.298 34.569-42.85 55.064-61.038 17.245-15.304 56.5-39.899 56.5-39.899m-293.16 152.61s34.69-3.4304 51.049-8.9885c22.149-7.525 40.067-24.95 62.224-32.452 21.872-7.4049 48.137-0.5248 68.25-11.868 23.914-13.487 33.76-43.655 54.059-62.141 17.467-15.907 57.577-41.327 57.577-41.327m-293.79 156.2s34.961-3.3537 51.382-9.0858c22.241-7.7636 39.864-25.992 62.134-33.674 21.914-7.5595 48.452-0.08876 68.568-11.609 23.873-13.671 32.952-44.439 53.062-63.211 17.679-16.502 58.645-42.712 58.645-42.712m-294.42 159.72s35.232-3.2778 51.714-9.1835c22.338-8.004 39.656-27.035 62.043-34.899 21.957-7.713 48.767 0.34657 68.887-11.347 23.834-13.851 32.144-45.201 52.074-64.246 17.882-17.087 59.705-44.053 59.705-44.053m-295.06 163.15s35.504-3.2027 52.044-9.2817c22.438-8.2466 39.442-28.079 61.952-36.126 22-7.8652 49.082 0.78141 69.209-11.082 23.797-14.027 31.337-45.939 51.095-65.245 18.075-17.661 60.756-45.348 60.756-45.348m-295.69 166.51s35.775-3.1286 52.372-9.3803c22.542-8.4911 39.222-29.124 61.859-37.356 22.044-8.0163 49.397 1.2158 69.534-10.814 23.763-14.196 30.533-46.653 50.125-66.206 18.26-18.224 61.797-46.594 61.797-46.594m-296.32 169.77s36.047-3.0554 52.699-9.4795c22.649-8.7378 38.996-30.17 61.766-38.588 22.089-8.1661 49.712 1.6498 69.86-10.544 23.729-14.361 29.732-47.34 49.165-67.129 18.436-18.775 62.828-47.793 62.828-47.793m-296.95 172.96s36.318-2.9832 53.024-9.5792c22.761-8.9866 38.764-31.218 61.672-39.822 22.136-8.3147 50.028 2.0835 70.19-10.27 23.696-14.519 28.935-48.001 48.215-68.015 18.605-19.313 63.85-48.941 63.85-48.941m-297.58 176.05s36.59-2.9122 53.348-9.6794c22.875-9.2375 38.527-32.267 61.577-41.059 22.183-8.462 50.343 2.5172 70.522-9.9928 23.663-14.67 28.141-48.634 47.274-68.861 18.766-19.837 64.861-50.041 64.861-50.041m-298.21 179.06s36.861-2.8424 53.67-9.7803c22.994-9.4906 38.283-33.317 61.48-42.299 22.231-8.6081 50.658 2.9509 70.856-9.7126 23.632-14.816 27.353-49.243 46.345-69.67 18.92-20.349 65.865-51.091 65.865-51.091m-298.85 181.98s37.132-2.7739 53.99-9.8817c23.116-9.7458 38.034-34.369 61.383-43.542 22.281-8.7529 50.973 3.3849 71.193-9.4292 23.599-14.955 26.569-49.823 45.425-70.44 19.067-20.847 66.857-52.093 66.857-52.093" fill="none" stroke="url(#linearGradient118139)" stroke-width=".10225px"/>
 <path d="m-1.4161 200.34c21.009-5.4302 43.522-37.415 66.551-40.856 27.172-4.0597 49.297 19.216 77.458 19.754 46.645 0.89022 68.99-46.737 126.02-13.922 24.833 14.289 67.117 1.7241 90.227-26.174m-360.48 60.712c20.791-5.5747 43.064-38.063 66.324-41.397 27.071-3.9424 49.613 19.106 78.057 19.38 46.02 0.72581 68.607-45.97 124.84-14.051 25.019 13.856 66.47 1.5763 89.894-25.539m-359.34 61.121c20.573-5.7191 42.606-38.71 66.098-41.938 26.97-3.8251 49.929 18.996 78.657 19.007 45.395 0.56143 68.224-45.203 123.66-14.18 25.205 13.423 65.822 1.4285 89.56-24.904m-358.21 61.529c20.356-5.8635 42.147-39.358 65.871-42.479 26.869-3.7077 50.245 18.886 79.257 18.634 44.77 0.39699 67.841-44.436 122.49-14.309 25.391 12.99 65.175 1.2807 89.227-24.269m-357.07 61.938c20.138-6.0079 41.689-40.006 65.645-43.021 26.768-3.5904 50.56 18.775 79.857 18.26 44.145 0.23254 67.458-43.669 121.31-14.437 25.577 12.557 64.528 1.1328 88.894-23.634m-355.93 62.346c19.92-6.1523 41.231-40.653 65.418-43.562 26.667-3.4731 50.876 18.665 80.456 17.887 43.52 0.068 67.075-42.902 120.14-14.566 25.763 12.124 63.88 0.98507 88.56-23m-354.8 62.755c19.702-6.2967 40.773-41.301 65.192-44.103 26.567-3.3558 51.192 18.555 81.056 17.513 42.895-0.0962 66.692-42.135 118.96-14.695 25.949 11.691 63.233 0.83728 88.227-22.365m-353.66 63.163c19.484-6.4411 40.314-41.949 64.966-44.644 26.466-3.2384 51.508 18.445 81.656 17.14 42.271-0.26064 66.309-41.368 117.78-14.823 26.135 11.257 62.586 0.68945 87.894-21.73m-352.53 63.572c19.266-6.5855 39.856-42.597 64.739-45.186 26.365-3.1211 51.824 18.335 82.255 16.767 41.646-0.42508 65.925-40.601 116.61-14.952 26.321 10.824 61.938 0.54164 87.561-21.095m-351.18 63.906c18.989-6.9196 39.282-43.179 64.306-45.652 26.264-3.0038 52.14 18.224 82.855 16.393 41.021-0.58953 65.542-39.834 115.43-15.081 26.507 10.391 61.291 0.39386 87.227-20.46m-349.82 64.225c18.706-7.2775 38.7-43.747 63.852-46.104 26.163-2.8865 52.456 18.114 83.455 16.02 40.396-0.75389 65.159-39.068 114.25-15.21 26.693 9.9581 60.643 0.24604 86.894-19.825m-348.45 64.535c18.422-7.6405 38.123-44.305 63.398-46.547 26.063-2.7692 52.771 18.004 84.054 15.646 39.771-0.91831 64.776-38.301 113.08-15.338 26.879 9.525 59.996 0.0983 86.561-19.19m-347.09 64.836c18.139-8.0089 37.549-44.852 62.943-46.981 25.962-2.6519 53.087 17.894 84.654 15.273 39.146-1.0827 64.393-37.534 111.9-15.467 27.065 9.0919 59.349-0.0497 86.228-18.555m-345.73 65.127c17.856-8.3814 36.981-45.39 62.49-47.405 25.861-2.5346 53.403 17.783 85.254 14.9 38.521-1.2471 64.01-36.767 110.73-15.596 27.251 8.6588 58.701-0.19739 85.894-17.921m-344.36 65.408c17.573-8.7587 36.417-45.917 62.036-47.818 25.76-2.4172 53.719 17.673 85.853 14.526 37.896-1.4115 63.627-36 109.55-15.724 27.437 8.2257 58.054-0.34513 85.561-17.286m-343 65.678c17.291-9.1406 35.858-46.432 61.582-48.221 25.659-2.2999 54.035 17.563 86.453 14.153 37.271-1.5759 63.244-35.233 108.37-15.853 27.623 7.7925 57.407-0.49302 85.228-16.651m-341.64 65.937c17.008-9.5269 35.304-46.935 61.128-48.613 25.558-2.1826 54.351 17.453 87.053 13.779 36.646-1.7404 62.861-34.466 107.2-15.982 27.809 7.3594 56.759-0.64082 84.894-16.016m-340.27 66.183c16.727-9.9172 34.756-47.425 60.675-48.992 25.458-2.0653 54.666 17.343 87.652 13.406 36.021-1.9048 62.478-33.699 106.02-16.111 27.995 6.9263 56.112-0.78863 84.561-15.381m-338.91 66.417c16.445-10.311 34.212-47.901 60.221-49.358 25.357-1.948 54.982 17.232 88.252 13.033 35.396-2.0692 62.095-32.932 104.84-16.239 28.181 6.4932 55.465-0.93642 84.228-14.746m-337.54 66.637c16.165-10.709 33.675-48.362 59.767-49.711 25.256-1.8307 55.298 17.122 88.852 12.659 34.771-2.2336 61.712-32.165 103.67-16.368 28.367 6.06 54.817-1.0842 83.895-14.111m-336.18 66.843c15.885-11.111 33.143-48.809 59.313-50.049 25.155-1.7133 55.614 17.012 89.451 12.286 34.146-2.398 61.329-31.398 102.49-16.497 28.553 5.6269 54.17-1.232 83.561-13.477m-334.82 67.033c15.606-11.515 32.617-49.239 58.859-50.373 25.054-1.596 55.93 16.902 90.051 11.912 33.521-2.5624 60.945-30.631 101.31-16.625 28.739 5.1938 53.523-1.3799 83.228-12.842m-333.45 67.208c15.328-11.921 32.098-49.653 58.405-50.68 24.953-1.4787 56.246 16.791 90.651 11.539 32.896-2.7269 60.562-29.864 100.14-16.754 28.925 4.7607 52.875-1.5277 82.895-12.207m-332.09 67.366c15.051-12.33 31.585-50.048 57.951-50.971 24.853-1.3614 56.562 16.681 91.25 11.166 32.271-2.8912 60.179-29.097 98.962-16.883 29.111 4.3276 52.228-1.6755 82.562-11.572m-330.73 67.505c14.775-12.74 31.078-50.425 57.497-51.243 24.752-1.244 56.877 16.571 91.85 10.792 31.646-3.0556 59.796-28.33 97.786-17.012 29.297 3.8945 51.58-1.8233 82.228-10.937m-329.36 67.627c14.501-13.152 30.579-50.782 57.043-51.497 24.651-1.1267 57.193 16.461 92.45 10.419 31.021-3.2201 59.413-27.563 96.61-17.14 29.483 3.4613 50.933-1.9711 81.895-10.302m-328 67.728c14.228-13.563 30.087-51.118 56.59-51.732 24.55-1.0094 57.509 16.351 93.049 10.045 30.396-3.3845 59.03-26.796 95.433-17.269 29.67 3.0282 50.286-2.1189 81.562-9.6673m-326.63 67.808c13.956-13.976 29.603-51.431 56.135-51.944 24.449-0.89207 57.825 16.24 93.649 9.6719 29.771-3.5489 58.647-26.03 94.257-17.398 29.856 2.5952 49.638-2.2667 81.228-9.0324m-325.27 67.867c13.687-14.387 29.126-51.722 55.682-52.136 24.348-0.77477 58.141 16.13 94.249 9.2985 29.146-3.7133 58.264-25.263 93.081-17.526 30.042 2.162 48.991-2.4145 80.895-8.3976m-323.91 67.902c13.42-14.797 28.657-51.988 55.228-52.304 24.248-0.65746 58.457 16.02 94.848 8.9251 28.521-3.8777 57.881-24.496 91.905-17.655 30.228 1.7289 48.344-2.5623 80.562-7.7627m-322.54 67.913c13.155-15.205 28.197-52.229 54.774-52.447 24.147-0.54014 58.773 15.91 95.448 8.5517 27.896-4.0421 57.498-23.729 90.728-17.784 30.414 1.2958 47.696-2.7101 80.229-7.1278m-321.18 67.898c12.893-15.61 27.745-52.441 54.32-52.565 24.046-0.42279 59.088 15.799 96.048 8.1783 27.271-4.2065 57.115-22.962 89.552-17.913 30.6 0.86266 47.049-2.8579 79.895-6.493m-319.82 67.856c12.633-16.011 27.302-52.626 53.866-52.655 23.945-0.30548 59.404 15.689 96.648 7.8049 26.646-4.371 56.732-22.195 88.376-18.041 30.786 0.42955 46.402-3.0058 79.562-5.8581m-318.45 67.785c12.376-16.407 26.869-52.78 53.412-52.717 23.844-0.18818 59.72 15.579 97.247 7.4315 26.021-4.5354 56.349-21.428 87.2-18.17 30.972-1e-3 45.754-3.1535 79.229-5.2232m-317.09 67.685c12.123-16.797 26.445-52.904 52.959-52.75 23.744-0.0707 60.036 15.469 97.847 7.0581 25.396-4.6997 55.966-20.661 86.023-18.299 31.158-0.43669 45.107-3.3013 78.895-4.5883m-315.72 67.553c11.873-17.18 26.031-52.994 52.505-52.751 23.643 0.0465 60.352 15.359 98.447 6.6847 24.771-4.8642 55.582-19.894 84.847-18.427 31.344-0.86982 44.46-3.4492 78.562-3.9535m-314.36 67.388c11.626-17.555 25.627-53.049 52.051-52.719 23.542 0.16382 60.668 15.248 99.046 6.3113 24.146-5.0286 55.199-19.127 83.671-18.556 31.53-1.303 43.812-3.597 78.229-3.3186m-313 67.192c11.385-17.92 25.233-53.072 51.599-52.656 23.441 0.28112 60.984 15.138 99.646 5.9379 23.521-5.193 54.816-18.36 82.494-18.685 31.716-1.7361 43.165-3.7448 77.896-2.6838m-311.64 66.959c11.147-18.274 24.85-53.055 51.145-52.555 23.34 0.39843 61.299 15.028 100.25 5.5645 22.896-5.3574 54.433-17.593 81.318-18.814 31.902-2.1692 42.518-3.8926 77.562-2.0488m-310.27 66.685c10.914-18.616 24.478-52.995 50.69-52.414 23.239 0.51577 61.615 14.918 100.85 5.1911 22.271-5.5218 54.05-16.826 80.142-18.942 32.088-2.6023 41.87-4.0404 77.229-1.414" fill="none" stop-color="#000000" stroke="url(#linearGradient24274-3)" stroke-width=".30676" style="font-variation-settings:normal"/>
 <path d="m385.67-11.09c-57.099 7.1803-53.003 80.007-105.52 88.474-34.91 1.9605-45.991-7.6584-72.554-0.97065-31.64 7.9661-50.52 35.494-77.556 38.095-28.958 2.7857-61.892-11.216-93.299 3.7359-19.5 9.2831-28.593 32.925-40.002 49.889v23.109c25.588-14.67 47.798-37.109 66.264-42.958 18.821-5.9617 38.148-2.4624 57.838-1.9864 17.341 0.41914 35.361-11.608 53.246-12.796 35.756-2.3741 74.402 6.8 109.44 1.0761 34.012-5.5555 58.13-33.071 90.184-41.193 3.8884-0.98515 7.8841-1.5564 11.951-1.8549z" fill="url(#linearGradient4551-1-6)"/>
 <path d="m385.67 38.804c-35.551 4.7242-53.49 19.11-75.464 49.221-26.082 35.74-74.663 21.801-74.663 21.801l57.331 20.226 92.795-16.893z" fill="url(#linearGradient12309-5-3)"/>
 <path d="m112.74 130.22c8.4646 0.77881 30.372-0.41862 38.671-3.251 42.204-20.544 57.978-43.916 106.09-29.954 53.95 15.655 72.54-57.831 128.25-65.967m-273.31 115.71s19.565-0.9663 46.966-2.6096c48.39-3.4093 63.234-2.5084 116.16 11.858 36.383 9.8768 75.322-37.534 110.2-43.807m-273.32 33.988c0.2919 0.0268 19.938-0.94744 46.68-2.6318 48.155-4.0587 63.184-3.9469 115.81 10.416 36.741 10.028 75.629-37.463 110.83-44.122m-273.31 35.767c0.58378 0.0541 20.311-0.92855 46.394-2.6538 47.92-4.7064 63.129-5.3922 115.46 8.9743 37.104 10.186 75.936-37.421 111.45-44.482m-273.29 37.591c0.87565 0.0805 20.683-0.90961 46.108-2.676 47.643-5.3534 63.132-6.8268 115.11 7.5326 37.474 10.352 76.243-37.413 112.06-44.888m-273.28 39.461c1.1675 0.10741 21.056-0.89076 45.822-2.6981 47.419-6.0004 63.06-8.2881 114.77 6.0907 37.855 10.527 76.561-37.445 112.69-45.346m-273.27 41.383c1.4594 0.13434 21.429-0.8719 45.536-2.7202 47.205-6.6463 62.972-9.7598 114.42 4.6489 38.247 10.711 76.888-37.519 113.32-45.856m-273.27 43.357c1.7513 0.1611 21.801-0.85297 45.25-2.7423 46.969-7.2752 62.859-11.245 114.07 3.2071 38.649 10.906 77.218-37.64 113.95-46.419m-273.26 45.384c2.0432 0.18802 22.174-0.83406 44.964-2.7644 46.731-7.9103 62.778-12.728 113.73 1.7654 39.06 11.111 77.545-37.812 114.57-47.033m-273.25 47.462c2.3351 0.21486 22.547-0.8152 44.678-2.7865 46.492-8.5417 62.688-14.208 113.38 0.32348 39.507 11.326 77.847-38.035 115.18-47.699m-273.23 49.592c2.6269 0.24168 22.919-0.79629 44.392-2.8086 46.254-9.169 62.594-15.702 113.03-1.1183 40.049 11.58 78.074-38.301 115.79-48.418m-273.2 51.774c2.9188 0.26858 23.292-0.77742 44.106-2.8307 46.017-9.7922 62.496-17.211 112.69-2.5601 40.539 11.834 78.385-38.66 116.42-49.194m-273.2 54.014c3.2108 0.29541 23.664-0.75856 43.82-2.8529 45.782-10.411 62.392-18.731 112.34-4.0019 41.048 12.105 78.692-39.098 117.04-50.02m-273.18 56.304c3.5026 0.32226 24.037-0.73966 43.534-2.875 45.547-11.025 62.283-20.263 111.99-5.4437 41.581 12.396 79.002-39.624 117.66-50.895m-273.17 58.643c3.7945 0.34911 24.41-0.72077 43.248-2.8971 45.315-11.633 62.168-21.808 111.64-6.8855 42.138 12.709 79.317-40.25 118.28-51.814m-273.16 61.026c4.0864 0.37597 24.782-0.7019 42.962-2.9192 45.086-12.236 62.047-23.366 111.3-8.3273 42.717 13.044 79.644-40.985 118.9-52.771m-273.15 63.447c4.3783 0.40285 25.155-0.68299 42.676-2.9413 44.859-12.834 61.921-24.938 110.95-9.7691 43.318 13.402 79.99-41.841 119.52-53.759m-273.14 65.899c4.6702 0.42969 25.528-0.66413 42.389-2.9634 44.636-13.426 61.789-26.525 110.6-11.211 43.938 13.784 80.368-42.826 120.14-54.77m-273.13 68.374c4.962 0.45655 25.9-0.64527 42.103-2.9856 44.417-14.012 61.672-28.191 110.26-12.653 44.048 14.088 80.97-44 120.76-55.792m-273.11 70.86c5.2539 0.48343 26.273-0.62635 41.817-3.0077 44.201-14.592 61.529-29.81 109.91-14.094 44.665 14.508 81.376-45.238 121.39-56.817m-273.11 73.349c5.5458 0.51024 26.646-0.60745 41.531-3.0298 43.991-15.166 61.378-31.436 109.56-15.536 45.305 14.95 81.81-46.599 122.01-57.827m-273.09 75.823c5.8377 0.53716 27.018-0.58857 41.245-3.0519 43.785-15.734 61.217-33.065 109.22-16.978 45.973 15.408 82.289-48.075 122.63-58.81m-273.08 78.27c6.1296 0.56399 27.391-0.56968 40.959-3.074 43.585-16.294 61.043-34.69 108.87-18.42 46.674 15.878 82.822-49.652 123.25-59.754m-273.07 80.678c6.4214 0.5908 27.764-0.55079 40.673-3.0962 43.391-16.849 60.849-36.288 108.52-19.862 47.102 16.229 82.731-50.903 122.98-60.448 0.3036-0.0692 0.60644-0.13772 0.90856-0.20541m-273.08 83.041c6.7133 0.61767 28.136-0.5319 40.387-3.1183 43.202-17.397 60.354-37.034 108.17-21.303 52.434 17.247 75.163-51.047 124.52-61.519m-273.07 85.37c7.0052 0.64456 28.509-0.51302 40.101-3.1404 43.02-17.938 60.006-38.248 107.83-22.745 52.719 17.089 74.79-52.262 125.14-62.347m-273.06 87.662c7.2971 0.67138 28.882-0.49413 39.815-3.1625 42.844-18.473 59.639-39.438 107.48-24.187 53.004 16.896 74.358-53.441 125.76-63.139m-273.05 89.918c7.589 0.69826 29.254-0.47528 39.529-3.1846 42.674-19.001 59.252-40.599 107.13-25.629 53.278 16.657 73.908-54.592 126.39-63.897m-273.04 92.14c7.8809 0.72513 29.627-0.45637 39.243-3.2067 42.511-19.522 58.846-41.735 106.79-27.071 53.525 16.372 73.443-55.706 127-64.618m-273.02 94.325c8.1728 0.75196 30-0.43744 38.957-3.2288 42.354-20.037 58.42-42.839 106.44-28.513 53.753 16.037 72.993-56.791 127.64-65.31" fill="none" stroke="url(#linearGradient6948-6)" stroke-width=".10225px"/>
 <path d="m385.67 68.599c-3.907 0.56559-8.0195 1.3073-12.495 2.2908-45.944 10.097-54.113 47.889-88.658 44.412-16.786-1.6898-53.498-12.037-69.996-8.9402-28.11 5.277-40.22 23.305-69.015 25.948-33.789 3.1017-55.179-13.751-88.679-8.7353-28.148 4.2143-43.844 36.333-56.971 52.395-1.0032 1.2275-2.0433 2.37-3.1131 3.4478v11.81c10.154-5.0061 18.765-10.058 23.633-13.221 69.9-59.487 59.039-9.8635 112.76-13.303 18.164-1.1629 64.086-35.894 82.336-39.69 37.691-7.8402 45.199 18.476 82.751 12.391 31.042-5.0301 58.595-22.504 87.446-33.283z" fill="url(#linearGradient4479-5-7)"/>
 <path d="m385.67 93.873c-0.59966 0.09886-1.1968 0.18436-1.8 0.30164-22.407 4.3563-38.626 19.446-66.145 35.557-30.618 17.926-74.755-21.81-105.18-14.186-30.909 7.7449-44.564 34.37-75.223 38.662-31.016 4.3422-49.723-33.875-90.568-17.567-24.511 9.7865-32.489 34.409-44.327 46.547-1.876 1.9237-3.7683 3.6515-5.6875 5.2185v13.828c3.127-1.2983 6.3097-2.854 9.5631-4.7196 25.029-14.352 35.14-45.573 65.338-47.498 16.481-1.0511 35.565 19.318 60.847 22.447 33.817 4.1853 57.454-27.974 76.894-31.426 40.045-7.1118 54.197 22.228 83.961 25.535 38.903 4.3233 63.335-26.741 92.324-43.02z" fill="url(#linearGradient4687-8-4)"/>
 <path d="m385.68 99.825c-27.819 19.653-51.452 66.998-87.688 66.984 36.213 1.4545 59.872-27.648 87.688-43.24zm-159.91 23.165c-34.832 0.57302-54.22 47.91-89.831 49.778 31.972 1.6788 54.679-28.397 73.445-31.73 40.045-7.1118 54.197 22.228 83.961 25.535-27.903-3.1009-34.634-44.125-67.575-43.583zm-155.47 18.357c-29.705-0.356-51.109 48.913-73.563 57.46v2.9419c3.0684-1.3794 6.1557-2.9048 9.2261-4.5908 25.029-14.352 35.477-45.215 65.676-47.141 16.481-1.0511 35.565 19.415 60.847 22.544-25.282-3.1288-34.874-30.887-62.186-31.214z" fill="#e9ebed" fill-opacity=".49133" opacity=".23994"/>
 <path d="m385.67 120.95c-26.92 16.253-51.303 44.779-85.732 45.815-0.64554 0.0301-1.2937 0.0498-1.9473 0.0494 1.1317 0.0455 2.2511 0.0612 3.3587 0.0484 4.4299-0.0515 8.6721-0.55986 12.759-1.437 0.73285-0.15728 1.4547-0.33954 2.1777-0.5201 0.28505-0.0711 0.57511-0.1302 0.85872-0.2049 0-1.4e-4 0-2.8e-4 3e-3 -5.5e-4 0.48139-0.12682 0.9543-0.27471 1.4315-0.41142 0.51703-0.14811 1.0383-0.2863 1.5506-0.44565 0.98418-0.30618 1.9593-0.63264 2.9266-0.97826 0-2.8e-4 0-8.4e-4 3e-3 -1e-3 0.96715-0.34558 1.9264-0.71008 2.8777-1.0924 0-2.7e-4 3e-3 -8.3e-4 3e-3 -1e-3 0.11053-0.0444 0.21843-0.0942 0.3288-0.13913 0.84012-0.34194 1.6768-0.69241 2.5054-1.0609 0.93646-0.41643 1.8654-0.84894 2.788-1.2967 0-5.6e-4 3e-3 -1e-3 3e-3 -2e-3 0.8711-0.4228 1.736-0.86134 2.5956-1.3098 0.0519-0.0271 0.10475-0.0517 0.15652-0.0788 0.9095-0.47636 1.8126-0.96613 2.7103-1.4685 0-8.3e-4 3e-3 -1e-3 4e-3 -2e-3 0.89779-0.50238 1.7901-1.0172 2.6772-1.5429 0-8.3e-4 3e-3 -1e-3 4e-3 -2e-3 0.88696-0.52567 1.769-1.0619 2.6462-1.6082 0-8.3e-4 3e-3 -2e-3 4e-3 -3e-3 0.87722-0.54633 1.7494-1.102 2.6179-1.6663 0-8.3e-4 3e-3 -2e-3 4e-3 -3e-3 1.7382-1.1293 3.46-2.2921 5.1696-3.4772 0-1e-3 3e-3 -2e-3 4e-3 -3e-3 0.7958-0.55168 1.5814-1.1212 2.3723-1.6815 0.90958-0.64445 1.8246-1.2809 2.7288-1.9337 3.379-2.4395 6.7245-4.9262 10.07-7.3739 0-8.3e-4 3e-3 -1e-3 3e-3 -2e-3 0.10875-0.0796 0.21738-0.15695 0.32609-0.23642 1.5661-1.1445 3.1324-2.282 4.7022-3.3995 1.6753-1.1926 3.3545-2.365 5.0418-3.506v-5.6e-4c1.3629-0.92159 2.7364-1.8051 4.112-2.6804 0.33021-0.2101 0.65594-0.43644 0.98697-0.64348 0.85445-0.53432 1.7118-1.0576 2.5728-1.5696 0.49856-0.29649 1.0012-0.58019 1.5022-0.86848 0.3648-0.20989 0.72729-0.42674 1.0935-0.63206zm-162.82 17.304v5.6e-4c-33.879-0.87904-48.402 35.44-86.911 34.518 31.972 1.6789 54.679-28.397 73.445-31.73 1.2167-0.21609 2.4076-0.39563 3.5777-0.5462 0.38666-0.0497 0.7585-0.0784 1.1402-0.1212 0.77573-0.0871 1.5522-0.17485 2.3082-0.23423 0.43917-0.0345 0.86353-0.0491 1.2962-0.0745 0.67681-0.0399 1.3555-0.0823 2.0168-0.10054 0.45032-0.0124 0.88816-7e-3 1.3315-0.0105 0.62859-4e-3 1.2584-8e-3 1.8734 5e-3 0.42821 9e-3 0.84667 0.035 1.2685 0.0544 0.61779 0.0282 1.2341 0.0574 1.8386 0.1038 0.40118 0.0308 0.79526 0.0717 1.1908 0.11033 0.60208 0.0588 1.2014 0.1211 1.7908 0.19728 0.38551 0.05 0.76541 0.10763 1.1456 0.16468 0.59099 0.0885 1.1783 0.18226 1.7571 0.28749 0.35124 0.0639 0.69932 0.13235 1.0462 0.20218 0.60047 0.12072 1.1952 0.24881 1.7832 0.38641 0.31479 0.0738 0.62837 0.14935 0.93968 0.22773 0.60733 0.15273 1.208 0.31417 1.8027 0.48369 0.27596 0.0787 0.55165 0.15748 0.825 0.23967 0.63983 0.19215 1.2721 0.39435 1.8984 0.60435 0.21545 0.0724 0.43173 0.1436 0.64565 0.21793 0.68384 0.23736 1.3592 0.48525 2.0283 0.74186 0.14865 0.057 0.29875 0.11212 0.44674 0.1701 0.76191 0.29822 1.5147 0.60851 2.2592 0.92881 0.0482 0.0207 0.097 0.0406 0.14511 0.0614 3.1762 1.3739 6.1958 2.9414 9.1468 4.5815 0.26058 0.14495 0.52098 0.28921 0.78043 0.43533 4.844 2.7258 9.5102 5.6254 14.293 8.2451 0.15974 0.0875 0.32149 0.17072 0.48153 0.25761 5.5968 3.0362 11.383 5.6544 17.877 7.0696-24.045-5.4638-34.684-26.679-65.469-27.478zm-149.78 10.728c-0.52048-0.0105-1.0382 8.3e-4 -1.5533 0.0336-30.199 1.9258-42.663 34.082-67.651 48.506-2.4153 1.3942-4.7975 2.5926-7.1212 3.6468v1.0544c0.96989-0.40455 1.9405-0.81227 2.9218-1.268 0.79063-0.36962 1.5868-0.75115 2.3951-1.1592 0.30906-0.15559 0.61906-0.31516 0.92934-0.4761 1.0934-0.56806 2.1956-1.1574 3.3163-1.8 25.029-14.352 35.14-45.573 65.339-47.498 12.361-0.78833 26.186 10.527 42.991 17.554 1.4005 0.58557 2.8214 1.1416 4.2642 1.6582 2.6455 0.94714 5.3735 1.7385 8.1696 2.363-21.876-5.0019-39.079-22.33-54.001-22.614zm54.001 22.614c0.42539 0.0973 0.85094 0.19326 1.2799 0.28098-0.42972-0.0861-0.85382-0.1858-1.2799-0.28098zm1.2799 0.28098c0.56703 0.11365 1.1336 0.22797 1.7071 0.32501-0.57259-0.0983-1.1407-0.20919-1.7071-0.32501zm1.7071 0.32501c0.0854 0.0146 0.17048 0.0298 0.25598 0.0441-0.0856-0.0141-0.17055-0.0296-0.25598-0.0441zm0.25598 0.0441c0.72177 0.11872 1.4468 0.22842 2.1788 0.31901-0.73161-0.0906-1.4573-0.19874-2.1788-0.31901zm158.01-6.5142c0.80324 0.18253 1.6227 0.34545 2.4598 0.48696 0.84371 0.13947 1.697 0.26208 2.5663 0.35869-1.7291-0.19215-3.3943-0.49004-5.0261-0.84565z" fill="url(#linearGradient14655-4)"/>
 <path d="m385.67 67.052s-7.5893 1.3583-11.632 2.5516c-48.135 14.209-51.843 43.225-83.479 46.023-13.582 1.2012-52.686-12.547-74.436-9.5191-28.085 3.91-42.643 22.225-67.203 25.669-30.243 4.2408-61.481-15.031-95.581-8.2503-26.589 5.2869-37.242 33.092-56.596 54.454v1.29c16.314-16.328 29.503-48.918 56.596-55.048 33.039-7.4745 68.523 14.936 96.267 8.5432 29.908-6.8911 38.654-21.586 66.526-25.968 24.724-3.8868 58.515 12.583 74.589 10.616 29.481-3.6069 40.293-33.451 85.863-46.629 3.0647-0.88629 9.087-1.4147 9.087-1.4147z" fill="url(#linearGradient25349-5)"/>
</svg>
