<?xml version="1.0" encoding="UTF-8"?>
<!-- Created with Inkscape (http://www.inkscape.org/) -->
<svg width="1680" height="1050" version="1.1" viewBox="0 0 444.5 277.81" xmlns="http://www.w3.org/2000/svg" xmlns:xlink="http://www.w3.org/1999/xlink">
 <defs>
  <linearGradient id="linearGradient25627">
   <stop stop-color="#bda62c" offset="0"/>
   <stop stop-color="#ae9a28" stop-opacity=".98824" offset=".14669"/>
   <stop stop-color="#8c7b20" stop-opacity=".96863" offset=".30531"/>
   <stop stop-color="#bda62c" stop-opacity=".95686" offset=".51079"/>
   <stop stop-color="#82721e" stop-opacity=".94902" offset=".6231"/>
   <stop stop-color="#c0ab2c" stop-opacity=".99608" offset=".83541"/>
   <stop stop-color="#7f6f1e" stop-opacity=".92157" offset="1"/>
  </linearGradient>
  <linearGradient id="linearGradient25349-9" x1="-19.327" x2="365.1" y1="174.88" y2="71.87" gradientTransform="matrix(1.386 0 0 1.386 -68.038 -16.51)" gradientUnits="userSpaceOnUse" xlink:href="#linearGradient25627"/>
  <linearGradient id="linearGradient14655-7" x1="-46.183" x2="1721.9" y1="706.05" y2="445.69" gradientTransform="matrix(.36672 0 0 .36672 -68.038 -16.51)" gradientUnits="userSpaceOnUse">
   <stop stop-color="#bda62c" offset="0"/>
   <stop stop-color="#615516" stop-opacity=".98824" offset=".098576"/>
   <stop stop-color="#cab12f" stop-opacity=".97647" offset=".25339"/>
   <stop stop-color="#8c7b20" stop-opacity=".96863" offset=".33815"/>
   <stop stop-color="#87771f" stop-opacity=".96471" offset=".42151"/>
   <stop stop-color="#bda62c" stop-opacity=".95686" offset=".53339"/>
   <stop stop-color="#82721e" stop-opacity=".94902" offset=".6231"/>
   <stop stop-color="#80711e" stop-opacity=".93725" offset=".73471"/>
   <stop stop-color="#d7be31" stop-opacity=".92941" offset=".83541"/>
   <stop stop-color="#bda62c" stop-opacity=".92175" offset="1"/>
  </linearGradient>
  <linearGradient id="linearGradient4687-8-9" x1="1155.1" x2="93.584" y1="262.51" y2="615.88" gradientTransform="matrix(.44682 .047432 -.047432 .44682 -38.122 -38.666)" gradientUnits="userSpaceOnUse">
   <stop stop-color="#8b5cf6" offset="0"/>
   <stop stop-color="#6d28d9" offset=".21248"/>
   <stop stop-color="#6f5cf6" offset=".42964"/>
   <stop stop-color="#7c3aed" offset=".59961"/>
   <stop stop-color="#6376f6" offset=".80968"/>
   <stop stop-color="#6d28d9" offset="1"/>
  </linearGradient>
  <linearGradient id="linearGradient4479-5-2" x1="1143.2" x2="120.86" y1="196.75" y2="539.49" gradientTransform="matrix(.44682 .047432 -.047432 .44682 -38.122 -38.666)" gradientUnits="userSpaceOnUse">
   <stop stop-color="#8b5cf6" offset="0"/>
   <stop stop-color="#5151dc" offset=".25152"/>
   <stop stop-color="#3b82f6" offset=".4454"/>
   <stop stop-color="#8b69f6" offset=".63944"/>
   <stop stop-color="#60a5fa" offset=".83593"/>
   <stop stop-color="#60a5fa" offset="1"/>
  </linearGradient>
  <linearGradient id="linearGradient6948-4" x1="466.89" x2="1404.4" y1="475.5" y2="195.51" gradientTransform="matrix(.44933 0 0 .44933 -76.863 -55.067)" gradientUnits="userSpaceOnUse">
   <stop stop-color="#3e2fdd" offset="0"/>
   <stop stop-color="#a4007e" offset="1"/>
  </linearGradient>
  <linearGradient id="linearGradient12309-5-42" x1="1181.7" x2="861.39" y1="252.37" y2="436.6" gradientTransform="matrix(.44933 0 0 .44933 -76.863 -53.63)" gradientUnits="userSpaceOnUse">
   <stop stop-color="#7e5af0" offset="0"/>
   <stop stop-color="#7c61ee" offset=".49538"/>
   <stop stop-color="#4c6fe2" offset="1"/>
  </linearGradient>
  <linearGradient id="linearGradient4551-1-0" x1="1112.8" x2="89.147" y1="69.067" y2="487.89" gradientTransform="matrix(.44682 .047432 -.047432 .44682 -38.122 -38.666)" gradientUnits="userSpaceOnUse">
   <stop stop-color="#60a5fa" offset="0"/>
   <stop stop-color="#365fd8" offset=".23216"/>
   <stop stop-color="#3b82f6" offset=".43871"/>
   <stop stop-color="#4d4eeb" offset=".65563"/>
   <stop stop-color="#60a5fa" offset="1"/>
  </linearGradient>
  <linearGradient id="linearGradient24274-3" x1="132.11" x2="1068.3" y1="575.51" y2="320.25" gradientTransform="matrix(.44682 .047432 -.047432 .44682 -38.122 -38.666)" gradientUnits="userSpaceOnUse">
   <stop stop-color="#1c52f2" offset="0"/>
   <stop stop-color="#d62bc3" stop-opacity=".42363" offset="1"/>
  </linearGradient>
  <linearGradient id="linearGradient118139" x1="100.6" x2="345.1" y1="115.79" y2="-9.8374" gradientTransform="matrix(1.2228 0 0 1.2228 .68931 6.9381)" gradientUnits="userSpaceOnUse">
   <stop stop-color="#8b5cf6" offset="0"/>
   <stop stop-color="#5151dc" offset=".25152"/>
   <stop stop-color="#3b82f6" offset=".4454"/>
   <stop stop-color="#8b5cf6" offset=".63944"/>
   <stop stop-color="#60a5fa" offset=".83593"/>
   <stop stop-color="#60a5fa" offset="1"/>
  </linearGradient>
  <linearGradient id="linearGradient161031" x1="-12.42" x2="373.66" y1="169.75" y2="-5.834" gradientTransform="matrix(1.2228 0 0 1.2228 .68931 -.81506)" gradientUnits="userSpaceOnUse" xlink:href="#linearGradient25627"/>
 </defs>
 <rect width="444.5" height="277.81" fill="#2a2e32" stop-color="#000000" style="-inkscape-stroke:none;font-variation-settings:normal;paint-order:stroke fill markers"/>
 <path d="m448.32-13.896c-66.387 8.3482-61.624 94.457-122.68 104.3-40.588 2.2794-53.472-10.388-84.355-2.6127-36.786 9.2619-58.737 42.751-90.17 45.775-33.668 3.2388-71.959-13.682-108.47 3.7012-22.672 10.793-33.244 38.375-46.508 58.098v25.223c29.75-17.057 55.572-43.145 77.042-49.946 21.882-6.9314 44.353-2.8629 67.246-2.3095 20.162 0.48731 41.113-13.496 61.907-14.877 41.572-2.7602 86.503 7.906 127.25 1.2511 39.544-6.4591 67.585-38.451 104.85-47.893 4.5208-1.1454 9.1664-1.8096 13.894-2.1566z" fill="url(#linearGradient161031)"/>
 <path d="m121.41 164.43s34.472-5.6143 51.734-8.2541c24.765-3.7871 49.83-5.8206 74.366-10.88 24.525-5.0576 49.299-10.171 72.57-19.419 30.082-11.954 55.778-33.203 85.454-46.132 13.795-6.0098 42.754-14.487 42.754-14.487m-327.61 98.502s34.771-5.5435 52.146-8.379c24.761-4.0407 49.716-7.0686 74.252-12.304 24.575-5.2434 49.627-9.6868 72.924-19.104 29.89-12.082 55.023-33.919 84.314-47.389 14.19-6.5253 44.015-16.066 44.015-16.066m-328.39 102.57s35.071-5.4699 52.556-8.5023c24.763-4.2945 49.596-8.3122 74.139-13.724 24.625-5.4302 49.958-9.1997 73.278-18.793 29.697-12.216 54.244-34.66 83.145-48.655 14.575-7.0574 45.25-17.678 45.25-17.678m-329.1 106.68s35.372-5.3936 52.965-8.624c24.773-4.5486 49.469-9.5514 74.027-15.143 24.674-5.618 50.293-8.7062 73.633-18.485 29.536-12.375 53.485-35.49 82.025-50.014 14.987-7.6271 46.585-19.364 46.585-19.364m-329.97 110.96s35.674-5.315 53.373-8.7444c24.788-4.8031 49.336-10.786 73.916-16.559 24.723-5.8064 50.628-8.2148 73.987-18.181 29.34-12.519 52.652-36.268 80.794-51.287 15.346-8.1901 47.759-21.034 47.759-21.034m-330.56 115.14s35.978-5.2342 53.78-8.8634c24.811-5.0581 49.196-12.018 73.807-17.974 24.772-5.9954 50.968-7.7177 74.341-17.881 29.174-12.685 51.835-37.125 79.606-52.642 15.728-8.7883 49.021-22.769 49.021-22.769m-331.29 119.46s36.283-5.1513 54.186-8.9811c24.84-5.3137 49.05-13.245 73.698-19.387 24.82-6.1847 51.311-7.2177 74.695-17.583 29.018-12.862 51.005-38.016 78.414-54.024 16.107-9.4075 50.293-24.539 50.293-24.539m-332.02 123.84s36.589-5.0667 54.591-9.0977c24.875-5.57 48.898-14.469 73.591-20.798 24.868-6.3742 51.656-6.7152 75.049-17.288 28.872-13.049 50.163-38.937 77.217-55.427 16.483-10.046 51.572-26.339 51.572-26.339m-332.76 128.28s36.896-4.9805 54.995-9.2132c24.917-5.8272 48.74-15.689 73.484-22.208 24.915-6.5637 52.005-6.2105 75.404-16.996 28.734-13.244 49.307-39.882 76.015-56.845 16.851-10.703 52.853-28.163 52.853-28.163m-333.49 132.75s37.204-4.8929 55.397-9.3277c24.964-6.0853 48.575-16.907 73.379-23.617 24.962-6.753 52.356-5.704 75.758-16.705 28.608-13.448 48.439-40.851 74.811-58.278 17.214-11.376 54.141-30.006 54.141-30.006m-334.22 137.26s37.514-4.8042 55.799-9.4412c25.018-6.3445 48.404-18.122 73.274-25.025 25.009-6.9421 52.695-5.226 76.113-16.416 28.125-13.439 47.085-41.069 72.767-58.735 17.151-11.798 54.009-31.355 54.009-31.355l2.2707-1.5256m-334.97 141.83s37.824-4.7142 56.199-9.5537c25.078-6.6046 48.228-19.333 73.17-26.432 25.055-7.1307 53.065-4.686 76.467-16.13 28.385-13.881 46.663-42.853 72.393-61.193 17.919-12.773 56.732-33.761 56.732-33.761m-335.7 146.4s38.135-4.6237 56.599-9.6659c25.143-6.8664 48.045-20.544 73.067-27.84 25.101-7.3188 53.424-4.1758 76.823-15.843 28.287-14.105 45.76-43.868 71.184-62.649 18.258-13.487 58.028-35.638 58.028-35.638m-336.44 150.97s38.447-4.5328 56.996-9.7778c25.214-7.1297 47.856-21.754 72.964-29.248 25.147-7.5061 53.783-3.6654 77.179-15.556 28.198-14.331 44.847-44.882 69.977-64.09 18.585-14.206 59.318-37.499 59.318-37.499m-337.17 155.5s38.76-4.4416 57.393-9.8896c25.291-7.3947 47.661-22.963 72.862-30.658 25.194-7.6926 54.145-3.1551 77.537-15.267 28.116-14.558 43.926-45.893 68.773-65.516 18.901-14.927 60.605-39.341 60.605-39.341m-337.9 160s39.074-4.3504 57.788-10.001c25.373-7.6615 47.459-24.171 72.759-32.068 25.24-7.8781 54.507-2.6449 77.896-14.978 28.042-14.786 42.999-46.896 67.575-66.921 19.206-15.649 61.887-41.156 61.887-41.156m-338.64 164.45s39.388-4.2593 58.182-10.113c25.46-7.9303 47.25-25.38 72.656-33.481 25.287-8.0627 54.871-2.1353 78.257-14.686 27.974-15.013 42.066-47.886 66.382-68.298 19.498-16.368 63.161-42.938 63.161-42.938m-339.37 168.85s39.702-4.1685 58.574-10.225c25.552-8.2011 47.035-26.589 72.553-34.895 25.334-8.2461 55.235-1.6262 78.619-14.393 27.912-15.239 41.131-48.863 65.198-69.65 19.78-17.084 64.431-44.685 64.431-44.685m-340.11 173.18s40.017-4.0781 58.964-10.338c25.65-8.474 46.813-27.798 72.449-36.312 25.381-8.4283 55.601-1.1178 78.984-14.097 27.856-15.461 40.192-49.82 64.02-70.966 20.05-17.793 65.69-46.389 65.69-46.389m-340.84 177.43s40.332-3.9883 59.353-10.45c25.752-8.749 46.584-29.009 72.345-37.73 25.429-8.6094 55.966-0.61015 79.351-13.798 27.804-15.68 39.252-50.756 62.852-72.249 20.308-18.494 66.942-48.049 66.942-48.049m-341.58 181.61s40.647-3.8992 59.74-10.564c25.859-9.0263 46.348-30.22 72.24-39.152 25.478-8.7891 56.332-0.1032 79.72-13.497 27.755-15.895 38.311-51.668 61.693-73.492 20.554-19.186 68.184-49.659 68.184-49.659m-342.31 185.69s40.963-3.811 60.125-10.677c25.971-9.3059 46.106-31.432 72.135-40.576 25.528-8.9675 56.699 0.40294 80.092-13.192 27.711-16.104 37.372-52.553 60.544-74.695 20.79-19.866 69.416-51.218 69.416-51.218m-343.05 189.69s41.279-3.7237 60.509-10.791c26.087-9.5879 45.857-32.646 72.028-42.002 25.578-9.1445 57.065 0.90851 80.466-12.885 27.668-16.308 36.434-53.412 59.406-75.857 21.015-20.534 70.638-52.723 70.638-52.723m-343.78 193.59s41.594-3.6374 60.891-10.906c26.208-9.8722 45.601-33.861 71.921-43.432 25.63-9.3202 57.432 1.4135 80.844-12.573 27.628-16.506 35.499-54.241 58.279-76.975 21.23-21.188 71.848-54.173 71.848-54.173m-344.52 197.39s41.91-3.5523 61.271-11.021c26.333-10.159 45.339-35.077 71.812-44.864 25.682-9.4944 57.798 1.9181 81.223-12.259 27.589-16.696 34.568-55.04 57.162-78.048 21.435-21.828 73.047-55.566 73.047-55.566m-345.25 201.09s42.226-3.4685 61.649-11.137c26.463-10.448 45.069-36.295 71.703-46.299 25.736-9.6671 58.165 2.4224 81.606-11.94 27.551-16.88 33.641-55.808 56.058-79.078 21.631-22.454 74.236-56.902 74.236-56.902m-345.99 204.69s42.541-3.3859 62.025-11.254c26.596-10.74 44.793-37.515 71.592-47.738 25.791-9.8384 58.531 2.9267 81.992-11.618 27.512-17.057 32.718-56.545 54.964-80.061 21.818-23.064 75.411-58.18 75.411-58.18m-346.72 208.18s42.856-3.3048 62.399-11.371c26.734-11.034 44.51-38.736 71.48-49.179 25.847-10.008 58.898 3.4309 82.381-11.292 27.475-17.226 31.802-57.252 53.883-81.002 21.997-23.659 76.578-59.402 76.578-59.402m-347.46 211.58s43.171-3.2251 62.772-11.489c26.875-11.331 44.221-39.96 71.368-50.624 25.905-10.177 59.264 3.9354 82.773-10.963 27.437-17.388 30.89-57.927 52.813-81.897 22.168-24.238 77.731-60.566 77.731-60.566" fill="none" stroke="url(#linearGradient118139)" stroke-width=".11889px"/>
 <path d="m-1.7324 234.11c24.426-6.3135 50.601-43.501 77.376-47.501 31.591-4.72 57.315 22.342 90.057 22.967 54.232 1.035 80.212-54.339 146.51-16.187 28.872 16.613 78.034 2.0045 104.9-30.431m-419.11 70.588c24.173-6.4814 50.068-44.254 77.112-48.13 31.474-4.5836 57.683 22.214 90.754 22.533 53.506 0.84387 79.766-53.447 145.15-16.337 29.088 16.11 77.281 1.8327 104.52-29.693m-417.79 71.063c23.92-6.6493 49.536-45.007 76.849-48.759 31.357-4.4472 58.05 22.086 91.451 22.098 52.779 0.65274 79.321-52.555 143.78-16.486 29.304 15.606 76.528 1.6609 104.13-28.955m-416.47 71.537c23.666-6.8172 49.003-45.76 76.586-49.389 31.239-4.3108 58.417 21.957 92.148 21.664 52.052 0.46155 78.875-51.664 142.41-16.636 29.521 15.103 75.776 1.489 103.74-28.217m-415.15 72.012c23.413-6.9851 48.47-46.513 76.322-50.018 31.122-4.1744 58.784 21.829 92.845 21.23 51.326 0.27037 78.43-50.772 141.04-16.786 29.737 14.599 75.023 1.3171 103.35-27.479m-413.83 72.487c23.16-7.153 47.937-47.266 76.059-50.647 31.005-4.038 59.151 21.701 93.543 20.796 50.599 0.0791 77.985-49.88 139.68-16.935 29.953 14.096 74.271 1.1453 102.97-26.74m-412.51 72.962c22.907-7.3208 47.405-48.019 75.796-51.277 30.888-3.9017 59.519 21.573 94.24 20.362 49.873-0.11188 77.539-48.989 138.31-17.085 30.17 13.592 73.518 0.97347 102.58-26.002m-411.19 73.437c22.653-7.4888 46.872-48.772 75.532-51.906 30.771-3.7652 59.886 21.445 94.937 19.928 49.146-0.30303 77.094-48.097 136.94-17.234 30.386 13.089 72.765 0.80159 102.19-25.264m-409.86 73.912c22.4-7.6567 46.339-49.525 75.269-52.535 30.653-3.6288 60.253 21.317 95.634 19.494 48.419-0.49422 76.648-47.205 135.57-17.384 30.602 12.585 72.013 0.62975 101.8-24.526m-408.3 74.301c22.077-8.0452 45.671-50.202 74.765-53.078 30.536-3.4924 60.62 21.189 96.331 19.06 47.693-0.68542 76.203-46.314 134.21-17.534 30.818 12.081 71.26 0.45792 101.42-23.788m-406.72 74.671c21.748-8.4612 44.995-50.862 74.237-53.603 30.419-3.356 60.988 21.06 97.029 18.625 46.966-0.87651 75.758-45.422 132.84-17.683 31.035 11.578 70.507 0.28607 101.03-23.05m-405.13 75.032c21.419-8.8832 44.323-51.511 73.71-54.118 30.302-3.2196 61.355 20.932 97.726 18.191 46.239-1.0677 75.312-44.53 131.47-17.833 31.251 11.074 69.755 0.11433 100.64-22.312m-403.55 75.382c21.089-9.3115 43.657-52.148 73.181-54.622 30.184-3.0832 61.722 20.804 98.423 17.757 45.513-1.2589 74.867-43.639 130.1-17.983 31.467 10.571 69.002-0.0578 100.25-21.574m-401.96 75.721c20.76-9.7446 42.996-52.773 72.654-55.115 30.067-2.9468 62.089 20.676 99.12 17.323 44.786-1.45 74.422-42.747 128.74-18.132 31.684 10.067 68.249-0.2295 99.865-20.835m-400.37 76.047c20.431-10.183 42.34-53.386 72.126-55.596 29.95-2.8104 62.456 20.548 99.818 16.889 44.059-1.6411 73.976-41.855 127.37-18.282 31.9 9.5636 67.497-0.40126 99.478-20.097m-398.79 76.361c20.103-10.627 41.691-53.984 71.599-56.065 29.833-2.674 62.824 20.42 100.51 16.455 43.333-1.8323 73.531-40.964 126-18.432 32.116 9.06 66.744-0.57322 99.09-19.359m-397.2 76.662c19.775-11.076 41.047-54.569 71.071-56.52 29.716-2.5376 63.191 20.292 101.21 16.021 42.606-2.0235 73.085-40.072 124.63-18.581 32.332 8.5564 65.991-0.74505 98.703-18.621m-395.62 76.948c19.447-11.53 40.409-55.138 70.543-56.961 29.598-2.4012 63.558 20.163 101.91 15.586 41.88-2.2146 72.64-39.18 123.26-18.731 32.549 8.0528 65.239-0.91691 98.315-17.883m-394.03 77.22c19.12-11.989 39.777-55.692 70.016-57.386 29.481-2.2648 63.925 20.035 102.61 15.152 41.153-2.4057 72.195-38.289 121.9-18.881 32.765 7.5494 64.486-1.0887 97.928-17.145m-392.45 77.476c18.794-12.451 39.152-56.229 69.488-57.796 29.364-2.1284 64.293 19.907 103.3 14.718 40.426-2.5969 71.749-37.397 120.53-19.03 32.981 7.0457 63.733-1.2606 97.54-16.407m-390.86 77.715c18.469-12.918 38.534-56.748 68.96-58.19 29.247-1.992 64.66 19.779 104 14.284 39.7-2.7881 71.304-36.505 119.16-19.18 33.198 6.5422 62.981-1.4324 97.153-15.669m-389.28 77.936c18.144-13.387 37.922-57.248 68.432-58.566 29.129-1.8556 65.027 19.651 104.7 13.85 38.973-2.9792 70.858-35.613 117.79-19.33 33.414 6.0386 62.228-1.6043 96.765-14.93m-387.69 78.14c17.821-13.86 37.319-57.729 67.905-58.923 29.012-1.7192 65.394 19.523 105.4 13.416 38.246-3.1704 70.413-34.722 116.43-19.479 33.63 5.535 61.475-1.7762 96.378-14.192m-386.1 78.323c17.499-14.335 36.722-58.189 67.377-59.261 28.895-1.5828 65.762 19.394 106.09 12.982 37.52-3.3615 69.968-33.83 115.06-19.629 33.846 5.0315 60.723-1.948 95.99-13.454m-384.52 78.485c17.178-14.813 36.133-58.627 66.849-59.578 28.778-1.4464 66.129 19.266 106.79 12.548 36.793-3.5526 69.522-32.938 113.69-19.779 34.063 4.5279 59.97-2.1198 95.603-12.716m-382.93 78.626c16.859-15.291 35.553-59.042 66.322-59.873 28.661-1.31 66.496 19.138 107.49 12.113 36.066-3.7439 69.077-32.047 112.32-19.928 34.279 4.0243 59.218-2.2917 95.215-11.978m-381.35 78.745c16.542-15.77 34.981-59.433 65.794-60.146 28.543-1.1736 66.863 19.01 108.18 11.679 35.34-3.935 68.631-31.155 110.96-20.078 34.495 3.5208 58.465-2.4636 94.828-11.24m-379.76 78.837c16.226-16.249 34.418-59.797 65.266-60.393 28.426-1.0372 67.23 18.882 108.88 11.245 34.613-4.1261 68.186-30.263 109.59-20.227 34.712 3.0173 57.712-2.6354 94.44-10.502m-378.18 78.906c15.913-16.727 33.864-60.135 64.739-60.616 28.309-0.90078 67.598 18.754 109.58 10.811 33.886-4.3173 67.741-29.372 108.22-20.377 34.928 2.5137 56.96-2.8072 94.053-9.7635m-376.59 78.947c15.603-17.204 33.319-60.444 64.211-60.811 28.192-0.76439 67.965 18.626 110.28 10.377 33.16-4.5084 67.295-28.48 106.85-20.527 35.144 2.0101 56.207-2.9791 93.665-9.0253m-375.01 78.959c15.295-17.678 32.783-60.724 63.683-60.978 28.074-0.628 68.332 18.497 110.97 9.9427 32.433-4.6995 66.85-27.588 105.49-20.676 35.36 1.5066 55.454-3.1509 93.278-8.2872m-373.42 78.941c14.99-18.149 32.258-60.971 63.155-61.114 27.957-0.49156 68.699 18.369 111.67 9.5086 31.707-4.8907 66.405-26.697 104.12-20.826 35.577 1.003 54.702-3.3228 92.891-7.5491m-371.83 78.892c14.688-18.616 31.743-61.186 62.628-61.22 27.84-0.35516 69.067 18.241 112.37 9.0744 30.98-5.0819 65.959-25.805 102.75-20.976 35.793 0.49942 53.949-3.4946 92.503-6.8109m-370.25 78.81c14.389-19.076 31.239-61.365 62.1-61.292 27.723-0.21878 69.434 18.113 113.06 8.6403 30.253-5.273 65.514-24.913 101.38-21.125 36.009-1e-3 53.196-3.6665 92.116-6.0728m-368.66 78.694c14.094-19.53 30.746-61.509 61.572-61.33 27.605-0.0822 69.801 17.985 113.76 8.2061 29.527-5.4642 65.068-24.022 100.02-21.275 36.226-0.50771 52.444-3.8383 91.728-5.3346m-367.08 78.541c13.804-19.975 30.265-61.614 61.045-61.331 27.488 0.0541 70.168 17.857 114.46 7.772 28.8-5.6554 64.623-23.13 98.648-21.425 36.442-1.0113 51.691-4.0102 91.341-4.5966m-365.49 78.349c13.517-20.411 29.795-61.678 60.517-61.294 27.371 0.19047 70.535 17.729 115.16 7.3378 28.073-5.8465 64.178-22.238 97.28-21.574 36.658-1.5149 50.938-4.1821 90.953-3.8584m-363.91 78.121c13.236-20.834 29.338-61.704 59.991-61.22 27.254 0.32684 70.903 17.6 115.85 6.9037 27.347-6.0376 63.732-21.346 95.912-21.724 36.874-2.0184 50.186-4.3539 90.566-3.1203m-362.32 77.85c12.96-21.246 28.892-61.684 59.464-61.103 27.137 0.46324 71.27 17.472 116.55 6.4696 26.62-6.2288 63.287-20.455 94.545-21.874 37.091-2.522 49.433-4.5257 90.178-2.3821m-360.74 77.531c12.689-21.644 28.46-61.615 58.935-60.939 27.019 0.59965 71.637 17.344 117.25 6.0354 25.893-6.4199 62.841-19.563 93.177-22.023 37.307-3.0256 48.68-4.6976 89.791-1.644" fill="none" stop-color="#000000" stroke="url(#linearGradient24274-3)" stroke-width=".35666" style="font-variation-settings:normal"/>
 <path d="m448.32-11.713c-66.387 8.3482-61.624 93.02-122.68 102.86-40.588 2.2794-53.472-8.9041-84.355-1.1285-36.786 9.2619-58.737 41.267-90.17 44.291-33.668 3.2388-71.959-13.04-108.47 4.3435-22.672 10.793-33.244 38.281-46.508 58.004v26.867c29.75-17.057 55.572-43.145 77.042-49.946 21.882-6.9314 44.353-2.8629 67.246-2.3095 20.162 0.4873 41.113-13.496 61.907-14.877 41.572-2.7603 86.503 7.906 127.25 1.2511 39.544-6.4591 67.585-38.451 104.85-47.893 4.5208-1.1454 9.1664-1.8096 13.894-2.1566z" fill="url(#linearGradient4551-1-0)"/>
 <path d="m448.32 46.297c-41.333 5.4926-62.19 22.218-87.738 57.227-30.324 41.553-86.807 25.347-86.807 25.347l66.657 23.515 107.89-19.64z" fill="url(#linearGradient12309-5-42)"/>
 <path d="m130.99 152.58c9.8414 0.90549 35.312-0.48671 44.961-3.7798 49.069-23.886 67.408-51.059 123.35-34.826 62.725 18.201 84.339-67.238 149.1-76.697m-317.77 134.53s22.748-1.1235 54.605-3.0341c56.261-3.9638 73.519-2.9164 135.05 13.787 42.301 11.483 87.574-43.639 128.13-50.932m-317.77 39.516c0.33938 0.0312 23.181-1.1015 54.273-3.0598 55.988-4.7188 73.461-4.5889 134.65 12.11 42.717 11.659 87.93-43.556 128.86-51.298m-317.76 41.585c0.67875 0.0628 23.614-1.0796 53.94-3.0855 55.714-5.4719 73.398-6.2692 134.24 10.434 43.14 11.843 88.287-43.508 129.58-51.717m-317.75 43.705c1.0181 0.0935 24.047-1.0576 53.608-3.1112 55.392-6.2241 73.401-7.9372 133.84 8.7578 43.569 12.035 88.644-43.499 130.29-52.189m-317.73 45.879c1.3574 0.12488 24.481-1.0356 53.275-3.1369 55.132-6.9764 73.317-9.6361 133.43 7.0814 44.012 12.239 89.014-43.535 131.02-52.721m-317.72 48.114c1.6968 0.15619 24.914-1.0137 52.942-3.1626 54.883-7.7273 73.214-11.347 133.03 5.4051 44.468 12.454 89.394-43.622 131.75-53.315m-317.71 50.409c2.0361 0.1873 25.347-0.99171 52.61-3.1883 54.609-8.4585 73.083-13.074 132.63 3.7288 44.935 12.68 89.778-43.762 132.48-53.969m-317.71 52.766c2.3755 0.21859 25.78-0.96973 52.277-3.214 54.332-9.1969 72.989-14.798 132.22 2.0525 45.413 12.919 90.157-43.962 133.21-54.683m-317.69 55.182c2.7149 0.24981 26.214-0.9478 51.945-3.2397 54.054-9.931 72.885-16.519 131.82 0.37609 45.933 13.168 90.509-44.221 133.92-55.458m-317.67 57.658c3.0542 0.28099 26.647-0.92581 51.612-3.2654 53.778-10.66 72.775-18.256 131.42-1.3002 46.563 13.464 90.773-44.53 134.62-56.293m-317.64 60.195c3.3936 0.31225 27.08-0.90388 51.28-3.2912 53.502-11.385 72.661-20.011 131.01-2.9765 47.133 13.759 91.134-44.948 135.35-57.196m-317.63 62.8c3.733 0.34346 27.514-0.88194 50.947-3.3169 53.228-12.104 72.541-21.778 130.61-4.6528 47.725 14.074 91.491-45.457 136.07-58.156m-317.62 65.463c4.0723 0.37468 27.947-0.85996 50.615-3.3426 52.956-12.818 72.413-23.559 130.21-6.3292 48.345 14.413 91.852-46.07 136.8-59.173m-317.61 68.182c4.4117 0.40589 28.38-0.83801 50.282-3.3683 52.686-13.525 72.28-25.355 129.8-8.0054 48.991 14.776 92.218-46.797 137.52-60.241m-317.59 70.952c4.751 0.43713 28.813-0.81607 49.949-3.3941 52.419-14.227 72.139-27.166 129.4-9.6817 49.665 15.165 92.598-47.652 138.24-61.354m-317.58 73.767c5.0904 0.46837 29.247-0.79408 49.617-3.4197 52.156-14.922 71.993-28.995 129-11.358 50.364 15.582 93-48.646 138.96-62.503m-317.56 76.618c5.4298 0.49959 29.68-0.77214 49.284-3.4454 51.896-15.61 71.839-30.84 128.59-13.034 51.084 16.026 93.441-49.792 139.68-63.679m-317.55 79.496c5.7691 0.53081 30.113-0.75023 48.952-3.4712 51.641-16.292 71.703-32.777 128.19-14.711 51.213 16.379 94.14-51.156 140.4-64.867m-317.53 82.386c6.1084 0.56205 30.546-0.72824 48.619-3.4969 51.391-16.966 71.537-34.658 127.79-16.387 51.93 16.868 94.612-52.596 141.13-66.058m-317.53 85.279c6.4478 0.59323 30.98-0.70625 48.287-3.5226 51.146-17.633 71.361-36.549 127.38-18.063 52.674 17.381 95.117-54.178 141.86-67.233m-317.51 88.155c6.7872 0.62452 31.413-0.68431 47.954-3.5483 50.907-18.293 71.174-38.443 126.98-19.74 53.451 17.914 95.673-55.895 142.58-68.376m-317.5 91.001c7.1266 0.65572 31.846-0.66234 47.621-3.574 50.675-18.945 70.972-40.332 126.58-21.416 54.266 18.461 96.293-57.728 143.3-69.473m-317.49 93.8c7.4659 0.6869 32.279-0.64038 47.289-3.5998 50.449-19.59 70.746-42.19 126.17-23.092 54.763 18.869 96.188-59.183 142.99-70.281 0.35299-0.08033 0.70508-0.16012 1.0563-0.23882m-317.49 96.548c7.8053 0.71814 32.713-0.61842 46.956-3.6255 50.229-20.227 70.171-43.057 125.77-24.769 60.962 20.053 87.388-59.35 144.77-71.525m-317.49 99.256c8.1447 0.7494 33.146-0.59647 46.624-3.6512 50.017-20.856 69.766-44.469 125.37-26.445 61.293 19.869 86.954-60.763 145.5-72.488m-317.48 101.92c8.484 0.78058 33.579-0.5745 46.291-3.6769 49.812-21.478 69.339-45.852 124.96-28.121 61.625 19.644 86.453-62.134 146.22-73.408m-317.46 104.54c8.8234 0.81183 34.013-0.55259 45.959-3.7026 49.615-22.092 68.889-47.203 124.56-29.798 61.944 19.366 85.929-63.471 146.95-74.29m-317.45 107.13c9.1627 0.84308 34.446-0.53059 45.626-3.7283 49.425-22.698 68.417-48.523 124.16-31.474 62.231 19.036 85.389-64.766 147.66-75.129m-317.43 109.67c9.5021 0.87428 34.879-0.50859 45.293-3.754 49.243-23.296 67.923-49.806 123.75-33.15 62.496 18.645 84.866-66.028 148.4-75.933" fill="none" stroke="url(#linearGradient6948-4)" stroke-width=".11889px"/>
 <path d="m448.32 80.938c-4.5425 0.65759-9.3239 1.5199-14.527 2.6634-53.417 11.739-62.915 55.678-103.08 51.635-19.517-1.9646-62.199-13.995-81.381-10.394-32.683 6.1354-46.762 27.096-80.24 30.169-39.285 3.6062-64.154-15.988-103.1-10.156-32.726 4.8998-50.975 42.242-66.238 60.917-1.1664 1.4272-2.3756 2.7554-3.6194 4.0086v13.731c11.806-5.8203 21.817-11.694 27.477-15.371 81.269-69.163 68.641-11.468 131.1-15.466 21.119-1.352 74.51-41.732 95.728-46.145 43.821-9.1154 52.551 21.482 96.211 14.407 36.091-5.8483 68.126-26.165 101.67-38.696z" fill="url(#linearGradient4479-5-2)"/>
 <path d="m448.32 110.32c-0.69719 0.11494-1.3915 0.21435-2.0928 0.3507-26.051 5.0649-44.909 22.609-76.903 41.341-35.598 20.841-86.914-25.357-122.28-16.494-35.936 9.0046-51.813 39.96-87.458 44.951-36.061 5.0485-57.81-39.385-105.3-20.424-28.498 11.378-37.774 40.006-51.537 54.118-2.1812 2.2366-4.3812 4.2454-6.6126 6.0673v16.077c3.6356-1.5094 7.336-3.3182 11.119-5.4872 29.1-16.687 40.855-52.985 75.966-55.224 19.162-1.222 41.35 22.461 70.744 26.098 39.318 4.866 66.799-32.524 89.401-36.538 46.558-8.2685 63.012 25.843 97.617 29.689 45.23 5.0265 73.636-31.091 107.34-50.018z" fill="url(#linearGradient4687-8-9)"/>
 <path d="m448.33 117.24c-32.344 22.85-59.821 77.896-101.95 77.879 42.103 1.6911 69.61-32.145 101.95-50.274zm-185.92 26.933c-40.497 0.66622-63.039 55.702-104.44 57.874 37.172 1.9519 63.572-33.016 85.391-36.891 46.558-8.2685 63.012 25.843 97.617 29.689-32.442-3.6053-40.268-51.302-78.566-50.672zm-180.75 21.342c-34.537-0.41391-59.422 56.869-85.528 66.806v3.4204c3.5674-1.6037 7.1569-3.3772 10.727-5.3375 29.1-16.687 41.247-52.569 76.358-54.808 19.162-1.222 41.35 22.573 70.744 26.211-29.394-3.6378-40.547-35.911-72.301-36.291z" fill="#e9ebed" fill-opacity=".49133" opacity=".23994"/>
 <path d="m448.32 141.8c-31.299 18.897-59.648 52.062-99.677 53.267-0.75055 0.035-1.5041 0.0578-2.264 0.0575 1.3157 0.0529 2.6172 0.0712 3.905 0.0563 5.1505-0.0599 10.083-0.65093 14.834-1.6707 0.85205-0.18286 1.6913-0.39476 2.5319-0.6047 0.33142-0.0827 0.66865-0.15138 0.9984-0.23822 0-1.7e-4 0-3.3e-4 4e-3 -6.5e-4 0.5597-0.14744 1.1095-0.31938 1.6644-0.47833 0.60114-0.1722 1.2072-0.33287 1.8028-0.51814 1.1443-0.35598 2.278-0.73554 3.4026-1.1374 0-3.3e-4 0-9.7e-4 4e-3 -1e-3 1.1245-0.40178 2.2397-0.82557 3.3458-1.2701 0-3.2e-4 4e-3 -9.6e-4 4e-3 -1e-3 0.1285-0.0516 0.25395-0.10956 0.38227-0.16176 0.97677-0.39755 1.9496-0.80503 2.913-1.2334 1.0888-0.48416 2.1688-0.98702 3.2415-1.5077 0-6.5e-4 4e-3 -1e-3 4e-3 -2e-3 1.0128-0.49156 2.0183-1.0014 3.0178-1.5228 0.0603-0.0315 0.12179-0.0602 0.18199-0.0916 1.0574-0.55384 2.1074-1.1233 3.1512-1.7073 0-9.7e-4 4e-3 -1e-3 5e-3 -2e-3 1.0438-0.5841 2.0813-1.1827 3.1126-1.7939 0-9.7e-4 4e-3 -1e-3 5e-3 -2e-3 1.0312-0.61117 2.0567-1.2346 3.0766-1.8697 0-9.6e-4 4e-3 -2e-3 5e-3 -4e-3 1.0199-0.63518 2.034-1.2813 3.0438-1.9373 0-9.6e-4 4e-3 -2e-3 5e-3 -4e-3 2.0209-1.313 4.0228-2.665 6.0104-4.0428 0-1e-3 4e-3 -2e-3 5e-3 -4e-3 0.92523-0.64141 1.8386-1.3035 2.7582-1.955 1.0575-0.74927 2.1213-1.4892 3.1726-2.2482 3.9286-2.8363 7.8182-5.7275 11.708-8.5733 0-9.7e-4 4e-3 -1e-3 4e-3 -2e-3 0.12643-0.0926 0.25273-0.18248 0.37913-0.27488 1.8208-1.3307 3.6418-2.6532 5.467-3.9524 1.9478-1.3866 3.9001-2.7497 5.8619-4.0762v-6.5e-4c1.5846-1.0715 3.1815-2.0987 4.7808-3.1164 0.38392-0.24427 0.76263-0.50743 1.1475-0.74814 0.99343-0.62124 1.9903-1.2296 2.9913-1.8249 0.57966-0.34471 1.164-0.67456 1.7465-1.0098 0.42414-0.24402 0.84559-0.49614 1.2713-0.73486zm-189.3 20.118v6.5e-4c-39.39-1.022-56.275 41.205-101.05 40.132 37.172 1.9519 63.572-33.016 85.391-36.891 1.4146-0.25124 2.7992-0.45998 4.1596-0.63504 0.44955-0.0578 0.88187-0.0911 1.3257-0.14091 0.9019-0.10125 1.8047-0.2033 2.6836-0.27234 0.5106-0.0401 1.004-0.0571 1.507-0.0866 0.78689-0.0463 1.576-0.0957 2.3449-0.11689 0.52358-0.0144 1.0326-9e-3 1.5481-0.0122 0.73083-5e-3 1.4631-0.01 2.1781 6e-3 0.49786 0.011 0.98438 0.0407 1.4748 0.0632 0.71827 0.0328 1.4348 0.0668 2.1376 0.12069 0.46643 0.0358 0.92461 0.0834 1.3844 0.12826 0.7 0.0684 1.3968 0.1408 2.082 0.22938 0.44821 0.0581 0.88991 0.12514 1.332 0.19146 0.68712 0.10296 1.37 0.2119 2.0429 0.33425 0.40837 0.0744 0.81306 0.15388 1.2164 0.23507 0.69813 0.14036 1.3896 0.28928 2.0732 0.44926 0.36599 0.0858 0.73058 0.17365 1.0925 0.26477 0.7061 0.17758 1.4044 0.36527 2.0959 0.56237 0.32085 0.0915 0.64138 0.18309 0.95919 0.27865 0.7439 0.2234 1.479 0.45849 2.2072 0.70265 0.25049 0.0841 0.50195 0.16695 0.75067 0.25338 0.79506 0.27596 1.5803 0.56417 2.3582 0.86252 0.17283 0.0663 0.34734 0.13036 0.5194 0.19777 0.88584 0.34672 1.761 0.70749 2.6267 1.0799 0.056 0.0241 0.11274 0.0472 0.16871 0.0714 3.6928 1.5974 7.2036 3.4198 10.635 5.3267 0.30296 0.16853 0.60572 0.33626 0.90737 0.50613 5.6319 3.1692 11.057 6.5404 16.618 9.5862 0.18571 0.10173 0.37377 0.19849 0.55985 0.29951 6.5072 3.53 13.235 6.5741 20.785 8.2195-27.956-6.3525-40.325-31.018-76.118-31.947zm-174.15 12.473c-0.60514-0.0122-1.2071 9.7e-4 -1.8059 0.0391-35.111 2.2391-49.602 39.626-78.654 56.396-2.8082 1.621-5.5779 3.0143-8.2795 4.2399v1.2258c1.1276-0.47034 2.2561-0.94438 3.397-1.4742 0.91923-0.42974 1.8448-0.87333 2.7847-1.3478 0.35933-0.1809 0.71975-0.36642 1.0805-0.55354 1.2712-0.66046 2.5528-1.3456 3.8557-2.0928 29.1-16.687 40.856-52.985 75.966-55.224 14.372-0.91656 30.445 12.239 49.984 20.409 1.6283 0.68081 3.2803 1.3273 4.9577 1.9278 3.0758 1.1012 6.2475 2.0213 9.4984 2.7474-25.434-5.8155-45.435-25.963-62.785-26.292zm62.785 26.292c0.49458 0.1131 0.98934 0.22469 1.4881 0.32668-0.49961-0.10014-0.9927-0.21602-1.4881-0.32668zm1.4881 0.32668c0.65926 0.13214 1.318 0.26505 1.9847 0.37787-0.66572-0.11432-1.3263-0.2432-1.9847-0.37787zm1.9847 0.37787c0.0993 0.017 0.19821 0.0346 0.29762 0.0512-0.0995-0.0164-0.19829-0.0344-0.29762-0.0512zm0.29762 0.0512c0.83917 0.13802 1.6821 0.26557 2.5332 0.3709-0.85061-0.10528-1.6943-0.23107-2.5332-0.3709zm183.71-7.5737c0.93388 0.21221 1.8867 0.40164 2.8599 0.56616 0.98095 0.16215 1.973 0.30471 2.9837 0.41704-2.0103-0.22341-3.9464-0.56975-5.8436-0.9832z" fill="url(#linearGradient14655-7)"/>
 <path d="m448.32 79.139s-8.8237 1.5792-13.524 2.9667c-55.965 16.52-60.276 50.256-97.057 53.509-15.791 1.3966-61.255-14.588-86.543-11.067-32.653 4.546-49.58 25.84-78.133 29.844-35.162 4.9305-71.481-17.475-111.13-9.5922-30.914 6.1468-43.3 38.474-65.801 63.311v1.4998c18.968-18.983 34.302-56.875 65.801-64.001 38.412-8.6903 79.669 17.365 111.92 9.9328 34.772-8.012 44.941-25.097 77.346-30.192 28.746-4.519 68.033 14.63 86.722 12.343 34.276-4.1936 46.847-38.892 99.829-54.214 3.5632-1.0304 10.565-1.6448 10.565-1.6448z" fill="url(#linearGradient25349-9)"/>
</svg>
