<?xml version="1.0" encoding="UTF-8"?>
<!-- Created with Inkscape (http://www.inkscape.org/) -->
<svg width="1920" height="1200" version="1.1" viewBox="0 0 508 317.5" xmlns="http://www.w3.org/2000/svg" xmlns:xlink="http://www.w3.org/1999/xlink">
 <defs>
  <linearGradient id="linearGradient25627">
   <stop stop-color="#bda62c" offset="0"/>
   <stop stop-color="#ae9a28" stop-opacity=".98824" offset=".14669"/>
   <stop stop-color="#8c7b20" stop-opacity=".96863" offset=".30531"/>
   <stop stop-color="#bda62c" stop-opacity=".95686" offset=".51079"/>
   <stop stop-color="#82721e" stop-opacity=".94902" offset=".6231"/>
   <stop stop-color="#c0ab2c" stop-opacity=".99608" offset=".83541"/>
   <stop stop-color="#7f6f1e" stop-opacity=".92157" offset="1"/>
  </linearGradient>
  <linearGradient id="linearGradient25349-5" x1="-19.327" x2="365.1" y1="174.88" y2="71.87" gradientTransform="matrix(1.5774 0 0 1.5774 -74.89 -17.514)" gradientUnits="userSpaceOnUse" xlink:href="#linearGradient25627"/>
  <linearGradient id="linearGradient14655-9" x1="-46.183" x2="1721.9" y1="706.05" y2="445.69" gradientTransform="matrix(.41735 0 0 .41735 -74.89 -17.514)" gradientUnits="userSpaceOnUse">
   <stop stop-color="#bda62c" offset="0"/>
   <stop stop-color="#615516" stop-opacity=".98824" offset=".098576"/>
   <stop stop-color="#cab12f" stop-opacity=".97647" offset=".25339"/>
   <stop stop-color="#8c7b20" stop-opacity=".96863" offset=".33815"/>
   <stop stop-color="#87771f" stop-opacity=".96471" offset=".42151"/>
   <stop stop-color="#bda62c" stop-opacity=".95686" offset=".53339"/>
   <stop stop-color="#82721e" stop-opacity=".94902" offset=".6231"/>
   <stop stop-color="#80711e" stop-opacity=".93725" offset=".73471"/>
   <stop stop-color="#d7be31" stop-opacity=".92941" offset=".83541"/>
   <stop stop-color="#bda62c" stop-opacity=".92175" offset="1"/>
  </linearGradient>
  <linearGradient id="linearGradient4687-8-2" x1="1155.1" x2="93.584" y1="262.51" y2="615.88" gradientTransform="matrix(.50851 .05398 -.05398 .50851 -40.844 -42.729)" gradientUnits="userSpaceOnUse">
   <stop stop-color="#8b5cf6" offset="0"/>
   <stop stop-color="#6d28d9" offset=".21248"/>
   <stop stop-color="#6f5cf6" offset=".42964"/>
   <stop stop-color="#7c3aed" offset=".59961"/>
   <stop stop-color="#6376f6" offset=".80968"/>
   <stop stop-color="#6d28d9" offset="1"/>
  </linearGradient>
  <linearGradient id="linearGradient4479-5-10" x1="1143.2" x2="120.86" y1="196.75" y2="539.49" gradientTransform="matrix(.50851 .05398 -.05398 .50851 -40.844 -42.729)" gradientUnits="userSpaceOnUse">
   <stop stop-color="#8b5cf6" offset="0"/>
   <stop stop-color="#5151dc" offset=".25152"/>
   <stop stop-color="#3b82f6" offset=".4454"/>
   <stop stop-color="#8b69f6" offset=".63944"/>
   <stop stop-color="#60a5fa" offset=".83593"/>
   <stop stop-color="#60a5fa" offset="1"/>
  </linearGradient>
  <linearGradient id="linearGradient6948-5" x1="466.89" x2="1404.4" y1="475.5" y2="195.51" gradientTransform="matrix(.51137 0 0 .51137 -84.934 -61.394)" gradientUnits="userSpaceOnUse">
   <stop stop-color="#3e2fdd" offset="0"/>
   <stop stop-color="#a4007e" offset="1"/>
  </linearGradient>
  <linearGradient id="linearGradient12309-5-3" x1="1181.7" x2="861.39" y1="252.37" y2="436.6" gradientTransform="matrix(.51137 0 0 .51137 -84.934 -59.758)" gradientUnits="userSpaceOnUse">
   <stop stop-color="#7e5af0" offset="0"/>
   <stop stop-color="#7c61ee" offset=".49538"/>
   <stop stop-color="#4c6fe2" offset="1"/>
  </linearGradient>
  <linearGradient id="linearGradient4551-1-4" x1="1112.8" x2="89.147" y1="69.067" y2="487.89" gradientTransform="matrix(.50851 .05398 -.05398 .50851 -40.844 -42.729)" gradientUnits="userSpaceOnUse">
   <stop stop-color="#60a5fa" offset="0"/>
   <stop stop-color="#365fd8" offset=".23216"/>
   <stop stop-color="#3b82f6" offset=".43871"/>
   <stop stop-color="#4d4eeb" offset=".65563"/>
   <stop stop-color="#60a5fa" offset="1"/>
  </linearGradient>
  <linearGradient id="linearGradient24274-9" x1="132.11" x2="1068.3" y1="575.51" y2="320.25" gradientTransform="matrix(.50851 .05398 -.05398 .50851 -40.844 -42.729)" gradientUnits="userSpaceOnUse">
   <stop stop-color="#1c52f2" offset="0"/>
   <stop stop-color="#d62bc3" stop-opacity=".42363" offset="1"/>
  </linearGradient>
  <linearGradient id="linearGradient118139" x1="100.6" x2="345.1" y1="115.79" y2="-9.8374" gradientTransform="matrix(1.3916 0 0 1.3916 3.3256 9.1715)" gradientUnits="userSpaceOnUse">
   <stop stop-color="#8b5cf6" offset="0"/>
   <stop stop-color="#5151dc" offset=".25152"/>
   <stop stop-color="#3b82f6" offset=".4454"/>
   <stop stop-color="#8b5cf6" offset=".63944"/>
   <stop stop-color="#60a5fa" offset=".83593"/>
   <stop stop-color="#60a5fa" offset="1"/>
  </linearGradient>
  <linearGradient id="linearGradient161031" x1="-12.42" x2="373.66" y1="169.75" y2="-5.834" gradientTransform="matrix(1.3916 0 0 1.3916 3.3256 .34798)" gradientUnits="userSpaceOnUse" xlink:href="#linearGradient25627"/>
 </defs>
 <rect x="2.3624e-6" y="-3.5483e-6" width="508" height="317.5" fill="#1b1e20" stop-color="#000000" style="-inkscape-stroke:none;font-variation-settings:normal;paint-order:stroke fill markers"/>
 <path d="m512.75-14.539c-75.552 9.5007-70.132 107.5-139.62 118.7-46.191 2.5941-60.854-11.822-96.001-2.9733-41.865 10.54-66.846 48.653-102.62 52.094-38.316 3.6859-81.893-15.571-123.45 4.2122-25.802 12.283-37.833 43.673-52.929 66.119v28.705c33.857-19.411 63.244-49.101 87.678-56.841 24.903-7.8883 50.476-3.2581 76.529-2.6284 22.945 0.55458 46.789-15.36 70.454-16.931 47.311-3.1413 98.445 8.9974 144.81 1.4238 45.003-7.3508 76.915-43.759 119.33-54.504 5.145-1.3035 10.432-2.0594 15.813-2.4543z" fill="url(#linearGradient161031)"/>
 <path d="m140.71 188.4s39.231-6.3894 58.876-9.3936c28.184-4.3099 56.709-6.6241 84.632-12.383 27.911-5.7558 56.105-11.576 82.589-22.1 34.235-13.604 63.478-37.787 97.251-52.5 15.699-6.8395 48.656-16.487 48.656-16.487m-372.84 112.1s39.571-6.3088 59.345-9.5357c28.179-4.5985 56.58-8.0444 84.503-14.002 27.968-5.9672 56.478-11.024 82.992-21.741 34.017-13.75 62.619-38.602 95.954-53.931 16.149-7.4261 50.091-18.284 50.091-18.284m-373.72 116.73s39.912-6.225 59.811-9.676c28.182-4.8874 56.443-9.4597 84.374-15.619 28.025-6.1799 56.855-10.47 83.395-21.387 33.797-13.902 61.732-39.445 94.624-55.372 16.587-8.0317 51.497-20.119 51.497-20.119m-374.54 121.41s40.255-6.1382 60.277-9.8146c28.193-5.1766 56.298-10.87 84.247-17.233 28.081-6.3936 57.236-9.9081 83.798-21.037 33.613-14.083 60.868-40.389 93.349-56.918 17.056-8.68 53.017-22.037 53.017-22.037m-375.52 126.28s40.599-6.0488 60.741-9.9516c28.211-5.4662 56.147-12.276 84.121-18.845 28.136-6.608 57.618-9.3488 84.201-20.691 33.391-14.247 59.921-41.275 91.948-58.368 17.465-9.3208 54.352-23.937 54.352-23.937m-376.2 131.03s40.945-5.9568 61.205-10.087c28.236-5.7564 55.988-13.677 83.996-20.455 28.192-6.8231 58.004-8.7831 84.604-20.349 33.202-14.437 58.991-42.25 90.596-59.91 17.9-10.002 55.789-25.912 55.789-25.912m-377.03 135.95s41.292-5.8625 61.667-10.221c28.269-6.0472 55.822-15.073 83.872-22.063 28.247-7.0385 58.394-8.2141 85.007-20.01 33.024-14.638 58.047-43.264 89.239-61.482 18.331-10.706 57.236-27.927 57.236-27.927m-377.86 140.94s41.64-5.7662 62.127-10.354c28.309-6.3389 55.648-16.466 83.75-23.669 28.301-7.2542 58.788-7.6422 85.41-19.675 32.857-14.851 57.088-44.312 87.877-63.079 18.758-11.433 58.692-29.976 58.692-29.976m-378.69 145.99s41.99-5.6681 62.587-10.485c28.356-6.6316 55.468-17.855 83.629-25.274 28.355-7.4698 59.184-7.0679 85.814-19.342 32.701-15.073 56.114-45.388 86.509-64.693 19.178-12.18 60.15-32.051 60.15-32.051m-379.52 151.08s42.34-5.5684 63.045-10.615c28.411-6.9254 55.281-19.241 83.509-26.878 28.408-7.6853 59.583-6.4914 86.217-19.011 32.557-15.304 55.126-46.49 85.139-66.324 19.591-12.946 61.616-34.149 61.616-34.149m-380.36 156.21s42.693-5.4674 63.502-10.745c28.472-7.2204 55.087-20.624 83.39-28.48 28.461-7.9005 59.969-5.9474 86.621-18.682 32.008-15.295 53.585-46.738 82.812-66.843 19.519-13.427 61.465-35.684 61.465-35.684l2.5842-1.7362m-381.21 161.41s43.046-5.365 63.958-10.873c28.54-7.5164 54.886-22.003 83.272-30.081 28.514-8.1152 60.391-5.3329 87.024-18.357 32.303-15.797 53.105-48.769 82.387-69.641 20.393-14.537 64.564-38.422 64.564-38.422m-382.04 166.61s43.4-5.262 64.412-11c28.614-7.8143 54.678-23.38 83.155-31.683 28.566-8.3292 60.799-4.7523 87.428-18.03 32.193-16.052 52.077-49.924 81.012-71.298 20.779-15.349 66.039-40.558 66.039-40.558m-382.88 171.81s43.755-5.1586 64.865-11.128c28.695-8.1139 54.463-24.757 83.038-33.286 28.619-8.5423 61.208-4.1714 87.834-17.703 32.09-16.309 51.038-51.078 79.637-72.938 21.151-16.167 67.507-42.676 67.507-42.676m-383.72 176.97s44.111-5.0548 65.316-11.255c28.782-8.4155 54.24-26.133 82.921-34.89 28.672-8.7546 61.62-3.5906 88.241-17.375 31.997-16.568 49.99-52.228 78.268-74.56 21.51-16.988 68.971-44.772 68.971-44.772m-384.55 182.09s44.468-4.951 65.766-11.382c28.876-8.7192 54.01-27.508 82.804-36.496 28.724-8.9657 62.032-3.0101 88.65-17.045 31.913-16.828 48.935-53.37 76.904-76.159 21.858-17.809 70.431-46.837 70.431-46.837m-385.39 187.16s44.825-4.8473 66.214-11.509c28.975-9.0251 53.773-28.884 82.687-38.103 28.778-9.1758 62.446-2.4301 89.06-16.714 31.835-17.086 47.874-54.497 75.546-77.727 22.19-18.628 71.88-48.866 71.88-48.866m-386.22 192.16s45.183-4.744 66.66-11.637c29.08-9.3333 53.528-30.26 82.569-39.713 28.831-9.3845 62.861-1.8507 89.473-16.38 31.766-17.343 46.809-55.609 74.199-79.265 22.511-19.442 73.326-50.854 73.326-50.854m-387.06 197.08s45.541-4.6411 67.104-11.765c29.191-9.6438 53.275-31.636 82.451-41.325 28.885-9.5919 63.276-1.2721 89.888-16.043 31.701-17.596 45.74-56.698 72.858-80.764 22.818-20.249 74.759-52.793 74.759-52.793m-387.9 201.93s45.9-4.5389 67.547-11.893c29.307-9.9569 53.015-33.013 82.333-42.939 28.94-9.7979 63.693-0.6944 90.306-15.703 31.642-17.845 44.671-57.763 71.529-82.223 23.111-21.047 76.184-54.682 76.184-54.682m-388.73 206.68s46.259-4.4375 67.987-12.022c29.429-10.272 52.747-34.392 82.213-44.557 28.996-10.002 64.109-0.11745 90.726-15.36 31.587-18.089 43.6-58.801 70.21-83.638 23.392-21.834 77.597-56.515 77.597-56.515m-389.57 211.33s46.618-4.3371 68.426-12.151c29.556-10.591 52.471-35.771 82.093-46.177 29.052-10.206 64.526 0.45857 91.149-15.014 31.536-18.328 42.531-59.809 68.902-85.007 23.66-22.608 78.999-58.289 78.999-58.289m-390.41 215.88s46.977-4.2377 68.862-12.281c29.689-10.912 52.188-37.152 81.972-47.801 29.11-10.407 64.943 1.0339 91.575-14.663 31.488-18.559 41.464-60.785 67.607-86.329 23.916-23.368 80.389-60.002 80.389-60.002m-391.24 220.31s47.337-4.1396 69.297-12.412c29.826-11.235 51.897-38.535 81.85-49.428 29.168-10.607 65.36 1.6087 92.004-14.309 31.442-18.784 40.4-61.729 66.324-87.602 24.161-24.113 81.767-61.652 81.767-61.652m-392.08 224.64s47.696-4.0428 69.729-12.543c29.969-11.562 51.598-39.92 81.726-51.058 29.228-10.805 65.777 2.1829 92.437-13.951 31.397-19.001 39.34-62.638 65.053-88.823 24.394-24.842 83.131-63.237 83.131-63.237m-392.91 228.85s48.055-3.9473 70.16-12.675c30.116-11.891 51.291-41.306 81.602-52.691 29.289-11.002 66.195 2.7568 92.872-13.589 31.354-19.211 38.285-63.513 63.797-89.995 24.618-25.554 84.484-64.757 84.484-64.757m-393.75 232.94s48.414-3.8534 70.588-12.807c30.268-12.223 50.977-42.694 81.476-54.328 29.351-11.197 66.612 3.3307 93.311-13.222 31.311-19.411 37.235-64.351 62.551-91.114 24.83-26.248 85.821-66.212 85.821-66.212m-394.58 236.92s48.773-3.761 71.014-12.941c30.425-12.558 50.655-44.084 81.349-55.969 29.415-11.39 67.029 3.9046 93.754-12.851 31.268-19.604 36.192-65.156 61.322-92.184 25.034-26.925 87.15-67.602 87.15-67.602m-395.43 240.78s49.131-3.6703 71.438-13.075c30.586-12.895 50.326-45.476 81.22-57.613 29.481-11.581 67.446 4.4787 94.2-12.476 31.225-19.789 35.155-65.924 60.104-93.203 25.229-27.585 88.463-68.928 88.463-68.928" fill="none" stroke="url(#linearGradient118139)" stroke-width=".1353px"/>
 <path d="m0.56951 267.7c27.799-7.1851 57.587-49.506 88.058-54.059 35.952-5.3716 65.228 25.426 102.49 26.137 61.719 1.1779 91.285-61.84 166.74-18.422 32.858 18.907 88.807 2.2813 119.38-34.632m-476.97 80.332c27.51-7.3762 56.98-50.363 87.758-54.775 35.819-5.2164 65.646 25.28 103.28 25.643 60.892 0.96037 90.778-60.826 165.18-18.592 33.104 18.334 87.95 2.0857 118.94-33.792m-475.47 80.873c27.222-7.5673 56.374-51.22 87.458-55.491 35.686-5.0612 66.064 25.135 104.08 25.149 60.065 0.74286 90.271-59.811 163.63-18.762 33.35 17.761 87.093 1.8902 118.5-32.952m-473.97 81.413c26.934-7.7584 55.768-52.077 87.159-56.207 35.552-4.9059 66.482 24.989 104.87 24.655 59.239 0.52527 89.764-58.796 162.07-18.932 33.596 17.188 86.237 1.6945 118.06-32.112m-472.46 81.954c26.645-7.9494 55.162-52.934 86.859-56.923 35.419-4.7507 66.9 24.843 105.66 24.161 58.412 0.30769 89.258-57.781 160.52-19.103 33.842 16.615 85.38 1.4989 117.62-31.272m-470.96 82.494c26.357-8.1405 54.555-53.791 86.559-57.639 35.285-4.5954 67.318 24.697 106.46 23.667 57.585 0.09 88.751-56.767 158.96-19.273 34.088 16.042 84.524 1.3034 117.18-30.432m-469.46 83.035c26.069-8.3315 53.949-54.648 86.26-58.355 35.152-4.4403 67.735 24.551 107.25 23.173 56.758-0.12733 88.244-55.752 157.4-19.443 34.335 15.469 83.667 1.1079 116.74-29.592m-467.95 83.575c25.781-8.5226 53.343-55.505 85.96-59.072 35.019-4.285 68.153 24.405 108.04 22.679 55.931-0.34487 87.737-54.737 155.85-19.614 34.581 14.895 82.811 0.91225 116.3-28.752m-466.45 84.116c25.492-8.7137 52.736-56.362 85.66-59.788 34.885-4.1298 68.571 24.26 108.84 22.185 55.104-0.56246 87.23-53.722 154.29-19.784 34.827 14.322 81.954 0.71669 115.86-27.912m-464.67 84.558c25.125-9.1558 51.976-57.133 85.087-60.406 34.752-3.9746 68.989 24.114 109.63 21.691 54.277-0.78004 86.723-52.707 152.73-19.954 35.073 13.749 81.098 0.52114 115.42-27.072m-462.87 84.98c24.75-9.6293 51.207-57.884 84.486-61.003 34.618-3.8193 69.407 23.968 110.42 21.197 53.45-0.99752 86.216-51.693 151.18-20.125 35.319 13.176 80.241 0.32556 114.97-26.232m-461.06 85.391c24.376-10.11 50.442-58.622 83.886-61.589 34.485-3.6641 69.825 23.822 111.22 20.703 52.623-1.2151 85.709-50.678 149.62-20.295 35.565 12.603 79.385 0.13011 114.53-25.392m-459.26 85.789c24.001-10.597 49.684-59.347 83.284-62.163 34.351-3.5088 70.243 23.676 112.01 20.209 51.796-1.4326 85.203-49.663 148.06-20.465 35.811 12.03 78.528-0.0658 114.09-24.552m-457.45 86.174c23.626-11.09 48.932-60.059 82.684-62.724 34.218-3.3536 70.661 23.53 112.8 19.715 50.969-1.6501 84.696-48.648 146.51-20.636 36.058 11.457 77.671-0.26118 113.65-23.712m-455.65 86.546c23.252-11.589 48.186-60.756 82.084-63.272 34.085-3.1984 71.079 23.384 113.6 19.22 50.142-1.8676 84.189-47.633 144.95-20.806 36.304 10.884 76.815-0.45666 113.21-22.872m-453.84 86.903c22.878-12.095 47.446-61.437 81.483-63.805 33.951-3.0432 71.497 23.239 114.39 18.726 49.315-2.0852 83.682-46.619 143.39-20.976 36.55 10.311 75.958-0.65235 112.77-22.032m-452.04 87.245c22.505-12.606 46.713-62.102 80.883-64.322 33.818-2.8879 71.915 23.093 115.18 18.232 48.488-2.3028 83.175-45.604 141.84-21.147 36.796 9.7377 75.102-0.84791 112.33-21.192m-450.23 87.571c22.132-13.122 45.987-62.75 80.282-64.824 33.684-2.7327 72.333 22.947 115.98 17.738 47.661-2.5203 82.668-44.589 140.28-21.317 37.042 9.1646 74.245-1.0435 111.89-20.352m-448.43 87.88c21.76-13.644 45.269-63.38 79.682-65.309 33.551-2.5775 72.751 22.801 116.77 17.244 46.834-2.7379 82.161-43.574 138.73-21.487 37.288 8.5916 73.389-1.239 111.45-19.512m-446.63 88.171c21.389-14.17 44.557-63.991 79.081-65.775 33.418-2.4223 73.168 22.655 117.57 16.75 46.007-2.9554 81.654-42.56 137.17-21.657 37.535 8.0184 72.532-1.4346 111.01-18.672m-444.82 88.444c21.018-14.701 43.854-64.582 78.48-66.223 33.284-2.267 73.586 22.509 118.36 16.256 45.18-3.173 81.148-41.545 135.61-21.828 37.781 7.4453 71.675-1.6302 110.57-17.832m-443.02 88.696c20.649-15.236 43.158-65.151 77.88-66.651 33.151-2.1118 74.004 22.364 119.15 15.762 44.353-3.3905 80.641-40.53 134.06-21.998 38.027 6.8722 70.819-1.8258 110.12-16.992m-441.21 88.927c20.281-15.773 42.471-65.699 77.279-67.058 33.017-1.9565 74.422 22.218 119.95 15.268 43.526-3.6081 80.134-39.515 132.5-22.168 38.273 6.2991 69.962-2.0214 109.68-16.152m-439.41 89.136c19.915-16.314 41.792-66.222 76.679-67.442 32.884-1.8013 74.84 22.072 120.74 14.774 42.699-3.8256 79.627-38.5 130.94-22.339 38.519 5.7261 69.106-2.2169 109.24-15.312m-437.6 89.32c19.55-16.857 41.122-66.72 76.078-67.803 32.751-1.646 75.258 21.926 121.53 14.28 41.872-4.0431 79.12-37.486 129.39-22.509 38.765 5.153 68.249-2.4125 108.8-14.472m-435.8 89.481c19.187-17.402 40.461-67.193 75.478-68.139 32.617-1.4908 75.676 21.78 122.33 13.786 41.045-4.2607 78.613-36.471 127.83-22.679 39.011 4.5799 67.393-2.6081 108.36-13.631m-433.99 89.616c18.826-17.947 39.811-67.638 74.877-68.449 32.484-1.3356 76.094 21.634 123.12 13.292 40.219-4.4782 78.106-35.456 126.27-22.85 39.258 4.0069 66.536-2.8037 107.92-12.791m-432.19 89.721c18.467-18.493 39.169-68.052 74.276-68.73 32.35-1.1804 76.512 21.489 123.91 12.798 39.392-4.6958 77.599-34.441 124.72-23.02 39.504 3.4338 65.68-2.9992 107.48-11.951m-430.39 89.799c18.11-19.037 38.539-68.437 73.676-68.984 32.217-1.0251 76.93 21.343 124.71 12.303 38.565-4.9133 77.093-33.427 123.16-23.19 39.75 2.8607 64.823-3.1948 107.04-11.111m-428.58 89.846c17.757-19.579 37.918-68.789 73.075-69.206 32.084-0.86992 77.348 21.197 125.5 11.809 37.738-5.1308 76.586-32.412 121.6-23.361 39.996 2.2876 63.966-3.3904 106.6-10.271m-426.78 89.86c17.406-20.119 37.309-69.107 72.475-69.396 31.95-0.71469 77.766 21.051 126.29 11.315 36.911-5.3483 76.079-31.397 120.05-23.531 40.242 1.7146 63.11-3.5859 106.16-9.4312m-424.97 89.84c17.059-20.655 36.711-69.388 71.874-69.552 31.817-0.55943 78.184 20.905 127.09 10.821 36.084-5.5659 75.572-30.382 118.49-23.701 40.488 1.1414 62.253-3.7815 105.71-8.5913m-423.17 89.784c16.715-21.186 36.126-69.633 71.274-69.671 31.683-0.40419 78.601 20.759 127.88 10.327 35.257-5.7835 75.065-29.367 116.94-23.872 40.734 0.56837 61.397-3.9771 105.27-7.7512m-421.36 89.69c16.376-21.71 35.552-69.837 70.673-69.754 31.55-0.24899 79.019 20.614 128.67 9.8331 34.43-6.001 74.558-28.353 115.38-24.042 40.981-1e-3 60.54-4.1726 104.83-6.9112m-419.56 89.558c16.04-22.226 34.991-70 70.073-69.797 31.416-0.0935 79.437 20.468 129.47 9.339 33.603-6.2185 74.051-27.338 113.82-24.212 41.227-0.57781 59.684-4.3682 104.39-6.0711m-417.75 89.384c15.709-22.732 34.443-70.12 69.472-69.798 31.283 0.0615 79.855 20.322 130.26 8.845 32.776-6.4361 73.545-26.323 112.27-24.382 41.473-1.1509 58.827-4.5638 103.95-5.2311m-415.95 89.165c15.384-23.228 33.908-70.193 68.871-69.756 31.15 0.21677 80.273 20.176 131.05 8.3509 31.949-6.6537 73.038-25.308 110.71-24.553 41.719-1.724 57.971-4.7594 103.51-4.3911m-414.15 88.906c15.064-23.71 33.388-70.222 68.273-69.672 31.016 0.37196 80.691 20.03 131.85 7.8568 31.122-6.8712 72.531-24.293 109.15-24.723 41.965-2.2971 57.114-4.955 103.07-3.5511m-412.34 88.597c14.749-24.179 32.881-70.2 67.674-69.539 30.883 0.5272 81.109 19.884 132.64 7.3628 30.295-7.0887 72.024-23.279 107.6-24.893 42.211-2.8702 56.258-5.1505 102.63-2.711m-410.54 88.235c14.44-24.632 32.389-70.121 67.071-69.352 30.749 0.68244 81.527 19.738 133.43 6.8687 29.468-7.3062 71.517-22.264 106.04-25.064 42.457-3.4432 55.401-5.3461 102.19-1.871" fill="none" stop-color="#000000" stroke="url(#linearGradient24274-9)" stroke-width=".40589" style="font-variation-settings:normal"/>
 <path d="m512.75-12.055c-75.552 9.5007-70.132 105.86-139.62 117.06-46.191 2.5941-60.854-10.133-96.001-1.2843-41.865 10.54-66.846 46.964-102.62 50.405-38.316 3.6859-81.893-14.84-123.45 4.9432-25.802 12.283-37.833 43.566-52.929 66.012v30.577c33.857-19.411 63.244-49.101 87.678-56.841 24.903-7.8883 50.476-3.2581 76.529-2.6284 22.945 0.55458 46.789-15.36 70.454-16.931 47.311-3.1413 98.445 8.9974 144.81 1.4238 45.003-7.3508 76.915-43.759 119.33-54.504 5.145-1.3035 10.432-2.0594 15.813-2.4543z" fill="url(#linearGradient4551-1-4)"/>
 <path d="m512.75 53.964c-47.04 6.2509-70.775 25.285-99.85 65.127-34.51 47.29-98.791 28.847-98.791 28.847l75.859 26.762 122.78-22.352z" fill="url(#linearGradient12309-5-3)"/>
 <path d="m151.62 174.92c11.2 1.0305 40.187-0.5539 51.168-4.3016 55.843-27.184 76.714-58.108 140.38-39.634 71.385 20.714 95.982-76.52 169.69-87.285m-361.64 153.11s25.888-1.2786 62.144-3.453c64.028-4.5111 83.669-3.319 153.69 15.69 48.141 13.069 99.663-49.664 145.82-57.963m-361.64 44.972c0.38623 0.0355 26.381-1.2536 61.765-3.4822 63.717-5.3703 83.603-5.2224 153.23 13.782 48.614 13.269 100.07-49.569 146.65-58.38m-361.63 47.325c0.77244 0.0715 26.874-1.2286 61.387-3.5114 63.405-6.2273 83.53-7.1347 152.77 11.874 49.095 13.478 100.47-49.514 147.47-58.856m-361.61 49.739c1.1586 0.10645 27.367-1.2036 61.008-3.5407 63.039-7.0834 83.534-9.0329 152.31 9.9668 49.584 13.697 100.88-49.504 148.28-59.394m-361.59 52.213c1.5448 0.14212 27.86-1.1786 60.63-3.57 62.743-7.9396 83.438-10.966 151.86 8.059 50.088 13.928 101.3-49.545 149.11-60m-361.58 54.756c1.9311 0.17776 28.353-1.1537 60.251-3.5992 62.459-8.7941 83.322-12.914 151.4 6.1513 50.607 14.173 101.74-49.644 149.94-60.675m-361.57 57.369c2.3172 0.21316 28.847-1.1286 59.873-3.6285 62.148-9.6263 83.172-14.879 150.94 4.2436 51.139 14.431 102.17-49.804 150.77-61.42m-361.57 60.05c2.7034 0.24877 29.34-1.1036 59.494-3.6577 61.832-10.467 83.065-16.841 150.48 2.3358 51.682 14.702 102.6-50.031 151.59-62.233m-361.55 62.8c3.0897 0.2843 29.833-1.0786 59.116-3.687 61.517-11.302 82.947-18.8 150.02 0.42802 52.275 14.985 103-50.326 152.41-63.114m-361.53 65.618c3.4759 0.31979 30.326-1.0536 58.737-3.7162 61.202-12.132 82.822-20.777 149.56-1.4797 52.992 15.322 103.3-50.678 153.21-64.064m-361.49 68.506c3.8621 0.35536 30.819-1.0287 58.359-3.7455 60.888-12.957 82.693-22.773 149.1-3.3874 53.639 15.658 103.72-51.153 154.04-65.092m-361.48 71.47c4.2483 0.39088 31.312-1.0037 57.981-3.7748 60.576-13.775 82.555-24.784 148.64-5.2952 54.314 16.017 104.12-51.733 154.86-66.185m-361.47 74.5c4.6345 0.42641 31.805-0.97868 57.602-3.8041 60.267-14.587 82.41-26.811 148.18-7.2029 55.019 16.402 104.53-52.43 155.68-67.342m-361.45 77.594c5.0207 0.46193 32.298-0.95369 57.224-3.8333 59.96-15.393 82.258-28.855 147.72-9.1106 55.755 16.816 104.95-53.257 156.5-68.558m-361.44 80.747c5.4069 0.49747 32.791-0.92873 56.845-3.8626 59.656-16.191 82.099-30.917 147.26-11.018 56.521 17.259 105.38-54.23 157.32-69.824m-361.42 83.951c5.7931 0.53302 33.284-0.90371 56.467-3.8918 59.356-16.982 81.932-32.998 146.81-12.926 57.316 17.733 105.84-55.362 158.15-71.132m-361.4 87.195c6.1794 0.56855 33.777-0.87874 56.088-3.9211 59.061-17.765 81.757-35.097 146.35-14.834 58.137 18.239 106.34-56.665 158.97-72.47m-361.39 90.47c6.5656 0.6041 34.27-0.85379 55.71-3.9504 58.77-18.541 81.602-37.302 145.89-16.742 58.283 18.64 107.14-58.219 159.79-73.822m-361.37 93.759c6.9518 0.63965 34.763-0.82877 55.331-3.9796 58.486-19.308 81.413-39.443 145.43-18.649 59.099 19.197 107.67-59.857 160.62-75.178m-361.36 97.052c7.338 0.67513 35.257-0.80376 54.953-4.0089 58.207-20.067 81.213-41.595 144.97-20.557 59.946 19.781 108.25-61.658 161.44-76.514m-361.35 100.33c7.7242 0.71074 35.75-0.77877 54.574-4.0381 57.935-20.818 81-43.751 144.51-22.465 60.83 20.388 108.88-63.612 162.26-77.816m-361.33 103.56c8.1104 0.74626 36.243-0.75377 54.196-4.0674 57.67-21.56 80.77-45.9 144.05-24.372 61.758 21.01 109.59-65.697 163.09-79.064m-361.32 106.75c8.4966 0.78173 36.736-0.72879 53.817-4.0967 57.413-22.294 80.513-48.014 143.59-26.28 62.324 21.474 109.47-67.353 162.73-79.983 0.40172-0.09143 0.80242-0.18222 1.2022-0.27179m-361.33 109.88c8.8828 0.81728 37.229-0.7038 53.439-4.126 57.164-23.019 79.858-49.001 143.13-28.188 69.378 22.821 99.452-67.543 164.76-81.4m-361.32 112.96c9.2691 0.85286 37.722-0.6788 53.06-4.1552 56.922-23.735 79.397-50.608 142.67-30.096 69.755 22.612 98.959-69.151 165.58-82.495m-361.3 115.99c9.6552 0.88834 38.215-0.65382 52.682-4.1845 56.689-24.443 78.912-52.182 142.21-32.003 70.133 22.356 98.388-70.712 166.4-83.542m-361.28 118.98c10.041 0.9239 38.708-0.62888 52.303-4.2137 56.465-25.141 78.399-53.719 141.76-33.911 70.495 22.04 97.792-72.234 167.24-84.546m-361.28 121.92c10.428 0.95947 39.201-0.60385 51.925-4.243 56.249-25.831 77.863-55.222 141.3-35.819 70.823 21.663 97.177-73.708 168.04-85.5m-361.25 124.81c10.814 0.99497 39.694-0.5788 51.546-4.2722 56.042-26.512 77.3-56.682 140.84-37.727 71.124 21.219 96.582-75.143 168.88-86.416" fill="none" stroke="url(#linearGradient6948-5)" stroke-width=".1353px"/>
 <path d="m512.75 93.387c-5.1696 0.74837-10.611 1.7297-16.532 3.0311-60.791 13.36-71.6 63.365-117.31 58.764-22.211-2.2358-70.786-15.928-92.616-11.829-37.195 6.9824-53.218 30.837-91.318 34.334-44.708 4.104-73.011-18.195-117.34-11.558-37.244 5.5762-58.013 48.074-75.382 69.327-1.3274 1.6242-2.7036 3.1358-4.1191 4.5621v15.626c13.436-6.6238 24.829-13.309 31.271-17.493 92.489-78.712 78.118-13.051 149.2-17.602 24.034-1.5387 84.797-47.493 108.94-52.516 49.871-10.374 59.806 24.447 109.49 16.396 41.073-6.6556 77.531-29.777 115.71-44.038z" fill="url(#linearGradient4479-5-10)"/>
 <path d="m512.75 126.83c-0.79345 0.1308-1.5836 0.24394-2.3817 0.39911-29.648 5.7641-51.108 25.73-87.52 47.048-40.513 23.718-98.913-28.858-139.17-18.771-40.897 10.248-58.966 45.477-99.532 51.156-41.039 5.7455-65.791-44.822-119.84-23.244-32.432 12.949-42.988 45.529-58.651 61.59-2.4823 2.5453-4.9861 4.8315-7.5255 6.9049v18.296c4.1375-1.7178 8.3487-3.7763 12.653-6.2448 33.118-18.99 46.495-60.3 86.453-62.848 21.808-1.3908 47.058 25.561 80.51 29.701 44.746 5.5378 76.021-37.014 101.74-41.582 52.986-9.41 71.711 29.411 111.09 33.787 51.474 5.7204 83.802-35.383 122.16-56.923z" fill="url(#linearGradient4687-8-2)"/>
 <path d="m512.76 134.7c-36.809 26.004-68.079 88.65-116.03 88.63 47.915 1.9245 79.22-36.582 116.03-57.214zm-211.58 30.651c-46.088 0.75819-71.742 63.392-118.86 65.864 42.304 2.2214 72.349-37.574 97.18-41.984 52.986-9.41 71.711 29.411 111.09 33.787-36.921-4.103-45.827-58.385-89.413-57.668zm-205.71 24.289c-39.305-0.47105-67.625 64.72-97.335 76.029v3.8926c4.0599-1.8251 8.145-3.8435 12.208-6.0743 33.118-18.99 46.942-59.827 86.9-62.375 21.808-1.3908 47.058 25.689 80.51 29.829-33.452-4.14-46.144-40.868-82.282-41.301z" fill="#e9ebed" fill-opacity=".49133" opacity=".23994"/>
 <path d="m512.75 162.65c-35.619 21.506-67.882 59.25-113.44 60.62-0.85416 0.0398-1.7117 0.0658-2.5766 0.0654 1.4974 0.0603 2.9785 0.081 4.4441 0.064 5.8615-0.0682 11.475-0.74079 16.882-1.9013 0.96969-0.20811 1.9248-0.44927 2.8815-0.68819 0.37717-0.0941 0.76096-0.17227 1.1362-0.2711 0-2e-4 0-3.8e-4 4e-3 -7.4e-4 0.63696-0.16779 1.2627-0.36347 1.8941-0.54436 0.68412-0.19598 1.3738-0.37883 2.0516-0.58968 1.3022-0.40513 2.5925-0.83708 3.8724-1.2944 0-3.8e-4 0-1e-3 4e-3 -1e-3 1.2797-0.45726 2.5489-0.93955 3.8077-1.4454 0-3.6e-4 4e-3 -1e-3 4e-3 -1e-3 0.14624-0.0587 0.28902-0.12469 0.43505-0.18409 1.1116-0.45244 2.2187-0.91617 3.3151-1.4037 1.2391-0.55101 2.4682-1.1233 3.689-1.7158 0-7.4e-4 4e-3 -1e-3 4e-3 -3e-3 1.1526-0.55942 2.297-1.1397 3.4345-1.733 0.0686-0.0359 0.1386-0.0685 0.20711-0.10423 1.2034-0.63031 2.3983-1.2784 3.5862-1.943 0-1e-3 4e-3 -1e-3 6e-3 -3e-3 1.1879-0.66473 2.3687-1.346 3.5424-2.0416 0-1e-3 4e-3 -1e-3 6e-3 -3e-3 1.1736-0.69555 2.3406-1.405 3.5014-2.1279 0-1e-3 4e-3 -3e-3 6e-3 -4e-3 1.1607-0.72288 2.3148-1.4582 3.464-2.2048 0-1e-3 4e-3 -3e-3 6e-3 -4e-3 2.2999-1.4943 4.5782-3.0328 6.8402-4.6009 0-1e-3 4e-3 -3e-3 6e-3 -4e-3 1.053-0.72996 2.0924-1.4835 3.1389-2.2249 1.2035-0.85271 2.4142-1.6948 3.6106-2.5586 4.4709-3.2278 8.8976-6.5182 13.324-9.7569 0-1e-3 4e-3 -1e-3 4e-3 -3e-3 0.14389-0.10535 0.28762-0.20768 0.43147-0.31283 2.0722-1.5144 4.1446-3.0195 6.2217-4.498 2.2167-1.578 4.4385-3.1292 6.6712-4.639v-7.3e-4c1.8033-1.2194 3.6207-2.3885 5.4408-3.5467 0.43692-0.27799 0.86792-0.57748 1.3059-0.85143 1.1306-0.70699 2.265-1.3993 3.4043-2.0768 0.65969-0.39229 1.3247-0.76768 1.9876-1.1491 0.48269-0.27771 0.96232-0.56464 1.4468-0.83631zm-215.44 22.896v7.4e-4c-44.828-1.1631-64.043 46.893-115 45.673 42.304 2.2214 72.349-37.574 97.18-41.984 1.6099-0.28593 3.1857-0.52348 4.7339-0.72271 0.5116-0.0658 1.0036-0.10367 1.5087-0.16036 1.0264-0.11523 2.0538-0.23137 3.0541-0.30993 0.58109-0.0456 1.1426-0.065 1.7151-0.0985 0.89552-0.0527 1.7935-0.10896 2.6686-0.13303 0.59585-0.0164 1.1752-0.01 1.7618-0.0139 0.83173-6e-3 1.665-0.0111 2.4788 7e-3 0.56658 0.0125 1.1203 0.0463 1.6784 0.0719 0.81744 0.0373 1.6329 0.076 2.4328 0.13734 0.53083 0.0408 1.0523 0.0949 1.5756 0.14598 0.79665 0.0778 1.5896 0.16024 2.3695 0.26104 0.51009 0.0661 1.0128 0.14241 1.5159 0.21789 0.78198 0.11717 1.5591 0.24116 2.3249 0.3804 0.46474 0.0846 0.92531 0.17512 1.3843 0.26752 0.79451 0.15973 1.5814 0.32921 2.3594 0.51128 0.41651 0.0977 0.83143 0.19762 1.2434 0.30132 0.80358 0.2021 1.5983 0.4157 2.3853 0.64001 0.36515 0.10409 0.72993 0.20837 1.0916 0.31712 0.8466 0.25424 1.6832 0.52178 2.5119 0.79965 0.28508 0.0957 0.57125 0.19001 0.85431 0.28836 0.90482 0.31406 1.7985 0.64206 2.6837 0.9816 0.1967 0.0754 0.3953 0.14835 0.59111 0.22507 1.0081 0.39459 2.0041 0.80516 2.9893 1.229 0.0637 0.0274 0.12831 0.0537 0.19201 0.0813 4.2026 1.8179 8.1981 3.892 12.103 6.0621 0.34479 0.1918 0.68934 0.38268 1.0326 0.57601 6.4094 3.6067 12.583 7.4433 18.912 10.91 0.21135 0.11577 0.42537 0.22589 0.63714 0.34086 7.4055 4.0173 15.062 7.4817 23.654 9.3542-31.815-7.2295-45.892-35.301-86.626-36.358zm-198.19 14.195c-0.68867-0.0139-1.3737 1e-3 -2.0552 0.0445-39.958 2.5482-56.45 45.096-89.513 64.181-3.1959 1.8448-6.3479 3.4305-9.4225 4.8252v1.3951c1.2833-0.53528 2.5676-1.0748 3.8659-1.6777 1.0461-0.48907 2.0995-0.9939 3.1691-1.5339 0.40894-0.20587 0.81912-0.41699 1.2297-0.62995 1.4467-0.75164 2.9052-1.5314 4.388-2.3817 33.118-18.99 46.496-60.3 86.454-62.848 16.356-1.0431 34.648 13.929 56.885 23.227 1.853 0.7748 3.7332 1.5106 5.6422 2.194 3.5004 1.2532 7.11 2.3003 10.81 3.1267-28.945-6.6183-51.707-29.547-71.452-29.922zm71.452 29.922c0.56286 0.12872 1.1259 0.25572 1.6935 0.37179-0.56858-0.11397-1.1297-0.24585-1.6935-0.37179zm1.6935 0.37179c0.75028 0.15037 1.5 0.30163 2.2587 0.43003-0.75762-0.13011-1.5094-0.27678-2.2587-0.43003zm2.2587 0.43003c0.113 0.0193 0.22558 0.0394 0.33871 0.0583-0.11327-0.0187-0.22567-0.0391-0.33871-0.0583zm0.33871 0.0583c0.95502 0.15708 1.9143 0.30223 2.8829 0.4221-0.96804-0.11981-1.9282-0.26296-2.8829-0.4221zm209.07-8.6193c1.0628 0.2415 2.1471 0.45709 3.2547 0.64432 1.1164 0.18454 2.2454 0.34678 3.3957 0.47461-2.2878-0.25426-4.4912-0.6484-6.6504-1.1189z" fill="url(#linearGradient14655-9)"/>
 <path d="m512.75 91.34s-10.042 1.7972-15.391 3.3762c-63.691 18.8-68.597 57.194-110.46 60.896-17.971 1.5894-69.712-16.602-98.491-12.595-37.161 5.1736-56.424 29.407-88.92 33.964-40.016 5.6112-81.349-19.888-126.47-10.916-35.182 6.9954-49.278 43.786-74.885 72.051v1.7068c21.586-21.604 39.037-64.727 74.885-72.837 43.715-9.89 90.667 19.762 127.38 11.304 39.573-9.1181 51.146-28.562 88.024-34.36 32.714-5.1429 77.425 16.649 98.694 14.047 39.008-4.7726 53.314-44.261 113.61-61.698 4.0551-1.1727 12.024-1.8718 12.024-1.8718z" fill="url(#linearGradient25349-5)"/>
</svg>
