<?xml version="1.0" encoding="UTF-8"?>
<!-- Created with Inkscape (http://www.inkscape.org/) -->
<svg width="2560" height="1600" version="1.1" viewBox="0 0 677.33 423.33" xmlns="http://www.w3.org/2000/svg" xmlns:xlink="http://www.w3.org/1999/xlink">
 <defs>
  <linearGradient id="linearGradient25627">
   <stop stop-color="#bda62c" offset="0"/>
   <stop stop-color="#ae9a28" stop-opacity=".98824" offset=".14669"/>
   <stop stop-color="#8c7b20" stop-opacity=".96863" offset=".30531"/>
   <stop stop-color="#bda62c" stop-opacity=".95686" offset=".51079"/>
   <stop stop-color="#82721e" stop-opacity=".94902" offset=".6231"/>
   <stop stop-color="#c0ab2c" stop-opacity=".99608" offset=".83541"/>
   <stop stop-color="#7f6f1e" stop-opacity=".92157" offset="1"/>
  </linearGradient>
  <linearGradient id="linearGradient25349-4" x1="-19.327" x2="365.1" y1="174.88" y2="71.87" gradientTransform="matrix(2.1826 0 0 2.1826 -111.25 -36.517)" gradientUnits="userSpaceOnUse" xlink:href="#linearGradient25627"/>
  <linearGradient id="linearGradient14655-0" x1="-46.183" x2="1721.9" y1="706.05" y2="445.69" gradientTransform="matrix(.57748 0 0 .57748 -111.25 -36.517)" gradientUnits="userSpaceOnUse">
   <stop stop-color="#bda62c" offset="0"/>
   <stop stop-color="#615516" stop-opacity=".98824" offset=".098576"/>
   <stop stop-color="#cab12f" stop-opacity=".97647" offset=".25339"/>
   <stop stop-color="#8c7b20" stop-opacity=".96863" offset=".33815"/>
   <stop stop-color="#87771f" stop-opacity=".96471" offset=".42151"/>
   <stop stop-color="#bda62c" stop-opacity=".95686" offset=".53339"/>
   <stop stop-color="#82721e" stop-opacity=".94902" offset=".6231"/>
   <stop stop-color="#80711e" stop-opacity=".93725" offset=".73471"/>
   <stop stop-color="#d7be31" stop-opacity=".92941" offset=".83541"/>
   <stop stop-color="#bda62c" stop-opacity=".92175" offset="1"/>
  </linearGradient>
  <linearGradient id="linearGradient4687-8-9" x1="1155.1" x2="93.584" y1="262.51" y2="615.88" gradientTransform="matrix(.70362 .074691 -.074691 .70362 -64.144 -71.407)" gradientUnits="userSpaceOnUse">
   <stop stop-color="#8b5cf6" offset="0"/>
   <stop stop-color="#6d28d9" offset=".21248"/>
   <stop stop-color="#6f5cf6" offset=".42964"/>
   <stop stop-color="#7c3aed" offset=".59961"/>
   <stop stop-color="#6376f6" offset=".80968"/>
   <stop stop-color="#6d28d9" offset="1"/>
  </linearGradient>
  <linearGradient id="linearGradient4479-5-16" x1="1143.2" x2="120.86" y1="196.75" y2="539.49" gradientTransform="matrix(.70362 .074691 -.074691 .70362 -64.144 -71.407)" gradientUnits="userSpaceOnUse">
   <stop stop-color="#8b5cf6" offset="0"/>
   <stop stop-color="#5151dc" offset=".25152"/>
   <stop stop-color="#3b82f6" offset=".4454"/>
   <stop stop-color="#8b69f6" offset=".63944"/>
   <stop stop-color="#60a5fa" offset=".83593"/>
   <stop stop-color="#60a5fa" offset="1"/>
  </linearGradient>
  <linearGradient id="linearGradient6948-3" x1="466.89" x2="1404.4" y1="475.5" y2="195.51" gradientTransform="matrix(.70757 0 0 .70757 -125.15 -97.234)" gradientUnits="userSpaceOnUse">
   <stop stop-color="#3e2fdd" offset="0"/>
   <stop stop-color="#a4007e" offset="1"/>
  </linearGradient>
  <linearGradient id="linearGradient12309-5-7" x1="1181.7" x2="861.39" y1="252.37" y2="436.6" gradientTransform="matrix(.70757 0 0 .70757 -125.15 -94.971)" gradientUnits="userSpaceOnUse">
   <stop stop-color="#7e5af0" offset="0"/>
   <stop stop-color="#7c61ee" offset=".49538"/>
   <stop stop-color="#4c6fe2" offset="1"/>
  </linearGradient>
  <linearGradient id="linearGradient4551-1-1" x1="1112.8" x2="89.147" y1="69.067" y2="487.89" gradientTransform="matrix(.70362 .074691 -.074691 .70362 -64.144 -71.407)" gradientUnits="userSpaceOnUse">
   <stop stop-color="#60a5fa" offset="0"/>
   <stop stop-color="#365fd8" offset=".23216"/>
   <stop stop-color="#3b82f6" offset=".43871"/>
   <stop stop-color="#4d4eeb" offset=".65563"/>
   <stop stop-color="#60a5fa" offset="1"/>
  </linearGradient>
  <linearGradient id="linearGradient24274-8" x1="132.11" x2="1068.3" y1="575.51" y2="320.25" gradientTransform="matrix(.70362 .074691 -.074691 .70362 -64.144 -71.407)" gradientUnits="userSpaceOnUse">
   <stop stop-color="#1c52f2" offset="0"/>
   <stop stop-color="#d62bc3" stop-opacity=".42363" offset="1"/>
  </linearGradient>
  <linearGradient id="linearGradient118139" x1="100.6" x2="345.1" y1="115.79" y2="-9.8374" gradientTransform="matrix(1.9255 0 0 1.9255 -3.0262 .40677)" gradientUnits="userSpaceOnUse">
   <stop stop-color="#8b5cf6" offset="0"/>
   <stop stop-color="#5151dc" offset=".25152"/>
   <stop stop-color="#3b82f6" offset=".4454"/>
   <stop stop-color="#8b5cf6" offset=".63944"/>
   <stop stop-color="#60a5fa" offset=".83593"/>
   <stop stop-color="#60a5fa" offset="1"/>
  </linearGradient>
  <linearGradient id="linearGradient161031" x1="-12.42" x2="373.66" y1="169.75" y2="-5.834" gradientTransform="matrix(1.9255 0 0 1.9255 -3.0262 -11.802)" gradientUnits="userSpaceOnUse" xlink:href="#linearGradient25627"/>
 </defs>
 <rect width="677.33" height="423.33" fill="#2a2e32" stop-color="#000000" style="-inkscape-stroke:none;font-variation-settings:normal;paint-order:stroke fill markers"/>
 <path d="m701.86-32.401c-104.54 13.146-97.04 148.74-193.19 164.24-63.914 3.5894-84.203-16.358-132.84-4.1142-57.928 14.585-92.495 67.321-141.99 72.083-53.017 5.1002-113.31-21.545-170.82 5.8284-35.701 16.996-52.35 60.43-73.237 91.488v39.719c46.848-26.859 87.511-67.941 121.32-78.65 34.458-10.915 69.843-4.5082 105.89-3.6368 31.749 0.76737 64.742-21.253 97.486-23.427 65.464-4.3466 136.22 12.45 200.38 1.9702 62.271-10.171 106.43-60.549 165.11-75.417 7.1191-1.8036 14.435-2.8495 21.88-3.396z" fill="url(#linearGradient161031)"/>
 <path d="m187.07 248.41s54.284-8.8409 81.467-12.998c38.997-5.9635 78.468-9.1658 117.11-17.134 38.62-7.9642 77.632-16.017 114.28-30.579 47.371-18.824 87.834-52.285 134.57-72.644 21.723-9.4638 67.325-22.813 67.325-22.813m-515.9 155.11s54.754-8.7294 82.115-13.194c38.991-6.363 78.289-11.131 116.93-19.375 38.699-8.2568 78.149-15.254 114.83-30.083 47.069-19.026 86.646-53.414 132.77-74.624 22.345-10.275 69.311-25.299 69.311-25.299m-517.11 161.52s55.226-8.6135 82.761-13.389c38.995-6.7626 78.099-13.089 116.75-21.612 38.777-8.5511 78.669-14.487 115.39-29.593 46.765-19.237 85.418-54.58 130.93-76.618 22.951-11.113 71.256-27.838 71.256-27.838m-518.24 167.99s55.7-8.4934 83.405-13.58c39.01-7.1628 77.9-15.041 116.57-23.846 38.855-8.8467 79.197-13.71 115.95-29.109 46.51-19.487 84.223-55.886 129.17-78.757 23.601-12.01 73.359-30.492 73.359-30.492m-519.61 174.73s56.177-8.3696 84.048-13.77c39.035-7.5635 77.69-16.986 116.4-26.076 38.932-9.1435 79.725-12.936 116.51-28.63 46.203-19.713 82.912-57.112 127.23-80.763 24.166-12.897 75.207-33.122 75.207-33.122m-520.55 181.31s56.655-8.2423 84.688-13.957c39.07-7.965 77.47-18.924 116.22-28.304 39.009-9.441 80.26-12.153 117.07-28.157 45.941-19.976 81.625-58.461 125.36-82.897 24.768-13.839 77.195-35.854 77.195-35.854m-521.69 188.11s57.135-8.1118 85.328-14.143c39.116-8.3675 77.24-20.857 116.05-30.529 39.084-9.7391 80.8-11.366 117.62-27.688 45.695-20.255 80.319-59.864 123.48-85.072 25.365-14.814 79.197-38.642 79.197-38.642m-522.84 195.02s57.617-7.9786 85.965-14.326c39.171-8.7711 77-22.784 115.88-32.751 39.16-10.038 81.344-10.575 118.18-27.224 45.465-20.549 78.993-61.315 121.6-87.281 25.955-15.82 81.211-41.477 81.211-41.477m-524 202s58.101-7.8429 86.601-14.508c39.236-9.1761 76.751-24.706 115.72-34.971 39.234-10.336 81.892-9.7798 118.74-26.763 45.248-20.856 77.644-62.803 119.7-89.515 26.536-16.854 83.229-44.349 83.229-44.349m-525.15 209.05s58.586-7.705 87.235-14.688c39.312-9.5826 76.492-26.624 115.55-37.19 39.308-10.634 82.445-8.9822 119.3-26.305 45.049-21.176 76.277-64.328 117.81-91.772 27.108-17.913 85.257-47.251 85.257-47.251m-526.3 216.15s59.073-7.5652 87.867-14.867c39.396-9.9908 76.223-28.537 115.39-39.408 39.382-10.932 82.979-8.2294 119.86-25.851 44.289-21.163 74.145-64.671 114.59-92.49 27.008-18.578 85.049-49.376 85.049-49.376l3.5757-2.4024m-527.48 223.34s59.562-7.4235 88.498-15.044c39.49-10.4 75.946-30.445 115.22-41.623 39.454-11.229 83.563-7.3791 120.41-25.4 44.698-21.858 73.482-67.481 114-96.362 28.218-20.114 89.336-53.165 89.336-53.165m-528.63 230.54s60.052-7.281 89.127-15.221c39.593-10.813 75.658-32.351 115.06-43.84 39.527-11.525 84.127-6.5757 120.97-24.948 44.545-22.211 72.059-69.079 112.1-98.654 28.751-21.239 91.378-56.12 91.378-56.12m-529.79 237.73s60.544-7.1379 89.753-15.397c39.705-11.227 75.36-34.256 114.9-46.058 39.6-11.82 84.694-5.772 121.54-24.496 44.403-22.567 70.621-70.676 110.19-100.92 29.266-22.37 93.409-59.051 93.409-59.051m-530.95 244.87s61.036-6.9943 90.378-15.573c39.826-11.645 75.052-36.16 114.74-48.277 39.673-12.114 85.263-4.9684 122.1-24.042 44.275-22.925 69.171-72.268 108.3-103.17 29.764-23.506 95.435-61.95 95.435-61.95m-532.1 251.95s61.53-6.8507 91-15.749c39.955-12.065 74.734-38.063 114.57-50.499 39.746-12.406 85.834-4.165 122.66-23.586 44.158-23.284 67.711-73.848 106.41-105.38 30.244-24.642 97.455-64.809 97.455-64.809m-533.26 258.97s62.024-6.7072 91.619-15.926c40.092-12.488 74.405-39.966 114.41-52.723 39.819-12.696 86.406-3.3625 123.23-23.127 44.05-23.641 66.242-75.407 104.53-107.55 30.705-25.775 99.46-67.615 99.46-67.615m-534.42 265.89s62.519-6.5642 92.237-16.102c40.238-12.914 74.066-41.87 114.25-54.95 39.893-12.985 86.98-2.5608 123.8-22.664 43.954-23.997 64.769-76.945 102.67-109.68 31.148-26.902 101.46-70.366 101.46-70.366m-535.58 272.7s63.015-6.4219 92.852-16.279c40.391-13.344 73.717-43.775 114.09-57.181 39.968-13.272 87.555-1.7602 124.38-22.199 43.864-24.347 63.29-78.452 100.81-111.75 31.572-28.019 103.44-73.05 103.44-73.05m-536.73 279.4s63.511-6.2804 93.464-16.457c40.552-13.777 73.356-45.68 113.92-59.415 40.044-13.557 88.131-0.96082 124.96-21.729 43.783-24.692 61.81-79.926 98.974-113.77 31.979-29.123 105.42-75.663 105.42-75.663m-537.89 285.98s64.008-6.1401 94.073-16.635c40.721-14.214 72.986-47.588 113.76-61.653 40.121-13.84 88.707-0.16252 125.54-21.254 43.707-25.03 60.33-81.362 97.149-115.73 32.367-30.212 107.37-78.199 107.37-78.199m-539.05 292.41s64.505-6.0012 94.68-16.814c40.897-14.654 72.604-49.497 113.59-63.895 40.199-14.121 89.284 0.63451 126.12-20.774 43.636-25.36 58.85-82.757 95.34-117.62 32.738-31.283 109.31-80.654 109.31-80.654m-540.2 298.71s65.002-5.8637 95.284-16.993c41.08-15.098 72.212-51.408 113.42-66.141 40.279-14.4 89.861 1.4306 126.71-20.29 43.569-25.681 57.374-84.108 93.547-119.45 33.093-32.335 111.23-83.025 111.23-83.025m-541.36 304.85s65.499-5.7279 95.885-17.174c41.27-15.546 71.809-53.321 113.26-68.392 40.36-14.677 90.438 2.2259 127.31-19.8 43.506-25.992 55.901-85.414 91.772-121.21 33.431-33.365 113.14-85.307 113.14-85.307m-542.52 310.83s65.996-5.5939 96.484-17.356c41.467-15.998 71.396-55.236 113.08-70.648 40.442-14.951 91.016 3.0204 127.9-19.304 43.444-26.292 54.434-86.672 90.014-122.9 33.754-34.373 115.03-87.501 115.03-87.501m-543.67 316.66s66.493-5.4619 97.079-17.538c41.671-16.453 70.971-57.155 112.91-72.908 40.527-15.223 91.593 3.8146 128.51-18.802 43.384-26.581 52.975-87.882 88.275-124.52 34.063-35.358 116.9-89.604 116.9-89.604m-544.83 322.32s66.99-5.3319 97.672-17.722c41.882-16.912 70.536-59.075 112.74-75.174 40.613-15.493 92.17 4.6087 129.11-18.295 43.324-26.859 51.522-89.042 86.552-126.07 34.357-36.319 118.75-91.617 118.75-91.617m-545.98 327.83s67.487-5.2041 98.261-17.906c42.098-17.376 70.091-60.999 112.56-77.444 40.702-15.76 92.747 5.4027 129.73-17.782 43.266-27.126 50.079-90.156 84.851-127.55 34.64-37.256 120.59-93.541 120.59-93.541m-547.15 333.17s67.982-5.0786 98.848-18.092c42.321-17.843 69.635-62.925 112.38-79.718 40.793-16.025 93.324 6.1972 130.34-17.263 43.206-27.381 48.644-91.219 83.165-128.96 34.909-38.169 122.4-95.375 122.4-95.375" fill="none" stroke="url(#linearGradient118139)" stroke-width=".18721px"/>
 <path d="m-6.8397 358.13c38.465-9.9419 79.682-68.501 121.84-74.8 49.747-7.4326 90.255 35.182 141.81 36.166 85.401 1.6299 126.31-85.568 230.72-25.49 45.465 26.162 122.88 3.1566 165.19-47.92m-659.98 111.16c38.066-10.206 78.843-69.687 121.43-75.791 49.562-7.2179 90.834 34.98 142.91 35.482 84.256 1.3288 125.61-84.164 228.56-25.725 45.806 25.369 121.7 2.886 164.58-46.758m-657.9 111.9c37.667-10.471 78.004-70.873 121.02-76.782 49.378-7.0032 91.412 34.779 144.01 34.799 83.112 1.0279 124.91-82.76 226.41-25.961 46.146 24.576 120.51 2.6154 163.97-45.596m-655.82 112.65c37.268-10.735 77.165-72.059 120.6-77.773 49.193-6.7883 91.99 34.577 145.11 34.115 81.968 0.72682 124.21-81.356 224.26-26.197 46.487 23.783 119.33 2.3447 163.36-44.433m-653.74 113.4c36.869-11 76.327-73.244 120.19-78.764 49.009-6.5735 92.568 34.375 146.21 33.432 80.824 0.42574 123.5-79.952 222.1-26.432 46.827 22.99 118.14 2.0741 162.75-43.271m-651.66 114.15c36.47-11.264 75.488-74.43 119.77-79.755 48.824-6.3587 93.147 34.173 147.3 32.748 79.679 0.12458 122.8-78.547 219.95-26.668 47.168 22.197 116.96 1.8035 162.14-42.109m-649.58 114.89c36.071-11.528 74.649-75.616 119.36-80.746 48.64-6.144 93.725 33.971 148.4 32.064 78.535-0.17618 122.1-77.143 217.8-26.904 47.508 21.404 115.77 1.533 161.53-40.946m-647.5 115.64c35.672-11.793 73.81-76.802 118.94-81.737 48.455-5.9291 94.303 33.77 149.5 31.381 77.391-0.4772 121.4-75.739 215.64-27.139 47.849 20.611 114.58 1.2623 160.92-39.784m-645.42 116.39c35.274-12.057 72.971-77.988 118.53-82.728 48.27-5.7143 94.882 33.568 150.6 30.697 76.247-0.77826 120.7-74.335 213.49-27.375 48.19 19.818 113.4 0.99167 160.31-38.622m-642.96 117c34.766-12.669 71.919-79.054 117.73-83.583 48.086-5.4996 95.46 33.366 151.69 30.013 75.102-1.0793 120-72.931 211.34-27.611 48.53 19.025 112.21 0.7211 159.7-37.459m-640.46 117.59c34.247-13.324 70.854-80.093 116.9-84.41 47.901-5.2847 96.038 33.164 152.79 29.33 73.958-1.3803 119.3-71.527 209.18-27.846 48.871 18.232 111.03 0.45047 159.09-36.297m-637.97 118.15c33.728-13.989 69.797-81.115 116.07-85.221 47.717-5.07 96.616 32.962 153.89 28.646 72.814-1.6813 118.6-70.123 207.03-28.082 49.211 17.439 109.84 0.18003 158.48-35.135m-635.47 118.7c33.21-14.663 68.747-82.118 115.24-86.014 47.532-4.8551 97.195 32.761 154.99 27.962 71.67-1.9823 117.89-68.718 204.87-28.318 49.552 16.646 108.66-0.0911 157.87-33.972m-632.97 119.24c32.692-15.345 67.706-83.103 114.41-86.791 47.347-4.6404 97.773 32.559 156.09 27.279 70.525-2.2833 117.19-67.314 202.72-28.553 49.893 15.853 107.47-0.3614 157.26-32.81m-630.48 119.75c32.174-16.036 66.674-84.067 113.58-87.548 47.163-4.4256 98.351 32.357 157.18 26.595 69.381-2.5842 116.49-65.91 200.57-28.789 50.233 15.06 106.29-0.63187 156.65-31.648m-627.98 120.25c31.656-16.735 65.651-85.01 112.75-88.286 46.978-4.2108 98.93 32.155 158.28 25.912 68.237-2.8853 115.79-64.506 198.41-29.025 50.574 14.267 105.1-0.90265 156.04-30.485m-625.48 120.72c31.14-17.442 64.637-85.93 111.92-89.002 46.794-3.996 99.508 31.953 159.38 25.228 67.093-3.1864 115.09-63.102 196.26-29.26 50.914 13.474 103.92-1.1732 155.43-29.323m-622.99 121.17c30.624-18.157 63.632-86.827 111.09-89.697 46.609-3.7812 100.09 31.752 160.48 24.544 65.948-3.4873 114.39-61.698 194.11-29.496 51.255 12.681 102.73-1.4439 154.82-28.161m-620.49 121.6c30.109-18.879 62.638-87.699 110.25-90.367 46.424-3.5665 100.66 31.55 161.58 23.861 64.804-3.7884 113.69-60.294 191.95-29.732 51.596 11.888 101.55-1.7144 154.21-26.998m-617.99 122c29.595-19.607 61.653-88.544 109.42-91.013 46.24-3.3517 101.24 31.348 162.67 23.177 63.66-4.0894 112.98-58.889 189.8-29.967 51.936 11.095 100.36-1.9851 153.6-25.836m-615.5 122.38c29.083-20.342 60.68-89.362 108.59-91.633 46.055-3.1368 101.82 31.146 163.77 22.493 62.516-4.3905 112.28-57.485 187.65-30.203 52.277 10.302 99.177-2.2557 152.99-24.673m-613 122.73c28.572-21.081 59.717-90.149 107.76-92.224 45.871-2.922 102.4 30.944 164.87 21.81 61.371-4.6914 111.58-56.081 185.49-30.439 52.617 9.5091 97.992-2.5264 152.38-23.511m-610.5 123.05c28.063-21.825 58.766-90.907 106.93-92.788 45.686-2.7072 102.98 30.743 165.97 21.126 60.227-4.9925 110.88-54.677 183.34-30.674 52.958 8.716 96.806-2.797 151.77-22.349m-608.01 123.34c27.556-22.574 57.827-91.631 106.1-93.319 45.501-2.4924 103.56 30.541 167.07 20.442 59.083-5.2934 110.18-53.273 181.19-30.91 53.299 7.9232 95.621-3.0676 151.16-21.186m-605.51 123.59c27.051-23.326 56.9-92.32 105.27-93.818 45.317-2.2776 104.13 30.339 168.16 19.759 57.939-5.5944 109.48-51.869 179.03-31.146 53.639 7.1302 94.436-3.3382 150.55-20.024m-603.01 123.81c26.548-24.078 55.986-92.974 104.44-94.284 45.132-2.0628 104.71 30.137 169.26 19.075 56.794-5.8955 108.78-50.464 176.88-31.381 53.98 6.3371 93.251-3.6088 149.94-18.862m-600.51 124c26.049-24.833 55.086-93.59 103.61-94.713 44.948-1.848 105.29 29.935 170.36 18.391 55.65-6.1964 108.08-49.06 174.72-31.617 54.32 5.5443 92.066-3.8794 149.33-17.699m-598.02 124.15c25.552-25.588 54.198-94.163 102.78-95.102 44.763-1.6332 105.87 29.734 171.46 17.708 54.506-6.4975 107.37-47.656 172.57-31.853 54.661 4.7513 90.88-4.15 148.72-16.537m-595.52 124.25c25.059-26.341 53.325-94.696 101.95-95.453 44.578-1.4185 106.45 29.532 172.56 17.024 53.362-6.7985 106.67-46.252 170.42-32.088 55.002 3.9583 89.695-4.4206 148.11-15.375m-593.02 124.32c24.57-27.092 52.467-95.183 101.11-95.76 44.394-1.2037 107.03 29.33 173.65 16.34 52.217-7.0995 105.97-44.848 168.26-32.324 55.342 3.1654 88.51-4.6912 147.5-14.212m-590.53 124.34c24.085-27.839 51.624-95.622 100.28-96.023 44.209-0.98891 107.6 29.128 174.75 15.657 51.073-7.4004 105.27-43.444 166.11-32.56 55.683 2.3724 87.325-4.9617 146.89-13.05m-588.03 124.31c23.604-28.58 50.797-96.012 99.452-96.238 44.025-0.77407 108.18 28.926 175.85 14.973 49.929-7.7015 104.57-42.04 163.96-32.795 56.023 1.5794 86.14-5.2324 146.28-11.888m-585.53 124.23c23.129-29.314 49.987-96.35 98.621-96.404 43.84-0.55928 108.76 28.725 176.95 14.29 48.785-8.0026 103.87-40.635 161.8-33.031 56.364 0.78645 84.954-5.5031 145.67-10.725m-583.04 124.1c22.659-30.039 49.193-96.633 97.79-96.518 43.655-0.34453 109.34 28.523 178.04 13.606 47.64-8.3036 103.17-39.231 159.65-33.266 56.704-2e-3 83.769-5.7736 145.06-9.563m-580.54 123.92c22.195-30.753 48.417-96.859 96.959-96.577 43.471-0.12939 109.92 28.321 179.14 12.922 46.496-8.6045 102.46-37.827 157.5-33.502 57.045-0.79951 82.584-6.0442 144.45-8.4006m-578.04 123.68c21.737-31.455 47.658-97.024 96.128-96.579 43.286 0.0851 110.5 28.119 180.24 12.239 45.352-8.9056 101.76-36.423 155.34-33.738 57.386-1.5925 81.399-6.3149 143.84-7.2383m-575.55 123.38c21.286-32.141 46.918-97.125 95.297-96.52 43.102 0.29994 111.07 27.917 181.34 11.555 44.208-9.2066 101.06-35.019 153.19-33.973 57.726-2.3855 80.213-6.5856 143.23-6.0759m-573.05 123.02c20.843-32.808 46.198-97.166 94.469-96.405 42.917 0.51468 111.65 27.716 182.44 10.871 43.063-9.5076 100.36-33.615 151.03-34.209 58.067-3.1785 79.028-6.8561 142.62-4.9136m-570.56 122.59c20.408-33.456 45.497-97.136 93.639-96.22 42.732 0.72948 112.23 27.514 183.53 10.188 41.919-9.8086 99.659-32.21 148.88-34.445 58.407-3.9714 77.843-7.1267 142-3.7511m-568.06 122.09c19.981-34.083 44.816-97.026 92.806-95.961 42.548 0.94428 112.81 27.312 184.63 9.5041 40.775-10.11 98.957-30.806 146.73-34.68 58.748-4.7644 76.658-7.3974 141.39-2.5889" fill="none" stop-color="#000000" stroke="url(#linearGradient24274-8)" stroke-width=".56163" style="font-variation-settings:normal"/>
 <path d="m701.86-28.964c-104.54 13.146-97.04 146.48-193.19 161.98-63.914 3.5894-84.203-14.021-132.84-1.7771-57.928 14.585-92.495 64.984-141.99 69.746-53.017 5.1002-113.31-20.534-170.82 6.8398-35.701 16.996-52.35 60.282-73.237 91.34v42.309c46.848-26.859 87.511-67.941 121.32-78.65 34.458-10.915 69.843-4.5082 105.89-3.6368 31.749 0.76737 64.742-21.253 97.486-23.427 65.464-4.3466 136.22 12.45 200.38 1.9702 62.271-10.171 106.43-60.549 165.11-75.417 7.1191-1.8036 14.435-2.8495 21.88-3.396z" fill="url(#linearGradient4551-1-1)"/>
 <path d="m701.86 62.385c-65.088 8.6494-97.931 34.987-138.16 90.116-47.752 65.435-136.7 39.915-136.7 39.915l104.97 37.03 169.89-30.928z" fill="url(#linearGradient12309-5-7)"/>
 <path d="m202.17 229.75c15.497 1.4259 55.607-0.76642 70.801-5.9521 77.27-37.614 106.15-80.403 194.24-54.842 98.775 28.662 132.81-105.88 234.8-120.78m-500.4 211.85s35.821-1.7691 85.988-4.7778c88.595-6.2419 115.77-4.5925 212.66 21.71 66.612 18.083 137.9-68.719 201.77-80.204m-500.4 62.227c0.53442 0.0491 36.503-1.7346 85.464-4.8184 88.165-7.4308 115.68-7.2262 212.03 19.07 67.267 18.36 138.46-68.588 202.91-80.78m-500.38 65.484c1.0688 0.099 37.186-1.7 84.94-4.8587 87.734-8.6167 115.58-9.8722 211.39 16.431 67.932 18.649 139.03-68.512 204.05-81.439m-500.36 68.823c1.6032 0.1473 37.868-1.6654 84.417-4.8993 87.227-9.8012 115.59-12.499 210.76 13.791 68.609 18.952 139.59-68.498 205.17-82.183m-500.33 72.247c2.1375 0.19665 38.55-1.6309 83.893-4.9398 86.816-10.986 115.45-15.174 210.12 11.151 69.306 19.273 140.17-68.555 206.32-83.021m-500.31 75.766c2.672 0.24597 39.232-1.5963 83.369-4.9802 86.424-12.168 115.29-17.869 209.49 8.5114 70.024 19.611 140.77-68.692 207.47-83.956m-500.31 79.381c3.2063 0.29495 39.915-1.5617 82.846-5.0207 85.994-13.32 115.09-20.588 208.85 5.8718 70.761 19.968 141.37-68.913 208.62-84.987m-500.3 83.091c3.7407 0.34423 40.597-1.527 82.322-5.0612 85.557-14.482 114.94-23.303 208.22 3.2321 71.512 20.343 141.97-69.228 209.76-86.111m-500.28 86.896c4.2752 0.39338 41.279-1.4925 81.798-5.1016 85.12-15.638 114.77-26.013 207.58 0.59225 72.332 20.735 142.53-69.636 210.88-87.33m-500.24 90.796c4.8095 0.44248 41.961-1.4579 81.275-5.1422 84.685-16.787 114.6-28.749 206.95-2.0474 73.324 21.202 142.94-70.123 211.99-88.645m-500.19 94.791c5.344 0.49171 42.644-1.4234 80.751-5.1827 84.251-17.928 114.42-31.511 206.31-4.6871 74.22 21.666 143.51-70.781 213.14-90.067m-500.18 98.892c5.8784 0.54085 43.326-1.3888 80.227-5.2232 83.819-19.061 114.23-34.294 205.67-7.3268 75.153 22.163 144.07-71.582 214.28-91.579m-500.16 103.08c6.4128 0.59002 44.008-1.3542 79.703-5.2636 83.39-20.184 114.03-37.098 205.04-9.9666 76.129 22.696 144.64-72.546 215.41-93.181m-500.14 107.37c6.9471 0.63917 44.691-1.3196 79.18-5.3042 82.966-21.299 113.82-39.926 204.4-12.606 77.148 23.267 145.22-73.692 216.55-94.863m-500.12 111.73c7.4815 0.68835 45.373-1.2851 78.656-5.3447 82.545-22.403 113.6-42.779 203.77-15.246 78.208 23.881 145.82-75.038 217.69-96.615m-500.09 116.16c8.0159 0.73754 46.055-1.2505 78.132-5.3851 82.13-23.498 113.37-45.658 203.13-17.886 79.308 24.537 146.45-76.604 218.82-98.425m-500.07 120.65c8.5504 0.7867 46.737-1.2159 77.609-5.4256 81.722-24.582 113.13-48.564 202.5-20.525 80.444 25.237 147.14-78.408 219.96-100.28m-500.05 125.18c9.0847 0.83588 47.42-1.1814 77.085-5.4661 81.32-25.654 112.91-51.614 201.86-23.165 80.646 25.792 148.24-80.557 221.09-102.15m-500.02 129.73c9.6191 0.88507 48.102-1.1468 76.561-5.5066 80.926-26.716 112.65-54.577 201.23-25.805 81.775 26.563 148.99-82.824 222.25-104.02m-500.02 134.29c10.154 0.93418 48.784-1.1122 76.038-5.5471 80.541-27.767 112.37-57.555 200.59-28.445 82.946 27.371 149.78-85.315 223.38-105.87m-499.99 138.82c10.688 0.98345 49.466-1.0776 75.514-5.5876 80.165-28.806 112.08-60.537 199.96-31.084 84.17 28.21 150.66-88.019 224.52-107.67m-499.97 143.3c11.222 1.0326 50.149-1.043 74.99-5.6281 79.798-29.833 111.76-63.512 199.32-33.724 85.454 29.071 151.63-90.905 225.66-109.4m-499.95 147.71c11.757 1.0817 50.831-1.0084 74.467-5.6686 79.442-30.848 111.4-66.437 198.69-36.364 86.237 29.713 151.47-93.196 225.17-110.67 0.55585-0.1267 1.1103-0.25214 1.6634-0.37607m-499.96 152.04c12.291 1.1309 51.513-0.97384 73.943-5.7091 79.097-31.851 110.5-67.803 198.05-39.003 95.998 31.577 137.61-93.459 227.98-112.63m-499.95 156.3c12.826 1.1801 52.196-0.93926 73.419-5.7496 78.763-32.842 109.86-70.025 197.42-41.643 96.52 31.288 136.93-95.684 229.12-114.15m-499.93 160.5c13.36 1.2292 52.878-0.90468 72.895-5.79 78.44-33.821 109.19-72.204 196.78-44.283 97.042 30.934 136.14-97.843 230.25-115.6m-499.91 164.63c13.894 1.2784 53.56-0.87017 72.372-5.8305 78.13-34.788 108.48-74.331 196.15-46.923 97.544 30.497 135.31-99.949 231.4-116.99m-499.9 168.69c14.429 1.3276 54.242-0.83554 71.848-5.871 77.831-35.742 107.74-76.411 195.51-49.562 97.997 29.976 134.46-101.99 232.52-118.31m-499.86 172.7c14.963 1.3767 54.925-0.80089 71.324-5.9114 77.544-36.684 106.96-78.431 194.88-52.202 98.413 29.361 133.64-103.98 233.68-119.57" fill="none" stroke="url(#linearGradient6948-3)" stroke-width=".18721px"/>
 <path d="m701.86 116.94c-7.1532 1.0355-14.682 2.3934-22.876 4.194-84.116 18.486-99.072 87.677-162.32 81.311-30.733-3.0937-97.946-22.039-128.15-16.368-51.466 9.6614-73.637 42.668-126.36 47.508-61.863 5.6787-101.02-25.176-162.36-15.993-51.535 7.7158-80.272 66.52-104.31 95.927-1.8367 2.2474-3.741 4.339-5.6995 6.3125v21.622c18.591-9.1654 34.356-18.415 43.269-24.205 127.98-108.91 108.09-18.058 206.45-24.355 33.256-2.129 117.33-65.716 150.74-72.666 69.006-14.354 82.752 33.827 151.51 22.687 56.833-9.2094 107.28-41.202 160.1-60.936z" fill="url(#linearGradient4479-5-16)"/>
 <path d="m701.86 163.21c-1.0979 0.181-2.1912 0.33754-3.2955 0.55226-41.023 7.9757-70.718 35.603-121.1 65.1-56.057 32.819-136.86-39.93-192.56-25.973-56.589 14.18-81.59 62.926-137.72 70.784-56.785 7.95-91.034-62.02-165.82-32.162-44.876 17.918-59.483 62.998-81.156 85.221-3.4348 3.522-6.8992 6.6853-10.413 9.5543v25.317c5.725-2.377 11.552-5.2253 17.509-8.6408 45.825-26.277 64.335-83.437 119.62-86.963 30.175-1.9244 65.114 35.369 111.4 41.098 61.914 7.6626 105.19-51.216 140.78-57.537 73.316-13.021 99.226 40.696 153.72 46.751 71.225 7.9153 115.96-48.959 169.03-78.763z" fill="url(#linearGradient4687-8-9)"/>
 <path d="m701.88 174.11c-50.932 35.982-94.201 122.66-160.54 122.64 66.3 2.663 109.62-50.619 160.54-79.166zm-292.77 42.411c-63.772 1.0491-99.269 87.715-164.47 91.136 58.536 3.0737 100.11-51.991 134.47-58.093 73.316-13.021 99.226 40.696 153.72 46.751-51.087-5.6773-63.41-80.786-123.72-79.794zm-284.63 33.608c-54.386-0.65178-93.573 89.553-134.68 105.2v5.3861c5.6177-2.5254 11.27-5.3182 16.892-8.405 45.825-26.277 64.953-82.782 120.24-86.308 30.175-1.9244 65.114 35.546 111.4 41.275-46.287-5.7284-63.85-56.549-113.85-57.148z" fill="#e9ebed" fill-opacity=".49133" opacity=".23994"/>
 <path d="m701.86 212.77c-49.286 29.758-93.928 81.983-156.96 83.88-1.1819 0.0551-2.3685 0.0911-3.5652 0.0905 2.0719 0.0834 4.1213 0.11206 6.1493 0.0886 8.1105-0.0944 15.877-1.025 23.359-2.6309 1.3417-0.28796 2.6633-0.62164 3.9871-0.95223 0.52189-0.13017 1.0529-0.23838 1.5722-0.37513 0-2.7e-4 0-5.2e-4 6e-3 -1e-3 0.88136-0.23218 1.7472-0.50294 2.6209-0.75323 0.94661-0.27117 1.9009-0.52418 2.8388-0.81593 1.8019-0.56057 3.5872-1.1583 5.3582-1.791 0-5.2e-4 0-2e-3 6e-3 -2e-3 1.7707-0.6327 3.5269-1.3 5.2686-2 0-5e-4 6e-3 -2e-3 6e-3 -2e-3 0.20235-0.0813 0.39991-0.17252 0.60197-0.25472 1.5381-0.62604 3.07-1.2677 4.5871-1.9423 1.7145-0.76242 3.4153-1.5543 5.1045-2.3741 0-1e-3 6e-3 -2e-3 6e-3 -4e-3 1.5948-0.77407 3.1783-1.577 4.7522-2.398 0.0949-0.0497 0.19178-0.0947 0.28657-0.14422 1.6652-0.87215 3.3185-1.7688 4.9622-2.6886 0-2e-3 6e-3 -2e-3 8e-3 -4e-3 1.6437-0.91979 3.2775-1.8624 4.9015-2.8249 0-2e-3 6e-3 -2e-3 8e-3 -4e-3 1.6239-0.96242 3.2387-1.9441 4.8448-2.9443 0-2e-3 6e-3 -4e-3 8e-3 -6e-3 1.6061-1.0002 3.2029-2.0177 4.793-3.0508 0-2e-3 6e-3 -4e-3 8e-3 -6e-3 3.1824-2.0676 6.3348-4.1965 9.4647-6.3662 0-2e-3 6e-3 -4e-3 8e-3 -6e-3 1.457-1.01 2.8953-2.0527 4.3433-3.0786 1.6653-1.1799 3.3405-2.3451 4.996-3.5403 6.1864-4.4663 12.311-9.0192 18.437-13.501 0-2e-3 6e-3 -2e-3 6e-3 -4e-3 0.1991-0.14576 0.39798-0.28736 0.59702-0.43285 2.8673-2.0954 5.7349-4.178 8.609-6.2239 3.0672-2.1834 6.1415-4.3299 9.2308-6.4189v-1e-3c2.4953-1.6873 5.01-3.3049 7.5284-4.9075 0.60457-0.38466 1.2009-0.79906 1.807-1.1781 1.5644-0.97827 3.1341-1.9362 4.7105-2.8737 0.9128-0.54281 1.833-1.0622 2.7502-1.59 0.6679-0.38427 1.3316-0.78129 2.002-1.1572zm-298.1 31.681v1e-3c-62.028-1.6094-88.616 64.886-159.12 63.197 58.536 3.0737 100.11-51.991 134.47-58.093 2.2277-0.39564 4.408-0.72434 6.5503-1 0.70791-0.0911 1.3887-0.14345 2.0876-0.22189 1.4202-0.15944 2.8419-0.32014 4.2259-0.42885 0.80405-0.0632 1.581-0.0899 2.3732-0.13633 1.2391-0.073 2.4817-0.15076 3.6926-0.18407 0.82447-0.0227 1.6261-0.0135 2.4378-0.0193 1.1508-8e-3 2.3039-0.0154 3.4299 0.01 0.78399 0.0173 1.5501 0.0641 2.3224 0.0995 1.1311 0.0516 2.2594 0.10513 3.3662 0.19004 0.7345 0.0564 1.456 0.13132 2.1801 0.20199 1.1023 0.10763 2.1996 0.22172 3.2786 0.3612 0.70582 0.0915 1.4014 0.19706 2.0975 0.3015 1.082 0.16212 2.1573 0.33368 3.2169 0.52635 0.64305 0.11707 1.2803 0.2423 1.9154 0.37016 1.0994 0.22103 2.1882 0.45553 3.2647 0.70746 0.57633 0.13517 1.1504 0.27344 1.7204 0.41693 1.1119 0.27964 2.2116 0.57521 3.3005 0.88558 0.50525 0.14402 1.01 0.28832 1.5105 0.4388 1.1714 0.35179 2.329 0.72198 3.4756 1.1065 0.39446 0.13247 0.79044 0.2629 1.1821 0.399 1.252 0.43456 2.4885 0.8884 3.7134 1.3582 0.27217 0.10436 0.54697 0.20527 0.81791 0.31143 1.395 0.54599 2.7731 1.1141 4.1363 1.7005 0.0882 0.0379 0.17753 0.0743 0.26568 0.11245 5.8151 2.5154 11.344 5.3853 16.746 8.3881 0.47708 0.26539 0.95383 0.52951 1.4289 0.79702 8.8686 4.9905 17.412 10.299 26.168 15.096 0.29245 0.1602 0.58859 0.31257 0.88161 0.47165 10.247 5.5587 20.841 10.352 32.73 12.943-44.022-10.003-63.501-48.845-119.86-50.308zm-274.23 19.642c-0.95293-0.0193-1.9008 2e-3 -2.8438 0.0616-55.289 3.5259-78.109 62.399-123.86 88.807-4.4221 2.5526-8.7836 4.7467-13.038 6.6766v1.9304c1.7757-0.74066 3.5527-1.4871 5.3493-2.3214 1.4475-0.67672 2.9051-1.3752 4.3851-2.1224 0.56585-0.28486 1.1334-0.57699 1.7015-0.87165 2.0018-1.04 4.0199-2.119 6.0717-3.2955 45.825-26.277 64.336-83.437 119.63-86.962 22.631-1.4433 47.942 19.273 78.711 32.138 2.564 1.0721 5.1655 2.0901 7.807 3.0358 4.8435 1.7341 9.838 3.1829 14.957 4.3264-40.051-9.1577-71.547-40.884-98.868-41.403zm98.868 41.403c0.77883 0.17811 1.5579 0.35383 2.3433 0.51444-0.78673-0.1577-1.5632-0.34018-2.3433-0.51444zm2.3433 0.51444c1.0382 0.20807 2.0755 0.41737 3.1254 0.59503-1.0483-0.18003-2.0885-0.38298-3.1254-0.59503zm3.1254 0.59503c0.15635 0.0268 0.31212 0.0545 0.46866 0.0807-0.15673-0.0258-0.31226-0.0541-0.46866-0.0807zm0.46866 0.0807c1.3214 0.21735 2.6488 0.4182 3.9891 0.58406-1.3395-0.16578-2.6681-0.36386-3.9891-0.58406zm289.29-11.926c1.4706 0.33417 2.971 0.63247 4.5035 0.89155 1.5447 0.25534 3.1069 0.47983 4.6985 0.65671-3.1656-0.35181-6.2144-0.89719-9.202-1.5483z" fill="url(#linearGradient14655-0)"/>
 <path d="m701.86 114.1s-13.895 2.4868-21.297 4.6717c-88.129 26.014-94.918 79.138-152.84 84.261-24.866 2.1992-96.46-22.972-136.28-17.428-51.42 7.1586-78.074 40.691-123.04 46.996-55.37 7.7642-112.56-27.519-174.99-15.105-48.68 9.6795-68.185 60.586-103.62 99.697v2.3617c29.869-29.894 54.016-89.562 103.62-100.78 60.489-13.685 125.46 27.345 176.25 15.641 54.757-12.617 70.77-39.521 121.8-47.543 45.266-7.1162 107.13 23.038 136.56 19.437 53.975-6.6038 73.77-61.244 157.2-85.372 5.611-1.6227 16.637-2.5901 16.637-2.5901z" fill="url(#linearGradient25349-4)"/>
</svg>
