<?xml version="1.0" encoding="UTF-8"?>
<!-- Created with Inkscape (http://www.inkscape.org/) -->
<svg width="3200" height="1800" version="1.1" viewBox="0 0 846.67 476.25" xmlns="http://www.w3.org/2000/svg" xmlns:xlink="http://www.w3.org/1999/xlink">
 <defs>
  <linearGradient id="linearGradient25627">
   <stop stop-color="#bda62c" offset="0"/>
   <stop stop-color="#ae9a28" stop-opacity=".98824" offset=".14669"/>
   <stop stop-color="#8c7b20" stop-opacity=".96863" offset=".30531"/>
   <stop stop-color="#bda62c" stop-opacity=".95686" offset=".51079"/>
   <stop stop-color="#82721e" stop-opacity=".94902" offset=".6231"/>
   <stop stop-color="#c0ab2c" stop-opacity=".99608" offset=".83541"/>
   <stop stop-color="#7f6f1e" stop-opacity=".92157" offset="1"/>
  </linearGradient>
  <linearGradient id="linearGradient25349-7" x1="-19.327" x2="365.1" y1="174.88" y2="71.87" gradientTransform="matrix(2.6866 0 0 2.6866 -143.02 -57.547)" gradientUnits="userSpaceOnUse" xlink:href="#linearGradient25627"/>
  <linearGradient id="linearGradient14655-7" x1="-46.183" x2="1721.9" y1="706.05" y2="445.69" gradientTransform="matrix(.71083 0 0 .71083 -143.02 -57.547)" gradientUnits="userSpaceOnUse">
   <stop stop-color="#bda62c" offset="0"/>
   <stop stop-color="#615516" stop-opacity=".98824" offset=".098576"/>
   <stop stop-color="#cab12f" stop-opacity=".97647" offset=".25339"/>
   <stop stop-color="#8c7b20" stop-opacity=".96863" offset=".33815"/>
   <stop stop-color="#87771f" stop-opacity=".96471" offset=".42151"/>
   <stop stop-color="#bda62c" stop-opacity=".95686" offset=".53339"/>
   <stop stop-color="#82721e" stop-opacity=".94902" offset=".6231"/>
   <stop stop-color="#80711e" stop-opacity=".93725" offset=".73471"/>
   <stop stop-color="#d7be31" stop-opacity=".92941" offset=".83541"/>
   <stop stop-color="#bda62c" stop-opacity=".92175" offset="1"/>
  </linearGradient>
  <linearGradient id="linearGradient4687-8-9" x1="1155.1" x2="93.584" y1="262.51" y2="615.88" gradientTransform="matrix(.8661 .091939 -.091939 .8661 -85.037 -100.49)" gradientUnits="userSpaceOnUse">
   <stop stop-color="#8b5cf6" offset="0"/>
   <stop stop-color="#6d28d9" offset=".21248"/>
   <stop stop-color="#6f5cf6" offset=".42964"/>
   <stop stop-color="#7c3aed" offset=".59961"/>
   <stop stop-color="#6376f6" offset=".80968"/>
   <stop stop-color="#6d28d9" offset="1"/>
  </linearGradient>
  <linearGradient id="linearGradient4479-5-0" x1="1143.2" x2="120.86" y1="196.75" y2="539.49" gradientTransform="matrix(.8661 .091939 -.091939 .8661 -85.037 -100.49)" gradientUnits="userSpaceOnUse">
   <stop stop-color="#8b5cf6" offset="0"/>
   <stop stop-color="#5151dc" offset=".25152"/>
   <stop stop-color="#3b82f6" offset=".4454"/>
   <stop stop-color="#8b69f6" offset=".63944"/>
   <stop stop-color="#60a5fa" offset=".83593"/>
   <stop stop-color="#60a5fa" offset="1"/>
  </linearGradient>
  <linearGradient id="linearGradient6948-2" x1="466.89" x2="1404.4" y1="475.5" y2="195.51" gradientTransform="matrix(.87097 0 0 .87097 -160.13 -132.28)" gradientUnits="userSpaceOnUse">
   <stop stop-color="#3e2fdd" offset="0"/>
   <stop stop-color="#a4007e" offset="1"/>
  </linearGradient>
  <linearGradient id="linearGradient12309-5-5" x1="1181.7" x2="861.39" y1="252.37" y2="436.6" gradientTransform="matrix(.87097 0 0 .87097 -160.13 -129.5)" gradientUnits="userSpaceOnUse">
   <stop stop-color="#7e5af0" offset="0"/>
   <stop stop-color="#7c61ee" offset=".49538"/>
   <stop stop-color="#4c6fe2" offset="1"/>
  </linearGradient>
  <linearGradient id="linearGradient4551-1-9" x1="1112.8" x2="89.147" y1="69.067" y2="487.89" gradientTransform="matrix(.8661 .091939 -.091939 .8661 -85.037 -100.49)" gradientUnits="userSpaceOnUse">
   <stop stop-color="#60a5fa" offset="0"/>
   <stop stop-color="#365fd8" offset=".23216"/>
   <stop stop-color="#3b82f6" offset=".43871"/>
   <stop stop-color="#4d4eeb" offset=".65563"/>
   <stop stop-color="#60a5fa" offset="1"/>
  </linearGradient>
  <linearGradient id="linearGradient24274-3" x1="132.11" x2="1068.3" y1="575.51" y2="320.25" gradientTransform="matrix(.8661 .091939 -.091939 .8661 -85.037 -100.49)" gradientUnits="userSpaceOnUse">
   <stop stop-color="#1c52f2" offset="0"/>
   <stop stop-color="#d62bc3" stop-opacity=".42363" offset="1"/>
  </linearGradient>
  <linearGradient id="linearGradient118139" x1="100.6" x2="345.1" y1="115.79" y2="-9.8374" gradientTransform="matrix(2.3701 0 0 2.3701 -9.8066 -12.096)" gradientUnits="userSpaceOnUse">
   <stop stop-color="#8b5cf6" offset="0"/>
   <stop stop-color="#5151dc" offset=".25152"/>
   <stop stop-color="#3b82f6" offset=".4454"/>
   <stop stop-color="#8b5cf6" offset=".63944"/>
   <stop stop-color="#60a5fa" offset=".83593"/>
   <stop stop-color="#60a5fa" offset="1"/>
  </linearGradient>
  <linearGradient id="linearGradient161031" x1="-12.42" x2="373.66" y1="169.75" y2="-5.834" gradientTransform="matrix(2.3701 0 0 2.3701 -9.8066 -27.125)" gradientUnits="userSpaceOnUse" xlink:href="#linearGradient25627"/>
 </defs>
 <rect x="-1.9141e-6" y="-2.7734e-6" width="846.67" height="476.25" fill="#2a2e32" stop-color="#000000" style="-inkscape-stroke:none;font-variation-settings:normal;paint-order:stroke fill markers"/>
 <path d="m857.85-52.48c-128.68 16.182-119.45 183.09-237.8 202.17-78.673 4.4183-103.65-20.136-163.51-5.0642-71.305 17.953-113.85 82.867-174.78 88.728-65.26 6.2779-139.48-26.521-210.26 7.1743-43.946 20.921-64.439 74.384-90.149 112.61v48.891c57.666-33.062 107.72-83.63 149.33-96.812 42.415-13.435 85.972-5.5492 130.35-4.4767 39.08 0.94457 79.692-26.161 120-28.837 80.581-5.3504 167.67 15.325 246.65 2.4251 76.65-12.52 131-74.531 203.24-92.833 8.763-2.2201 17.768-3.5075 26.932-4.1802z" fill="url(#linearGradient161031)"/>
 <path d="m224.18 293.17s66.819-10.882 100.28-15.999c48.003-7.3406 96.587-11.282 144.15-21.09 47.538-9.8033 95.559-19.716 140.67-37.64 58.31-23.17 108.12-64.359 165.64-89.419 26.739-11.649 82.871-28.082 82.871-28.082m-635.03 190.93s67.398-10.745 101.08-16.241c47.995-7.8323 96.367-13.701 143.93-23.849 47.635-10.164 96.195-18.776 141.35-37.03 57.938-23.419 106.65-65.748 163.43-91.857 27.505-12.648 85.316-31.141 85.316-31.141m-636.53 198.82s67.979-10.603 101.87-16.48c48-8.3243 96.134-16.112 143.71-26.603 47.732-10.526 96.836-17.832 142.04-36.427 57.564-23.679 105.14-67.184 161.16-94.311 28.251-13.68 87.71-34.266 87.71-34.266m-637.92 206.79s68.563-10.455 102.66-16.716c48.018-8.8168 95.888-18.514 143.49-29.352 47.828-10.89 97.485-16.876 142.73-35.831 57.251-23.987 103.67-68.791 158.99-96.944 29.051-14.784 90.299-37.534 90.299-37.534m-639.6 215.08s69.149-10.302 103.46-16.95c48.049-9.3101 95.63-20.908 143.28-32.098 47.923-11.255 98.135-15.923 143.41-35.242 56.872-24.265 102.06-70.3 156.61-99.413 29.747-15.875 92.573-40.771 92.573-40.771m-640.75 223.17s69.738-10.146 104.24-17.18c48.092-9.8043 95.359-23.294 143.06-34.84 48.017-11.621 98.794-14.96 144.1-34.659 56.55-24.588 100.47-71.961 154.31-102.04 30.487-17.035 95.021-44.134 95.021-44.134m-642.16 231.55s70.328-9.985 105.03-17.409c48.148-10.3 95.076-25.673 142.85-37.578 48.11-11.988 99.458-13.99 144.79-34.082 56.247-24.932 98.866-73.688 151.99-104.72 31.222-18.235 97.486-47.565 97.486-47.565m-643.57 240.05s70.922-9.821 105.82-17.634c48.217-10.797 94.781-28.045 142.64-40.314 48.202-12.355 100.13-13.016 145.47-33.511 55.963-25.294 97.234-75.473 149.67-107.44 31.949-19.473 99.965-51.055 99.965-51.055m-645 248.65s71.517-9.6539 106.6-17.858c48.297-11.295 94.474-30.411 142.44-43.047 48.294-12.723 100.8-12.038 146.16-32.944 55.697-25.672 95.574-77.306 147.34-110.19 32.664-20.745 102.45-54.59 102.45-54.59m-646.41 257.33s72.115-9.4842 107.38-18.08c48.389-11.795 94.155-32.772 142.23-45.778 48.385-13.09 101.48-11.056 146.85-32.38 55.452-26.066 93.891-79.183 145.01-112.96 33.368-22.05 104.95-58.162 104.95-58.162m-647.84 266.07s72.715-9.3121 108.16-18.3c48.493-12.298 93.825-35.127 142.03-48.508 48.476-13.456 102.14-10.13 147.53-31.82 54.516-26.05 91.267-79.605 141.05-113.85 33.245-22.868 104.69-60.778 104.69-60.778l4.4014-2.9572m-649.28 274.91s73.316-9.1378 108.93-18.518c48.609-12.802 93.483-37.475 141.83-51.235 48.565-13.822 102.86-9.0831 148.22-31.265 55.02-26.906 90.45-83.064 140.32-118.61 34.734-24.759 109.97-65.441 109.97-65.441m-650.7 283.77s73.92-8.9624 109.71-18.736c48.736-13.309 93.129-39.822 141.63-53.963 48.655-14.186 103.55-8.0942 148.91-30.709 54.831-27.34 88.699-85.031 137.98-121.44 35.39-26.143 112.48-69.079 112.48-69.079m-652.13 292.62s74.525-8.7862 110.48-18.953c48.874-13.82 92.762-42.166 141.43-56.693 48.744-14.549 104.25-7.1049 149.6-30.152 54.657-27.778 86.929-86.997 135.64-124.23 36.024-27.536 114.98-72.687 114.98-72.687m-653.55 301.41s75.131-8.6094 111.25-19.17c49.022-14.333 92.383-44.51 141.23-59.425 48.834-14.911 104.95-6.1156 150.29-29.593 54.499-28.219 85.144-88.956 133.31-126.99 36.637-28.934 117.47-76.256 117.47-76.256m-654.98 310.14s75.738-8.4326 112.01-19.386c49.181-14.851 91.991-46.853 141.03-62.16 48.924-15.271 105.65-5.1268 150.99-29.032 54.355-28.661 83.347-90.901 130.98-129.72 37.228-30.333 119.96-79.774 119.96-79.774m-656.4 318.77s76.347-8.2561 112.78-19.603c49.35-15.372 91.587-49.196 140.83-64.898 49.014-15.628 106.36-4.139 151.69-28.467 54.223-29.101 81.539-92.82 128.67-132.39 37.795-31.727 122.43-83.229 122.43-83.229m-657.82 327.28s76.956-8.08 113.54-19.82c49.529-15.897 91.17-51.539 140.63-67.639 49.106-15.984 107.07-3.1521 152.39-27.898 54.104-29.538 79.726-94.714 126.38-135.01 38.341-33.115 124.89-86.615 124.89-86.615m-659.25 335.68s77.567-7.9048 114.29-20.038c49.718-16.426 90.739-53.883 140.43-70.385 49.198-16.337 107.77-2.1667 153.1-27.325 53.994-29.969 77.906-96.568 124.09-137.56 38.863-34.489 127.33-89.919 127.33-89.919m-660.67 343.92s78.177-7.7308 115.05-20.257c49.916-16.959 90.296-56.229 140.23-73.135 49.291-16.688 108.48-1.1827 153.81-26.746 53.893-30.394 76.084-98.383 121.83-140.04 39.364-35.848 129.76-93.135 129.76-93.135m-662.1 352.02s78.789-7.558 115.8-20.476c50.124-17.496 89.84-58.577 140.03-75.89 49.386-17.036 109.19-0.20004 154.53-26.162 53.8-30.81 74.261-100.15 119.58-142.45 39.842-37.188 132.16-96.257 132.16-96.257m-663.52 359.94s79.401-7.387 116.54-20.696c50.341-18.038 89.37-60.926 139.82-78.65 49.482-17.382 109.9 0.78103 155.25-25.572 53.713-31.216 72.44-101.87 117.36-144.79 40.298-38.507 134.55-99.279 134.55-99.279m-664.95 367.68s80.012-7.2178 117.29-20.917c50.566-18.585 88.887-63.279 139.62-81.415 49.58-17.725 110.61 1.761 155.97-24.975 53.631-31.611 70.622-103.53 115.15-147.04 40.735-39.801 136.92-102.2 136.92-102.2m-666.37 375.24s80.624-7.0506 118.03-21.14c50.8-19.136 88.391-65.634 139.41-84.186 49.68-18.066 111.32 2.7399 156.7-24.372 53.552-31.994 68.81-105.14 112.96-149.2 41.152-41.07 139.27-105.01 139.27-105.01m-667.79 382.61s81.236-6.8857 118.76-21.363c51.043-19.692 87.882-67.992 139.2-86.962 49.781-18.403 112.03 3.7179 157.44-23.762 53.476-32.363 67.005-106.69 110.8-151.28 41.549-42.311 141.59-107.71 141.59-107.71m-669.22 389.78s81.848-6.7231 119.5-21.588c51.294-20.252 87.36-70.353 138.99-89.745 49.885-18.738 112.74 4.6955 158.18-23.144 53.403-32.72 65.208-108.18 108.66-153.28 41.929-43.523 143.89-110.3 143.89-110.3m-670.64 396.75s82.46-6.5631 120.23-21.814c51.553-20.818 86.825-72.717 138.77-92.533 49.992-19.07 113.45 5.6729 158.93-22.52 53.329-33.062 63.419-109.6 106.54-155.19 42.291-44.706 146.17-112.77 146.17-112.77m-672.06 403.53s83.071-6.4058 120.95-22.041c51.82-21.388 86.276-75.085 138.55-95.327 50.101-19.399 114.16 6.6503 159.68-21.889 53.257-33.39 61.643-110.97 104.44-157.01 42.639-45.859 148.44-115.14 148.44-115.14m-673.49 410.11s83.681-6.2513 121.67-22.27c52.094-21.963 85.715-77.456 138.34-98.127 50.212-19.726 114.88 7.6282 160.44-21.25 53.183-33.704 59.876-112.28 102.37-158.75 42.97-46.983 150.67-117.4 150.67-117.4" fill="none" stroke="url(#linearGradient118139)" stroke-width=".23044px"/>
 <path d="m-14.501 428.23c47.347-12.238 98.083-84.319 149.98-92.073 61.235-9.149 111.1 43.307 174.56 44.518 105.12 2.0062 155.48-105.33 284-31.376 55.964 32.203 151.26 3.8855 203.34-58.986m-812.39 136.82c46.856-12.563 97.05-85.779 149.47-93.293 61.007-8.8847 111.81 43.058 175.91 43.676 103.71 1.6357 154.61-103.6 281.34-31.666 56.383 31.227 149.8 3.5524 202.59-57.556m-809.83 137.74c46.365-12.889 96.017-87.239 148.96-94.513 60.78-8.6203 112.52 42.81 177.26 42.835 102.3 1.2652 153.75-101.87 278.69-31.956 56.802 30.251 148.34 3.2194 201.84-56.125m-807.27 138.66c45.874-13.214 94.985-88.698 148.45-95.733 60.553-8.3558 113.23 42.561 178.62 41.993 100.9 0.89466 152.89-100.14 276.04-32.246 57.221 29.275 146.88 2.8861 201.08-54.694m-804.71 139.59c45.383-13.54 93.952-90.158 147.94-96.952 60.326-8.0914 113.94 42.313 179.97 41.152 99.488 0.52406 152.02-98.414 273.39-32.536 57.641 28.298 145.42 2.553 200.33-53.263m-802.14 140.51c44.892-13.865 92.919-91.618 147.43-98.172 60.099-7.827 114.66 42.065 181.32 40.31 98.079 0.15335 151.16-96.686 270.74-32.826 58.06 27.322 143.96 2.22 199.58-51.832m-799.58 141.43c44.401-14.19 91.887-93.078 146.92-99.392 59.871-7.5628 115.37 41.816 182.67 39.469 96.671-0.21687 150.3-94.957 268.09-33.116 58.479 26.346 142.5 1.8869 198.83-50.402m-797.02 142.35c43.91-14.516 90.854-94.537 146.41-100.61 59.644-7.2983 116.08 41.568 184.02 38.627 95.262-0.58739 149.43-93.229 265.44-33.406 58.898 25.37 141.04 1.5538 198.08-48.971m-794.46 143.27c43.419-14.841 89.821-95.997 145.9-101.83 59.417-7.0339 116.79 41.319 185.37 37.786 93.854-0.95799 148.57-91.501 262.79-33.697 59.318 24.394 139.59 1.2207 197.33-47.54m-791.43 144.02c42.794-15.594 88.527-97.309 144.92-102.88 59.19-6.7695 117.5 41.071 186.72 36.944 92.445-1.3286 147.71-89.772 260.14-33.987 59.737 23.418 138.13 0.88762 196.58-46.109m-788.36 144.74c42.155-16.401 87.216-98.588 143.9-103.9 58.962-6.5051 118.22 40.822 188.08 36.102 91.037-1.699 146.85-88.044 257.49-34.277 60.156 22.442 136.67 0.55449 195.83-44.679m-785.29 145.44c41.517-17.219 85.914-99.846 142.88-104.9 58.735-6.2407 118.93 40.574 189.43 35.261 89.628-2.0695 145.98-86.315 254.84-34.567 60.575 21.466 135.21 0.22161 195.08-43.248m-782.21 146.12c40.878-18.049 84.622-101.08 141.85-105.88 58.508-5.9763 119.64 40.326 190.78 34.42 88.22-2.4401 145.12-84.587 252.18-34.857 60.995 20.49 133.75-0.1121 194.33-41.817m-779.14 146.77c40.241-18.888 83.341-102.29 140.83-106.83 58.281-5.7119 120.35 40.077 192.13 33.578 86.811-2.8106 144.26-82.859 249.53-35.147 61.414 19.514 132.29-0.44485 193.57-40.386m-776.07 147.41c39.603-19.739 82.071-103.48 139.81-107.77 58.054-5.4476 121.06 39.829 193.48 32.736 85.403-3.181 143.39-81.13 246.88-35.437 61.833 18.538 130.83-0.77779 192.82-38.956m-772.99 148.01c38.967-20.6 80.811-104.64 138.78-108.67 57.826-5.1832 121.77 39.58 194.83 31.895 83.994-3.5516 142.53-79.402 244.23-35.727 62.252 17.561 129.37-1.1111 192.07-37.525m-769.92 148.6c38.331-21.47 79.563-105.77 137.76-109.55 57.599-4.9187 122.49 39.332 196.18 31.054 82.586-3.9222 141.67-77.673 241.58-36.017 62.672 16.585 127.91-1.4442 191.32-36.094m-766.85 149.15c37.696-22.35 78.326-106.88 136.74-110.41 57.372-4.6544 123.2 39.084 197.54 30.212 81.177-4.2926 140.8-75.945 238.93-36.307 63.091 15.609 126.46-1.7773 190.57-34.663m-763.77 149.68c37.062-23.238 77.102-107.95 135.72-111.24 57.145-4.3901 123.91 38.835 198.89 29.37 79.769-4.6632 139.94-74.217 236.28-36.597 63.51 14.633 125-2.1103 189.82-33.233m-760.7 150.17c36.429-24.135 75.89-108.99 134.69-112.03 56.917-4.1257 124.62 38.587 200.24 28.529 78.36-5.0337 139.08-72.488 233.63-36.887 63.929 13.657 123.54-2.4435 189.07-31.802m-757.63 150.64c35.799-25.039 74.692-110 133.67-112.79 56.69-3.8612 125.33 38.339 201.59 27.688 76.952-5.4043 138.21-70.76 230.98-37.178 64.349 12.681 122.08-2.7766 188.32-30.371m-754.55 151.07c35.17-25.95 73.507-110.97 132.65-113.52 56.463-3.5968 126.05 38.09 202.94 26.846 75.543-5.7748 137.35-69.031 228.33-37.468 64.768 11.705 120.62-3.1098 187.57-28.94m-751.48 151.46c34.543-26.865 72.337-111.9 131.62-114.21 56.236-3.3324 126.76 37.842 204.29 26.005 74.135-6.1453 136.49-67.303 225.68-37.758 65.187 10.729 119.16-3.4428 186.81-27.51m-748.41 151.82c33.919-27.787 71.181-112.79 130.6-114.87 56.009-3.068 127.47 37.593 205.64 25.163 72.726-6.5158 135.62-65.574 223.02-38.048 65.606 9.7528 117.7-3.7759 186.06-26.079m-745.33 152.13c33.297-28.712 70.039-113.64 129.58-115.48 55.781-2.8036 128.18 37.345 207 24.321 71.318-6.8863 134.76-63.846 220.37-38.338 66.026 8.7767 116.24-4.109 185.31-24.648m-742.26 152.41c32.679-29.639 68.915-114.44 128.55-116.06 55.554-2.5392 128.89 37.097 208.35 23.48 69.909-7.2569 133.9-62.118 217.72-38.628 66.445 7.8005 114.78-4.4422 184.56-23.217m-739.19 152.63c32.064-30.567 67.806-115.2 127.53-116.58 55.327-2.2748 129.6 36.848 209.7 22.638 68.501-7.6273 133.03-60.389 215.07-38.918 66.864 6.8246 113.33-4.7753 183.81-21.787m-736.11 152.81c31.453-31.497 66.713-115.91 126.51-117.06 55.1-2.0104 130.32 36.6 211.05 21.797 67.092-7.9979 132.17-58.661 212.42-39.208 67.283 5.8485 111.87-5.1083 183.06-20.356m-733.04 152.95c30.846-32.423 65.639-116.56 125.49-117.49 54.872-1.746 131.03 36.351 212.4 20.955 65.684-8.3685 131.31-56.933 209.77-39.498 67.703 4.8724 110.41-5.4414 182.31-18.925m-729.97 153.03c30.244-33.348 64.583-117.16 124.46-117.87 54.645-1.4817 131.74 36.103 213.75 20.114 64.275-8.7389 130.44-55.204 207.12-39.788 68.122 3.8963 108.95-5.7745 181.56-17.494m-726.89 153.05c29.647-34.267 63.546-117.7 123.44-118.2 54.418-1.2173 132.45 35.854 215.1 19.272 62.867-9.1094 129.58-53.476 204.47-40.078 68.541 2.9203 107.49-6.1075 180.81-16.063m-723.82 153.02c29.055-35.18 62.527-118.18 122.42-118.46 54.191-0.95282 133.16 35.606 216.46 18.431 61.458-9.48 128.72-51.747 201.82-40.368 68.96 1.9441 106.03-6.4407 180.05-14.633m-720.75 152.92c28.47-36.083 61.53-118.6 121.39-118.67 53.963-0.68843 133.88 35.358 217.81 17.589 60.05-9.8505 127.85-50.019 199.17-40.658 69.379 0.96806 104.57-6.7738 179.3-13.202m-717.67 152.76c27.891-36.976 60.552-118.95 120.37-118.81 53.736-0.42409 134.59 35.109 219.16 16.748 58.642-10.221 126.99-48.291 196.52-40.948 69.799-2e-3 103.11-7.1069 178.55-11.771m-714.6 152.54c27.32-37.855 59.597-119.23 119.35-118.88 53.509-0.15928 135.3 34.861 220.51 15.906 57.233-10.591 126.13-46.562 193.86-41.239 70.218-0.98413 101.65-7.44 177.8-10.34m-711.53 152.24c26.757-38.718 58.663-119.43 118.33-118.88 53.282 0.10476 136.01 34.612 221.86 15.065 55.825-10.962 125.26-44.834 191.21-41.529 70.637-1.9603 100.2-7.7732 177.05-8.9097m-708.45 151.87c26.201-39.563 57.753-119.55 117.3-118.81 53.055 0.3692 136.72 34.364 223.21 14.223 54.416-11.333 124.4-43.105 188.56-41.819 71.056-2.9364 98.736-8.1063 176.3-7.4789m-705.38 151.43c25.657-40.384 56.866-119.6 116.28-118.67 52.827 0.63354 137.43 34.116 224.56 13.382 53.008-11.703 123.54-41.377 185.91-42.109 71.476-3.9124 97.277-8.4394 175.55-6.0482m-702.31 150.9c25.121-41.182 56.004-119.57 115.26-118.44 52.6 0.89793 138.15 33.867 225.92 12.54 51.599-12.074 122.67-39.649 183.26-42.399 71.895-4.8885 95.819-8.7724 174.8-4.6174m-699.23 150.28c24.595-41.954 55.165-119.43 114.24-118.12 52.373 1.1623 138.86 33.619 227.27 11.699 50.191-12.444 121.81-37.92 180.61-42.689 72.314-5.8646 94.36-9.1056 174.05-3.1867" fill="none" stop-color="#000000" stroke="url(#linearGradient24274-3)" stroke-width=".69133" style="font-variation-settings:normal"/>
 <path d="m857.85-48.249c-128.68 16.182-119.45 180.31-237.8 199.39-78.673 4.4183-103.65-17.259-163.51-2.1875-71.305 17.953-113.85 79.99-174.78 85.851-65.26 6.2779-139.48-25.276-210.26 8.4193-43.946 20.921-64.439 74.202-90.149 112.43v52.079c57.666-33.062 107.72-83.63 149.33-96.812 42.415-13.435 85.972-5.5492 130.35-4.4767 39.08 0.94457 79.692-26.161 120-28.837 80.581-5.3503 167.67 15.325 246.65 2.4251 76.65-12.52 131-74.531 203.24-92.833 8.763-2.2202 17.768-3.5076 26.932-4.1802z" fill="url(#linearGradient4551-1-9)"/>
 <path d="m857.85 64.194c-80.119 10.647-120.55 43.067-170.07 110.93-58.779 80.545-168.26 49.132-168.26 49.132l129.2 45.581 209.13-38.07z" fill="url(#linearGradient12309-5-5)"/>
 <path d="m242.77 270.2c19.076 1.7552 68.448-0.94341 87.15-7.3265 95.113-46.3 130.66-98.97 239.09-67.506 121.58 35.28 163.48-130.33 289.02-148.67m-615.95 260.77s44.093-2.1777 105.84-5.8811c109.05-7.6833 142.51-5.653 261.77 26.724 81.994 22.259 169.75-84.588 248.36-98.724m-615.95 76.597c0.65783 0.0604 44.933-2.1352 105.2-5.931 108.52-9.1467 142.39-8.8949 260.99 23.474 82.801 22.599 170.44-84.427 249.77-99.434m-615.93 80.605c1.3156 0.12182 45.773-2.0926 104.55-5.9807 107.99-10.606 142.27-12.152 260.21 20.225 83.62 22.956 171.13-84.333 251.17-100.24m-615.9 84.715c1.9734 0.18132 46.612-2.0499 103.91-6.0306 107.37-12.064 142.28-15.385 259.43 16.976 84.452 23.329 171.82-84.316 252.55-101.16m-615.86 88.93c2.6311 0.24206 47.452-2.0075 103.27-6.0805 106.86-13.523 142.11-18.678 258.64 13.726 85.31 23.723 172.54-84.386 253.96-102.19m-615.84 93.262c3.2891 0.30276 48.292-1.9649 102.62-6.1303 106.38-14.978 141.92-21.995 257.86 10.477 86.194 24.14 173.28-84.554 255.38-103.34m-615.84 97.711c3.9468 0.36305 49.132-1.9223 101.98-6.1801 105.85-16.396 141.66-25.342 257.08 7.2277 87.101 24.579 174.02-84.827 256.8-104.61m-615.83 102.28c4.6046 0.42371 49.972-1.8797 101.33-6.2299 105.31-17.827 141.48-28.684 256.3 3.9785 88.026 25.041 174.76-85.214 258.2-106m-615.8 106.96c5.2624 0.48422 50.812-1.8372 100.69-6.2797 104.78-19.25 141.28-32.02 255.52 0.729 89.035 25.524 175.44-85.716 259.58-107.5m-615.76 111.76c5.9201 0.54465 51.651-1.7946 100.04-6.3296 104.24-20.664 141.06-35.387 254.73-2.5202 90.256 26.097 175.95-86.316 260.95-109.12m-615.7 116.68c6.578 0.60526 52.491-1.752 99.398-6.3795 103.71-22.068 140.84-38.788 253.95-5.7694 91.359 26.669 176.65-87.125 262.36-110.87m-615.68 121.73c7.2358 0.66574 53.331-1.7095 98.753-6.4293 103.17-23.462 140.61-42.213 253.17-9.0188 92.508 27.281 177.34-88.112 263.76-112.73m-615.66 126.89c7.8936 0.72626 54.171-1.6669 98.109-6.4791 102.65-24.845 140.36-45.665 252.39-12.268 93.709 27.937 178.04-89.299 265.16-114.7m-615.63 132.16c8.5514 0.78677 55.011-1.6244 97.464-6.529 102.12-26.217 140.1-49.146 251.61-15.517 94.963 28.64 178.75-90.709 266.56-116.77m-615.6 137.53c9.2092 0.8473 55.85-1.5818 96.819-6.5789 101.61-27.577 139.83-52.658 250.82-18.767 96.268 29.396 179.49-92.366 267.96-118.93m-615.58 142.99c9.867 0.90786 56.69-1.5392 96.175-6.6286 101.1-28.924 139.55-56.202 250.04-22.016 97.622 30.203 180.27-94.293 269.36-121.15m-615.55 148.51c10.525 0.96836 57.53-1.4967 95.53-6.6784 100.59-30.258 139.25-59.778 249.26-25.265 99.02 31.065 181.12-96.514 270.76-123.43m-615.52 154.09c11.183 1.0289 58.37-1.4542 94.886-6.7284 100.1-31.579 138.99-63.533 248.48-28.514 99.269 31.748 182.48-99.159 272.15-125.73m-615.49 159.69c11.84 1.0895 59.21-1.4116 94.241-6.7782 99.614-32.886 138.66-67.18 247.7-31.764 100.66 32.696 183.39-101.95 273.57-128.04m-615.48 165.3c12.498 1.1499 60.049-1.369 93.596-6.828 99.139-34.179 138.32-70.846 246.91-35.013 102.1 33.691 184.37-105.02 274.97-130.32m-615.45 170.88c13.156 1.2106 60.889-1.3264 92.952-6.8778 98.676-35.458 137.96-74.517 246.13-38.262 103.61 34.724 185.45-108.34 276.37-132.54m-615.43 176.39c13.814 1.271 61.729-1.2838 92.307-6.9277 98.225-36.722 137.57-78.178 245.35-41.512 105.19 35.784 186.65-111.9 277.77-134.66m-615.4 181.82c14.472 1.3314 62.569-1.2413 91.662-6.9776 97.787-37.971 137.13-81.779 244.57-44.761 106.15 36.574 186.45-114.72 277.16-136.23 0.68421-0.15596 1.3667-0.31037 2.0476-0.46291m-615.42 187.14c15.129 1.392 63.409-1.1987 91.018-7.0274 97.362-39.206 136.02-83.46 243.79-48.01 118.17 38.869 169.39-115.04 280.62-138.64m-615.4 192.39c15.787 1.4526 64.249-1.1562 90.373-7.0773 96.951-40.426 135.23-86.196 243-51.26 118.81 38.513 168.55-117.78 282.03-140.51m-615.38 197.56c16.445 1.513 65.088-1.1136 89.729-7.127 96.554-41.631 134.4-88.878 242.22-54.509 119.45 38.077 167.58-120.44 283.42-142.29m-615.35 202.64c17.103 1.5736 65.928-1.0711 89.084-7.1769 96.172-42.821 133.53-91.495 241.44-57.758 120.07 37.539 166.56-123.03 284.84-144m-615.34 207.65c17.761 1.6342 66.768-1.0285 88.439-7.2267 95.804-43.996 132.62-94.055 240.66-61.007 120.63 36.898 165.51-125.54 286.22-145.63m-615.29 212.57c18.418 1.6946 67.608-0.98584 87.795-7.2765 95.451-45.155 131.66-96.542 239.88-64.257 121.14 36.141 164.5-127.99 287.64-147.19" fill="none" stroke="url(#linearGradient6948-2)" stroke-width=".23044px"/>
 <path d="m857.85 131.34c-8.805 1.2746-18.073 2.9461-28.158 5.1625-103.54 22.755-121.95 107.92-199.8 100.09-37.83-3.8081-120.56-27.128-157.75-20.148-63.35 11.892-90.642 52.521-155.53 58.478-76.148 6.99-124.35-30.99-199.85-19.686-63.435 9.4975-98.808 81.881-128.39 118.08-2.2608 2.7663-4.6048 5.341-7.0157 7.7702v26.615c22.884-11.282 42.289-22.667 53.261-29.795 157.53-134.06 133.05-22.229 254.12-29.979 40.935-2.6207 144.43-80.891 185.55-89.446 84.941-17.669 101.86 41.639 186.49 27.925 69.957-11.336 132.05-50.716 197.07-75.007z" fill="url(#linearGradient4479-5-0)"/>
 <path d="m857.85 188.3c-1.3514 0.22279-2.6971 0.41548-4.0565 0.67977-50.496 9.8175-87.049 43.824-149.07 80.133-69.002 40.398-168.47-49.151-237.03-31.971-69.657 17.454-100.43 77.457-169.52 87.13-69.898 9.7858-112.06-76.342-204.11-39.589-55.238 22.055-73.218 77.546-99.896 104.9-4.2279 4.3353-8.4924 8.2291-12.818 11.761v31.163c7.0471-2.9258 14.22-6.4319 21.552-10.636 56.407-32.345 79.192-102.7 147.25-107.04 37.143-2.3688 80.151 43.537 137.13 50.588 76.212 9.432 129.48-63.042 173.29-70.823 90.246-16.027 122.14 50.093 189.22 57.547 87.672 9.7431 142.73-60.265 208.06-96.952z" fill="url(#linearGradient4687-8-9)"/>
 <path d="m857.87 201.71c-62.694 44.291-115.95 150.99-197.62 150.96 81.61 3.2779 134.93-62.308 197.62-97.448zm-360.37 52.205c-78.498 1.2914-122.19 107.97-202.44 112.18 72.053 3.7835 123.23-63.997 165.52-71.508 90.246-16.027 122.14 50.093 189.22 57.547-62.884-6.9883-78.053-99.442-152.29-98.221zm-350.36 41.369c-66.944-0.8023-115.18 110.23-165.78 129.49v6.6299c6.9149-3.1086 13.873-6.5463 20.792-10.346 56.407-32.345 79.952-101.9 148.01-106.24 37.143-2.3688 80.151 43.755 137.13 50.806-56.976-7.0512-78.594-69.608-140.14-70.345z" fill="#e9ebed" fill-opacity=".49133" opacity=".23994"/>
 <path d="m857.85 249.31c-60.668 36.629-115.62 100.92-193.21 103.25-1.4548 0.0678-2.9154 0.11211-4.3884 0.1114 2.5503 0.10262 5.073 0.13794 7.5693 0.10902 9.9834-0.11613 19.544-1.2617 28.753-3.2384 1.6516-0.35446 3.2783-0.7652 4.9078-1.1721 0.6424-0.16022 1.2961-0.29342 1.9352-0.46175 0-3.3e-4 0-6.4e-4 7e-3 -1e-3 1.0849-0.28579 2.1506-0.61908 3.2261-0.92717 1.1652-0.33379 2.3399-0.64522 3.4944-1.0044 2.218-0.69001 4.4155-1.4257 6.5955-2.2046 0-6.4e-4 0-2e-3 7e-3 -2e-3 2.1796-0.7788 4.3413-1.6002 6.4853-2.4619 0-6.1e-4 7e-3 -2e-3 7e-3 -2e-3 0.24908-0.10002 0.49225-0.21236 0.74098-0.31354 1.8933-0.7706 3.7789-1.5604 5.6463-2.3908 2.1104-0.93848 4.2039-1.9132 6.2832-2.9224 0-1e-3 7e-3 -2e-3 7e-3 -5e-3 1.9631-0.95282 3.9122-1.9411 5.8496-2.9518 0.11684-0.0611 0.23606-0.11661 0.35274-0.17752 2.0497-1.0736 4.0849-2.1773 6.1081-3.3094 0-2e-3 7e-3 -2e-3 9e-3 -5e-3 2.0233-1.1322 4.0343-2.2925 6.0334-3.4772 0-2e-3 7e-3 -2e-3 9e-3 -5e-3 1.9989-1.1847 3.9866-2.393 5.9636-3.6242 0-2e-3 7e-3 -5e-3 9e-3 -7e-3 1.9769-1.2312 3.9425-2.4836 5.8999-3.7552 0-2e-3 7e-3 -5e-3 9e-3 -7e-3 3.9173-2.5451 7.7976-5.1656 11.65-7.8363 0-2e-3 7e-3 -5e-3 9e-3 -7e-3 1.7934-1.2433 3.5639-2.5267 5.3463-3.7895 2.0499-1.4523 4.1119-2.8866 6.1497-4.3578 7.6149-5.4977 15.154-11.102 22.694-16.618 0-2e-3 7e-3 -2e-3 7e-3 -5e-3 0.24507-0.17942 0.48988-0.35372 0.73488-0.5328 3.5294-2.5793 7.0592-5.1428 10.597-7.6611 3.7755-2.6876 7.5597-5.3298 11.362-7.9012v-1e-3c3.0715-2.0769 6.1669-4.0681 9.2668-6.0407 0.74417-0.47348 1.4782-0.98358 2.2242-1.4502 1.9256-1.2042 3.8578-2.3833 5.7982-3.5372 1.1236-0.66817 2.2562-1.3075 3.3853-1.9572 0.82213-0.47301 1.639-0.9617 2.4643-1.4244zm-366.93 38.996v1e-3c-76.351-1.981-109.08 79.869-195.86 77.791 72.053 3.7835 123.23-63.997 165.52-71.508 2.7421-0.48699 5.4259-0.8916 8.0629-1.2309 0.87138-0.11211 1.7094-0.17658 2.5696-0.27314 1.7482-0.19624 3.4981-0.39406 5.2017-0.52787 0.98973-0.0777 1.9461-0.11069 2.9212-0.16781 1.5253-0.0898 3.0548-0.18558 4.5452-0.22658 1.0149-0.028 2.0016-0.0166 3.0008-0.0237 1.4166-9e-3 2.8359-0.019 4.2219 0.0119 0.96503 0.0213 1.9081 0.0789 2.8587 0.12254 1.3923 0.0635 2.7812 0.12941 4.1435 0.23393 0.90411 0.0694 1.7922 0.16165 2.6835 0.24863 1.3568 0.13249 2.7075 0.27292 4.0357 0.44461 0.8688 0.11259 1.725 0.24256 2.5819 0.37112 1.3319 0.19957 2.6555 0.41074 3.9598 0.6479 0.79156 0.1441 1.576 0.29826 2.3577 0.45564 1.3532 0.27206 2.6935 0.56072 4.0186 0.87083 0.7094 0.16638 1.4161 0.33658 2.1177 0.51321 1.3687 0.34421 2.7223 0.70803 4.0626 1.0901 0.62192 0.17728 1.2432 0.3549 1.8592 0.54013 1.442 0.43302 2.8668 0.8887 4.2782 1.362 0.48555 0.16307 0.97296 0.32362 1.4551 0.49114 1.5411 0.53492 3.0632 1.0936 4.571 1.6719 0.33502 0.12846 0.67329 0.25268 1.0068 0.38335 1.7171 0.67207 3.4135 1.3714 5.0915 2.0932 0.10855 0.0467 0.21853 0.0915 0.32703 0.13842 7.158 3.0962 13.963 6.6289 20.613 10.325 0.58725 0.32668 1.1741 0.65179 1.7588 0.98107 10.917 6.1429 21.432 12.678 32.211 18.581 0.35998 0.1972 0.7245 0.38475 1.0852 0.58057 12.613 6.8424 25.653 12.743 40.289 15.932-54.188-12.313-78.165-60.125-147.54-61.925zm-337.55 24.178c-1.173-0.0237-2.3398 2e-3 -3.5005 0.0758-68.057 4.3402-96.146 76.808-152.46 109.31-5.4433 3.142-10.812 5.8429-16.049 8.2184v2.3761c2.1858-0.9117 4.3731-1.8306 6.5845-2.8575 1.7818-0.83298 3.576-1.6928 5.3977-2.6125 0.69651-0.35064 1.3951-0.71023 2.0944-1.0729 2.4641-1.2802 4.9482-2.6083 7.4737-4.0565 56.407-32.344 79.193-102.7 147.25-107.04 27.857-1.7766 59.013 23.724 96.887 39.56 3.1561 1.3196 6.3584 2.5728 9.6098 3.7368 5.962 2.1345 12.11 3.9179 18.411 5.3254-49.3-11.272-88.069-50.325-121.7-50.964zm121.7 50.964c0.95867 0.21924 1.9177 0.43554 2.8844 0.63323-0.96842-0.19411-1.9242-0.41873-2.8844-0.63323zm2.8844 0.63323c1.2779 0.25612 2.5548 0.51375 3.8471 0.73245-1.2904-0.22161-2.5708-0.47142-3.8471-0.73245zm3.8471 0.73245c0.19246 0.0329 0.3842 0.0671 0.57689 0.0993-0.19292-0.0318-0.38436-0.0666-0.57689-0.0993zm0.57689 0.0993c1.6266 0.26754 3.2604 0.51477 4.9102 0.71893-1.6488-0.20407-3.2842-0.44789-4.9102-0.71893zm356.09-14.68c1.8102 0.41133 3.657 0.77852 5.5434 1.0974 1.9014 0.3143 3.8244 0.59064 5.7835 0.80836-3.8967-0.43305-7.6494-1.1044-11.327-1.9058z" fill="url(#linearGradient14655-7)"/>
 <path d="m857.85 127.85s-17.103 3.0611-26.214 5.7504c-108.48 32.021-116.84 97.413-188.13 103.72-30.608 2.7071-118.73-28.277-167.75-21.452-63.294 8.8117-96.103 50.087-151.45 57.848-68.155 9.5571-138.56-33.874-215.4-18.593-59.922 11.915-83.93 74.576-127.55 122.72v2.9071c36.766-36.797 66.489-110.24 127.55-124.06 74.457-16.845 154.43 33.659 216.95 19.253 67.401-15.53 87.112-48.647 149.92-58.522 55.719-8.7595 131.87 28.357 168.1 23.925 66.438-8.1287 90.806-75.387 193.5-105.09 6.9067-1.9974 20.479-3.1882 20.479-3.1882z" fill="url(#linearGradient25349-7)"/>
</svg>
