<?xml version="1.0" encoding="UTF-8" standalone="no"?>
<!-- Created with Inkscape (http://www.inkscape.org/) -->

<svg
   width="360"
   height="720"
   viewBox="0 0 95.249995 190.50003"
   version="1.1"
   id="svg1140"
   xmlns:xlink="http://www.w3.org/1999/xlink"
   xmlns="http://www.w3.org/2000/svg"
   xmlns:svg="http://www.w3.org/2000/svg">
  <defs
     id="defs1137">
    <linearGradient
       xlink:href="#linearGradient29544"
       id="linearGradient29546-2"
       x1="132.10901"
       y1="575.51141"
       x2="1068.3112"
       y2="320.25305"
       gradientUnits="userSpaceOnUse"
       gradientTransform="matrix(0.19635675,0.02084379,-0.02084379,0.19635675,-149.52558,38.988404)" />
    <linearGradient
       id="linearGradient29544">
      <stop
         style="stop-color:#1c52f2;stop-opacity:1"
         offset="0"
         id="stop29540" />
      <stop
         style="stop-color:#d62bc3;stop-opacity:0.42363399"
         offset="1"
         id="stop29542" />
    </linearGradient>
    <linearGradient
       xlink:href="#linearGradient4549"
       id="linearGradient4551-1"
       x1="1218.4554"
       y1="30.736158"
       x2="-51.688805"
       y2="481.46146"
       gradientUnits="userSpaceOnUse"
       gradientTransform="matrix(0.19635675,0.02084379,-0.02084379,0.19635675,-149.52558,38.988404)" />
    <linearGradient
       id="linearGradient4549">
      <stop
         style="stop-color:#4886f2;stop-opacity:1;"
         offset="0"
         id="stop4545" />
      <stop
         style="stop-color:#8f4bcd;stop-opacity:1"
         offset="1"
         id="stop4547" />
    </linearGradient>
    <linearGradient
       xlink:href="#linearGradient10986"
       id="linearGradient12309-5"
       gradientUnits="userSpaceOnUse"
       x1="1343.8644"
       y1="191.42802"
       x2="861.3941"
       y2="436.60165"
       gradientTransform="matrix(0.19745994,0,0,0.19745994,-166.55026,32.412645)" />
    <linearGradient
       id="linearGradient10986">
      <stop
         style="stop-color:#6659f2;stop-opacity:1"
         offset="0"
         id="stop10982" />
      <stop
         style="stop-color:#628af5;stop-opacity:1"
         offset="1"
         id="stop10984" />
    </linearGradient>
    <linearGradient
       xlink:href="#linearGradient1509"
       id="linearGradient1511-9"
       x1="466.89359"
       y1="475.49548"
       x2="1404.4065"
       y2="195.51314"
       gradientUnits="userSpaceOnUse"
       gradientTransform="matrix(0.19745994,0,0,0.19745994,-166.55026,32.412645)" />
    <linearGradient
       id="linearGradient1509">
      <stop
         style="stop-color:#3e2fdd;stop-opacity:1"
         offset="0"
         id="stop1505" />
      <stop
         style="stop-color:#a4007e;stop-opacity:1"
         offset="1"
         id="stop1507" />
    </linearGradient>
    <linearGradient
       xlink:href="#linearGradient4477"
       id="linearGradient4479-5"
       x1="1327.1652"
       y1="150.93445"
       x2="-27.439623"
       y2="614.6449"
       gradientUnits="userSpaceOnUse"
       gradientTransform="matrix(0.19635675,0.02084379,-0.02084379,0.19635675,-149.52558,38.988404)" />
    <linearGradient
       id="linearGradient4477">
      <stop
         style="stop-color:#578bf2;stop-opacity:1"
         offset="0"
         id="stop4473" />
      <stop
         style="stop-color:#5a74fa;stop-opacity:1"
         offset="1"
         id="stop4475" />
    </linearGradient>
    <linearGradient
       xlink:href="#linearGradient4685-3"
       id="linearGradient4687-8"
       x1="1284.0638"
       y1="231.57774"
       x2="-19.021584"
       y2="636.71533"
       gradientUnits="userSpaceOnUse"
       gradientTransform="matrix(0.19635675,0.02084379,-0.02084379,0.19635675,-149.52558,38.988404)" />
    <linearGradient
       id="linearGradient4685-3">
      <stop
         style="stop-color:#542ef2;stop-opacity:1"
         offset="0"
         id="stop4681-8" />
      <stop
         style="stop-color:#4a98e4;stop-opacity:1"
         offset="0.47512516"
         id="stop26809" />
      <stop
         style="stop-color:#5393f2;stop-opacity:1"
         offset="1"
         id="stop4683-5" />
    </linearGradient>
    <linearGradient
       xlink:href="#linearGradient31045"
       id="linearGradient30817"
       x1="-757.29144"
       y1="414.48566"
       x2="687.20605"
       y2="74.068878"
       gradientUnits="userSpaceOnUse"
       gradientTransform="matrix(0.19745994,0,0,0.19745994,-27.56537,76.278834)" />
    <linearGradient
       id="linearGradient31045">
      <stop
         style="stop-color:#94a642;stop-opacity:1"
         offset="0"
         id="stop31041" />
      <stop
         style="stop-color:#83aa61;stop-opacity:1"
         offset="0.31171572"
         id="stop31403" />
      <stop
         style="stop-color:#dc8cd1;stop-opacity:1"
         offset="0.59436423"
         id="stop31273" />
      <stop
         style="stop-color:#6cdddb;stop-opacity:1"
         offset="1"
         id="stop31043" />
    </linearGradient>
    <linearGradient
       xlink:href="#linearGradient25627"
       id="linearGradient25349"
       x1="-19.32687"
       y1="174.87611"
       x2="365.09894"
       y2="71.86953"
       gradientUnits="userSpaceOnUse"
       gradientTransform="matrix(0.80364389,0,0,0.80364389,-192.46272,22.608297)" />
    <linearGradient
       id="linearGradient25627">
      <stop
         style="stop-color:#bda62c;stop-opacity:1;"
         offset="0"
         id="stop25607" />
      <stop
         style="stop-color:#ae9a28;stop-opacity:0.98823529"
         offset="0.14668909"
         id="stop25609" />
      <stop
         style="stop-color:#8c7b20;stop-opacity:0.96862745"
         offset="0.30530512"
         id="stop25613" />
      <stop
         style="stop-color:#bda62c;stop-opacity:0.95686275;"
         offset="0.51079261"
         id="stop25617" />
      <stop
         style="stop-color:#82721e;stop-opacity:0.94901961"
         offset="0.62310421"
         id="stop25619" />
      <stop
         style="stop-color:#c0ab2c;stop-opacity:0.99607843"
         offset="0.83540899"
         id="stop25623" />
      <stop
         style="stop-color:#7f6f1e;stop-opacity:0.92156863"
         offset="1"
         id="stop25625" />
    </linearGradient>
    <linearGradient
       xlink:href="#linearGradient14653"
       id="linearGradient14655"
       x1="-46.183235"
       y1="706.05402"
       x2="1721.9431"
       y2="445.6926"
       gradientUnits="userSpaceOnUse"
       gradientTransform="matrix(0.2126308,0,0,0.2126308,-192.46272,22.608297)" />
    <linearGradient
       id="linearGradient14653">
      <stop
         style="stop-color:#bda62c;stop-opacity:1;"
         offset="0"
         id="stop14649" />
      <stop
         style="stop-color:#615516;stop-opacity:0.98823529"
         offset="0.09857609"
         id="stop16599" />
      <stop
         style="stop-color:#cab12f;stop-opacity:0.97647059"
         offset="0.25338677"
         id="stop16339" />
      <stop
         style="stop-color:#8c7b20;stop-opacity:0.96862745"
         offset="0.33815062"
         id="stop16405" />
      <stop
         style="stop-color:#87771f;stop-opacity:0.96470588"
         offset="0.4215126"
         id="stop15309" />
      <stop
         style="stop-color:#bda62c;stop-opacity:0.95686275;"
         offset="0.53338844"
         id="stop15113" />
      <stop
         style="stop-color:#82721e;stop-opacity:0.94901961"
         offset="0.62310421"
         id="stop15179" />
      <stop
         style="stop-color:#80711e;stop-opacity:0.93725497"
         offset="0.73470789"
         id="stop15823" />
      <stop
         style="stop-color:#d7be31;stop-opacity:0.92941177"
         offset="0.83540899"
         id="stop15889" />
      <stop
         style="stop-color:#bda62c;stop-opacity:0.9217537"
         offset="1"
         id="stop14651" />
    </linearGradient>
    <linearGradient
       xlink:href="#linearGradient4685-3"
       id="linearGradient4687-8-6"
       x1="1284.0638"
       y1="231.57774"
       x2="-19.021584"
       y2="636.71533"
       gradientUnits="userSpaceOnUse"
       gradientTransform="matrix(0.25907595,0.0275016,-0.0275016,0.25907595,-175.11725,9.7616869)" />
    <linearGradient
       xlink:href="#linearGradient4477"
       id="linearGradient4479-5-1"
       x1="1327.1652"
       y1="150.93445"
       x2="-27.439623"
       y2="614.6449"
       gradientUnits="userSpaceOnUse"
       gradientTransform="matrix(0.25907595,0.0275016,-0.0275016,0.25907595,-175.11725,9.7616869)" />
    <linearGradient
       xlink:href="#linearGradient1509"
       id="linearGradient6948"
       gradientUnits="userSpaceOnUse"
       gradientTransform="matrix(0.26053154,0,0,0.26053154,-197.57985,0.25207766)"
       x1="466.89359"
       y1="475.49548"
       x2="1404.4065"
       y2="195.51314" />
    <linearGradient
       xlink:href="#linearGradient10986"
       id="linearGradient12309-5-4"
       gradientUnits="userSpaceOnUse"
       x1="1343.8644"
       y1="191.42802"
       x2="861.3941"
       y2="436.60165"
       gradientTransform="matrix(0.26053154,0,0,0.26053154,-197.57985,1.0855276)" />
    <linearGradient
       xlink:href="#linearGradient4549"
       id="linearGradient4551-1-8"
       x1="1218.4554"
       y1="30.736158"
       x2="-51.688805"
       y2="481.46146"
       gradientUnits="userSpaceOnUse"
       gradientTransform="matrix(0.25907595,0.0275016,-0.0275016,0.25907595,-175.11725,9.7616869)" />
    <linearGradient
       xlink:href="#linearGradient29544"
       id="linearGradient24274"
       gradientUnits="userSpaceOnUse"
       gradientTransform="matrix(0.25907595,0.02750162,-0.02750162,0.25907595,-175.11725,9.7616869)"
       x1="132.10901"
       y1="575.51141"
       x2="1068.3112"
       y2="320.25305" />
    <linearGradient
       xlink:href="#linearGradient29544"
       id="linearGradient1273"
       gradientUnits="userSpaceOnUse"
       gradientTransform="matrix(0.25907595,0.02750162,-0.02750162,0.25907595,-175.11725,9.7616869)"
       x1="132.10901"
       y1="575.51141"
       x2="1068.3112"
       y2="320.25305" />
    <linearGradient
       xlink:href="#linearGradient29544"
       id="linearGradient1275"
       gradientUnits="userSpaceOnUse"
       gradientTransform="matrix(0.25907595,0.02750162,-0.02750162,0.25907595,-175.11725,9.7616869)"
       x1="132.10901"
       y1="575.51141"
       x2="1068.3112"
       y2="320.25305" />
    <linearGradient
       xlink:href="#linearGradient29544"
       id="linearGradient1277"
       gradientUnits="userSpaceOnUse"
       gradientTransform="matrix(0.25907595,0.02750162,-0.02750162,0.25907595,-175.11725,9.7616869)"
       x1="132.10901"
       y1="575.51141"
       x2="1068.3112"
       y2="320.25305" />
    <linearGradient
       xlink:href="#linearGradient29544"
       id="linearGradient1279"
       gradientUnits="userSpaceOnUse"
       gradientTransform="matrix(0.25907595,0.02750162,-0.02750162,0.25907595,-175.11725,9.7616869)"
       x1="132.10901"
       y1="575.51141"
       x2="1068.3112"
       y2="320.25305" />
    <linearGradient
       xlink:href="#linearGradient29544"
       id="linearGradient1281"
       gradientUnits="userSpaceOnUse"
       gradientTransform="matrix(0.25907595,0.02750162,-0.02750162,0.25907595,-175.11725,9.7616869)"
       x1="132.10901"
       y1="575.51141"
       x2="1068.3112"
       y2="320.25305" />
    <linearGradient
       xlink:href="#linearGradient29544"
       id="linearGradient1283"
       gradientUnits="userSpaceOnUse"
       gradientTransform="matrix(0.25907595,0.02750162,-0.02750162,0.25907595,-175.11725,9.7616869)"
       x1="132.10901"
       y1="575.51141"
       x2="1068.3112"
       y2="320.25305" />
    <linearGradient
       xlink:href="#linearGradient29544"
       id="linearGradient1285"
       gradientUnits="userSpaceOnUse"
       gradientTransform="matrix(0.25907595,0.02750162,-0.02750162,0.25907595,-175.11725,9.7616869)"
       x1="132.10901"
       y1="575.51141"
       x2="1068.3112"
       y2="320.25305" />
    <linearGradient
       xlink:href="#linearGradient29544"
       id="linearGradient1287"
       gradientUnits="userSpaceOnUse"
       gradientTransform="matrix(0.25907595,0.02750162,-0.02750162,0.25907595,-175.11725,9.7616869)"
       x1="132.10901"
       y1="575.51141"
       x2="1068.3112"
       y2="320.25305" />
    <linearGradient
       xlink:href="#linearGradient29544"
       id="linearGradient1289"
       gradientUnits="userSpaceOnUse"
       gradientTransform="matrix(0.25907595,0.02750162,-0.02750162,0.25907595,-175.11725,9.7616869)"
       x1="132.10901"
       y1="575.51141"
       x2="1068.3112"
       y2="320.25305" />
    <linearGradient
       xlink:href="#linearGradient29544"
       id="linearGradient1291"
       gradientUnits="userSpaceOnUse"
       gradientTransform="matrix(0.25907595,0.02750162,-0.02750162,0.25907595,-175.11725,9.7616869)"
       x1="132.10901"
       y1="575.51141"
       x2="1068.3112"
       y2="320.25305" />
    <linearGradient
       xlink:href="#linearGradient29544"
       id="linearGradient1293"
       gradientUnits="userSpaceOnUse"
       gradientTransform="matrix(0.25907595,0.02750162,-0.02750162,0.25907595,-175.11725,9.7616869)"
       x1="132.10901"
       y1="575.51141"
       x2="1068.3112"
       y2="320.25305" />
    <linearGradient
       xlink:href="#linearGradient29544"
       id="linearGradient1295"
       gradientUnits="userSpaceOnUse"
       gradientTransform="matrix(0.25907595,0.02750162,-0.02750162,0.25907595,-175.11725,9.7616869)"
       x1="132.10901"
       y1="575.51141"
       x2="1068.3112"
       y2="320.25305" />
    <linearGradient
       xlink:href="#linearGradient29544"
       id="linearGradient1297"
       gradientUnits="userSpaceOnUse"
       gradientTransform="matrix(0.25907595,0.02750162,-0.02750162,0.25907595,-175.11725,9.7616869)"
       x1="132.10901"
       y1="575.51141"
       x2="1068.3112"
       y2="320.25305" />
    <linearGradient
       xlink:href="#linearGradient29544"
       id="linearGradient1299"
       gradientUnits="userSpaceOnUse"
       gradientTransform="matrix(0.25907595,0.02750162,-0.02750162,0.25907595,-175.11725,9.7616869)"
       x1="132.10901"
       y1="575.51141"
       x2="1068.3112"
       y2="320.25305" />
    <linearGradient
       xlink:href="#linearGradient29544"
       id="linearGradient1301"
       gradientUnits="userSpaceOnUse"
       gradientTransform="matrix(0.25907595,0.02750162,-0.02750162,0.25907595,-175.11725,9.7616869)"
       x1="132.10901"
       y1="575.51141"
       x2="1068.3112"
       y2="320.25305" />
    <linearGradient
       xlink:href="#linearGradient29544"
       id="linearGradient1303"
       gradientUnits="userSpaceOnUse"
       gradientTransform="matrix(0.25907595,0.02750162,-0.02750162,0.25907595,-175.11725,9.7616869)"
       x1="132.10901"
       y1="575.51141"
       x2="1068.3112"
       y2="320.25305" />
    <linearGradient
       xlink:href="#linearGradient29544"
       id="linearGradient1305"
       gradientUnits="userSpaceOnUse"
       gradientTransform="matrix(0.25907595,0.02750162,-0.02750162,0.25907595,-175.11725,9.7616869)"
       x1="132.10901"
       y1="575.51141"
       x2="1068.3112"
       y2="320.25305" />
    <linearGradient
       xlink:href="#linearGradient29544"
       id="linearGradient1307"
       gradientUnits="userSpaceOnUse"
       gradientTransform="matrix(0.25907595,0.02750162,-0.02750162,0.25907595,-175.11725,9.7616869)"
       x1="132.10901"
       y1="575.51141"
       x2="1068.3112"
       y2="320.25305" />
    <linearGradient
       xlink:href="#linearGradient29544"
       id="linearGradient1309"
       gradientUnits="userSpaceOnUse"
       gradientTransform="matrix(0.25907595,0.02750162,-0.02750162,0.25907595,-175.11725,9.7616869)"
       x1="132.10901"
       y1="575.51141"
       x2="1068.3112"
       y2="320.25305" />
    <linearGradient
       xlink:href="#linearGradient29544"
       id="linearGradient1311"
       gradientUnits="userSpaceOnUse"
       gradientTransform="matrix(0.25907595,0.02750162,-0.02750162,0.25907595,-175.11725,9.7616869)"
       x1="132.10901"
       y1="575.51141"
       x2="1068.3112"
       y2="320.25305" />
    <linearGradient
       xlink:href="#linearGradient29544"
       id="linearGradient1313"
       gradientUnits="userSpaceOnUse"
       gradientTransform="matrix(0.25907595,0.02750162,-0.02750162,0.25907595,-175.11725,9.7616869)"
       x1="132.10901"
       y1="575.51141"
       x2="1068.3112"
       y2="320.25305" />
    <linearGradient
       xlink:href="#linearGradient29544"
       id="linearGradient1315"
       gradientUnits="userSpaceOnUse"
       gradientTransform="matrix(0.25907595,0.02750162,-0.02750162,0.25907595,-175.11725,9.7616869)"
       x1="132.10901"
       y1="575.51141"
       x2="1068.3112"
       y2="320.25305" />
    <linearGradient
       xlink:href="#linearGradient29544"
       id="linearGradient1317"
       gradientUnits="userSpaceOnUse"
       gradientTransform="matrix(0.25907595,0.02750162,-0.02750162,0.25907595,-175.11725,9.7616869)"
       x1="132.10901"
       y1="575.51141"
       x2="1068.3112"
       y2="320.25305" />
    <linearGradient
       xlink:href="#linearGradient29544"
       id="linearGradient1319"
       gradientUnits="userSpaceOnUse"
       gradientTransform="matrix(0.25907595,0.02750162,-0.02750162,0.25907595,-175.11725,9.7616869)"
       x1="132.10901"
       y1="575.51141"
       x2="1068.3112"
       y2="320.25305" />
    <linearGradient
       xlink:href="#linearGradient29544"
       id="linearGradient1321"
       gradientUnits="userSpaceOnUse"
       gradientTransform="matrix(0.25907595,0.02750162,-0.02750162,0.25907595,-175.11725,9.7616869)"
       x1="132.10901"
       y1="575.51141"
       x2="1068.3112"
       y2="320.25305" />
    <linearGradient
       xlink:href="#linearGradient29544"
       id="linearGradient1323"
       gradientUnits="userSpaceOnUse"
       gradientTransform="matrix(0.25907595,0.02750162,-0.02750162,0.25907595,-175.11725,9.7616869)"
       x1="132.10901"
       y1="575.51141"
       x2="1068.3112"
       y2="320.25305" />
    <linearGradient
       xlink:href="#linearGradient29544"
       id="linearGradient1325"
       gradientUnits="userSpaceOnUse"
       gradientTransform="matrix(0.25907595,0.02750162,-0.02750162,0.25907595,-175.11725,9.7616869)"
       x1="132.10901"
       y1="575.51141"
       x2="1068.3112"
       y2="320.25305" />
    <linearGradient
       xlink:href="#linearGradient29544"
       id="linearGradient1327"
       gradientUnits="userSpaceOnUse"
       gradientTransform="matrix(0.25907595,0.02750162,-0.02750162,0.25907595,-175.11725,9.7616869)"
       x1="132.10901"
       y1="575.51141"
       x2="1068.3112"
       y2="320.25305" />
    <linearGradient
       xlink:href="#linearGradient29544"
       id="linearGradient1329"
       gradientUnits="userSpaceOnUse"
       gradientTransform="matrix(0.25907595,0.02750162,-0.02750162,0.25907595,-175.11725,9.7616869)"
       x1="132.10901"
       y1="575.51141"
       x2="1068.3112"
       y2="320.25305" />
    <linearGradient
       xlink:href="#linearGradient29544"
       id="linearGradient1331"
       gradientUnits="userSpaceOnUse"
       gradientTransform="matrix(0.25907595,0.02750162,-0.02750162,0.25907595,-175.11725,9.7616869)"
       x1="132.10901"
       y1="575.51141"
       x2="1068.3112"
       y2="320.25305" />
    <linearGradient
       xlink:href="#linearGradient29544"
       id="linearGradient1333"
       gradientUnits="userSpaceOnUse"
       gradientTransform="matrix(0.25907595,0.02750162,-0.02750162,0.25907595,-175.11725,9.7616869)"
       x1="132.10901"
       y1="575.51141"
       x2="1068.3112"
       y2="320.25305" />
    <linearGradient
       xlink:href="#linearGradient29544"
       id="linearGradient1335"
       gradientUnits="userSpaceOnUse"
       gradientTransform="matrix(0.25907595,0.02750162,-0.02750162,0.25907595,-175.11725,9.7616869)"
       x1="132.10901"
       y1="575.51141"
       x2="1068.3112"
       y2="320.25305" />
    <linearGradient
       xlink:href="#linearGradient29544"
       id="linearGradient1337"
       gradientUnits="userSpaceOnUse"
       gradientTransform="matrix(0.25907595,0.02750162,-0.02750162,0.25907595,-175.11725,9.7616869)"
       x1="132.10901"
       y1="575.51141"
       x2="1068.3112"
       y2="320.25305" />
    <linearGradient
       xlink:href="#linearGradient29544"
       id="linearGradient1339"
       gradientUnits="userSpaceOnUse"
       gradientTransform="matrix(0.25907595,0.02750162,-0.02750162,0.25907595,-175.11725,9.7616869)"
       x1="132.10901"
       y1="575.51141"
       x2="1068.3112"
       y2="320.25305" />
    <linearGradient
       xlink:href="#linearGradient29544"
       id="linearGradient1341"
       gradientUnits="userSpaceOnUse"
       gradientTransform="matrix(0.25907595,0.02750162,-0.02750162,0.25907595,-175.11725,9.7616869)"
       x1="132.10901"
       y1="575.51141"
       x2="1068.3112"
       y2="320.25305" />
    <linearGradient
       xlink:href="#linearGradient29544"
       id="linearGradient1343"
       gradientUnits="userSpaceOnUse"
       gradientTransform="matrix(0.25907595,0.02750162,-0.02750162,0.25907595,-175.11725,9.7616869)"
       x1="132.10901"
       y1="575.51141"
       x2="1068.3112"
       y2="320.25305" />
    <linearGradient
       xlink:href="#linearGradient29544"
       id="linearGradient1345"
       gradientUnits="userSpaceOnUse"
       gradientTransform="matrix(0.25907595,0.02750162,-0.02750162,0.25907595,-175.11725,9.7616869)"
       x1="132.10901"
       y1="575.51141"
       x2="1068.3112"
       y2="320.25305" />
    <linearGradient
       xlink:href="#linearGradient29544"
       id="linearGradient1347"
       gradientUnits="userSpaceOnUse"
       gradientTransform="matrix(0.25907595,0.02750162,-0.02750162,0.25907595,-175.11725,9.7616869)"
       x1="132.10901"
       y1="575.51141"
       x2="1068.3112"
       y2="320.25305" />
    <linearGradient
       xlink:href="#linearGradient29544"
       id="linearGradient1349"
       gradientUnits="userSpaceOnUse"
       gradientTransform="matrix(0.25907595,0.02750162,-0.02750162,0.25907595,-175.11725,9.7616869)"
       x1="132.10901"
       y1="575.51141"
       x2="1068.3112"
       y2="320.25305" />
    <linearGradient
       xlink:href="#linearGradient25627"
       id="linearGradient25349-0"
       x1="-19.32687"
       y1="174.87611"
       x2="365.09894"
       y2="71.86953"
       gradientUnits="userSpaceOnUse"
       gradientTransform="matrix(1.133528,0,0,1.133528,-96.118109,50.014743)" />
    <linearGradient
       xlink:href="#linearGradient14653"
       id="linearGradient14655-9"
       x1="-46.183235"
       y1="706.05402"
       x2="1721.9431"
       y2="445.6926"
       gradientUnits="userSpaceOnUse"
       gradientTransform="matrix(0.29991266,0,0,0.29991266,-96.118106,50.014743)" />
    <linearGradient
       xlink:href="#linearGradient4549-9"
       id="linearGradient4687-8-3"
       x1="1155.105"
       y1="262.50851"
       x2="93.583733"
       y2="615.88306"
       gradientUnits="userSpaceOnUse"
       gradientTransform="matrix(0.36542286,0.03879061,-0.03879061,0.36542286,-71.652568,31.894786)" />
    <linearGradient
       id="linearGradient4549-9">
      <stop
         style="stop-color:#8b5cf6;stop-opacity:1"
         offset="0"
         id="stop4545-7" />
      <stop
         style="stop-color:#6d28d9;stop-opacity:1"
         offset="0.2124767"
         id="stop3695" />
      <stop
         style="stop-color:#6f5cf6;stop-opacity:1"
         offset="0.42963988"
         id="stop3369" />
      <stop
         style="stop-color:#7c3aed;stop-opacity:1"
         offset="0.59961361"
         id="stop3629" />
      <stop
         style="stop-color:#6376f6;stop-opacity:1"
         offset="0.80968213"
         id="stop3499" />
      <stop
         style="stop-color:#6d28d9;stop-opacity:1"
         offset="1"
         id="stop4547-1" />
    </linearGradient>
    <linearGradient
       xlink:href="#linearGradient120453"
       id="linearGradient4479-5-5"
       x1="1143.1901"
       y1="196.74675"
       x2="120.85666"
       y2="539.48602"
       gradientUnits="userSpaceOnUse"
       gradientTransform="matrix(0.36542286,0.03879061,-0.03879061,0.36542286,-71.652568,31.894786)" />
    <linearGradient
       id="linearGradient120453">
      <stop
         style="stop-color:#8b5cf6;stop-opacity:1"
         offset="0"
         id="stop120441" />
      <stop
         style="stop-color:#5151dc;stop-opacity:1"
         offset="0.25152168"
         id="stop120443" />
      <stop
         style="stop-color:#3b82f6;stop-opacity:1"
         offset="0.44539982"
         id="stop120445" />
      <stop
         style="stop-color:#8b69f6;stop-opacity:1"
         offset="0.63944036"
         id="stop120447" />
      <stop
         style="stop-color:#60a5fa;stop-opacity:1"
         offset="0.83593452"
         id="stop120449" />
      <stop
         style="stop-color:#60a5fa;stop-opacity:1"
         offset="1"
         id="stop120451" />
    </linearGradient>
    <linearGradient
       xlink:href="#linearGradient1509"
       id="linearGradient6948-4"
       gradientUnits="userSpaceOnUse"
       gradientTransform="matrix(0.36747596,0,0,0.36747596,-103.33574,18.48162)"
       x1="466.89359"
       y1="475.49548"
       x2="1404.4065"
       y2="195.51314" />
    <linearGradient
       xlink:href="#linearGradient10986-8"
       id="linearGradient12309-5-43"
       gradientUnits="userSpaceOnUse"
       x1="1181.7125"
       y1="252.36546"
       x2="861.3941"
       y2="436.60165"
       gradientTransform="matrix(0.36747596,0,0,0.36747596,-103.33574,19.657191)" />
    <linearGradient
       id="linearGradient10986-8">
      <stop
         style="stop-color:#7e5af0;stop-opacity:1"
         offset="0"
         id="stop10982-4" />
      <stop
         style="stop-color:#7c61ee;stop-opacity:1"
         offset="0.49538255"
         id="stop136405" />
      <stop
         style="stop-color:#4c6fe2;stop-opacity:1"
         offset="1"
         id="stop10984-5" />
    </linearGradient>
    <linearGradient
       xlink:href="#linearGradient4685-3-6"
       id="linearGradient4551-1-2"
       x1="1112.811"
       y1="69.067085"
       x2="89.147026"
       y2="487.89313"
       gradientUnits="userSpaceOnUse"
       gradientTransform="matrix(0.36542286,0.03879061,-0.03879061,0.36542286,-71.652568,31.894786)" />
    <linearGradient
       id="linearGradient4685-3-6">
      <stop
         style="stop-color:#60a5fa;stop-opacity:1"
         offset="0"
         id="stop4681-8-9" />
      <stop
         style="stop-color:#365fd8;stop-opacity:1"
         offset="0.23215981"
         id="stop17498" />
      <stop
         style="stop-color:#3b82f6;stop-opacity:1"
         offset="0.43870947"
         id="stop26809-8" />
      <stop
         style="stop-color:#4d4eeb;stop-opacity:1"
         offset="0.65562975"
         id="stop12917" />
      <stop
         style="stop-color:#60a5fa;stop-opacity:1"
         offset="1"
         id="stop4683-5-8" />
    </linearGradient>
    <linearGradient
       xlink:href="#linearGradient29544"
       id="linearGradient24274-7"
       gradientUnits="userSpaceOnUse"
       gradientTransform="matrix(0.36542286,0.03879062,-0.03879062,0.36542286,-71.652568,31.894786)"
       x1="132.10901"
       y1="575.51141"
       x2="1068.3112"
       y2="320.25305" />
    <linearGradient
       xlink:href="#linearGradient4477-2"
       id="linearGradient118139"
       x1="100.59962"
       y1="115.7887"
       x2="345.10434"
       y2="-9.8373604"
       gradientUnits="userSpaceOnUse"
       gradientTransform="translate(-39.911416,69.191081)" />
    <linearGradient
       id="linearGradient4477-2">
      <stop
         style="stop-color:#8b5cf6;stop-opacity:1"
         offset="0"
         id="stop4473-3" />
      <stop
         style="stop-color:#5151dc;stop-opacity:1"
         offset="0.25152168"
         id="stop55155" />
      <stop
         style="stop-color:#3b82f6;stop-opacity:1"
         offset="0.44539982"
         id="stop41682" />
      <stop
         style="stop-color:#8b5cf6;stop-opacity:1"
         offset="0.63944036"
         id="stop94918" />
      <stop
         style="stop-color:#60a5fa;stop-opacity:1"
         offset="0.83593452"
         id="stop98531" />
      <stop
         style="stop-color:#60a5fa;stop-opacity:1"
         offset="1"
         id="stop4475-0" />
    </linearGradient>
    <linearGradient
       xlink:href="#linearGradient25627"
       id="linearGradient161031"
       x1="-12.419965"
       y1="169.75165"
       x2="373.66388"
       y2="-5.8339572"
       gradientUnits="userSpaceOnUse"
       gradientTransform="translate(-39.911416,62.850364)" />
  </defs>
  <rect
     style="fill:#1b1e20;fill-opacity:1;stroke:none;stroke-width:0.0701585;stroke-linecap:round;stroke-linejoin:round;paint-order:stroke fill markers;stop-color:#000000"
     id="rect3074-7"
     width="95.250008"
     height="190.50002"
     x="0"
     y="0" />
  <g
     id="g1132"
     transform="matrix(0.73609168,0,0,0.73609168,-137.2355,-21.003029)">
    <path
       id="path145852"
       style="fill:url(#linearGradient161031);fill-opacity:1;stroke:none;stroke-width:0.0972278px;stroke-linecap:butt;stroke-linejoin:miter;stroke-opacity:1"
       d="m 326.16806,52.152463 c -54.29266,6.82736 -50.39759,77.249077 -100.33032,85.299867 -33.1936,1.86415 -43.73057,-8.49572 -68.98751,-2.13669 -30.08479,7.57456 -48.0368,34.96287 -73.743306,37.43584 -27.534268,2.64875 -58.849379,-11.18953 -88.712421,3.02695 -18.54139,8.82674 -27.1877,31.38393 -38.035407,47.51383 v 20.62775 c 24.330097,-13.94935 45.448414,-35.28482 63.006493,-40.8466 17.895444,-5.66865 36.272911,-2.34131 54.995095,-1.88878 16.48869,0.39853 33.623256,-11.03764 50.628956,-12.1667 33.99868,-2.2574 70.74426,6.46569 104.06445,1.0232 32.34003,-5.28238 55.27221,-31.44574 85.75086,-39.16764 3.69726,-0.93672 7.49652,-1.4799 11.36311,-1.76372 z" />
    <path
       id="path3392-6"
       style="fill:none;stroke:url(#linearGradient118139);stroke-width:0.0972279px;stroke-linecap:butt;stroke-linejoin:miter;stroke-opacity:1"
       d="m 58.812768,197.98826 c 0,0 28.192086,-4.59151 42.309522,-6.75038 20.25313,-3.09714 40.75187,-4.7602 60.81821,-8.89829 20.05713,-4.13619 40.31783,-8.31847 59.34949,-15.88105 24.60192,-9.77602 45.61616,-27.15411 69.88608,-37.72747 11.28176,-4.91498 34.96481,-11.84808 34.96481,-11.84808 M 58.211597,197.43992 c 0,0 28.436257,-4.5336 42.645943,-6.85249 20.24982,-3.30458 40.659,-5.78085 60.72503,-10.06214 20.09814,-4.28815 40.58618,-7.92209 59.63907,-15.62343 24.44494,-9.88087 44.99912,-27.74012 68.95409,-38.75585 11.60491,-5.33654 35.99639,-13.13901 35.99639,-13.13901 M 57.610416,196.89157 c 0,0 28.681478,-4.4734 42.981444,-6.95334 20.25197,-3.51216 40.56062,-6.79787 60.63264,-11.22409 20.13886,-4.44097 40.85659,-7.52371 59.92875,-15.36896 24.28723,-9.99044 44.3617,-28.34602 67.99815,-39.79137 11.91953,-5.77173 37.0064,-14.45747 37.0064,-14.45747 M 57.009225,196.34317 c 0,0 28.927759,-4.41104 43.316055,-7.05294 20.25959,-3.71996 40.45689,-7.81135 60.54115,-12.38424 20.17925,-4.59451 41.13042,-7.12014 60.21845,-15.11754 24.15498,-10.12031 43.74088,-29.02416 67.08169,-40.9023 12.25703,-6.23759 38.09854,-15.8361 38.09854,-15.8361 M 56.408054,195.79484 c 0,0 29.17508,-4.34674 43.649756,-7.15141 20.2726,-3.92808 40.34785,-8.82143 60.45053,-13.54266 20.21931,-4.74863 41.40493,-6.71822 60.50819,-14.869 23.9951,-10.23799 43.05987,-29.66087 66.07529,-41.94385 12.55066,-6.69809 39.05827,-17.20183 39.05827,-17.20183 m -270.343217,94.1604 c 0,0 29.423421,-4.28062 43.982591,-7.24873 20.290936,-4.13661 40.233606,-9.82825 60.360826,-14.69951 20.25902,-4.90317 41.68276,-6.3117 60.79787,-14.62319 23.85926,-10.37431 42.39182,-30.36164 65.10392,-43.05223 12.86295,-7.18728 40.09085,-18.620844 40.09085,-18.620844 M 55.205692,194.6981 c 0,0 29.672772,-4.21286 44.314552,-7.34498 20.314556,-4.34564 40.114236,-10.83196 60.272026,-15.85491 20.29837,-5.05798 41.963,-5.90279 61.08751,-14.37983 23.7315,-10.51911 41.71342,-31.09016 64.12874,-44.18171 13.17302,-7.69364 41.13077,-20.068515 41.13077,-20.068515 M 54.604522,194.14975 c 0,0 29.923092,-4.14365 44.645632,-7.44029 20.343376,-4.55525 39.989786,-11.8328 60.184096,-17.00908 20.3374,-5.21295 42.24563,-5.49183 61.37718,-14.13872 23.61185,-10.67186 41.02449,-31.84346 63.15007,-45.32927 13.47982,-8.21611 42.17676,-21.540912 42.17676,-21.540912 M 54.00333,193.60142 c 0,0 30.174344,-4.07316 44.975834,-7.53473 20.377306,-4.76557 39.860266,-12.83103 60.096976,-18.16223 20.37611,-5.36792 42.53051,-5.07912 61.66693,-13.89945 23.49961,-10.8314 40.32414,-32.6166 62.16675,-46.48929 13.78141,-8.752859 43.22456,-23.032485 43.22456,-23.032485 M 53.402139,193.05304 c 0,0 30.426495,-4.00154 45.305105,-7.62838 20.416286,-4.97671 39.725696,-13.82699 60.010606,-19.31469 20.41455,-5.52277 42.81756,-4.66486 61.95685,-13.66165 23.39598,-10.99772 39.61434,-33.40869 61.18252,-47.66125 14.07836,-9.303183 44.2781,-24.539677 44.2781,-24.539677 M 52.800979,192.50469 c 0,0 30.679495,-3.92895 45.633495,-7.72127 20.460196,-5.18869 39.586216,-14.82059 59.925026,-20.46637 20.4527,-5.67739 43.09493,-4.27393 62.24684,-13.42543 23.0014,-10.99092 38.5071,-33.58689 59.51019,-48.03455 14.02649,-9.648586 44.16981,-25.643056 44.16981,-25.643056 l 0.92851,-0.623844 0.9285,-0.623845 M 52.199798,191.95632 c 0,0 30.933386,-3.85538 45.961106,-7.8132 20.509056,-5.40141 39.442116,-15.81137 59.840496,-21.61681 20.49053,-5.83167 43.39816,-3.83233 62.53657,-13.19137 23.21367,-11.35193 38.16235,-35.0459 59.20424,-50.045218 14.65476,-10.446368 46.39652,-27.610864 46.39652,-27.610864 M 51.598607,191.40798 c 0,0 31.187957,-3.78138 46.287607,-7.90497 20.562576,-5.61547 39.292666,-16.80148 59.756126,-22.76803 20.52833,-5.98546 43.69106,-3.41508 62.82726,-12.95676 23.13415,-11.53513 37.42367,-35.87616 58.21624,-51.235748 C 293.61765,85.512261 326.1427,67.396846 326.1427,67.396846 M 50.997426,190.85961 c 0,0 31.443168,-3.70703 46.613018,-7.99652 20.620706,-5.8308 39.137986,-17.79074 59.672016,-23.91982 20.56609,-6.13865 43.98531,-2.99767 63.11878,-12.72172 23.06067,-11.71995 36.67664,-36.70535 57.22845,-52.414423 15.19921,-11.617731 48.51158,-30.667809 48.51158,-30.667809 M 50.396266,190.31126 c 0,0 31.698948,-3.63247 46.937278,-8.08796 20.683336,-6.04754 38.978016,-18.77948 59.587996,-25.07249 20.6039,-6.29117 44.28079,-2.58029 63.41133,-12.48595 22.99385,-11.90606 35.92359,-37.53197 56.24425,-53.580077 15.45773,-12.20764 49.56381,-32.173587 49.56381,-32.173587 M 49.795053,189.7629 c 0,0 31.955261,-3.55787 47.260381,-8.1794 20.750376,-6.26577 38.812726,-19.76796 59.503986,-26.2263 20.64186,-6.44291 44.57732,-2.16309 63.70507,-12.24904 22.93323,-12.09256 35.16561,-38.35263 55.26471,-54.729106 15.70714,-12.797969 50.61278,-33.658092 50.61278,-33.658092 M 49.193893,189.21455 c 0,0 32.212011,-3.48337 47.582231,-8.2709 20.821726,-6.48558 38.642076,-20.75643 59.419856,-27.38142 20.68002,-6.59383 44.87469,-1.74629 64.00014,-12.01074 22.87741,-12.27809 34.40266,-39.16242 54.28872,-55.855896 15.94631,-13.386228 51.65428,-35.1158 51.65428,-35.1158 M 48.592702,188.66618 c 0,0 32.469172,-3.40908 47.902842,-8.36256 20.897266,-6.70703 38.465986,-21.74514 59.335476,-28.53813 20.7185,-6.74384 45.17278,-1.32994 64.29675,-11.77072 22.82728,-12.46262 33.6376,-39.96128 53.3204,-56.960968 16.17679,-13.971608 52.69314,-36.544248 52.69314,-36.544248 M 47.991531,188.11783 c 0,0 32.726653,-3.33517 48.222133,-8.45445 20.976926,-6.9302 38.284436,-22.73424 59.250746,-29.69652 20.75738,-6.89289 45.47143,-0.91416 64.595,-11.52876 22.78086,-12.64459 32.86966,-40.743764 52.35722,-58.037939 16.39703,-14.551493 53.72309,-37.938185 53.72309,-37.938185 M 47.390361,187.56946 c 0,0 32.984393,-3.26173 48.540063,-8.54663 21.060606,-7.15515 38.097406,-23.72398 59.165586,-30.85682 20.79672,-7.04094 45.77048,-0.499 64.89504,-11.28463 22.73846,-12.82374 32.10097,-41.509268 51.40189,-59.086531 16.60815,-15.124965 54.747,-39.295328 54.747,-39.295328 M 46.78918,187.02111 c 0,0 33.242344,-3.18886 48.856634,-8.63916 21.148186,-7.38193 37.904816,-24.71447 59.079826,-32.01913 20.83664,-7.18794 46.06984,-0.0844 65.19702,-11.03812 22.69907,-12.99922 31.33193,-42.254973 50.45402,-60.103597 16.80988,-15.690396 55.76263,-40.612487 55.76263,-40.612487 M 46.187999,186.47277 c 0,0 33.500435,-3.1167 49.171785,-8.73208 21.239596,-7.61061 37.706696,-25.70589 58.993456,-33.18359 20.87722,-7.33384 46.36941,0.32953 65.50105,-10.78909 22.66228,-13.1705 30.56354,-42.979378 49.51432,-61.087627 17.0026,-16.24668 56.76996,-41.887442 56.76996,-41.887442 M 45.586818,185.9244 c 0,0 33.758606,-3.0453 49.485486,-8.82542 21.334766,-7.8412 37.503046,-26.69835 58.906416,-34.35031 20.91853,-7.47861 46.6691,0.743 65.80723,-10.53734 22.62764,-13.33712 29.79678,-43.681302 48.58347,-62.03748 17.18673,-16.792882 57.76903,-43.11846 57.76903,-43.11846 M 44.985626,185.37604 c 0,0 34.016828,-2.97476 49.797738,-8.91924 21.433556,-8.07374 37.293806,-27.69197 58.818556,-35.51936 20.96062,-7.62224 46.96886,1.15601 66.11566,-10.2828 22.59458,-13.49861 29.03222,-44.359412 47.66153,-62.951791 17.36252,-17.328101 58.75911,-44.304045 58.75911,-44.304045 M 44.384456,184.82768 c 0,0 34.275008,-2.90518 50.108498,-9.01353 21.535926,-8.30828 37.079006,-28.68682 58.729866,-36.69081 21.00359,-7.76472 47.26865,1.56866 66.42639,-10.0254 22.56251,-13.6546 28.27035,-45.01272 46.74842,-63.829626 17.53018,-17.851636 59.73949,-45.443228 59.73949,-45.443228 M 43.783275,184.27933 c 0,0 34.533109,-2.8366 50.417759,-9.10835 21.641756,-8.54483 36.858666,-29.68298 58.640286,-37.86473 21.04751,-7.90599 47.56843,1.98111 66.73953,-9.765 C 242.1123,113.73626 247.09318,81.899863 265.4262,62.869774 283.11678,44.50656 326.13785,16.334058 326.13785,16.334058 M 43.182084,183.73094 c 0,0 34.79108,-2.76908 50.7255,-9.20365 21.750996,-8.78341 36.632836,-30.68049 58.549826,-39.04111 21.09241,-8.04607 47.8682,2.39349 67.05506,-9.50162 22.50025,-13.94929 26.7575,-46.243831 44.95042,-65.475628 17.84324,-18.86215 61.67252,-47.581047 61.67252,-47.581047 M 42.580903,183.1826 c 0,0 35.048881,-2.70273 51.031701,-9.29953 21.863546,-9.02404 36.401476,-31.67945 58.458356,-40.22005 21.1384,-8.18496 48.16795,2.80586 67.37312,-9.23517 C 241.914,110.33994 245.45231,77.605711 263.51112,58.182885 281.50115,38.834027 326.13834,9.602974 326.13834,9.602974 M 41.979743,182.63425 c 0,0 35.306451,-2.63754 51.336371,-9.39592 21.979326,-9.2667 36.164716,-32.67979 58.365966,-41.40146 21.18547,-8.32262 48.46772,3.21848 67.69365,-8.9657 22.43886,-14.22032 25.26283,-47.374312 43.19167,-66.977277 18.12983,-19.822721 63.57052,-49.532497 63.57052,-49.532497" />
    <path
       id="path22726-8"
       style="font-variation-settings:normal;vector-effect:none;fill:none;fill-opacity:1;stroke:url(#linearGradient24274-7);stroke-width:0.291682;stroke-linecap:butt;stroke-linejoin:miter;stroke-miterlimit:4;stroke-dasharray:none;stroke-dashoffset:0;stroke-opacity:1;stop-color:#000000"
       d="m -41.891954,254.97368 c 19.976424,-5.16331 41.382708,-35.57572 63.279521,-38.8473 25.835984,-3.86012 46.873787,18.27175 73.650307,18.78274 44.352496,0.84646 65.598846,-44.43953 119.822526,-13.23801 23.61202,13.58689 63.81784,1.63935 85.79167,-24.88733 m -342.760255,57.72813 c 19.769278,-5.30064 40.947003,-36.19157 63.064177,-39.36193 25.740081,-3.74859 47.174102,18.1669 74.220522,18.4277 43.758216,0.69013 65.234566,-43.71029 118.704046,-13.36043 23.78895,13.17509 63.20229,1.49884 85.47479,-24.28365 m -341.67977,58.11654 c 19.562123,-5.43795 40.511305,-36.80747 62.848844,-39.87657 25.644212,-3.63706 47.47444,18.06211 74.79071,18.07261 43.163966,0.53383 64.870336,-42.98102 117.585586,-13.48281 23.96581,12.76329 62.58672,1.35832 85.1579,-23.67994 m -340.59927,58.50494 c 19.354983,-5.57528 40.075604,-37.42336 62.633489,-40.39121 25.54835,-3.52547 47.774755,17.95732 75.360925,17.71758 42.569696,0.37747 64.506086,-42.25181 116.467106,-13.60518 24.1427,12.35144 61.97124,1.21771 84.84106,-23.07631 M -42.756887,253.1266 c 19.147828,-5.71257 39.639908,-38.03923 62.418148,-40.90585 25.452495,-3.41391 48.075103,17.85251 75.931133,17.36257 41.975456,0.22111 64.141826,-41.5226 115.348656,-13.72758 24.31959,11.93959 61.35567,1.07716 84.52413,-22.4727 m -338.438294,59.28179 c 18.940675,-5.84988 39.204202,-38.65512 62.2028,-41.42053 25.356612,-3.30236 48.375398,17.74777 76.501348,17.00754 41.381156,0.0647 63.777576,-40.79333 114.230166,-13.84998 24.49645,11.52779 60.74014,0.93665 84.2072,-21.86897 m -337.357749,59.67017 c 18.733524,-5.98716 38.768503,-39.27099 61.987468,-41.93514 25.260754,-3.19086 48.675715,17.6429 77.071545,16.65246 40.786916,-0.0915 63.413336,-40.06409 113.111706,-13.97238 24.67335,11.11597 60.12461,0.79613 83.89033,-21.26532 m -336.27728,60.0586 c 18.526376,-6.12448 38.332801,-39.88687 61.772123,-42.44979 25.164872,-3.07927 48.976051,17.53813 77.641731,16.29742 40.192666,-0.24783 63.049086,-39.33484 111.993246,-14.09473 24.85025,10.7041 59.50908,0.65556 83.57341,-20.66166 m -335.196741,60.44699 c 18.319225,-6.2618 37.897098,-40.50273 61.556777,-42.96442 25.068999,-2.9677 49.276368,17.43329 78.211928,15.94238 39.598386,-0.40419 62.684806,-38.60564 110.874776,-14.21713 25.02714,10.29228 58.89354,0.51502 83.25654,-20.05803 m -333.919393,60.76477 c 18.055446,-6.57951 37.351035,-41.05649 61.144584,-43.4084 24.973139,-2.85617 49.576683,17.32848 78.782093,15.58733 39.004146,-0.56055 62.320606,-37.8764 109.756346,-14.33955 25.20401,9.88048 58.27799,0.3745 82.93962,-19.4543 M -43.641203,250.2002 c 17.786073,-6.91976 36.797861,-41.59613 60.713026,-43.83791 24.87727,-2.74461 49.877021,17.22368 79.352301,15.23225 38.409866,-0.71683 61.956376,-37.14714 108.637866,-14.4619 25.3809,9.46863 57.66248,0.23395 82.62277,-18.8507 m -331.325922,61.36302 c 17.516712,-7.26489 36.248707,-42.12669 60.28141,-44.2591 24.781387,-2.63307 50.177346,17.11888 79.922506,14.87723 37.815636,-0.87317 61.592136,-36.4179 107.519366,-14.58431 25.55779,9.0568 57.04696,0.0935 82.30592,-18.24703 m -330.028692,61.64899 c 17.247287,-7.61519 35.703478,-42.6477 59.849322,-44.67128 24.685508,-2.5215 50.477684,17.01406 80.492714,14.52218 37.221366,-1.02952 61.227876,-35.68865 106.400906,-14.70668 25.73469,8.64495 56.43138,-0.0473 81.989,-17.64337 m -328.732232,61.926 c 16.978231,-7.96936 35.163033,-43.15907 59.418024,-45.07456 24.58966,-2.40996 50.778022,16.90925 81.062942,14.16715 36.627066,-1.18582 60.863596,-34.95944 105.282466,-14.82908 25.91153,8.23313 55.81583,-0.18769 81.67205,-17.03968 m -327.435586,62.19315 c 16.709319,-8.32818 34.626954,-43.65989 58.986574,-45.46794 24.493777,-2.29842 51.078326,16.80445 81.633126,13.81207 36.032796,-1.34212 60.499346,-34.23015 104.163966,-14.95147 26.08844,7.82135 55.20031,-0.32816 81.35519,-16.43603 m -326.138857,62.44991 c 16.440639,-8.69133 34.09547,-44.14956 58.554987,-45.8509 24.397908,-2.18686 51.378684,16.69967 82.203344,13.45704 35.438536,-1.49848 60.135106,-33.50094 103.045506,-15.07384 26.26534,7.40948 54.58481,-0.46879 81.0383,-15.8324 m -324.84223,62.69582 c 16.172332,-9.0586 33.568849,-44.62767 58.123515,-46.22304 24.302036,-2.07529 51.678989,16.59487 82.773529,13.10201 34.844256,-1.65483 59.770846,-32.77168 101.927046,-15.19623 26.4422,6.99764 53.96924,-0.60932 80.72137,-15.22872 m -323.545592,62.93014 c 15.90445,-9.42967 33.047226,-45.09341 57.692069,-46.5836 24.206186,-1.96376 51.979317,16.49005 83.343727,12.74695 34.250036,-1.81114 59.406626,-32.04246 100.808566,-15.3186 26.6191,6.5858 53.35374,-0.74987 80.4045,-14.6251 M -43.64124,245.4829 c 15.637014,-9.80457 32.530687,-45.54614 57.260452,-46.93191 24.110314,-1.85224 52.279652,16.38524 83.913932,12.39189 33.655736,-1.96747 59.042376,-31.31324 99.690116,-15.44102 26.79594,6.17403 52.73816,-0.89039 80.08761,-14.02138 m -320.951892,63.36129 c 15.370136,-10.18305 32.019411,-45.985 56.828656,-47.26718 24.014423,-1.74069 52.57997,16.2804 84.48413,12.03682 33.061496,-2.1238 58.678146,-30.58396 98.571656,-15.56338 26.97287,5.76215 52.12267,-1.03094 79.7707,-13.41774 M -43.641071,244.1872 c 15.104016,-10.56437 31.513793,-46.40956 56.39714,-47.58906 23.918573,-1.62909 52.880295,16.17566 85.054305,11.68186 32.467256,-2.28018 58.313896,-29.85476 97.453216,-15.68582 27.14975,5.35034 51.50709,-1.17149 79.45383,-12.81407 m -318.358409,63.73805 c 14.838661,-10.94858 31.013876,-46.81877 55.965481,-47.89642 23.822682,-1.51755 53.180622,16.07084 85.624542,11.32679 31.872966,-2.43647 57.949616,-29.12552 96.334716,-15.80817 27.32663,4.9385 50.89157,-1.31206 79.1369,-12.21045 m -317.061951,63.90434 c 14.574326,-11.3349 30.520079,-47.21216 55.534217,-48.18894 23.726811,-1.40599 53.480948,15.96606 86.194718,10.97176 31.278746,-2.59282 57.585406,-28.39626 95.216286,-15.93055 27.5035,4.52665 50.27601,-1.45259 78.82,-11.60676 m -315.765099,64.05421 c 14.310905,-11.72361 30.032273,-47.58823 55.102518,-48.46507 23.630963,-1.29444 53.781275,15.86124 86.764925,10.61666 30.684446,-2.74911 57.221146,-27.66696 94.097796,-16.05291 27.68043,4.11488 49.66049,-1.59313 78.50314,-11.00312 m -314.468049,64.18704 c 14.048591,-12.11404 29.550778,-47.94617 54.670612,-48.72408 23.535078,-1.18287 54.081621,15.75644 87.335121,10.26163 30.090206,-2.90544 56.856916,-26.93778 92.979326,-16.17532 27.85728,3.70303 49.04501,-1.73366 78.18627,-10.39944 M -43.641185,240.6819 c 13.787765,-12.50505 29.076207,-48.28578 54.239371,-48.96583 23.439219,-1.07131 54.381928,15.65167 87.905328,9.90662 29.495906,-3.06182 56.492626,-26.20854 91.860856,-16.29772 28.03418,3.29117 48.42943,-1.87423 77.86936,-9.79579 m -311.875164,64.39913 c 13.528366,-12.89672 28.60846,-48.60541 53.808055,-49.18866 23.343348,-0.95978 54.682263,15.54685 88.475523,9.55155 28.901666,-3.2181 56.128376,-25.47927 90.742376,-16.42009 28.21107,2.8794 47.8139,-2.01476 77.55249,-9.19212 m -310.5778,64.47499 c 13.270353,-13.28909 28.147515,-48.90314 53.375833,-49.39072 23.247479,-0.84822 54.982551,15.44204 89.045731,9.19649 28.307416,-3.37444 55.764146,-24.75004 89.623916,-16.5425 28.38794,2.46759 47.19837,-2.15528 77.23557,-8.58844 m -309.281568,64.53105 c 13.014425,-13.67994 27.694386,-49.17993 52.944776,-49.573 23.151596,-0.73668 55.282896,15.33719 89.615926,8.84146 27.713136,-3.5308 55.399906,-24.02083 88.505486,-16.66491 28.56484,2.05574 46.5828,-2.29581 76.91863,-7.98478 m -307.984752,64.56441 c 12.760324,-14.06995 27.2487,-49.43278 52.513132,-49.7326 23.055738,-0.62514 55.583224,15.23242 90.186154,8.48638 27.118866,-3.68709 55.035636,-23.29156 87.386966,-16.78726 28.74172,1.64391 45.96731,-2.43637 76.60177,-7.3811 m -306.688011,64.57456 c 12.508399,-14.45783 26.81096,-49.66117 52.081546,-49.869 22.959856,-0.51359 55.883569,15.12759 90.756339,8.13136 26.524596,-3.84339 54.671406,-22.56233 86.268516,-16.90969 28.91859,1.23211 45.35176,-2.57686 76.28487,-6.77743 M -43.641137,235.8384 c 12.258834,-14.84293 26.381405,-49.86362 51.649875,-49.9808 22.864007,-0.40201 56.183876,15.02284 91.326536,7.77631 25.930356,-3.99975 54.307166,-21.83307 85.150056,-17.03203 29.09549,0.82026 44.73625,-2.71745 75.96801,-6.17381 m -304.094466,64.52004 c 12.011875,-15.22422 25.960358,-50.03902 51.218296,-50.06691 22.768107,-0.29046 56.484214,14.91801 91.896734,7.42125 25.336076,-4.1561 53.942886,-21.10382 84.031586,-17.15443 29.27237,0.40844 44.12073,-2.858 75.6511,-5.57011 m -302.797748,64.45294 c 11.76776,-15.60084 25.548098,-50.18597 50.786756,-50.12606 22.672261,-0.17893 56.784526,14.8132 92.466906,7.06623 24.741836,-4.31242 53.578686,-20.3746 82.913166,-17.27683 29.44923,-0.001 43.50514,-2.99852 75.33417,-4.96648 m -301.501169,64.35765 c 11.52674,-15.9717 25.144935,-50.30324 50.355349,-50.15698 22.576371,-0.0672 57.084884,14.7084 93.037104,6.71117 24.147576,-4.46872 53.214466,-19.64536 81.794676,-17.39923 29.62614,-0.41522 42.88965,-3.13905 75.01732,-4.36279 m -300.204571,64.23253 c 11.289039,-16.33586 24.751108,-50.3891 49.923891,-50.1581 22.480525,0.0442 57.385184,14.60357 93.607314,6.35612 23.553346,-4.62508 52.850216,-18.91613 80.676206,-17.52158 29.80301,-0.82707 42.27411,-3.27964 74.70041,-3.75916 m -298.90753,64.07564 c 11.054846,-16.69231 24.366819,-50.44156 49.492033,-50.12741 22.384635,0.15577 57.685521,14.49878 94.177537,6.00105 22.95903,-4.78143 52.48592,-18.18686 79.5577,-17.64397 29.97993,-1.2389 41.65857,-3.4202 74.38353,-3.15549 m -297.612527,63.88932 c 10.824925,-17.03869 23.992923,-50.46296 49.062184,-50.06734 22.288774,0.2673 57.985837,14.39396 94.747723,5.64602 22.36477,-4.93772 52.12167,-17.45761 78.43929,-17.76636 30.15678,-1.65073 41.043,-3.56071 74.06664,-2.55184 M -43.643518,228.9944 c 10.598943,-17.37527 23.628936,-50.44697 48.63124,-49.97169 22.192892,0.37885 58.286162,14.28924 95.317908,5.291 21.77054,-5.09407 51.75745,-16.72839 77.32081,-17.88878 30.33369,-2.06254 40.42751,-3.70124 73.74973,-1.94814 m -295.018258,63.40674 c 10.377067,-17.70098 23.274994,-50.39034 48.19823,-49.83722 22.097057,0.49041 58.586512,14.18438 95.888118,4.93593 21.17627,-5.25037 51.39319,-15.99917 76.20235,-18.01115 30.51054,-2.47437 39.81196,-3.84179 73.43284,-1.34452" />
    <path
       id="path2997-1-5"
       style="fill:url(#linearGradient4551-1-2);fill-opacity:1;stroke:none;stroke-width:0.0972278px;stroke-linecap:butt;stroke-linejoin:miter;stroke-opacity:1"
       d="m 326.16806,53.937727 c -54.29266,6.827359 -50.39759,76.073793 -100.33032,84.124583 -33.1936,1.86414 -43.73057,-7.28197 -68.98751,-0.92294 -30.08479,7.57456 -48.0368,33.74913 -73.743306,36.2221 -27.534268,2.64875 -58.849379,-10.66426 -88.712421,3.55224 -18.54139,8.82674 -27.1877,31.307 -38.035407,47.4369 v 21.97282 c 24.330097,-13.94935 45.448414,-35.28482 63.006493,-40.8466 17.895444,-5.66865 36.272911,-2.34131 54.995095,-1.88878 16.48869,0.39853 33.623256,-11.03764 50.628956,-12.1667 33.99868,-2.2574 70.74426,6.46569 104.06445,1.0232 32.34003,-5.28238 55.27221,-31.44576 85.75086,-39.16766 3.69726,-0.93671 7.49652,-1.4799 11.36311,-1.76372 z" />
    <path
       id="path6969-8-3"
       style="fill:url(#linearGradient12309-5-43);fill-opacity:1;stroke:none;stroke-width:0.0972279px;stroke-linecap:butt;stroke-linejoin:miter;stroke-opacity:1"
       d="m 326.16825,101.37947 c -33.80341,4.49201 -50.86032,18.17053 -71.75409,46.80161 -24.79969,33.98337 -70.99259,20.72972 -70.99259,20.72972 l 54.51323,19.23132 88.23345,-16.06232 z" />
    <path
       id="path3305-7"
       style="fill:none;fill-opacity:1;stroke:url(#linearGradient6948-4);stroke-width:0.0972279px;stroke-linecap:butt;stroke-linejoin:miter;stroke-opacity:1"
       d="m 66.654014,188.29843 c 8.04853,0.74053 28.8792,-0.39804 36.770046,-3.09118 40.12983,-19.53462 55.128,-41.75721 100.87793,-28.48189 51.2982,14.88529 68.9745,-54.98851 121.94116,-62.724471 M 66.364694,204.0257 c 0,0 18.60356,-0.9188 44.657446,-2.48134 46.01162,-3.24172 60.12553,-2.38511 110.44561,11.2751 34.59457,9.39127 71.61969,-35.68915 104.78709,-41.65343 M 66.374674,203.4834 c 0.27755,0.0255 18.95789,-0.90087 44.385446,-2.50239 45.78833,-3.85915 60.07835,-3.75291 110.11575,9.90414 34.93498,9.53504 71.91096,-35.62103 105.38171,-41.95288 M 66.384654,202.94106 c 0.55509,0.0514 19.31221,-0.8829 44.113476,-2.52337 45.56413,-4.47505 60.02627,-5.12709 109.78577,8.53317 35.28047,9.6854 72.20287,-35.58171 105.97133,-42.295 M 66.394634,202.39873 c 0.8326,0.0765 19.66655,-0.8649 43.841516,-2.54443 45.3008,-5.09021 60.02904,-6.4912 109.45585,7.16232 35.63165,9.84278 72.49507,-35.57425 106.55559,-42.68141 M 66.404614,201.85643 c 1.11011,0.10213 20.02088,-0.84698 43.569506,-2.56545 45.08781,-5.70549 59.96009,-7.88065 109.12593,5.79131 35.99387,10.00912 72.79795,-35.60396 107.14956,-43.11679 M 66.414564,201.31411 c 1.38771,0.12774 20.37524,-0.82904 43.297546,-2.58647 44.88418,-6.31956 59.87645,-9.28003 108.79607,4.42039 36.36685,10.18489 73.10884,-35.67478 107.74958,-43.60227 M 66.424574,200.77178 c 1.6652,0.15318 20.72955,-0.81104 43.025526,-2.60748 44.66041,-6.91758 59.76898,-10.69221 108.46613,3.04949 36.74923,10.37015 73.42227,-35.78995 108.3482,-44.13744 M 66.434544,200.22944 c 1.94274,0.17877 21.08387,-0.79306 42.753596,-2.6285 44.43357,-7.52143 59.69211,-12.10243 108.1362,1.67858 37.13975,10.56523 73.73284,-35.95337 108.93814,-44.7214 M 66.444504,199.68713 c 2.2203,0.2043 21.43824,-0.77513 42.481606,-2.64952 44.20693,-8.12179 59.60679,-13.50966 107.80631,0.30758 37.56543,10.7688 74.0205,-36.16518 109.5209,-45.3547 M 66.454494,199.14481 c 2.49781,0.2298 21.79252,-0.75715 42.209626,-2.67056 43.98076,-8.71828 59.51745,-14.93055 107.47632,-1.06331 38.08063,11.01095 74.23612,-36.41803 110.09809,-46.03762 M 66.464484,198.60248 c 2.77536,0.25537 22.14686,-0.73921 41.937626,-2.6916 43.75537,-9.31082 59.42413,-16.36521 107.14644,-2.43423 38.54607,11.25228 74.53183,-36.75967 110.69362,-46.77582 M 66.474434,198.06018 c 3.05292,0.28089 22.50123,-0.72127 41.665676,-2.71264 43.53116,-9.89907 59.32529,-17.81037 106.81648,-3.80517 39.03059,11.51015 74.82378,-37.17578 111.28358,-47.56124 M 66.484404,197.51785 c 3.33044,0.30642 22.85554,-0.7033 41.393696,-2.73366 43.30854,-10.48266 59.2213,-19.26692 106.4866,-5.17612 39.53733,11.78693 75.11852,-37.6767 111.87465,-48.39299 M 66.494404,196.97553 c 3.60796,0.33195 23.20987,-0.68534 41.121696,-2.7547 43.08784,-11.0614 59.11194,-20.73556 106.15666,-6.54702 40.06633,12.08388 75.41827,-38.27162 112.46533,-49.26664 M 66.504384,196.43322 c 3.88551,0.35749 23.56418,-0.6674 40.849716,-2.77574 42.86957,-11.63501 58.9973,-22.21733 105.82674,-7.91793 40.61716,12.40248 75.72862,-38.97071 113.05559,-50.17679 M 66.514334,195.89088 c 4.16304,0.38304 23.91857,-0.64942 40.577766,-2.79674 42.65407,-12.2035 58.87733,-23.71253 105.49684,-9.2889 41.18845,12.74332 76.05779,-39.78382 113.64565,-51.11651 M 66.524324,195.34855 c 4.44059,0.40857 24.27287,-0.63148 40.305766,-2.81775 42.44184,-12.76636 58.75182,-25.22142 105.16692,-10.65982 41.77803,13.10682 76.41786,-40.72068 114.23708,-52.07794 M 66.534304,194.80627 c 4.71812,0.43411 24.6272,-0.61355 40.033786,-2.83882 42.23323,-13.32357 58.64024,-26.80549 104.83694,-12.03074 41.88324,13.39519 76.98991,-41.83686 114.82464,-53.04952 M 66.544304,194.26393 c 4.99563,0.45966 24.98152,-0.59557 39.761796,-2.85984 42.02869,-13.87501 58.5046,-28.34449 104.50706,-13.40167 42.46949,13.7952 77.37551,-43.01421 115.42258,-54.02407 M 66.554254,193.72161 c 5.27319,0.48516 25.33587,-0.57759 39.489826,-2.88086 41.82856,-14.42051 58.36105,-29.89096 104.1771,-14.7726 43.07781,14.21477 77.78854,-44.30813 116.01353,-54.9843 M 66.564224,193.17928 c 5.55074,0.51075 25.69022,-0.55964 39.217866,-2.90187 41.63317,-14.96015 58.20788,-31.43989 103.8472,-16.14352 43.71318,14.65078 78.24392,-45.71221 116.60457,-55.91953 M 66.574214,192.63697 c 5.82827,0.53627 26.04456,-0.54167 38.945846,-2.92292 41.4429,-15.49347 58.04265,-32.98467 103.5173,-17.51445 44.37998,15.09779 78.75057,-47.21095 117.19598,-56.81688 M 66.584184,192.09466 c 6.1058,0.56176 26.39888,-0.52372 38.673906,-2.94396 41.25798,-16.0208 57.85763,-34.50376 103.18737,-18.88535 44.78681,15.43133 78.66476,-48.40119 116.93898,-57.47707 0.28868,-0.0657 0.57663,-0.13095 0.8639,-0.19531 M 66.594154,191.55232 c 6.38333,0.58731 26.75322,-0.50576 38.401926,-2.96498 41.07869,-16.54185 57.38704,-35.21319 102.85746,-20.25629 49.85642,16.3996 71.46798,-48.53754 118.39942,-58.49497 M 66.604124,191.01001 c 6.66089,0.61288 27.10754,-0.4878 38.129946,-2.98602 40.90521,-17.05655 57.05623,-36.36743 102.52754,-21.62724 50.12709,16.24942 71.11316,-49.69306 118.99159,-59.28234 M 66.614124,190.46769 c 6.93838,0.63838 27.46184,-0.46984 37.857966,-3.00702 40.73772,-17.56499 56.70718,-37.49892 102.19763,-22.9982 50.39843,16.06523 70.70284,-50.81443 119.57901,-60.03488 M 66.624064,189.92536 c 7.21596,0.66393 27.81621,-0.45192 37.585986,-3.02806 40.57637,-18.06701 56.33898,-38.60336 101.86769,-24.36911 50.65914,15.83826 70.27453,-51.90839 120.1779,-60.75614 M 66.634064,189.38304 c 7.49349,0.68949 28.17052,-0.43393 37.313996,-3.04907 40.42123,-18.56266 55.95327,-39.68354 101.53774,-25.74006 50.89431,15.56769 69.83315,-52.96738 120.75941,-61.441898 M 66.644034,188.8407 c 7.77102,0.715 28.52488,-0.41594 37.042026,-3.07009 40.2724,-19.05182 55.54872,-40.73286 101.20784,-27.11096 51.11055,15.24829 69.40535,-53.99909 121.36217,-62.099948" />
    <path
       id="path2985-6-2"
       style="fill:url(#linearGradient4479-5-5);fill-opacity:1;stroke:none;stroke-width:0.0972278px;stroke-linecap:butt;stroke-linejoin:miter;stroke-opacity:1"
       d="m 326.16806,129.70985 c -3.71496,0.53779 -7.62529,1.24302 -11.8804,2.17816 -43.68538,9.60064 -51.45291,45.53489 -84.29977,42.22845 -15.9611,-1.60669 -50.86796,-11.44574 -66.55563,-8.50078 -26.72864,5.01763 -38.24328,22.15964 -65.622356,24.67292 -32.12807,2.9492 -52.466828,-13.07503 -84.320227,-8.30593 -26.764306,4.00715 -41.688917,34.54688 -54.170555,49.81916 -0.953883,1.16716 -1.942846,2.25345 -2.960026,3.27836 v 11.22929 c 9.654993,-4.75999 17.84254,-9.56378 22.471498,-12.57081 66.463859,-56.56333 56.136538,-9.37861 107.21775,-12.64884 17.271216,-1.10571 60.936226,-34.12928 78.288246,-37.73879 35.83802,-7.45482 42.97715,17.56814 78.68359,11.78223 29.51594,-4.78285 55.71467,-21.39814 83.14788,-31.64667 z" />
    <path
       id="path2974-6-8"
       style="fill:url(#linearGradient4687-8-3);fill-opacity:1;stroke:none;stroke-width:0.0972278px;stroke-linecap:butt;stroke-linejoin:miter;stroke-opacity:1"
       d="m 326.16806,153.74198 c -0.57018,0.094 -1.13797,0.17529 -1.71151,0.2868 -21.30526,4.14217 -36.72724,18.49023 -62.89334,33.80932 -29.11306,17.04445 -71.08015,-20.73749 -100.00733,-13.4891 -29.38939,7.3642 -42.37366,32.68029 -71.525346,36.76159 -29.49112,4.1288 -47.278402,-32.21008 -86.115681,-16.70338 -23.306002,9.30546 -30.892105,32.71785 -42.147818,44.25932 -1.783833,1.82912 -3.583071,3.47198 -5.407939,4.96197 v 13.14804 c 2.973264,-1.23446 5.999518,-2.71373 9.092985,-4.48759 23.799023,-13.6467 33.41223,-43.33248 62.126445,-45.16365 15.671285,-0.99942 33.816918,18.36887 57.855908,21.34392 32.154996,3.97954 54.630126,-26.59863 73.114396,-29.88138 38.07648,-6.76219 51.53279,21.13509 79.83339,24.28017 36.99026,4.11076 60.22134,-25.4268 87.78584,-40.90552 z" />
    <path
       id="path1152-0"
       style="opacity:0.239939;fill:#e9ebed;fill-opacity:0.491332;stroke:none;stroke-width:0.0972278px;stroke-linecap:butt;stroke-linejoin:miter;stroke-opacity:1"
       d="m 326.17635,159.40106 c -26.45159,18.68691 -48.92284,63.70492 -83.37786,63.69123 34.43263,1.38299 56.92894,-26.28863 83.37786,-41.11481 z m -152.04759,22.02607 c -33.1195,0.54485 -51.55474,45.55452 -85.414936,47.33096 30.400436,1.59633 51.990986,-27.00121 69.835006,-30.17025 38.07648,-6.76219 51.53281,21.13509 79.83339,24.28017 -26.53182,-2.9485 -32.93189,-41.95615 -64.25346,-41.44088 z M 26.305219,198.88136 c -28.24494,-0.3385 -48.596715,46.50878 -69.94664,54.63543 v 2.79725 c 2.917527,-1.31157 5.853102,-2.76198 8.772592,-4.36511 23.799022,-13.64672 33.73314,-42.99246 62.447355,-44.82363 15.671285,-0.99942 33.816918,18.46086 57.855908,21.4359 -24.03899,-2.97504 -33.160114,-29.3686 -59.129215,-29.67984 z" />
    <path
       id="path4167-1"
       style="fill:url(#linearGradient14655-9);fill-opacity:1;stroke:none;stroke-width:0.097228px;stroke-linecap:butt;stroke-linejoin:miter;stroke-opacity:1"
       d="m 326.16806,179.48306 c -25.59666,15.45453 -48.78128,42.57773 -81.51802,43.56272 -0.61381,0.0286 -1.23007,0.0473 -1.85155,0.047 1.07603,0.0433 2.1404,0.0582 3.1936,0.046 4.21216,-0.049 8.24579,-0.53234 12.13154,-1.36633 0.69683,-0.14955 1.38319,-0.32285 2.07068,-0.49454 0.27104,-0.0676 0.54684,-0.1238 0.81651,-0.19482 0,-1.4e-4 0,-2.7e-4 0.003,-5.3e-4 0.45773,-0.12058 0.90739,-0.2612 1.36115,-0.39119 0.49162,-0.14083 0.98724,-0.27223 1.47434,-0.42375 0.9358,-0.29113 1.86298,-0.60154 2.78275,-0.93017 0,-2.7e-4 0,-8e-4 0.003,-10e-4 0.91961,-0.32859 1.83168,-0.67517 2.73624,-1.0387 0,-2.6e-4 0.003,-7.9e-4 0.003,-0.001 0.10509,-0.0422 0.20769,-0.0896 0.31263,-0.13229 0.79883,-0.32513 1.5944,-0.65837 2.38228,-1.00872 0.89043,-0.39596 1.77371,-0.80721 2.65099,-1.233 0,-5.3e-4 0.003,-0.001 0.003,-0.002 0.82828,-0.40201 1.65063,-0.819 2.46806,-1.2454 0.0493,-0.0258 0.0996,-0.0492 0.14883,-0.0749 0.86479,-0.45295 1.72347,-0.91864 2.57709,-1.3963 0,-7.9e-4 0.003,-0.001 0.004,-0.002 0.85366,-0.47769 1.70215,-0.96725 2.54559,-1.4671 0,-7.9e-4 0.003,-0.001 0.004,-0.002 0.84336,-0.49983 1.68201,-1.00967 2.51614,-1.52911 0,-7.9e-4 0.003,-0.002 0.004,-0.003 0.8341,-0.51947 1.66341,-1.04788 2.48925,-1.5844 0,-7.9e-4 0.003,-0.002 0.004,-0.003 1.65277,-1.07381 3.28996,-2.17945 4.91548,-3.30626 0,-10e-4 0.003,-0.002 0.004,-0.003 0.75668,-0.52456 1.50365,-1.06606 2.25568,-1.59887 0.86487,-0.61277 1.73487,-1.21791 2.59466,-1.83865 3.21287,-2.31956 6.39392,-4.68409 9.57514,-7.01146 0,-7.9e-4 0.003,-0.001 0.003,-0.002 0.1034,-0.0757 0.20669,-0.14924 0.31006,-0.2248 1.48913,-1.08825 2.97839,-2.16984 4.47104,-3.23236 1.59295,-1.13396 3.18958,-2.24873 4.79401,-3.33364 v -5.3e-4 c 1.2959,-0.87629 2.60191,-1.71639 3.90983,-2.54868 0.31398,-0.19977 0.6237,-0.41499 0.93845,-0.61185 0.81245,-0.50806 1.62769,-1.00557 2.44636,-1.49242 0.47406,-0.28191 0.95195,-0.55167 1.42833,-0.82579 0.34687,-0.19957 0.69154,-0.40576 1.03973,-0.60099 z m -154.81587,16.45326 v 5.3e-4 c -32.21397,-0.83583 -46.02258,33.69824 -82.638366,32.82125 30.400456,1.59633 51.990986,-27.00121 69.835006,-30.17025 1.15693,-0.20547 2.28927,-0.37618 3.40186,-0.51935 0.36765,-0.0473 0.72121,-0.0745 1.08418,-0.11524 0.73759,-0.0828 1.47592,-0.16626 2.19469,-0.22272 0.41758,-0.0328 0.82108,-0.0467 1.23249,-0.0708 0.64354,-0.0379 1.28887,-0.0783 1.91771,-0.0956 0.42819,-0.0118 0.8445,-0.007 1.26607,-0.01 0.59769,-0.004 1.19652,-0.008 1.78129,0.005 0.40716,0.009 0.80505,0.0333 1.20613,0.0517 0.58742,0.0268 1.17343,0.0546 1.74821,0.0987 0.38146,0.0293 0.75617,0.0682 1.13223,0.1049 0.57248,0.0559 1.14234,0.11515 1.70274,0.18759 0.36656,0.0475 0.72779,0.10234 1.08934,0.15658 0.56194,0.0842 1.12039,0.1733 1.6707,0.27336 0.33397,0.0608 0.66494,0.12584 0.99477,0.19224 0.57095,0.11479 1.13645,0.23658 1.6955,0.36742 0.29931,0.0702 0.59748,0.14201 0.89349,0.21653 0.57747,0.14523 1.14858,0.29873 1.7141,0.45992 0.2624,0.0748 0.52454,0.14974 0.78445,0.22789 0.60838,0.1827 1.20956,0.37496 1.80506,0.57464 0.20486,0.0688 0.41051,0.13654 0.61392,0.20722 0.65022,0.22569 1.2924,0.46139 1.92856,0.70539 0.14135,0.0542 0.28407,0.10661 0.42478,0.16174 0.72446,0.28356 1.44021,0.5786 2.14819,0.88315 0.0458,0.0197 0.0922,0.0386 0.13798,0.0584 3.02006,1.30636 5.89127,2.79683 8.69714,4.35632 0.24777,0.13783 0.49537,0.275 0.74207,0.41393 4.60586,2.59181 9.04269,5.34889 13.59039,7.83983 0.15188,0.0832 0.30568,0.16233 0.45786,0.24495 5.32172,2.88691 10.82355,5.37645 16.99845,6.72207 -22.86265,-5.19524 -32.97893,-25.3676 -62.25099,-26.12709 z M 28.932449,206.13725 c -0.494898,-0.01 -0.987187,7.9e-4 -1.476915,0.032 -28.714215,1.83118 -40.565525,32.40675 -64.325275,46.12173 -2.296596,1.32568 -4.56171,2.4652 -6.771163,3.46749 v 1.00253 c 0.922204,-0.38466 1.845096,-0.77234 2.778125,-1.20562 0.751769,-0.35145 1.50876,-0.71423 2.27738,-1.10225 0.293871,-0.14794 0.588633,-0.29966 0.883667,-0.45269 1.039641,-0.54014 2.087712,-1.1005 3.153296,-1.71152 23.799021,-13.64668 33.41275,-43.33246 62.126962,-45.16362 11.753464,-0.74958 24.89855,10.00945 40.878128,16.69098 1.33163,0.55678 2.6827,1.0855 4.05454,1.57664 2.51545,0.90058 5.10933,1.65303 7.768,2.24689 -20.80034,-4.75603 -37.157722,-21.23277 -51.346745,-21.50256 z m 51.346745,21.50256 c 0.40448,0.0925 0.80911,0.18376 1.21698,0.26717 -0.40859,-0.0819 -0.81185,-0.17667 -1.21698,-0.26717 z m 1.21698,0.26717 c 0.53916,0.10806 1.0779,0.21676 1.62315,0.30903 -0.54444,-0.0935 -1.08467,-0.1989 -1.62315,-0.30903 z m 1.62315,0.30903 c 0.0812,0.0139 0.1621,0.0283 0.2434,0.0419 -0.0814,-0.0134 -0.16217,-0.0281 -0.2434,-0.0419 z m 0.2434,0.0419 c 0.68629,0.11288 1.37563,0.21719 2.07171,0.30333 -0.69565,-0.0861 -1.38565,-0.18897 -2.07171,-0.30333 z m 150.240456,-6.19394 c 0.76375,0.17355 1.54297,0.32847 2.33887,0.46302 0.80224,0.13261 1.61358,0.2492 2.44017,0.34106 -1.64407,-0.18271 -3.22742,-0.46595 -4.77904,-0.80408 z" />
    <path
       id="path16839-7"
       style="fill:url(#linearGradient25349-0);fill-opacity:1;stroke:none;stroke-width:0.972278;stroke-linecap:butt;stroke-linejoin:miter;stroke-miterlimit:4;stroke-dasharray:none;stroke-opacity:1"
       d="m 326.16806,128.23862 c 0,0 -7.21624,1.29153 -11.06029,2.42621 -45.7693,13.5101 -49.29506,41.10022 -79.37554,43.76066 -12.9139,1.14216 -50.09589,-11.93034 -70.77707,-9.05114 -26.70465,3.71779 -40.54729,21.13267 -63.89934,24.40722 -28.755936,4.03231 -58.458796,-14.29184 -90.882948,-7.84472 -25.281969,5.02699 -35.411629,31.46494 -53.813776,51.77701 v 1.22656 c 15.512266,-15.5251 28.052796,-46.51352 53.813776,-52.3416 31.414521,-7.10711 65.155022,14.20142 91.534468,8.12325 28.43759,-6.55239 36.754,-20.52517 63.25557,-24.69143 23.50879,-3.69577 55.63901,11.96446 70.92281,10.09449 28.03149,-3.42964 38.31241,-31.80693 81.64206,-44.33737 2.91404,-0.84272 8.64028,-1.34514 8.64028,-1.34514 z" />
  </g>
</svg>
