<?xml version="1.0" encoding="UTF-8"?>
<!-- Created with Inkscape (http://www.inkscape.org/) -->
<svg width="3640" height="2160" version="1.1" viewBox="0 0 963.08 571.5" xmlns="http://www.w3.org/2000/svg" xmlns:xlink="http://www.w3.org/1999/xlink">
 <defs>
  <linearGradient id="linearGradient25627">
   <stop stop-color="#bda62c" offset="0"/>
   <stop stop-color="#ae9a28" stop-opacity=".98824" offset=".14669"/>
   <stop stop-color="#8c7b20" stop-opacity=".96863" offset=".30531"/>
   <stop stop-color="#bda62c" stop-opacity=".95686" offset=".51079"/>
   <stop stop-color="#82721e" stop-opacity=".94902" offset=".6231"/>
   <stop stop-color="#c0ab2c" stop-opacity=".99608" offset=".83541"/>
   <stop stop-color="#7f6f1e" stop-opacity=".92157" offset="1"/>
  </linearGradient>
  <linearGradient id="linearGradient25349-6" x1="-19.327" x2="365.1" y1="174.88" y2="71.87" gradientTransform="matrix(3.0182 0 0 3.0182 -149.27 -48.1)" gradientUnits="userSpaceOnUse" xlink:href="#linearGradient25627"/>
  <linearGradient id="linearGradient14655-8" x1="-46.183" x2="1721.9" y1="706.05" y2="445.69" gradientTransform="matrix(.79857 0 0 .79857 -149.27 -48.1)" gradientUnits="userSpaceOnUse">
   <stop stop-color="#bda62c" offset="0"/>
   <stop stop-color="#615516" stop-opacity=".98824" offset=".098576"/>
   <stop stop-color="#cab12f" stop-opacity=".97647" offset=".25339"/>
   <stop stop-color="#8c7b20" stop-opacity=".96863" offset=".33815"/>
   <stop stop-color="#87771f" stop-opacity=".96471" offset=".42151"/>
   <stop stop-color="#bda62c" stop-opacity=".95686" offset=".53339"/>
   <stop stop-color="#82721e" stop-opacity=".94902" offset=".6231"/>
   <stop stop-color="#80711e" stop-opacity=".93725" offset=".73471"/>
   <stop stop-color="#d7be31" stop-opacity=".92941" offset=".83541"/>
   <stop stop-color="#bda62c" stop-opacity=".92175" offset="1"/>
  </linearGradient>
  <linearGradient id="linearGradient4687-8-7" x1="1155.1" x2="93.584" y1="262.51" y2="615.88" gradientTransform="matrix(.97301 .10329 -.10329 .97301 -84.123 -96.348)" gradientUnits="userSpaceOnUse">
   <stop stop-color="#8b5cf6" offset="0"/>
   <stop stop-color="#6d28d9" offset=".21248"/>
   <stop stop-color="#6f5cf6" offset=".42964"/>
   <stop stop-color="#7c3aed" offset=".59961"/>
   <stop stop-color="#6376f6" offset=".80968"/>
   <stop stop-color="#6d28d9" offset="1"/>
  </linearGradient>
  <linearGradient id="linearGradient4479-5-3" x1="1143.2" x2="120.86" y1="196.75" y2="539.49" gradientTransform="matrix(.97301 .10329 -.10329 .97301 -84.123 -96.348)" gradientUnits="userSpaceOnUse">
   <stop stop-color="#8b5cf6" offset="0"/>
   <stop stop-color="#5151dc" offset=".25152"/>
   <stop stop-color="#3b82f6" offset=".4454"/>
   <stop stop-color="#8b69f6" offset=".63944"/>
   <stop stop-color="#60a5fa" offset=".83593"/>
   <stop stop-color="#60a5fa" offset="1"/>
  </linearGradient>
  <linearGradient id="linearGradient6948-5" x1="466.89" x2="1404.4" y1="475.5" y2="195.51" gradientTransform="matrix(.97848 0 0 .97848 -168.49 -132.06)" gradientUnits="userSpaceOnUse">
   <stop stop-color="#3e2fdd" offset="0"/>
   <stop stop-color="#a4007e" offset="1"/>
  </linearGradient>
  <linearGradient id="linearGradient12309-5-7" x1="1181.7" x2="861.39" y1="252.37" y2="436.6" gradientTransform="matrix(.97848 0 0 .97848 -168.49 -128.93)" gradientUnits="userSpaceOnUse">
   <stop stop-color="#7e5af0" offset="0"/>
   <stop stop-color="#7c61ee" offset=".49538"/>
   <stop stop-color="#4c6fe2" offset="1"/>
  </linearGradient>
  <linearGradient id="linearGradient4551-1-4" x1="1112.8" x2="89.147" y1="69.067" y2="487.89" gradientTransform="matrix(.97301 .10329 -.10329 .97301 -84.123 -96.348)" gradientUnits="userSpaceOnUse">
   <stop stop-color="#60a5fa" offset="0"/>
   <stop stop-color="#365fd8" offset=".23216"/>
   <stop stop-color="#3b82f6" offset=".43871"/>
   <stop stop-color="#4d4eeb" offset=".65563"/>
   <stop stop-color="#60a5fa" offset="1"/>
  </linearGradient>
  <linearGradient id="linearGradient24274-0" x1="132.11" x2="1068.3" y1="575.51" y2="320.25" gradientTransform="matrix(.97301 .10329 -.10329 .97301 -84.123 -96.348)" gradientUnits="userSpaceOnUse">
   <stop stop-color="#1c52f2" offset="0"/>
   <stop stop-color="#d62bc3" stop-opacity=".42363" offset="1"/>
  </linearGradient>
  <linearGradient id="linearGradient118139" x1="100.6" x2="345.1" y1="115.79" y2="-9.8374" gradientTransform="matrix(2.6627 0 0 2.6627 .39379 2.9609)" gradientUnits="userSpaceOnUse">
   <stop stop-color="#8b5cf6" offset="0"/>
   <stop stop-color="#5151dc" offset=".25152"/>
   <stop stop-color="#3b82f6" offset=".4454"/>
   <stop stop-color="#8b5cf6" offset=".63944"/>
   <stop stop-color="#60a5fa" offset=".83593"/>
   <stop stop-color="#60a5fa" offset="1"/>
  </linearGradient>
  <linearGradient id="linearGradient161031" x1="-12.42" x2="373.66" y1="169.75" y2="-5.834" gradientTransform="matrix(2.6627 0 0 2.6627 .39379 -13.922)" gradientUnits="userSpaceOnUse" xlink:href="#linearGradient25627"/>
 </defs>
 <rect x="-7.5977e-6" y="-1.2773e-5" width="963.08" height="571.5" fill="#2a2e32" stop-color="#000000" style="-inkscape-stroke:none;font-variation-settings:normal;paint-order:stroke fill markers"/>
 <path d="m975.15-42.408c-144.56 18.179-134.19 205.69-267.15 227.13-88.384 4.9637-116.44-22.621-183.69-5.6894-80.107 20.169-127.91 93.095-196.36 99.68-73.315 7.0528-156.7-29.794-236.21 8.0598-49.37 23.503-72.392 83.566-101.28 126.51v54.925c64.784-37.143 121.02-93.953 167.77-108.76 47.65-15.094 96.584-6.2342 146.44-5.0292 43.904 1.0612 89.528-29.39 134.81-32.396 90.528-6.0108 188.37 17.216 277.09 2.7245 86.112-14.065 147.17-83.73 228.33-104.29 9.8447-2.4942 19.961-3.9405 30.256-4.6962z" fill="url(#linearGradient161031)"/>
 <path d="m263.27 345.91s75.067-12.226 112.66-17.974c53.928-8.2467 108.51-12.675 161.94-23.693 53.406-11.013 107.35-22.15 158.03-42.286 65.507-26.031 121.46-72.303 186.09-100.46 30.04-13.087 93.101-31.548 93.101-31.548m-713.41 214.5s75.717-12.072 113.55-18.246c53.919-8.7991 108.26-15.393 161.69-26.792 53.515-11.418 108.07-21.094 158.8-41.6 65.089-26.31 119.82-73.863 183.6-103.19 30.9-14.21 95.847-34.985 95.847-34.985m-715.1 223.36s76.37-11.911 114.45-18.515c53.925-9.3518 108-18.101 161.45-29.886 53.624-11.825 108.79-20.033 159.57-40.923 64.669-26.601 118.12-75.477 181.06-105.95 31.738-15.368 98.537-38.496 98.537-38.496m-716.66 232.31s77.026-11.745 115.34-18.78c53.945-9.9051 107.72-20.799 161.2-32.975 53.731-12.234 109.52-18.959 160.34-40.253 64.317-26.947 116.47-77.282 178.62-108.91 32.637-16.609 101.44-42.167 101.44-42.167m-718.55 241.63s77.684-11.574 116.23-19.042c53.98-10.459 107.43-23.489 160.96-36.06 53.838-12.644 110.25-17.889 161.11-39.592 63.892-27.261 114.66-78.978 175.94-111.68 33.419-17.835 104-45.803 104-45.803m-719.84 250.72s78.346-11.398 117.11-19.301c54.029-11.015 107.13-26.17 160.72-39.14 53.944-13.056 110.99-16.806 161.89-38.937 63.53-27.624 112.88-80.844 173.35-114.63 34.25-19.138 106.75-49.582 106.75-49.582m-721.42 260.13s79.009-11.218 118-19.557c54.091-11.571 106.81-28.842 160.49-42.217 54.048-13.468 111.73-15.717 162.66-38.289 63.19-28.009 111.07-82.784 170.76-117.64 35.076-20.486 109.52-53.436 109.52-53.436m-723.01 269.68s79.676-11.033 118.88-19.811c54.168-12.129 106.48-31.507 160.25-45.29 54.152-13.88 112.49-14.623 163.43-37.647 62.871-28.416 109.24-84.789 168.15-120.7 35.893-21.877 112.3-57.357 112.3-57.357m-724.61 279.34s80.345-10.846 119.76-20.063c54.258-12.689 106.14-34.165 160.02-48.36 54.255-14.293 113.25-13.524 164.2-37.01 62.572-28.841 107.37-86.848 165.53-123.79 36.696-23.306 115.09-61.328 115.09-61.328m-726.2 289.09s81.016-10.655 120.63-20.312c54.362-13.251 105.78-36.817 159.79-51.429 54.358-14.705 114.01-12.421 164.97-36.377 62.296-29.284 105.48-88.957 162.91-126.91 37.486-24.772 117.9-65.342 117.9-65.342m-727.81 298.91s81.69-10.462 121.51-20.559c54.479-13.816 105.41-39.463 159.56-54.496 54.459-15.117 114.75-11.38 165.74-35.748 61.246-29.265 102.53-89.432 158.46-127.9 37.348-25.691 117.61-68.28 117.61-68.28l4.9446-3.3222m-729.43 308.85s82.366-10.266 122.38-20.804c54.609-14.382 105.02-42.101 159.34-57.559 54.56-15.528 115.56-10.204 166.52-35.125 61.811-30.227 101.61-93.316 157.64-133.25 39.021-27.815 123.54-73.519 123.54-73.519m-731.02 318.8s83.044-10.069 123.25-21.048c54.752-14.952 104.62-44.737 159.11-60.624 54.661-15.937 116.34-9.0933 167.29-34.5 61.599-30.714 99.648-95.527 155.01-136.43 39.759-29.37 126.36-77.606 126.36-77.606m-732.63 328.74s83.723-9.8707 124.12-21.292c54.907-15.526 104.21-47.371 158.89-63.691 54.761-16.345 117.12-7.9819 168.07-33.874 61.403-31.207 97.659-97.735 152.38-139.56 40.471-30.934 129.17-81.659 129.17-81.659m-734.22 338.62s84.405-9.6721 124.98-21.536c55.073-16.103 103.79-50.004 158.66-66.76 54.862-16.751 117.91-6.8705 168.84-33.246 61.226-31.702 95.653-99.936 149.76-142.67 41.159-32.505 131.97-85.668 131.97-85.668m-735.82 348.42s85.087-9.4735 125.84-21.779c55.252-16.684 103.35-52.636 158.44-69.833 54.963-17.155 118.7-5.7596 169.63-32.615 61.064-32.199 93.635-102.12 147.15-145.73 41.823-34.077 134.77-89.621 134.77-89.621m-737.43 358.11s85.771-9.2751 126.7-22.023c55.442-17.269 102.89-55.268 158.22-72.908 55.065-17.557 119.49-4.6498 170.41-31.981 60.915-32.693 91.604-104.28 144.55-148.73 42.46-35.643 137.54-93.503 137.54-93.503m-739.02 367.68s86.455-9.0773 127.55-22.267c55.643-17.859 102.42-57.901 157.99-75.988 55.167-17.957 120.28-3.5412 171.2-31.342 60.782-33.184 89.567-106.4 141.98-151.67 43.074-37.202 140.31-97.306 140.31-97.306m-740.63 377.11s87.141-8.8805 128.4-22.512c55.855-18.453 101.94-60.534 157.77-79.073 55.271-18.354 121.08-2.4342 172-30.698 60.658-33.669 87.522-108.49 139.41-154.54 43.66-38.746 143.05-101.02 143.05-101.02m-742.22 386.38s87.827-8.685 129.25-22.757c56.078-19.052 101.44-63.17 157.54-82.162 55.375-18.748 121.87-1.3287 172.8-30.047 60.546-34.146 85.475-110.53 136.87-157.33 44.222-40.273 145.77-104.63 145.77-104.63m-743.82 395.47s88.514-8.491 130.09-23.003c56.311-19.656 100.93-65.807 157.31-85.257 55.482-19.139 122.67-0.22473 173.6-29.391 60.441-34.613 83.427-112.51 134.34-160.04 44.76-41.779 148.48-108.14 148.48-108.14m-745.42 404.37s89.201-8.2988 130.93-23.251c56.555-20.265 100.4-68.447 157.08-88.358 55.59-19.528 123.47 0.87744 174.41-28.728 60.343-35.069 81.381-114.44 131.84-162.66 45.273-43.26 151.16-111.53 151.16-111.53m-747.02 413.07s89.889-8.1087 131.76-23.499c56.808-20.879 99.859-71.09 156.85-91.464 55.7-19.913 124.27 1.9784 175.22-28.058 60.25-35.513 79.34-116.31 129.36-165.19 45.763-44.714 153.82-114.81 153.82-114.81m-748.62 421.56s90.576-7.9209 132.6-23.749c57.071-21.498 99.302-73.735 156.62-94.577 55.812-20.296 125.06 3.0781 176.05-27.38 60.162-35.943 77.304-118.12 126.91-167.62 46.231-46.139 156.46-117.97 156.46-117.97m-750.22 429.84s91.264-7.7356 133.42-24c57.344-22.122 98.73-76.384 156.38-97.696 55.926-20.675 125.86 4.1768 176.87-26.695 60.077-36.358 75.275-119.86 124.48-169.96 46.677-47.533 159.07-121 159.07-121m-751.82 437.89s91.951-7.553 134.25-24.253c57.625-22.752 98.143-79.037 156.14-100.82 56.043-21.051 126.66 5.2751 177.71-26.001 59.994-36.758 73.257-121.53 122.07-172.2 47.105-48.896 161.66-123.91 161.66-123.91m-753.42 445.73s92.638-7.3732 135.07-24.506c57.916-23.388 97.542-81.693 155.9-103.95 56.163-21.424 127.46 6.3731 178.55-25.3 59.911-37.143 71.247-123.13 119.69-174.34 47.511-50.224 164.21-126.69 164.21-126.69m-755.02 453.34s93.324-7.1965 135.88-24.762c58.216-24.028 96.926-84.353 155.66-107.09 56.285-21.794 128.26 7.4712 179.39-24.59 59.83-37.512 69.252-124.67 117.34-176.39 47.902-51.52 166.76-129.35 166.76-129.35m-756.63 460.73s94.01-7.023 136.69-25.018c58.524-24.674 96.296-87.016 155.41-110.24 56.41-22.161 129.05 8.5698 180.25-23.873 59.748-37.864 67.267-126.14 115.01-178.34 48.274-52.782 169.27-131.89 169.27-131.89" fill="none" stroke="url(#linearGradient118139)" stroke-width=".25889px"/>
 <path d="m-4.8798 497.64c53.191-13.748 110.19-94.727 168.49-103.44 68.793-10.278 124.81 48.652 196.11 50.013 118.1 2.2539 174.67-118.33 319.05-35.249 62.872 36.178 169.93 4.3651 228.44-66.267m-912.66 153.71c52.639-14.114 109.03-96.367 167.92-104.81 68.538-9.9813 125.61 48.373 197.63 49.067 116.51 1.8376 173.7-116.39 316.07-35.575 63.343 35.081 168.29 3.9909 227.59-64.66m-909.79 154.75c52.088-14.48 107.87-98.007 167.35-106.18 68.283-9.6844 126.41 48.094 199.14 48.122 114.93 1.4214 172.73-114.45 313.09-35.901 63.814 33.985 166.65 3.6168 226.75-63.052m-906.91 155.78c51.536-14.845 106.71-99.647 166.77-107.55 68.027-9.3872 127.21 47.815 200.66 47.176 113.35 1.0051 171.76-112.5 310.12-36.226 64.285 32.888 165.01 3.2424 225.91-61.445m-904.03 156.81c50.985-15.211 105.55-101.29 166.2-108.92 67.772-9.0902 128.01 47.536 202.18 46.231 111.77 0.58875 170.79-110.56 307.14-36.552 64.756 31.791 163.37 2.8681 225.06-59.838m-901.16 157.85c50.433-15.576 104.39-102.93 165.63-110.29 67.517-8.7932 128.81 47.257 203.7 45.286 110.19 0.17228 169.82-108.62 304.16-36.878 65.226 30.695 161.73 2.494 224.22-58.23m-898.28 158.88c49.882-15.942 103.23-104.57 165.05-111.66 67.262-8.4963 129.61 46.978 205.22 44.34 108.6-0.24363 168.85-106.68 301.18-37.204 65.698 29.598 160.09 2.1198 223.37-56.623m-895.4 159.92c49.33-16.308 102.07-106.21 164.48-113.03 67.006-8.1992 130.41 46.699 206.74 43.395 107.02-0.65989 167.88-104.74 298.2-37.53 66.169 28.502 158.45 1.7456 222.53-55.016m-892.53 160.95c48.778-16.673 100.91-107.85 163.91-114.4 66.751-7.9021 131.21 46.419 208.25 42.45 105.44-1.0762 166.91-102.79 295.23-37.856 66.64 27.405 156.82 1.3713 221.69-53.408m-889.12 161.8c48.076-17.519 99.454-109.32 162.81-115.58 66.496-7.6051 132.01 46.14 209.77 41.504 103.86-1.4926 165.94-100.85 292.25-38.182 67.111 26.309 155.18 0.99718 220.84-51.801m-885.67 162.61c47.359-18.425 97.981-110.76 161.66-116.73 66.24-7.308 132.81 45.861 211.29 40.559 102.27-1.9087 164.97-98.911 289.27-38.508 67.582 25.212 153.54 0.62294 220-50.194m-882.22 163.39c46.642-19.344 96.519-112.17 160.51-117.85 65.985-7.0111 133.61 45.582 212.81 39.613 100.69-2.325 164-96.97 286.29-38.834 68.053 24.115 151.9 0.24896 219.16-48.586m-878.76 164.15c45.924-20.277 95.067-113.56 159.36-118.95 65.73-6.714 134.41 45.303 214.33 38.668 99.109-2.7413 163.03-95.028 283.31-39.159 68.524 23.019 150.26-0.12595 218.31-46.979m-875.31 164.89c45.208-21.22 93.628-114.92 158.21-120.02 65.475-6.417 135.21 45.024 215.85 37.723 97.527-3.1575 162.06-93.086 280.33-39.485 68.994 21.922 148.62-0.49976 217.47-45.371m-871.86 165.6c44.492-22.175 92.201-116.25 157.06-121.07 65.219-6.12 136.01 44.745 217.36 36.777 95.944-3.5736 161.09-91.144 277.36-39.811 69.465 20.826 146.98-0.87379 216.62-43.764m-868.41 166.28c43.776-23.142 90.786-117.56 155.91-122.09 64.964-5.8229 136.81 44.466 218.88 35.832 94.362-3.99 160.12-89.203 274.38-40.137 69.936 19.729 145.34-1.2482 215.78-42.157m-864.95 166.94c43.062-24.12 89.383-118.83 154.76-123.08 64.709-5.5259 137.61 44.187 220.4 34.887 92.78-4.4063 159.15-87.261 271.4-40.463 70.407 18.633 143.7-1.6224 214.94-40.549m-861.5 167.56c42.349-25.108 87.995-120.07 153.62-124.04 64.454-5.2289 138.4 43.908 221.92 33.941 91.197-4.8225 158.18-85.319 268.42-40.789 70.878 17.536 142.06-1.9967 214.09-38.942m-858.05 168.16c41.637-26.107 86.619-121.28 152.47-124.97 64.198-4.932 139.2 43.629 223.44 32.996 89.615-5.2388 157.21-83.378 265.44-41.115 71.349 16.44 140.43-2.3708 213.25-37.335m-854.6 168.71c40.926-27.114 85.258-122.44 151.32-125.86 63.943-4.6349 140 43.35 224.96 32.05 88.033-5.655 156.24-81.436 262.47-41.44 71.82 15.343 138.79-2.7451 212.4-35.727m-851.14 169.23c40.217-28.13 83.912-123.57 150.17-126.71 63.688-4.3378 140.8 43.071 226.47 31.105 86.45-6.0714 155.27-79.494 259.49-41.766 72.291 14.246 137.15-3.1193 211.56-34.12m-847.69 169.71c39.511-29.153 82.58-124.66 149.02-127.53 63.432-4.0408 141.6 42.792 227.99 30.16 84.868-6.4876 154.3-77.552 256.51-42.092 72.762 13.15 135.51-3.4936 210.72-32.513m-844.24 170.16c38.807-30.181 81.266-125.71 147.87-128.31 63.177-3.7437 142.4 42.513 229.51 29.214 83.286-6.9039 153.33-75.61 253.53-42.418 73.233 12.053 133.87-3.8678 209.87-30.905m-840.79 170.56c38.106-31.216 79.967-126.71 146.72-129.05 62.922-3.4467 143.2 42.234 231.03 28.269 81.703-7.32 152.36-73.669 250.55-42.744 73.704 10.957 132.23-4.242 209.03-29.298m-837.33 170.91c37.407-32.256 78.685-127.67 145.57-129.74 62.667-3.1496 144 41.955 232.55 27.324 80.121-7.7363 151.39-71.727 247.58-43.07 74.175 9.86 130.59-4.6162 208.19-27.69m-833.88 171.22c36.713-33.297 77.421-128.57 144.42-130.38 62.411-2.8526 144.8 41.676 234.06 26.378 78.539-8.1527 150.42-69.785 244.6-43.396 74.646 8.7634 128.95-4.9905 207.34-26.083m-830.43 171.48c36.022-34.34 76.176-129.42 143.27-130.97 62.156-2.5556 145.6 41.396 235.58 25.433 76.956-8.5688 149.45-67.843 241.62-43.722 75.117 7.667 127.31-5.3647 206.5-24.476m-826.97 171.68c35.335-35.385 74.948-130.21 142.12-131.51 61.901-2.2586 146.4 41.117 237.1 24.487 75.374-8.9851 148.48-65.902 238.64-44.048 75.588 6.5704 125.67-5.7388 205.65-22.868m-823.52 171.83c34.653-36.425 73.742-130.95 140.98-132 61.646-1.9616 147.2 40.838 238.62 23.542 73.792-9.4014 147.51-63.96 235.66-44.374 76.059 5.4738 124.04-6.113 204.81-21.261m-820.07 171.92c33.977-37.464 72.555-131.62 139.83-132.42 61.39-1.6646 148 40.559 240.14 22.597 72.209-9.8176 146.54-62.018 232.68-44.699 76.53 4.3772 122.4-6.4873 203.97-19.654m-816.62 171.94c33.306-38.497 71.389-132.23 138.68-132.79 61.135-1.3675 148.8 40.28 241.66 21.651 70.627-10.234 145.57-60.077 229.71-45.025 77.001 3.2807 120.76-6.8614 203.12-18.046m-813.16 171.9c32.641-39.522 70.246-132.77 137.53-133.08 60.88-1.0704 149.6 40.001 243.17 20.706 69.045-10.65 144.6-58.135 226.73-45.351 77.472 2.1841 119.12-7.2357 202.28-16.439m-809.71 171.8c31.984-40.537 69.124-133.24 136.38-133.31 60.624-0.77341 150.4 39.722 244.69 19.76 67.462-11.066 143.63-56.193 223.75-45.677 77.943 1.0876 117.48-7.61 201.44-14.831m-806.26 171.62c31.334-41.54 68.027-133.63 135.23-133.47 60.369-0.47644 151.2 39.443 246.21 18.815 65.88-11.483 142.66-54.251 220.77-46.003 78.414-3e-3 115.84-7.9841 200.59-13.224m-802.8 171.36c30.692-42.528 66.953-133.94 134.08-133.55 60.114-0.17893 152 39.164 247.73 17.87 64.298-11.899 141.69-52.31 217.79-46.329 78.885-1.1056 114.2-8.3583 199.75-11.617m-799.35 171.03c30.059-43.497 65.905-134.17 132.93-133.56 59.859 0.11769 152.8 38.885 249.25 16.924 62.715-12.315 140.72-50.368 214.82-46.655 79.356-2.2022 112.56-8.7327 198.9-10.009m-795.9 170.61c29.436-44.446 64.881-134.31 131.78-133.47 59.603 0.41477 153.6 38.606 250.77 15.979 61.133-12.731 139.75-48.426 211.84-46.98 79.827-3.2988 110.92-9.1069 198.06-8.4021m-792.45 170.12c28.823-45.369 63.886-134.37 130.64-133.31 59.348 0.71174 154.4 38.327 252.28 15.034 59.55-13.148 138.78-46.484 208.86-47.306 80.298-4.3954 109.28-9.4811 197.22-6.7948m-789 169.53c28.222-46.265 62.917-134.32 129.49-133.06 59.093 1.0088 155.2 38.048 253.8 14.088 57.968-13.564 137.81-44.543 205.88-47.632 80.769-5.4919 107.65-9.8553 196.37-5.1873m-785.54 168.83c27.631-47.132 61.974-134.17 128.34-132.7 58.838 1.3058 156 37.769 255.32 13.143 56.386-13.98 136.84-42.601 202.9-47.958 81.24-6.5885 106.01-10.23 195.53-3.58" fill="none" stop-color="#000000" stroke="url(#linearGradient24274-0)" stroke-width=".77666" style="font-variation-settings:normal"/>
 <path d="m975.15-37.654c-144.56 18.179-134.19 202.56-267.15 224-88.384 4.9636-116.44-19.39-183.69-2.4575-80.107 20.169-127.91 89.864-196.36 96.448-73.315 7.0528-156.7-28.396-236.21 9.4585-49.37 23.503-72.392 83.361-101.28 126.31v58.507c64.784-37.143 121.02-93.953 167.77-108.76 47.65-15.094 96.584-6.2342 146.44-5.0292 43.904 1.0612 89.528-29.39 134.81-32.396 90.528-6.0108 188.37 17.216 277.09 2.7245 86.112-14.065 147.17-83.73 228.33-104.29 9.8447-2.4942 19.961-3.9405 30.256-4.6962z" fill="url(#linearGradient4551-1-4)"/>
 <path d="m975.15 88.669c-90.008 11.961-135.43 48.383-191.06 124.62-66.034 90.487-189.03 55.197-189.03 55.197l145.15 51.207 234.94-42.769z" fill="url(#linearGradient12309-5-7)"/>
 <path d="m284.14 320.11c21.431 1.9718 76.896-1.0599 97.907-8.2309 106.85-52.015 146.79-111.19 268.61-75.838 136.59 39.635 183.66-146.42 324.69-167.02m-691.98 292.96s49.536-2.4465 118.91-6.607c122.51-8.6317 160.1-6.3508 294.08 30.022 92.115 25.006 190.7-95.029 279.02-110.91m-691.98 86.051c0.73903 0.0679 50.479-2.3987 118.18-6.6631 121.92-10.276 159.97-9.9928 293.2 26.372 93.021 25.389 191.48-94.848 280.6-111.71m-691.96 90.555c1.478 0.13686 51.422-2.3509 117.46-6.719 121.32-11.916 159.83-13.652 292.33 22.721 93.941 25.789 192.25-94.743 282.17-112.62m-691.93 95.172c2.217 0.2037 52.366-2.303 116.74-6.775 120.62-13.554 159.84-17.284 291.45 19.071 94.876 26.208 193.03-94.723 283.72-113.65m-691.88 99.907c2.9559 0.27194 53.309-2.2552 116.01-6.831 120.05-15.192 159.66-20.984 290.57 15.42 95.841 26.651 193.84-94.802 285.31-114.81m-691.86 104.77c3.695 0.34013 54.253-2.2075 115.29-6.887 119.51-16.827 159.43-24.71 289.69 11.77 96.834 27.119 194.67-94.991 286.9-116.1m-691.86 109.77c4.4339 0.40788 55.196-2.1595 114.56-6.9429 118.92-18.419 159.15-28.47 288.81 8.1198 97.852 27.613 195.5-95.298 288.5-117.52m-691.85 114.9c5.1729 0.47601 56.14-2.1117 113.84-6.9989 118.31-20.027 158.94-32.225 287.93 4.4695 98.892 28.132 196.33-95.733 290.07-119.08m-691.82 120.16c5.912 0.54398 57.083-2.0639 113.12-7.0549 117.71-21.626 158.71-35.972 287.05 0.81899 100.03 28.674 197.09-96.297 291.62-120.77m-691.76 125.56c6.6509 0.61188 58.027-2.0161 112.39-7.1109 117.11-23.214 158.48-39.755 286.18-2.8313 101.4 29.319 197.67-96.97 293.16-122.58m-691.7 131.08c7.3899 0.67997 58.97-1.9683 111.67-7.1669 116.51-24.792 158.23-43.576 285.3-6.4816 102.64 29.961 198.46-97.88 294.74-124.55m-691.68 136.75c8.129 0.74792 59.914-1.9205 110.94-7.2229 115.91-26.358 157.96-47.424 284.42-10.132 103.93 30.648 199.23-98.988 296.31-126.64m-691.65 142.55c8.8679 0.8159 60.857-1.8727 110.22-7.2789 115.32-27.912 157.69-51.302 283.54-13.782 105.28 31.385 200.02-100.32 297.89-128.86m-691.62 148.47c9.6069 0.88388 61.801-1.8248 109.49-7.3349 114.73-29.453 157.4-55.212 282.66-17.433 106.68 32.176 200.82-101.91 299.46-131.18m-691.59 154.51c10.346 0.95188 62.744-1.7771 108.77-7.3909 114.15-30.98 157.09-59.158 281.78-21.083 108.15 33.024 201.64-103.77 301.03-133.61m-691.56 160.64c11.085 1.0199 63.688-1.7292 108.05-7.4468 113.57-32.494 156.77-63.139 280.91-24.733 109.67 33.932 202.52-105.93 302.6-136.11m-691.53 166.84c11.824 1.0879 64.631-1.6814 107.32-7.5028 113.01-33.993 156.44-67.157 280.03-28.384 111.24 34.899 203.48-108.43 304.18-138.67m-691.5 173.11c12.563 1.1559 65.575-1.6337 106.6-7.5589 112.45-35.477 156.14-71.375 279.15-32.034 111.52 35.667 205-111.4 305.74-141.25m-691.46 179.4c13.302 1.2239 66.518-1.5858 105.87-7.6149 111.91-36.945 155.78-75.473 278.27-35.685 113.08 36.732 206.03-114.53 307.33-143.85m-691.45 185.7c14.041 1.2918 67.462-1.538 105.15-7.6708 111.38-38.397 155.4-79.59 277.39-39.335 114.7 37.85 207.13-117.98 308.91-146.41m-691.42 191.97c14.78 1.36 68.405-1.4902 104.43-7.7268 110.86-39.834 154.99-83.715 276.51-42.985 116.39 39.011 208.34-121.72 310.48-148.9m-691.39 198.16c15.519 1.4279 69.349-1.4423 103.7-7.7828 110.35-41.254 154.55-87.828 275.63-46.636 118.17 40.201 209.69-125.71 312.06-151.29m-691.37 204.26c16.258 1.4958 70.292-1.3945 102.98-7.8389 109.86-42.658 154.06-91.873 274.76-50.286 119.25 41.089 209.46-128.88 311.37-153.04 0.76866-0.17494 1.5354-0.34868 2.3003-0.52005m-691.38 210.24c16.997 1.5638 71.236-1.3467 102.25-7.8948 109.38-44.046 152.8-93.762 273.88-53.936 132.75 43.667 190.3-129.24 315.26-155.75m-691.36 216.14c17.736 1.6319 72.179-1.2989 101.53-7.9508 108.92-45.416 151.92-96.835 273-57.587 133.47 43.267 189.35-132.32 316.84-157.85m-691.34 221.94c18.475 1.6998 73.122-1.251 100.8-8.0068 108.47-46.77 150.99-99.848 272.12-61.237 134.2 42.777 188.26-135.3 318.4-159.85m-691.3 227.65c19.214 1.7678 74.066-1.2033 100.08-8.0628 108.04-48.107 150.01-102.79 271.24-64.887 134.89 42.172 187.12-138.22 320-161.77m-691.29 233.28c19.953 1.8359 75.009-1.1554 99.356-8.1187 107.63-49.427 148.99-105.67 270.36-68.538 135.52 41.452 185.94-141.04 321.55-163.6m-691.24 238.81c20.692 1.9038 75.953-1.1075 98.632-8.1747 107.23-50.729 147.91-108.46 269.49-72.188 136.09 40.601 184.81-143.78 323.15-165.35" fill="none" stroke="url(#linearGradient6948-5)" stroke-width=".25889px"/>
 <path d="m975.15 164.1c-9.8918 1.432-20.304 3.3098-31.634 5.7998-116.32 25.564-137 121.25-224.46 112.44-42.499-4.2781-135.45-30.477-177.22-22.635-71.17 13.36-101.83 59.004-174.73 65.696-85.547 7.8528-139.7-34.815-224.52-22.116-71.265 10.67-111 91.988-144.24 132.65-2.5399 3.1078-5.1732 6.0002-7.8816 8.7293v29.9c25.708-12.674 47.509-25.465 59.835-33.472 176.97-150.61 149.47-24.972 285.49-33.68 45.988-2.9442 162.25-90.876 208.46-100.49 95.426-19.85 114.43 46.779 209.51 31.372 78.592-12.735 148.35-56.977 221.4-84.265z" fill="url(#linearGradient4479-5-3)"/>
 <path d="m975.15 228.09c-1.5182 0.25029-3.0301 0.46677-4.5572 0.76369-56.729 11.029-97.793 49.234-167.47 90.024-77.519 45.384-189.26-55.218-266.29-35.917-78.255 19.609-112.83 87.018-190.45 97.885-78.526 10.994-125.89-85.766-229.3-44.476-62.057 24.778-82.256 87.118-112.23 117.85-4.7498 4.8704-9.5406 9.2448-14.4 13.212v35.009c7.9169-3.287 15.975-7.2258 24.212-11.949 63.369-36.337 88.966-115.38 165.42-120.26 41.728-2.6612 90.044 48.911 154.05 56.832 85.619 10.596 145.46-70.824 194.68-79.565 101.39-18.006 137.22 56.276 212.57 64.651 98.494 10.946 160.35-67.704 233.75-108.92z" fill="url(#linearGradient4687-8-7)"/>
 <path d="m975.17 243.16c-70.432 49.757-130.27 169.63-222.01 169.59 91.683 3.6825 151.58-69.999 222.01-109.48zm-404.86 58.649c-88.187 1.4508-137.27 121.3-227.43 126.03 80.947 4.2505 138.44-71.896 185.95-80.334 101.39-18.006 137.22 56.276 212.57 64.651-70.646-7.8509-87.687-111.72-171.09-110.34zm-393.61 46.475c-75.208-0.90132-129.4 123.84-186.25 145.48v7.4482c7.7685-3.4923 15.585-7.3543 23.359-11.623 63.369-36.337 89.821-114.48 166.28-119.35 41.728-2.6612 90.044 49.156 154.05 57.077-64.008-7.9216-88.295-78.2-157.44-79.028z" fill="#e9ebed" fill-opacity=".49133" opacity=".23994"/>
 <path d="m975.15 296.63c-68.156 41.151-129.89 113.37-217.06 115.99-1.6344 0.0761-3.2753 0.12594-4.9301 0.12515 2.8651 0.11529 5.6992 0.15496 8.5036 0.12248 11.216-0.13047 21.956-1.4175 32.303-3.6381 1.8554-0.3982 3.683-0.85965 5.5136-1.3168 0.7217-0.18 1.4561-0.32964 2.1741-0.51875 0-3.7e-4 0-7.2e-4 8e-3 -1e-3 1.2188-0.32107 2.4161-0.6955 3.6243-1.0416 1.309-0.37499 2.6287-0.72486 3.9257-1.1283 2.4917-0.77519 4.9605-1.6017 7.4096-2.4768 0-7.2e-4 0-2e-3 8e-3 -3e-3 2.4486-0.87494 4.8772-1.7978 7.2858-2.7657 0-6.9e-4 8e-3 -2e-3 8e-3 -3e-3 0.27983-0.11237 0.55302-0.23858 0.83244-0.35225 2.127-0.86572 4.2454-1.753 6.3433-2.6859 2.3709-1.0543 4.7228-2.1494 7.0588-3.2831 0-1e-3 8e-3 -3e-3 8e-3 -5e-3 2.2055-1.0704 4.3951-2.1807 6.5717-3.3161 0.13127-0.0687 0.2652-0.13101 0.39629-0.19944 2.3027-1.2061 4.5891-2.446 6.862-3.7179 0-2e-3 8e-3 -3e-3 0.0107-5e-3 2.273-1.2719 4.5323-2.5755 6.7781-3.9064 0-2e-3 8e-3 -3e-3 0.0107-5e-3 2.2456-1.3309 4.4787-2.6884 6.6997-4.0716 0-2e-3 8e-3 -5e-3 0.0106-8e-3 2.221-1.3832 4.4292-2.7902 6.6281-4.2188 0-2e-3 8e-3 -5e-3 0.0106-8e-3 4.4008-2.8592 8.7602-5.8032 13.088-8.8036 0-3e-3 8e-3 -5e-3 0.0107-8e-3 2.0148-1.3967 4.0038-2.8386 6.0062-4.2573 2.3029-1.6316 4.6194-3.2429 6.9088-4.8958 8.5549-6.1763 17.025-12.472 25.496-18.669 0-2e-3 8e-3 -3e-3 8e-3 -5e-3 0.27532-0.20157 0.55035-0.39738 0.82559-0.59857 3.9651-2.8977 7.9305-5.7776 11.905-8.6068 4.2415-3.0194 8.4929-5.9877 12.765-8.8765v-1e-3c3.4506-2.3333 6.9281-4.5702 10.411-6.7864 0.83603-0.53192 1.6607-1.105 2.4988-1.6292 2.1633-1.3528 4.334-2.6775 6.5139-3.9739 1.2623-0.75064 2.5348-1.4689 3.8032-2.1988 0.92361-0.5314 1.8414-1.0804 2.7685-1.6002zm-412.23 43.81v1e-3c-85.776-2.2256-122.54 89.728-220.04 87.393 80.947 4.2505 138.44-71.896 185.95-80.334 3.0806-0.5471 6.0956-1.0016 9.0581-1.3829 0.97894-0.12594 1.9204-0.19837 2.8868-0.30685 1.964-0.22047 3.9299-0.44269 5.8438-0.59303 1.1119-0.0873 2.1863-0.12435 3.2817-0.18852 1.7136-0.10091 3.4319-0.20849 5.1063-0.25455 1.1401-0.0314 2.2486-0.0186 3.3712-0.0266 1.5915-0.0106 3.186-0.0213 4.743 0.0133 1.0841 0.024 2.1436 0.0887 3.2116 0.13767 1.5641 0.0714 3.1245 0.14538 4.655 0.2628 1.0157 0.078 2.0134 0.1816 3.0148 0.27932 1.5243 0.14884 3.0417 0.30661 4.5339 0.49949 0.97603 0.12648 1.9379 0.2725 2.9006 0.41693 1.4963 0.2242 2.9833 0.46144 4.4486 0.72787 0.88926 0.16189 1.7705 0.33508 2.6488 0.51188 1.5203 0.30565 3.026 0.62994 4.5146 0.97832 0.79697 0.18692 1.5909 0.37813 2.3791 0.57656 1.5376 0.3867 3.0583 0.79542 4.5641 1.2246 0.69869 0.19917 1.3967 0.39871 2.0888 0.6068 1.6199 0.48648 3.2207 0.99841 4.8063 1.5301 0.54548 0.18319 1.0931 0.36357 1.6347 0.55176 1.7313 0.60095 3.4413 1.2285 5.1352 1.8782 0.37637 0.14432 0.75639 0.28387 1.1311 0.43066 1.929 0.75504 3.8348 1.5406 5.72 2.3516 0.12196 0.0525 0.2455 0.10278 0.3674 0.1555 8.0415 3.4784 15.687 7.4471 23.158 11.6 0.65974 0.367 1.319 0.73224 1.9759 1.1022 12.264 6.9012 24.078 14.242 36.187 20.875 0.40441 0.22153 0.81393 0.43223 1.2191 0.65222 14.17 7.687 28.82 14.316 45.262 17.899-60.876-13.833-87.813-67.546-165.76-69.568zm-379.22 27.162c-1.3177-0.0266-2.6286 2e-3 -3.9326 0.0852-76.457 4.8759-108.01 86.289-171.28 122.81-6.1151 3.5299-12.146 6.5641-18.03 9.2329v2.6694c2.4556-1.0242 4.9129-2.0565 7.3973-3.2102 2.0017-0.9358 4.0174-1.9018 6.064-2.935 0.78249-0.39392 1.5673-0.7979 2.3529-1.2054 2.7682-1.4382 5.559-2.9303 8.3963-4.5572 63.369-36.337 88.968-115.38 165.42-120.26 31.296-1.9959 66.297 26.652 108.85 44.443 3.5457 1.4825 7.1432 2.8904 10.796 4.1981 6.6979 2.398 13.605 4.4015 20.684 5.9828-55.385-12.664-98.94-56.536-136.72-57.255zm136.72 57.255c1.077 0.24629 2.1544 0.48929 3.2404 0.71139-1.088-0.21808-2.1617-0.47042-3.2404-0.71139zm3.2404 0.71139c1.4356 0.28773 2.8701 0.57716 4.3219 0.82285-1.4497-0.24896-2.8881-0.52961-4.3219-0.82285zm4.3219 0.82285c0.21621 0.037 0.43163 0.0753 0.6481 0.11156-0.21674-0.0357-0.43181-0.0748-0.6481-0.11156zm0.6481 0.11156c1.8274 0.30057 3.6629 0.57831 5.5163 0.80768-1.8523-0.22926-3.6896-0.50317-5.5163-0.80768zm400.04-16.493c2.0336 0.46211 4.1084 0.87462 6.2277 1.2329 2.1361 0.3531 4.2965 0.66354 6.4974 0.90814-4.3776-0.4865-8.5936-1.2407-12.725-2.141z" fill="url(#linearGradient14655-8)"/>
 <path d="m975.15 160.19s-19.215 3.439-29.45 6.4602c-121.87 35.973-131.26 109.44-211.35 116.52-34.386 3.0412-133.39-31.767-188.46-24.1-71.106 9.8993-107.96 56.27-170.14 64.989-76.568 10.737-155.66-38.055-241.99-20.888-67.318 13.385-94.29 83.781-143.29 137.87v3.266c41.304-41.339 74.696-123.85 143.29-139.37 83.647-18.924 173.49 37.814 243.73 21.63 75.721-17.447 97.865-54.652 168.43-65.746 62.597-9.8407 148.15 31.858 188.85 26.879 74.639-9.1321 102.01-84.692 217.39-118.06 7.7592-2.2439 23.006-3.5817 23.006-3.5817z" fill="url(#linearGradient25349-6)"/>
</svg>
