<?xml version="1.0" encoding="UTF-8"?>
<!-- Created with Inkscape (http://www.inkscape.org/) -->
<svg width="400" height="255" version="1.1" viewBox="0 0 105.83 67.469" xmlns="http://www.w3.org/2000/svg" xmlns:xlink="http://www.w3.org/1999/xlink">
 <defs>
  <linearGradient id="linearGradient25627">
   <stop stop-color="#bda62c" offset="0"/>
   <stop stop-color="#ae9a28" stop-opacity=".98824" offset=".14669"/>
   <stop stop-color="#8c7b20" stop-opacity=".96863" offset=".30531"/>
   <stop stop-color="#bda62c" stop-opacity=".95686" offset=".51079"/>
   <stop stop-color="#82721e" stop-opacity=".94902" offset=".6231"/>
   <stop stop-color="#c0ab2c" stop-opacity=".99608" offset=".83541"/>
   <stop stop-color="#7f6f1e" stop-opacity=".92157" offset="1"/>
  </linearGradient>
  <linearGradient id="linearGradient25349-5" x1="-19.327" x2="365.1" y1="174.88" y2="71.87" gradientTransform="matrix(.36308 0 0 .36308 -26.759 -6.1282)" gradientUnits="userSpaceOnUse" xlink:href="#linearGradient25627"/>
  <linearGradient id="linearGradient14655-5" x1="-46.183" x2="1721.9" y1="706.05" y2="445.69" gradientTransform="matrix(.096066 0 0 .096066 -26.759 -6.1282)" gradientUnits="userSpaceOnUse">
   <stop stop-color="#bda62c" offset="0"/>
   <stop stop-color="#615516" stop-opacity=".98824" offset=".098576"/>
   <stop stop-color="#cab12f" stop-opacity=".97647" offset=".25339"/>
   <stop stop-color="#8c7b20" stop-opacity=".96863" offset=".33815"/>
   <stop stop-color="#87771f" stop-opacity=".96471" offset=".42151"/>
   <stop stop-color="#bda62c" stop-opacity=".95686" offset=".53339"/>
   <stop stop-color="#82721e" stop-opacity=".94902" offset=".6231"/>
   <stop stop-color="#80711e" stop-opacity=".93725" offset=".73471"/>
   <stop stop-color="#d7be31" stop-opacity=".92941" offset=".83541"/>
   <stop stop-color="#bda62c" stop-opacity=".92175" offset="1"/>
  </linearGradient>
  <linearGradient id="linearGradient4687-8-1" x1="1155.1" x2="93.584" y1="262.51" y2="615.88" gradientTransform="matrix(.11705 .012425 -.012425 .11705 -18.922 -11.932)" gradientUnits="userSpaceOnUse">
   <stop stop-color="#8b5cf6" offset="0"/>
   <stop stop-color="#6d28d9" offset=".21248"/>
   <stop stop-color="#6f5cf6" offset=".42964"/>
   <stop stop-color="#7c3aed" offset=".59961"/>
   <stop stop-color="#6376f6" offset=".80968"/>
   <stop stop-color="#6d28d9" offset="1"/>
  </linearGradient>
  <linearGradient id="linearGradient4479-5-4" x1="1143.2" x2="120.86" y1="196.75" y2="539.49" gradientTransform="matrix(.11705 .012425 -.012425 .11705 -18.922 -11.932)" gradientUnits="userSpaceOnUse">
   <stop stop-color="#8b5cf6" offset="0"/>
   <stop stop-color="#5151dc" offset=".25152"/>
   <stop stop-color="#3b82f6" offset=".4454"/>
   <stop stop-color="#8b69f6" offset=".63944"/>
   <stop stop-color="#60a5fa" offset=".83593"/>
   <stop stop-color="#60a5fa" offset="1"/>
  </linearGradient>
  <linearGradient id="linearGradient6948-3" x1="466.89" x2="1404.4" y1="475.5" y2="195.51" gradientTransform="matrix(.11771 0 0 .11771 -29.071 -16.229)" gradientUnits="userSpaceOnUse">
   <stop stop-color="#3e2fdd" offset="0"/>
   <stop stop-color="#a4007e" offset="1"/>
  </linearGradient>
  <linearGradient id="linearGradient12309-5-6" x1="1181.7" x2="861.39" y1="252.37" y2="436.6" gradientTransform="matrix(.11771 0 0 .11771 -29.071 -15.852)" gradientUnits="userSpaceOnUse">
   <stop stop-color="#7e5af0" offset="0"/>
   <stop stop-color="#7c61ee" offset=".49538"/>
   <stop stop-color="#4c6fe2" offset="1"/>
  </linearGradient>
  <linearGradient id="linearGradient4551-1-4" x1="1112.8" x2="89.147" y1="69.067" y2="487.89" gradientTransform="matrix(.11705 .012425 -.012425 .11705 -18.922 -11.932)" gradientUnits="userSpaceOnUse">
   <stop stop-color="#60a5fa" offset="0"/>
   <stop stop-color="#365fd8" offset=".23216"/>
   <stop stop-color="#3b82f6" offset=".43871"/>
   <stop stop-color="#4d4eeb" offset=".65563"/>
   <stop stop-color="#60a5fa" offset="1"/>
  </linearGradient>
  <linearGradient id="linearGradient24274" x1="132.11" x2="1068.3" y1="575.51" y2="320.25" gradientTransform="matrix(.11705 .012425 -.012425 .11705 -18.922 -11.932)" gradientUnits="userSpaceOnUse">
   <stop stop-color="#1c52f2" offset="0"/>
   <stop stop-color="#d62bc3" stop-opacity=".42363" offset="1"/>
  </linearGradient>
  <linearGradient id="linearGradient118139" x1="100.6" x2="345.1" y1="115.79" y2="-9.8374" gradientTransform="matrix(.32031 0 0 .32031 -8.7552 .014182)" gradientUnits="userSpaceOnUse">
   <stop stop-color="#8b5cf6" offset="0"/>
   <stop stop-color="#5151dc" offset=".25152"/>
   <stop stop-color="#3b82f6" offset=".4454"/>
   <stop stop-color="#8b5cf6" offset=".63944"/>
   <stop stop-color="#60a5fa" offset=".83593"/>
   <stop stop-color="#60a5fa" offset="1"/>
  </linearGradient>
  <linearGradient id="linearGradient161031" x1="-12.42" x2="373.66" y1="169.75" y2="-5.834" gradientTransform="matrix(.32031 0 0 .32031 -8.7552 -2.0168)" gradientUnits="userSpaceOnUse" xlink:href="#linearGradient25627"/>
 </defs>
 <rect width="105.83" height="67.469" fill="#1b1e20" stop-color="#000000" style="-inkscape-stroke:none;font-variation-settings:normal;paint-order:stroke fill markers"/>
 <path d="m108.5-5.4435c-17.391 2.1869-16.143 24.744-32.137 27.323-10.632 0.59711-14.007-2.7213-22.098-0.68441-9.6365 2.4262-15.387 11.199-23.621 11.991-8.8196 0.84843-18.85-3.5841-28.416 0.96957-5.939 2.8273-8.7086 10.053-12.183 15.219v6.6073c7.7932-4.4682 14.558-11.302 20.182-13.084 5.7321-1.8157 11.619-0.74995 17.616-0.605 5.2815 0.12765 10.77-3.5355 16.217-3.8971 10.89-0.72307 22.66 2.071 33.333 0.32774 10.359-1.692 17.704-10.072 27.467-12.546 1.1843-0.30004 2.4012-0.47403 3.6398-0.56494z" fill="url(#linearGradient161031)"/>
 <path d="m22.867 41.27s9.0303-1.4707 13.552-2.1622c6.4873-0.99205 13.053-1.5248 19.481-2.8502 6.4246-1.3249 12.914-2.6645 19.01-5.0869 7.8803-3.1314 14.611-8.6978 22.385-12.085 3.6137-1.5743 11.2-3.7951 11.2-3.7951m-85.821 25.803s9.1085-1.4522 13.66-2.1949c6.4863-1.0585 13.024-1.8517 19.451-3.223 6.4377-1.3735 13-2.5375 19.103-5.0044 7.83-3.165 14.414-8.8855 22.087-12.414 3.7172-1.7094 11.53-4.2086 11.53-4.2086m-86.024 26.869s9.187-1.4329 13.768-2.2272c6.487-1.125 12.992-2.1774 19.421-3.5952 6.4507-1.4225 13.087-2.4099 19.196-4.9229 7.7795-3.2001 14.21-9.0796 21.781-12.746 3.818-1.8488 11.854-4.6309 11.854-4.6309m-86.212 27.946s9.2659-1.4129 13.875-2.2591c6.4894-1.1916 12.959-2.5021 19.392-3.9668 6.4637-1.4717 13.175-2.2807 19.289-4.8423 7.7371-3.2417 14.011-9.2968 21.487-13.102 3.9261-1.998 12.203-5.0725 12.203-5.0725m-86.439 29.067s9.3452-1.3923 13.982-2.2907c6.4936-1.2582 12.924-2.8256 19.363-4.3379 6.4765-1.521 13.263-2.1519 19.382-4.7627 7.6859-3.2794 13.793-9.5008 21.165-13.435 4.0201-2.1455 12.511-5.51 12.511-5.51m-86.594 30.161s9.4247-1.3711 14.088-2.3219c6.4994-1.325 12.887-3.1481 19.334-4.7084 6.4892-1.5705 13.352-2.0217 19.474-4.684 7.6424-3.323 13.579-9.7252 20.854-13.79 4.1202-2.3022 12.842-5.9645 12.842-5.9645m-86.785 31.293s9.5046-1.3494 14.195-2.3527c6.507-1.392 12.849-3.4696 19.306-5.0785 6.5018-1.6201 13.441-1.8907 19.567-4.606 7.6015-3.3694 13.361-9.9586 20.541-14.152 4.2195-2.4644 13.175-6.4282 13.175-6.4282m-86.976 32.442s9.5847-1.3273 14.301-2.3832c6.5162-1.4591 12.809-3.7902 19.278-5.4482 6.5143-1.6698 13.532-1.7591 19.66-4.5288 7.5632-3.4183 13.141-10.2 20.228-14.52 4.3178-2.6317 13.51-6.8998 13.51-6.8998m-87.168 33.604s9.6652-1.3047 14.406-2.4135c6.5271-1.5265 12.768-4.1099 19.25-5.8176 6.5267-1.7194 13.623-1.6269 19.753-4.4522 7.5272-3.4694 12.916-10.448 19.913-14.891 4.4144-2.8037 13.845-7.3776 13.845-7.3776m-87.36 34.776s9.746-1.2817 14.512-2.4435c6.5396-1.5941 12.725-4.429 19.222-6.1867 6.539-1.769 13.715-1.4942 19.846-4.376 7.494-3.5227 12.689-10.701 19.598-15.267 4.5095-2.9799 14.183-7.8604 14.183-7.8604m-87.552 35.957s9.827-1.2585 14.617-2.4732c6.5537-1.662 12.68-4.7472 19.195-6.5556 6.5513-1.8185 13.804-1.369 19.938-4.3003 7.3676-3.5205 12.334-10.758 19.062-15.386 4.4929-3.0906 14.148-8.2138 14.148-8.2138l0.59482-0.39965m-87.748 37.153s9.9084-1.2349 14.722-2.5027c6.5693-1.7301 12.634-5.0646 19.168-6.9241 6.5634-1.868 13.901-1.2275 20.031-4.2254 7.4356-3.6362 12.224-11.226 18.964-16.03 4.6941-3.3461 14.861-8.8441 14.861-8.8441m-87.939 38.351s9.9899-1.2112 14.827-2.5321c6.5865-1.7987 12.586-5.3817 19.141-7.2929 6.5755-1.9172 13.995-1.0939 20.124-4.1502 7.4102-3.6948 11.987-11.492 18.647-16.411 4.7828-3.5331 15.201-9.3357 15.201-9.3357m-88.133 39.547s10.072-1.1874 14.931-2.5614c6.6051-1.8677 12.536-5.6986 19.114-7.6618 6.5876-1.9663 14.089-0.96019 20.218-4.0749 7.3866-3.754 11.748-11.757 18.331-16.789 4.8685-3.7213 15.539-9.8233 15.539-9.8233m-88.325 40.735s10.154-1.1635 15.035-2.5907c6.6251-1.9371 12.485-6.0153 19.087-8.031 6.5997-2.0151 14.184-0.8265 20.311-3.9994 7.3652-3.8137 11.507-12.022 18.016-17.162 4.9513-3.9103 15.876-10.306 15.876-10.306m-88.517 41.913s10.236-1.1396 15.138-2.62c6.6466-2.007 12.432-6.3319 19.06-8.4006 6.6119-2.0637 14.279-0.69286 20.406-3.9235 7.3458-3.8734 11.264-12.285 17.702-17.53 5.0312-4.0994 16.212-10.781 16.212-10.781m-88.71 43.08s10.318-1.1158 15.241-2.6493c6.6695-2.0774 12.378-6.6485 19.033-8.7706 6.6241-2.1121 14.374-0.55936 20.5-3.8472 7.3279-3.9328 11.02-12.544 17.389-17.891 5.1078-4.2878 16.546-11.248 16.546-11.248m-88.902 44.231s10.4-1.092 15.344-2.6786c6.6937-2.1483 12.321-6.9652 19.006-9.1411 6.6364-2.1601 14.469-0.426 20.595-3.7703 7.3119-3.9919 10.775-12.8 17.079-18.245 5.1816-4.4753 16.878-11.706 16.878-11.706m-89.095 45.365s10.483-1.0683 15.446-2.7081c6.7192-2.2198 12.263-7.2821 18.979-9.5122 6.6489-2.2079 14.565-0.29282 20.691-3.6928 7.297-4.0502 10.529-13.051 16.771-18.59 5.2522-4.661 17.208-12.152 17.208-12.152m-89.287 46.48s10.565-1.0448 15.548-2.7376c6.746-2.2919 12.203-7.5991 18.951-9.8838 6.6615-2.2553 14.661-0.15984 20.787-3.6146 7.2834-4.1076 10.282-13.296 16.465-18.926 5.3198-4.8447 17.536-12.587 17.536-12.587m-89.48 47.573s10.648-1.0214 15.649-2.7672c6.774-2.3645 12.141-7.9164 18.924-10.256 6.6742-2.3024 14.757-0.02705 20.883-3.5357 7.2708-4.1638 10.036-13.535 16.161-19.252 5.3844-5.0258 17.861-13.009 17.861-13.009m-89.672 48.644s10.731-0.99832 15.75-2.797c6.8033-2.4378 12.078-8.2339 18.896-10.629 6.6872-2.3491 14.853 0.10555 20.981-3.4559 7.259-4.2187 9.7899-13.767 15.86-19.567 5.4462-5.204 18.184-13.417 18.184-13.417m-89.864 49.691s10.813-0.97545 15.851-2.8269c6.8338-2.5116 12.013-8.5518 18.868-11.003 6.7005-2.3955 14.949 0.23799 21.079-3.3752 7.2479-4.272 9.5443-13.992 15.562-19.871 5.5051-5.379 18.504-13.811 18.504-13.811m-90.057 50.712s10.896-0.95285 15.951-2.8569c6.8654-2.5861 11.946-8.8701 18.84-11.377 6.714-2.4415 15.045 0.37028 21.178-3.2937 7.2373-4.3238 9.2994-14.209 15.267-20.164 5.5614-5.5504 18.821-14.191 18.821-14.191m-90.249 51.708s10.979-0.93057 16.05-2.8871c6.8982-2.6612 11.877-9.1888 18.812-11.753 6.7277-2.4871 15.141 0.50246 21.277-3.2113 7.2271-4.3737 9.0554-14.418 14.974-20.445 5.6151-5.7181 19.135-14.556 19.135-14.556m-90.442 52.677s11.061-0.9086 16.149-2.9175c6.9321-2.737 11.806-9.5078 18.783-12.129 6.7418-2.5324 15.237 0.63457 21.378-3.1279 7.2171-4.4219 8.8126-14.62 14.685-20.715 5.6665-5.882 19.447-14.906 19.447-14.906m-90.634 53.619s11.144-0.88697 16.248-2.948c6.9671-2.8134 11.734-9.8274 18.754-12.505 6.7562-2.5773 15.333 0.76666 21.479-3.0435 7.2071-4.4681 8.5708-14.812 14.398-20.973 5.7154-6.0418 19.754-15.241 19.754-15.241m-90.826 54.535s11.227-0.86572 16.346-2.9788c7.0032-2.8905 11.66-10.147 18.725-12.883 6.7709-2.6217 15.429 0.89876 21.58-2.9581 7.1974-4.5125 8.3308-14.998 14.115-21.219 5.7624-6.1977 20.06-15.561 20.06-15.561m-91.02 55.424s11.309-0.84484 16.444-3.0096c7.0403-2.9682 11.584-10.468 18.695-13.261 6.786-2.6658 15.525 1.0309 21.683-2.8718 7.1875-4.555 8.092-15.175 13.835-21.454 5.8072-6.3495 20.362-15.866 20.362-15.866" fill="none" stroke="url(#linearGradient118139)" stroke-width=".031143px"/>
 <path d="m-9.3896 59.523c6.3987-1.6539 13.255-11.395 20.269-12.443 8.2756-1.2364 15.014 5.8527 23.591 6.0164 14.207 0.27113 21.012-14.235 38.381-4.2403 7.5632 4.3521 20.442 0.5251 27.48-7.9717m-109.79 18.491c6.3324-1.6979 13.116-11.593 20.2-12.608 8.2449-1.2007 15.11 5.8191 23.774 5.9026 14.016 0.22106 20.895-14.001 38.022-4.2795 7.6199 4.2201 20.244 0.4801 27.379-7.7784m-109.44 18.615c6.266-1.7418 12.976-11.79 20.131-12.773 8.2142-1.165 15.207 5.7855 23.956 5.7889 13.826 0.17099 20.779-13.767 37.664-4.3187 7.6766 4.0882 20.047 0.43509 27.277-7.585m-109.1 18.74c6.1996-1.7858 12.837-11.987 20.062-12.938 8.1835-1.1293 15.303 5.752 24.139 5.6752 13.636 0.12091 20.662-13.534 37.306-4.3579 7.7332 3.9563 19.85 0.39005 27.176-7.3916m-108.75 18.864c6.1333-1.8298 12.697-12.184 19.993-13.103 8.1528-1.0935 15.399 5.7184 24.322 5.5615 13.445 0.07082 20.545-13.3 36.948-4.3971 7.7899 3.8244 19.653 0.34503 27.074-7.1983m-108.41 18.989c6.0669-1.8738 12.558-12.382 19.924-13.268 8.122-1.0578 15.495 5.6848 24.504 5.4477 13.255 0.02072 20.429-13.067 36.589-4.4363 7.8465 3.6925 19.456 0.30002 26.973-7.0049m-108.06 19.113c6.0006-1.9178 12.418-12.579 19.855-13.432 8.0913-1.0221 15.591 5.6512 24.687 5.334 13.065-0.02931 20.312-12.833 36.231-4.4755 7.9032 3.5606 19.259 0.25501 26.871-6.8116m-107.71 19.238c5.9342-1.9617 12.278-12.776 19.786-13.597 8.0606-0.98633 15.688 5.6177 24.87 5.2203 12.874-0.07938 20.195-12.599 35.873-4.5147 7.9599 3.4287 19.062 0.20998 26.77-6.6182m-107.37 19.362c5.8679-2.0057 12.139-12.974 19.717-13.762 8.0299-0.95059 15.784 5.5841 25.052 5.1065 12.684-0.12947 20.079-12.366 35.515-4.5539 8.0165 3.2967 18.864 0.16497 26.668-6.4248m-106.96 19.464c5.7834-2.1075 11.964-13.151 19.585-13.904 7.9992-0.91487 15.88 5.5505 25.235 4.9928 12.494-0.17955 19.962-12.132 35.156-4.5931 8.0732 3.1648 18.667 0.11996 26.567-6.2315m-106.54 19.561c5.6971-2.2165 11.787-13.324 19.447-14.042 7.9685-0.87913 15.976 5.517 25.418 4.8791 12.303-0.22961 19.845-11.899 34.798-4.6323 8.1298 3.0329 18.47 0.07494 26.465-6.0381m-106.13 19.655c5.6108-2.327 11.611-13.494 19.309-14.177 7.9378-0.84341 16.072 5.4834 25.6 4.7654 12.113-0.27969 19.729-11.665 34.44-4.6715 8.1865 2.901 18.273 0.029949 26.364-5.8448m-105.71 19.747c5.5245-2.4392 11.436-13.661 19.171-14.309 7.9071-0.80767 16.169 5.4498 25.783 4.6516 11.922-0.32977 19.612-11.432 34.082-4.7107 8.2431 2.7691 18.076-0.01515 26.262-5.6514m-105.3 19.836c5.4383-2.5527 11.263-13.824 19.032-14.438 7.8764-0.77194 16.265 5.4162 25.965 4.5379 11.732-0.37983 19.495-11.198 33.723-4.7499 8.2998 2.6372 17.879-0.06012 26.161-5.458m-104.88 19.921c5.3522-2.6676 11.091-13.985 18.894-14.564 7.8457-0.73621 16.361 5.3827 26.148 4.4242 11.542-0.4299 19.379-10.964 33.365-4.7891 8.3565 2.5053 17.681-0.10511 26.059-5.2647m-104.47 20.004c5.2661-2.7839 10.921-14.142 18.756-14.687 7.815-0.70048 16.457 5.3491 26.331 4.3105 11.351-0.47998 19.262-10.731 33.007-4.8283 8.4131 2.3734 17.484-0.15016 25.958-5.0713m-104.05 20.082c5.1802-2.9016 10.753-14.295 18.618-14.806 7.7843-0.66474 16.553 5.3155 26.513 4.1967 11.161-0.53006 19.145-10.497 32.649-4.8675 8.4698 2.2414 17.287-0.19517 25.856-4.878m-103.64 20.157c5.0944-3.0204 10.585-14.444 18.48-14.921 7.7536-0.62902 16.65 5.282 26.696 4.083 10.971-0.58013 19.029-10.264 32.29-4.9067 8.5264 2.1095 17.09-0.24019 25.755-4.6846m-103.22 20.228c5.0087-3.1405 10.42-14.589 18.341-15.033 7.7228-0.5933 16.746 5.2484 26.879 3.9693 10.78-0.63021 18.912-10.03 31.932-4.946 8.5831 1.9776 16.893-0.2852 25.653-4.4912m-102.8 20.295c4.9233-3.2618 10.256-14.73 18.203-15.14 7.6921-0.55756 16.842 5.2148 27.061 3.8555 10.59-0.68028 18.795-9.7964 31.574-4.9851 8.6398 1.8457 16.696-0.33022 25.552-4.2979m-102.39 20.358c4.838-3.3839 10.094-14.866 18.065-15.243 7.6614-0.52182 16.938 5.1813 27.244 3.7418 10.4-0.73037 18.679-9.5629 31.216-5.0244 8.6964 1.7138 16.498-0.37524 25.45-4.1045m-101.97 20.416c4.753-3.507 9.9341-14.997 17.926-15.342 7.6307-0.48609 17.034 5.1477 27.427 3.6281 10.209-0.78043 18.562-9.3293 30.857-5.0636 8.7531 1.5819 16.301-0.42027 25.349-3.9112m-101.56 20.469c4.6683-3.6307 9.776-15.123 17.788-15.436 7.6-0.45036 17.131 5.1141 27.609 3.5144 10.019-0.83051 18.445-9.0957 30.499-5.1028 8.8097 1.4499 16.104-0.46528 25.247-3.7178m-101.14 20.517c4.584-3.7552 9.6197-15.243 17.65-15.524 7.5693-0.41463 17.227 5.0806 27.792 3.4007 9.8286-0.88058 18.329-8.8621 30.141-5.142 8.8664 1.318 15.907-0.5103 25.146-3.5244m-100.73 20.56c4.4999-3.8803 9.4655-15.358 17.512-15.607 7.5386-0.37889 17.323 5.047 27.975 3.2869 9.6383-0.93065 18.212-8.6285 29.782-5.1812 8.923 1.1861 15.71-0.55531 25.044-3.3311m-100.31 20.597c4.4164-4.0055 9.3135-15.467 17.374-15.684 7.5079-0.34315 17.419 5.0134 28.157 3.1732 9.4479-0.98074 18.095-8.3949 29.424-5.2204 8.9797 1.0542 15.513-0.60034 24.943-3.1377m-99.898 20.628c4.3333-4.131 9.1637-15.569 17.235-15.756 7.4772-0.30743 17.515 4.9799 28.34 3.0595 9.2576-1.0308 17.979-8.1613 29.066-5.2596 9.0364 0.92231 15.315-0.64535 24.841-2.9444m-99.482 20.652c4.2507-4.2567 9.016-15.664 17.097-15.82 7.4465-0.2717 17.612 4.9463 28.522 2.9458 9.0672-1.0809 17.862-7.9278 28.708-5.2988 9.093 0.7904 15.118-0.69036 24.74-2.751m-99.067 20.67c4.1687-4.3819 8.8709-15.753 16.959-15.879 7.4158-0.23597 17.708 4.9127 28.705 2.832 8.8769-1.131 17.745-7.6942 28.349-5.338 9.1497 0.65848 14.921-0.73538 24.638-2.5576m-98.651 20.681c4.0873-4.5068 8.7281-15.834 16.821-15.93 7.385-0.20024 17.804 4.8791 28.888 2.7183 8.6865-1.181 17.629-7.4606 27.991-5.3772 9.2063 0.52656 14.724-0.7804 24.537-2.3643m-98.236 20.684c4.0066-4.631 8.5879-15.907 16.682-15.974 7.3543-0.16451 17.9 4.8456 29.07 2.6046 8.4962-1.2311 17.512-7.227 27.633-5.4164 9.263 0.39466 14.527-0.8254 24.435-2.1709m-97.821 20.679c3.9267-4.7544 8.4503-15.972 16.544-16.009 7.3236-0.12877 17.996 4.812 29.253 2.4908 8.3058-1.2812 17.395-6.9934 27.275-5.4556 9.3197 0.26274 14.33-0.87043 24.334-1.9776m-97.405 20.667c3.8476-4.8765 8.3154-16.028 16.406-16.037 7.2929-0.09304 18.093 4.7784 29.436 2.3771 8.1155-1.3312 17.279-6.7598 26.916-5.4948 9.3763 0.13083 14.132-0.91545 24.232-1.7842m-96.99 20.645c3.7694-4.9971 8.1834-16.075 16.268-16.056 7.2622-0.05731 18.189 4.7449 29.618 2.2634 7.9251-1.3813 17.162-6.5262 26.558-5.534 9.433-3.21e-4 13.935-0.96046 24.13-1.5908m-96.575 20.615c3.6922-5.1159 8.0542-16.113 16.129-16.066 7.2315-0.02153 18.285 4.7113 29.801 2.1497 7.7348-1.4314 17.045-6.2927 26.2-5.5732 9.4896-0.133 13.738-1.0055 24.029-1.3975m-96.159 20.574c3.616-5.2326 7.9281-16.14 15.991-16.066 7.2008 0.01416 18.381 4.6777 29.984 2.0359 7.5444-1.4815 16.929-6.0591 25.842-5.6124 9.5463-0.26492 13.541-1.0505 23.927-1.2041m-95.744 20.524c3.541-5.3468 7.805-16.157 15.853-16.056 7.1701 0.04989 18.477 4.6441 30.166 1.9222 7.3541-1.5316 16.812-5.8255 25.483-5.6516 9.603-0.39684 13.344-1.0955 23.826-1.0107m-95.329 20.465c3.4674-5.4577 7.6852-16.164 15.715-16.037 7.1394 0.08562 18.574 4.6106 30.349 1.8085 7.1637-1.5816 16.695-5.5919 25.125-5.6908 9.6596-0.52875 13.147-1.1405 23.724-0.81739m-94.914 20.393c3.395-5.5655 7.5686-16.159 15.577-16.007 7.1087 0.12135 18.67 4.577 30.532 1.6948 6.9734-1.6317 16.579-5.3583 24.767-5.73 9.7163-0.66066 12.949-1.1856 23.623-0.62401m-94.498 20.31c3.3239-5.6698 7.4553-16.141 15.439-15.963 7.078 0.15708 18.766 4.5434 30.714 1.581 6.783-1.6818 16.462-5.1247 24.409-5.7692 9.7729-0.79257 12.752-1.2306 23.521-0.43066" fill="none" stop-color="#000000" stroke="url(#linearGradient24274)" stroke-width=".09343" style="font-variation-settings:normal"/>
 <path d="m108.5-4.8717c-17.391 2.1869-16.143 24.367-32.137 26.946-10.632 0.59711-14.007-2.3325-22.098-0.29563-9.6365 2.4262-15.387 10.81-23.621 11.602-8.8196 0.84843-18.85-3.4159-28.416 1.1378-5.939 2.8273-8.7086 10.028-12.183 15.195v7.0382c7.7932-4.4682 14.558-11.302 20.182-13.084 5.7321-1.8157 11.619-0.74995 17.616-0.605 5.2815 0.12765 10.77-3.5355 16.217-3.8971 10.89-0.72307 22.66 2.071 33.333 0.32774 10.359-1.692 17.704-10.072 27.467-12.546 1.1843-0.30004 2.4012-0.47403 3.6398-0.56494z" fill="url(#linearGradient4551-1-4)"/>
 <path d="m108.5 10.325c-10.828 1.4388-16.291 5.8203-22.984 14.991-7.9437 10.885-22.74 6.64-22.74 6.64l17.461 6.16 28.262-5.145z" fill="url(#linearGradient12309-5-6)"/>
 <path d="m25.379 38.166c2.578 0.2372 9.2504-0.1275 11.778-0.99014 12.854-6.2572 17.658-13.375 32.312-9.1231 16.431 4.7679 22.093-17.614 39.059-20.091m-83.242 35.242s5.959-0.2943 14.304-0.7948c14.738-1.0384 19.259-0.76398 35.377 3.6116 11.081 3.0081 22.941-11.432 33.565-13.342m-83.243 10.352c0.0889 0.0082 6.0725-0.28856 14.217-0.80155 14.667-1.2361 19.244-1.2021 35.271 3.1724 11.19 3.0542 23.034-11.41 33.755-13.438m-83.241 10.893c0.1778 0.016464 6.1859-0.2828 14.13-0.80827 14.595-1.4334 19.227-1.6423 35.166 2.7333 11.301 3.1024 23.127-11.397 33.944-13.548m-83.237 11.449c0.26669 0.0245 6.2994-0.27704 14.043-0.81501 14.51-1.6305 19.228-2.0792 35.06 2.2942 11.413 3.1528 23.221-11.395 34.131-13.671m-83.231 12.019c0.35558 0.03271 6.4129-0.2713 13.956-0.82175 14.442-1.8275 19.206-2.5243 34.954 1.855 11.529 3.206 23.318-11.404 34.321-13.811m-83.228 12.604c0.4445 0.04092 6.5264-0.26555 13.869-0.82848 14.377-2.0242 19.179-2.9725 34.849 1.4159 11.649 3.2624 23.418-11.427 34.514-13.966m-83.228 13.205c0.53338 0.04906 6.6399-0.25979 13.782-0.83521 14.305-2.2158 19.145-3.4248 34.743 0.97679 11.771 3.3217 23.518-11.464 34.705-14.138m-83.227 13.822c0.62228 0.05726 6.7534-0.25403 13.695-0.84194 14.233-2.4092 19.12-3.8766 34.637 0.53767 11.896 3.3842 23.618-11.516 34.894-14.325m-83.223 14.455c0.71119 0.06544 6.8669-0.24828 13.607-0.84868 14.16-2.6015 19.093-4.3273 34.532 0.09852 12.033 3.4494 23.71-11.584 35.081-14.528m-83.217 15.104c0.80008 0.07361 6.9804-0.24252 13.52-0.85541 14.088-2.7926 19.064-4.7824 34.426-0.34059 12.198 3.5269 23.779-11.665 35.266-14.746m-83.209 15.769c0.88898 0.0818 7.0939-0.23678 13.433-0.86215 14.015-2.9824 19.034-5.242 34.32-0.77972 12.347 3.6042 23.873-11.775 35.457-14.983m-83.207 16.451c0.97789 0.08997 7.2074-0.23103 13.346-0.86889 13.944-3.1708 19.003-5.7049 34.215-1.2188 12.502 3.6868 23.967-11.908 35.646-15.234m-83.203 17.148c1.0668 0.09815 7.3209-0.22528 13.259-0.87563 13.872-3.3577 18.969-6.1714 34.109-1.658 12.664 3.7755 24.061-12.068 35.835-15.501m-83.2 17.861c1.1557 0.10633 7.4344-0.21952 13.172-0.88236 13.802-3.5431 18.934-6.6419 34.003-2.0971 12.834 3.8706 24.157-12.259 36.024-15.781m-83.196 18.586c1.2446 0.11451 7.5479-0.21378 13.085-0.8891 13.732-3.7268 18.898-7.1165 33.898-2.5362 13.01 3.9727 24.257-12.483 36.213-16.072m-83.192 19.324c1.3335 0.12269 7.6614-0.20802 12.998-0.89583 13.663-3.9089 18.859-7.5954 33.792-2.9754 13.193 4.0818 24.362-12.743 36.402-16.373m-83.189 20.071c1.4224 0.13087 7.7749-0.20227 12.91-0.90256 13.595-4.0892 18.819-8.0787 33.686-3.4145 13.382 4.1983 24.478-13.043 36.592-16.681m-83.185 20.825c1.5113 0.13905 7.8884-0.19653 12.823-0.90931 13.528-4.2677 18.783-8.5861 33.581-3.8536 13.416 4.2906 24.661-13.401 36.78-16.992m-83.181 21.582c1.6002 0.14724 8.0019-0.19077 12.736-0.91604 13.462-4.4443 18.74-9.0791 33.475-4.2927 13.604 4.4188 24.784-13.778 36.971-17.305m-83.179 22.34c1.6891 0.1554 8.1154-0.18501 12.649-0.92278 13.398-4.6191 18.694-9.5745 33.369-4.7319 13.798 4.5532 24.917-14.192 37.161-17.612m-83.176 23.093c1.778 0.1636 8.2289-0.17926 12.562-0.92951 13.336-4.7919 18.645-10.071 33.264-5.171 14.002 4.6928 25.063-14.642 37.35-17.912m-83.172 23.839c1.8669 0.17177 8.3424-0.1735 12.475-0.93625 13.275-4.9628 18.592-10.565 33.158-5.6101 14.215 4.836 25.225-15.122 37.539-18.199m-83.169 24.572c1.9558 0.17994 8.4559-0.16775 12.388-0.94299 13.215-5.1317 18.533-11.052 33.052-6.0492 14.346 4.9429 25.197-15.504 37.457-18.411 0.0925-0.02106 0.18471-0.04194 0.27672-0.06256m-83.171 25.292c2.0447 0.18812 8.5694-0.162 12.301-0.94972 13.158-5.2986 18.382-11.279 32.947-6.4883 15.97 5.253 22.892-15.547 37.925-18.737m-83.169 26.001c2.1336 0.19631 8.6829-0.15625 12.214-0.95646 13.102-5.4634 18.276-11.649 32.841-6.9275 16.056 5.2049 22.778-15.917 38.115-18.989m-83.166 26.699c2.2225 0.20448 8.7964-0.1505 12.126-0.96318 13.049-5.6263 18.164-12.011 32.735-7.3666 16.143 5.1459 22.647-16.277 38.303-19.23m-83.161 27.386c2.3114 0.21266 8.9099-0.14476 12.039-0.96992 12.997-5.7871 18.046-12.365 32.63-7.8057 16.227 5.0732 22.51-16.627 38.495-19.461m-83.16 28.063c2.4003 0.22085 9.0234-0.13899 11.952-0.97666 12.947-5.9459 17.923-12.711 32.524-8.2449 16.302 4.9865 22.368-16.966 38.681-19.681m-83.154 28.728c2.4892 0.22902 9.1369-0.13323 11.865-0.98339 12.9-6.1025 17.793-13.047 32.418-8.684 16.371 4.8842 22.231-17.297 38.874-19.891" fill="none" stroke="url(#linearGradient6948-3)" stroke-width=".031143px"/>
 <path d="m108.5 19.399c-1.19 0.17226-2.4425 0.39815-3.8054 0.69769-13.993 3.0752-16.481 14.585-27.002 13.526-5.1125-0.51464-16.294-3.6662-21.319-2.7229-8.5615 1.6072-12.25 7.098-21.02 7.903-10.291 0.94467-16.806-4.1881-27.009-2.6605-8.5729 1.2835-13.353 11.066-17.352 15.958-0.30554 0.37386-0.62232 0.72181-0.94813 1.0501v3.5969c3.0926-1.5247 5.7152-3.0634 7.1979-4.0266 21.289-18.118 17.981-3.0041 34.343-4.0516 5.5322-0.35417 19.519-10.932 25.077-12.088 11.479-2.3879 13.766 5.6273 25.203 3.774 9.4543-1.532 17.846-6.8541 26.633-10.137z" fill="url(#linearGradient4479-5-4)"/>
 <path d="m108.5 27.097c-0.18264 0.03011-0.36451 0.05615-0.54822 0.09187-6.8244 1.3268-11.764 5.9227-20.146 10.83-9.3253 5.4596-22.768-6.6425-32.034-4.3207-9.4138 2.3588-13.573 10.468-22.91 11.775-9.4464 1.3225-15.144-10.317-27.584-5.3503-7.4652 2.9807-9.8951 10.48-13.5 14.177-0.57138 0.58589-1.1477 1.1121-1.7322 1.5894v4.2115c0.95237-0.39541 1.9217-0.86924 2.9126-1.4374 7.6231-4.3712 10.702-13.88 19.9-14.466 5.0197-0.32013 10.832 5.8838 18.532 6.8367 10.3 1.2747 17.499-8.5199 23.419-9.5714 12.196-2.166 16.507 6.7698 25.572 7.7772 11.848 1.3167 19.29-8.1445 28.119-13.103z" fill="url(#linearGradient4687-8-1)"/>
 <path d="m108.51 28.91c-8.4728 5.9857-15.671 20.405-26.707 20.401 11.029 0.44299 18.235-8.4206 26.707-13.17zm-48.703 7.0552c-10.609 0.17452-16.514 14.592-27.359 15.161 9.7376 0.51132 16.653-8.6488 22.369-9.6639 12.196-2.166 16.507 6.7698 25.572 7.7772-8.4985-0.94444-10.549-13.439-20.581-13.274zm-47.35 5.5908c-9.0472-0.10843-15.566 14.897-22.405 17.5v0.896c0.93452-0.42011 1.8748-0.8847 2.81-1.3982 7.6231-4.3712 10.805-13.771 20.003-14.358 5.0197-0.32013 10.832 5.9132 18.532 6.8662-7.7-0.95294-10.622-9.4071-18.94-9.5068z" fill="#e9ebed" fill-opacity=".49133" opacity=".23994"/>
 <path d="m108.5 35.342c-8.1989 4.9503-15.625 13.638-26.111 13.954-0.19661 0.0092-0.39401 0.01515-0.59308 0.01505 0.34467 0.01387 0.6856 0.01864 1.023 0.01474 1.3492-0.0157 2.6412-0.17052 3.8859-0.43765 0.2232-0.0479 0.44305-0.10341 0.66327-0.15841 0.08682-0.02165 0.17516-0.03965 0.26154-0.0624 0-4.5e-5 0-8.6e-5 9.61e-4 -1.7e-4 0.14662-0.03862 0.29065-0.08367 0.43599-0.1253 0.15747-0.04511 0.31622-0.0872 0.47225-0.13573 0.29975-0.09325 0.59674-0.19268 0.89135-0.29795 0-8.6e-5 0-2.56e-4 9.61e-4 -3.2e-4 0.29456-0.10525 0.58671-0.21626 0.87645-0.33271 0-8.3e-5 9.61e-4 -2.53e-4 9.61e-4 -3.2e-4 0.03366-0.01352 0.06652-0.0287 0.10014-0.04237 0.25588-0.10414 0.51071-0.21088 0.76308-0.32311 0.28522-0.12683 0.56814-0.25856 0.84914-0.39495 0-1.7e-4 9.61e-4 -3.2e-4 9.61e-4 -6.4e-4 0.26531-0.12877 0.52872-0.26234 0.79055-0.39892 0.01579-0.0083 0.0319-0.01576 0.04767-0.02399 0.277-0.14509 0.55205-0.29425 0.82547-0.44725 0-2.53e-4 9.61e-4 -3.2e-4 0.0013-6.41e-4 0.27344-0.15301 0.54522-0.30982 0.81538-0.46993 0-2.54e-4 9.61e-4 -3.21e-4 0.0013-6.41e-4 0.27014-0.1601 0.53877-0.32341 0.80595-0.48979 0-2.53e-4 9.61e-4 -6.4e-4 0.0013-9.6e-4 0.26717-0.16639 0.53281-0.33565 0.79734-0.5075 0-2.53e-4 9.61e-4 -6.41e-4 0.0013-9.61e-4 0.5294-0.34396 1.0538-0.69811 1.5745-1.059 0-3.2e-4 9.61e-4 -6.41e-4 0.0013-9.61e-4 0.24237-0.16802 0.48164-0.34147 0.72252-0.51214 0.27703-0.19628 0.5557-0.39011 0.8311-0.58894 1.0291-0.74298 2.0481-1.5004 3.067-2.2459 0-2.53e-4 9.6e-4 -3.2e-4 9.6e-4 -6.4e-4 0.0331-0.02425 0.0662-0.0478 0.0993-0.07201 0.47698-0.34858 0.95401-0.69503 1.4321-1.0354 0.51024-0.36322 1.0217-0.7203 1.5356-1.0678v-1.7e-4c0.41509-0.28069 0.83342-0.54978 1.2524-0.81637 0.10057-0.06399 0.19978-0.13293 0.30059-0.19598 0.26024-0.16274 0.52137-0.3221 0.7836-0.47804 0.15185-0.0903 0.30493-0.17671 0.45752-0.26451 0.1111-0.06392 0.22151-0.12997 0.33304-0.1925zm-49.59 5.2702v1.7e-4c-10.319-0.26773-14.742 10.794-26.47 10.513 9.7377 0.51132 16.653-8.6488 22.369-9.6639 0.37058-0.06582 0.73328-0.1205 1.0897-0.16635 0.11776-0.01515 0.23101-0.02386 0.34728-0.03691 0.23626-0.02652 0.47276-0.05326 0.70299-0.07134 0.13376-0.01051 0.263-0.01496 0.39478-0.02268 0.20613-0.01214 0.41284-0.02508 0.61427-0.03062 0.13715-0.0038 0.2705-0.0022 0.40554-0.0032 0.19145-0.0013 0.38326-0.0026 0.57057 0.0016 0.13042 0.0029 0.25787 0.01067 0.38634 0.01656 0.18816 0.0086 0.37586 0.01749 0.55997 0.03161 0.12219 0.0094 0.24221 0.02184 0.36267 0.0336 0.18337 0.0179 0.36591 0.03688 0.54541 0.06009 0.11741 0.01522 0.23312 0.03278 0.34893 0.05016 0.18 0.02697 0.35888 0.05551 0.53515 0.08756 0.10698 0.01947 0.21299 0.04031 0.31864 0.06158 0.18288 0.03677 0.36402 0.07578 0.54309 0.11769 0.09587 0.02249 0.19138 0.04549 0.2862 0.06936 0.18497 0.04652 0.3679 0.09569 0.54905 0.14732 0.08405 0.02396 0.16802 0.04796 0.25127 0.073 0.19487 0.05852 0.38744 0.1201 0.57818 0.18406 0.06562 0.02204 0.13149 0.04374 0.19665 0.06638 0.20827 0.07229 0.41397 0.14779 0.61774 0.22595 0.04528 0.01736 0.09099 0.03415 0.13606 0.05181 0.23205 0.09083 0.46132 0.18533 0.68809 0.28288 0.01467 0.0063 0.02953 0.01236 0.0442 0.01871 0.96736 0.41844 1.887 0.89586 2.7858 1.3954 0.07936 0.04415 0.15867 0.08809 0.2377 0.13259 1.4753 0.83019 2.8965 1.7133 4.3532 2.5112 0.04865 0.02665 0.09791 0.052 0.14666 0.07846 1.7046 0.92472 3.4669 1.7221 5.4448 2.1532-7.3232-1.6641-10.564-8.1256-19.94-8.3689zm-45.619 3.2675c-0.15852-0.0032-0.31621 2.53e-4 -0.47307 0.01025-9.1975 0.58655-12.994 10.38-20.604 14.773-0.73563 0.42463-1.4612 0.78964-2.1689 1.1107v0.32112c0.29539-0.12321 0.59101-0.24739 0.88987-0.38618 0.2408-0.11257 0.48328-0.22878 0.72947-0.35306 0.094131-0.04739 0.18855-0.09599 0.28305-0.145 0.33301-0.17301 0.66872-0.3525 1.01-0.54822 7.6231-4.3712 10.703-13.88 19.9-14.466 3.7648-0.2401 7.9753 3.2062 13.094 5.3463 0.42654 0.17834 0.8593 0.3477 1.2987 0.50502 0.80573 0.28847 1.6366 0.52949 2.4882 0.71971-6.6626-1.5234-11.902-6.8011-16.447-6.8875zm16.447 6.8875c0.12956 0.02963 0.25917 0.05886 0.38981 0.08558-0.13088-0.02623-0.26005-0.05659-0.38981-0.08558zm0.38981 0.08558c0.1727 0.03461 0.34526 0.06943 0.51992 0.09899-0.17439-0.02995-0.34743-0.06371-0.51992-0.09899zm0.51992 0.09899c0.02601 0.0045 0.05192 0.0091 0.07796 0.01342-0.02607-0.0043-0.05194-9e-3 -0.07796-0.01342zm0.07796 0.01342c0.21983 0.03616 0.44063 0.06957 0.6636 0.09716-0.22283-0.02758-0.44384-0.06053-0.6636-0.09716zm48.124-1.984c0.24464 0.05559 0.49423 0.10521 0.74917 0.14831 0.25697 0.04248 0.51685 0.07982 0.78162 0.10925-0.52662-0.05853-1.0338-0.14925-1.5308-0.25756z" fill="url(#linearGradient14655-5)"/>
 <path d="m108.5 18.928s-2.3115 0.41369-3.5428 0.77715c-14.66 4.3275-15.79 13.165-25.425 14.017-4.1365 0.36585-16.046-3.8214-22.671-2.8992-8.5538 1.1909-12.988 6.7691-20.468 7.8179-9.2109 1.2916-18.725-4.5779-29.111-2.5128-8.0981 1.6102-11.343 10.079-17.237 16.585v0.39288c4.9688-4.9729 8.9857-14.899 17.237-16.766 10.062-2.2765 20.87 4.5489 29.32 2.602 9.1089-2.0988 11.773-6.5745 20.262-7.909 7.5302-1.1838 17.822 3.8324 22.717 3.2334 8.9788-1.0986 12.272-10.188 26.151-14.202 0.9334-0.26994 2.7676-0.43086 2.7676-0.43086z" fill="url(#linearGradient25349-5)"/>
</svg>
