<?xml version="1.0" encoding="UTF-8"?>
<!-- Created with Inkscape (http://www.inkscape.org/) -->
<svg width="640" height="480" version="1.1" viewBox="0 0 169.33 127" xmlns="http://www.w3.org/2000/svg" xmlns:xlink="http://www.w3.org/1999/xlink">
 <defs>
  <linearGradient id="linearGradient25627">
   <stop stop-color="#bda62c" offset="0"/>
   <stop stop-color="#ae9a28" stop-opacity=".98824" offset=".14669"/>
   <stop stop-color="#8c7b20" stop-opacity=".96863" offset=".30531"/>
   <stop stop-color="#bda62c" stop-opacity=".95686" offset=".51079"/>
   <stop stop-color="#82721e" stop-opacity=".94902" offset=".6231"/>
   <stop stop-color="#c0ab2c" stop-opacity=".99608" offset=".83541"/>
   <stop stop-color="#7f6f1e" stop-opacity=".92157" offset="1"/>
  </linearGradient>
  <linearGradient id="linearGradient25349-8" x1="-19.327" x2="365.1" y1="174.88" y2="71.87" gradientTransform="matrix(.68387 0 0 .68387 -81.147 -11.448)" gradientUnits="userSpaceOnUse" xlink:href="#linearGradient25627"/>
  <linearGradient id="linearGradient14655-6" x1="-46.183" x2="1721.9" y1="706.05" y2="445.69" gradientTransform="matrix(.18094 0 0 .18094 -81.147 -11.448)" gradientUnits="userSpaceOnUse">
   <stop stop-color="#bda62c" offset="0"/>
   <stop stop-color="#615516" stop-opacity=".98824" offset=".098576"/>
   <stop stop-color="#cab12f" stop-opacity=".97647" offset=".25339"/>
   <stop stop-color="#8c7b20" stop-opacity=".96863" offset=".33815"/>
   <stop stop-color="#87771f" stop-opacity=".96471" offset=".42151"/>
   <stop stop-color="#bda62c" stop-opacity=".95686" offset=".53339"/>
   <stop stop-color="#82721e" stop-opacity=".94902" offset=".6231"/>
   <stop stop-color="#80711e" stop-opacity=".93725" offset=".73471"/>
   <stop stop-color="#d7be31" stop-opacity=".92941" offset=".83541"/>
   <stop stop-color="#bda62c" stop-opacity=".92175" offset="1"/>
  </linearGradient>
  <linearGradient id="linearGradient4687-8-7" x1="1155.1" x2="93.584" y1="262.51" y2="615.88" gradientTransform="matrix(.22046 .023403 -.023403 .22046 -66.387 -22.38)" gradientUnits="userSpaceOnUse">
   <stop stop-color="#8b5cf6" offset="0"/>
   <stop stop-color="#6d28d9" offset=".21248"/>
   <stop stop-color="#6f5cf6" offset=".42964"/>
   <stop stop-color="#7c3aed" offset=".59961"/>
   <stop stop-color="#6376f6" offset=".80968"/>
   <stop stop-color="#6d28d9" offset="1"/>
  </linearGradient>
  <linearGradient id="linearGradient4479-5-6" x1="1143.2" x2="120.86" y1="196.75" y2="539.49" gradientTransform="matrix(.22046 .023403 -.023403 .22046 -66.387 -22.38)" gradientUnits="userSpaceOnUse">
   <stop stop-color="#8b5cf6" offset="0"/>
   <stop stop-color="#5151dc" offset=".25152"/>
   <stop stop-color="#3b82f6" offset=".4454"/>
   <stop stop-color="#8b69f6" offset=".63944"/>
   <stop stop-color="#60a5fa" offset=".83593"/>
   <stop stop-color="#60a5fa" offset="1"/>
  </linearGradient>
  <linearGradient id="linearGradient6948-4" x1="466.89" x2="1404.4" y1="475.5" y2="195.51" gradientTransform="matrix(.2217 0 0 .2217 -85.502 -30.473)" gradientUnits="userSpaceOnUse">
   <stop stop-color="#3e2fdd" offset="0"/>
   <stop stop-color="#a4007e" offset="1"/>
  </linearGradient>
  <linearGradient id="linearGradient12309-5-1" x1="1181.7" x2="861.39" y1="252.37" y2="436.6" gradientTransform="matrix(.2217 0 0 .2217 -85.502 -29.763)" gradientUnits="userSpaceOnUse">
   <stop stop-color="#7e5af0" offset="0"/>
   <stop stop-color="#7c61ee" offset=".49538"/>
   <stop stop-color="#4c6fe2" offset="1"/>
  </linearGradient>
  <linearGradient id="linearGradient4551-1-4" x1="1112.8" x2="89.147" y1="69.067" y2="487.89" gradientTransform="matrix(.22046 .023403 -.023403 .22046 -66.387 -22.38)" gradientUnits="userSpaceOnUse">
   <stop stop-color="#60a5fa" offset="0"/>
   <stop stop-color="#365fd8" offset=".23216"/>
   <stop stop-color="#3b82f6" offset=".43871"/>
   <stop stop-color="#4d4eeb" offset=".65563"/>
   <stop stop-color="#60a5fa" offset="1"/>
  </linearGradient>
  <linearGradient id="linearGradient24274-4" x1="132.11" x2="1068.3" y1="575.51" y2="320.25" gradientTransform="matrix(.22046 .023403 -.023403 .22046 -66.387 -22.38)" gradientUnits="userSpaceOnUse">
   <stop stop-color="#1c52f2" offset="0"/>
   <stop stop-color="#d62bc3" stop-opacity=".42363" offset="1"/>
  </linearGradient>
  <linearGradient id="linearGradient118139" x1="100.6" x2="345.1" y1="115.79" y2="-9.8374" gradientTransform="matrix(.60331 0 0 .60331 -47.237 .12093)" gradientUnits="userSpaceOnUse">
   <stop stop-color="#8b5cf6" offset="0"/>
   <stop stop-color="#5151dc" offset=".25152"/>
   <stop stop-color="#3b82f6" offset=".4454"/>
   <stop stop-color="#8b5cf6" offset=".63944"/>
   <stop stop-color="#60a5fa" offset=".83593"/>
   <stop stop-color="#60a5fa" offset="1"/>
  </linearGradient>
  <linearGradient id="linearGradient161031" x1="-12.42" x2="373.66" y1="169.75" y2="-5.834" gradientTransform="matrix(.60331 0 0 .60331 -47.237 -3.7045)" gradientUnits="userSpaceOnUse" xlink:href="#linearGradient25627"/>
 </defs>
 <rect x="8.8818e-16" width="169.33" height="127" fill="#2a2e32" stop-color="#000000" style="-inkscape-stroke:none;font-variation-settings:normal;paint-order:stroke fill markers"/>
 <path d="m173.62-10.159c-32.755 4.119-30.405 46.605-60.53 51.462-20.026 1.1247-26.383-5.1256-41.621-1.2891-18.151 4.5698-28.981 21.094-44.49 22.585-16.612 1.598-35.505-6.7508-53.521 1.8262-11.186 5.3253-16.403 18.934-22.947 28.666v12.445c14.679-8.4158 27.42-21.288 38.013-24.643 10.797-3.42 21.884-1.4125 33.179-1.1395 9.9478 0.24044 20.285-6.6591 30.545-7.3403 20.512-1.3619 42.681 3.9008 62.783 0.61731 19.511-3.1869 33.346-18.972 51.735-23.63 2.2306-0.56513 4.5227-0.89284 6.8555-1.0641z" fill="url(#linearGradient161031)"/>
 <path d="m12.324 77.826s17.009-2.7701 25.526-4.0726c12.219-1.8685 24.586-2.8719 36.692-5.3684 12.101-2.4954 24.324-5.0186 35.806-9.5812 14.843-5.898 27.521-16.382 42.163-22.761 6.8064-2.9653 21.095-7.1481 21.095-7.1481m-161.64 48.601s17.156-2.7352 25.729-4.1342c12.217-1.9937 24.53-3.4877 36.636-6.0706 12.125-2.5871 24.486-4.7795 35.981-9.4258 14.748-5.9612 27.149-16.736 41.601-23.382 7.0014-3.2196 21.717-7.9269 21.717-7.9269m-162.03 50.609s17.304-2.6989 25.931-4.195c12.218-2.1189 24.471-4.1012 36.58-6.7716 12.15-2.6793 24.649-4.5391 36.156-9.2723 14.653-6.0274 26.764-17.101 41.024-24.007 7.1912-3.4822 22.326-8.7224 22.326-8.7224m-162.38 52.637s17.452-2.6612 26.133-4.2551c12.223-2.2443 24.408-4.7127 36.525-7.4716 12.174-2.7719 24.814-4.2957 36.331-9.1206 14.573-6.1057 26.389-17.511 40.471-24.677 7.3948-3.7632 22.985-9.5541 22.985-9.5541m-162.81 54.747s17.602-2.6224 26.334-4.3145c12.231-2.3699 24.342-5.3221 36.471-8.1705 12.199-2.8649 24.98-4.0532 36.505-8.9706 14.477-6.1767 25.979-17.895 39.864-25.305 7.572-4.041 23.564-10.378 23.564-10.378m-163.1 56.808s17.752-2.5826 26.535-4.3732c12.242-2.4957 24.273-5.9295 36.416-8.8684 12.223-2.9581 25.148-3.8079 36.68-8.8223 14.395-6.2589 25.576-18.318 39.278-25.974 7.7604-4.3362 24.187-11.234 24.187-11.234m-163.46 58.941s17.902-2.5417 26.736-4.4313c12.256-2.6218 24.201-6.5351 36.363-9.5655 12.246-3.0515 25.317-3.5612 36.855-8.6755 14.318-6.3463 25.166-18.757 38.69-26.655 7.9474-4.6417 24.815-12.108 24.815-12.108m-163.82 61.104s18.053-2.4999 26.935-4.4888c12.273-2.7482 24.126-7.1389 36.31-10.262 12.27-3.145 25.487-3.3133 37.03-8.5301 14.245-6.4385 24.751-19.212 38.099-27.348 8.1325-4.9569 25.446-12.996 25.446-12.996m-164.18 63.293s18.205-2.4574 27.134-4.5458c12.294-2.8751 24.048-7.7411 36.257-10.957 12.293-3.2385 25.659-3.0643 37.204-8.3857 14.178-6.5347 24.328-19.678 37.506-28.048 8.3145-5.2807 26.078-13.896 26.078-13.896m-164.54 65.501s18.357-2.4142 27.333-4.6023c12.317-3.0025 23.967-8.342 36.205-11.653 12.316-3.332 25.832-2.8144 37.379-8.2422 14.115-6.6351 23.9-20.156 36.912-28.755 8.4936-5.6127 26.714-14.805 26.714-14.805m-164.91 67.726s18.509-2.3704 27.531-4.6583c12.344-3.1304 23.883-8.9414 36.153-12.348 12.339-3.4252 26-2.5785 37.554-8.0997 13.877-6.631 23.232-20.263 35.903-28.98 8.4624-5.8211 26.648-15.471 26.648-15.471l1.1204-0.75275m-165.27 69.978s18.662-2.326 27.729-4.7138c12.373-3.2587 23.796-9.5392 36.102-13.042 12.362-3.5183 26.183-2.3121 37.729-7.9585 14.005-6.8488 23.024-21.144 35.719-30.193 8.8414-6.3024 27.992-16.658 27.992-16.658m-165.63 72.234s18.816-2.2814 27.926-4.7692c12.406-3.3879 23.706-10.137 36.052-13.736 12.385-3.6111 26.359-2.0604 37.904-7.817 13.957-6.9593 22.578-21.645 35.123-30.911 9.0086-6.6547 28.631-17.584 28.631-17.584m-166 74.487s18.97-2.2365 28.122-4.8244c12.441-3.5178 23.612-10.733 36.001-14.431 12.408-3.7035 26.537-1.8085 38.08-7.6752 13.913-7.0708 22.127-22.145 34.527-31.622 9.1699-7.0091 29.268-18.502 29.268-18.502m-166.36 76.724s19.124-2.1915 28.318-4.8796c12.479-3.6486 23.516-11.33 35.95-15.127 12.431-3.7955 26.715-1.5567 38.257-7.5329 13.872-7.1831 21.673-22.643 33.933-32.326 9.3258-7.365 29.902-19.411 29.902-19.411m-166.72 78.944s19.279-2.1465 28.513-4.9347c12.519-3.7802 23.416-11.926 35.899-15.823 12.453-3.8871 26.894-1.305 38.434-7.39 13.836-7.2956 21.216-23.139 33.342-33.019 9.4763-7.7212 30.535-20.306 30.535-20.306m-167.09 81.142s19.434-2.1016 28.707-4.9899c12.562-3.9128 23.313-12.523 35.849-16.52 12.477-3.9781 27.073-1.0536 38.612-7.2462 13.802-7.4075 20.756-23.627 32.753-33.699 9.6206-8.0761 31.164-21.186 31.164-21.186m-167.45 83.309s19.589-2.0567 28.9-5.0452c12.608-4.0464 23.207-13.119 35.798-17.217 12.5-4.0686 27.253-0.80237 38.791-7.1014 13.772-7.5189 20.294-24.109 32.169-34.365 9.7597-8.4292 31.79-22.048 31.79-22.048m-167.81 85.446s19.744-2.0121 29.093-5.1007c12.656-4.1811 23.097-13.716 35.747-17.916 12.523-4.1586 27.433-0.55153 38.971-6.9554 13.744-7.6286 19.831-24.581 31.588-35.015 9.8925-8.7791 32.412-22.889 32.412-22.889m-168.17 87.545s19.9-1.9678 29.285-5.1563c12.706-4.3168 22.985-14.313 35.695-18.616 12.547-4.2479 27.614-0.30105 39.152-6.8082 13.718-7.7367 19.367-25.043 31.011-35.648 10.02-9.1251 33.03-23.707 33.03-23.707m-168.54 89.605s20.056-1.9239 29.476-5.2121c12.759-4.4536 22.868-14.911 35.644-19.318 12.571-4.3366 27.794-0.05094 39.334-6.6594 13.695-7.8426 18.903-25.493 30.44-36.261 10.142-9.4662 33.642-24.502 33.642-24.502m-168.9 91.621s20.211-1.8803 29.666-5.2682c12.814-4.5916 22.749-15.509 35.591-20.02 12.595-4.4246 27.975 0.19881 39.518-6.5092 13.672-7.9459 18.439-25.93 29.873-36.855 10.258-9.8018 34.25-25.271 34.25-25.271m-169.26 93.593s20.367-1.8373 29.855-5.3245c12.872-4.7307 22.626-16.107 35.539-20.724 12.62-4.5119 28.156 0.44826 39.702-6.3573 13.652-8.0464 17.977-26.353 29.311-37.428 10.369-10.131 34.853-26.014 34.853-26.014m-169.62 95.517s20.523-1.7947 30.044-5.3811c12.931-4.871 22.5-16.707 35.486-21.429 12.646-4.5986 28.337 0.69743 39.888-6.2037 13.632-8.1439 17.515-26.763 28.755-37.98 10.475-10.454 35.45-26.729 35.45-26.729m-169.99 97.392s20.679-1.7527 30.231-5.438c12.993-5.0125 22.37-17.307 35.432-22.136 12.672-4.6845 28.518 0.9464 40.076-6.0484 13.612-8.238 17.056-27.157 28.204-38.509 10.576-10.77 36.042-27.416 36.042-27.416m-170.35 99.217s20.834-1.7114 30.418-5.4952c13.057-5.1552 22.237-17.908 35.378-22.844 12.698-4.7698 28.699 1.1952 40.265-5.8913 13.593-8.3287 16.599-27.536 27.659-39.017 10.673-11.079 36.628-28.076 36.628-28.076m-170.71 100.99s20.99-1.6706 30.603-5.5527c13.123-5.2991 22.101-18.51 35.324-23.554 12.725-4.8543 28.879 1.444 40.455-5.7324 13.575-8.4158 16.143-27.899 27.119-39.502 10.765-11.38 37.208-28.706 37.208-28.706m-171.07 102.72s21.145-1.6306 30.788-5.6105c13.191-5.4443 21.961-19.113 35.269-24.265 12.753-4.9381 29.06 1.6928 40.647-5.5717 13.556-8.4994 15.691-28.248 26.586-39.966 10.854-11.673 37.784-29.309 37.784-29.309m-171.44 104.39s21.301-1.5913 30.972-5.6687c13.26-5.5907 21.819-19.716 35.213-24.978 12.781-5.0211 29.241 1.9417 40.84-5.4091 13.538-8.5793 15.241-28.581 26.058-40.408 10.938-11.959 38.353-29.884 38.353-29.884" fill="none" stroke="url(#linearGradient118139)" stroke-width=".058659px"/>
 <path d="m-48.432 112.21c12.052-3.1151 24.967-21.463 38.177-23.437 15.587-2.3289 28.28 11.024 44.434 11.332 26.758 0.51068 39.577-26.811 72.29-7.9866 14.245 8.1971 38.502 0.98904 51.759-15.015m-206.79 34.828c11.927-3.1979 24.704-21.835 38.047-23.748 15.529-2.2616 28.461 10.96 44.778 11.118 26.4 0.41636 39.357-26.371 71.616-8.0605 14.352 7.9487 38.131 0.90427 51.568-14.651m-206.14 35.062c11.802-3.2808 24.441-22.206 37.917-24.058 15.471-2.1943 28.642 10.897 45.122 10.903 26.041 0.32207 39.137-25.931 70.941-8.1343 14.459 7.7002 37.759 0.81949 51.377-14.286m-205.49 35.297c11.677-3.3636 24.178-22.578 37.788-24.369 15.414-2.127 28.823 10.834 45.466 10.689 25.683 0.22773 38.917-25.491 70.266-8.2082 14.566 7.4518 37.388 0.73466 51.186-13.922m-204.84 35.531c11.552-3.4465 23.915-22.95 37.658-24.679 15.356-2.0597 29.004 10.771 45.81 10.475 25.324 0.1334 38.698-25.051 69.591-8.282 14.672 7.2033 37.017 0.64986 50.994-13.558m-204.18 35.765c11.427-3.5293 23.652-23.321 37.528-24.99 15.298-1.9924 29.185 10.707 46.154 10.261 24.966 0.03903 38.478-24.611 68.916-8.3559 14.779 6.9549 36.645 0.56509 50.803-13.194m-203.53 36c11.302-3.6121 23.39-23.693 37.398-25.3 15.24-1.9251 29.367 10.644 46.498 10.047 24.607-0.0552 38.258-24.171 68.242-8.4297 14.886 6.7064 36.274 0.48032 50.612-12.83m-202.88 36.234c11.177-3.695 23.127-24.064 37.268-25.61 15.182-1.8578 29.548 10.581 46.842 9.8324 24.249-0.14952 38.038-23.731 67.567-8.5035 14.992 6.4579 35.903 0.39551 50.421-12.465m-202.23 36.468c11.052-3.7778 22.864-24.436 37.138-25.921 15.124-1.7904 29.729 10.518 47.186 9.6182 23.89-0.24385 37.819-23.291 66.892-8.5774 15.099 6.2095 35.531 0.31072 50.23-12.101m-201.46 36.66c10.893-3.9695 22.534-24.77 36.889-26.189 15.067-1.7232 29.91 10.454 47.53 9.404 23.532-0.33819 37.599-22.851 66.217-8.6512 15.206 5.961 35.16 0.22594 50.038-11.737m-200.68 36.843c10.731-4.1748 22.201-25.095 36.629-26.448 15.009-1.6559 30.091 10.391 47.874 9.1898 23.173-0.43247 37.379-22.411 65.543-8.725 15.313 5.7125 34.788 0.14114 49.847-11.373m-199.89 37.021c10.568-4.383 21.869-25.416 36.369-26.702 14.951-1.5886 30.273 10.328 48.218 8.9756 22.815-0.52679 37.159-21.971 64.868-8.7989 15.419 5.4641 34.417 0.05641 49.656-11.009m-199.11 37.194c10.405-4.5943 21.54-25.73 36.108-26.951 14.893-1.5213 30.454 10.265 48.562 8.7614 22.456-0.62112 36.94-21.531 64.193-8.8727 15.526 5.2156 34.046-0.028536 49.465-10.644m-198.33 37.361c10.243-4.808 21.214-26.038 35.848-27.194 14.835-1.454 30.635 10.202 48.906 8.5472 22.098-0.71542 36.72-21.091 63.518-8.9466 15.633 4.9671 33.674-0.11324 49.274-10.28m-197.55 37.522c10.081-5.0245 20.891-26.341 35.587-27.431 14.777-1.3867 30.816 10.138 49.25 8.333 21.739-0.80972 36.5-20.651 62.843-9.0204 15.739 4.7187 33.303-0.19798 49.083-9.9161m-196.76 37.677c9.9188-5.2436 20.57-26.636 35.327-27.662 14.72-1.3194 30.997 10.075 49.594 8.1188 21.381-0.90405 36.28-20.212 62.169-9.0942 15.846 4.4702 32.932-0.28283 48.891-9.5519m-195.98 37.825c9.757-5.4652 20.252-26.924 35.067-27.887 14.662-1.252 31.179 10.012 49.938 7.9046 21.022-0.99838 36.06-19.772 61.494-9.1681 15.953 4.2218 32.56-0.36761 48.7-9.1877m-195.2 37.967c9.5953-5.689 19.938-27.205 34.806-28.104 14.604-1.1848 31.36 9.9486 50.282 7.6904 20.663-1.0927 35.841-19.332 60.819-9.2419 16.06 3.9733 32.189-0.45241 48.509-8.8235m-194.42 38.101c9.434-5.9152 19.626-27.479 34.546-28.315 14.546-1.1175 31.541 9.8854 50.626 7.4762 20.305-1.187 35.621-18.892 60.144-9.3158 16.166 3.7249 31.818-0.53718 48.318-8.4593m-193.63 38.227c9.273-6.1436 19.318-27.743 34.285-28.517 14.488-1.0502 31.722 9.8222 50.97 7.262 19.946-1.2813 35.401-18.452 59.469-9.3896 16.273 3.4764 31.446-0.62198 48.127-8.0951m-192.85 38.345c9.1124-6.3736 19.013-27.999 34.025-28.711 14.43-0.98285 31.903 9.759 51.314 7.0478 19.588-1.3757 35.181-18.012 58.795-9.4634 16.38 3.2279 31.075-0.70677 47.935-7.7309m-192.07 38.454c8.9523-6.6054 18.711-28.246 33.765-28.896 14.373-0.91556 32.085 9.6957 51.658 6.8336 19.229-1.47 34.962-17.572 58.12-9.5373 16.486 2.9795 30.704-0.79158 47.744-7.3667m-191.29 38.554c8.7929-6.8385 18.413-28.484 33.504-29.073 14.315-0.84825 32.266 9.6325 52.002 6.6194 18.871-1.5643 34.742-17.132 57.445-9.6111 16.593 2.731 30.332-0.87636 47.553-7.0025m-190.5 38.645c8.6339-7.073 18.119-28.711 33.244-29.24 14.257-0.78095 32.447 9.5693 52.346 6.4052 18.512-1.6586 34.522-16.692 56.77-9.6849 16.7 2.4826 29.961-0.96115 47.362-6.6383m-189.72 38.725c8.4757-7.3086 17.828-28.927 32.983-29.396 14.199-0.71364 32.628 9.5061 52.69 6.191 18.154-1.7529 34.302-16.252 56.096-9.7588 16.807 2.2341 29.589-1.0459 47.171-6.2741m-188.94 38.795c8.3183-7.5445 17.542-29.131 32.723-29.542 14.141-0.64633 32.809 9.4428 53.034 5.9768 17.795-1.8472 34.083-15.812 55.421-9.8326 16.913 1.9856 29.218-1.1307 46.98-5.9099m-188.16 38.853c8.1618-7.7808 17.26-29.324 32.463-29.676 14.083-0.57905 32.99 9.3796 53.378 5.7626 17.437-1.9415 33.863-15.372 54.746-9.9064 17.02 1.7372 28.847-1.2155 46.788-5.5457m-187.38 38.899c8.0062-8.0175 16.982-29.504 32.202-29.798 14.025-0.51174 33.172 9.3164 53.722 5.5484 17.078-2.0358 33.643-14.932 54.071-9.9803 17.127 1.4887 28.475-1.3003 46.597-5.1815m-186.59 38.932c7.8518-8.2533 16.708-29.671 31.942-29.908 13.968-0.44445 33.353 9.2531 54.066 5.3342 16.72-2.1302 33.423-14.492 53.396-10.054 17.234 1.2403 28.104-1.3851 46.406-4.8173m-185.81 38.952c7.6985-8.4886 16.439-29.823 31.682-30.004 13.91-0.37715 33.534 9.1899 54.41 5.1199 16.361-2.2245 33.204-14.052 52.722-10.128 17.34 0.99179 27.733-1.4699 46.215-4.4531m-185.03 38.959c7.5465-8.7226 16.175-29.961 31.421-30.087 13.852-0.30986 33.715 9.1267 54.754 4.9057 16.003-2.3188 32.984-13.612 52.047-10.202 17.447 0.74335 27.361-1.5547 46.024-4.0889m-184.25 38.95c7.3959-8.9549 15.916-30.083 31.161-30.154 13.794-0.24254 33.896 9.0635 55.098 4.6915 15.644-2.4131 32.764-13.172 51.372-10.276 17.554 0.49487 26.99-1.6395 45.832-3.7247m-183.46 38.926c7.2469-9.185 15.662-30.189 30.901-30.206 13.736-0.17524 34.078 9.0002 55.442 4.4773 15.286-2.5074 32.544-12.732 50.697-10.349 17.66 0.24642 26.619-1.7243 45.641-3.3605m-182.68 38.885c7.0996-9.4122 15.413-30.278 30.64-30.242 13.678-0.10795 34.259 8.937 55.786 4.2631 14.927-2.6017 32.325-12.292 50.023-10.423 17.767-6.03e-4 26.247-1.809 45.45-2.9963m-181.9 38.828c6.9542-9.6359 15.17-30.349 30.38-30.26 13.621-0.04054 34.44 8.8738 56.13 4.0489 14.569-2.696 32.105-11.852 49.348-10.497 17.874-0.25051 25.876-1.8938 45.259-2.6321m-181.12 38.752c6.8108-9.8556 14.933-30.4 30.12-30.261 13.563 0.02667 34.621 8.8105 56.474 3.8347 14.21-2.7904 31.885-11.412 48.673-10.571 17.981-0.49898 25.504-1.9786 45.068-2.2679m-180.33 38.658c6.6695-10.071 14.701-30.432 29.859-30.242 13.505 0.09398 34.802 8.7473 56.818 3.6205 13.851-2.8847 31.665-10.972 47.998-10.645 18.087-0.74744 25.133-2.0634 44.876-1.9037m-179.55 38.545c6.5308-10.28 14.475-30.445 29.6-30.206 13.447 0.16126 34.984 8.6841 57.162 3.4063 13.493-2.979 31.446-10.532 47.323-10.719 18.194-0.99591 24.762-2.1482 44.685-1.5396m-178.77 38.411c6.3945-10.483 14.256-30.435 29.34-30.149 13.389 0.22856 35.165 8.6209 57.506 3.1921 13.134-3.0733 31.226-10.092 46.649-10.793 18.301-1.2443 24.39-2.233 44.494-1.1753m-177.99 38.254c6.2606-10.679 14.042-30.401 29.079-30.067 13.331 0.29587 35.346 8.5576 57.85 2.9779 12.776-3.1676 31.006-9.6525 45.974-10.866 18.407-1.4928 24.019-2.3178 44.303-0.81116" fill="none" stop-color="#000000" stroke="url(#linearGradient24274-4)" stroke-width=".17598" style="font-variation-settings:normal"/>
 <path d="m173.62-9.0816c-32.755 4.119-30.405 45.896-60.53 50.753-20.026 1.1247-26.383-4.3933-41.621-0.55682-18.151 4.5698-28.981 20.361-44.49 21.853-16.612 1.598-35.505-6.4339-53.521 2.1431-11.186 5.3253-16.403 18.888-22.947 28.619v13.256c14.679-8.4158 27.42-21.288 38.013-24.643 10.797-3.42 21.884-1.4125 33.179-1.1395 9.9478 0.24044 20.285-6.6591 30.545-7.3403 20.512-1.3619 42.681 3.9008 62.783 0.61731 19.511-3.1869 33.346-18.972 51.735-23.63 2.2306-0.56513 4.5227-0.89284 6.8555-1.0641z" fill="url(#linearGradient4551-1-4)"/>
 <path d="m173.62 19.541c-20.394 2.7101-30.685 10.963-43.29 28.236-14.962 20.503-42.831 12.506-42.831 12.506l32.888 11.602 53.232-9.6906z" fill="url(#linearGradient12309-5-1)"/>
 <path d="m17.055 71.98c4.8558 0.44677 17.423-0.24014 22.184-1.8649 24.211-11.785 33.259-25.193 60.861-17.183 30.949 8.9805 41.613-33.175 73.569-37.842m-156.79 66.379s11.224-0.55432 26.942-1.497c27.759-1.9558 36.274-1.439 66.633 6.8024 20.871 5.6659 43.209-21.532 63.219-25.13m-156.79 19.497c0.16745 0.01538 11.438-0.54351 26.778-1.5097 27.625-2.3283 36.246-2.2642 66.434 5.9753 21.077 5.7526 43.385-21.491 63.578-25.311m-156.78 20.518c0.33489 0.03101 11.651-0.53266 26.614-1.5224 27.489-2.6999 36.215-3.0932 66.235 5.1482 21.285 5.8433 43.561-21.467 63.934-25.517m-156.78 21.564c0.50232 0.04615 11.865-0.5218 26.45-1.5351 27.331-3.071 36.216-3.9162 66.036 4.3211 21.497 5.9383 43.737-21.462 64.286-25.75m-156.77 22.637c0.66974 0.06162 12.079-0.51099 26.286-1.5478 27.202-3.4422 36.175-4.7545 65.837 3.494 21.716 6.0386 43.92-21.48 64.645-26.013m-156.76 23.739c0.83722 0.07707 12.293-0.50017 26.122-1.5604 27.079-3.8127 36.124-5.5988 65.638 2.6669 21.941 6.1447 44.107-21.523 65.007-26.306m-156.76 24.872c1.0046 0.09241 12.506-0.48931 25.958-1.5731 26.944-4.1735 36.059-6.4507 65.439 1.8398 22.171 6.2564 44.297-21.593 65.368-26.629m-156.76 26.035c1.1721 0.10785 12.72-0.47846 25.794-1.5858 26.807-4.5378 36.013-7.3015 65.24 1.0127 22.407 6.3741 44.484-21.691 65.724-26.981m-156.75 27.227c1.3395 0.12326 12.934-0.46764 25.63-1.5985 26.671-4.9 35.962-8.1505 65.041 0.18557 22.664 6.4969 44.657-21.819 66.075-27.363m-156.74 28.449c1.507 0.13864 13.148-0.4568 25.466-1.6112 26.534-5.2598 35.908-9.0078 64.842-0.64151 22.974 6.643 44.788-21.971 66.424-27.775m-156.72 29.701c1.6744 0.15407 13.361-0.44598 25.301-1.6239 26.398-5.6173 35.851-9.8733 64.643-1.4686 23.255 6.7886 44.966-22.178 66.783-28.22m-156.72 30.986c1.8419 0.16946 13.575-0.43515 25.137-1.6366 26.263-5.9722 35.792-10.745 64.444-2.2957 23.548 6.9442 45.142-22.429 67.139-28.694m-156.71 32.299c2.0093 0.18487 13.789-0.42431 24.973-1.6492 26.129-6.3243 35.729-11.624 64.245-3.1228 23.853 7.1112 45.32-22.731 67.495-29.196m-156.71 33.641c2.1767 0.20027 14.003-0.41347 24.809-1.6619 25.995-6.6735 35.663-12.51 64.046-3.9499 24.173 7.2904 45.501-23.09 67.852-29.723m-156.7 35.008c2.3442 0.21568 14.217-0.40265 24.645-1.6746 25.864-7.0195 35.594-13.404 63.847-4.777 24.505 7.4826 45.688-23.512 68.208-30.272m-156.69 36.397c2.5116 0.23109 14.43-0.3918 24.481-1.6873 25.734-7.3625 35.521-14.306 63.648-5.6041 24.849 7.6882 45.887-24.002 68.564-30.839m-156.69 37.803c2.6791 0.2465 14.644-0.38098 24.317-1.7 25.606-7.7021 35.446-15.216 63.448-6.4312 25.205 7.9075 46.104-24.567 68.921-31.419m-156.68 39.223c2.8465 0.2619 14.858-0.37016 24.153-1.7127 25.48-8.0383 35.378-16.172 63.249-7.2583 25.269 8.0815 46.449-25.241 69.275-32.005m-156.67 40.649c3.0139 0.27732 15.072-0.35932 23.989-1.7254 25.356-8.371 35.297-17.101 63.05-8.0854 25.622 8.3228 46.682-25.951 69.636-32.593m-156.67 42.077c3.1814 0.2927 15.285-0.34847 23.825-1.7381 25.236-8.7001 35.21-18.034 62.851-8.9125 25.989 8.5759 46.931-26.732 69.992-33.173m-156.66 43.496c3.3488 0.30814 15.499-0.33764 23.661-1.7507 25.118-9.0256 35.118-18.968 62.652-9.7396 26.373 8.839 47.206-27.579 70.349-33.737m-156.66 44.9c3.5163 0.32354 15.713-0.3268 23.497-1.7634 25.003-9.3474 35.018-19.9 62.453-10.567 26.775 9.1087 47.511-28.483 70.706-34.278m-156.65 46.281c3.6837 0.33892 15.927-0.31597 23.332-1.7761 24.891-9.6655 34.906-20.817 62.254-11.394 27.02 9.3099 47.459-29.201 70.551-34.677 0.17416-0.03967 0.34788-0.079 0.5212-0.11783m-156.65 47.637c3.8511 0.35433 16.141-0.30513 23.168-1.7888 24.783-9.9799 34.622-21.245 62.055-12.221 30.079 9.8941 43.118-29.283 71.432-35.291m-156.65 48.973c4.0186 0.36976 16.354-0.2943 23.004-1.8015 24.679-10.29 34.423-21.941 61.856-13.048 30.242 9.8035 42.903-29.98 71.789-35.766m-156.64 50.288c4.186 0.38514 16.568-0.28346 22.84-1.8142 24.578-10.597 34.212-22.624 61.657-13.875 30.406 9.6923 42.656-30.657 72.143-36.22m-156.63 51.582c4.3535 0.40056 16.782-0.27265 22.676-1.8269 24.48-10.9 33.99-23.29 61.458-14.702 30.563 9.5554 42.397-31.317 72.505-36.655m-156.63 52.857c4.5209 0.41598 16.996-0.2618 22.512-1.8395 24.387-11.199 33.757-23.942 61.259-15.529 30.705 9.3922 42.131-31.956 72.856-37.069m-156.62 54.11c4.6884 0.43137 17.209-0.25094 22.348-1.8522 24.297-11.494 33.513-24.575 61.06-16.356 30.836 9.1995 41.873-32.578 73.219-37.466" fill="none" stroke="url(#linearGradient6948-4)" stroke-width=".058659px"/>
 <path d="m173.62 36.633c-2.2413 0.32445-4.6004 0.74993-7.1676 1.3141-26.356 5.7922-31.042 27.472-50.859 25.477-9.6295-0.96934-30.689-6.9054-40.154-5.1286-16.126 3.0272-23.073 13.369-39.591 14.885-19.383 1.7793-31.654-7.8883-50.871-5.0111-16.147 2.4176-25.151 20.843-32.682 30.057-0.57549 0.70416-1.1721 1.3595-1.7858 1.9779v6.7748c5.825-2.8718 10.765-5.77 13.557-7.5841 40.098-34.125 33.868-5.6582 64.686-7.6312 10.42-0.66709 36.764-20.591 47.232-22.768 21.622-4.4976 25.929 10.599 47.471 7.1084 17.807-2.8856 33.613-12.91 50.164-19.093z" fill="url(#linearGradient4479-5-6)"/>
 <path d="m173.62 51.132c-0.34399 0.05671-0.68655 0.10576-1.0326 0.17303-12.854 2.499-22.158 11.155-37.944 20.398-17.564 10.283-42.884-12.511-60.336-8.1381-17.731 4.4429-25.565 19.716-43.152 22.179-17.792 2.491-28.524-19.433-51.955-10.077-14.061 5.6141-18.638 19.739-25.428 26.702-1.0762 1.1035-2.1617 2.0947-3.2627 2.9936v7.9324c1.7938-0.74477 3.6196-1.6372 5.4859-2.7074 14.358-8.2332 20.158-26.143 37.482-27.248 9.4547-0.60296 20.402 11.082 34.905 12.877 19.4 2.4009 32.959-16.047 44.111-18.028 22.972-4.0797 31.09 12.751 48.164 14.649 22.317 2.4801 36.332-15.34 52.962-24.679z" fill="url(#linearGradient4687-8-7)"/>
 <path d="m173.63 54.546c-15.959 11.274-29.516 38.434-50.303 38.426 20.774 0.83438 34.346-15.86 50.303-24.805zm-91.732 13.289c-19.981 0.32871-31.104 27.484-51.532 28.555 18.341 0.96309 31.367-16.29 42.132-18.202 22.972-4.0797 31.09 12.751 48.164 14.649-16.007-1.7789-19.868-25.313-38.765-25.002zm-89.184 10.53c-17.041-0.20422-29.319 28.059-42.2 32.962v1.6876c1.7602-0.79129 3.5312-1.6663 5.2926-2.6335 14.358-8.2332 20.352-25.938 37.675-27.043 9.4547-0.60296 20.402 11.138 34.905 12.933-14.503-1.7949-20.006-17.718-35.673-17.906z" fill="#e9ebed" fill-opacity=".49133" opacity=".23994"/>
 <path d="m173.62 66.661c-15.443 9.3239-29.43 25.688-49.181 26.282-0.37032 0.01726-0.74211 0.02854-1.1171 0.02836 0.64918 0.02612 1.2913 0.03511 1.9267 0.02775 2.5412-0.02956 4.9748-0.32117 7.3191-0.82432 0.42041-0.09022 0.8345-0.19478 1.2493-0.29836 0.16352-0.04078 0.32991-0.07469 0.49261-0.11754 0-8.5e-5 0-1.63e-4 2e-3 -3.2e-4 0.27615-0.07275 0.54744-0.15758 0.8212-0.23601 0.2966-0.08496 0.59561-0.16424 0.88949-0.25565 0.56458-0.17564 1.124-0.36292 1.6789-0.56118 0-1.63e-4 0-4.83e-4 2e-3 -6.03e-4 0.55481-0.19824 1.1051-0.40734 1.6508-0.62666 0-1.57e-4 2e-3 -4.76e-4 2e-3 -6.03e-4 0.0634-0.02546 0.1253-0.05406 0.18861-0.07981 0.48195-0.19616 0.96192-0.3972 1.4373-0.60857 0.53721-0.23889 1.0701-0.487 1.5994-0.74388 0-3.2e-4 2e-3 -6.03e-4 2e-3 -0.0012 0.49971-0.24254 0.99584-0.49411 1.489-0.75136 0.0297-0.01556 0.0601-0.02968 0.0898-0.04519 0.52174-0.27327 1.0398-0.55423 1.5548-0.8424 0-4.77e-4 2e-3 -6.04e-4 2e-3 -0.0012 0.51502-0.2882 1.0269-0.58355 1.5358-0.88512 0-4.77e-4 2e-3 -6.04e-4 2e-3 -0.0012 0.50881-0.30155 1.0148-0.60915 1.518-0.92253 0-4.76e-4 2e-3 -0.0012 2e-3 -0.0018 0.50322-0.3134 1.0036-0.6322 1.5018-0.95589 0-4.77e-4 2e-3 -0.0012 2e-3 -0.0018 0.99713-0.64784 1.9849-1.3149 2.9656-1.9947 0-6.03e-4 2e-3 -0.0012 2e-3 -0.0018 0.45651-0.31647 0.90717-0.64317 1.3609-0.96462 0.52179-0.36969 1.0467-0.73478 1.5654-1.1093 1.9384-1.3994 3.8575-2.826 5.7768-4.2301 0-4.77e-4 2e-3 -6.04e-4 2e-3 -0.0012 0.0624-0.04567 0.1247-0.09004 0.18706-0.13562 0.89841-0.65655 1.7969-1.3091 2.6974-1.9501 0.96105-0.68413 1.9243-1.3567 2.8923-2.0112v-3.2e-4c0.78183-0.52868 1.5698-1.0355 2.3588-1.5376 0.18943-0.12052 0.37629-0.25037 0.56618-0.36914 0.49016-0.30652 0.98201-0.60667 1.4759-0.9004 0.28601-0.17008 0.57432-0.33283 0.86173-0.49821 0.20927-0.1204 0.41721-0.2448 0.62728-0.36258zm-93.402 9.9265v3.2e-4c-19.435-0.50427-27.766 20.331-49.857 19.801 18.341 0.96309 31.367-16.29 42.132-18.202 0.69799-0.12396 1.3811-0.22695 2.0524-0.31333 0.22181-0.02854 0.43512-0.04495 0.6541-0.06953 0.445-0.04995 0.89044-0.10031 1.3241-0.13437 0.25193-0.01979 0.49537-0.02818 0.74358-0.04272 0.38826-0.02286 0.77759-0.04724 1.157-0.05768 0.25833-0.0071 0.5095-0.0042 0.76384-6e-3 0.36059-0.0024 0.72188-0.0048 1.0747 3e-3 0.24564 0.0054 0.4857 0.02009 0.72767 0.03119 0.3544 0.01617 0.70794 0.03294 1.0547 0.05955 0.23014 0.01768 0.45621 0.04115 0.68309 0.06329 0.34538 0.03372 0.68919 0.06947 1.0273 0.11318 0.22115 0.02866 0.43908 0.06174 0.65721 0.09447 0.33903 0.0508 0.67594 0.10455 1.008 0.16492 0.20149 0.03668 0.40117 0.07592 0.60016 0.11598 0.34446 0.06925 0.68563 0.14273 1.0229 0.22167 0.18058 0.04235 0.36047 0.08568 0.53905 0.13064 0.3484 0.08762 0.69295 0.18023 1.0341 0.27748 0.15831 0.04513 0.31646 0.09034 0.47327 0.13749 0.36704 0.11022 0.72974 0.22622 1.089 0.34669 0.1236 0.04151 0.24767 0.08238 0.37038 0.12502 0.39229 0.13616 0.77972 0.27836 1.1635 0.42557 0.08528 0.0327 0.17138 0.06432 0.25628 0.09758 0.43708 0.17108 0.8689 0.34908 1.296 0.53282 0.02763 0.01189 0.05562 0.02329 0.08324 0.03523 1.822 0.78814 3.5543 1.6874 5.2471 2.6282 0.14948 0.08316 0.29886 0.16591 0.4477 0.24973 2.7788 1.5637 5.4556 3.227 8.1992 4.7299 0.0916 0.0502 0.18442 0.09793 0.27624 0.14778 3.2107 1.7417 6.53 3.2437 10.255 4.0555-13.793-3.1344-19.897-15.305-37.557-15.763zm-85.924 6.1543c-0.29858-6e-3 -0.59558 4.77e-4 -0.89104 0.01931-17.324 1.1048-24.474 19.551-38.808 27.826-1.3856 0.7998-2.7521 1.4873-4.0851 2.092v0.60484c0.55638-0.23207 1.1132-0.46596 1.6761-0.72736 0.45355-0.21204 0.91025-0.43091 1.374-0.665 0.1773-0.0893 0.35513-0.18079 0.53313-0.27312 0.62723-0.32587 1.2595-0.66394 1.9024-1.0326 14.358-8.2332 20.158-26.143 37.482-27.248 7.091-0.45223 15.022 6.0388 24.662 10.07 0.80339 0.33591 1.6185 0.6549 2.4462 0.95121 1.5176 0.54333 3.0825 0.99729 4.6865 1.3556-12.549-2.8694-22.418-12.81-30.978-12.973zm30.978 12.973c0.24403 0.05581 0.48814 0.11086 0.73422 0.16119-0.24651-0.04941-0.4898-0.10659-0.73422-0.16119zm0.73422 0.16119c0.32528 0.06519 0.65031 0.13077 0.97927 0.18644-0.32847-0.05641-0.65439-0.12-0.97927-0.18644zm0.97927 0.18644c0.04899 0.0084 0.0978 0.01707 0.14685 0.02528-0.04911-0.0081-0.09784-0.01695-0.14685-0.02528zm0.14685 0.02528c0.41405 0.0681 0.82993 0.13103 1.2499 0.183-0.41969-0.05195-0.83598-0.11401-1.2499-0.183zm90.642-3.7369c0.46078 0.1047 0.93089 0.19817 1.4111 0.27934 0.484 0.08 0.97349 0.15035 1.4722 0.20577-0.99189-0.11023-1.9471-0.28111-2.8832-0.48511z" fill="url(#linearGradient14655-6)"/>
 <path d="m173.62 35.745s-4.3536 0.77919-6.6728 1.4638c-27.613 8.1508-29.74 24.796-47.888 26.401-7.7911 0.68908-30.223-7.1977-42.701-5.4607-16.111 2.243-24.463 12.75-38.551 14.725-17.349 2.4327-35.269-8.6224-54.831-4.7328-15.253 3.0328-21.364 18.983-32.467 31.238v0.74c9.3587-9.3665 16.925-28.062 32.467-31.578 18.953-4.2878 39.309 8.5679 55.224 4.9009 17.157-3.9531 22.174-12.383 38.163-14.897 14.183-2.2297 33.568 7.2183 42.789 6.0901 16.912-2.0691 23.114-19.19 49.256-26.749 1.7581-0.50842 5.2128-0.81154 5.2128-0.81154z" fill="url(#linearGradient25349-8)"/>
</svg>
