<?xml version="1.0" encoding="UTF-8"?>
<!-- Created with Inkscape (http://www.inkscape.org/) -->
<svg width="720" height="1440" version="1.1" viewBox="0 0 190.5 381" xmlns="http://www.w3.org/2000/svg" xmlns:xlink="http://www.w3.org/1999/xlink">
 <defs>
  <linearGradient id="linearGradient25627">
   <stop stop-color="#bda62c" offset="0"/>
   <stop stop-color="#ae9a28" stop-opacity=".98824" offset=".14669"/>
   <stop stop-color="#8c7b20" stop-opacity=".96863" offset=".30531"/>
   <stop stop-color="#bda62c" stop-opacity=".95686" offset=".51079"/>
   <stop stop-color="#82721e" stop-opacity=".94902" offset=".6231"/>
   <stop stop-color="#c0ab2c" stop-opacity=".99608" offset=".83541"/>
   <stop stop-color="#7f6f1e" stop-opacity=".92157" offset="1"/>
  </linearGradient>
  <linearGradient id="linearGradient25349-7" x1="-19.327" x2="365.1" y1="174.88" y2="71.87" gradientTransform="matrix(1.6111 0 0 1.6111 -393.97 56.378)" gradientUnits="userSpaceOnUse" xlink:href="#linearGradient25627"/>
  <linearGradient id="linearGradient14655-2" x1="-46.183" x2="1721.9" y1="706.05" y2="445.69" gradientTransform="matrix(.42627 0 0 .42627 -393.97 56.378)" gradientUnits="userSpaceOnUse">
   <stop stop-color="#bda62c" offset="0"/>
   <stop stop-color="#615516" stop-opacity=".98824" offset=".098576"/>
   <stop stop-color="#cab12f" stop-opacity=".97647" offset=".25339"/>
   <stop stop-color="#8c7b20" stop-opacity=".96863" offset=".33815"/>
   <stop stop-color="#87771f" stop-opacity=".96471" offset=".42151"/>
   <stop stop-color="#bda62c" stop-opacity=".95686" offset=".53339"/>
   <stop stop-color="#82721e" stop-opacity=".94902" offset=".6231"/>
   <stop stop-color="#80711e" stop-opacity=".93725" offset=".73471"/>
   <stop stop-color="#d7be31" stop-opacity=".92941" offset=".83541"/>
   <stop stop-color="#bda62c" stop-opacity=".92175" offset="1"/>
  </linearGradient>
  <linearGradient id="linearGradient4687-8-2" x1="1155.1" x2="93.584" y1="262.51" y2="615.88" gradientTransform="matrix(.51938 .055134 -.055134 .51938 -359.2 30.623)" gradientUnits="userSpaceOnUse">
   <stop stop-color="#8b5cf6" offset="0"/>
   <stop stop-color="#6d28d9" offset=".21248"/>
   <stop stop-color="#6f5cf6" offset=".42964"/>
   <stop stop-color="#7c3aed" offset=".59961"/>
   <stop stop-color="#6376f6" offset=".80968"/>
   <stop stop-color="#6d28d9" offset="1"/>
  </linearGradient>
  <linearGradient id="linearGradient4479-5-6" x1="1143.2" x2="120.86" y1="196.75" y2="539.49" gradientTransform="matrix(.51938 .055134 -.055134 .51938 -359.2 30.623)" gradientUnits="userSpaceOnUse">
   <stop stop-color="#8b5cf6" offset="0"/>
   <stop stop-color="#5151dc" offset=".25152"/>
   <stop stop-color="#3b82f6" offset=".4454"/>
   <stop stop-color="#8b69f6" offset=".63944"/>
   <stop stop-color="#60a5fa" offset=".83593"/>
   <stop stop-color="#60a5fa" offset="1"/>
  </linearGradient>
  <linearGradient id="linearGradient6948-6" x1="466.89" x2="1404.4" y1="475.5" y2="195.51" gradientTransform="matrix(.5223 0 0 .5223 -404.23 11.559)" gradientUnits="userSpaceOnUse">
   <stop stop-color="#3e2fdd" offset="0"/>
   <stop stop-color="#a4007e" offset="1"/>
  </linearGradient>
  <linearGradient id="linearGradient12309-5-2" x1="1181.7" x2="861.39" y1="252.37" y2="436.6" gradientTransform="matrix(.5223 0 0 .5223 -404.23 13.23)" gradientUnits="userSpaceOnUse">
   <stop stop-color="#7e5af0" offset="0"/>
   <stop stop-color="#7c61ee" offset=".49538"/>
   <stop stop-color="#4c6fe2" offset="1"/>
  </linearGradient>
  <linearGradient id="linearGradient4551-1-7" x1="1112.8" x2="89.147" y1="69.067" y2="487.89" gradientTransform="matrix(.51938 .055134 -.055134 .51938 -359.2 30.623)" gradientUnits="userSpaceOnUse">
   <stop stop-color="#60a5fa" offset="0"/>
   <stop stop-color="#365fd8" offset=".23216"/>
   <stop stop-color="#3b82f6" offset=".43871"/>
   <stop stop-color="#4d4eeb" offset=".65563"/>
   <stop stop-color="#60a5fa" offset="1"/>
  </linearGradient>
  <linearGradient id="linearGradient24274-0" x1="132.11" x2="1068.3" y1="575.51" y2="320.25" gradientTransform="matrix(.51938 .055134 -.055134 .51938 -359.2 30.623)" gradientUnits="userSpaceOnUse">
   <stop stop-color="#1c52f2" offset="0"/>
   <stop stop-color="#d62bc3" stop-opacity=".42363" offset="1"/>
  </linearGradient>
  <linearGradient id="linearGradient118139" x1="100.6" x2="345.1" y1="115.79" y2="-9.8374" gradientTransform="matrix(1.4213 0 0 1.4213 -314.09 83.633)" gradientUnits="userSpaceOnUse">
   <stop stop-color="#8b5cf6" offset="0"/>
   <stop stop-color="#5151dc" offset=".25152"/>
   <stop stop-color="#3b82f6" offset=".4454"/>
   <stop stop-color="#8b5cf6" offset=".63944"/>
   <stop stop-color="#60a5fa" offset=".83593"/>
   <stop stop-color="#60a5fa" offset="1"/>
  </linearGradient>
  <linearGradient id="linearGradient161031" x1="-12.42" x2="373.66" y1="169.75" y2="-5.834" gradientTransform="matrix(1.4213 0 0 1.4213 -314.09 74.621)" gradientUnits="userSpaceOnUse" xlink:href="#linearGradient25627"/>
 </defs>
 <rect width="190.5" height="381" fill="#2a2e32" stop-color="#000000" style="-inkscape-stroke:none;font-variation-settings:normal;paint-order:stroke fill markers"/>
 <path d="m206.23 59.416c-77.167 9.7038-71.631 109.8-142.6 121.24-47.179 2.6496-62.155-12.075-98.053-3.0369-42.76 10.766-68.276 49.693-104.81 53.208-39.135 3.7647-83.644-15.904-126.09 4.3023-26.353 12.546-38.642 44.607-54.06 67.532v29.319c34.581-19.826 64.597-50.151 89.552-58.056 25.435-8.057 51.555-3.3277 78.165-2.6846 23.436 0.56644 47.789-15.688 71.96-17.293 48.323-3.2085 100.55 9.1898 147.91 1.4543 45.965-7.5079 78.559-44.694 121.88-55.67 5.255-1.3314 10.655-2.1034 16.151-2.5068z" fill="url(#linearGradient161031)"/>
 <path d="m-173.77 266.69s40.07-6.526 60.135-9.5944c28.786-4.402 57.921-6.7658 86.442-12.647 28.508-5.8788 57.304-11.823 84.354-22.572 34.967-13.895 64.835-38.595 99.33-53.623 16.035-6.9858 49.696-16.84 49.696-16.84m-380.81 114.5s40.417-6.4437 60.613-9.7396c28.781-4.6969 57.789-8.2164 86.31-14.301 28.566-6.0948 57.686-11.26 84.766-22.206 34.744-14.044 63.958-39.428 98.006-55.084 16.494-7.5849 51.162-18.675 51.162-18.675m-381.71 119.23s40.765-6.3581 61.09-9.8829c28.784-4.9919 57.649-9.6619 86.178-15.953 28.624-6.312 58.07-10.694 85.178-21.844 34.52-14.2 63.052-40.289 96.647-56.556 16.941-8.2035 52.598-20.549 52.598-20.549m-382.55 124.01s41.116-6.2695 61.566-10.024c28.795-5.2872 57.502-11.102 86.048-17.602 28.681-6.5303 58.459-10.12 85.589-21.487 34.332-14.384 62.17-41.253 95.344-58.135 17.421-8.8656 54.15-22.508 54.15-22.508m-383.55 128.98s41.467-6.1781 62.04-10.164c28.814-5.583 57.347-12.538 85.919-19.248 28.738-6.7493 58.85-9.5487 86.001-21.134 34.105-14.551 61.202-42.157 93.914-59.616 17.838-9.5201 55.514-24.449 55.514-24.449m-384.24 133.83s41.82-6.0841 62.513-10.303c28.84-5.8794 57.185-13.969 85.792-20.893 28.794-6.969 59.244-8.9709 86.413-20.784 33.912-14.745 60.252-43.154 92.533-61.191 18.282-10.215 56.982-26.466 56.982-26.466m-385.09 138.86s42.174-5.9878 62.985-10.44c28.873-6.1765 57.015-15.396 85.666-22.535 28.85-7.189 59.643-8.3897 86.825-20.438 33.73-14.951 59.288-44.189 91.147-62.796 18.723-10.935 58.46-28.524 58.46-28.524m-385.94 143.95s42.53-5.8894 63.456-10.575c28.914-6.4745 56.838-16.818 85.541-24.175 28.906-7.4092 60.044-7.8056 87.236-20.096 33.56-15.168 58.309-45.26 89.756-64.427 19.159-11.678 59.947-30.616 59.947-30.616m-386.79 149.11s42.887-5.7892 63.925-10.709c28.963-6.7734 56.654-18.237 85.417-25.814 28.961-7.6295 60.449-7.219 87.648-19.756 33.4-15.395 57.313-46.359 88.359-66.076 19.588-12.441 61.436-32.736 61.436-32.736m-387.64 154.31s43.246-5.6874 64.393-10.842c29.018-7.0735 56.463-19.653 85.294-27.452 29.016-7.8496 60.857-6.6302 88.06-19.418 33.253-15.631 56.305-47.484 86.96-67.742 20.01-13.223 62.933-34.879 62.933-34.879m-388.49 159.55s43.605-5.5843 64.86-10.974c29.08-7.3748 56.265-21.065 85.172-29.089 29.07-8.0694 61.252-6.0746 88.472-19.082 32.692-15.622 54.731-47.738 84.583-68.272 19.936-13.714 62.779-36.447 62.779-36.447l2.6394-1.7734m-389.36 164.86s43.966-5.4797 65.325-11.105c29.15-7.6771 56.06-22.473 85.052-30.724 29.124-8.2886 61.683-5.447 88.884-18.749 32.994-16.135 54.241-49.811 84.148-71.13 20.829-14.848 65.944-39.244 65.944-39.244m-390.21 170.17s44.328-5.3745 65.789-11.235c29.226-7.9814 55.847-23.88 84.932-32.361 29.177-8.5072 62.099-4.8539 89.297-18.416 32.881-16.395 53.191-50.991 82.744-72.822 21.223-15.677 67.451-41.425 67.451-41.425m-391.07 175.48s44.691-5.2689 66.252-11.366c29.309-8.2874 55.627-25.286 84.813-33.998 29.231-8.725 62.517-4.2606 89.712-18.082 32.777-16.658 52.129-52.17 81.34-74.498 21.603-16.512 68.95-43.589 68.95-43.589m-391.92 180.75s45.054-5.1629 66.713-11.496c29.398-8.5955 55.4-26.692 84.693-35.636 29.285-8.9418 62.937-3.6674 90.128-17.746 32.682-16.922 51.059-53.345 79.941-76.154 21.97-17.351 70.446-45.729 70.446-45.729m-392.78 185.98s45.419-5.0569 67.172-11.626c29.493-8.9056 55.165-28.097 84.574-37.276 29.339-9.1574 63.358-3.0744 90.545-17.41 32.595-17.187 49.981-54.511 78.549-77.787 22.325-18.19 71.937-47.839 71.937-47.839m-393.63 191.16s45.783-4.951 67.629-11.756c29.594-9.2181 54.923-29.501 84.454-38.918 29.393-9.3719 63.781-2.482 90.964-17.071 32.516-17.451 48.897-55.662 77.161-79.389 22.665-19.026 73.417-49.911 73.417-49.911m-394.48 196.26s46.149-4.8454 68.085-11.886c29.702-9.5328 54.672-30.907 84.335-40.562 29.448-9.5851 64.205-1.8903 91.386-16.73 32.445-17.713 47.81-56.798 75.785-80.96 22.992-19.858 74.894-51.941 74.894-51.941m-395.34 201.3s46.515-4.7403 68.539-12.016c29.815-9.85 54.414-32.313 84.214-42.208 29.503-9.797 64.629-1.2993 91.81-16.386 32.379-17.972 46.718-57.91 74.416-82.49 23.305-20.682 76.358-53.922 76.358-53.922m-396.19 206.24s46.881-4.636 68.991-12.147c29.934-10.17 54.148-33.719 84.093-43.857 29.559-10.007 65.054-0.70923 92.236-16.039 32.319-18.227 45.626-58.998 73.058-83.981 23.605-21.497 77.813-55.851 77.813-55.851m-397.05 211.1s47.248-4.5324 69.441-12.279c30.058-10.492 53.875-35.127 83.971-45.509 29.615-10.216 65.48-0.11996 92.666-15.689 32.263-18.476 44.533-60.058 71.711-85.426 23.892-22.301 79.256-57.723 79.256-57.723m-397.9 215.85s47.615-4.4298 69.889-12.411c30.188-10.817 53.593-36.536 83.848-47.164 29.673-10.424 65.906 0.46836 93.098-15.335 32.21-18.719 43.44-61.087 70.376-86.825 24.166-23.092 80.688-59.535 80.688-59.535m-398.75 220.49s47.982-4.3283 70.335-12.544c30.323-11.145 53.304-37.947 83.725-48.823 29.732-10.629 66.332 1.056 93.533-14.977 32.161-18.956 42.351-62.085 69.052-88.175 24.428-23.868 82.108-61.285 82.108-61.285m-399.61 225.02s48.349-4.2281 70.778-12.677c30.464-11.475 53.006-39.359 83.6-50.484 29.792-10.834 66.758 1.6431 93.971-14.615 32.114-19.186 41.264-63.049 67.742-89.474 24.678-24.629 83.515-62.97 83.515-62.97m-400.46 229.44s48.716-4.1292 71.22-12.811c30.609-11.809 52.701-40.773 83.474-52.149 29.853-11.036 67.184 2.2296 94.413-14.249 32.068-19.408 40.181-63.977 66.444-90.722 24.916-25.373 84.909-64.589 84.909-64.589m-401.31 233.74s49.082-4.0317 71.66-12.946c30.76-12.145 52.388-42.189 83.346-53.818 29.915-11.237 67.61 2.8158 94.858-13.879 32.024-19.621 39.104-64.871 65.161-91.919 25.144-26.1 86.29-66.142 86.29-66.142m-402.17 237.92s49.449-3.9357 72.097-13.081c30.915-12.484 52.067-43.607 83.218-55.49 29.979-11.436 68.036 3.4019 95.306-13.505 31.98-19.826 38.031-65.727 63.889-93.062 25.361-26.809 87.656-67.628 87.656-67.628m-403.02 241.99s49.816-3.8414 72.532-13.218c31.075-12.826 51.738-45.027 83.088-57.165 30.044-11.633 68.462 3.988 95.759-13.126 31.937-20.023 36.966-66.549 62.633-94.155 25.57-27.501 89.013-69.047 89.013-69.047m-403.88 245.93s50.182-3.7488 72.965-13.355c31.24-13.171 51.402-46.448 82.957-58.845 30.111-11.829 68.888 4.5745 96.214-12.743 31.893-20.212 35.906-67.334 61.389-95.196 25.768-28.174 90.354-70.401 90.354-70.401" fill="none" stroke="url(#linearGradient118139)" stroke-width=".13819px"/>
 <path d="m-316.9 347.69c28.393-7.3387 58.818-50.564 89.94-55.214 36.721-5.4865 66.622 25.97 104.68 26.696 63.039 1.2031 93.237-63.163 170.31-18.815 33.56 19.311 90.705 2.33 121.94-35.373m-487.17 82.05c28.098-7.5339 58.199-51.44 89.634-55.946 36.585-5.3279 67.049 25.821 105.49 26.192 62.194 0.9809 92.719-62.126 168.72-18.989 33.812 18.726 89.83 2.1303 121.49-34.515m-485.64 82.602c27.804-7.729 57.579-52.315 89.328-56.677 36.449-5.1694 67.476 25.672 106.3 25.687 61.35 0.75874 92.201-61.09 167.13-19.163 34.063 18.141 88.956 1.9306 121.04-33.657m-484.1 83.154c27.51-7.9242 56.96-53.19 89.022-57.409 36.312-5.0108 67.903 25.523 107.11 25.182 60.505 0.53651 91.684-60.053 165.54-19.337 34.314 17.555 88.081 1.7308 120.59-32.799m-482.56 83.706c27.215-8.1194 56.341-54.066 88.716-58.14 36.176-4.8522 68.33 25.374 107.92 24.678 59.66 0.31427 91.166-59.017 163.95-19.511 34.566 16.97 87.206 1.531 120.14-31.941m-481.03 84.258c26.921-8.3145 55.722-54.941 88.41-58.872 36.04-4.6937 68.757 25.225 108.73 24.173 58.816 0.092 90.648-57.98 162.36-19.685 34.817 16.385 86.331 1.3313 119.69-31.083m-479.49 84.81c26.626-8.5096 55.102-55.817 88.104-59.603 35.904-4.5352 69.184 25.076 109.54 23.668 57.971-0.13005 90.13-56.944 160.77-19.859 35.069 15.799 85.456 1.1316 119.23-30.225m-477.96 85.362c26.332-8.7048 54.483-56.692 87.798-60.335 35.767-4.3766 69.61 24.927 110.35 23.164 57.127-0.35224 89.613-55.907 159.18-20.033 35.32 15.214 84.581 0.93176 118.78-29.367m-476.42 85.914c26.037-8.9 53.864-57.567 87.492-61.066 35.631-4.218 70.037 24.778 111.16 22.659 56.282-0.57448 89.095-54.871 157.59-20.207 35.571 14.629 83.706 0.732 118.33-28.509m-474.61 86.366c25.663-9.3516 53.088-58.354 86.906-61.697 35.495-4.0595 70.464 24.629 111.97 22.155 55.437-0.79672 88.577-53.834 156-20.381 35.823 14.043 82.831 0.53229 117.88-27.651m-472.76 86.797c25.28-9.8352 52.301-59.121 86.292-62.308 35.358-3.901 70.891 24.48 112.78 21.65 54.593-1.0188 88.06-52.798 154.41-20.555 36.074 13.458 81.957 0.33252 117.43-26.793m-470.92 87.216c24.897-10.326 51.521-59.875 85.679-62.906 35.222-3.7424 71.318 24.331 113.6 21.145 53.748-1.241 87.542-51.761 152.82-20.729 36.326 12.873 81.082 0.13289 116.98-25.935m-469.08 87.623c24.514-10.824 50.746-60.616 85.065-63.492 35.086-3.5838 71.745 24.182 114.41 20.641 52.903-1.4633 87.024-50.725 151.23-20.903 36.577 12.287 80.207-0.0672 116.53-25.077m-467.23 88.016c24.131-11.327 49.978-61.343 84.452-64.065 34.95-3.4253 72.172 24.033 115.22 20.136 52.059-1.6854 86.506-49.688 149.64-21.077 36.828 11.702 79.332-0.26676 116.08-24.219m-465.39 88.396c23.749-11.837 49.216-62.055 83.839-64.624 34.813-3.2668 72.598 23.884 116.03 19.631 51.214-1.9076 85.989-48.652 148.05-21.251 37.08 11.117 78.457-0.46642 115.63-23.361m-463.55 88.761c23.367-12.353 48.46-62.751 83.225-65.169 34.677-3.1082 73.025 23.736 116.84 19.127 50.369-2.1298 85.471-47.615 146.46-21.425 37.331 10.531 77.582-0.6663 115.18-22.503m-461.7 89.111c22.986-12.875 47.712-63.43 82.612-65.698 34.541-2.9496 73.452 23.587 117.65 18.622 49.525-2.352 84.953-46.579 144.87-21.599 37.583 9.9459 76.707-0.86604 114.73-21.645m-459.86 89.444c22.605-13.403 46.971-64.092 81.999-66.21 34.405-2.7911 73.879 23.438 118.46 18.117 48.68-2.5742 84.436-45.542 143.28-21.773 37.834 9.3605 75.833-1.0658 114.28-20.787m-458.02 89.759c22.225-13.935 46.236-64.735 81.385-66.705 34.268-2.6326 74.306 23.289 119.27 17.613 47.835-2.7964 83.918-44.506 141.69-21.947 38.086 8.7752 74.958-1.2655 113.83-19.929m-456.17 90.056c21.846-14.473 45.51-65.359 80.772-67.182 34.132-2.4741 74.733 23.14 120.08 17.108 46.991-3.0186 83.4-43.469 140.1-22.12 38.337 8.1898 74.083-1.4653 113.38-19.071m-454.33 90.334c21.468-15.015 44.791-65.963 80.158-67.639 33.996-2.3154 75.16 22.991 120.89 16.604 46.146-3.2409 82.883-42.433 138.51-22.295 38.588 7.6045 73.208-1.6651 112.93-18.213m-452.49 90.592c21.09-15.561 44.081-66.544 79.545-68.076 33.86-2.1569 75.587 22.842 121.7 16.099 45.302-3.463 82.365-41.397 136.92-22.468 38.84 7.0192 72.333-1.8648 112.48-17.355m-450.65 90.828c20.715-16.11 43.379-67.103 78.932-68.492 33.723-1.9984 76.013 22.693 122.51 15.594 44.457-3.6852 81.847-40.36 135.33-22.642 39.091 6.4338 71.458-2.0646 112.03-16.497m-448.8 91.041c20.34-16.663 42.685-67.638 78.318-68.884 33.587-1.8398 76.44 22.544 123.32 15.09 43.612-3.9074 81.329-39.324 133.74-22.816 39.343 5.8486 70.583-2.2643 111.58-15.639m-446.96 91.23c19.968-17.218 42.001-68.147 77.704-69.252 33.451-1.6812 76.867 22.395 124.13 14.585 42.768-4.1296 80.812-38.287 132.15-22.99 39.594 5.2632 69.708-2.4641 111.13-14.781m-445.12 91.394c19.597-17.774 41.327-68.629 77.091-69.596 33.315-1.5227 77.294 22.246 124.94 14.08 41.923-4.3518 80.294-37.251 130.56-23.164 39.845 4.6778 68.834-2.6639 110.68-13.923m-443.27 91.532c19.228-18.33 40.662-69.084 76.478-69.913 33.178-1.3642 77.721 22.097 125.75 13.576 41.078-4.5739 79.776-36.214 128.97-23.338 40.097 4.0925 67.959-2.8636 110.23-13.065m-441.43 91.639c18.861-18.888 40.007-69.507 75.864-70.2 33.042-1.2056 78.148 21.948 126.56 13.071 40.234-4.7962 79.259-35.178 127.38-23.512 40.348 3.5072 67.084-3.0633 109.78-12.207m-439.59 91.719c18.498-19.444 39.362-69.9 75.251-70.459 32.906-1.0471 78.575 21.799 127.37 12.567 39.389-5.0184 78.741-34.141 125.79-23.686 40.6 2.9219 66.209-3.2631 109.33-11.349m-437.74 91.766c18.136-19.998 38.729-70.26 74.638-70.686 32.769-0.88853 79.001 21.65 128.18 12.062 38.545-5.2405 78.223-33.105 124.2-23.86 40.851 2.3365 65.334-3.4629 108.88-10.491m-435.9 91.781c17.778-20.549 38.107-70.584 74.024-70.88 32.633-0.72997 79.428 21.501 128.99 11.557 37.7-5.4627 77.705-32.068 122.61-24.034 41.102 1.7512 64.459-3.6625 108.42-9.6329m-434.06 91.76c17.424-21.096 37.496-70.872 73.411-71.039 32.497-0.57138 79.855 21.352 129.8 11.053 36.855-5.6849 77.188-31.032 121.03-24.208 41.354 1.1658 63.584-3.8624 107.97-8.7749m-432.21 91.703c17.073-21.638 36.898-71.121 72.797-71.161 32.361-0.41284 80.282 21.203 130.61 10.548 36.011-5.9071 76.67-29.995 119.44-24.382 41.605 0.58052 62.71-4.0621 107.52-7.9169m-430.37 91.608c16.726-22.174 36.312-71.33 72.184-71.245 32.224-0.25432 80.709 21.054 131.42 10.043 35.166-6.1293 76.152-28.959 117.85-24.556 41.857-1e-3 61.835-4.2618 107.07-7.0589m-428.53 91.473c16.383-22.701 35.739-71.497 71.571-71.289 32.088-0.0955 81.136 20.905 132.24 9.5387 34.321-6.3515 75.635-27.922 116.26-24.73 42.108-0.59016 60.96-4.4616 106.62-6.2009m-426.69 91.295c16.045-23.218 35.179-71.619 70.958-71.291 31.952 0.0628 81.563 20.756 133.05 9.0341 33.477-6.5737 75.117-26.886 114.67-24.904 42.36-1.1755 60.085-4.6614 106.17-5.343m-424.84 91.072c15.712-23.725 34.633-71.693 70.344-71.247 31.816 0.2214 81.989 20.607 133.86 8.5294 32.632-6.7959 74.599-25.849 113.08-25.078 42.611-1.7609 59.21-4.8612 105.72-4.485m-423 90.807c15.386-24.217 34.102-71.724 69.733-71.162 31.679 0.37992 82.416 20.458 134.67 8.0248 31.787-7.0181 74.081-24.813 111.49-25.252 42.862-2.3462 58.335-5.0609 105.27-3.627m-421.16 90.492c15.064-24.696 33.584-71.701 69.12-71.026 31.543 0.53846 82.843 20.31 135.48 7.5202 30.943-7.2403 73.564-23.776 109.9-25.426 43.114-2.9315 57.46-5.2606 104.82-2.7689m-419.31 90.121c14.749-25.159 33.081-71.621 68.505-70.834 31.407 0.69703 83.27 20.16 136.29 7.0155 30.098-7.4624 73.046-22.74 108.31-25.6 43.365-3.5169 56.585-5.4604 104.37-1.911" fill="none" stop-color="#000000" stroke="url(#linearGradient24274-0)" stroke-width=".41457" style="font-variation-settings:normal"/>
 <path d="m206.23 61.953c-77.167 9.7038-71.631 108.12-142.6 119.57-47.179 2.6495-62.155-10.35-98.053-1.3118-42.76 10.766-68.276 47.968-104.81 51.483-39.135 3.7647-83.644-15.157-126.09 5.0489-26.353 12.546-38.642 44.497-54.06 67.423v31.23c34.581-19.826 64.597-50.151 89.552-58.056 25.435-8.0569 51.555-3.3277 78.165-2.6846 23.436 0.56644 47.789-15.688 71.96-17.293 48.323-3.2085 100.55 9.1898 147.91 1.4543 45.965-7.5079 78.559-44.694 121.88-55.67 5.255-1.3314 10.655-2.1034 16.151-2.5068z" fill="url(#linearGradient4551-1-7)"/>
 <path d="m206.23 129.38c-48.045 6.3846-72.289 25.826-101.99 66.52-35.248 48.301-100.9 29.464-100.9 29.464l77.481 27.334 125.41-22.83z" fill="url(#linearGradient12309-5-2)"/>
 <path d="m-162.62 252.92c11.44 1.0525 41.046-0.56575 52.262-4.3936 57.037-27.765 78.354-59.35 143.38-40.482 72.911 21.157 98.035-78.156 173.32-89.151m-369.37 156.38s26.442-1.3059 63.472-3.5268c65.397-4.6075 85.457-3.39 156.98 16.025 49.17 13.348 101.79-50.726 148.94-59.203m-369.37 45.933c0.39449 0.0362 26.945-1.2804 63.086-3.5567 65.08-5.4851 85.39-5.3341 156.51 14.077 49.654 13.552 102.21-50.629 149.78-59.628m-369.36 48.337c0.78896 0.0731 27.449-1.2549 62.699-3.5865 64.761-6.3605 85.316-7.2872 156.04 12.128 50.145 13.766 102.62-50.573 150.62-60.115m-369.34 50.802c1.1834 0.10873 27.952-1.2293 62.313-3.6164 64.387-7.2348 85.32-9.226 155.57 10.18 50.644 13.99 103.04-50.562 151.45-60.664m-369.32 53.33c1.5778 0.14516 28.456-1.2038 61.926-3.6463 64.084-8.1093 85.222-11.201 155.1 8.2313 51.159 14.226 103.47-50.605 152.29-61.283m-369.31 55.927c1.9724 0.18156 28.96-1.1783 61.54-3.6762 63.795-8.9821 85.103-13.19 154.63 6.2828 51.689 14.476 103.91-50.705 153.15-61.973m-369.31 58.595c2.3668 0.21771 29.463-1.1528 61.153-3.7061 63.477-9.8321 84.951-15.197 154.16 4.3343 52.232 14.739 104.36-50.869 154-62.733m-369.3 61.334c2.7612 0.25409 29.967-1.1272 60.766-3.7359 63.154-10.69 84.841-17.201 153.7 2.3858 52.787 15.017 104.8-51.101 154.84-63.563m-369.28 64.143c3.1558 0.29037 30.471-1.1017 60.38-3.7658 62.832-11.544 84.72-19.202 153.23 0.43717 53.392 15.306 105.21-51.402 155.66-64.463m-369.26 67.021c3.5502 0.32662 30.974-1.0762 59.993-3.7957 62.511-12.391 84.593-21.221 152.76-1.5113 54.125 15.65 105.51-51.762 156.48-65.434m-369.22 69.97c3.9447 0.36297 31.478-1.0506 59.607-3.8256 62.19-13.234 84.461-23.26 152.29-3.4598 54.786 15.993 105.93-52.247 157.33-66.483m-369.21 72.998c4.3392 0.39924 31.981-1.0252 59.22-3.8555 61.872-14.07 84.32-25.314 151.82-5.4084 55.475 16.36 106.35-52.839 158.17-67.6m-369.2 76.093c4.7336 0.43552 32.485-0.99961 58.834-3.8854 61.555-14.899 84.172-27.384 151.35-7.3569 56.195 16.753 106.77-53.551 159.01-68.782m-369.18 79.253c5.128 0.47181 32.989-0.97408 58.447-3.9153 61.241-15.722 84.017-29.472 150.88-9.3054 56.947 17.175 107.19-54.396 159.85-70.024m-369.16 82.473c5.5225 0.50811 33.492-0.94859 58.06-3.9452 60.931-16.537 83.854-31.578 150.41-11.254 57.73 17.628 107.63-55.39 160.69-71.317m-369.15 85.745c5.917 0.54442 33.996-0.92303 57.674-3.975 60.625-17.345 83.683-33.703 149.94-13.202 58.542 18.112 108.1-56.545 161.53-72.653m-369.13 89.059c6.3115 0.58071 34.499-0.89753 57.287-4.0049 60.323-18.145 83.505-35.848 149.48-15.151 59.38 18.629 108.61-57.877 162.37-74.019m-369.12 92.404c6.7059 0.61701 35.003-0.87205 56.901-4.0349 60.027-18.937 83.346-38.099 149.01-17.099 59.529 19.039 109.43-59.463 163.2-75.4m-369.1 95.764c7.1004 0.65332 35.507-0.84649 56.514-4.0647 59.736-19.721 83.154-40.286 148.54-19.048 60.363 19.607 109.98-61.137 164.05-76.785m-369.09 99.127c7.4949 0.68957 36.01-0.82094 56.128-4.0946 59.452-20.496 82.95-42.485 148.07-20.997 61.227 20.204 110.56-62.976 164.89-78.15m-369.07 102.47c7.8894 0.72594 36.514-0.79543 55.741-4.1245 59.174-21.263 82.732-44.686 147.6-22.945 62.13 20.823 111.21-64.972 165.73-79.479m-369.06 105.78c8.2838 0.76221 37.018-0.76988 55.354-4.1544 58.903-22.021 82.497-46.882 147.13-24.894 63.078 21.459 111.93-67.102 166.57-80.755m-369.04 109.03c8.6783 0.79844 37.521-0.74437 54.968-4.1843 58.641-22.771 82.234-49.041 146.66-26.842 63.656 21.933 111.81-68.793 166.21-81.693 0.41031-0.0934 0.81957-0.18612 1.2279-0.2776m-369.05 112.23c9.0727 0.83476 38.025-0.71884 54.581-4.2142 58.386-23.511 81.565-50.049 146.19-28.791 70.862 23.309 101.58-68.987 168.28-83.14m-369.04 115.37c9.4672 0.8711 38.528-0.69332 54.195-4.2441 58.139-24.243 81.095-51.69 145.72-30.739 71.246 23.096 101.07-70.63 169.12-84.259m-369.03 118.47c9.8616 0.90734 39.032-0.66779 53.808-4.2739 57.901-24.965 80.599-53.298 145.26-32.688 71.632 22.834 100.49-72.223 169.96-85.329m-369.01 121.52c10.256 0.94365 39.536-0.64232 53.422-4.3038 57.672-25.679 80.076-54.868 144.79-34.636 72.003 22.511 99.882-73.778 170.81-86.354m-369 124.52c10.651 0.97998 40.039-0.61675 53.035-4.3337 57.451-26.383 79.527-56.403 144.32-36.585 72.337 22.127 99.255-75.283 171.64-87.328m-368.98 127.48c11.045 1.0162 40.543-0.59118 52.648-4.3636 57.24-27.079 78.952-57.894 143.85-38.533 72.644 21.673 98.647-76.75 172.49-88.264" fill="none" stroke="url(#linearGradient6948-6)" stroke-width=".13819px"/>
 <path d="m206.23 169.65c-5.2801 0.76437-10.838 1.7667-16.886 3.0959-62.091 13.646-73.131 64.72-119.82 60.02-22.686-2.2836-72.299-16.268-94.597-12.082-37.99 7.1316-54.356 31.496-93.27 35.068-45.664 4.1917-74.572-18.584-119.85-11.805-38.041 5.6954-59.253 49.102-76.994 70.809-1.3558 1.6589-2.7614 3.2029-4.2071 4.6596v15.96c13.723-6.7655 25.36-13.593 31.939-17.867 94.466-80.394 79.788-13.33 152.39-17.978 24.548-1.5716 86.61-48.509 111.27-53.639 50.937-10.596 61.084 24.97 111.83 16.746 41.952-6.798 79.188-30.414 118.18-44.98z" fill="url(#linearGradient4479-5-6)"/>
 <path d="m206.23 203.81c-0.8104 0.1336-1.6174 0.24915-2.4326 0.40765-30.282 5.8873-52.201 26.28-89.391 48.054-41.379 24.226-101.03-29.475-142.14-19.172-41.772 10.467-60.226 46.449-101.66 52.25-41.916 5.8683-67.198-45.781-122.4-23.741-33.125 13.226-43.907 46.502-59.905 62.907-2.5354 2.5998-5.0927 4.9348-7.6864 7.0525v18.688c4.226-1.7546 8.5272-3.8571 12.924-6.3783 33.826-19.396 47.489-61.589 88.301-64.192 22.274-1.4205 48.065 26.108 82.232 30.336 45.702 5.6562 77.647-37.805 103.92-42.471 54.119-9.6112 73.244 30.04 113.47 34.51 52.575 5.8427 85.594-36.14 124.77-58.14z" fill="url(#linearGradient4687-8-2)"/>
 <path d="m206.24 211.85c-37.596 26.56-69.535 90.545-118.51 90.525 48.94 1.9657 80.914-37.364 118.51-58.437zm-216.11 31.306c-47.073 0.77441-73.276 64.747-121.4 67.272 43.209 2.2689 73.896-38.377 99.258-42.881 54.119-9.6112 73.244 30.04 113.47 34.51-37.71-4.1908-46.807-59.633-91.325-58.901zm-210.1 24.808c-40.145-0.48111-69.071 66.104-99.416 77.654v3.9758c4.1467-1.8642 8.3191-3.9256 12.469-6.2042 33.826-19.396 47.945-61.106 88.757-63.709 22.274-1.4205 48.065 26.239 82.232 30.467-34.167-4.2285-47.131-41.742-84.041-42.184z" fill="#e9ebed" fill-opacity=".49133" opacity=".23994"/>
 <path d="m206.23 240.39c-36.381 21.966-69.334 60.516-115.86 61.916-0.87242 0.0406-1.7483 0.0672-2.6316 0.0668 1.5294 0.0615 3.0422 0.0827 4.5391 0.0654 5.9868-0.0696 11.72-0.75662 17.243-1.942 0.99042-0.21256 1.966-0.45887 2.9431-0.7029 0.38524-0.0961 0.77724-0.17595 1.1605-0.2769 0-2e-4 0-3.8e-4 4e-3 -7.5e-4 0.65058-0.17138 1.2897-0.37125 1.9346-0.55601 0.69875-0.20016 1.4032-0.38692 2.0955-0.60228 1.3301-0.41379 2.6479-0.85498 3.9552-1.3221 0-3.9e-4 0-1e-3 4e-3 -1e-3 1.3071-0.46703 2.6034-0.95963 3.8891-1.4763 0-3.7e-4 4e-3 -1e-3 4e-3 -1e-3 0.14936-0.06 0.29519-0.12735 0.44434-0.18802 1.1354-0.46212 2.2662-0.93576 3.386-1.4337 1.2656-0.56278 2.521-1.1473 3.7679-1.7525 0-7.5e-4 4e-3 -1e-3 4e-3 -3e-3 1.1772-0.57139 2.3461-1.1641 3.5079-1.7701 0.0701-0.0367 0.14157-0.0699 0.21154-0.10646 1.2291-0.64378 2.4496-1.3057 3.6629-1.9846 0-1e-3 4e-3 -1e-3 6e-3 -3e-3 1.2133-0.67895 2.4193-1.3748 3.6181-2.0852 0-1e-3 4e-3 -1e-3 6e-3 -3e-3 1.1987-0.71042 2.3907-1.4351 3.5762-2.1734 0-1e-3 4e-3 -3e-3 6e-3 -4e-3 1.1855-0.73834 2.3642-1.4894 3.538-2.2519 0-1e-3 4e-3 -3e-3 6e-3 -4e-3 2.3491-1.5262 4.6761-3.0977 6.9864-4.6992 0-1e-3 4e-3 -3e-3 6e-3 -4e-3 1.0755-0.74556 2.1372-1.5152 3.206-2.2725 1.2293-0.87094 2.4658-1.731 3.6878-2.6133 4.5665-3.2968 9.0878-6.6576 13.609-9.9655 0-1e-3 4e-3 -1e-3 4e-3 -3e-3 0.14696-0.1076 0.29377-0.21212 0.44069-0.31951 2.1165-1.5468 4.2332-3.084 6.3548-4.5942 2.2641-1.6117 4.5334-3.1962 6.8138-4.7382v-7.5e-4c1.8419-1.2455 3.6981-2.4395 5.5571-3.6225 0.44626-0.28393 0.88647-0.58983 1.3338-0.86963 1.1548-0.72211 2.3135-1.4292 3.4771-2.1212 0.67378-0.40068 1.353-0.7841 2.0301-1.1737 0.49302-0.28365 0.9829-0.57671 1.4778-0.8542zm-220.04 23.385v7.5e-4c-45.786-1.188-65.413 47.896-117.46 46.649 43.209 2.2689 73.896-38.377 99.258-42.881 1.6444-0.29204 3.2538-0.53467 4.8351-0.73816 0.52255-0.0672 1.0251-0.10589 1.541-0.16379 1.0483-0.11769 2.0978-0.23631 3.1194-0.31656 0.59351-0.0466 1.167-0.0664 1.7518-0.10063 0.91468-0.0539 1.8319-0.11129 2.7257-0.13588 0.60859-0.0168 1.2003-0.01 1.7995-0.0142 0.84951-6e-3 1.7006-0.0114 2.5318 7e-3 0.5787 0.0128 1.1442 0.0473 1.7143 0.0735 0.83491 0.0381 1.6678 0.0776 2.4848 0.14028 0.54218 0.0416 1.0748 0.0969 1.6093 0.1491 0.81368 0.0795 1.6236 0.16366 2.4201 0.26662 0.521 0.0675 1.0344 0.14546 1.5483 0.22255 0.79869 0.11968 1.5924 0.24632 2.3746 0.38854 0.47468 0.0864 0.94509 0.17885 1.4139 0.27323 0.8115 0.16315 1.6153 0.33625 2.4098 0.52222 0.42541 0.0998 0.84921 0.20184 1.2699 0.30776 0.82077 0.20642 1.6325 0.42459 2.4363 0.65369 0.37295 0.10631 0.74554 0.21283 1.115 0.3239 0.8647 0.25968 1.7192 0.53294 2.5656 0.81675 0.29117 0.0978 0.58346 0.19407 0.87258 0.29452 0.92417 0.32078 1.8369 0.65579 2.7411 1.0026 0.2009 0.077 0.40375 0.15152 0.60375 0.22988 1.0297 0.40303 2.047 0.82237 3.0533 1.2552 0.0651 0.028 0.13104 0.0549 0.19611 0.083 4.2925 1.8568 8.3734 3.9752 12.361 6.1917 0.35216 0.1959 0.70408 0.39086 1.0547 0.58833 6.5464 3.6838 12.853 7.6025 19.316 11.143 0.21587 0.11825 0.43447 0.23072 0.65076 0.34815 7.5638 4.1032 15.384 7.6416 24.16 9.5542-32.495-7.3841-46.874-36.055-88.478-37.135zm-202.42 14.499c-0.70341-0.0142-1.4031 1e-3 -2.0992 0.0455-40.812 2.6027-57.656 46.06-91.427 65.554-3.2642 1.8842-6.4836 3.5038-9.624 4.9284v1.4249c1.3108-0.54673 2.6225-1.0977 3.9486-1.7136 1.0685-0.49952 2.1444-1.0152 3.2369-1.5666 0.41768-0.21027 0.83663-0.42591 1.256-0.64341 1.4777-0.76771 2.9673-1.5642 4.4818-2.4326 33.826-19.396 47.49-61.589 88.302-64.192 16.705-1.0654 35.389 14.227 58.101 23.723 1.8927 0.79136 3.813 1.5428 5.7628 2.2409 3.5752 1.28 7.262 2.3495 11.041 3.1935-29.564-6.7598-52.813-30.178-72.98-30.562zm72.98 30.562c0.57489 0.13147 1.15 0.26118 1.7297 0.37973-0.58073-0.1164-1.1539-0.2511-1.7297-0.37973zm1.7297 0.37973c0.76632 0.15359 1.532 0.30809 2.307 0.43923-0.77383-0.13289-1.5417-0.2827-2.307-0.43923zm2.307 0.43923c0.11541 0.0198 0.23039 0.0402 0.34594 0.0596-0.11569-0.019-0.23049-0.0399-0.34594-0.0596zm0.34594 0.0596c0.97544 0.16043 1.9552 0.30869 2.9446 0.43112-0.98874-0.12237-1.9694-0.26858-2.9446-0.43112zm213.54-8.8036c1.0855 0.24667 2.193 0.46686 3.3243 0.6581 1.1402 0.18848 2.2934 0.35419 3.4683 0.48476-2.3367-0.25969-4.5872-0.66227-6.7925-1.1429z" fill="url(#linearGradient14655-2)"/>
 <path d="m206.23 167.56s-10.257 1.8357-15.72 3.4484c-65.053 19.202-70.064 58.416-112.82 62.198-18.355 1.6234-71.202-16.957-100.6-12.865-37.956 5.2842-57.631 30.036-90.821 34.69-40.871 5.7312-83.088-20.313-129.17-11.15-35.934 7.145-50.331 44.722-76.486 73.592v1.7433c22.048-22.066 39.872-66.11 76.486-74.394 44.65-10.101 92.606 20.185 130.1 11.546 40.419-9.313 52.239-29.173 89.906-35.094 33.413-5.2529 79.081 17.005 100.8 14.347 39.842-4.8746 54.454-45.208 116.04-63.017 4.1418-1.1978 12.281-1.9119 12.281-1.9119z" fill="url(#linearGradient25349-7)"/>
</svg>
