<?xml version="1.0" encoding="UTF-8" standalone="no"?>
<!-- Created with Inkscape (http://www.inkscape.org/) -->

<svg
   width="720"
   height="1440"
   viewBox="0 0 190.49999 381.00007"
   version="1.1"
   id="svg1140"
   xmlns:xlink="http://www.w3.org/1999/xlink"
   xmlns="http://www.w3.org/2000/svg"
   xmlns:svg="http://www.w3.org/2000/svg">
  <defs
     id="defs1137">
    <linearGradient
       xlink:href="#linearGradient29544"
       id="linearGradient29546-2"
       x1="132.10901"
       y1="575.51141"
       x2="1068.3112"
       y2="320.25305"
       gradientUnits="userSpaceOnUse"
       gradientTransform="matrix(0.19428356,0.02062372,-0.02062372,0.19428356,-56.742005,120.83011)" />
    <linearGradient
       id="linearGradient29544">
      <stop
         style="stop-color:#1c52f2;stop-opacity:1"
         offset="0"
         id="stop29540" />
      <stop
         style="stop-color:#d62bc3;stop-opacity:0.42363399"
         offset="1"
         id="stop29542" />
    </linearGradient>
    <linearGradient
       xlink:href="#linearGradient4549"
       id="linearGradient4551-1"
       x1="1218.4554"
       y1="30.736158"
       x2="-51.688805"
       y2="481.46146"
       gradientUnits="userSpaceOnUse"
       gradientTransform="matrix(0.19428356,0.02062372,-0.02062372,0.19428356,-56.742005,120.83011)" />
    <linearGradient
       id="linearGradient4549">
      <stop
         style="stop-color:#4886f2;stop-opacity:1;"
         offset="0"
         id="stop4545" />
      <stop
         style="stop-color:#8f4bcd;stop-opacity:1"
         offset="1"
         id="stop4547" />
    </linearGradient>
    <linearGradient
       xlink:href="#linearGradient10986"
       id="linearGradient12309-5"
       gradientUnits="userSpaceOnUse"
       x1="1343.8644"
       y1="191.42802"
       x2="861.3941"
       y2="436.60165"
       gradientTransform="matrix(0.19537511,0,0,0.19537511,-73.586935,114.32378)" />
    <linearGradient
       id="linearGradient10986">
      <stop
         style="stop-color:#6659f2;stop-opacity:1"
         offset="0"
         id="stop10982" />
      <stop
         style="stop-color:#628af5;stop-opacity:1"
         offset="1"
         id="stop10984" />
    </linearGradient>
    <linearGradient
       xlink:href="#linearGradient1509"
       id="linearGradient1511-9"
       x1="466.89359"
       y1="475.49548"
       x2="1404.4065"
       y2="195.51314"
       gradientUnits="userSpaceOnUse"
       gradientTransform="matrix(0.19537511,0,0,0.19537511,-73.586935,114.32378)" />
    <linearGradient
       id="linearGradient1509">
      <stop
         style="stop-color:#3e2fdd;stop-opacity:1"
         offset="0"
         id="stop1505" />
      <stop
         style="stop-color:#a4007e;stop-opacity:1"
         offset="1"
         id="stop1507" />
    </linearGradient>
    <linearGradient
       xlink:href="#linearGradient4477"
       id="linearGradient4479-5"
       x1="1327.1652"
       y1="150.93445"
       x2="-27.439623"
       y2="614.6449"
       gradientUnits="userSpaceOnUse"
       gradientTransform="matrix(0.19428356,0.02062372,-0.02062372,0.19428356,-56.742005,120.83011)" />
    <linearGradient
       id="linearGradient4477">
      <stop
         style="stop-color:#578bf2;stop-opacity:1"
         offset="0"
         id="stop4473" />
      <stop
         style="stop-color:#5a74fa;stop-opacity:1"
         offset="1"
         id="stop4475" />
    </linearGradient>
    <linearGradient
       xlink:href="#linearGradient4685-3"
       id="linearGradient4687-8"
       x1="1284.0638"
       y1="231.57774"
       x2="-19.021584"
       y2="636.71533"
       gradientUnits="userSpaceOnUse"
       gradientTransform="matrix(0.19428356,0.02062372,-0.02062372,0.19428356,-56.742005,120.83011)" />
    <linearGradient
       id="linearGradient4685-3">
      <stop
         style="stop-color:#542ef2;stop-opacity:1"
         offset="0"
         id="stop4681-8" />
      <stop
         style="stop-color:#4a98e4;stop-opacity:1"
         offset="0.47512516"
         id="stop26809" />
      <stop
         style="stop-color:#5393f2;stop-opacity:1"
         offset="1"
         id="stop4683-5" />
    </linearGradient>
    <linearGradient
       xlink:href="#linearGradient31045"
       id="linearGradient30817"
       x1="-757.29144"
       y1="414.48566"
       x2="687.20605"
       y2="74.068878"
       gradientUnits="userSpaceOnUse"
       gradientTransform="matrix(0.19537511,0,0,0.19537511,63.930515,157.72682)" />
    <linearGradient
       id="linearGradient31045">
      <stop
         style="stop-color:#94a642;stop-opacity:1"
         offset="0"
         id="stop31041" />
      <stop
         style="stop-color:#83aa61;stop-opacity:1"
         offset="0.31171572"
         id="stop31403" />
      <stop
         style="stop-color:#dc8cd1;stop-opacity:1"
         offset="0.59436423"
         id="stop31273" />
      <stop
         style="stop-color:#6cdddb;stop-opacity:1"
         offset="1"
         id="stop31043" />
    </linearGradient>
    <linearGradient
       xlink:href="#linearGradient31045"
       id="linearGradient30817-7"
       x1="-757.29144"
       y1="414.48566"
       x2="687.20605"
       y2="74.068878"
       gradientUnits="userSpaceOnUse"
       gradientTransform="matrix(0.39491988,0,0,0.39491988,-55.130745,152.55767)" />
    <linearGradient
       xlink:href="#linearGradient4685-3"
       id="linearGradient4687-8-0"
       x1="1284.0638"
       y1="231.57774"
       x2="-19.021584"
       y2="636.71533"
       gradientUnits="userSpaceOnUse"
       gradientTransform="matrix(0.3927135,0.04168758,-0.04168758,0.3927135,-299.05116,77.976808)" />
    <linearGradient
       xlink:href="#linearGradient4477"
       id="linearGradient4479-5-4"
       x1="1327.1652"
       y1="150.93445"
       x2="-27.439623"
       y2="614.6449"
       gradientUnits="userSpaceOnUse"
       gradientTransform="matrix(0.3927135,0.04168758,-0.04168758,0.3927135,-299.05116,77.976808)" />
    <linearGradient
       xlink:href="#linearGradient1509"
       id="linearGradient1511-9-0"
       x1="466.89359"
       y1="475.49548"
       x2="1404.4065"
       y2="195.51314"
       gradientUnits="userSpaceOnUse"
       gradientTransform="matrix(0.39491988,0,0,0.39491988,-333.10052,64.82529)" />
    <linearGradient
       xlink:href="#linearGradient10986"
       id="linearGradient12309-5-8"
       gradientUnits="userSpaceOnUse"
       x1="1343.8644"
       y1="191.42802"
       x2="861.3941"
       y2="436.60165"
       gradientTransform="matrix(0.39491988,0,0,0.39491988,-333.10052,64.82529)" />
    <linearGradient
       xlink:href="#linearGradient4549"
       id="linearGradient4551-1-9"
       x1="1218.4554"
       y1="30.736158"
       x2="-51.688805"
       y2="481.46146"
       gradientUnits="userSpaceOnUse"
       gradientTransform="matrix(0.3927135,0.04168758,-0.04168758,0.3927135,-299.05116,77.976808)" />
    <linearGradient
       xlink:href="#linearGradient29544"
       id="linearGradient29546-2-8"
       x1="132.10901"
       y1="575.51141"
       x2="1068.3112"
       y2="320.25305"
       gradientUnits="userSpaceOnUse"
       gradientTransform="matrix(0.3927135,0.04168758,-0.04168758,0.3927135,-299.05116,77.976808)" />
    <linearGradient
       id="linearGradient25627">
      <stop
         style="stop-color:#bda62c;stop-opacity:1;"
         offset="0"
         id="stop25607" />
      <stop
         style="stop-color:#ae9a28;stop-opacity:0.98823529"
         offset="0.14668909"
         id="stop25609" />
      <stop
         style="stop-color:#8c7b20;stop-opacity:0.96862745"
         offset="0.30530512"
         id="stop25613" />
      <stop
         style="stop-color:#bda62c;stop-opacity:0.95686275;"
         offset="0.51079261"
         id="stop25617" />
      <stop
         style="stop-color:#82721e;stop-opacity:0.94901961"
         offset="0.62310421"
         id="stop25619" />
      <stop
         style="stop-color:#c0ab2c;stop-opacity:0.99607843"
         offset="0.83540899"
         id="stop25623" />
      <stop
         style="stop-color:#7f6f1e;stop-opacity:0.92156863"
         offset="1"
         id="stop25625" />
    </linearGradient>
    <linearGradient
       id="linearGradient14653">
      <stop
         style="stop-color:#bda62c;stop-opacity:1;"
         offset="0"
         id="stop14649" />
      <stop
         style="stop-color:#615516;stop-opacity:0.98823529"
         offset="0.09857609"
         id="stop16599" />
      <stop
         style="stop-color:#cab12f;stop-opacity:0.97647059"
         offset="0.25338677"
         id="stop16339" />
      <stop
         style="stop-color:#8c7b20;stop-opacity:0.96862745"
         offset="0.33815062"
         id="stop16405" />
      <stop
         style="stop-color:#87771f;stop-opacity:0.96470588"
         offset="0.4215126"
         id="stop15309" />
      <stop
         style="stop-color:#bda62c;stop-opacity:0.95686275;"
         offset="0.53338844"
         id="stop15113" />
      <stop
         style="stop-color:#82721e;stop-opacity:0.94901961"
         offset="0.62310421"
         id="stop15179" />
      <stop
         style="stop-color:#80711e;stop-opacity:0.93725497"
         offset="0.73470789"
         id="stop15823" />
      <stop
         style="stop-color:#d7be31;stop-opacity:0.92941177"
         offset="0.83540899"
         id="stop15889" />
      <stop
         style="stop-color:#bda62c;stop-opacity:0.9217537"
         offset="1"
         id="stop14651" />
    </linearGradient>
    <linearGradient
       xlink:href="#linearGradient4685-3"
       id="linearGradient4687-8-7"
       x1="1284.0638"
       y1="231.57774"
       x2="-19.021584"
       y2="636.71533"
       gradientUnits="userSpaceOnUse"
       gradientTransform="matrix(0.51938176,0.05513376,-0.05513376,0.51938176,-359.20108,14.628395)" />
    <linearGradient
       xlink:href="#linearGradient4477"
       id="linearGradient4479-5-8"
       x1="1327.1652"
       y1="150.93445"
       x2="-27.439623"
       y2="614.6449"
       gradientUnits="userSpaceOnUse"
       gradientTransform="matrix(0.51938176,0.05513376,-0.05513376,0.51938176,-359.20108,14.628395)" />
    <linearGradient
       xlink:href="#linearGradient10986"
       id="linearGradient12309-5-1"
       gradientUnits="userSpaceOnUse"
       x1="1343.8644"
       y1="191.42802"
       x2="861.3941"
       y2="436.60165"
       gradientTransform="matrix(0.52229987,0,0,0.52229987,-404.23291,-2.7651151)" />
    <linearGradient
       xlink:href="#linearGradient4549"
       id="linearGradient4551-1-5"
       x1="1218.4554"
       y1="30.736158"
       x2="-51.688805"
       y2="481.46146"
       gradientUnits="userSpaceOnUse"
       gradientTransform="matrix(0.51938176,0.05513376,-0.05513376,0.51938176,-359.20108,14.628395)" />
    <linearGradient
       xlink:href="#linearGradient25627"
       id="linearGradient25349-7"
       x1="-19.32687"
       y1="174.87611"
       x2="365.09894"
       y2="71.86953"
       gradientUnits="userSpaceOnUse"
       gradientTransform="matrix(1.6111024,0,0,1.6111024,-393.9743,56.377526)" />
    <linearGradient
       xlink:href="#linearGradient14653"
       id="linearGradient14655-2"
       x1="-46.183235"
       y1="706.05402"
       x2="1721.9431"
       y2="445.6926"
       gradientUnits="userSpaceOnUse"
       gradientTransform="matrix(0.4262709,0,0,0.4262709,-393.9743,56.377526)" />
    <linearGradient
       xlink:href="#linearGradient4549-9"
       id="linearGradient4687-8-2"
       x1="1155.105"
       y1="262.50851"
       x2="93.583733"
       y2="615.88306"
       gradientUnits="userSpaceOnUse"
       gradientTransform="matrix(0.51938165,0.05513375,-0.05513375,0.51938165,-359.20102,30.623327)" />
    <linearGradient
       id="linearGradient4549-9">
      <stop
         style="stop-color:#8b5cf6;stop-opacity:1"
         offset="0"
         id="stop4545-1" />
      <stop
         style="stop-color:#6d28d9;stop-opacity:1"
         offset="0.2124767"
         id="stop3695" />
      <stop
         style="stop-color:#6f5cf6;stop-opacity:1"
         offset="0.42963988"
         id="stop3369" />
      <stop
         style="stop-color:#7c3aed;stop-opacity:1"
         offset="0.59961361"
         id="stop3629" />
      <stop
         style="stop-color:#6376f6;stop-opacity:1"
         offset="0.80968213"
         id="stop3499" />
      <stop
         style="stop-color:#6d28d9;stop-opacity:1"
         offset="1"
         id="stop4547-3" />
    </linearGradient>
    <linearGradient
       xlink:href="#linearGradient120453"
       id="linearGradient4479-5-6"
       x1="1143.1901"
       y1="196.74675"
       x2="120.85666"
       y2="539.48602"
       gradientUnits="userSpaceOnUse"
       gradientTransform="matrix(0.51938165,0.05513375,-0.05513375,0.51938165,-359.20102,30.623327)" />
    <linearGradient
       id="linearGradient120453">
      <stop
         style="stop-color:#8b5cf6;stop-opacity:1"
         offset="0"
         id="stop120441" />
      <stop
         style="stop-color:#5151dc;stop-opacity:1"
         offset="0.25152168"
         id="stop120443" />
      <stop
         style="stop-color:#3b82f6;stop-opacity:1"
         offset="0.44539982"
         id="stop120445" />
      <stop
         style="stop-color:#8b69f6;stop-opacity:1"
         offset="0.63944036"
         id="stop120447" />
      <stop
         style="stop-color:#60a5fa;stop-opacity:1"
         offset="0.83593452"
         id="stop120449" />
      <stop
         style="stop-color:#60a5fa;stop-opacity:1"
         offset="1"
         id="stop120451" />
    </linearGradient>
    <linearGradient
       xlink:href="#linearGradient1509"
       id="linearGradient6948-6"
       gradientUnits="userSpaceOnUse"
       gradientTransform="matrix(0.52229976,0,0,0.52229976,-404.23284,11.558969)"
       x1="466.89359"
       y1="475.49548"
       x2="1404.4065"
       y2="195.51314" />
    <linearGradient
       xlink:href="#linearGradient10986-7"
       id="linearGradient12309-5-2"
       gradientUnits="userSpaceOnUse"
       x1="1181.7125"
       y1="252.36546"
       x2="861.3941"
       y2="436.60165"
       gradientTransform="matrix(0.52229976,0,0,0.52229976,-404.23284,13.229828)" />
    <linearGradient
       id="linearGradient10986-7">
      <stop
         style="stop-color:#7e5af0;stop-opacity:1"
         offset="0"
         id="stop10982-0" />
      <stop
         style="stop-color:#7c61ee;stop-opacity:1"
         offset="0.49538255"
         id="stop136405" />
      <stop
         style="stop-color:#4c6fe2;stop-opacity:1"
         offset="1"
         id="stop10984-6" />
    </linearGradient>
    <linearGradient
       xlink:href="#linearGradient4685-3-5"
       id="linearGradient4551-1-7"
       x1="1112.811"
       y1="69.067085"
       x2="89.147026"
       y2="487.89313"
       gradientUnits="userSpaceOnUse"
       gradientTransform="matrix(0.51938165,0.05513375,-0.05513375,0.51938165,-359.20102,30.623327)" />
    <linearGradient
       id="linearGradient4685-3-5">
      <stop
         style="stop-color:#60a5fa;stop-opacity:1"
         offset="0"
         id="stop4681-8-4" />
      <stop
         style="stop-color:#365fd8;stop-opacity:1"
         offset="0.23215981"
         id="stop17498" />
      <stop
         style="stop-color:#3b82f6;stop-opacity:1"
         offset="0.43870947"
         id="stop26809-2" />
      <stop
         style="stop-color:#4d4eeb;stop-opacity:1"
         offset="0.65562975"
         id="stop12917" />
      <stop
         style="stop-color:#60a5fa;stop-opacity:1"
         offset="1"
         id="stop4683-5-2" />
    </linearGradient>
    <linearGradient
       xlink:href="#linearGradient29544"
       id="linearGradient24274-0"
       gradientUnits="userSpaceOnUse"
       gradientTransform="matrix(0.51938165,0.05513376,-0.05513376,0.51938165,-359.20102,30.623327)"
       x1="132.10901"
       y1="575.51141"
       x2="1068.3112"
       y2="320.25305" />
    <linearGradient
       xlink:href="#linearGradient4477-4"
       id="linearGradient118139"
       x1="100.59962"
       y1="115.7887"
       x2="345.10434"
       y2="-9.8373604"
       gradientUnits="userSpaceOnUse"
       gradientTransform="matrix(1.4213168,0,0,1.4213168,-314.08678,83.633178)" />
    <linearGradient
       id="linearGradient4477-4">
      <stop
         style="stop-color:#8b5cf6;stop-opacity:1"
         offset="0"
         id="stop4473-2" />
      <stop
         style="stop-color:#5151dc;stop-opacity:1"
         offset="0.25152168"
         id="stop55155" />
      <stop
         style="stop-color:#3b82f6;stop-opacity:1"
         offset="0.44539982"
         id="stop41682" />
      <stop
         style="stop-color:#8b5cf6;stop-opacity:1"
         offset="0.63944036"
         id="stop94918" />
      <stop
         style="stop-color:#60a5fa;stop-opacity:1"
         offset="0.83593452"
         id="stop98531" />
      <stop
         style="stop-color:#60a5fa;stop-opacity:1"
         offset="1"
         id="stop4475-1" />
    </linearGradient>
    <linearGradient
       xlink:href="#linearGradient25627"
       id="linearGradient161031"
       x1="-12.419965"
       y1="169.75165"
       x2="373.66388"
       y2="-5.8339572"
       gradientUnits="userSpaceOnUse"
       gradientTransform="matrix(1.4213168,0,0,1.4213168,-314.08678,74.621006)" />
  </defs>
  <rect
     style="fill:#1b1e20;fill-opacity:1;stroke:none;stroke-width:0.140317;stroke-linecap:round;stroke-linejoin:round;paint-order:stroke fill markers;stop-color:#000000"
     id="rect3074-7"
     width="190.50002"
     height="381.00003"
     x="0"
     y="0" />
  <path
     id="path145852"
     style="fill:url(#linearGradient161031);fill-opacity:1;stroke:none;stroke-width:0.138192px;stroke-linecap:butt;stroke-linejoin:miter;stroke-opacity:1"
     d="M 206.22813,59.415904 C 129.06106,69.119745 134.59719,169.21132 63.626963,180.65404 c -47.178621,2.64955 -62.1549938,-12.07511 -98.053107,-3.03691 -42.760017,10.76584 -68.275506,49.69331 -104.812606,53.20818 -39.13492,3.76472 -83.64361,-15.90386 -126.08845,4.30226 -26.35319,12.54559 -38.64234,44.60651 -54.06037,67.5322 v 29.31857 c 34.58078,-19.82644 64.5966,-50.15091 89.55218,-58.05596 25.43511,-8.05695 51.55531,-3.32774 78.16546,-2.68455 23.43565,0.56644 47.78931,-15.68799 71.959794,-17.29274 48.322895,-3.20848 100.550006,9.1898 147.908551,1.45429 45.965425,-7.50793 78.559325,-44.69437 121.879135,-55.66964 5.25498,-1.33136 10.65493,-2.10339 16.15058,-2.50679 z" />
  <path
     id="path3392-7"
     style="fill:none;stroke:url(#linearGradient118139);stroke-width:0.138192px;stroke-linecap:butt;stroke-linejoin:miter;stroke-opacity:1"
     d="m -173.76845,266.69477 c 0,0 40.06989,-6.52599 60.13525,-9.59443 28.786113,-4.40201 57.921316,-6.76575 86.441942,-12.64728 28.5075362,-5.87884 57.304409,-11.82319 84.354428,-22.57201 34.967122,-13.89482 64.83501,-38.59459 99.33026,-53.62268 16.03495,-6.98575 49.69607,-16.83989 49.69607,-16.83989 m -380.8124,114.49693 c 0,0 40.41693,-6.44368 60.61341,-9.73956 28.781404,-4.69686 57.789315,-8.21642 86.3095,-14.30149 28.56582446,-6.09482 57.68582,-11.2598 84.766013,-22.20584 34.744003,-14.04385 63.958007,-39.4275 98.005607,-55.08434 16.49425,-7.58492 51.16227,-18.6747 51.16227,-18.6747 m -381.71127,119.22655 c 0,0 40.76547,-6.35812 61.09026,-9.8829 28.784465,-4.99189 57.64949,-9.66193 86.17819,-15.95299 28.62369957,-6.31202 58.070157,-10.69357 85.177739,-21.84416 34.519848,-14.19958 63.052031,-40.28867 96.646911,-56.55614 16.94143,-8.20346 52.59782,-20.54865 52.59782,-20.54865 m -382.5454,124.00539 c 0,0 41.11551,-6.26949 61.56585,-10.02446 28.795291,-5.28724 57.502052,-11.10241 86.048149,-17.60193 28.68110665,-6.53026 58.459357,-10.11998 85.589494,-21.48681 34.331879,-14.38417 62.169647,-41.25253 95.344337,-58.13513 17.42112,-8.86561 54.15009,-22.50813 54.15009,-22.50813 M -177.1863,263.57723 c 0,0 41.46703,-6.1781 62.04014,-10.16442 28.813782,-5.58305 57.347072,-12.53805 85.919349,-19.24841 28.73804527,-6.74931 58.849523,-9.54872 86.001307,-21.13356 34.104639,-14.55143 61.201714,-42.15749 93.913924,-59.6155 17.83846,-9.52011 55.51417,-24.44925 55.51417,-24.44925 m -384.24336,133.83176 c 0,0 41.82,-6.08412 62.5132,-10.30274 28.839849,-5.87944 57.184701,-13.96906 85.791857,-20.89266 28.79448528,-6.96896 59.244407,-8.97093 86.413034,-20.78419 33.911567,-14.74518 60.252209,-43.15351 92.533299,-61.19086 18.28232,-10.21541 56.98179,-26.46612 56.98179,-26.46612 m -385.08765,138.85713 c 0,0 42.17441,-5.98781 62.98502,-10.43954 28.873424,-6.17653 57.015041,-15.39565 85.665647,-22.53485 28.8504143,-7.18899 59.642717,-8.38973 86.824704,-20.43829 33.72998,-14.95099 59.287989,-44.18897 91.147259,-62.79621 18.72303,-10.9351 58.45985,-28.52373 58.45985,-28.52373 m -385.93693,143.95324 c 0,0 42.53019,-5.88943 63.45558,-10.575 28.914392,-6.47446 56.838165,-16.81816 85.540677,-24.1753 28.9058884,-7.40925 60.044424,-7.80563 87.236417,-20.0956 33.559919,-15.16809 58.308796,-45.25964 89.756256,-64.42725 19.15909,-11.67769 59.94654,-30.61646 59.94654,-30.61646 m -386.78995,149.11026 c 0,0 42.8873,-5.78925 63.9249,-10.70923 28.962615,-6.77339 56.654073,-18.23696 85.416849,-25.81429 28.9609078,-7.62951 60.449329,-7.21904 87.648244,-19.75552 33.40039,-15.39485 57.313377,-46.35852 88.358647,-66.07601 19.58775,-12.44058 61.43579,-32.73646 61.43579,-32.73646 m -387.63893,154.31209 c 0,0 43.2457,-5.68745 64.39292,-10.84234 29.018014,-7.07348 56.462802,-19.65254 85.294086,-27.4523 C -2.7561214,213.536 29.085653,214.75538 56.288648,201.96809 89.541747,186.33685 112.59317,154.48376 143.24839,134.22636 163.2582,121.00359 206.1816,99.347697 206.1816,99.347697 M -182.31311,258.90088 c 0,0 43.60529,-5.58428 64.85967,-10.97437 29.080421,-7.37477 56.264555,-21.06475 85.172447,-29.08919 29.069766,-8.06937 61.251548,-6.07461 88.472479,-19.08179 32.692277,-15.62158 54.730784,-47.73761 84.582834,-68.27233 19.93609,-13.71369 62.77929,-36.446897 62.77929,-36.446897 l 1.31971,-0.886675 1.31969,-0.886688 m -389.36058,164.85854 c 0,0 43.96614,-5.47972 65.3253,-11.10504 29.149867,-7.67711 56.059743,-22.47296 85.052303,-30.72433 29.1235349,-8.28865 61.682534,-5.44696 88.884278,-18.74913 32.993979,-16.13468 54.240789,-49.81131 84.147979,-71.1301 20.82906,-14.8476 65.94416,-39.243779 65.94416,-39.243779 m -390.2085,170.173009 c 0,0 44.32797,-5.37454 65.78935,-11.23547 29.225944,-7.98136 55.847336,-23.88022 84.932395,-32.36058 29.1772606,-8.50723 62.098838,-4.85391 89.29744,-18.41566 32.880957,-16.39507 53.190895,-50.99139 82.743725,-72.82223 21.22283,-15.67743 67.45123,-41.425162 67.45123,-41.425162 M -184.87652,256.5627 c 0,0 44.6907,-5.26886 66.25187,-11.36558 29.308559,-8.28742 55.62748,-25.28628 84.812842,-33.99765 29.2309291,-8.72496 62.51706,-4.26064 89.711782,-18.08159 32.776518,-16.65776 52.129126,-52.16993 81.339756,-74.4975 21.60289,-16.51249 68.95033,-43.588671 68.95033,-43.588671 M -185.73096,255.78332 c 0,0 45.05425,-5.16289 66.71274,-11.49555 29.397583,-8.59547 55.400119,-26.69159 84.69343,-35.63595 29.2846694,-8.94175 62.937031,-3.66741 90.127589,-17.74649 C 88.484344,173.98305 106.8616,137.56051 135.7437,114.75106 157.71403,97.400137 206.18957,69.022204 206.18957,69.022204 M -186.58547,255.00393 c 0,0 45.41855,-5.05686 67.17197,-11.62552 29.492866,-8.90564 55.165187,-28.09653 84.574023,-37.27588 29.3386223,-9.15741 63.358494,-3.07443 90.545086,-17.40976 32.595385,-17.18736 49.981471,-54.51124 78.548661,-77.78741 22.32482,-18.189968 71.93679,-47.838806 71.93679,-47.838806 M -187.43991,254.22455 c 0,0 45.78347,-4.95097 67.62942,-11.75557 29.594279,-9.21806 54.922642,-29.50146 84.45445,-38.91767 29.3928594,-9.37192 63.78115,-2.48203 90.964474,-17.07107 C 88.124481,169.02919 104.50551,130.81802 132.7699,107.09131 155.43466,88.065241 206.187,57.180643 206.187,57.180643 M -188.29439,253.44514 c 0,0 46.14898,-4.84538 68.08511,-11.88584 29.701642,-9.53282 54.672359,-30.90674 84.334516,-40.56173 29.4475519,-9.58513 64.204831,-1.89026 91.386051,-16.72992 32.444796,-17.71333 47.809683,-56.79764 75.785183,-80.95958 22.99234,-19.858086 74.89364,-51.940954 74.89364,-51.940954 M -189.14884,252.66577 c 0,0 46.51493,-4.74034 68.53892,-12.01646 29.814863,-9.85001 54.414318,-32.31255 84.214087,-42.20816 29.5028128,-9.79698 64.629307,-1.29932 91.809959,-16.38602 32.378819,-17.97197 46.718204,-57.9098 74.416194,-82.490299 23.30538,-20.682277 76.35753,-53.922179 76.35753,-53.922179 M -190.0033,251.88636 c 0,0 46.88127,-4.63595 68.99081,-12.14747 29.933795,-10.16974 54.148486,-33.71929 84.093044,-43.85732 29.5587272,-10.0074 65.054352,-0.70923 92.23641,-16.03903 32.318556,-18.2266 45.625646,-58.99782 73.058366,-83.98068 23.60545,-21.497374 77.81283,-55.851112 77.81283,-55.851112 M -190.85776,251.10698 c 0,0 47.24789,-4.53238 69.44075,-12.27898 30.058273,-10.49207 53.874753,-35.12711 83.971151,-45.50933 29.6154661,-10.21634 65.479837,-0.11996 92.665619,-15.68868 32.26257,-18.476 44.532599,-60.05769 71.71115,-85.426244 23.89216,-22.30102 79.25636,-57.723207 79.25636,-57.723207 M -191.71224,250.32761 c 0,0 47.61473,-4.42981 69.88869,-12.41105 30.188197,-10.81709 53.593163,-36.53621 83.848392,-47.16439 29.6731438,-10.42371 65.905622,0.46836 93.097743,-15.33472 C 87.332864,156.698 98.563058,114.33014 125.49812,88.592578 149.6642,65.500902 206.18622,29.057256 206.18622,29.057256 M -192.56671,249.54821 c 0,0 47.98168,-4.32834 70.33456,-12.54372 30.323463,-11.14483 53.303711,-37.94681 83.724681,-48.82267 29.7318578,-10.62948 66.331576,1.05603 93.532921,-14.9769 32.161045,-18.95628 42.350664,-62.08497 69.052498,-88.174915 24.42779,-23.868007 82.1081,-61.284993 82.1081,-61.284993 M -193.42119,248.76881 c 0,0 48.34869,-4.22807 70.77836,-12.67706 30.46388,-11.47534 53.00632,-39.35906 83.599809,-50.48427 29.7916809,-10.83363 66.757629,1.64306 93.971298,-14.61511 32.114056,-19.1858 41.263982,-63.04878 67.742133,-89.474439 24.67764,-24.628724 83.51531,-62.970086 83.51531,-62.970086 M -194.27565,247.98942 c 0,0 48.71565,-4.12918 71.22006,-12.81108 30.609376,-11.80871 52.701016,-40.77306 83.473747,-52.14927 29.8527556,-11.03612 67.183727,2.22957 94.412944,-14.24927 C 86.899576,149.37229 95.012225,104.80247 121.27542,78.057679 146.19136,52.684853 206.18416,13.46846 206.18416,13.46846 m -401.31427,233.74158 c 0,0 49.08249,-4.03171 71.65961,-12.94585 30.759793,-12.14492 52.387843,-42.18892 83.346425,-53.81778 29.91518,-11.23691 67.609809,2.81579 94.858015,-13.87916 32.024329,-19.62126 39.103737,-64.87087 65.16077,-91.918657 25.14391,-26.09994 86.29048,-66.1419902 86.29048,-66.1419902 M -195.9846,246.4306 c 0,0 49.44915,-3.93574 72.09701,-13.0813 30.915062,-12.48401 52.066871,-43.60669 83.217857,-55.48978 29.978997,-11.43602 68.035877,3.4019 95.306484,-13.50482 C 86.616734,144.52834 92.667635,98.627572 118.52554,71.293093 143.88643,44.484003 206.18173,3.6653519 206.18173,3.6653519 M -196.83906,245.65124 c 0,0 49.81556,-3.84144 72.53221,-13.21758 31.075031,-12.82602 51.738035,-45.02653 83.087849,-57.16545 30.044363,-11.6334 68.461917,3.98803 95.758548,-13.12608 C 86.476421,142.11873 91.505481,95.593033 117.17277,67.987044 142.7423,40.486187 206.18589,-1.0604 206.18589,-1.0604 M -197.6935,244.87186 c 0,0 50.18165,-3.74878 72.96524,-13.35458 31.239595,-13.17091 51.401528,-46.44833 82.956538,-58.84459 30.111264,-11.82908 68.887984,4.57448 96.214122,-12.7431 31.892728,-20.21158 35.906484,-67.333901 61.38905,-95.195929 25.76823,-28.174366 90.35384,-70.4013703 90.35384,-70.4013703" />
  <path
     id="path22726-5"
     style="font-variation-settings:normal;vector-effect:none;fill:none;fill-opacity:1;stroke:url(#linearGradient24274-0);stroke-width:0.414573;stroke-linecap:butt;stroke-linejoin:miter;stroke-miterlimit:4;stroke-dasharray:none;stroke-dashoffset:0;stroke-opacity:1;stop-color:#000000"
     d="m -316.90176,347.68911 c 28.39284,-7.3387 58.81794,-50.56437 89.94025,-55.21432 36.72112,-5.48646 66.6225,25.96994 104.68042,26.69622 63.038954,1.20309 93.236748,-63.16265 170.305775,-18.8154 33.560161,19.31127 90.705365,2.33003 121.937145,-35.37278 m -487.17092,82.04996 c 28.09841,-7.53389 58.19866,-51.43969 89.63418,-55.94578 36.58481,-5.32793 67.04934,25.82092 105.49087,26.1916 62.194295,0.9809 92.718992,-62.12617 168.716062,-18.9894 33.811635,18.72598 89.830478,2.13033 121.486758,-34.51476 m -485.6352,82.60202 c 27.80397,-7.72905 57.57939,-52.31508 89.32811,-56.67724 36.44855,-5.16942 67.47622,25.67198 106.30129,25.6869 61.34968,0.75874 92.201309,-61.08965 167.126379,-19.16334 34.063009,18.14067 88.955561,1.9306 121.036351,-33.6567 m -484.09947,83.15405 c 27.50957,-7.92424 56.96013,-53.19045 89.02204,-57.4087 36.31229,-5.01081 67.90305,25.52304 107.11174,25.18229 60.505032,0.53651 91.683591,-60.0532 165.536662,-19.33727 34.314425,17.55531 88.080768,1.73075 120.586028,-32.79875 m -482.56381,83.70611 c 27.21514,-8.11937 56.34087,-54.06579 88.71597,-58.14017 36.17605,-4.85225 68.32995,25.37407 107.92219,24.67771 59.660425,0.31427 91.16586,-59.01677 163.946987,-19.51124 34.565842,16.96994 87.205843,1.53099 120.135563,-31.94082 m -481.02804,84.2582 c 26.92071,-8.31453 55.72159,-54.94117 88.40989,-58.87169 36.03977,-4.6937 68.75677,25.2252 108.73265,24.1731 58.815738,0.092 90.648146,-57.98025 162.35726,-19.68521 34.817216,16.38464 86.33098,1.33128 119.68511,-31.08274 m -479.49224,84.81022 c 26.62627,-8.50965 55.10232,-55.81652 88.10382,-59.60312 35.90354,-4.53522 69.18362,25.07615 109.54309,23.66842 57.971132,-0.13005 90.130443,-56.94376 160.767571,-19.85918 35.068647,15.79932 85.456119,1.13156 119.234739,-30.22475 m -477.95656,85.36229 c 26.33185,-8.70482 54.48306,-56.69187 87.79776,-60.3346 35.76725,-4.37661 69.61048,24.92724 110.3535,23.1638 57.126513,-0.35224 89.612727,-55.90727 159.177884,-20.03308 35.320078,15.21392 84.581256,0.93176 118.784296,-29.36676 m -476.42077,85.91432 c 26.03742,-8.9 53.86378,-57.56721 87.49168,-61.06605 35.63099,-4.21804 70.03733,24.77823 111.16393,22.65917 56.281856,-0.57448 89.094973,-54.87084 157.588187,-20.20704 35.571494,14.62859 83.706373,0.732 118.333923,-28.50882 m -474.60525,86.36599 c 25.66251,-9.35157 53.08765,-58.35428 86.90583,-61.69709 35.49474,-4.05952 70.46416,24.62926 111.9743,22.15454 55.437257,-0.79672 88.577334,-53.83437 155.998548,-20.38105 35.822883,14.0433 82.831482,0.53229 117.883472,-27.65072 m -472.76218,86.79703 c 25.27965,-9.83517 52.30141,-59.12128 86.29244,-62.30756 35.35849,-3.90096 70.89105,24.48031 112.78476,21.64986 54.592594,-1.01885 88.059645,-52.79786 154.408831,-20.55495 36.074299,13.45793 81.956649,0.33252 117.433129,-26.79281 m -470.9191,87.21629 c 24.8968,-10.32571 51.52089,-59.87537 85.67897,-62.9062 35.22221,-3.74243 71.31791,24.33135 113.59521,21.14525 53.748002,-1.24105 87.541941,-51.76137 152.819085,-20.72892 36.325716,12.87258 81.081805,0.13289 116.982785,-25.93481 m -469.07533,87.62274 c 24.51386,-10.82359 50.74595,-60.61589 85.06485,-63.49204 35.08592,-3.58385 71.74478,24.18237 114.40565,20.64062 52.903354,-1.46327 87.02421,-50.72488 151.229396,-20.90285 36.577147,12.28721 80.206864,-0.0672 116.532344,-25.07682 m -467.23265,88.01647 c 24.13145,-11.32699 49.97781,-61.34272 84.45184,-64.06523 34.94969,-3.42532 72.17165,24.0334 115.21612,20.136 52.058666,-1.68542 86.506454,-49.68843 149.63974,-21.07682 36.828493,11.70189 79.33198,-0.26676 116.08186,-24.21878 m -465.38971,88.39617 c 23.74924,-11.83698 49.21587,-62.05454 83.8386,-64.62435 34.81343,-3.26678 72.59849,23.88445 116.02654,19.63133 51.214028,-1.90758 85.988746,-48.65189 148.050004,-21.25078 37.079938,11.11662 78.457126,-0.46642 115.631496,-23.3608 m -463.54664,88.7611 c 23.36736,-12.35313 48.46047,-62.75051 83.22519,-65.16865 34.67715,-3.10822 73.02538,23.73552 116.83699,19.12672 50.369393,-2.12982 85.471043,-47.61545 146.460315,-21.4247 37.331369,10.53121 77.582305,-0.6663 115.181095,-22.50286 m -461.70372,89.11062 c 22.98601,-12.87514 47.71196,-63.43006 82.61192,-65.69758 34.5409,-2.94965 73.45222,23.58657 117.64741,18.62211 49.524736,-2.35204 84.953317,-46.57894 144.870632,-21.59866 37.582743,9.94586 76.707388,-0.86604 114.730638,-21.64484 m -459.86079,89.44367 c 22.60526,-13.40255 46.97058,-64.09202 81.9987,-66.21006 34.40467,-2.79112 73.87908,23.43759 118.45785,18.11746 48.680154,-2.5742 84.435638,-45.54249 143.280911,-21.77258 37.834174,9.3605 75.832569,-1.06581 114.280269,-20.78691 m -458.01768,89.75937 c 22.22515,-13.9354 46.2364,-64.73549 81.38524,-66.70511 34.26839,-2.63262 74.30595,23.28862 119.26828,17.6128 47.835468,-2.7964 83.917926,-44.50603 141.691242,-21.94658 38.08552,8.77525 74.957633,-1.26553 113.829868,-19.92882 m -456.17432,90.05646 c 21.84583,-14.47334 45.50972,-65.35925 80.77152,-67.18163 34.1321,-2.47407 74.73279,23.1396 120.07871,17.10813 46.990868,-3.01859 83.400243,-43.46949 140.101559,-22.12049 38.336993,8.18984 74.082826,-1.46529 113.379431,-19.07086 m -454.33129,90.3345 c 21.46759,-15.01531 44.79108,-65.96268 80.15821,-67.63913 33.99586,-2.31545 75.15964,22.99074 120.8891,16.60363 46.146263,-3.24086 82.882527,-42.43308 138.5119,-22.29452 38.588396,7.60452 73.207892,-1.66506 112.92906,-18.21286 m -452.48816,90.59197 c 21.09044,-15.56141 44.08054,-66.54431 79.54468,-68.07599 33.85958,-2.15692 75.58651,22.84175 121.6996,16.09896 45.301589,-3.463 82.364769,-41.3966 136.922157,-22.46842 38.839798,7.01917 72.333043,-1.86485 112.478603,-17.35492 m -450.64548,90.82831 c 20.71473,-16.11048 43.37869,-67.10343 78.93171,-68.49175 33.72332,-1.99835 76.01337,22.69283 122.51001,15.59435 44.457008,-3.68522 81.847106,-40.36008 135.332508,-22.64236 39.091187,6.4338 71.458138,-2.06459 112.028192,-16.49688 m -448.80225,91.04132 c 20.34033,-16.66296 42.68538,-67.63795 78.31813,-68.88422 33.58709,-1.8398 76.44024,22.54385 123.32045,15.08964 43.612327,-3.90735 81.329384,-39.32351 133.742787,-22.81627 39.34266,5.84855 70.583288,-2.26434 111.577833,-15.63892 m -446.95873,91.23012 c 19.9675,-17.21789 42.00101,-68.1467 77.70426,-69.25235 33.45081,-1.68124 76.86712,22.39489 124.13088,14.58502 42.767717,-4.12955 80.811691,-38.28712 132.153079,-22.99025 39.59402,5.26318 69.708497,-2.46408 111.127461,-14.7809 m -445.11616,91.39428 c 19.59679,-17.77364 41.32651,-68.62939 77.09133,-69.59596 33.31456,-1.52267 77.29395,22.24599 124.94132,14.08045 41.923035,-4.35182 80.293927,-37.25064 130.563386,-23.16422 39.845451,4.67779 68.833563,-2.66388 110.677034,-13.92292 m -443.27342,91.53156 c 19.2281,-18.33032 40.66168,-69.08368 76.4783,-69.91267 33.17828,-1.36415 77.72081,22.097 125.75174,13.57578 41.078429,-4.57394 79.776209,-36.21411 128.973669,-23.33815 40.096868,4.09254 67.958699,-2.86361 110.226661,-13.06491 M -319.3874,325.2043 c 18.86137,-18.888 40.00653,-69.50685 75.86397,-70.19986 33.04203,-1.20559 78.14762,21.94803 126.56219,13.07113 40.233809,-4.79615 79.25852,-35.17765 127.38398,-23.51213 40.348256,3.50722 67.083836,-3.06334 109.77621,-12.2069 m -439.58709,91.71907 c 18.49762,-19.44353 39.36249,-69.90026 75.25129,-70.45894 32.90576,-1.04706 78.57452,21.799 127.37263,12.56651 39.389151,-5.01838 78.740823,-34.1412 125.7943398,-23.68611 40.5996872,2.92186 66.2089162,-3.26308 109.3257402,-11.3489 m -437.74391,91.76648 c 18.13647,-19.99786 38.72903,-70.25964 74.63781,-70.68578 32.76949,-0.88853 79.00136,21.65009 128.18309,12.06183 38.544501,-5.24052 78.223075,-33.10468 124.2045641,-23.86001 C 48.488504,242.7672 72.971524,236.96783 116.5128,229.93981 m -435.90083,91.7809 c 17.77839,-20.54915 38.10687,-70.58425 74.02437,-70.87965 32.63324,-0.72997 79.42826,21.5011 128.99351,11.55724 37.699864,-5.46267 77.705398,-32.06822 122.614901,-24.03402 41.102478,1.75122 64.459218,-3.66254 108.424969,-9.63288 m -434.05762,91.76041 c 17.42368,-21.0965 37.49633,-70.872 73.41083,-71.03855 32.497,-0.57138 79.85509,21.35222 129.80395,11.0526 36.855253,-5.68491 77.18769,-31.03171 121.025208,-24.20791 41.353909,1.16585 63.584384,-3.86236 107.974612,-8.77494 m -432.21458,91.70342 c 17.07268,-21.63844 36.89789,-71.1213 72.79743,-71.16094 32.36068,-0.41284 80.28195,21.20322 130.61436,10.54795 36.0106,-5.90714 76.66994,-29.99522 119.4355149,-24.38188 41.6053111,0.58052 62.7095351,-4.06213 107.5241751,-7.91689 m -430.37153,91.60804 c 16.72572,-22.17373 36.31195,-71.33016 72.18407,-71.24501 32.22446,-0.25432 80.7088,21.05425 131.42477,10.04335 35.165992,-6.12931 76.152291,-28.95876 117.8458803,-24.55585 41.8566857,-0.001 61.8345867,-4.26184 107.0737197,-7.05894 m -428.52868,91.47261 c 16.38315,-22.70084 35.73892,-71.49684 71.57091,-71.28896 32.08817,-0.0955 81.1357,20.9053 132.23519,9.5387 34.321363,-6.35147 75.634622,-27.92228 116.25615461,-24.72982 C 42.782215,229.50863 61.633865,225.63721 107.29746,223.89789 m -426.6858,91.29477 c 16.04529,-23.21843 35.17916,-71.61887 70.95767,-71.29055 31.95194,0.0628 81.56252,20.7563 133.04564,9.03406 33.476771,-6.5737 75.116904,-26.88581 114.66645156,-24.90372 C 41.64094,226.85693 59.366324,223.37105 105.45437,222.6895 m -424.8423,91.07178 c 15.71244,-23.72506 34.63298,-71.69344 70.34386,-71.24693 31.81565,0.2214 81.9894,20.60736 133.85612,8.52939 32.632054,-6.79592 74.599119,-25.84929 113.0766943,-25.07767 C 40.499722,224.2052 57.09877,221.10489 103.61131,221.48112 m -423.0017,90.80697 c 15.38565,-24.21738 34.10155,-71.72386 69.73291,-71.16156 31.67941,0.37992 82.41625,20.45838 134.66654,8.02479 31.787421,-7.01807 74.081403,-24.8128 111.4870781,-25.25163 C 39.358476,221.55348 54.831244,218.8388 101.7683,220.27272 m -421.15958,90.4916 c 15.06445,-24.69576 33.5842,-71.70112 69.1204,-71.0256 31.54313,0.53846 82.8431,20.30954 135.47695,7.52019 30.94283,-7.24029 73.563729,-23.77635 109.8973624,-25.42563 43.1137836,-2.93152 57.4602996,-5.26063 104.8217306,-2.76892 m -419.314413,90.12106 c 14.74911,-25.1587 33.08114,-71.62063 68.50496,-70.83448 31.40692,0.69703 83.26999,20.1605 136.28739,7.01552 30.098192,-7.46243 73.046008,-22.73988 108.3076836,-25.59955 43.3651434,-3.51686 56.5854074,-5.4604 104.3713294,-1.91098" />
  <path
     id="path2997-1-0"
     style="fill:url(#linearGradient4551-1-7);fill-opacity:1;stroke:none;stroke-width:0.138192px;stroke-linecap:butt;stroke-linejoin:miter;stroke-opacity:1"
     d="m 206.22813,61.953329 c -77.16707,9.70384 -71.63094,108.124961 -142.601167,119.567681 -47.178621,2.64954 -62.1549938,-10.34998 -98.053107,-1.31179 -42.760017,10.76585 -68.275506,47.96821 -104.812606,51.48308 -39.13492,3.76472 -83.64361,-15.15729 -126.08845,5.04886 -26.35319,12.5456 -38.64234,44.49717 -54.06037,67.42286 v 31.23034 c 34.58078,-19.82644 64.5966,-50.1509 89.55218,-58.05596 25.43511,-8.05694 51.55531,-3.32774 78.16546,-2.68455 23.43565,0.56644 47.78931,-15.68798 71.959794,-17.29274 48.322895,-3.20848 100.550006,9.1898 147.908551,1.4543 45.965425,-7.50794 78.559325,-44.69439 121.879135,-55.66966 5.25498,-1.33136 10.65493,-2.1034 16.15058,-2.5068 z" />
  <path
     id="path6969-8-3"
     style="fill:url(#linearGradient12309-5-2);fill-opacity:1;stroke:none;stroke-width:0.138192px;stroke-linecap:butt;stroke-linejoin:miter;stroke-opacity:1"
     d="m 206.2284,129.38308 c -48.04535,6.38457 -72.28862,25.82608 -101.98529,66.5199 C 68.994893,244.20413 3.340148,225.36649 3.340148,225.36649 l 77.48057,27.3338 125.407682,-22.82965 z" />
  <path
     id="path3305-3"
     style="fill:none;fill-opacity:1;stroke:url(#linearGradient6948-6);stroke-width:0.138192px;stroke-linecap:butt;stroke-linejoin:miter;stroke-opacity:1"
     d="m -162.62355,252.92246 c 11.43951,1.05252 41.0465,-0.56575 52.26189,-4.39355 57.037205,-27.76488 78.354356,-59.35023 143.3795,-40.48179 72.91099,21.15671 98.03462,-78.15611 173.31702,-89.15134 m -369.36962,156.38011 c 0,0 26.44155,-1.30591 63.472382,-3.52677 65.397088,-4.60751 85.457426,-3.39 156.978201,16.02549 49.169847,13.34797 101.794267,-50.72559 148.935647,-59.20272 m -369.37205,45.93322 c 0.39449,0.0362 26.94517,-1.28042 63.085788,-3.55669 65.079723,-5.48508 85.390369,-5.33407 156.509366,14.07692 49.653676,13.55231 102.208256,-50.62877 149.780796,-59.62833 m -369.36176,48.33726 c 0.78896,0.0731 27.44877,-1.25488 62.69923,-3.58651 64.761061,-6.36046 85.316344,-7.28722 156.040357,12.12834 50.144723,13.76602 102.623153,-50.57288 150.618833,-60.11459 m -369.34424,50.80194 c 1.18339,0.10873 27.9524,-1.2293 62.31269,-3.61644 64.386789,-7.2348 85.320284,-9.22605 155.57144,10.17992 50.64386,13.98971 103.03846,-50.56228 151.44925,-60.6638 m -369.31919,53.32954 c 1.57781,0.14516 28.45601,-1.20383 61.92607,-3.64632 64.084065,-8.10931 85.222287,-11.2009 155.102521,8.23129 51.158689,14.22613 103.468949,-50.60451 152.293469,-61.28262 m -369.30792,55.92684 c 1.97237,0.18156 28.95967,-1.17833 61.53953,-3.67619 63.794643,-8.9821 85.103409,-13.18987 154.633686,6.28277 C 104.89815,288.5044 157.12016,223.32326 206.35562,212.0558 m -369.30527,58.59524 c 2.36677,0.21771 29.46325,-1.15275 61.1529,-3.70606 63.476596,-9.83207 84.95066,-15.19702 154.164738,4.33429 52.232302,14.73927 104.356302,-50.86885 153.997112,-62.73328 m -369.30058,61.33421 c 2.76125,0.25409 29.96686,-1.12719 60.76641,-3.73593 63.154176,-10.69034 84.841396,-17.20139 153.695795,2.38579 52.787355,15.01654 104.797725,-51.10113 154.835605,-63.56327 m -369.28366,64.14262 c 3.15575,0.29037 30.47053,-1.10171 60.37983,-3.76581 62.832051,-11.54364 84.720131,-19.20151 153.226919,0.43717 C 104.0778,281.08664 155.892,214.37859 206.34931,201.31737 m -369.25644,67.02123 c 3.55018,0.32662 30.97408,-1.07615 59.99326,-3.79571 62.510591,-12.39144 84.59315,-21.22105 152.757898,-1.5113 54.124642,15.65004 105.513042,-51.76156 156.484262,-65.43405 m -369.22122,69.97023 c 3.94467,0.36297 31.47771,-1.05065 59.60666,-3.82561 62.190242,-13.23363 84.460513,-23.26015 152.289034,-3.45981 54.786176,15.99305 105.933346,-52.24714 157.330706,-66.48326 m -369.21226,72.9979 c 4.33917,0.39924 31.98138,-1.02515 59.22013,-3.85552 61.871573,-14.06971 84.320036,-25.31417 151.820062,-5.40835 55.474838,16.35957 106.348298,-52.83856 158.169218,-67.5996 m -369.19524,76.09265 c 4.73361,0.43552 32.48497,-0.99961 58.83356,-3.8854 61.55516,-14.89918 84.172234,-27.38439 151.351199,-7.3569 56.195071,16.75296 106.767211,-53.55053 159.009321,-68.78177 m -369.17986,79.25326 c 5.12805,0.47181 32.98858,-0.97408 58.44696,-3.9153 61.241471,-15.72175 84.016793,-29.4718 150.882244,-9.30539 56.946946,17.17502 107.193256,-54.39609 159.848866,-70.0235 m -369.16389,82.4734 c 5.52254,0.50811 33.49217,-0.94859 58.06039,-3.94521 60.931245,-16.53703 83.853859,-31.57786 150.413328,-11.25388 57.729852,17.62785 107.634362,-55.38973 160.687812,-71.31712 m -369.14739,85.74537 c 5.917,0.54442 33.99587,-0.92303 57.67387,-3.97505 60.624946,-17.34504 83.683338,-33.70302 149.944431,-13.20247 C 103.33806,264.6485 152.89844,189.9908 206.32269,173.88345 m -369.13057,89.05946 c 6.31149,0.58071 34.49944,-0.89753 57.28727,-4.00492 60.323301,-18.14504 83.50495,-35.84762 149.475511,-15.15098 59.379819,18.62895 108.613989,-57.87698 162.367079,-74.01925 m -369.11567,92.4044 c 6.70594,0.61701 35.00305,-0.87205 56.9007,-4.03487 60.026795,-18.93701 83.346354,-38.09909 149.0065,-17.09949 59.52935,19.03881 109.42705,-59.46343 163.20219,-75.40017 m -369.09518,95.76369 c 7.10037,0.65332 35.50665,-0.84649 56.51411,-4.06474 59.736088,-19.72078 83.153576,-40.2865 148.537645,-19.04802 60.362595,19.60735 109.975115,-61.13683 164.052055,-76.78532 m -369.08967,99.12727 c 7.49488,0.68957 36.0103,-0.82094 56.12756,-4.09461 59.451637,-20.49612 82.949542,-42.48453 148.068664,-20.99655 61.227216,20.20369 110.562156,-62.97589 164.891976,-78.15011 m -369.07403,102.47045 c 7.88936,0.72594 36.51394,-0.79543 55.74102,-4.12448 59.173925,-21.26311 82.731838,-44.68604 147.599771,-22.94505 62.130279,20.8234 111.209399,-64.97154 165.732039,-79.47937 m -369.05863,105.7781 c 8.28382,0.76221 37.01757,-0.76988 55.35439,-4.15439 58.903493,-22.02113 82.496997,-46.88167 147.130881,-24.89358 63.078009,21.45874 111.929509,-67.10172 166.572619,-80.7548 M -162.7228,258.3181 c 8.67828,0.79844 37.52117,-0.74437 54.96788,-4.1843 58.640661,-22.77063 82.234022,-49.04077 146.661943,-26.84206 63.656247,21.9328 111.807547,-68.79343 166.207337,-81.69313 0.41031,-0.0934 0.81957,-0.18612 1.22788,-0.2776 m -369.05087,112.22625 c 9.07274,0.83476 38.0248,-0.71884 54.58131,-4.21417 58.385834,-23.51121 81.565166,-50.0491 146.193037,-28.79061 C 108.92748,247.85151 139.64436,155.55526 206.3488,141.4026 m -369.04326,115.37387 c 9.46724,0.8711 38.52841,-0.69332 54.19474,-4.24408 58.139265,-24.24276 81.094981,-51.68964 145.724117,-30.73916 71.246473,23.09557 101.074333,-70.62958 169.124743,-84.259 m -369.02938,118.47143 c 9.86163,0.90734 39.03197,-0.66779 53.80817,-4.27393 57.901202,-24.96541 80.598863,-53.29784 145.255204,-32.68773 71.632136,22.83379 100.491136,-72.2234 169.959656,-85.32859 m -369.00891,121.51943 c 10.25617,0.94365 39.53565,-0.64232 53.4216,-4.30383 57.67188,-25.67895 80.075543,-54.86761 144.786263,-34.63623 72.002687,22.51119 99.882367,-73.77827 170.810867,-86.35372 M -162.6519,254.46403 c 10.65062,0.97998 40.03923,-0.61675 53.03501,-4.33369 57.451376,-26.38343 79.527326,-56.40289 144.317299,-36.58478 72.336941,22.12661 99.255031,-75.28343 171.637381,-87.32841 m -368.97552,127.47604 c 11.04508,1.01624 40.54289,-0.59118 52.64846,-4.36357 57.239837,-27.07867 78.952327,-57.8943 143.848401,-38.53326 72.644279,21.67265 98.646989,-76.74981 172.494089,-88.2637" />
  <path
     id="path2985-6-7"
     style="fill:url(#linearGradient4479-5-6);fill-opacity:1;stroke:none;stroke-width:0.138192px;stroke-linecap:butt;stroke-linejoin:miter;stroke-opacity:1"
     d="m 206.22813,169.64952 c -5.28013,0.76437 -10.83795,1.76673 -16.88581,3.09586 -62.09076,13.64555 -73.13089,64.7195 -119.816679,60.02 -22.68578,-2.28361 -72.2994862,-16.26803 -94.596635,-12.0823 -37.989865,7.13164 -54.355816,31.49587 -93.270166,35.06804 -45.66416,4.19174 -74.57198,-18.58376 -119.84576,-11.80536 -38.04055,5.69543 -59.25314,49.10206 -76.99351,70.80881 -1.35576,1.6589 -2.7614,3.20286 -4.20714,4.65959 v 15.96038 c 13.72281,-6.76546 25.3599,-13.59317 31.93912,-17.86711 94.4662,-80.39441 79.78781,-13.32997 152.39039,-17.97801 24.54788,-1.57156 86.609688,-48.50852 111.272405,-53.63877 50.93718,-10.59566 61.084146,24.96989 111.834309,16.74628 41.951506,-6.79795 79.188196,-30.41354 118.179476,-44.97995 z" />
  <path
     id="path2974-6-7"
     style="fill:url(#linearGradient4687-8-2);fill-opacity:1;stroke:none;stroke-width:0.138192px;stroke-linecap:butt;stroke-linejoin:miter;stroke-opacity:1"
     d="m 206.22813,203.80678 c -0.8104,0.1336 -1.61741,0.24915 -2.4326,0.40765 -30.28152,5.88733 -52.20104,26.28047 -89.39136,48.05375 -41.378878,24.22556 -101.027408,-29.47454 -142.142095,-19.17228 -41.771633,10.46686 -60.226394,46.44904 -101.660185,52.24986 -41.91622,5.86833 -67.19758,-45.78073 -122.39766,-23.74079 -33.12521,13.226 -43.90747,46.50243 -59.9054,62.90651 -2.53539,2.59976 -5.09268,4.93479 -7.6864,7.05253 v 18.68753 c 4.22596,-1.75456 8.52722,-3.85707 12.92402,-6.37828 33.82595,-19.39629 47.48936,-61.58919 88.30135,-64.19186 22.27387,-1.42049 48.06456,26.10799 82.23158,30.33647 45.702441,5.65619 77.646721,-37.80508 103.918725,-42.4709 54.118741,-9.61122 73.24442,30.03965 113.468538,34.50981 52.574877,5.84269 85.593607,-36.13954 124.771487,-58.1397 z" />
  <path
     id="path1152-4"
     style="opacity:0.239939;fill:#e9ebed;fill-opacity:0.491332;stroke:none;stroke-width:0.138192px;stroke-linecap:butt;stroke-linejoin:miter;stroke-opacity:1"
     d="m 206.23992,211.85014 c -37.59609,26.56002 -69.53486,90.54487 -118.506358,90.52541 48.939678,1.96567 80.914058,-37.36447 118.506358,-58.43717 z M -9.8678789,243.15616 c -47.0733021,0.77441 -73.2756181,64.74741 -121.4016911,67.27229 43.208658,2.26889 73.895669,-38.37727 99.257675,-42.88148 54.118741,-9.61122 73.244448,30.03965 113.468538,34.50981 C 43.746522,297.86603 34.649995,242.4238 -9.8678789,243.15616 Z M -219.97196,267.96415 c -40.14502,-0.48111 -69.07133,66.10371 -99.41634,77.65426 v 3.97577 c 4.14673,-1.86415 8.31912,-3.92564 12.46864,-6.2042 33.82594,-19.39631 47.94547,-61.10591 88.75746,-63.70858 22.27387,-1.42049 48.06456,26.23873 82.23158,30.46721 -34.16702,-4.22848 -47.13102,-41.74209 -84.04134,-42.18446 z" />
  <path
     id="path4167-2"
     style="fill:url(#linearGradient14655-2);fill-opacity:1;stroke:none;stroke-width:0.138192px;stroke-linecap:butt;stroke-linejoin:miter;stroke-opacity:1"
     d="m 206.22813,240.39302 c -36.38096,21.96578 -69.33365,60.51644 -115.862929,61.91643 -0.872418,0.0406 -1.748319,0.0672 -2.631639,0.0668 1.529379,0.0615 3.042186,0.0827 4.539117,0.0654 5.986814,-0.0696 11.719881,-0.75662 17.242761,-1.94199 0.99042,-0.21256 1.96595,-0.45887 2.94309,-0.7029 0.38524,-0.0961 0.77724,-0.17595 1.16052,-0.2769 0,-2e-4 0,-3.8e-4 0.004,-7.5e-4 0.65058,-0.17138 1.28969,-0.37125 1.93462,-0.55601 0.69875,-0.20016 1.40318,-0.38692 2.09551,-0.60228 1.33006,-0.41379 2.64788,-0.85498 3.95517,-1.32206 0,-3.9e-4 0,-0.001 0.004,-0.001 1.30706,-0.46703 2.6034,-0.95963 3.88906,-1.47632 0,-3.7e-4 0.004,-10e-4 0.004,-10e-4 0.14936,-0.06 0.29519,-0.12735 0.44434,-0.18802 1.13539,-0.46212 2.26615,-0.93576 3.38598,-1.43372 1.26558,-0.56278 2.521,-1.1473 3.76789,-1.75248 0,-7.5e-4 0.004,-10e-4 0.004,-0.003 1.17725,-0.57139 2.34607,-1.16406 3.50789,-1.77011 0.0701,-0.0367 0.14157,-0.0699 0.21154,-0.10646 1.22914,-0.64378 2.4496,-1.30567 3.66286,-1.98458 0,-10e-4 0.004,-10e-4 0.006,-0.003 1.21333,-0.67895 2.4193,-1.37477 3.61809,-2.08522 0,-0.001 0.004,-0.001 0.006,-0.003 1.19868,-0.71042 2.39067,-1.43506 3.57623,-2.17335 0,-10e-4 0.004,-0.003 0.006,-0.004 1.18552,-0.73834 2.36423,-1.48937 3.53801,-2.25194 0,-10e-4 0.004,-0.003 0.006,-0.004 2.34911,-1.52623 4.67607,-3.09769 6.98645,-4.69924 0,-10e-4 0.004,-0.003 0.006,-0.004 1.07548,-0.74556 2.13716,-1.51521 3.20603,-2.2725 1.22926,-0.87094 2.4658,-1.73104 3.68783,-2.6133 4.56651,-3.29683 9.08779,-6.65758 13.60931,-9.96551 0,-0.001 0.004,-0.001 0.004,-0.003 0.14696,-0.1076 0.29377,-0.21212 0.44069,-0.31951 2.11653,-1.54675 4.23324,-3.08403 6.35476,-4.59421 2.26409,-1.61172 4.53341,-3.19616 6.81381,-4.73816 v -7.5e-4 c 1.84189,-1.24549 3.69814,-2.43954 5.55711,-3.62249 0.44626,-0.28393 0.88647,-0.58983 1.33383,-0.86963 1.15475,-0.72211 2.31347,-1.42923 3.47706,-2.1212 0.67378,-0.40068 1.35302,-0.7841 2.0301,-1.17371 0.49302,-0.28365 0.9829,-0.57671 1.47779,-0.8542 z m -220.042395,23.3853 v 7.5e-4 c -45.786256,-1.18798 -65.412666,47.89587 -117.455305,46.64939 43.208686,2.26889 73.895669,-38.37727 99.257675,-42.88148 1.644364,-0.29204 3.253778,-0.53467 4.835121,-0.73816 0.522547,-0.0672 1.025067,-0.10589 1.540963,-0.16379 1.048349,-0.11769 2.09775,-0.23631 3.11935,-0.31656 0.593513,-0.0466 1.167014,-0.0664 1.751758,-0.10063 0.914675,-0.0539 1.831893,-0.11129 2.725674,-0.13588 0.608593,-0.0168 1.200302,-0.01 1.799486,-0.0142 0.849507,-0.006 1.700634,-0.0114 2.531778,0.007 0.578703,0.0128 1.144231,0.0473 1.714293,0.0735 0.834909,0.0381 1.667815,0.0776 2.4847598,0.14028 0.5421755,0.0416 1.0747571,0.0969 1.6092575,0.1491 0.8136755,0.0795 1.6236271,0.16366 2.420133,0.26662 0.5209979,0.0675 1.0344202,0.14546 1.5482972,0.22255 0.7986948,0.11968 1.5924292,0.24632 2.374594,0.38854 0.4746772,0.0864 0.94509041,0.17885 1.41388333,0.27323 0.81150083,0.16315 1.61525547,0.33625 2.40984267,0.52222 0.4254143,0.0998 0.8492083,0.20184 1.2699323,0.30776 0.8207678,0.20642 1.6324961,0.42459 2.4362791,0.65369 0.3729536,0.10631 0.7455376,0.21283 1.114952,0.3239 0.8647007,0.25968 1.719168,0.53294 2.5655621,0.81675 0.291171,0.0978 0.583465,0.19407 0.872575,0.29452 0.924168,0.32078 1.83691,0.65579 2.741095,1.00259 0.200903,0.077 0.403753,0.15152 0.603746,0.22988 1.029688,0.40303 2.046995,0.82237 3.053259,1.25524 0.0651,0.028 0.131045,0.0549 0.196113,0.083 4.292462,1.85675 8.373361,3.97518 12.361392,6.19171 0.352159,0.1959 0.704077,0.39086 1.054716,0.58833 6.546386,3.68378 12.852527,7.60247 19.31625,11.14288 0.215869,0.11825 0.434468,0.23072 0.650764,0.34815 7.56385,4.10322 15.383693,7.64164 24.160182,9.55419 C 42.169045,293.52931 27.790606,264.858 -13.814265,263.77852 Z m -202.423565,14.49875 c -0.70341,-0.0142 -1.40311,0.001 -2.09917,0.0455 -40.81201,2.60269 -57.65647,46.06026 -91.42659,65.55359 -3.2642,1.88421 -6.48365,3.50383 -9.62398,4.9284 v 1.42492 c 1.31075,-0.54673 2.62247,-1.09774 3.9486,-1.71357 1.06851,-0.49952 2.14443,-1.01515 3.23688,-1.56665 0.41768,-0.21027 0.83663,-0.42591 1.25596,-0.64341 1.47766,-0.76771 2.96731,-1.56416 4.48184,-2.43262 33.82595,-19.39625 47.4901,-61.58915 88.30209,-64.19181 16.70541,-1.06539 35.38873,14.2266 58.10078,23.72317 1.89266,0.79136 3.81296,1.54284 5.76278,2.24091 3.57525,1.28001 7.26198,2.34948 11.04079,3.19354 -29.56387,-6.75983 -52.81289,-30.17849 -72.97998,-30.56195 z m 72.97998,30.56195 c 0.57489,0.13147 1.15,0.26118 1.72971,0.37973 -0.58073,-0.1164 -1.15389,-0.2511 -1.72971,-0.37973 z m 1.72971,0.37973 c 0.76632,0.15359 1.53204,0.30809 2.30702,0.43923 -0.77383,-0.13289 -1.54166,-0.2827 -2.30702,-0.43923 z m 2.30702,0.43923 c 0.11541,0.0198 0.23039,0.0402 0.34594,0.0596 -0.11569,-0.019 -0.23049,-0.0399 -0.34594,-0.0596 z m 0.34594,0.0596 c 0.97544,0.16043 1.95521,0.30869 2.94456,0.43112 -0.98874,-0.12237 -1.96945,-0.26858 -2.94456,-0.43112 z m 213.539293,-8.80356 c 1.085531,0.24667 2.19305,0.46686 3.324276,0.6581 1.140237,0.18848 2.293408,0.35419 3.468254,0.48476 -2.336744,-0.25969 -4.587186,-0.66227 -6.79253,-1.14286 z" />
  <path
     id="path16839-9"
     style="fill:url(#linearGradient25349-7);fill-opacity:1;stroke:none;stroke-width:1.38192;stroke-linecap:butt;stroke-linejoin:miter;stroke-miterlimit:4;stroke-dasharray:none;stroke-opacity:1"
     d="m 206.22813,167.55844 c 0,0 -10.25656,1.83567 -15.72017,3.44841 -65.05268,19.20213 -70.0639,58.41643 -112.817792,62.19776 -18.354743,1.62337 -71.2021302,-16.95679 -100.596639,-12.86453 -37.955767,5.28415 -57.630544,30.03621 -90.821209,34.69039 -40.8713,5.73119 -83.08847,-20.31324 -129.17346,-11.14984 -35.93369,7.14495 -50.33114,44.72165 -76.48643,73.59154 v 1.74333 c 22.04785,-22.06609 39.87192,-66.11045 76.48643,-74.394 44.64999,-10.10145 92.60592,20.18472 130.09948,11.54572 40.418825,-9.31303 52.239078,-29.17277 89.906204,-35.09435 33.413439,-5.25286 79.08066,17.00529 100.803782,14.34747 39.841624,-4.87461 54.454074,-45.20772 116.039234,-63.01745 4.14177,-1.19777 12.28057,-1.91187 12.28057,-1.91187 z" />
</svg>
