<?xml version="1.0" encoding="UTF-8"?>
<svg width="1024" height="768" version="1.1" viewBox="0 0 270.93 203.2" xmlns="http://www.w3.org/2000/svg" xmlns:xlink="http://www.w3.org/1999/xlink">
<defs>
<linearGradient id="linearGradient25627">
<stop stop-color="#bda62c" offset="0"/>
<stop stop-color="#ae9a28" stop-opacity=".98824" offset=".14669"/>
<stop stop-color="#8c7b20" stop-opacity=".96863" offset=".30531"/>
<stop stop-color="#bda62c" stop-opacity=".95686" offset=".51079"/>
<stop stop-color="#82721e" stop-opacity=".94902" offset=".6231"/>
<stop stop-color="#c0ab2c" stop-opacity=".99608" offset=".83541"/>
<stop stop-color="#7f6f1e" stop-opacity=".92157" offset="1"/>
</linearGradient>
<linearGradient id="linearGradient25349-4" x1="-19.327" x2="365.1" y1="174.88" y2="71.87" gradientTransform="matrix(1.0436 0 0 1.0436 -111.95 -8.8893)" gradientUnits="userSpaceOnUse" xlink:href="#linearGradient25627"/>
<linearGradient id="linearGradient14655-6" x1="-46.183" x2="1721.9" y1="706.05" y2="445.69" gradientTransform="matrix(.27613 0 0 .27613 -111.95 -8.8893)" gradientUnits="userSpaceOnUse">
<stop stop-color="#bda62c" offset="0"/>
<stop stop-color="#615516" stop-opacity=".98824" offset=".098576"/>
<stop stop-color="#cab12f" stop-opacity=".97647" offset=".25339"/>
<stop stop-color="#8c7b20" stop-opacity=".96863" offset=".33815"/>
<stop stop-color="#87771f" stop-opacity=".96471" offset=".42151"/>
<stop stop-color="#bda62c" stop-opacity=".95686" offset=".53339"/>
<stop stop-color="#82721e" stop-opacity=".94902" offset=".6231"/>
<stop stop-color="#80711e" stop-opacity=".93725" offset=".73471"/>
<stop stop-color="#d7be31" stop-opacity=".92941" offset=".83541"/>
<stop stop-color="#bda62c" stop-opacity=".92175" offset="1"/>
</linearGradient>
<linearGradient id="linearGradient4687-8-8" x1="1155.1" x2="93.584" y1="262.51" y2="615.88" gradientTransform="matrix(.33644 .035714 -.035714 .33644 -89.424 -25.572)" gradientUnits="userSpaceOnUse">
<stop stop-color="#8b5cf6" offset="0"/>
<stop stop-color="#6d28d9" offset=".21248"/>
<stop stop-color="#6f5cf6" offset=".42964"/>
<stop stop-color="#7c3aed" offset=".59961"/>
<stop stop-color="#6376f6" offset=".80968"/>
<stop stop-color="#6d28d9" offset="1"/>
</linearGradient>
<linearGradient id="linearGradient4479-5-0" x1="1143.2" x2="120.86" y1="196.75" y2="539.49" gradientTransform="matrix(.33644 .035714 -.035714 .33644 -89.424 -25.572)" gradientUnits="userSpaceOnUse">
<stop stop-color="#8b5cf6" offset="0"/>
<stop stop-color="#5151dc" offset=".25152"/>
<stop stop-color="#3b82f6" offset=".4454"/>
<stop stop-color="#8b69f6" offset=".63944"/>
<stop stop-color="#60a5fa" offset=".83593"/>
<stop stop-color="#60a5fa" offset="1"/>
</linearGradient>
<linearGradient id="linearGradient6948-1" x1="466.89" x2="1404.4" y1="475.5" y2="195.51" gradientTransform="matrix(.33833 0 0 .33833 -118.59 -37.922)" gradientUnits="userSpaceOnUse">
<stop stop-color="#3e2fdd" offset="0"/>
<stop stop-color="#a4007e" offset="1"/>
</linearGradient>
<linearGradient id="linearGradient12309-5-40" x1="1181.7" x2="861.39" y1="252.37" y2="436.6" gradientTransform="matrix(.33833 0 0 .33833 -118.59 -36.839)" gradientUnits="userSpaceOnUse">
<stop stop-color="#7e5af0" offset="0"/>
<stop stop-color="#7c61ee" offset=".49538"/>
<stop stop-color="#4c6fe2" offset="1"/>
</linearGradient>
<linearGradient id="linearGradient4551-1-5" x1="1112.8" x2="89.147" y1="69.067" y2="487.89" gradientTransform="matrix(.33644 .035714 -.035714 .33644 -89.424 -25.572)" gradientUnits="userSpaceOnUse">
<stop stop-color="#60a5fa" offset="0"/>
<stop stop-color="#365fd8" offset=".23216"/>
<stop stop-color="#3b82f6" offset=".43871"/>
<stop stop-color="#4d4eeb" offset=".65563"/>
<stop stop-color="#60a5fa" offset="1"/>
</linearGradient>
<linearGradient id="linearGradient24274-8" x1="132.11" x2="1068.3" y1="575.51" y2="320.25" gradientTransform="matrix(.33644 .035714 -.035714 .33644 -89.424 -25.572)" gradientUnits="userSpaceOnUse">
<stop stop-color="#1c52f2" offset="0"/>
<stop stop-color="#d62bc3" stop-opacity=".42363" offset="1"/>
</linearGradient>
<linearGradient id="linearGradient118139" x1="100.6" x2="345.1" y1="115.79" y2="-9.8374" gradientTransform="matrix(.92069 0 0 .92069 -60.2 8.7662)" gradientUnits="userSpaceOnUse">
<stop stop-color="#8b5cf6" offset="0"/>
<stop stop-color="#5151dc" offset=".25152"/>
<stop stop-color="#3b82f6" offset=".4454"/>
<stop stop-color="#8b5cf6" offset=".63944"/>
<stop stop-color="#60a5fa" offset=".83593"/>
<stop stop-color="#60a5fa" offset="1"/>
</linearGradient>
<linearGradient id="linearGradient161031" x1="-12.42" x2="373.66" y1="169.75" y2="-5.834" gradientTransform="matrix(.92069 0 0 .92069 -60.2 2.9283)" gradientUnits="userSpaceOnUse" xlink:href="#linearGradient25627"/>
</defs>
<rect width="270.93" height="203.2" fill="#1b1e20" stop-color="#000000" style="-inkscape-stroke:none;font-variation-settings:normal;paint-order:stroke fill markers"/>
<path d="m276.85-6.9211c-49.987 6.2859-46.401 71.122-92.373 78.535-30.561 1.7163-40.262-7.8219-63.516-1.9672-27.699 6.9738-44.227 32.19-67.895 34.467-25.351 2.4387-54.182-10.302-81.677 2.7869-17.071 8.1267-25.031 28.895-35.019 43.746v18.992c22.4-12.843 41.844-32.486 58.009-37.607 16.476-5.2191 33.396-2.1556 50.633-1.739 15.181 0.36692 30.957-10.162 46.614-11.202 31.302-2.0784 65.134 5.9529 95.811 0.94205 29.775-4.8634 50.889-28.952 78.95-36.061 3.404-0.86242 6.902-1.3625 10.462-1.6238z" fill="url(#linearGradient161031)"/>
<path d="m30.694 127.35s25.956-4.2274 38.954-6.215c18.647-2.8515 37.52-4.3827 55.995-8.1926 18.466-3.8082 37.12-7.6587 54.643-14.622 22.651-9.0007 41.998-25.001 64.343-34.735 10.387-4.5252 32.192-10.908 32.192-10.908m-246.68 74.168s26.181-4.174 39.264-6.309c18.644-3.0425 37.434-5.3224 55.909-9.2641 18.504-3.9481 37.367-7.2938 54.909-14.384 22.506-9.0972 41.43-25.54 63.485-35.682 10.685-4.9133 33.142-12.097 33.142-12.097m-247.26 77.232s26.407-4.1186 39.573-6.4019c18.646-3.2336 37.344-6.2587 55.824-10.334 18.542-4.0888 37.616-6.927 55.176-14.15 22.361-9.1981 40.843-26.098 62.605-36.636 10.974-5.314 34.071-13.311 34.071-13.311m-247.8 80.327s26.634-4.0612 39.881-6.4936c18.653-3.4249 37.248-7.1918 55.74-11.402 18.579-4.2301 37.868-6.5554 55.443-13.919 22.239-9.3177 40.272-26.722 61.761-37.658 11.285-5.7429 35.077-14.58 35.077-14.58m-248.45 83.548s26.861-4.002 40.188-6.5842c18.665-3.6166 37.148-8.1218 55.656-12.469 18.616-4.372 38.121-6.1854 55.709-13.69 22.092-9.426 39.645-27.308 60.835-38.617 11.555-6.1669 35.961-15.838 35.961-15.838m-248.9 86.693s27.09-3.9411 40.494-6.6738c18.682-3.8085 37.043-9.0488 55.574-13.534 18.652-4.5143 38.377-5.8111 55.976-13.463 21.967-9.5515 39.03-27.954 59.941-39.638 11.843-6.6173 36.911-17.144 36.911-17.144m-249.45 89.948s27.319-3.8787 40.8-6.7624c18.703-4.001 36.933-9.9729 55.492-14.597 18.689-4.6568 38.635-5.4346 56.243-13.239 21.849-9.6848 38.405-28.624 59.043-40.678 12.128-7.0835 37.869-18.477 37.869-18.477m-250 93.249s27.55-3.815 41.105-6.8502c18.73-4.194 36.818-10.894 55.411-15.66 18.724-4.7995 38.895-5.0563 56.509-13.017 21.739-9.8255 37.771-29.318 58.142-41.734 12.411-7.5645 38.832-19.833 38.832-19.833m-250.55 96.59s27.781-3.7501 41.409-6.9372c18.761-4.3876 36.699-11.813 55.331-16.722 18.76-4.9422 39.157-4.6763 56.776-12.797 21.636-9.9724 37.126-30.03 57.236-42.802 12.688-8.0587 39.796-21.206 39.796-21.206m-251.1 99.959s28.013-3.6842 41.712-7.0234c18.797-4.582 36.575-12.73 55.251-17.783 18.795-5.0848 39.422-4.2949 57.043-12.578 21.54-10.125 36.473-30.759 56.33-43.881 12.962-8.5654 40.766-22.593 40.766-22.593m-251.66 103.35s28.246-3.6174 42.014-7.1089c18.838-4.7772 36.447-13.645 55.172-18.843 18.831-5.2271 39.677-3.935 57.31-12.361 21.177-10.119 35.453-30.923 54.79-44.225 12.914-8.8834 40.667-23.609 40.667-23.609l1.7097-1.1487m-252.22 106.79s28.48-3.5496 42.316-7.1935c18.882-4.973 36.314-14.557 55.095-19.902 18.865-5.3692 39.956-3.5284 57.577-12.145 21.373-10.452 35.136-32.266 54.509-46.076 13.492-9.6179 42.717-25.421 42.717-25.421m-252.77 110.23s28.714-3.4815 42.617-7.278c18.932-5.1701 36.176-15.469 55.017-20.962 18.9-5.5108 40.226-3.1442 57.844-11.929 21.299-10.62 34.456-33.031 53.599-47.172 13.748-10.155 43.693-26.834 43.693-26.834m-253.32 113.67s28.949-3.413 42.916-7.3623c18.985-5.3684 36.034-16.38 54.939-22.023 18.935-5.6518 40.497-2.7599 58.113-11.713 21.232-10.79 33.768-33.794 52.69-48.257 13.994-10.696 44.664-28.236 44.664-28.236m-253.88 117.09s29.185-3.3444 43.215-7.4465c19.043-5.5679 35.887-17.29 54.862-23.084 18.97-5.7922 40.769-2.3756 58.382-11.496 21.17-10.962 33.075-34.555 51.784-49.331 14.232-11.239 45.633-29.622 45.633-29.622m-254.43 120.47s29.421-3.2757 43.512-7.5307c19.105-5.7688 35.735-18.2 54.785-24.146 19.005-5.9319 41.042-1.9915 58.653-11.278 21.114-11.134 32.377-35.311 50.882-50.389 14.461-11.783 46.599-30.989 46.599-30.989m-254.98 123.83s29.657-3.2071 43.809-7.6149c19.17-5.9712 35.577-19.11 54.707-25.21 19.04-6.0709 41.316-1.6078 58.924-11.058 21.063-11.304 31.674-36.056 49.983-51.426 14.682-12.325 47.558-32.331 47.558-32.331m-255.53 127.13s29.894-3.1387 44.104-7.6993c19.24-6.1751 35.415-20.021 54.63-26.275 19.075-6.209 41.59-1.2245 59.197-10.837 21.017-11.474 30.97-36.792 49.092-52.443 14.894-12.864 48.514-33.646 48.514-33.646m-256.09 130.4s30.131-3.0707 44.398-7.7839c19.313-6.3806 35.248-20.931 54.552-27.341 19.111-6.3462 41.865-0.84167 59.472-10.614 20.974-11.642 30.263-37.512 48.205-53.435 15.097-13.397 49.462-34.929 49.462-34.929m-256.64 133.6s30.368-3.003 44.69-7.8688c19.39-6.5877 35.076-21.842 54.473-28.41 19.147-6.4825 42.14-0.45942 59.748-10.39 20.935-11.807 29.555-38.217 47.325-54.4 15.291-13.925 50.405-36.179 50.405-36.179m-257.2 136.74s30.606-2.936 44.982-7.954c19.471-6.7965 34.899-22.754 54.394-29.48 19.184-6.6179 42.416-0.07771 60.026-10.163 20.899-11.968 28.847-38.904 46.453-55.337 15.477-14.446 51.34-37.392 51.34-37.392m-257.75 139.82s30.844-2.8695 45.272-8.0395c19.555-7.007 34.716-23.667 54.315-30.552 19.221-6.7522 42.692 0.3034 60.306-9.9334 20.865-12.126 28.14-39.571 45.587-56.243 15.654-14.958 52.268-38.565 52.268-38.565m-258.3 142.83s31.081-2.8038 45.561-8.1255c19.643-7.2193 34.529-24.581 54.235-31.626 19.26-6.8855 42.968 0.68407 60.588-9.7016 20.833-12.279 27.434-40.217 44.73-57.117 15.824-15.461 53.187-39.699 53.187-39.699m-258.85 145.76s31.319-2.7388 45.848-8.2119c19.734-7.4334 34.336-25.496 54.154-32.702 19.298-7.0177 43.244 1.0643 60.872-9.4673 20.803-12.428 26.73-40.841 43.882-57.959 15.986-15.954 54.099-40.79 54.099-40.79m-259.41 148.63s31.557-2.6748 46.134-8.2987c19.828-7.6494 34.138-26.412 54.072-33.781 19.338-7.1489 43.52 1.4442 61.158-9.2303 20.773-12.572 26.028-41.443 43.041-58.767 16.14-16.436 55.002-41.839 55.002-41.839m-259.96 151.41s31.794-2.6116 46.419-8.386c19.925-7.8672 33.935-27.329 53.99-34.862 19.378-7.279 43.796 1.824 61.446-8.9905 20.744-12.71 25.33-42.022 42.209-59.542 16.288-16.907 55.897-42.845 55.897-42.845m-260.51 154.12s32.032-2.5495 46.702-8.4737c20.026-8.0868 33.728-28.247 53.906-35.945 19.42-7.4079 44.072 2.2037 61.737-8.7481 20.716-12.843 24.635-42.576 41.385-60.283 16.428-17.366 56.781-43.807 56.781-43.807m-261.07 156.75s32.269-2.4884 46.984-8.562c20.13-8.3083 33.514-29.167 53.822-37.03 19.462-7.5358 44.348 2.5833 62.03-8.5027 20.688-12.971 23.946-43.109 40.572-60.991 16.563-17.814 57.66-44.727 57.66-44.727m-261.62 159.31s32.506-2.4284 47.265-8.6507c20.236-8.5318 33.297-30.088 53.737-38.118 19.505-7.6626 44.624 2.9632 62.325-8.2546 20.659-13.093 23.259-43.617 39.766-61.665 16.692-18.251 58.529-45.604 58.529-45.604" fill="none" stroke="url(#linearGradient118139)" stroke-width=".089517px"/>
<path d="m-62.024 179.81c18.392-4.7538 38.101-32.754 58.261-35.766 23.787-3.554 43.156 16.823 67.809 17.293 40.835 0.77933 60.396-40.915 110.32-12.188 21.739 12.509 58.756 1.5093 78.988-22.914m-315.58 53.15c18.201-4.8802 37.7-33.321 58.063-36.24 23.699-3.4513 43.433 16.726 68.334 16.966 40.288 0.63539 60.061-40.244 109.29-12.301 21.902 12.13 58.19 1.38 78.696-22.358m-314.58 53.507c18.011-5.0067 37.298-33.888 57.864-36.714 23.61-3.3486 43.709 16.63 68.859 16.639 39.741 0.49149 59.726-39.572 108.26-12.414 22.065 11.751 57.623 1.2506 78.404-21.802m-313.59 53.865c17.82-5.1331 36.897-34.455 57.666-37.188 23.522-3.2459 43.986 16.533 69.384 16.312 39.194 0.34754 59.39-38.901 107.23-12.526 22.228 11.372 57.056 1.1211 78.112-21.246m-312.59 54.223c17.629-5.2595 36.496-35.022 57.468-37.662 23.434-3.1432 44.262 16.437 69.909 15.986 38.646 0.20357 59.055-38.229 106.2-12.639 22.391 10.993 56.49 0.99173 77.821-20.69m-311.6 54.58c17.439-5.3859 36.095-35.589 57.27-38.135 23.346-3.0404 44.539 16.34 70.434 15.659 38.099 0.0596 58.719-37.558 105.17-12.752 22.554 10.614 55.923 0.86236 77.529-20.135m-310.6 54.938c17.248-5.5123 35.694-36.156 57.071-38.609 23.257-2.9378 44.815 16.244 70.959 15.332 37.552-0.0842 58.384-36.887 104.14-12.864 22.717 10.234 55.356 0.73299 77.237-19.579m-309.61 55.295c17.057-5.6388 35.293-36.723 56.873-39.083 23.169-2.8351 45.092 16.147 71.484 15.005 37.005-0.22817 58.049-36.215 103.11-12.977 22.879 9.8552 54.789 0.60356 76.945-19.023m-308.61 55.653c16.866-5.7652 34.892-37.29 56.675-39.557 23.081-2.7323 45.368 16.051 72.009 14.678 36.458-0.37214 57.713-35.544 102.08-13.09 23.042 9.476 54.223 0.47417 76.654-18.467m-307.44 55.946c16.623-6.0577 34.389-37.8 56.295-39.966 22.993-2.6296 45.645 15.954 72.534 14.351 35.911-0.51609 57.378-34.872 101.05-13.202 23.205 9.0969 53.656 0.34479 76.362-17.911m-306.24 56.225c16.375-6.371 33.879-38.297 55.898-40.361 22.904-2.5269 45.921 15.858 73.059 14.024 35.364-0.65998 57.043-34.201 100.02-13.315 23.368 8.7177 53.089 0.21539 76.07-17.356m-305.05 56.496c16.127-6.6887 33.374-38.786 55.501-40.749 22.816-2.4242 46.198 15.761 73.584 13.697 34.816-0.80392 56.707-33.53 98.992-13.428 23.531 8.3385 52.523 0.0861 75.778-16.8m-303.85 56.76c15.879-7.0112 32.872-39.265 55.103-41.128 22.728-2.3215 46.474 15.665 74.109 13.37 34.269-0.94786 56.372-32.858 97.962-13.54 23.694 7.9593 51.956-0.0436 75.486-16.244m-302.66 57.015c15.632-7.3373 32.374-39.736 54.706-41.5 22.639-2.2188 46.751 15.568 74.634 13.044 33.722-1.0918 56.037-32.187 96.933-13.653 23.856 7.5802 51.389-0.17281 75.195-15.688m-301.47 57.261c15.384-7.6677 31.881-40.197 54.308-41.862 22.551-2.1161 47.027 15.472 75.159 12.717 33.175-1.2357 55.701-31.515 95.903-13.766 24.019 7.201 50.822-0.30213 74.903-15.132m-300.27 57.497c15.137-8.002 31.391-40.648 53.911-42.214 22.463-2.0134 47.304 15.375 75.684 12.39 32.628-1.3796 55.366-30.844 94.873-13.878 24.182 6.8218 50.256-0.43162 74.611-14.577m-299.08 57.723c14.89-8.3402 30.907-41.088 53.514-42.557 22.375-1.9107 47.58 15.279 76.209 12.063 32.081-1.5236 55.03-30.173 93.843-13.991 24.345 6.4427 49.689-0.561 74.319-14.021m-297.89 57.939c14.643-8.6818 30.426-41.517 53.117-42.889 22.286-1.808 47.857 15.182 76.734 11.736 31.534-1.6675 54.695-29.501 92.813-14.104 24.508 6.0635 49.122-0.6904 74.028-13.465m-296.69 58.144c14.397-9.027 29.951-41.934 52.719-43.21 22.198-1.7053 48.133 15.086 77.259 11.409 30.987-1.8114 54.36-28.83 91.784-14.216 24.671 5.6844 48.556-0.81978 73.736-12.909m-295.5 58.336c14.151-9.3754 29.48-42.338 52.322-43.518 22.11-1.6026 48.41 14.989 77.784 11.082 30.439-1.9554 54.024-28.158 90.754-14.329 24.834 5.3052 47.989-0.94918 73.444-12.354m-294.3 58.516c13.906-9.7265 29.014-42.729 51.924-43.815 22.022-1.4999 48.686 14.893 78.309 10.755 29.892-2.0993 53.689-27.487 89.724-14.442 24.997 4.926 47.422-1.0786 73.152-11.798m-293.11 58.683c13.662-10.08 28.554-43.106 51.527-44.098 21.933-1.3972 48.963 14.796 78.834 10.428 29.345-2.2432 53.354-26.816 88.694-14.554 25.159 4.5468 46.855-1.208 72.861-11.242m-291.92 58.836c13.418-10.436 28.1-43.468 51.13-44.367 21.845-1.2945 49.239 14.7 79.359 10.102 28.798-2.3872 53.018-26.144 87.665-14.667 25.322 4.1676 46.289-1.3374 72.569-10.686m-290.72 58.974c13.176-10.794 27.65-43.814 50.732-44.621 21.757-1.1918 49.516 14.603 79.884 9.7747 28.251-2.5311 52.683-25.473 86.635-14.78 25.485 3.7885 45.722-1.4668 72.277-10.13m-289.53 59.096c12.934-11.153 27.207-44.144 50.335-44.86 21.669-1.0891 49.792 14.507 80.409 9.4478 27.704-2.675 52.348-24.801 85.605-14.892 25.648 3.4093 45.155-1.5962 71.985-9.5747m-288.33 59.203c12.694-11.513 26.77-44.456 49.938-45.082 21.58-0.98635 50.069 14.41 80.934 9.1209 27.157-2.819 52.012-24.13 84.575-15.005 25.811 3.0302 44.589-1.7256 71.694-9.0189m-287.14 59.292c12.455-11.874 26.34-44.751 49.541-45.288 21.492-0.88366 50.345 14.314 81.459 8.794 26.609-2.9629 51.677-23.459 83.546-15.118 25.974 2.651 44.022-1.855 71.402-8.4631m-285.95 59.362c12.218-12.235 25.915-45.025 49.143-45.474 21.404-0.78095 50.622 14.217 81.984 8.4671 26.062-3.1068 51.342-22.787 82.516-15.231 26.137 2.2719 43.455-1.9844 71.11-7.9073m-284.75 59.413c11.982-12.595 25.498-45.279 48.746-45.641 21.315-0.67825 50.898 14.121 82.509 8.1402 25.515-3.2508 51.006-22.116 81.486-15.343 26.299 1.8927 42.888-2.1137 70.818-7.3515m-283.56 59.444c11.748-12.954 25.088-45.512 48.348-45.788 21.227-0.57556 51.175 14.024 83.034 7.8133 24.968-3.3947 50.671-21.444 80.456-15.456 26.462 1.5135 42.322-2.2432 70.527-6.7957m-282.36 59.453c11.516-13.311 24.685-45.723 47.951-45.914 21.139-0.47286 51.451 13.928 83.559 7.4865 24.421-3.5386 50.335-20.773 79.427-15.569 26.625 1.1344 41.755-2.3725 70.235-6.2399m-281.17 59.44c11.287-13.666 24.289-45.909 47.554-46.017 21.051-0.37013 51.728 13.831 84.083 7.1596 23.874-3.6825 50-20.102 78.397-15.681 26.788 0.75521 41.188-2.5019 69.943-5.6842m-279.98 59.403c11.059-14.017 23.901-46.07 47.156-46.096 20.962-0.26743 52.004 13.735 84.608 6.8327 23.327-3.8265 49.665-19.43 77.367-15.794 26.951 0.37605 40.622-2.6313 69.651-5.1284m-278.78 59.341c10.834-14.364 23.522-46.206 46.759-46.151 20.874-0.16473 52.281 13.638 85.133 6.5058 22.78-3.9704 49.329-18.759 76.337-15.907 27.114-9.2e-4 40.055-2.7607 69.359-4.5726m-277.59 59.253c10.613-14.705 23.151-46.314 46.362-46.179 20.786-0.0619 52.558 13.542 85.658 6.1789 22.232-4.1143 48.994-18.087 75.308-16.019 27.277-0.38229 39.488-2.8901 69.068-4.0168m-276.4 59.138c10.394-15.04 22.788-46.393 45.964-46.18 20.698 0.0407 52.834 13.445 86.183 5.852 21.685-4.2583 48.659-17.416 74.278-16.132 27.439-0.76148 38.921-3.0195 68.776-3.461m-275.2 58.994c10.178-15.368 22.434-46.441 45.567-46.152 20.609 0.14342 53.111 13.349 86.708 5.5251 21.138-4.4022 48.323-16.744 73.248-16.245 27.602-1.1406 38.355-3.1489 68.484-2.9052m-274.01 58.822c9.9664-15.687 22.09-46.461 45.171-46.097 20.521 0.2461 53.387 13.252 87.233 5.1982 20.591-4.5461 47.988-16.073 72.218-16.357 27.765-1.5198 37.788-3.2783 68.192-2.3495m-272.82 58.618c9.7583-15.997 21.755-46.446 44.774-46.008 20.433 0.3488 53.664 13.156 87.758 4.8714 20.044-4.6901 47.653-15.402 71.189-16.47 27.928-1.899 37.221-3.4077 67.901-1.7936m-271.62 58.378c9.5541-16.297 21.429-46.394 44.376-45.885 20.345 0.45151 53.94 13.059 88.283 4.5445 19.497-4.834 47.317-14.73 70.159-16.583 28.091-2.2781 36.654-3.5371 67.609-1.2379" fill="none" stop-color="#000000" stroke="url(#linearGradient24274-8)" stroke-width=".26855" style="font-variation-settings:normal"/>
<path d="m276.85-5.2775c-49.987 6.2859-46.401 70.04-92.373 77.453-30.561 1.7163-40.262-6.7044-63.516-0.84974-27.699 6.9738-44.227 31.073-67.895 33.349-25.351 2.4387-54.182-9.8185-81.677 3.2705-17.071 8.1267-25.031 28.824-35.019 43.675v20.23c22.4-12.843 41.844-32.486 58.009-37.607 16.476-5.2191 33.396-2.1556 50.633-1.739 15.181 0.36692 30.957-10.162 46.614-11.202 31.302-2.0784 65.134 5.9529 95.811 0.94205 29.775-4.8634 50.889-28.952 78.95-36.061 3.404-0.86243 6.902-1.3625 10.462-1.6238z" fill="url(#linearGradient4551-1-5)"/>
<path d="m276.85 38.402c-31.122 4.1358-46.827 16.729-66.063 43.09-22.833 31.288-65.362 19.086-65.362 19.086l50.19 17.706 81.236-14.788z" fill="url(#linearGradient12309-5-40)"/>
<path d="m37.913 118.43c7.4102 0.6818 26.589-0.36647 33.854-2.846 36.947-17.985 50.756-38.445 92.877-26.223 47.23 13.705 63.504-50.627 112.27-57.75m-239.27 101.3s17.128-0.84593 41.116-2.2846c42.362-2.9846 55.357-2.196 101.69 10.381 31.851 8.6464 65.94-32.859 96.476-38.35m-239.27 29.754c0.25554 0.0235 17.454-0.82943 40.865-2.3039 42.157-3.5531 55.314-3.4553 101.38 9.1186 32.164 8.7788 66.208-32.796 97.024-38.626m-239.26 31.312c0.51107 0.0473 17.781-0.81288 40.615-2.3232 41.95-4.1201 55.266-4.7205 101.08 7.8564 32.482 8.9173 66.476-32.76 97.567-38.941m-239.25 32.908c0.76657 0.0704 18.107-0.7963 40.364-2.3426 41.708-4.6865 55.268-5.9764 100.77 6.5943 32.806 9.0622 66.746-32.753 98.105-39.296m-239.23 34.545c1.0221 0.094 18.433-0.77981 40.114-2.362 41.512-5.253 55.205-7.2556 100.47 5.332 33.139 9.2153 67.024-32.78 98.652-39.697m-239.23 36.228c1.2777 0.11761 18.759-0.76329 39.864-2.3813 41.324-5.8184 55.128-8.544 100.17 4.0698 33.483 9.3771 67.311-32.845 99.204-40.144m-239.23 37.956c1.5331 0.14103 19.086-0.74671 39.613-2.4007 41.118-6.369 55.029-9.8442 99.864 2.8076 33.835 9.5477 67.599-32.951 99.755-40.637m-239.22 39.731c1.7887 0.16459 19.412-0.73017 39.363-2.42 40.91-6.9249 54.958-11.143 99.56 1.5454 34.194 9.7273 67.885-33.102 100.3-41.175m-239.21 41.55c2.0442 0.18809 19.738-0.71366 39.112-2.4394 40.701-7.4777 54.879-12.438 99.256 0.28318 34.586 9.9147 68.15-33.297 100.83-41.758m-239.19 43.415c2.2997 0.21157 20.064-0.6971 38.862-2.4588 40.493-8.0268 54.797-13.746 98.952-0.97898 35.06 10.138 68.348-33.53 101.37-42.386m-239.17 45.325c2.5552 0.23512 20.39-0.68058 38.612-2.4781 40.285-8.5724 54.711-15.067 98.649-2.2412 35.489 10.36 68.621-33.844 101.91-43.066m-239.17 47.286c2.8108 0.25861 20.717-0.66407 38.361-2.4975 40.079-9.114 54.62-16.398 98.345-3.5034 35.935 10.597 68.89-34.227 102.46-43.789m-239.15 49.291c3.0663 0.28212 21.043-0.64752 38.111-2.5168 39.874-9.6513 54.524-17.739 98.041-4.7656 36.402 10.852 69.161-34.689 103-44.555m-239.14 51.338c3.3218 0.30562 21.369-0.63098 37.86-2.5362 39.671-10.184 54.424-19.091 97.737-6.0278 36.889 11.126 69.437-35.236 103.55-45.359m-239.13 53.424c3.5774 0.32914 21.695-0.61447 37.61-2.5556 39.47-10.712 54.318-20.455 97.434-7.29 37.396 11.419 69.723-35.88 104.09-46.197m-239.12 55.544c3.8329 0.35267 22.022-0.59791 37.36-2.5749 39.271-11.236 54.208-21.832 97.13-8.5522 37.922 11.733 70.026-36.629 104.63-47.062m-239.11 57.69c4.0884 0.37616 22.348-0.5814 37.109-2.5943 39.076-11.754 54.092-23.221 96.826-9.8144 38.465 12.067 70.357-37.491 105.18-47.948m-239.1 59.857c4.3439 0.39969 22.674-0.56489 36.859-2.6137 38.884-12.267 53.99-24.68 96.522-11.077 38.562 12.333 70.884-38.519 105.72-48.842m-239.09 62.033c4.5994 0.4232 23-0.54834 36.608-2.633 38.695-12.775 53.865-26.097 96.219-12.339 39.101 12.701 71.239-39.603 106.27-49.739m-239.09 64.212c4.855 0.44668 23.326-0.53178 36.358-2.6524 38.511-13.277 53.732-27.52 95.915-13.601 39.661 13.087 71.619-40.794 106.81-50.624m-239.08 66.378c5.1105 0.47024 23.653-0.51526 36.108-2.6717 38.331-13.774 53.591-28.946 95.611-14.863 40.246 13.489 72.038-42.087 107.36-51.485m-239.07 68.52c5.366 0.49374 23.979-0.49871 35.857-2.6911 38.156-14.265 53.439-30.369 95.307-16.125 40.86 13.9 72.505-43.467 107.9-52.311m-239.06 70.628c5.6216 0.51721 24.305-0.48218 35.607-2.7105 37.986-14.75 53.269-31.767 95.004-17.388 41.235 14.207 72.426-44.563 107.66-52.919 0.26579-0.06058 0.5309-0.12056 0.79539-0.17982m-239.06 72.697c5.8771 0.54073 24.631-0.46565 35.356-2.7298 37.821-15.23 52.836-32.42 94.7-18.65 45.902 15.099 65.8-44.688 109.01-53.856m-239.06 74.736c6.1326 0.56428 24.958-0.44911 35.106-2.7492 37.661-15.704 52.531-33.483 94.396-19.912 46.152 14.961 65.473-45.752 109.55-54.581m-239.05 76.743c6.3881 0.58776 25.284-0.43257 34.855-2.7685 37.507-16.172 52.21-34.525 94.092-21.174 46.401 14.791 65.095-46.784 110.1-55.274m-239.03 78.717c6.6437 0.61127 25.61-0.41608 34.605-2.7879 37.358-16.634 51.871-35.542 93.789-22.436 46.641 14.582 64.701-47.792 110.65-55.938m-239.03 80.663c6.8992 0.6348 25.936-0.39952 34.355-2.8072 37.215-17.09 51.516-36.536 93.485-23.699 46.858 14.333 64.295-48.767 111.18-56.569m-239.01 82.576c7.1547 0.65829 26.263-0.38295 34.104-2.8266 37.078-17.541 51.143-37.502 93.181-24.961 47.057 14.039 63.901-49.716 111.74-57.175" fill="none" stroke="url(#linearGradient6948-1)" stroke-width=".089517px"/>
<path d="m276.85 64.485c-3.4203 0.49514-7.0205 1.1444-10.938 2.0054-40.221 8.8392-47.372 41.924-77.614 38.879-14.695-1.4793-46.834-10.538-61.277-7.8266-24.609 4.6197-35.21 20.402-60.418 22.716-29.58 2.7153-48.306-12.038-77.633-7.6472-24.642 3.6893-38.383 31.807-49.874 45.868-0.87823 1.0746-1.7888 2.0747-2.7253 3.0184v10.339c8.8893-4.3825 16.427-8.8053 20.689-11.574 61.193-52.077 51.684-8.6348 98.714-11.646 15.901-1.018 56.103-31.423 72.079-34.746 32.996-6.8636 39.569 16.175 72.443 10.848 27.175-4.4035 51.296-19.701 76.553-29.137z" fill="url(#linearGradient4479-5-0)"/>
<path d="m276.85 86.611c-0.52496 0.08654-1.0477 0.1614-1.5758 0.26406-19.616 3.8137-33.814 17.024-57.905 31.128-26.804 15.693-65.443-19.093-92.076-12.419-27.059 6.7802-39.013 30.088-65.853 33.846-27.152 3.8014-43.529-29.656-79.286-15.379-21.458 8.5674-28.442 30.123-38.805 40.749-1.6424 1.6841-3.2989 3.1966-4.979 4.5684v12.105c2.7375-1.1366 5.5237-2.4985 8.3718-4.1317 21.912-12.564 30.762-39.896 57.199-41.582 14.428-0.92016 31.135 16.912 53.267 19.651 29.605 3.6639 50.297-24.489 67.316-27.512 35.057-6.2259 47.446 19.459 73.502 22.355 34.057 3.7847 55.445-23.41 80.824-37.661z" fill="url(#linearGradient4687-8-8)"/>
<path d="m276.85 91.822c-24.354 17.205-45.043 58.653-76.765 58.64 31.702 1.2733 52.414-24.204 76.765-37.854zm-139.99 20.279c-30.493 0.50163-47.466 41.942-78.641 43.577 27.989 1.4697 47.868-24.86 64.296-27.777 35.057-6.2259 47.446 19.459 73.502 22.355-24.428-2.7146-30.32-38.629-59.158-38.154zm-136.1 16.07c-26.005-0.31165-44.743 42.82-64.399 50.302v2.5754c2.6861-1.2076 5.3889-2.5429 8.0768-4.0189 21.912-12.564 31.058-39.583 57.495-41.269 14.428-0.92016 31.135 16.997 53.267 19.736-22.132-2.7391-30.53-27.039-54.44-27.326z" fill="#e9ebed" fill-opacity=".49133" opacity=".23994"/>
<path d="m276.85 110.31c-23.567 14.229-44.912 39.201-75.053 40.108-0.56513 0.0263-1.1325 0.0435-1.7047 0.0433 0.99069 0.0399 1.9706 0.0536 2.9403 0.0423 3.8781-0.0451 7.5918-0.49012 11.169-1.258 0.64156-0.13769 1.2735-0.29724 1.9064-0.45532 0.24955-0.0622 0.50348-0.11398 0.75176-0.17937 0-1.2e-4 0-2.4e-4 3e-3 -4.8e-4 0.42143-0.11102 0.83543-0.24049 1.2532-0.36017 0.45263-0.12966 0.90894-0.25064 1.3574-0.39014 0.86158-0.26804 1.7152-0.55383 2.562-0.8564 0-2.5e-4 0-7.4e-4 3e-3 -9.2e-4 0.84668-0.30253 1.6864-0.62162 2.5192-0.95632 0-2.4e-4 3e-3 -7.3e-4 3e-3 -9.2e-4 0.0968-0.0389 0.19122-0.0825 0.28784-0.1218 0.73548-0.29934 1.468-0.60616 2.1933-0.92872 0.81981-0.36456 1.633-0.74319 2.4407-1.1352 0-4.9e-4 3e-3 -9.2e-4 3e-3 -2e-3 0.76259-0.37013 1.5197-0.75405 2.2723-1.1466 0.0454-0.0238 0.0917-0.0453 0.13702-0.069 0.79621-0.41703 1.5868-0.84578 2.3727-1.2856 0-7.3e-4 3e-3 -9.2e-4 4e-3 -2e-3 0.78595-0.43981 1.5672-0.89054 2.3437-1.3508 0-7.2e-4 3e-3 -9.2e-4 4e-3 -2e-3 0.77647-0.46019 1.5486-0.92959 2.3166-1.4078 0-7.2e-4 3e-3 -2e-3 4e-3 -3e-3 0.76795-0.47827 1.5315-0.96477 2.2918-1.4587 0-7.3e-4 3e-3 -2e-3 4e-3 -3e-3 1.5217-0.98865 3.029-2.0066 4.5256-3.044 0-9.2e-4 3e-3 -2e-3 4e-3 -3e-3 0.69667-0.48295 1.3844-0.98151 2.0768-1.4721 0.79628-0.56417 1.5973-1.1213 2.3889-1.6928 2.9581-2.1356 5.8868-4.3126 8.8157-6.4554 0-7.3e-4 3e-3 -9.2e-4 3e-3 -2e-3 0.0952-0.0697 0.19029-0.13741 0.28547-0.20698 1.371-1.0019 2.7422-1.9978 4.1164-2.976 1.4666-1.044 2.9366-2.0704 4.4138-3.0692v-4.9e-4c1.1931-0.80679 2.3956-1.5803 3.5997-2.3465 0.28908-0.18393 0.57424-0.38208 0.86403-0.56333 0.74801-0.46776 1.4986-0.92582 2.2523-1.3741 0.43646-0.25955 0.87645-0.50791 1.315-0.76029 0.31936-0.18374 0.63669-0.37358 0.95727-0.55333zm-142.54 15.148v4.9e-4c-29.659-0.76954-42.373 31.026-76.084 30.218 27.989 1.4697 47.868-24.86 64.296-27.777 1.0652-0.18917 2.1077-0.34635 3.1321-0.47816 0.33849-0.0436 0.66401-0.0686 0.99819-0.1061 0.6791-0.0762 1.3589-0.15308 2.0206-0.20506 0.38447-0.0302 0.75597-0.043 1.1348-0.0652 0.5925-0.0349 1.1866-0.0721 1.7656-0.088 0.39423-0.0109 0.77753-6e-3 1.1657-9e-3 0.55029-4e-3 1.1016-7e-3 1.64 5e-3 0.37487 8e-3 0.7412 0.0307 1.1105 0.0476 0.54083 0.0247 1.0804 0.0503 1.6096 0.0909 0.35121 0.027 0.6962 0.0628 1.0424 0.0966 0.52707 0.0515 1.0517 0.10602 1.5677 0.17271 0.33749 0.0437 0.67007 0.0942 1.003 0.14416 0.51737 0.0775 1.0315 0.15956 1.5382 0.25168 0.30748 0.056 0.6122 0.11586 0.91587 0.177 0.52567 0.10568 1.0463 0.21781 1.561 0.33828 0.27557 0.0646 0.5501 0.13074 0.82263 0.19935 0.53167 0.13371 1.0575 0.27504 1.5782 0.42345 0.24158 0.0689 0.48293 0.13786 0.72223 0.20981 0.56013 0.16821 1.1136 0.34523 1.6619 0.52907 0.18862 0.0633 0.37796 0.12571 0.56523 0.19078 0.59865 0.20779 1.1899 0.4248 1.7756 0.64945 0.13014 0.0499 0.26154 0.0982 0.39109 0.14891 0.667 0.26107 1.326 0.53271 1.9778 0.81311 0.0422 0.0181 0.0849 0.0355 0.12704 0.0538 2.7805 1.2028 5.424 2.575 8.0074 4.0108 0.22812 0.1269 0.45608 0.25319 0.68322 0.3811 4.2406 2.3863 8.3255 4.9247 12.513 7.2181 0.13984 0.0766 0.28144 0.14946 0.42155 0.22552 4.8997 2.658 9.9651 4.95 15.65 6.189-21.049-4.7832-30.363-23.356-57.314-24.055zm-131.12 9.3919c-0.45565-9e-3 -0.9089 7.3e-4 -1.3598 0.0295-26.437 1.686-37.348 29.837-59.224 42.464-2.1145 1.2206-4.1999 2.2697-6.2341 3.1925v0.92302c0.84906-0.35415 1.6988-0.71109 2.5578-1.11 0.69215-0.32358 1.3891-0.65759 2.0968-1.0148 0.27056-0.13621 0.54195-0.2759 0.81358-0.41679 0.95719-0.4973 1.9221-1.0132 2.9032-1.5758 21.912-12.564 30.763-39.896 57.2-41.582 10.821-0.69013 22.924 9.2156 37.636 15.367 1.226 0.51262 2.4699 0.99941 3.733 1.4516 2.316 0.82916 4.7041 1.5219 7.1519 2.0687-19.151-4.3789-34.211-19.549-47.274-19.797zm47.274 19.797c0.3724 0.0852 0.74494 0.16919 1.1205 0.24599-0.37618-0.0754-0.74746-0.16266-1.1205-0.24599zm1.1205 0.24599c0.4964 0.0995 0.99241 0.19956 1.4944 0.28452-0.50126-0.0861-0.99864-0.18313-1.4944-0.28452zm1.4944 0.28452c0.07476 0.0128 0.14924 0.026 0.2241 0.0386-0.07494-0.0123-0.14931-0.0259-0.2241-0.0386zm0.2241 0.0386c0.63186 0.10393 1.2665 0.19997 1.9074 0.27928-0.64048-0.0793-1.2758-0.17399-1.9074-0.27928zm138.32-5.7027c0.70318 0.15979 1.4206 0.30242 2.1534 0.4263 0.73861 0.12209 1.4856 0.22944 2.2466 0.31401-1.5137-0.16822-2.9715-0.429-4.4-0.74031z" fill="url(#linearGradient14655-6)"/>
<path d="m276.85 63.131s-6.6439 1.1891-10.183 2.2338c-42.139 12.439-45.386 37.841-73.08 40.29-11.89 1.0516-46.123-10.984-65.164-8.3333-24.587 3.4229-37.332 19.457-58.832 22.471-26.475 3.7125-53.822-13.158-83.675-7.2226-23.277 4.6283-32.603 28.969-49.546 47.671v1.1293c14.282-14.294 25.828-42.825 49.546-48.19 28.923-6.5434 59.988 13.075 84.275 7.479 26.182-6.0327 33.839-18.897 58.239-22.733 21.644-3.4027 51.226 11.016 65.298 9.2939 25.808-3.1576 35.274-29.284 75.167-40.821 2.6829-0.77588 7.955-1.2385 7.955-1.2385z" fill="url(#linearGradient25349-4)"/>
</svg>
