<?xml version="1.0" encoding="UTF-8"?>
<svg width="1080" height="1024" version="1.1" viewBox="0 0 285.75 270.93" xmlns="http://www.w3.org/2000/svg" xmlns:xlink="http://www.w3.org/1999/xlink">
<defs>
<linearGradient id="linearGradient25627">
<stop stop-color="#bda62c" offset="0"/>
<stop stop-color="#ae9a28" stop-opacity=".98824" offset=".14669"/>
<stop stop-color="#8c7b20" stop-opacity=".96863" offset=".30531"/>
<stop stop-color="#bda62c" stop-opacity=".95686" offset=".51079"/>
<stop stop-color="#82721e" stop-opacity=".94902" offset=".6231"/>
<stop stop-color="#c0ab2c" stop-opacity=".99608" offset=".83541"/>
<stop stop-color="#7f6f1e" stop-opacity=".92157" offset="1"/>
</linearGradient>
<linearGradient id="linearGradient25349-7" x1="-19.327" x2="365.1" y1="174.88" y2="71.87" gradientTransform="matrix(1.1756 0 0 1.1756 -139.61 11.494)" gradientUnits="userSpaceOnUse" xlink:href="#linearGradient25627"/>
<linearGradient id="linearGradient14655-2" x1="-46.183" x2="1721.9" y1="706.05" y2="445.69" gradientTransform="matrix(.31104 0 0 .31104 -139.61 11.494)" gradientUnits="userSpaceOnUse">
<stop stop-color="#bda62c" offset="0"/>
<stop stop-color="#615516" stop-opacity=".98824" offset=".098576"/>
<stop stop-color="#cab12f" stop-opacity=".97647" offset=".25339"/>
<stop stop-color="#8c7b20" stop-opacity=".96863" offset=".33815"/>
<stop stop-color="#87771f" stop-opacity=".96471" offset=".42151"/>
<stop stop-color="#bda62c" stop-opacity=".95686" offset=".53339"/>
<stop stop-color="#82721e" stop-opacity=".94902" offset=".6231"/>
<stop stop-color="#80711e" stop-opacity=".93725" offset=".73471"/>
<stop stop-color="#d7be31" stop-opacity=".92941" offset=".83541"/>
<stop stop-color="#bda62c" stop-opacity=".92175" offset="1"/>
</linearGradient>
<linearGradient id="linearGradient4687-8-0" x1="1155.1" x2="93.584" y1="262.51" y2="615.88" gradientTransform="matrix(.37898 .04023 -.04023 .37898 -114.23 -7.2987)" gradientUnits="userSpaceOnUse">
<stop stop-color="#8b5cf6" offset="0"/>
<stop stop-color="#6d28d9" offset=".21248"/>
<stop stop-color="#6f5cf6" offset=".42964"/>
<stop stop-color="#7c3aed" offset=".59961"/>
<stop stop-color="#6376f6" offset=".80968"/>
<stop stop-color="#6d28d9" offset="1"/>
</linearGradient>
<linearGradient id="linearGradient4479-5-19" x1="1143.2" x2="120.86" y1="196.75" y2="539.49" gradientTransform="matrix(.37898 .04023 -.04023 .37898 -114.23 -7.2987)" gradientUnits="userSpaceOnUse">
<stop stop-color="#8b5cf6" offset="0"/>
<stop stop-color="#5151dc" offset=".25152"/>
<stop stop-color="#3b82f6" offset=".4454"/>
<stop stop-color="#8b69f6" offset=".63944"/>
<stop stop-color="#60a5fa" offset=".83593"/>
<stop stop-color="#60a5fa" offset="1"/>
</linearGradient>
<linearGradient id="linearGradient6948-2" x1="466.89" x2="1404.4" y1="475.5" y2="195.51" gradientTransform="matrix(.38111 0 0 .38111 -147.09 -21.21)" gradientUnits="userSpaceOnUse">
<stop stop-color="#3e2fdd" offset="0"/>
<stop stop-color="#a4007e" offset="1"/>
</linearGradient>
<linearGradient id="linearGradient12309-5-3" x1="1181.7" x2="861.39" y1="252.37" y2="436.6" gradientTransform="matrix(.38111 0 0 .38111 -147.09 -19.99)" gradientUnits="userSpaceOnUse">
<stop stop-color="#7e5af0" offset="0"/>
<stop stop-color="#7c61ee" offset=".49538"/>
<stop stop-color="#4c6fe2" offset="1"/>
</linearGradient>
<linearGradient id="linearGradient4551-1-0" x1="1112.8" x2="89.147" y1="69.067" y2="487.89" gradientTransform="matrix(.37898 .04023 -.04023 .37898 -114.23 -7.2987)" gradientUnits="userSpaceOnUse">
<stop stop-color="#60a5fa" offset="0"/>
<stop stop-color="#365fd8" offset=".23216"/>
<stop stop-color="#3b82f6" offset=".43871"/>
<stop stop-color="#4d4eeb" offset=".65563"/>
<stop stop-color="#60a5fa" offset="1"/>
</linearGradient>
<linearGradient id="linearGradient24274-5" x1="132.11" x2="1068.3" y1="575.51" y2="320.25" gradientTransform="matrix(.37898 .04023 -.04023 .37898 -114.23 -7.2987)" gradientUnits="userSpaceOnUse">
<stop stop-color="#1c52f2" offset="0"/>
<stop stop-color="#d62bc3" stop-opacity=".42363" offset="1"/>
</linearGradient>
<linearGradient id="linearGradient118139" x1="100.6" x2="345.1" y1="115.79" y2="-9.8374" gradientTransform="matrix(1.0371 0 0 1.0371 -81.313 31.382)" gradientUnits="userSpaceOnUse">
<stop stop-color="#8b5cf6" offset="0"/>
<stop stop-color="#5151dc" offset=".25152"/>
<stop stop-color="#3b82f6" offset=".4454"/>
<stop stop-color="#8b5cf6" offset=".63944"/>
<stop stop-color="#60a5fa" offset=".83593"/>
<stop stop-color="#60a5fa" offset="1"/>
</linearGradient>
<linearGradient id="linearGradient161031" x1="-12.42" x2="373.66" y1="169.75" y2="-5.834" gradientTransform="matrix(1.0371 0 0 1.0371 -81.313 24.806)" gradientUnits="userSpaceOnUse" xlink:href="#linearGradient25627"/>
</defs>
<rect width="285.75" height="270.93" fill="#1b1e20" stop-color="#000000" style="-inkscape-stroke:none;font-variation-settings:normal;paint-order:stroke fill markers"/>
<path d="m298.35 13.711c-56.308 7.0807-52.268 80.116-104.05 88.466-34.426 1.9333-45.354-8.811-71.548-2.216-31.201 7.8557-49.82 36.26-76.48 38.825-28.556 2.7471-61.033-11.605-92.005 3.1393-19.23 9.1543-28.197 32.549-39.447 49.277v21.393c25.233-14.467 47.135-36.594 65.345-42.363 18.56-5.879 37.619-2.4282 57.036-1.9589 17.101 0.41332 34.871-11.447 52.508-12.618 35.26-2.3412 73.37 6.7056 107.93 1.0612 33.54-5.4784 57.324-32.613 88.933-40.621 3.8345-0.97148 7.7747-1.5348 11.785-1.8292z" fill="url(#linearGradient161031)"/>
<path d="m21.075 164.96s29.238-4.7619 43.88-7.0009c21.005-3.2121 42.264-4.9369 63.075-9.2285 20.802-4.2897 41.814-8.6272 61.552-16.47 25.515-10.139 47.309-28.162 72.48-39.128 11.7-5.0974 36.262-12.288 36.262-12.288m-277.87 83.547s29.492-4.7018 44.229-7.1068c21.001-3.4272 42.168-5.9954 62.979-10.436 20.844-4.4473 42.092-8.2161 61.852-16.203 25.352-10.248 46.669-28.77 71.513-40.194 12.036-5.5346 37.332-13.627 37.332-13.627m-278.53 86.998s29.746-4.6394 44.577-7.2114c21.004-3.6425 42.066-7.0502 62.883-11.641 20.886-4.6058 42.373-7.8029 62.153-15.939 25.189-10.361 46.008-29.398 70.522-41.268 12.362-5.9859 38.38-14.994 38.38-14.994m-279.14 90.485s30.001-4.5748 44.924-7.3147c21.011-3.858 41.958-8.1012 62.788-12.844 20.928-4.765 42.657-7.3844 62.453-15.679 25.051-10.496 45.364-30.101 69.571-42.42 12.712-6.4691 39.512-16.424 39.512-16.424m-279.87 94.113s30.258-4.5081 45.27-7.4168c21.025-4.0739 41.845-9.1488 62.694-14.045 20.97-4.9249 42.942-6.9676 62.754-15.421 24.886-10.618 44.658-30.762 68.528-43.501 13.016-6.9467 40.508-17.84 40.508-17.84m-280.38 97.655s30.515-4.4395 45.615-7.5178c21.044-4.2901 41.727-10.193 62.601-15.245 21.011-5.0852 43.23-6.546 63.054-15.166 24.745-10.759 43.965-31.488 67.52-44.65 13.34-7.454 41.579-19.312 41.579-19.312m-280.99 101.32s30.774-4.3692 45.959-7.6176c21.068-4.5069 41.603-11.234 62.509-16.443 21.052-5.2457 43.52-6.1219 63.355-14.914 24.612-10.91 43.262-32.244 66.509-45.821 13.662-7.9792 42.657-20.813 42.657-20.813m-281.61 105.04s31.034-4.2974 46.303-7.7164c21.098-4.7243 41.474-12.272 62.418-17.64 21.092-5.4064 43.813-5.6956 63.655-14.663 24.488-11.068 42.547-33.025 65.494-47.012 13.98-8.521 43.742-22.34 43.742-22.34m-282.23 108.8s31.294-4.2243 46.645-7.8144c21.134-4.9424 41.34-13.307 62.327-18.836 21.132-5.5671 44.109-5.2676 63.956-14.415 24.372-11.233 41.821-33.827 64.474-48.215 14.293-9.0777 44.829-23.887 44.829-23.887m-282.85 112.6s31.556-4.15 46.987-7.9115c21.174-5.1614 41.2-14.34 62.238-20.032 21.172-5.7278 44.407-4.838 64.256-14.169 24.264-11.406 41.085-34.649 63.453-49.43 14.601-9.6484 45.921-25.45 45.921-25.45m-283.48 116.42s31.818-4.0748 47.327-8.0078c21.22-5.3812 41.055-15.371 62.149-21.226 21.212-5.8881 44.694-4.4326 64.557-13.924 23.855-11.399 39.936-34.833 61.719-49.817 14.547-10.007 45.809-26.595 45.809-26.595l1.9259-1.294m-284.11 120.29s32.081-3.9985 47.667-8.1032c21.27-5.6019 40.906-16.398 62.061-22.419 21.251-6.0481 45.009-3.9746 64.857-13.681 24.075-11.773 39.579-36.347 61.401-51.903 15.199-10.834 48.118-28.636 48.118-28.636m-284.73 124.17s32.345-3.9217 48.005-8.1984c21.326-5.8239 40.751-17.425 61.974-23.613 21.29-6.2076 45.313-3.5418 65.159-13.438 23.993-11.963 38.813-37.208 60.377-53.137 15.486-11.44 49.218-30.227 49.218-30.227m-285.36 128.04s32.61-3.8446 48.343-8.2933c21.386-6.0472 40.591-18.451 61.887-24.808 21.329-6.3665 45.618-3.1089 65.461-13.194 23.917-12.155 38.038-38.068 59.352-54.36 15.763-12.049 50.312-31.806 50.312-31.806m-285.98 131.89s32.875-3.7673 48.679-8.3881c21.451-6.272 40.425-19.476 61.799-26.003 21.369-6.5247 45.924-2.676 65.765-12.949 23.847-12.348 37.257-38.925 58.332-55.569 16.031-12.661 51.403-33.368 51.403-33.368m-286.6 135.71s33.141-3.6899 49.014-8.483c21.52-6.4983 40.253-20.502 61.712-27.2 21.408-6.682 46.232-2.2434 66.069-12.704 23.784-12.541 36.471-39.776 57.316-56.76 16.29-13.273 52.491-34.907 52.491-34.907m-287.23 139.49s33.407-3.6126 49.348-8.5779c21.594-6.7263 40.076-21.527 61.625-28.398 21.448-6.8385 46.54-1.8111 66.375-12.456 23.726-12.734 35.679-40.616 56.304-57.929 16.538-13.883 53.571-36.419 53.571-36.419m-287.85 143.21s33.674-3.5356 49.681-8.6729c21.673-6.956 39.894-22.552 61.538-29.597 21.487-6.9941 46.849-1.3793 66.683-12.208 23.674-12.925 34.886-41.444 55.299-59.075 16.777-14.49 54.649-37.901 54.649-37.901m-288.47 146.88s33.941-3.4589 50.012-8.7682c21.755-7.1874 39.705-23.578 61.45-30.799 21.528-7.1487 47.159-0.9481 66.992-11.957 23.626-13.114 34.09-42.256 54.3-60.192 17.006-15.092 55.717-39.346 55.717-39.346m-289.09 150.49s34.209-3.3828 50.342-8.8638c21.842-7.4207 39.511-24.604 61.361-32.002 21.569-7.3022 47.469-0.51752 67.303-11.703 23.582-13.3 33.292-43.05 53.31-61.279 17.225-15.686 56.779-40.754 56.779-40.754m-289.72 154.03s34.476-3.3072 50.67-8.9598c21.933-7.6559 39.312-25.632 61.272-33.207 21.61-7.4547 47.78-0.0875 67.617-11.448 23.542-13.482 32.495-43.823 52.327-62.334 17.434-16.273 57.832-42.12 57.832-42.12m-290.34 157.5s34.744-3.2324 50.997-9.0562c22.028-7.8931 39.106-26.66 61.183-34.415 21.652-7.606 48.09 0.34176 67.932-11.19 23.503-13.659 31.698-44.574 51.352-63.355 17.634-16.85 58.877-43.442 58.877-43.442m-290.96 160.89s35.011-3.1583 51.322-9.153c22.127-8.1322 38.895-27.689 61.093-35.625 21.695-7.7562 48.401 0.77058 68.25-10.928 23.467-13.832 30.903-45.302 50.387-64.34 17.825-17.416 59.913-44.719 59.913-44.719m-291.59 164.2s35.279-3.0852 51.646-9.2503c22.229-8.3734 38.678-28.72 61.001-36.838 21.739-7.9051 48.712 1.1989 68.569-10.664 23.433-14 30.11-46.006 49.43-65.288 18.007-17.971 60.94-45.948 60.94-45.948m-292.21 167.42s35.547-3.013 51.968-9.348c22.335-8.6166 38.455-29.751 60.91-38.053 21.783-8.0529 49.023 1.6269 68.892-10.397 23.4-14.161 29.32-46.683 48.483-66.199 18.181-18.514 61.957-47.13 61.957-47.13m-292.83 170.56s35.815-2.9419 52.289-9.4464c22.445-8.862 38.227-30.785 60.817-39.27 21.829-8.1994 49.334 2.0546 69.216-10.127 23.368-14.317 28.533-47.335 47.547-67.072 18.347-19.045 62.965-48.263 62.965-48.263m-293.46 173.61s36.082-2.8718 52.608-9.5452c22.558-9.1094 37.992-31.819 60.723-40.49 21.875-8.3447 49.645 2.4823 69.544-9.8543 23.335-14.467 27.751-47.96 46.619-67.906 18.505-19.562 63.961-49.347 63.961-49.347m-294.08 176.57s36.35-2.803 52.926-9.6447c22.675-9.359 37.752-32.855 60.628-41.713 21.923-8.4887 49.956 2.91 69.874-9.5779 23.304-14.611 26.973-48.56 45.702-68.704 18.658-20.067 64.951-50.383 64.951-50.383m-294.7 179.45s36.617-2.7354 53.242-9.7446c22.795-9.6106 37.507-33.893 60.532-42.938 21.972-8.6315 50.266 3.3379 70.206-9.2984 23.272-14.748 26.2-49.133 44.795-69.463 18.803-20.558 65.93-51.371 65.93-51.371" fill="none" stroke="url(#linearGradient118139)" stroke-width=".10084px"/>
<path d="m-83.368 224.06c20.718-5.3549 42.919-36.896 65.628-40.289 26.795-4.0034 48.613 18.95 76.384 19.48 45.999 0.87788 68.033-46.089 124.27-13.729 24.488 14.091 66.186 1.7002 88.976-25.811m-355.48 59.871c20.503-5.4974 42.467-37.535 65.405-40.823 26.695-3.8877 48.925 18.841 76.975 19.112 45.382 0.71574 67.656-45.333 123.11-13.856 24.672 13.664 65.548 1.5545 88.647-25.185m-354.36 60.273c20.288-5.6398 42.015-38.174 65.181-41.356 26.596-3.772 49.236 18.732 77.566 18.743 44.766 0.55365 67.278-44.576 121.95-13.983 24.855 13.237 64.909 1.4087 88.318-24.559m-353.24 60.676c20.073-5.7822 41.563-38.812 64.958-41.89 26.497-3.6563 49.548 18.624 78.158 18.375 44.15 0.39148 66.9-43.82 120.79-14.11 25.039 12.81 64.271 1.2629 87.99-23.933m-352.12 61.079c19.858-5.9246 41.111-39.451 64.735-42.424 26.397-3.5406 49.859 18.515 78.749 18.007 43.533 0.22931 66.522-43.064 119.63-14.237 25.222 12.383 63.633 1.1171 87.661-23.307m-351 61.482c19.644-6.067 40.659-40.09 64.511-42.958 26.298-3.4249 50.171 18.406 79.341 17.639 42.917 0.0671 66.145-42.307 118.47-14.364 25.406 11.956 62.994 0.97141 87.332-22.681m-349.88 61.885c19.429-6.2094 40.207-40.728 64.288-43.491 26.198-3.3093 50.482 18.298 79.932 17.27 42.301-0.0949 65.767-41.551 117.31-14.491 25.589 11.529 62.356 0.82568 87.004-22.055m-348.76 62.288c19.214-6.3518 39.755-41.367 64.065-44.025 26.099-3.1936 50.794 18.189 80.523 16.902 41.684-0.25702 65.389-40.795 116.15-14.618 25.773 11.101 61.718 0.67989 86.675-21.428m-347.64 62.69c18.999-6.4942 39.304-42.006 63.841-44.559 25.999-3.0778 51.105 18.08 81.115 16.534 41.068-0.41919 65.011-40.038 114.99-14.745 25.956 10.674 61.079 0.53414 86.346-20.802m-346.31 63.02c18.726-6.8237 38.737-42.58 63.414-45.019 25.9-2.9622 51.417 17.972 81.706 16.166 40.452-0.58136 64.634-39.282 113.83-14.872 26.139 10.247 60.441 0.3884 86.018-20.176m-344.97 63.334c18.446-7.1766 38.164-43.14 62.966-45.465 25.801-2.8465 51.728 17.863 82.297 15.798 39.835-0.74343 64.256-38.526 112.67-14.999 26.323 9.82 59.802 0.24263 85.689-19.55m-343.62 63.64c18.167-7.5345 37.594-43.69 62.519-45.902 25.701-2.7308 52.04 17.754 82.889 15.429 39.219-0.90558 63.878-37.769 111.51-15.126 26.506 9.3929 59.164 0.097 85.361-18.924m-342.28 63.937c17.887-7.8978 37.029-44.23 62.071-46.329 25.602-2.6151 52.351 17.646 83.48 15.061 38.603-1.0677 63.5-37.013 110.35-15.252 26.69 8.9658 58.526-0.0491 85.032-18.298m-340.93 64.224c17.608-8.2651 36.468-44.761 61.623-46.747 25.502-2.4994 52.663 17.537 84.071 14.693 37.986-1.2298 63.122-36.257 109.19-15.379 26.873 8.5387 57.887-0.19466 84.703-17.672m-339.59 64.501c17.329-8.6373 35.912-45.28 61.176-47.155 25.403-2.3837 52.974 17.428 84.663 14.325 37.37-1.3919 62.745-35.501 108.03-15.506 27.057 8.1116 57.249-0.34034 84.375-17.046m-338.24 64.768c17.051-9.0139 35.361-45.788 60.728-47.553 25.303-2.268 53.285 17.319 85.254 13.956 36.754-1.5541 62.367-34.744 106.87-15.633 27.24 7.6845 56.611-0.48619 84.046-16.42m-336.9 65.023c16.773-9.3948 34.815-46.284 60.281-47.939 25.204-2.1523 53.597 17.211 85.845 13.588 36.137-1.7162 61.989-33.988 105.71-15.76 27.424 7.2573 55.972-0.63193 83.717-15.794m-335.55 65.266c16.495-9.7796 34.274-46.767 59.833-48.312 25.105-2.0366 53.908 17.102 86.437 13.22 35.521-1.8784 61.611-33.232 104.55-15.887 27.607 6.8302 55.334-0.7777 83.389-15.168m-334.21 65.496c16.217-10.168 33.738-47.236 59.386-48.674 25.005-1.921 54.22 16.993 87.028 12.852 34.905-2.0405 61.234-32.475 103.39-16.014 27.79 6.4032 54.695-0.92344 83.06-14.542m-332.86 65.713c15.941-10.561 33.208-47.692 58.938-49.021 24.906-1.8053 54.531 16.885 87.62 12.484 34.289-2.2026 60.856-31.719 102.23-16.141 27.974 5.976 54.057-1.0692 82.731-13.916m-331.52 65.916c15.665-10.956 32.683-48.132 58.49-49.355 24.806-1.6896 54.843 16.776 88.211 12.115 33.672-2.3648 60.478-30.963 101.07-16.268 28.157 5.5489 53.419-1.215 82.403-13.29m-330.17 66.104c15.389-11.355 32.165-48.556 58.043-49.674 24.707-1.5739 55.154 16.667 88.802 11.747 33.056-2.5269 60.1-30.206 99.91-16.395 28.341 5.1218 52.78-1.3608 82.074-12.664m-328.83 66.276c15.115-11.756 31.653-48.964 57.595-49.977 24.607-1.4582 55.466 16.559 89.394 11.379 32.44-2.689 59.723-29.45 98.75-16.522 28.524 4.6946 52.142-1.5065 81.745-12.038m-327.48 66.431c14.842-12.159 31.147-49.354 57.148-50.264 24.508-1.3425 55.777 16.45 89.985 11.011 31.823-2.8511 59.345-28.694 97.59-16.649 28.708 4.2676 51.504-1.6522 81.417-11.411m-326.14 66.569c14.57-12.564 30.647-49.726 56.7-50.532 24.409-1.2268 56.089 16.341 90.576 10.642 31.207-3.0133 58.967-27.938 96.43-16.776 28.891 3.8405 50.865-1.798 81.088-10.785m-324.79 66.689c14.299-12.969 30.155-50.078 56.252-50.783 24.309-1.1111 56.4 16.233 91.168 10.274 30.591-3.1755 58.589-27.181 95.27-16.903 29.075 3.4133 50.227-1.9438 80.759-10.159m-323.45 66.789c14.03-13.375 29.67-50.409 55.805-51.014 24.21-0.9954 56.712 16.124 91.759 9.906 29.974-3.3375 58.211-26.425 94.11-17.029 29.258 2.9863 49.588-2.0895 80.431-9.5333m-322.1 66.868c13.763-13.782 29.192-50.718 55.357-51.224 24.11-0.8797 57.023 16.015 92.35 9.5378 29.358-3.4997 57.834-25.669 92.95-17.156 29.442 2.5592 48.95-2.2353 80.102-8.9072m-320.76 66.926c13.497-14.188 28.722-51.005 54.91-51.413 24.011-0.76402 57.335 15.906 92.942 9.1696 28.742-3.6618 57.456-24.912 91.79-17.283 29.625 2.132 48.312-2.381 79.773-8.2811m-319.41 66.961c13.234-14.592 28.26-51.267 54.462-51.578 23.911-0.64835 57.646 15.798 93.533 8.8013 28.125-3.8239 57.078-24.156 90.63-17.41 29.808 1.7049 47.673-2.5268 79.445-7.655m-318.07 66.971c12.973-14.994 27.806-51.504 54.014-51.72 23.812-0.53265 57.958 15.689 94.125 8.4331 27.509-3.986 56.7-23.4 89.47-17.537 29.992 1.2778 47.035-2.6725 79.116-7.029m-316.73 66.956c12.714-15.394 27.36-51.714 53.567-51.836 23.713-0.41693 58.269 15.58 94.716 8.0649 26.893-4.1482 56.323-22.643 88.31-17.664 30.175 0.85071 46.397-2.8183 78.787-6.4029m-315.38 66.915c12.458-15.789 26.924-51.896 53.119-51.925 23.613-0.30124 58.581 15.472 95.307 7.6967 26.276-4.3104 55.945-21.887 87.15-17.791 30.359 0.42359 45.758-2.9641 78.459-5.7768m-314.04 66.845c12.204-16.18 26.496-52.049 52.672-51.986 23.514-0.18558 58.892 15.363 95.899 7.3285 25.66-4.4725 55.567-21.131 85.99-17.918 30.542-1e-3 45.12-3.1098 78.13-5.1508m-312.69 66.746c11.955-16.564 26.078-52.17 52.224-52.018 23.414-0.0697 59.203 15.254 96.49 6.9602 25.044-4.6346 55.189-20.374 84.83-18.045 30.726-0.43063 44.481-3.2556 77.801-4.5247m-311.35 66.616c11.708-16.942 25.67-52.259 51.777-52.02 23.315 0.0458 59.515 15.146 97.081 6.592 24.427-4.7967 54.812-19.618 83.67-18.172 30.909-0.85777 43.843-3.4014 77.473-3.8987m-310 66.454c11.465-17.312 25.271-52.314 51.329-51.988 23.215 0.16155 59.826 15.037 97.673 6.2238 23.811-4.9589 54.434-18.862 82.51-18.299 31.093-1.2849 43.205-3.5471 77.144-3.2726m-308.66 66.26c11.227-17.671 24.883-52.336 50.883-51.925 23.116 0.27722 60.138 14.928 98.264 5.8556 23.195-5.121 54.056-18.106 81.35-18.426 31.276-1.712 42.566-3.6928 76.815-2.6465m-307.31 66.03c10.992-18.02 24.506-52.319 50.436-51.826 23.017 0.39291 60.449 14.82 98.855 5.4874 22.579-5.2831 53.678-17.349 80.19-18.553 31.459-2.1391 41.928-3.8386 76.487-2.0204m-305.97 65.76c10.762-18.358 24.139-52.26 49.987-51.687 22.917 0.50861 60.761 14.711 99.447 5.1191 21.962-5.4452 53.301-16.593 79.03-18.68 31.643-2.5662 41.29-3.9844 76.158-1.3944" fill="none" stop-color="#000000" stroke="url(#linearGradient24274-5)" stroke-width=".30251" style="font-variation-settings:normal"/>
<path d="m298.35 15.562c-56.308 7.0807-52.268 78.897-104.05 87.247-34.426 1.9333-45.354-7.5522-71.548-0.9572-31.201 7.8557-49.82 35.002-76.48 37.566-28.556 2.747-61.033-11.06-92.005 3.6841-19.23 9.1543-28.197 32.469-39.447 49.197v22.788c25.233-14.467 47.135-36.594 65.345-42.363 18.56-5.879 37.619-2.4282 57.036-1.9589 17.101 0.41332 34.871-11.447 52.508-12.618 35.26-2.3412 73.37 6.7056 107.93 1.0612 33.54-5.4784 57.324-32.613 88.933-40.621 3.8345-0.97147 7.7747-1.5348 11.785-1.8292z" fill="url(#linearGradient4551-1-0)"/>
<path d="m298.35 64.765c-35.058 4.6587-52.748 18.845-74.417 48.539-25.72 35.245-73.627 21.499-73.627 21.499l56.536 19.945 91.508-16.658z" fill="url(#linearGradient12309-5-3)"/>
<path d="m29.207 154.91c8.3472 0.76801 29.951-0.41282 38.135-3.2059 41.619-20.26 57.174-43.307 104.62-29.539 53.202 15.438 71.534-57.029 126.47-65.052m-269.52 114.11s19.294-0.9529 46.315-2.5734c47.719-3.362 62.357-2.4736 114.54 11.694 35.878 9.7398 74.278-37.014 108.68-43.199m-269.53 33.517c0.28785 0.0265 19.661-0.9343 46.033-2.5953 47.488-4.0024 62.308-3.8922 114.2 10.272 36.232 9.8889 74.58-36.943 109.29-43.51m-269.52 35.271c0.57569 0.0533 20.029-0.91567 45.751-2.617 47.255-4.6411 62.254-5.3174 113.86 8.8499 36.59 10.045 74.883-36.902 109.9-43.865m-269.5 37.069c0.8635 0.0793 20.396-0.897 45.469-2.6389 46.982-5.2791 62.257-6.7321 113.52 7.4281 36.954 10.208 75.186-36.895 110.51-44.265m-269.49 38.914c1.1513 0.10592 20.764-0.87841 45.187-2.6607 46.761-5.9172 62.185-8.1731 113.18 6.0062 37.33 10.381 75.5-36.925 111.13-44.717m-269.48 40.809c1.4392 0.13248 21.131-0.85981 44.904-2.6825 46.55-6.5541 62.099-9.6244 112.83 4.5844 37.717 10.563 75.822-36.999 111.75-45.22m-269.48 42.756c1.727 0.15886 21.499-0.84114 44.622-2.7042 46.318-7.1743 61.987-11.089 112.49 3.1627 38.113 10.755 76.147-37.118 112.37-45.776m-269.47 44.755c2.0148 0.1854 21.866-0.82249 44.34-2.726 46.083-7.8006 61.907-12.552 112.15 1.7409 38.518 10.957 76.469-37.288 112.98-46.381m-269.46 46.804c2.3027 0.21189 22.234-0.80389 44.058-2.7478 45.848-8.4232 61.819-14.011 111.81 0.319 38.96 11.168 76.768-37.507 113.59-47.038m-269.44 48.904c2.5905 0.23832 22.601-0.78525 43.776-2.7697 45.613-9.0418 61.726-15.485 111.47-1.1028 39.494 11.42 76.991-37.77 114.18-47.746m-269.42 51.056c2.8784 0.26485 22.969-0.76665 43.494-2.7915 45.379-9.6564 61.63-16.973 111.12-2.5246 39.977 11.67 77.298-38.124 114.8-48.512m-269.41 53.265c3.1662 0.29132 23.336-0.74804 43.212-2.8133 45.147-10.266 61.527-18.471 110.78-3.9464 40.479 11.937 77.601-38.555 115.41-49.326m-269.4 55.524c3.454 0.31779 23.704-0.72941 42.93-2.8351 44.916-10.872 61.419-19.982 110.44-5.3682 41.005 12.224 77.906-39.075 116.03-50.189m-269.38 57.83c3.7419 0.34427 24.071-0.71078 42.648-2.8569 44.687-11.472 61.306-21.505 110.1-6.79 41.553 12.532 78.217-39.692 116.64-51.095m-269.37 60.18c4.0297 0.37076 24.439-0.69217 42.366-2.8788 44.461-12.067 61.187-23.042 109.75-8.2118 42.125 12.863 78.539-40.417 117.25-52.039m-269.36 62.567c4.3175 0.39726 24.806-0.67352 42.084-2.9005 44.237-12.656 61.062-24.593 109.41-9.6336 42.717 13.216 78.881-41.26 117.86-53.014m-269.35 64.985c4.6054 0.42373 25.174-0.65492 41.802-2.9223 44.017-13.24 60.932-26.157 109.07-11.055 43.329 13.593 79.254-42.232 118.48-54.011m-269.34 67.426c4.8932 0.45022 25.541-0.63632 41.52-2.9442 43.801-13.818 60.817-27.8 108.73-12.477 43.438 13.892 79.847-43.39 119.09-55.018m-269.32 69.877c5.181 0.47672 25.909-0.61767 41.237-2.966 43.588-14.39 60.676-29.396 108.39-13.899 44.046 14.307 80.247-44.611 119.71-56.029m-269.32 72.332c5.4689 0.50316 26.276-0.59903 40.955-2.9878 43.381-14.956 60.527-31 108.04-15.321 44.677 14.742 80.676-45.953 120.32-57.025m-269.31 74.771c5.7567 0.5297 26.644-0.58041 40.673-3.0096 43.178-15.515 60.368-32.607 107.7-16.743 45.336 15.195 81.148-47.409 120.93-57.995m-269.3 77.185c6.0446 0.55617 27.011-0.56177 40.391-3.0314 42.981-16.068 60.197-34.209 107.36-18.164 46.027 15.658 81.673-48.963 121.55-58.926m-269.29 79.559c6.3324 0.58261 27.379-0.54315 40.109-3.0532 42.789-16.615 60.005-35.784 107.02-19.586 46.449 16.004 81.584-50.198 121.28-59.61 0.2994-0.06814 0.59804-0.13581 0.89597-0.20256m-269.29 81.89c6.6202 0.6091 27.746-0.52453 39.827-3.075 42.603-17.156 59.517-36.52 106.67-21.008 51.707 17.008 74.12-50.339 122.79-60.666m-269.29 84.187c6.9081 0.63563 28.114-0.5059 39.545-3.0968 42.423-17.69 59.174-37.717 106.33-22.43 51.987 16.852 73.752-51.537 123.41-61.482m-269.28 86.447c7.1959 0.66208 28.481-0.48727 39.263-3.1186 42.25-18.217 58.812-38.891 105.99-23.852 52.269 16.661 73.327-52.7 124.02-62.263m-269.26 88.671c7.4838 0.68857 28.849-0.4687 38.981-3.1404 42.082-18.738 58.43-40.036 105.65-25.274 52.539 16.426 72.883-53.835 124.64-63.011m-269.26 90.862c7.7716 0.71508 29.216-0.45004 38.699-3.1622 41.921-19.252 58.03-41.156 105.31-26.695 52.783 16.145 72.425-54.933 125.24-63.722m-269.24 93.017c8.0594 0.74154 29.584-0.43138 38.417-3.184 41.767-19.759 57.61-42.245 104.96-28.117 53.007 15.814 71.981-56.003 125.87-64.405" fill="none" stroke="url(#linearGradient6948-2)" stroke-width=".10084px"/>
<path d="m298.35 94.147c-3.8528 0.55775-7.9083 1.2892-12.321 2.259-45.307 9.9569-53.362 47.225-87.428 43.796-16.553-1.6663-52.756-11.871-69.026-8.8163-27.721 5.2038-39.663 22.982-68.058 25.589-33.32 3.0586-54.414-13.56-87.45-8.6142-27.758 4.1559-43.236 35.829-56.181 51.668-0.98928 1.2105-2.015 2.3371-3.0699 3.4v11.646c10.013-4.9366 18.505-9.9187 23.305-13.037 68.931-58.663 58.22-9.7267 111.2-13.118 17.912-1.1468 63.198-35.396 81.194-39.139 37.168-7.7315 44.572 18.22 81.604 12.22 30.611-4.9604 57.782-22.192 86.234-32.821z" fill="url(#linearGradient4479-5-19)"/>
<path d="m298.35 119.07c-0.59134 0.0975-1.1802 0.1818-1.775 0.29745-22.096 4.2959-38.09 19.176-65.228 35.064-30.194 17.677-73.718-21.507-103.72-13.99-30.48 7.6375-43.946 33.893-74.18 38.126-30.586 4.282-49.033-33.405-89.312-17.323-24.171 9.6508-32.039 33.932-43.712 45.902-1.85 1.897-3.716 3.6008-5.6086 5.1461v13.636c3.0836-1.2803 6.2222-2.8144 9.4305-4.6541 24.682-14.153 34.652-44.941 64.432-46.84 16.253-1.0365 35.072 19.051 60.003 22.136 33.348 4.1272 56.658-27.586 75.828-30.99 39.49-7.0132 53.445 21.919 82.796 25.181 38.363 4.2633 62.456-26.37 91.044-42.424z" fill="url(#linearGradient4687-8-0)"/>
<path d="m298.36 124.94c-27.433 19.38-50.739 66.069-86.472 66.055 35.711 1.4343 59.042-27.264 86.472-42.641zm-157.69 22.844c-34.349 0.56507-53.468 47.245-88.585 49.088 31.529 1.6556 53.921-28.003 72.427-31.29 39.49-7.0132 53.445 21.919 82.796 25.181-27.516-3.0579-34.154-43.513-66.638-42.979zm-153.31 18.102c-29.293-0.35106-50.4 48.235-72.543 56.663v2.9011c3.0258-1.3602 6.0703-2.8645 9.0982-4.5271 24.682-14.153 34.985-44.588 64.765-46.487 16.253-1.0365 35.072 19.146 60.003 22.231-24.931-3.0854-34.391-30.459-61.324-30.781z" fill="#e9ebed" fill-opacity=".49133" opacity=".23994"/>
<path d="m298.35 145.77c-26.547 16.028-50.592 44.158-84.543 45.179-0.63659 0.0297-1.2757 0.0491-1.9203 0.0488 1.116 0.0449 2.2198 0.0604 3.3121 0.0477 4.3685-0.0508 8.5518-0.55209 12.582-1.417 0.72269-0.1551 1.4345-0.33483 2.1475-0.51289 0.2811-0.0701 0.56714-0.12839 0.84681-0.20205 0-1.5e-4 0-2.8e-4 3e-3 -5.5e-4 0.47472-0.12506 0.94107-0.27089 1.4117-0.40571 0.50987-0.14605 1.0239-0.28233 1.5291-0.43947 0.97053-0.30194 1.9321-0.62387 2.886-0.9647 0-2.8e-4 0-8.3e-4 3e-3 -1e-3 0.95373-0.34079 1.8996-0.70023 2.8378-1.0772 0-2.7e-4 3e-3 -8.2e-4 3e-3 -1e-3 0.10899-0.0438 0.21539-0.0929 0.32423-0.1372 0.82848-0.3372 1.6536-0.6828 2.4707-1.0462 0.92348-0.41065 1.8395-0.83716 2.7494-1.2788 0-5.5e-4 3e-3 -1e-3 3e-3 -2e-3 0.85902-0.41693 1.7119-0.8494 2.5597-1.2916 0.0511-0.0268 0.10329-0.051 0.15435-0.0777 0.89688-0.46976 1.7874-0.95273 2.6727-1.4481 0-8.2e-4 3e-3 -1e-3 4e-3 -2e-3 0.88534-0.49541 1.7653-1.0031 2.6401-1.5215 0-8.2e-4 3e-3 -1e-3 4e-3 -2e-3 0.87466-0.51838 1.7444-1.0471 2.6095-1.5859 0-8.2e-4 3e-3 -2e-3 4e-3 -3e-3 0.86506-0.53875 1.7252-1.0868 2.5816-1.6432 0-8.2e-4 3e-3 -2e-3 4e-3 -3e-3 1.7141-1.1137 3.4121-2.2603 5.0979-3.429 0-1e-3 3e-3 -2e-3 4e-3 -3e-3 0.78476-0.54403 1.5595-1.1056 2.3394-1.6582 0.89696-0.63551 1.7992-1.2631 2.691-1.9069 3.3321-2.4056 6.6312-4.8579 9.9305-7.2717 0-8.2e-4 3e-3 -1e-3 3e-3 -2e-3 0.10724-0.0785 0.21437-0.15478 0.32157-0.23315 1.5444-1.1286 3.0889-2.2504 4.637-3.3523 1.6521-1.176 3.308-2.3322 4.9719-3.4574v-5.5e-4c1.344-0.90881 2.6985-1.7801 4.0549-2.6433 0.32563-0.20718 0.64685-0.43039 0.97328-0.63456 0.8426-0.52691 1.6881-1.0429 2.5372-1.5478 0.49165-0.29238 0.98728-0.57215 1.4813-0.85644 0.35974-0.20698 0.7172-0.42082 1.0783-0.6233zm-160.56 17.064v5.5e-4c-33.41-0.86685-47.731 34.949-85.705 34.039 31.529 1.6556 53.921-28.003 72.427-31.29 1.1999-0.2131 2.3742-0.39015 3.5281-0.53863 0.3813-0.049 0.74798-0.0773 1.1244-0.11952 0.76497-0.0859 1.5307-0.17243 2.2761-0.23098 0.43308-0.034 0.85156-0.0484 1.2782-0.0734 0.66743-0.0393 1.3367-0.0812 1.9889-0.0992 0.44408-0.0122 0.87584-7e-3 1.313-0.0104 0.61988-4e-3 1.2409-8e-3 1.8474 5e-3 0.42227 9e-3 0.83493 0.0345 1.2509 0.0536 0.60922 0.0278 1.217 0.0566 1.8131 0.10236 0.39561 0.0304 0.78423 0.0707 1.1742 0.10879 0.59372 0.058 1.1847 0.11943 1.7659 0.19455 0.38016 0.0493 0.7548 0.10614 1.1298 0.1624 0.58279 0.0873 1.162 0.17973 1.7327 0.2835 0.34637 0.0631 0.68962 0.13051 1.0317 0.19938 0.59214 0.11905 1.1786 0.24536 1.7584 0.38105 0.31042 0.0728 0.61965 0.14728 0.92665 0.22457 0.5989 0.15062 1.1912 0.30981 1.7777 0.47699 0.27214 0.0776 0.54401 0.15529 0.81357 0.23634 0.63095 0.18948 1.2544 0.38888 1.872 0.59597 0.21246 0.0713 0.42574 0.14161 0.6367 0.21491 0.67435 0.23407 1.3404 0.47851 2.0001 0.73157 0.14659 0.0562 0.29461 0.11057 0.44054 0.16774 0.75135 0.29409 1.4937 0.60008 2.2279 0.91593 0.0475 0.0204 0.0956 0.04 0.1431 0.0606 3.1321 1.3548 6.1099 2.9006 9.0199 4.518 0.25697 0.14295 0.51376 0.28521 0.76961 0.42929 4.7768 2.688 9.3783 5.5474 14.095 8.1308 0.15752 0.0863 0.31703 0.16836 0.47485 0.25404 5.5192 2.9941 11.225 5.576 17.629 6.9716-23.711-5.388-34.203-26.309-64.561-27.097zm-147.71 10.58c-0.51326-0.0104-1.0238 8.2e-4 -1.5317 0.0332-29.78 1.8991-42.071 33.609-66.713 47.833-2.3818 1.3749-4.731 2.5567-7.0225 3.5962v1.0397c0.95644-0.39894 1.9136-0.801 2.8812-1.2504 0.77967-0.3645 1.5648-0.74074 2.3619-1.1432 0.30478-0.15343 0.61048-0.31078 0.91646-0.46949 1.0782-0.56019 2.1652-1.1413 3.2703-1.775 24.682-14.153 34.653-44.941 64.433-46.84 12.19-0.7774 25.823 10.381 42.395 17.31 1.381 0.57744 2.7823 1.1258 4.205 1.6352 2.6088 0.934 5.299 1.7144 8.0563 2.3303-21.572-4.9326-38.537-22.021-53.252-22.301zm53.252 22.301c0.41949 0.0959 0.83914 0.19058 1.2621 0.27708-0.42375-0.0849-0.84198-0.18322-1.2621-0.27708zm1.2621 0.27708c0.55917 0.11207 1.1179 0.22481 1.6834 0.3205-0.56465-0.097-1.1249-0.20628-1.6834-0.3205zm1.6834 0.3205c0.08421 0.0144 0.16812 0.0294 0.25243 0.0435-0.08442-0.0139-0.16819-0.0291-0.25243-0.0435zm0.25243 0.0435c0.71176 0.11707 1.4267 0.22525 2.1486 0.31459-0.72147-0.0893-1.4371-0.19599-2.1486-0.31459zm155.82-6.4238c0.79209 0.17999 1.6002 0.34066 2.4257 0.48021 0.83201 0.13753 1.6735 0.25845 2.5307 0.35371-1.7051-0.18949-3.3472-0.48324-4.9564-0.83392z" fill="url(#linearGradient14655-2)"/>
<path d="m298.35 92.621s-7.4841 1.3395-11.471 2.5163c-47.468 14.011-51.125 42.626-82.321 45.385-13.393 1.1846-51.955-12.373-73.404-9.387-27.696 3.8558-42.052 21.917-66.271 25.313-29.823 4.182-60.628-14.822-94.256-8.1359-26.22 5.2136-36.726 32.633-55.811 53.699v1.2721c16.088-16.101 29.094-48.24 55.811-54.284 32.58-7.3709 67.573 14.728 94.932 8.4247 29.493-6.7956 38.118-21.287 65.603-25.608 24.381-3.8329 57.704 12.408 73.555 10.469 29.072-3.5569 39.734-32.987 84.672-45.983 3.0222-0.874 8.961-1.3951 8.961-1.3951z" fill="url(#linearGradient25349-7)"/>
</svg>
