<?xml version="1.0" encoding="UTF-8"?>
<!-- Created with Inkscape (http://www.inkscape.org/) -->
<svg width="1366" height="768" version="1.1" viewBox="0 0 361.42 203.2" xmlns="http://www.w3.org/2000/svg" xmlns:xlink="http://www.w3.org/1999/xlink">
 <defs>
  <linearGradient id="linearGradient25627">
   <stop stop-color="#bda62c" offset="0"/>
   <stop stop-color="#ae9a28" stop-opacity=".98824" offset=".14669"/>
   <stop stop-color="#8c7b20" stop-opacity=".96863" offset=".30531"/>
   <stop stop-color="#bda62c" stop-opacity=".95686" offset=".51079"/>
   <stop stop-color="#82721e" stop-opacity=".94902" offset=".6231"/>
   <stop stop-color="#c0ab2c" stop-opacity=".99608" offset=".83541"/>
   <stop stop-color="#7f6f1e" stop-opacity=".92157" offset="1"/>
  </linearGradient>
  <linearGradient id="linearGradient4551-1" x1="1112.8" x2="89.147" y1="69.067" y2="487.89" gradientTransform="matrix(.36542 .038791 -.038791 .36542 -31.741 -37.296)" gradientUnits="userSpaceOnUse">
   <stop stop-color="#60a5fa" offset="0"/>
   <stop stop-color="#365fd8" offset=".23216"/>
   <stop stop-color="#3b82f6" offset=".43871"/>
   <stop stop-color="#4d4eeb" offset=".65563"/>
   <stop stop-color="#60a5fa" offset="1"/>
  </linearGradient>
  <linearGradient id="linearGradient12309-5" x1="1181.7" x2="861.39" y1="252.37" y2="436.6" gradientTransform="matrix(.36748 0 0 .36748 -63.424 -49.534)" gradientUnits="userSpaceOnUse">
   <stop stop-color="#7e5af0" offset="0"/>
   <stop stop-color="#7c61ee" offset=".49538"/>
   <stop stop-color="#4c6fe2" offset="1"/>
  </linearGradient>
  <linearGradient id="linearGradient4479-5" x1="1143.2" x2="120.86" y1="196.75" y2="539.49" gradientTransform="matrix(.36542 .038791 -.038791 .36542 -31.741 -37.296)" gradientUnits="userSpaceOnUse">
   <stop stop-color="#8b5cf6" offset="0"/>
   <stop stop-color="#5151dc" offset=".25152"/>
   <stop stop-color="#3b82f6" offset=".4454"/>
   <stop stop-color="#8b69f6" offset=".63944"/>
   <stop stop-color="#60a5fa" offset=".83593"/>
   <stop stop-color="#60a5fa" offset="1"/>
  </linearGradient>
  <linearGradient id="linearGradient4687-8" x1="1155.1" x2="93.584" y1="262.51" y2="615.88" gradientTransform="matrix(.36542 .038791 -.038791 .36542 -31.741 -37.296)" gradientUnits="userSpaceOnUse">
   <stop stop-color="#8b5cf6" offset="0"/>
   <stop stop-color="#6d28d9" offset=".21248"/>
   <stop stop-color="#6f5cf6" offset=".42964"/>
   <stop stop-color="#7c3aed" offset=".59961"/>
   <stop stop-color="#6376f6" offset=".80968"/>
   <stop stop-color="#6d28d9" offset="1"/>
  </linearGradient>
  <linearGradient id="linearGradient14655" x1="-46.183" x2="1721.9" y1="706.05" y2="445.69" gradientTransform="matrix(.29991 0 0 .29991 -56.207 -19.176)" gradientUnits="userSpaceOnUse">
   <stop stop-color="#bda62c" offset="0"/>
   <stop stop-color="#615516" stop-opacity=".98824" offset=".098576"/>
   <stop stop-color="#cab12f" stop-opacity=".97647" offset=".25339"/>
   <stop stop-color="#8c7b20" stop-opacity=".96863" offset=".33815"/>
   <stop stop-color="#87771f" stop-opacity=".96471" offset=".42151"/>
   <stop stop-color="#bda62c" stop-opacity=".95686" offset=".53339"/>
   <stop stop-color="#82721e" stop-opacity=".94902" offset=".6231"/>
   <stop stop-color="#80711e" stop-opacity=".93725" offset=".73471"/>
   <stop stop-color="#d7be31" stop-opacity=".92941" offset=".83541"/>
   <stop stop-color="#bda62c" stop-opacity=".92175" offset="1"/>
  </linearGradient>
  <linearGradient id="linearGradient25349" x1="-19.327" x2="365.1" y1="174.88" y2="71.87" gradientTransform="matrix(1.1335 0 0 1.1335 -56.207 -19.176)" gradientUnits="userSpaceOnUse" xlink:href="#linearGradient25627"/>
  <linearGradient id="linearGradient6948" x1="466.89" x2="1404.4" y1="475.5" y2="195.51" gradientTransform="matrix(.36748 0 0 .36748 -63.424 -50.709)" gradientUnits="userSpaceOnUse">
   <stop stop-color="#3e2fdd" offset="0"/>
   <stop stop-color="#a4007e" offset="1"/>
  </linearGradient>
  <linearGradient id="linearGradient24274" x1="132.11" x2="1068.3" y1="575.51" y2="320.25" gradientTransform="matrix(.36542 .038791 -.038791 .36542 -31.741 -37.296)" gradientUnits="userSpaceOnUse">
   <stop stop-color="#1c52f2" offset="0"/>
   <stop stop-color="#d62bc3" stop-opacity=".42363" offset="1"/>
  </linearGradient>
  <linearGradient id="linearGradient118139" x1="100.6" x2="345.1" y1="115.79" y2="-9.8374" gradientUnits="userSpaceOnUse">
   <stop stop-color="#8b5cf6" offset="0"/>
   <stop stop-color="#5151dc" offset=".25152"/>
   <stop stop-color="#3b82f6" offset=".4454"/>
   <stop stop-color="#8b5cf6" offset=".63944"/>
   <stop stop-color="#60a5fa" offset=".83593"/>
   <stop stop-color="#60a5fa" offset="1"/>
  </linearGradient>
  <linearGradient id="linearGradient161031" x1="-12.42" x2="373.66" y1="169.75" y2="-5.834" gradientTransform="translate(0 -6.3407)" gradientUnits="userSpaceOnUse" xlink:href="#linearGradient25627"/>
 </defs>
 <rect x="7.1054e-15" width="361.42" height="203.2" fill="#1b1e20" stop-color="#000000" style="-inkscape-stroke:none;font-variation-settings:normal;paint-order:stroke fill markers"/>
 <path d="m366.08-17.039c-54.293 6.8274-50.398 77.249-100.33 85.3-33.194 1.8641-43.731-8.4957-68.988-2.1367-30.085 7.5746-48.037 34.963-73.743 37.436-27.534 2.6488-58.849-11.19-88.712 3.027-18.541 8.8267-27.188 31.384-38.035 47.514v20.628c24.33-13.949 45.448-35.285 63.006-40.847 17.895-5.6686 36.273-2.3413 54.995-1.8888 16.489 0.39853 33.623-11.038 50.629-12.167 33.999-2.2574 70.744 6.4657 104.06 1.0232 32.34-5.2824 55.272-31.446 85.751-39.168 3.6973-0.93671 7.4965-1.4799 11.363-1.7637z" fill="url(#linearGradient161031)"/>
 <path d="m98.724 128.8s28.192-4.5915 42.31-6.7504c20.253-3.0971 40.752-4.7602 60.818-8.8983 20.057-4.1362 40.318-8.3185 59.349-15.881 24.602-9.776 45.616-27.154 69.886-37.727 11.282-4.915 34.965-11.848 34.965-11.848m-267.93 80.557s28.436-4.5336 42.646-6.8525c20.25-3.3046 40.659-5.7808 60.725-10.062 20.098-4.2882 40.586-7.9221 59.639-15.623 24.445-9.8809 44.999-27.74 68.954-38.756 11.605-5.3365 35.996-13.139 35.996-13.139m-268.56 83.885s28.681-4.4734 42.981-6.9533c20.252-3.5122 40.561-6.7979 60.633-11.224 20.139-4.441 40.857-7.5237 59.929-15.369 24.287-9.9904 44.362-28.346 67.998-39.791 11.92-5.7717 37.006-14.457 37.006-14.457m-269.15 87.247s28.928-4.411 43.316-7.0529c20.26-3.72 40.457-7.8114 60.541-12.384 20.179-4.5945 41.13-7.1201 60.218-15.118 24.155-10.12 43.741-29.024 67.082-40.902 12.257-6.2376 38.099-15.836 38.099-15.836m-269.86 90.745s29.175-4.3467 43.65-7.1514c20.273-3.9281 40.348-8.8214 60.451-13.543 20.219-4.7486 41.405-6.7182 60.508-14.869 23.995-10.238 43.06-29.661 66.075-41.944 12.551-6.6981 39.058-17.202 39.058-17.202m-270.34 94.16s29.423-4.2806 43.983-7.2487c20.291-4.1366 40.234-9.8282 60.361-14.7 20.259-4.9032 41.683-6.3117 60.798-14.623 23.859-10.374 42.392-30.362 65.104-43.052 12.863-7.1873 40.091-18.621 40.091-18.621m-270.94 97.696s29.673-4.2129 44.315-7.345c20.315-4.3456 40.114-10.832 60.272-15.855 20.298-5.058 41.963-5.9028 61.088-14.38 23.732-10.519 41.713-31.09 64.129-44.182 13.173-7.6936 41.131-20.069 41.131-20.069m-271.53 101.28s29.923-4.1436 44.646-7.4403c20.343-4.5552 39.99-11.833 60.184-17.009 20.337-5.213 42.246-5.4918 61.377-14.139 23.612-10.672 41.024-31.843 63.15-45.329 13.48-8.2161 42.177-21.541 42.177-21.541m-272.13 104.91s30.174-4.0732 44.976-7.5347c20.377-4.7656 39.86-12.831 60.097-18.162 20.376-5.3679 42.531-5.0791 61.667-13.899 23.5-10.831 40.324-32.617 62.167-46.489 13.781-8.7529 43.225-23.032 43.225-23.032m-272.73 108.57s30.426-4.0015 45.305-7.6284c20.416-4.9767 39.726-13.827 60.011-19.315 20.415-5.5228 42.818-4.6649 61.957-13.662 23.396-10.998 39.614-33.409 61.183-47.661 14.078-9.3032 44.278-24.54 44.278-24.54m-273.33 112.26s30.679-3.929 45.633-7.7213c20.46-5.1887 39.586-14.821 59.925-20.466 20.453-5.6774 43.095-4.2739 62.247-13.425 23.001-10.991 38.507-33.587 59.51-48.035 14.026-9.6486 44.17-25.643 44.17-25.643l1.857-1.2477m-273.94 115.99s30.933-3.8554 45.961-7.8132c20.509-5.4014 39.442-15.811 59.84-21.617 20.491-5.8317 43.398-3.8323 62.537-13.191 23.214-11.352 38.162-35.046 59.204-50.045 14.655-10.446 46.397-27.611 46.397-27.611m-274.54 119.73s31.188-3.7814 46.288-7.905c20.563-5.6155 39.293-16.801 59.756-22.768 20.528-5.9855 43.691-3.4151 62.827-12.957 23.134-11.535 37.424-35.876 58.216-51.236 14.932-11.03 47.457-29.146 47.457-29.146m-275.15 123.46s31.443-3.707 46.613-7.9965c20.621-5.8308 39.138-17.791 59.672-23.92 20.566-6.1386 43.985-2.9977 63.119-12.722 23.061-11.72 36.677-36.705 57.228-52.414 15.199-11.618 48.512-30.668 48.512-30.668m-275.75 127.17s31.699-3.6325 46.937-8.088c20.683-6.0475 38.978-18.779 59.588-25.072 20.604-6.2912 44.281-2.5803 63.411-12.486 22.994-11.906 35.924-37.532 56.244-53.58 15.458-12.208 49.564-32.174 49.564-32.174m-276.35 130.85s31.955-3.5579 47.26-8.1794c20.75-6.2658 38.813-19.768 59.504-26.226 20.642-6.4429 44.577-2.1631 63.705-12.249 22.933-12.093 35.166-38.353 55.265-54.729 15.707-12.798 50.613-33.658 50.613-33.658m-276.95 134.49s32.212-3.4834 47.582-8.2709c20.822-6.4856 38.642-20.756 59.42-27.381 20.68-6.5938 44.875-1.7463 64-12.011 22.877-12.278 34.403-39.162 54.289-55.856 15.946-13.386 51.654-35.116 51.654-35.116m-277.55 138.09s32.469-3.4091 47.903-8.3626c20.897-6.707 38.466-21.745 59.335-28.538 20.718-6.7438 45.173-1.3299 64.297-11.771 22.827-12.463 33.638-39.961 53.32-56.961 16.177-13.972 52.693-36.544 52.693-36.544m-278.15 141.63s32.727-3.3352 48.222-8.4544c20.977-6.9302 38.284-22.734 59.251-29.697 20.757-6.8929 45.471-0.91417 64.595-11.529 22.781-12.645 32.87-40.744 52.357-58.038 16.397-14.551 53.723-37.938 53.723-37.938m-278.75 145.11s32.984-3.2617 48.54-8.5466c21.061-7.1552 38.097-23.724 59.166-30.857 20.797-7.0409 45.77-0.499 64.895-11.285 22.738-12.824 32.101-41.509 51.402-59.087 16.608-15.125 54.747-39.295 54.747-39.295m-279.35 148.52s33.242-3.1889 48.857-8.6392c21.148-7.3819 37.905-24.714 59.08-32.019 20.837-7.1879 46.07-0.08444 65.197-11.038 22.699-12.999 31.332-42.255 50.454-60.104 16.81-15.69 55.763-40.612 55.763-40.612m-279.95 151.86s33.5-3.1167 49.172-8.7321c21.24-7.6106 37.707-25.706 58.993-33.184 20.877-7.3338 46.369 0.32953 65.501-10.789 22.662-13.17 30.564-42.979 49.514-61.088 17.003-16.247 56.77-41.887 56.77-41.887m-280.55 155.13s33.759-3.0453 49.485-8.8254c21.335-7.8412 37.503-26.698 58.906-34.35 20.919-7.4786 46.669 0.743 65.807-10.537 22.628-13.337 29.797-43.681 48.583-62.037 17.187-16.793 57.769-43.118 57.769-43.118m-281.15 158.32s34.017-2.9748 49.798-8.9192c21.434-8.0737 37.294-27.692 58.819-35.519 20.961-7.6222 46.969 1.156 66.116-10.283 22.595-13.499 29.032-44.359 47.662-62.952 17.363-17.328 58.759-44.304 58.759-44.304m-281.75 161.43s34.275-2.9052 50.108-9.0135c21.536-8.3083 37.079-28.687 58.73-36.691 21.004-7.7647 47.269 1.5687 66.426-10.025 22.563-13.655 28.27-45.013 46.748-63.83 17.53-17.852 59.739-45.443 59.739-45.443m-282.35 164.45s34.533-2.8366 50.418-9.1084c21.642-8.5448 36.859-29.683 58.64-37.865 21.048-7.906 47.568 1.9811 66.74-9.765 22.531-13.805 27.512-45.641 45.845-64.671 17.691-18.363 60.712-46.536 60.712-46.536m-282.96 167.4s34.791-2.7691 50.726-9.2036c21.751-8.7834 36.633-30.68 58.55-39.041 21.092-8.0461 47.868 2.3935 67.055-9.5016 22.5-13.949 26.758-46.244 44.95-65.476 17.843-18.862 61.673-47.581 61.673-47.581m-283.55 170.25s35.049-2.7027 51.032-9.2995c21.864-9.024 36.401-31.679 58.458-40.22 21.138-8.185 48.168 2.8059 67.373-9.2352 22.47-14.088 26.008-46.822 44.067-66.245 17.99-19.349 62.627-48.58 62.627-48.58m-284.16 173.03s35.306-2.6375 51.336-9.3959c21.979-9.2667 36.165-32.68 58.366-41.401 21.185-8.3226 48.468 3.2185 67.694-8.9657 22.439-14.22 25.263-47.374 43.192-66.977 18.13-19.823 63.571-49.532 63.571-49.532" fill="none" stroke="url(#linearGradient118139)" stroke-width=".097228px"/>
 <path d="m-1.9805 185.78c19.976-5.1633 41.383-35.576 63.28-38.847 25.836-3.8601 46.874 18.272 73.65 18.783 44.352 0.84646 65.599-44.44 119.82-13.238 23.612 13.587 63.818 1.6394 85.792-24.887m-342.76 57.728c19.769-5.3006 40.947-36.192 63.064-39.362 25.74-3.7486 47.174 18.167 74.221 18.428 43.758 0.69013 65.235-43.71 118.7-13.36 23.789 13.175 63.202 1.4988 85.475-24.284m-341.68 58.117c19.562-5.438 40.511-36.807 62.849-39.877 25.644-3.6371 47.474 18.062 74.791 18.073 43.164 0.53383 64.87-42.981 117.59-13.483 23.966 12.763 62.587 1.3583 85.158-23.68m-340.6 58.505c19.355-5.5753 40.076-37.423 62.633-40.391 25.548-3.5255 47.775 17.957 75.361 17.718 42.57 0.37747 64.506-42.252 116.47-13.605 24.143 12.351 61.971 1.2177 84.841-23.076m-339.52 58.893c19.148-5.7126 39.64-38.039 62.418-40.906 25.452-3.4139 48.075 17.853 75.931 17.363 41.975 0.22111 64.142-41.523 115.35-13.728 24.32 11.94 61.356 1.0772 84.524-22.473m-338.44 59.282c18.941-5.8499 39.204-38.655 62.203-41.421 25.357-3.3024 48.375 17.748 76.501 17.008 41.381 0.0647 63.778-40.793 114.23-13.85 24.496 11.528 60.74 0.93665 84.207-21.869m-337.36 59.67c18.734-5.9872 38.769-39.271 61.987-41.935 25.261-3.1909 48.676 17.643 77.072 16.652 40.787-0.0915 63.413-40.064 113.11-13.972 24.673 11.116 60.125 0.79613 83.89-21.265m-336.28 60.059c18.526-6.1245 38.333-39.887 61.772-42.45 25.165-3.0793 48.976 17.538 77.642 16.297 40.193-0.24783 63.049-39.335 111.99-14.095 24.85 10.704 59.509 0.65556 83.573-20.662m-335.2 60.447c18.319-6.2618 37.897-40.503 61.557-42.964 25.069-2.9677 49.276 17.433 78.212 15.942 39.598-0.40419 62.685-38.606 110.87-14.217 25.027 10.292 58.894 0.51502 83.257-20.058m-333.92 60.765c18.055-6.5795 37.351-41.056 61.145-43.408 24.973-2.8562 49.577 17.328 78.782 15.587 39.004-0.56055 62.321-37.876 109.76-14.34 25.204 9.8805 58.278 0.3745 82.94-19.454m-332.62 61.068c17.786-6.9198 36.798-41.596 60.713-43.838 24.877-2.7446 49.877 17.224 79.352 15.232 38.41-0.71683 61.956-37.147 108.64-14.462 25.381 9.4686 57.662 0.23395 82.623-18.851m-331.33 61.363c17.517-7.2649 36.249-42.127 60.281-44.259 24.781-2.6331 50.177 17.119 79.923 14.877 37.816-0.87317 61.592-36.418 107.52-14.584 25.558 9.0568 57.047 0.0935 82.306-18.247m-330.03 61.649c17.247-7.6152 35.703-42.648 59.849-44.671 24.686-2.5215 50.478 17.014 80.493 14.522 37.221-1.0295 61.228-35.689 106.4-14.707 25.735 8.645 56.431-0.0473 81.989-17.643m-328.73 61.926c16.978-7.9694 35.163-43.159 59.418-45.075 24.59-2.41 50.778 16.909 81.063 14.167 36.627-1.1858 60.864-34.959 105.28-14.829 25.912 8.2331 55.816-0.18769 81.672-17.04m-327.44 62.193c16.709-8.3282 34.627-43.66 58.987-45.468 24.494-2.2984 51.078 16.804 81.633 13.812 36.033-1.3421 60.499-34.23 104.16-14.951 26.088 7.8214 55.2-0.32816 81.355-16.436m-326.14 62.45c16.441-8.6913 34.095-44.15 58.555-45.851 24.398-2.1869 51.379 16.7 82.203 13.457 35.439-1.4985 60.135-33.501 103.05-15.074 26.265 7.4095 54.585-0.46879 81.038-15.832m-324.84 62.696c16.172-9.0586 33.569-44.628 58.124-46.223 24.302-2.0753 51.679 16.595 82.774 13.102 34.844-1.6548 59.771-32.772 101.93-15.196 26.442 6.9976 53.969-0.60932 80.721-15.229m-323.55 62.93c15.904-9.4297 33.047-45.093 57.692-46.584 24.206-1.9638 51.979 16.49 83.344 12.747 34.25-1.8111 59.407-32.042 100.81-15.319 26.619 6.5858 53.354-0.74987 80.404-14.625m-322.25 63.152c15.637-9.8046 32.531-45.546 57.26-46.932 24.11-1.8522 52.28 16.385 83.914 12.392 33.656-1.9675 59.042-31.313 99.69-15.441 26.796 6.174 52.738-0.89039 80.088-14.021m-320.95 63.361c15.37-10.183 32.019-45.985 56.829-47.267 24.014-1.7407 52.58 16.28 84.484 12.037 33.062-2.1238 58.678-30.584 98.572-15.563 26.973 5.7622 52.123-1.0309 79.771-13.418m-319.66 63.557c15.104-10.564 31.514-46.41 56.397-47.589 23.919-1.6291 52.88 16.176 85.054 11.682 32.467-2.2802 58.314-29.855 97.453-15.686 27.15 5.3503 51.507-1.1715 79.454-12.814m-318.36 63.738c14.839-10.949 31.014-46.819 55.965-47.896 23.823-1.5176 53.181 16.071 85.625 11.327 31.873-2.4365 57.95-29.126 96.335-15.808 27.327 4.9385 50.892-1.3121 79.137-12.21m-317.06 63.904c14.574-11.335 30.52-47.212 55.534-48.189 23.727-1.406 53.481 15.966 86.195 10.972 31.279-2.5928 57.585-28.396 95.216-15.931 27.504 4.5266 50.276-1.4526 78.82-11.607m-315.77 64.054c14.311-11.724 30.032-47.588 55.103-48.465 23.631-1.2944 53.781 15.861 86.765 10.617 30.684-2.7491 57.221-27.667 94.098-16.053 27.68 4.1149 49.66-1.5931 78.503-11.003m-314.47 64.187c14.049-12.114 29.551-47.946 54.671-48.724 23.535-1.1829 54.082 15.756 87.335 10.262 30.09-2.9054 56.857-26.938 92.979-16.175 27.857 3.703 49.045-1.7337 78.186-10.399m-313.17 64.303c13.788-12.505 29.076-48.286 54.239-48.966 23.439-1.0713 54.382 15.652 87.905 9.9066 29.496-3.0618 56.493-26.209 91.861-16.298 28.034 3.2912 48.429-1.8742 77.869-9.7958m-311.88 64.399c13.528-12.897 28.608-48.605 53.808-49.189 23.343-0.95978 54.682 15.547 88.476 9.5516 28.902-3.2181 56.128-25.479 90.742-16.42 28.211 2.8794 47.814-2.0148 77.552-9.1921m-310.58 64.475c13.27-13.289 28.148-48.903 53.376-49.391 23.247-0.84822 54.983 15.442 89.046 9.1965 28.307-3.3744 55.764-24.75 89.624-16.542 28.388 2.4676 47.198-2.1553 77.236-8.5884m-309.28 64.531c13.014-13.68 27.694-49.18 52.945-49.573 23.152-0.73668 55.283 15.337 89.616 8.8415 27.713-3.5308 55.4-24.021 88.505-16.665 28.565 2.0557 46.583-2.2958 76.919-7.9848m-307.98 64.564c12.76-14.07 27.249-49.433 52.513-49.733 23.056-0.62514 55.583 15.232 90.186 8.4864 27.119-3.6871 55.036-23.292 87.387-16.787 28.742 1.6439 45.967-2.4364 76.602-7.3811m-306.69 64.575c12.508-14.458 26.811-49.661 52.082-49.869 22.96-0.51359 55.884 15.128 90.756 8.1314 26.525-3.8434 54.671-22.562 86.269-16.91 28.919 1.2321 45.352-2.5769 76.285-6.7774m-305.39 64.56c12.259-14.843 26.381-49.864 51.65-49.981 22.864-0.40201 56.184 15.023 91.327 7.7763 25.93-3.9998 54.307-21.833 85.15-17.032 29.095 0.82026 44.736-2.7174 75.968-6.1738m-304.09 64.52c12.012-15.224 25.96-50.039 51.218-50.067 22.768-0.29046 56.484 14.918 91.897 7.4212 25.336-4.1561 53.943-21.104 84.032-17.154 29.272 0.40844 44.121-2.858 75.651-5.5701m-302.8 64.453c11.768-15.601 25.548-50.186 50.787-50.126 22.672-0.17893 56.785 14.813 92.467 7.0662 24.742-4.3124 53.579-20.375 82.913-17.277 29.449-1e-3 43.505-2.9985 75.334-4.9665m-301.5 64.358c11.527-15.972 25.145-50.303 50.355-50.157 22.576-0.0672 57.085 14.708 93.037 6.7112 24.148-4.4687 53.214-19.645 81.795-17.399 29.626-0.41522 42.89-3.1391 75.017-4.3628m-300.2 64.233c11.289-16.336 24.751-50.389 49.924-50.158 22.481 0.0442 57.385 14.604 93.607 6.3561 23.553-4.6251 52.85-18.916 80.676-17.522 29.803-0.82707 42.274-3.2796 74.7-3.7592m-298.91 64.076c11.055-16.692 24.367-50.442 49.492-50.127 22.385 0.15577 57.686 14.499 94.178 6.001 22.959-4.7814 52.486-18.187 79.558-17.644 29.98-1.2389 41.659-3.4202 74.384-3.1555m-297.61 63.889c10.825-17.039 23.993-50.463 49.062-50.067 22.289 0.2673 57.986 14.394 94.748 5.646 22.365-4.9377 52.122-17.458 78.439-17.766 30.157-1.6507 41.043-3.5607 74.067-2.5518m-296.32 63.667c10.599-17.375 23.629-50.447 48.631-49.972 22.193 0.37885 58.286 14.289 95.318 5.291 21.771-5.0941 51.757-16.728 77.321-17.889 30.334-2.0625 40.428-3.7012 73.75-1.9481m-295.02 63.407c10.377-17.701 23.275-50.39 48.198-49.837 22.097 0.49041 58.587 14.184 95.888 4.9359 21.176-5.2504 51.393-15.999 76.202-18.011 30.511-2.4744 39.812-3.8418 73.433-1.3445" fill="none" stop-color="#000000" stroke="url(#linearGradient24274)" stroke-width=".29168" style="font-variation-settings:normal"/>
 <path d="m366.08-15.253c-54.293 6.8274-50.398 76.074-100.33 84.125-33.194 1.8641-43.731-7.282-68.988-0.92294-30.085 7.5746-48.037 33.749-73.743 36.222-27.534 2.6488-58.849-10.664-88.712 3.5522-18.541 8.8267-27.188 31.307-38.035 47.437v21.973c24.33-13.949 45.448-35.285 63.006-40.847 17.895-5.6686 36.273-2.3413 54.995-1.8888 16.489 0.39853 33.623-11.038 50.629-12.167 33.999-2.2574 70.744 6.4657 104.06 1.0232 32.34-5.2824 55.272-31.446 85.751-39.168 3.6973-0.93671 7.4965-1.4799 11.363-1.7637z" fill="url(#linearGradient4551-1)"/>
 <path d="m366.08 32.188c-33.803 4.492-50.86 18.171-71.754 46.802-24.8 33.983-70.993 20.73-70.993 20.73l54.513 19.231 88.233-16.062z" fill="url(#linearGradient12309-5)"/>
 <path d="m106.57 119.11c8.0485 0.74053 28.879-0.39804 36.77-3.0912 40.13-19.535 55.128-41.757 100.88-28.482 51.298 14.885 68.974-54.989 121.94-62.724m-259.88 110.02s18.604-0.9188 44.657-2.4813c46.012-3.2417 60.126-2.3851 110.45 11.275 34.595 9.3913 71.62-35.689 104.79-41.653m-259.88 32.317c0.27755 0.0255 18.958-0.90087 44.385-2.5024 45.788-3.8592 60.078-3.7529 110.12 9.9041 34.935 9.535 71.911-35.621 105.38-41.953m-259.87 34.009c0.55509 0.0514 19.312-0.8829 44.113-2.5234 45.564-4.475 60.026-5.1271 109.79 8.5332 35.28 9.6854 72.203-35.582 105.97-42.295m-259.86 35.743c0.8326 0.0765 19.667-0.8649 43.842-2.5444 45.301-5.0902 60.029-6.4912 109.46 7.1623 35.632 9.8428 72.495-35.574 106.56-42.681m-259.84 37.521c1.1101 0.10213 20.021-0.84698 43.57-2.5654 45.088-5.7055 59.96-7.8806 109.13 5.7913 35.994 10.009 72.798-35.604 107.15-43.117m-259.84 39.349c1.3877 0.12774 20.375-0.82904 43.298-2.5865 44.884-6.3196 59.876-9.28 108.8 4.4204 36.367 10.185 73.109-35.675 107.75-43.602m-259.83 41.226c1.6652 0.15318 20.73-0.81104 43.026-2.6075 44.66-6.9176 59.769-10.692 108.47 3.0495 36.749 10.37 73.422-35.79 108.35-44.137m-259.83 43.153c1.9427 0.17877 21.084-0.79306 42.754-2.6285 44.434-7.5214 59.692-12.102 108.14 1.6786 37.14 10.565 73.733-35.953 108.94-44.721m-259.82 45.129c2.2203 0.2043 21.438-0.77513 42.482-2.6495 44.207-8.1218 59.607-13.51 107.81 0.30758 37.565 10.769 74.02-36.165 109.52-45.355m-259.8 47.154c2.4978 0.2298 21.793-0.75715 42.21-2.6706 43.981-8.7183 59.517-14.931 107.48-1.0633 38.081 11.011 74.236-36.418 110.1-46.038m-259.77 49.229c2.7754 0.25537 22.147-0.73921 41.938-2.6916 43.755-9.3108 59.424-16.365 107.15-2.4342 38.546 11.252 74.532-36.76 110.69-46.776m-259.77 51.359c3.0529 0.28089 22.501-0.72127 41.666-2.7126 43.531-9.8991 59.325-17.81 106.82-3.8052 39.031 11.51 74.824-37.176 111.28-47.561m-259.76 53.537c3.3304 0.30642 22.856-0.7033 41.394-2.7337 43.309-10.483 59.221-19.267 106.49-5.1761 39.537 11.787 75.119-37.677 111.87-48.393m-259.74 55.76c3.608 0.33195 23.21-0.68534 41.122-2.7547 43.088-11.061 59.112-20.736 106.16-6.547 40.066 12.084 75.418-38.272 112.47-49.267m-259.73 58.026c3.8855 0.35749 23.564-0.6674 40.85-2.7757 42.87-11.635 58.997-22.217 105.83-7.9179 40.617 12.402 75.729-38.971 113.06-50.177m-259.72 60.328c4.163 0.38304 23.919-0.64942 40.578-2.7967 42.654-12.204 58.877-23.713 105.5-9.2889 41.188 12.743 76.058-39.784 113.65-51.117m-259.71 62.66c4.4406 0.40857 24.273-0.63148 40.306-2.8178 42.442-12.766 58.752-25.221 105.17-10.66 41.778 13.107 76.418-40.721 114.24-52.078m-259.7 65.013c4.7181 0.43411 24.627-0.61355 40.034-2.8388 42.233-13.324 58.64-26.805 104.84-12.031 41.883 13.395 76.99-41.837 114.82-53.05m-259.69 67.377c4.9956 0.45966 24.982-0.59557 39.762-2.8598 42.029-13.875 58.505-28.344 104.51-13.402 42.469 13.795 77.376-43.014 115.42-54.024m-259.68 69.743c5.2732 0.48516 25.336-0.57759 39.49-2.8809 41.829-14.421 58.361-29.891 104.18-14.773 43.078 14.215 77.789-44.308 116.01-54.984m-259.67 72.095c5.5507 0.51075 25.69-0.55964 39.218-2.9019 41.633-14.96 58.208-31.44 103.85-16.144 43.713 14.651 78.244-45.712 116.6-55.92m-259.66 74.423c5.8283 0.53627 26.045-0.54167 38.946-2.9229 41.443-15.493 58.043-32.985 103.52-17.514 44.38 15.098 78.751-47.211 117.2-56.817m-259.65 76.712c6.1058 0.56176 26.399-0.52372 38.674-2.944 41.258-16.021 57.858-34.504 103.19-18.885 44.787 15.431 78.665-48.401 116.94-57.477 0.28868-0.06575 0.57663-0.13094 0.8639-0.19531m-259.65 78.959c6.3833 0.58731 26.753-0.50576 38.402-2.965 41.079-16.542 57.387-35.213 102.86-20.256 49.856 16.4 71.468-48.538 118.4-58.495m-259.65 81.174c6.6609 0.61288 27.108-0.4878 38.13-2.986 40.905-17.057 57.056-36.367 102.53-21.627 50.127 16.249 71.113-49.693 118.99-59.282m-259.64 83.353c6.9384 0.63838 27.462-0.46984 37.858-3.007 40.738-17.565 56.707-37.499 102.2-22.998 50.398 16.065 70.703-50.814 119.58-60.035m-259.62 85.498c7.216 0.66393 27.816-0.45192 37.586-3.0281 40.576-18.067 56.339-38.603 101.87-24.369 50.659 15.838 70.275-51.908 120.18-60.756m-259.62 87.611c7.4935 0.68949 28.171-0.43393 37.314-3.0491 40.421-18.563 55.953-39.684 101.54-25.74 50.894 15.568 69.833-52.967 120.76-61.442m-259.6 89.689c7.771 0.715 28.525-0.41594 37.042-3.0701 40.272-19.052 55.549-40.733 101.21-27.111 51.111 15.248 69.405-53.999 121.36-62.1" fill="none" stroke="url(#linearGradient6948)" stroke-width=".097228px"/>
 <path d="m366.08 60.519c-3.715 0.53779-7.6253 1.243-11.88 2.1782-43.685 9.6006-51.453 45.535-84.3 42.228-15.961-1.6067-50.868-11.446-66.556-8.5008-26.729 5.0176-38.243 22.16-65.622 24.673-32.128 2.9492-52.467-13.075-84.32-8.3059-26.764 4.0072-41.689 34.547-54.171 49.819-0.95388 1.1672-1.9428 2.2534-2.96 3.2784v11.229c9.655-4.76 17.843-9.5638 22.471-12.571 66.464-56.563 56.137-9.3786 107.22-12.649 17.271-1.1057 60.936-34.129 78.288-37.739 35.838-7.4548 42.977 17.568 78.684 11.782 29.516-4.7828 55.715-21.398 83.148-31.647z" fill="url(#linearGradient4479-5)"/>
 <path d="m366.08 84.551c-0.57018 0.094-1.138 0.1753-1.7115 0.2868-21.305 4.1422-36.727 18.49-62.893 33.809-29.113 17.044-71.08-20.737-100.01-13.489-29.389 7.3642-42.374 32.68-71.525 36.762-29.491 4.1288-47.278-32.21-86.116-16.703-23.306 9.3055-30.892 32.718-42.148 44.259-1.7838 1.8291-3.5831 3.472-5.4079 4.962v13.148c2.9733-1.2345 5.9995-2.7137 9.093-4.4876 23.799-13.647 33.412-43.332 62.126-45.164 15.671-0.99942 33.817 18.369 57.856 21.344 32.155 3.9795 54.63-26.599 73.114-29.881 38.076-6.7622 51.533 21.135 79.833 24.28 36.99 4.1108 60.221-25.427 87.786-40.906z" fill="url(#linearGradient4687-8)"/>
 <path d="m366.09 90.21c-26.452 18.687-48.923 63.705-83.378 63.691 34.433 1.383 56.929-26.289 83.378-41.115zm-152.05 22.026c-33.12 0.54485-51.555 45.555-85.415 47.331 30.4 1.5963 51.991-27.001 69.835-30.17 38.076-6.7622 51.533 21.135 79.833 24.28-26.532-2.9485-32.932-41.956-64.253-41.441zm-147.82 17.454c-28.245-0.3385-48.597 46.509-69.947 54.635v2.7972c2.9175-1.3116 5.8531-2.762 8.7726-4.3651 23.799-13.647 33.733-42.992 62.447-44.824 15.671-0.99942 33.817 18.461 57.856 21.436-24.039-2.975-33.16-29.369-59.129-29.68z" fill="#e9ebed" fill-opacity=".49133" opacity=".23994"/>
 <path d="m366.08 110.29c-25.597 15.455-48.781 42.578-81.518 43.563-0.61381 0.0286-1.2301 0.0473-1.8516 0.047 1.076 0.0433 2.1404 0.0582 3.1936 0.046 4.2122-0.049 8.2458-0.53234 12.132-1.3663 0.69683-0.14955 1.3832-0.32285 2.0707-0.49454 0.27104-0.0676 0.54684-0.1238 0.81651-0.19482 0-1.4e-4 0-2.7e-4 3e-3 -5.3e-4 0.45773-0.12058 0.90739-0.2612 1.3612-0.39119 0.49162-0.14083 0.98724-0.27223 1.4743-0.42375 0.9358-0.29113 1.863-0.60154 2.7828-0.93017 0-2.7e-4 0-8e-4 3e-3 -1e-3 0.91961-0.32859 1.8317-0.67517 2.7362-1.0387 0-2.6e-4 3e-3 -7.9e-4 3e-3 -1e-3 0.10509-0.0422 0.20769-0.0896 0.31263-0.13229 0.79883-0.32513 1.5944-0.65837 2.3823-1.0087 0.89043-0.39596 1.7737-0.80721 2.651-1.233 0-5.3e-4 3e-3 -1e-3 3e-3 -2e-3 0.82828-0.40201 1.6506-0.819 2.4681-1.2454 0.0493-0.0258 0.0996-0.0492 0.14883-0.0749 0.86479-0.45295 1.7235-0.91864 2.5771-1.3963 0-7.9e-4 3e-3 -1e-3 4e-3 -2e-3 0.85366-0.47769 1.7022-0.96725 2.5456-1.4671 0-7.9e-4 3e-3 -1e-3 4e-3 -2e-3 0.84336-0.49983 1.682-1.0097 2.5161-1.5291 0-7.9e-4 3e-3 -2e-3 4e-3 -3e-3 0.8341-0.51947 1.6634-1.0479 2.4892-1.5844 0-7.9e-4 3e-3 -2e-3 4e-3 -3e-3 1.6528-1.0738 3.29-2.1794 4.9155-3.3063 0-1e-3 3e-3 -2e-3 4e-3 -3e-3 0.75668-0.52456 1.5036-1.0661 2.2557-1.5989 0.86487-0.61277 1.7349-1.2179 2.5947-1.8386 3.2129-2.3196 6.3939-4.6841 9.5751-7.0115 0-7.9e-4 3e-3 -1e-3 3e-3 -2e-3 0.1034-0.0757 0.20669-0.14924 0.31006-0.2248 1.4891-1.0882 2.9784-2.1698 4.471-3.2324 1.593-1.134 3.1896-2.2487 4.794-3.3336v-5.3e-4c1.2959-0.87629 2.6019-1.7164 3.9098-2.5487 0.31398-0.19977 0.6237-0.41499 0.93845-0.61185 0.81245-0.50806 1.6277-1.0056 2.4464-1.4924 0.47406-0.28191 0.95195-0.55167 1.4283-0.82579 0.34687-0.19957 0.69154-0.40576 1.0397-0.60099zm-154.82 16.453v5.3e-4c-32.214-0.83583-46.023 33.698-82.638 32.821 30.4 1.5963 51.991-27.001 69.835-30.17 1.1569-0.20547 2.2893-0.37618 3.4019-0.51935 0.36765-0.0473 0.72121-0.0745 1.0842-0.11524 0.73759-0.0828 1.4759-0.16626 2.1947-0.22272 0.41758-0.0328 0.82108-0.0467 1.2325-0.0708 0.64354-0.0379 1.2889-0.0783 1.9177-0.0956 0.42819-0.0118 0.8445-7e-3 1.2661-0.01 0.59769-4e-3 1.1965-8e-3 1.7813 5e-3 0.40716 9e-3 0.80505 0.0333 1.2061 0.0517 0.58742 0.0268 1.1734 0.0546 1.7482 0.0987 0.38146 0.0293 0.75617 0.0682 1.1322 0.1049 0.57248 0.0559 1.1423 0.11515 1.7027 0.18759 0.36656 0.0475 0.72779 0.10234 1.0893 0.15658 0.56194 0.0842 1.1204 0.1733 1.6707 0.27336 0.33397 0.0608 0.66494 0.12584 0.99477 0.19224 0.57095 0.11479 1.1364 0.23658 1.6955 0.36742 0.29931 0.0702 0.59748 0.14201 0.89349 0.21653 0.57747 0.14523 1.1486 0.29873 1.7141 0.45992 0.2624 0.0748 0.52454 0.14974 0.78445 0.22789 0.60838 0.1827 1.2096 0.37496 1.8051 0.57464 0.20486 0.0688 0.41051 0.13654 0.61392 0.20722 0.65022 0.22569 1.2924 0.46139 1.9286 0.70539 0.14135 0.0542 0.28407 0.10661 0.42478 0.16174 0.72446 0.28356 1.4402 0.5786 2.1482 0.88315 0.0458 0.0197 0.0922 0.0386 0.13798 0.0584 3.0201 1.3064 5.8913 2.7968 8.6971 4.3563 0.24777 0.13783 0.49537 0.275 0.74207 0.41393 4.6059 2.5918 9.0427 5.3489 13.59 7.8398 0.15188 0.0832 0.30568 0.16233 0.45786 0.24495 5.3217 2.8869 10.824 5.3764 16.998 6.7221-22.863-5.1952-32.979-25.368-62.251-26.127zm-142.42 10.201c-0.4949-0.01-0.98719 7.9e-4 -1.4769 0.032-28.714 1.8312-40.566 32.407-64.325 46.122-2.2966 1.3257-4.5617 2.4652-6.7712 3.4675v1.0025c0.9222-0.38466 1.8451-0.77234 2.7781-1.2056 0.75177-0.35145 1.5088-0.71423 2.2774-1.1022 0.29387-0.14794 0.58863-0.29966 0.88367-0.45269 1.0396-0.54014 2.0877-1.1005 3.1533-1.7115 23.799-13.647 33.413-43.332 62.127-45.164 11.753-0.74958 24.899 10.009 40.878 16.691 1.3316 0.55678 2.6827 1.0855 4.0545 1.5766 2.5154 0.90058 5.1093 1.653 7.768 2.2469-20.8-4.756-37.158-21.233-51.347-21.503zm51.347 21.503c0.40448 0.0925 0.80911 0.18376 1.217 0.26717-0.40859-0.0819-0.81185-0.17667-1.217-0.26717zm1.217 0.26717c0.53916 0.10806 1.0779 0.21676 1.6232 0.30903-0.54444-0.0935-1.0847-0.1989-1.6232-0.30903zm1.6232 0.30903c0.0812 0.0139 0.1621 0.0283 0.2434 0.0419-0.0814-0.0134-0.16217-0.0281-0.2434-0.0419zm0.2434 0.0419c0.68629 0.11288 1.3756 0.21719 2.0717 0.30333-0.69565-0.0861-1.3856-0.18897-2.0717-0.30333zm150.24-6.1939c0.76375 0.17355 1.543 0.32847 2.3389 0.46302 0.80224 0.13261 1.6136 0.2492 2.4402 0.34106-1.6441-0.18271-3.2274-0.46595-4.779-0.80408z" fill="url(#linearGradient14655)"/>
 <path d="m366.08 59.048s-7.2162 1.2915-11.06 2.4262c-45.769 13.51-49.295 41.1-79.376 43.761-12.914 1.1422-50.096-11.93-70.777-9.0511-26.705 3.7178-40.547 21.133-63.899 24.407-28.756 4.0323-58.459-14.292-90.883-7.8447-25.282 5.027-35.412 31.465-53.814 51.777v1.2266c15.512-15.525 28.053-46.514 53.814-52.342 31.415-7.1071 65.155 14.201 91.534 8.1232 28.438-6.5524 36.754-20.525 63.256-24.691 23.509-3.6958 55.639 11.964 70.923 10.094 28.031-3.4296 38.312-31.807 81.642-44.337 2.914-0.84272 8.6403-1.3451 8.6403-1.3451z" fill="url(#linearGradient25349)"/>
</svg>
