<?xml version="1.0" encoding="UTF-8"?>
<svg width="1680" height="1200" version="1.1" viewBox="0 0 444.5 317.5" xmlns="http://www.w3.org/2000/svg" xmlns:xlink="http://www.w3.org/1999/xlink">
<defs>
<linearGradient id="linearGradient25627">
<stop stop-color="#bda62c" offset="0"/>
<stop stop-color="#ae9a28" stop-opacity=".98824" offset=".14669"/>
<stop stop-color="#8c7b20" stop-opacity=".96863" offset=".30531"/>
<stop stop-color="#bda62c" stop-opacity=".95686" offset=".51079"/>
<stop stop-color="#82721e" stop-opacity=".94902" offset=".6231"/>
<stop stop-color="#c0ab2c" stop-opacity=".99608" offset=".83541"/>
<stop stop-color="#7f6f1e" stop-opacity=".92157" offset="1"/>
</linearGradient>
<linearGradient id="linearGradient25349-6" x1="-19.327" x2="365.1" y1="174.88" y2="71.87" gradientTransform="matrix(1.4148 0 0 1.4148 -72.924 3.5318)" gradientUnits="userSpaceOnUse" xlink:href="#linearGradient25627"/>
<linearGradient id="linearGradient14655-8" x1="-46.183" x2="1721.9" y1="706.05" y2="445.69" gradientTransform="matrix(.37433 0 0 .37433 -72.924 3.5318)" gradientUnits="userSpaceOnUse">
<stop stop-color="#bda62c" offset="0"/>
<stop stop-color="#615516" stop-opacity=".98824" offset=".098576"/>
<stop stop-color="#cab12f" stop-opacity=".97647" offset=".25339"/>
<stop stop-color="#8c7b20" stop-opacity=".96863" offset=".33815"/>
<stop stop-color="#87771f" stop-opacity=".96471" offset=".42151"/>
<stop stop-color="#bda62c" stop-opacity=".95686" offset=".53339"/>
<stop stop-color="#82721e" stop-opacity=".94902" offset=".6231"/>
<stop stop-color="#80711e" stop-opacity=".93725" offset=".73471"/>
<stop stop-color="#d7be31" stop-opacity=".92941" offset=".83541"/>
<stop stop-color="#bda62c" stop-opacity=".92175" offset="1"/>
</linearGradient>
<linearGradient id="linearGradient4687-8-4" x1="1155.1" x2="93.584" y1="262.51" y2="615.88" gradientTransform="matrix(.4561 .048416 -.048416 .4561 -42.388 -19.084)" gradientUnits="userSpaceOnUse">
<stop stop-color="#8b5cf6" offset="0"/>
<stop stop-color="#6d28d9" offset=".21248"/>
<stop stop-color="#6f5cf6" offset=".42964"/>
<stop stop-color="#7c3aed" offset=".59961"/>
<stop stop-color="#6376f6" offset=".80968"/>
<stop stop-color="#6d28d9" offset="1"/>
</linearGradient>
<linearGradient id="linearGradient4479-5-9" x1="1143.2" x2="120.86" y1="196.75" y2="539.49" gradientTransform="matrix(.4561 .048416 -.048416 .4561 -42.388 -19.084)" gradientUnits="userSpaceOnUse">
<stop stop-color="#8b5cf6" offset="0"/>
<stop stop-color="#5151dc" offset=".25152"/>
<stop stop-color="#3b82f6" offset=".4454"/>
<stop stop-color="#8b69f6" offset=".63944"/>
<stop stop-color="#60a5fa" offset=".83593"/>
<stop stop-color="#60a5fa" offset="1"/>
</linearGradient>
<linearGradient id="linearGradient6948-1" x1="466.89" x2="1404.4" y1="475.5" y2="195.51" gradientTransform="matrix(.45866 0 0 .45866 -81.933 -35.826)" gradientUnits="userSpaceOnUse">
<stop stop-color="#3e2fdd" offset="0"/>
<stop stop-color="#a4007e" offset="1"/>
</linearGradient>
<linearGradient id="linearGradient12309-5-1" x1="1181.7" x2="861.39" y1="252.37" y2="436.6" gradientTransform="matrix(.45866 0 0 .45866 -81.933 -34.359)" gradientUnits="userSpaceOnUse">
<stop stop-color="#7e5af0" offset="0"/>
<stop stop-color="#7c61ee" offset=".49538"/>
<stop stop-color="#4c6fe2" offset="1"/>
</linearGradient>
<linearGradient id="linearGradient4551-1-85" x1="1112.8" x2="89.147" y1="69.067" y2="487.89" gradientTransform="matrix(.4561 .048416 -.048416 .4561 -42.388 -19.084)" gradientUnits="userSpaceOnUse">
<stop stop-color="#60a5fa" offset="0"/>
<stop stop-color="#365fd8" offset=".23216"/>
<stop stop-color="#3b82f6" offset=".43871"/>
<stop stop-color="#4d4eeb" offset=".65563"/>
<stop stop-color="#60a5fa" offset="1"/>
</linearGradient>
<linearGradient id="linearGradient24274-1" x1="132.11" x2="1068.3" y1="575.51" y2="320.25" gradientTransform="matrix(.4561 .048416 -.048416 .4561 -42.388 -19.084)" gradientUnits="userSpaceOnUse">
<stop stop-color="#1c52f2" offset="0"/>
<stop stop-color="#d62bc3" stop-opacity=".42363" offset="1"/>
</linearGradient>
<linearGradient id="linearGradient118139" x1="100.6" x2="345.1" y1="115.79" y2="-9.8374" gradientTransform="matrix(1.2481 0 0 1.2481 -2.7703 27.467)" gradientUnits="userSpaceOnUse">
<stop stop-color="#8b5cf6" offset="0"/>
<stop stop-color="#5151dc" offset=".25152"/>
<stop stop-color="#3b82f6" offset=".4454"/>
<stop stop-color="#8b5cf6" offset=".63944"/>
<stop stop-color="#60a5fa" offset=".83593"/>
<stop stop-color="#60a5fa" offset="1"/>
</linearGradient>
<linearGradient id="linearGradient161031" x1="-12.42" x2="373.66" y1="169.75" y2="-5.834" gradientTransform="matrix(1.2481 0 0 1.2481 -2.7703 19.552)" gradientUnits="userSpaceOnUse" xlink:href="#linearGradient25627"/>
</defs>
<rect y="3.5527e-15" width="444.5" height="317.5" fill="#1b1e20" stop-color="#000000" style="-inkscape-stroke:none;font-variation-settings:normal;paint-order:stroke fill markers"/>
<path d="m454.15 6.2c-67.765 8.5215-62.903 96.418-125.23 106.47-41.43 2.3267-54.582-10.604-86.106-2.6669-37.55 9.4541-59.957 43.638-92.042 46.725-34.367 3.306-73.452-13.966-110.73 3.778-23.142 11.017-33.934 39.171-47.473 59.304v25.746c30.367-17.411 56.726-44.04 78.641-50.982 22.336-7.0752 45.274-2.9223 68.641-2.3574 20.58 0.49742 41.966-13.776 63.192-15.186 42.435-2.8175 88.299 8.0701 129.89 1.2771 40.365-6.5931 68.987-39.249 107.03-48.887 4.6147-1.1691 9.3567-1.8471 14.183-2.2014z" fill="url(#linearGradient161031)"/>
<path d="m120.45 188.22s35.188-5.7308 52.808-8.4254c25.279-3.8657 50.864-5.9414 75.91-11.106 25.034-5.1625 50.322-10.383 74.076-19.822 30.707-12.202 56.935-33.892 87.227-47.089 14.081-6.1346 43.641-14.788 43.641-14.788m-334.41 100.55s35.492-5.6586 53.228-8.5528c25.275-4.1246 50.748-7.2153 75.793-12.559 25.085-5.3522 50.657-9.8879 74.438-19.5 30.511-12.333 56.165-34.624 86.064-48.373 14.485-6.6607 44.928-16.399 44.928-16.399m-335.2 104.7s35.798-5.5834 53.647-8.6787c25.277-4.3837 50.625-8.4847 75.678-14.009 25.136-5.5429 50.995-9.3906 74.799-19.183 30.314-12.469 55.37-35.38 84.871-49.665 14.877-7.2039 46.189-18.045 46.189-18.045m-335.93 108.9s36.106-5.5056 54.064-8.803c25.287-4.643 50.496-9.7496 75.564-15.457 25.186-5.7346 51.336-8.8869 75.161-18.869 30.149-12.632 54.595-36.226 83.727-51.052 15.298-7.7854 47.552-19.766 47.552-19.766m-336.82 113.26s36.415-5.4253 54.481-8.9259c25.303-4.9028 50.36-11.01 75.451-16.903 25.236-5.927 51.679-8.3853 75.523-18.559 29.949-12.778 53.745-37.021 82.471-52.352 15.665-8.3601 48.75-21.47 48.75-21.47m-337.43 117.53s36.724-5.3428 54.896-9.0474c25.326-5.1631 50.217-12.267 75.339-18.347 25.286-6.1198 52.026-7.8779 75.884-18.252 29.78-12.949 52.911-37.896 81.259-53.735 16.055-8.9707 50.039-23.241 50.039-23.241m-338.17 121.94s37.036-5.2582 55.311-9.1676c25.355-5.424 50.068-13.52 75.228-19.789 25.335-6.313 52.376-7.3675 76.246-17.948 29.62-13.129 52.064-38.805 80.042-55.145 16.442-9.6027 51.337-25.048 51.337-25.048m-338.91 126.41s37.348-5.1718 55.724-9.2865c25.391-5.6856 49.913-14.769 75.118-21.23 25.384-6.5065 52.728-6.8546 76.607-17.647 29.471-13.32 51.204-39.745 78.82-56.577 16.825-10.255 52.642-26.886 52.642-26.886m-339.66 130.94s37.662-5.0839 56.136-9.4044c25.434-5.9481 49.751-16.015 75.009-22.669 25.432-6.6999 53.084-6.3394 76.969-17.348 29.331-13.519 50.33-40.71 77.593-58.025 17.201-10.925 53.95-28.748 53.95-28.748m-340.41 135.51s37.976-4.9945 56.547-9.5213c25.482-6.2116 49.583-17.258 74.902-24.107 25.48-6.8932 53.442-5.8224 77.331-17.052 29.201-13.727 49.444-41.699 76.364-59.488 17.572-11.612 55.265-30.629 55.265-30.629m-341.16 140.11s38.292-4.9039 56.957-9.6372c25.537-6.4762 49.409-18.498 74.795-25.545 25.528-7.0862 53.788-5.3345 77.693-16.757 28.709-13.718 48.062-41.921 74.277-59.954 17.507-12.043 55.13-32.006 55.13-32.006l2.3178-1.5573m-341.92 144.77s38.609-4.812 57.366-9.752c25.598-6.7417 49.229-19.735 74.689-26.981 25.575-7.2787 54.167-4.7833 78.054-16.465 28.974-14.169 47.632-43.742 73.895-62.463 18.291-13.039 57.909-34.462 57.909-34.462m-342.66 149.44s38.927-4.7197 57.773-9.8665c25.665-7.0089 49.043-20.971 74.584-28.418 25.622-7.4707 54.532-4.2625 78.417-16.172 28.875-14.397 46.71-44.778 72.662-63.949 18.637-13.767 59.233-36.378 59.233-36.378m-343.42 154.1s39.245-4.6269 58.179-9.9808c25.737-7.2776 48.85-22.205 74.479-29.855 25.669-7.6619 54.9-3.7415 78.781-15.878 28.783-14.628 45.778-45.813 71.429-65.42 18.971-14.501 60.549-38.278 60.549-38.278m-344.17 158.73s39.565-4.5338 58.584-10.095c25.816-7.5482 48.65-23.439 74.374-31.294 25.717-7.8522 55.269-3.2206 79.146-15.584 28.7-14.86 44.838-46.845 70.201-66.875 19.293-15.237 61.862-40.157 61.862-40.157m-344.92 163.32s39.885-4.4407 58.987-10.209c25.899-7.8206 48.444-24.673 74.269-32.734 25.764-8.0416 55.639-2.6998 79.513-15.288 28.624-15.093 43.892-47.869 68.978-68.309 19.605-15.974 63.172-42.01 63.172-42.01m-345.67 167.87s40.205-4.3477 59.389-10.323c25.988-8.0949 48.231-25.907 74.164-34.176 25.812-8.23 56.01-2.1796 79.881-14.991 28.554-15.325 42.939-48.88 67.76-69.716 19.903-16.708 64.472-43.829 64.472-43.829m-346.42 172.35s40.526-4.255 59.789-10.438c26.083-8.3713 48.011-27.141 74.059-35.62 25.86-8.4172 56.382-1.66 80.251-14.691 28.492-15.555 41.984-49.877 66.551-71.095 20.191-17.438 65.768-45.612 65.768-45.612m-347.17 176.77s40.847-4.1628 60.188-10.552c26.182-8.6498 47.784-28.375 73.953-37.065 25.908-8.6033 56.755-1.141 80.623-14.389 28.434-15.782 41.026-50.854 65.349-72.439 20.466-18.162 67.054-47.352 67.054-47.352m-347.92 181.11s41.169-4.0711 60.585-10.667c26.287-8.9306 47.551-29.611 73.847-38.514 25.957-8.7881 57.128-0.62282 80.998-14.085 28.381-16.006 40.066-51.809 64.157-73.748 20.729-18.878 68.332-49.046 68.332-49.046m-348.67 185.38s41.491-3.9801 60.98-10.783c26.396-9.2137 47.31-30.847 73.74-39.964 26.007-8.9716 57.502-0.10535 81.375-13.777 28.332-16.225 39.107-52.74 62.974-75.018 20.981-19.584 69.599-50.69 69.599-50.69m-349.42 189.55s41.813-3.8901 61.373-10.899c26.51-9.4991 47.063-32.084 73.632-41.418 26.058-9.1536 57.875 0.4113 81.754-13.466 28.286-16.439 38.148-53.644 61.801-76.246 21.222-20.278 70.857-52.281 70.857-52.281m-350.17 193.63s42.135-3.801 61.765-11.015c26.629-9.7869 46.809-33.323 73.523-42.874 26.109-9.3343 58.249 0.92737 82.137-13.152 28.242-16.647 37.19-54.52 60.639-77.431 21.451-20.96 72.104-53.818 72.104-53.818m-350.92 197.61s42.458-3.7129 62.154-11.132c26.752-10.077 46.548-34.563 73.414-44.333 26.162-9.5136 58.624 1.4429 82.521-12.834 28.201-16.848 36.236-55.367 59.488-78.573 21.671-21.628 73.339-55.298 73.339-55.298m-351.67 201.49s42.78-3.6261 62.542-11.25c26.88-10.37 46.28-35.805 73.303-45.795 26.215-9.6914 58.998 1.9579 82.909-12.513 28.161-17.043 35.285-56.182 58.348-79.668 21.88-22.281 74.563-56.719 74.563-56.719m-352.42 205.26s43.102-3.5405 62.928-11.368c27.012-10.665 46.005-37.048 73.191-47.26 26.27-9.8678 59.372 2.4727 83.3-12.188 28.122-17.231 34.339-56.967 57.221-80.719 22.08-22.92 75.777-58.083 75.777-58.083m-353.17 208.93s43.424-3.4562 63.312-11.487c27.148-10.963 45.723-38.293 73.078-48.729 26.326-10.043 59.746 2.9874 83.694-11.859 28.083-17.411 33.397-57.719 56.104-81.723 22.271-23.543 76.976-59.388 76.976-59.388m-353.92 212.5s43.746-3.3734 63.695-11.607c27.289-11.263 45.434-39.54 72.964-50.2 26.384-10.216 60.12 3.5021 84.091-11.527 28.046-17.584 32.462-58.44 55.002-82.683 22.454-24.15 78.167-60.634 78.167-60.634m-354.67 215.97s44.067-3.292 64.075-11.727c27.433-11.566 45.139-40.789 72.849-51.675 26.442-10.388 60.494 4.0171 84.491-11.19 28.007-17.749 31.532-59.13 53.909-83.597 22.629-24.741 79.345-61.823 79.345-61.823" fill="none" stroke="url(#linearGradient118139)" stroke-width=".12135px"/>
<path d="m-5.2423 259.35c24.933-6.4445 51.651-44.403 78.982-48.487 32.247-4.818 58.505 22.806 91.926 23.443 55.358 1.0565 81.876-55.467 149.56-16.523 29.471 16.958 79.653 2.0461 107.08-31.063m-427.81 72.053c24.675-6.6159 51.108-45.172 78.713-49.129 32.127-4.6788 58.88 22.675 92.637 23 54.616 0.86137 81.422-54.556 148.16-16.676 29.692 16.444 78.885 1.8708 106.68-30.309m-426.46 72.537c24.416-6.7873 50.564-45.941 78.444-49.771 32.008-4.5396 59.255 22.544 93.349 22.557 53.875 0.66629 80.967-53.646 146.76-16.828 29.913 15.93 78.117 1.6954 106.29-29.556m-425.11 73.022c24.158-6.9587 50.02-46.71 78.175-50.414 31.888-4.4003 59.629 22.413 94.061 22.114 53.133 0.47113 80.513-52.736 145.37-16.981 30.133 15.416 77.349 1.5199 105.89-28.802m-423.77 73.507c23.899-7.1301 49.476-47.478 77.906-51.056 31.768-4.261 60.004 22.282 94.773 21.671 52.391 0.27598 80.058-51.826 143.97-17.134 30.354 14.902 76.58 1.3444 105.5-28.049m-422.42 73.992c23.641-7.3015 48.932-48.247 77.638-51.699 31.649-4.1218 60.379 22.152 95.484 21.228 51.649 0.0808 79.603-50.916 142.58-17.287 30.575 14.388 75.812 1.1691 105.1-27.295m-421.07 74.477c23.382-7.4728 48.388-49.016 77.369-52.341 31.529-3.9826 60.754 22.021 96.196 20.785 50.908-0.11421 79.149-50.006 141.18-17.439 30.796 13.874 75.044 0.99368 104.71-26.542m-419.72 74.961c23.123-7.6442 47.845-49.784 77.1-52.983 31.409-3.8434 61.129 21.89 96.908 20.341 50.166-0.30933 78.694-49.095 139.78-17.592 31.017 13.36 74.276 0.81823 104.31-25.789m-418.37 75.446c22.865-7.8156 47.301-50.553 76.831-53.626 31.29-3.7041 61.504 21.759 97.619 19.898 49.424-0.50449 78.239-48.185 138.39-17.745 31.237 12.846 73.507 0.64281 103.92-25.035m-416.78 75.843c22.536-8.2121 46.619-51.244 76.317-54.18 31.17-3.5649 61.879 21.628 98.331 19.455 48.683-0.69964 77.785-47.275 136.99-17.898 31.458 12.332 72.739 0.46743 103.52-24.282m-415.16 76.221c22.199-8.6368 45.929-51.918 75.778-54.716 31.05-3.4256 62.253 21.498 99.043 19.012 47.941-0.8947 77.33-46.365 135.6-18.05 31.679 11.818 71.971 0.29201 103.12-23.528m-413.54 76.59c21.863-9.0676 45.243-52.58 75.24-55.241 30.931-3.2864 62.628 21.367 99.754 18.569 47.199-1.0898 76.875-45.455 134.2-18.203 31.9 11.304 71.202 0.1167 102.73-22.775m-411.92 76.946c21.527-9.5048 44.563-53.23 74.7-55.756 30.811-3.1472 63.003 21.236 100.47 18.126 46.457-1.285 76.421-44.544 132.8-18.356 32.12 10.79 70.434-0.059 102.33-22.021m-410.3 77.292c21.191-9.9469 43.888-53.868 74.162-56.259 30.691-3.008 63.378 21.105 101.18 17.683 45.716-1.4801 75.966-43.634 131.41-18.509 32.341 10.276 69.666-0.23426 101.94-21.268m-408.68 77.626c20.856-10.395 43.219-54.494 73.623-56.75 30.572-2.8688 63.753 20.974 101.89 17.239 44.974-1.6752 75.512-42.724 130.01-18.662 32.562 9.7621 68.898-0.40959 101.54-20.514m-407.07 77.946c20.52-10.848 42.556-55.105 73.085-57.228 30.452-2.7295 64.128 20.844 102.6 16.796 44.232-1.8703 75.057-41.814 128.62-18.814 32.783 9.2481 68.129-0.58511 101.15-19.761m-405.45 78.253c20.185-11.306 41.899-55.701 72.546-57.693 30.332-2.5902 64.503 20.713 103.31 16.353 43.49-2.0654 74.602-40.904 127.22-18.967 33.004 8.734 67.361-0.76052 100.75-19.008m-403.83 78.546c19.851-11.77 41.248-56.283 72.008-58.143 30.213-2.451 64.877 20.582 104.02 15.91 42.749-2.2606 74.148-39.993 125.82-19.12 33.224 8.22 66.593-0.93594 100.36-18.254m-402.21 78.823c19.517-12.237 40.603-56.848 71.469-58.578 30.093-2.3118 65.252 20.451 104.74 15.467 42.007-2.4557 73.693-39.083 124.43-19.273 33.445 7.706 65.825-1.1113 99.96-17.501m-400.59 79.084c19.184-12.71 39.965-57.396 70.93-58.996 29.973-2.1726 65.627 20.32 105.45 15.024 41.265-2.6508 73.238-38.173 123.03-19.425 33.666 7.192 65.056-1.2868 99.565-16.747m-398.97 79.328c18.852-13.186 39.334-57.926 70.391-59.398 29.854-2.0333 66.002 20.189 106.16 14.581 40.524-2.846 72.784-37.263 121.64-19.578 33.887 6.678 64.288-1.4622 99.169-15.994m-397.36 79.554c18.521-13.665 38.71-58.436 69.853-59.781 29.734-1.8941 66.377 20.059 106.87 14.137 39.782-3.041 72.329-36.353 120.24-19.731 34.107 6.1639 63.52-1.6376 98.774-15.24m-395.74 79.761c18.191-14.148 38.093-58.927 69.314-60.146 29.614-1.7549 66.752 19.928 107.58 13.694 39.04-3.2362 71.875-35.442 118.84-19.884 34.328 5.6499 62.751-1.813 98.378-14.487m-394.12 79.948c17.862-14.633 37.484-59.397 68.776-60.491 29.495-1.6156 67.126 19.797 108.29 13.251 38.298-3.4313 71.42-34.532 117.45-20.036 34.549 5.1359 61.983-1.9884 97.983-13.733m-392.5 80.114c17.535-15.12 36.883-59.843 68.236-60.814 29.375-1.4764 67.501 19.666 109.01 12.808 37.557-3.6264 70.965-33.622 116.05-20.189 34.77 4.6219 61.215-2.1638 97.587-12.98m-390.88 80.258c17.209-15.608 36.291-60.267 67.698-61.116 29.255-1.3372 67.876 19.535 109.72 12.365 36.815-3.8216 70.511-32.712 114.66-20.342 34.991 4.1078 60.447-2.3393 97.192-12.226m-389.26 80.379c16.885-16.097 35.707-60.666 67.16-61.394 29.136-1.1979 68.251 19.405 110.43 11.922 36.073-4.0166 70.056-31.802 113.26-20.495 35.211 3.5939 59.678-2.5147 96.796-11.473m-387.64 80.474c16.563-16.587 35.132-61.038 66.62-61.646 29.016-1.0587 68.626 19.274 111.14 11.478 35.332-4.2118 69.601-30.891 111.86-20.647 35.432 3.0799 58.91-2.6901 96.401-10.72m-386.03 80.544c16.244-17.074 34.566-61.383 66.082-61.874 28.896-0.91948 69.001 19.143 111.85 11.035 34.59-4.4069 69.147-29.981 110.47-20.8 35.653 2.5658 58.142-2.8655 96.005-9.9661m-384.41 80.585c15.927-17.561 34.01-61.699 65.544-62.073 28.777-0.78026 69.376 19.012 112.56 10.592 33.848-4.602 68.692-29.071 109.07-20.953 35.874 2.0518 57.374-3.0409 95.61-9.2126m-382.79 80.598c15.612-18.045 33.464-61.984 65.005-62.243 28.657-0.64103 69.75 18.881 113.28 10.149 33.106-4.7971 68.237-28.161 107.68-21.106 36.094 1.5378 56.605-3.2163 95.214-8.4592m-381.17 80.58c15.301-18.526 32.928-62.237 64.466-62.383 28.537-0.50177 70.125 18.751 113.99 9.7059 32.365-4.9922 67.783-27.251 106.28-21.258 36.315 1.0238 55.837-3.3918 94.819-7.7058m-379.55 80.53c14.992-19.002 32.402-62.456 63.928-62.49 28.418-0.36253 70.5 18.62 114.7 9.2628 31.623-5.1874 67.328-26.34 104.88-21.411 36.536 0.50979 55.069-3.5672 94.423-6.9523m-377.93 80.446c14.688-19.472 31.888-62.639 63.389-62.564 28.298-0.22333 70.875 18.489 115.41 8.8196 30.881-5.3825 66.874-25.43 103.49-21.564 36.757-1e-3 54.3-3.7426 94.027-6.1988m-376.32 80.327c14.387-19.935 31.384-62.785 62.85-62.603 28.178-0.0839 71.25 18.358 116.12 8.3765 30.14-5.5776 66.419-24.52 102.09-21.717 36.978-0.51825 53.532-3.918 93.632-5.4454m-374.7 80.171c14.09-20.389 30.893-62.893 62.312-62.604 28.059 0.0552 71.625 18.227 116.83 7.9333 29.398-5.7727 65.964-23.61 100.7-21.869 37.198-1.0323 52.764-4.0934 93.236-4.692m-373.08 79.975c13.798-20.834 30.413-62.958 61.773-62.566 27.939 0.19442 71.999 18.096 117.55 7.4901 28.656-5.9679 65.51-22.7 99.299-22.022 37.419-1.5463 51.996-4.2689 92.841-3.9385m-371.46 79.743c13.511-21.267 29.946-62.985 61.236-62.491 27.819 0.33363 72.374 17.966 118.26 7.047 27.914-6.163 65.055-21.79 97.903-22.175 37.64-2.0603 51.227-4.4443 92.445-3.185m-369.84 79.466c13.229-21.687 29.492-62.965 60.699-62.372 27.7 0.47286 72.749 17.835 118.97 6.6039 27.173-6.3581 64.6-20.879 96.507-22.328 37.861-2.5743 50.459-4.6197 92.05-2.4316m-368.22 79.14c12.952-22.093 29.05-62.894 60.158-62.204 27.58 0.6121 73.124 17.704 119.68 6.1607 26.431-6.5532 64.146-19.969 95.111-22.48 38.081-3.0884 49.691-4.7951 91.654-1.6782" fill="none" stop-color="#000000" stroke="url(#linearGradient24274-1)" stroke-width=".36406" style="font-variation-settings:normal"/>
<path d="m454.15 8.4283c-67.765 8.5215-62.903 94.951-125.23 105-41.43 2.3267-54.582-9.0889-86.106-1.152-37.55 9.4541-59.957 42.124-92.042 45.21-34.367 3.306-73.452-13.31-110.73 4.4337-23.142 11.017-33.934 39.075-47.473 59.208v27.425c30.367-17.411 56.726-44.04 78.641-50.982 22.336-7.0752 45.274-2.9223 68.641-2.3574 20.58 0.49742 41.966-13.776 63.192-15.186 42.435-2.8175 88.299 8.0701 129.89 1.2771 40.365-6.5931 68.987-39.249 107.03-48.887 4.6147-1.1692 9.3567-1.8471 14.183-2.2014z" fill="url(#linearGradient4551-1-85)"/>
<path d="m454.15 67.642c-42.191 5.6066-63.481 22.679-89.559 58.415-30.953 42.416-88.609 25.874-88.609 25.874l68.04 24.003 110.13-20.048z" fill="url(#linearGradient12309-5-1)"/>
<path d="m130.24 176.13c10.046 0.92428 36.045-0.49681 45.894-3.8582 50.088-24.382 68.807-52.119 125.91-35.549 64.027 18.579 86.09-68.633 152.2-78.289m-324.36 137.33s23.22-1.1468 55.739-3.097c57.429-4.0461 75.045-2.977 137.85 14.073 43.179 11.722 89.391-44.545 130.79-51.989m-324.37 40.337c0.34642 0.0318 23.662-1.1244 55.399-3.1233 57.15-4.8168 74.986-4.6842 137.44 12.362 43.604 11.901 89.755-44.46 131.53-52.363m-324.36 42.448c0.69283 0.0642 24.104-1.102 55.06-3.1495 56.87-5.5855 74.921-6.3993 137.03 10.651 44.035 12.089 90.119-44.411 132.27-52.79m-324.34 44.612c1.0392 0.0955 24.547-1.0795 54.72-3.1758 56.542-6.3533 74.925-8.1019 136.62 8.9396 44.473 12.285 90.484-44.402 133-53.272m-324.32 46.832c1.3856 0.12747 24.989-1.0572 54.381-3.202 56.276-7.1212 74.838-9.8361 136.2 7.2284 44.925 12.493 90.862-44.439 133.74-53.816m-324.31 49.112c1.732 0.15943 25.431-1.0348 54.041-3.2283 56.022-7.8877 74.734-11.583 135.79 5.5173 45.391 12.712 91.25-44.527 134.49-54.422m-324.31 51.456c2.0784 0.19119 25.873-1.0123 53.702-3.2545 55.742-8.6341 74.6-13.345 135.38 3.8062 45.868 12.943 91.641-44.671 135.23-55.09m-324.3 53.861c2.4248 0.22313 26.316-0.98985 53.362-3.2807 55.459-9.3878 74.504-15.106 134.97 2.0951 46.356 13.187 92.029-44.875 135.97-55.818m-324.29 56.327c2.7712 0.25499 26.758-0.96747 53.023-3.307 55.176-10.137 74.398-16.862 134.56 0.38391 46.887 13.441 92.388-45.139 136.7-56.609m-324.26 58.855c3.1176 0.28682 27.2-0.94503 52.683-3.3332 54.894-10.882 74.286-18.635 134.15-1.3272 47.53 13.743 92.657-45.455 137.42-57.461m-324.23 61.445c3.464 0.31873 27.642-0.92264 52.344-3.3595 54.613-11.621 74.17-20.426 133.73-3.0383 48.111 14.044 93.026-45.881 138.16-58.383m-324.23 64.104c3.8105 0.35059 28.085-0.90024 52.005-3.3858 54.333-12.355 74.046-22.23 133.32-4.7494 48.716 14.366 93.39-46.4 138.9-59.363m-324.21 66.821c4.1568 0.38245 28.527-0.87782 51.665-3.412 54.055-13.084 73.916-24.048 132.91-6.4605 49.348 14.712 93.758-47.026 139.64-60.401m-324.2 69.597c4.5032 0.41432 28.969-0.8554 51.326-3.4382 53.78-13.806 73.78-25.881 132.5-8.1716 50.008 15.082 94.132-47.768 140.37-61.492m-324.18 72.425c4.8496 0.4462 29.411-0.83301 50.986-3.4645 53.507-14.522 73.637-27.73 132.09-9.8827 50.696 15.48 94.52-48.641 141.11-62.628m-324.17 75.298c5.196 0.47808 29.854-0.81057 50.647-3.4907 53.238-15.232 73.487-29.597 131.67-11.594 51.409 15.905 94.931-49.656 141.85-63.8m-324.15 78.208c5.5425 0.50995 30.296-0.78817 50.307-3.5169 52.973-15.934 73.33-31.48 131.26-13.305 52.145 16.359 95.38-50.825 142.58-65m-324.14 81.145c5.8889 0.54183 30.738-0.76579 49.968-3.5432 52.713-16.63 73.191-33.457 130.85-15.016 52.276 16.719 96.094-52.218 143.32-66.213m-324.12 84.095c6.2352 0.57372 31.18-0.74336 49.628-3.5695 52.458-17.318 73.022-35.378 130.44-16.727 53.008 17.218 96.575-53.688 144.06-67.43m-324.12 87.049c6.5817 0.60554 31.623-0.72092 49.289-3.5957 52.208-17.999 72.843-37.308 130.03-18.438 53.767 17.742 97.091-55.303 144.8-68.628m-324.1 89.985c6.9281 0.63749 32.065-0.6985 48.949-3.6219 51.964-18.672 72.651-39.241 129.62-20.149 54.56 18.286 97.659-57.055 145.54-69.795m-324.09 92.89c7.2745 0.66934 32.507-0.67608 48.61-3.6482 51.726-19.338 72.445-41.169 129.2-21.86 55.392 18.844 98.292-58.926 146.28-70.915m-324.08 95.747c7.6209 0.70115 32.949-0.65368 48.27-3.6745 51.496-19.996 72.214-43.065 128.79-23.572 55.9 19.26 98.184-60.411 145.96-71.739 0.36032-0.08213 0.71972-0.16344 1.0783-0.24377m-324.08 98.552c7.9673 0.73305 33.392-0.63125 47.931-3.7007 51.272-20.647 71.627-43.951 128.38-25.283 62.228 20.469 89.202-60.582 147.78-73.01m-324.08 101.32c8.3137 0.76495 33.834-0.60885 47.591-3.727 51.055-21.289 71.214-45.392 127.97-26.994 62.566 20.282 88.759-62.024 148.52-73.993m-324.07 104.04c8.6601 0.79678 34.276-0.58643 47.252-3.7532 50.846-21.924 70.778-46.804 127.56-28.705 62.904 20.052 88.247-63.423 149.25-74.932m-324.05 106.71c9.0065 0.82868 34.718-0.56406 46.912-3.7794 50.645-22.55 70.319-48.182 127.14-30.416 63.23 19.768 87.712-64.789 150-75.832m-324.04 109.35c9.3529 0.86058 35.161-0.5416 46.573-3.8057 50.451-23.169 69.837-49.531 126.73-32.127 63.523 19.431 87.161-66.111 150.72-76.688m-324.02 111.94c9.6993 0.89242 35.603-0.51915 46.234-3.8319 50.266-23.779 69.332-50.84 126.32-33.838 63.793 19.032 86.627-67.398 151.48-77.509" fill="none" stroke="url(#linearGradient6948-1)" stroke-width=".12135px"/>
<path d="m454.15 103c-4.6368 0.67124-9.5174 1.5515-14.828 2.7186-54.525 11.983-64.22 56.834-105.22 52.707-19.922-2.0054-63.49-14.286-83.071-10.61-33.361 6.2627-47.733 27.658-81.906 30.795-40.1 3.681-65.486-16.319-105.24-10.367-33.406 5.0015-52.034 43.119-67.612 62.181-1.1906 1.4568-2.4249 2.8126-3.6945 4.0918v14.016c12.051-5.9411 22.27-11.937 28.048-15.69 82.956-70.599 70.066-11.706 133.82-15.787 21.557-1.3801 76.057-42.598 97.715-47.103 44.731-9.3046 53.641 21.927 98.208 14.706 36.84-5.9696 69.54-26.708 103.78-39.499z" fill="url(#linearGradient4479-5-9)"/>
<path d="m454.15 133c-0.71166 0.11732-1.4203 0.21879-2.1362 0.35797-26.592 5.17-45.841 23.078-78.5 42.199-36.337 21.274-88.718-25.883-124.82-16.836-36.682 9.1915-52.888 40.79-89.274 45.884-36.809 5.1533-59.01-40.203-107.48-20.848-29.089 11.614-38.558 40.836-52.606 55.242-2.2265 2.283-4.4722 4.3335-6.7499 6.1932v16.411c3.7111-1.5408 7.4882-3.3871 11.349-5.6011 29.704-17.033 41.703-54.085 77.542-56.37 19.56-1.2474 42.208 22.927 72.212 26.64 40.134 4.967 68.186-33.199 91.257-37.296 47.525-8.4401 64.32 26.38 99.643 30.305 46.169 5.1308 75.165-31.736 109.57-51.056z" fill="url(#linearGradient4687-8-4)"/>
<path d="m454.16 140.06c-33.015 23.324-61.062 79.513-104.07 79.495 42.977 1.7262 71.055-32.812 104.07-51.317zm-189.78 27.492c-41.338 0.68005-64.347 56.858-106.61 59.076 37.944 1.9924 64.892-33.701 87.164-37.657 47.525-8.4401 64.32 26.38 99.643 30.305-33.115-3.6801-41.104-52.367-80.197-51.724zm-184.5 21.785c-35.254-0.4225-60.655 58.049-87.303 68.193v3.4914c3.6415-1.637 7.3055-3.4473 10.949-5.4483 29.704-17.033 42.104-53.661 77.943-55.946 19.56-1.2474 42.208 23.042 72.212 26.755-30.004-3.7133-41.388-36.656-73.801-37.045z" fill="#e9ebed" fill-opacity=".49133" opacity=".23994"/>
<path d="m454.15 165.13c-31.948 19.289-60.886 53.143-101.75 54.372-0.76612 0.0357-1.5353 0.059-2.311 0.0587 1.343 0.054 2.6715 0.0726 3.9861 0.0574 5.2574-0.0612 10.292-0.66444 15.142-1.7054 0.86974-0.18666 1.7264-0.40296 2.5845-0.61726 0.33829-0.0844 0.68253-0.15451 1.0191-0.24316 0-1.7e-4 0-3.3e-4 4e-3 -6.6e-4 0.57131-0.1505 1.1326-0.32601 1.6989-0.48826 0.61361-0.17577 1.2322-0.33978 1.8402-0.5289 1.168-0.36337 2.3253-0.7508 3.4733-1.161 0-3.3e-4 0-1e-3 4e-3 -1e-3 1.1478-0.41012 2.2862-0.8427 3.4152-1.2964 0-3.2e-4 4e-3 -9.8e-4 4e-3 -1e-3 0.13117-0.0527 0.25923-0.11184 0.39021-0.16512 0.99705-0.40581 1.99-0.82174 2.9734-1.259 1.1114-0.49422 2.2138-1.0075 3.3088-1.539 0-6.6e-4 4e-3 -1e-3 4e-3 -2e-3 1.0338-0.50177 2.0602-1.0222 3.0805-1.5544 0.0615-0.0322 0.12431-0.0614 0.18576-0.0935 1.0794-0.56534 2.1511-1.1466 3.2166-1.7428 0-9.8e-4 4e-3 -1e-3 5e-3 -2e-3 1.0655-0.59622 2.1245-1.2073 3.1772-1.8311 0-9.9e-4 4e-3 -1e-3 5e-3 -2e-3 1.0526-0.62386 2.0994-1.2602 3.1405-1.9085 0-9.9e-4 4e-3 -2e-3 5e-3 -4e-3 1.0411-0.64837 2.0762-1.3079 3.1069-1.9776 0-9.8e-4 4e-3 -2e-3 5e-3 -4e-3 2.0629-1.3403 4.1063-2.7202 6.1352-4.1267 0-1e-3 4e-3 -2e-3 5e-3 -4e-3 0.94444-0.65473 1.8768-1.3306 2.8154-1.9956 1.0795-0.76483 2.1654-1.5201 3.2385-2.2949 4.0101-2.8951 7.9805-5.8464 11.951-8.7513 0-9.9e-4 4e-3 -1e-3 4e-3 -2e-3 0.12905-0.0945 0.25797-0.18627 0.38699-0.28058 1.8586-1.3583 3.7174-2.7083 5.5805-4.0344 1.9882-1.4153 3.981-2.8067 5.9836-4.1608v-6.6e-4c1.6175-1.0937 3.2475-2.1423 4.88-3.1811 0.39189-0.24934 0.77847-0.51797 1.1713-0.76368 1.014-0.63412 2.0316-1.2551 3.0534-1.8627 0.5917-0.35186 1.1882-0.68856 1.7828-1.0307 0.43294-0.24909 0.86314-0.50645 1.2977-0.75012zm-193.23 20.536v6.6e-4c-40.207-1.0432-57.443 42.06-103.14 40.965 37.944 1.9924 64.892-33.701 87.164-37.657 1.444-0.25646 2.8573-0.46953 4.246-0.64822 0.45888-0.059 0.90017-0.093 1.3532-0.14384 0.92061-0.10335 1.8422-0.20751 2.7393-0.27798 0.52119-0.0409 1.0248-0.0583 1.5383-0.0884 0.80323-0.0473 1.6087-0.0977 2.3936-0.11932 0.53444-0.0147 1.054-9e-3 1.5802-0.0125 0.746-5e-3 1.4934-0.01 2.2233 6e-3 0.50819 0.0112 1.0048 0.0416 1.5054 0.0645 0.73319 0.0335 1.4646 0.0682 2.182 0.12319 0.47612 0.0366 0.94381 0.0851 1.4132 0.13093 0.71454 0.0698 1.4258 0.14373 2.1253 0.23414 0.45751 0.0593 0.90838 0.12774 1.3596 0.19544 0.70138 0.10509 1.3984 0.2163 2.0853 0.34119 0.41684 0.0759 0.82993 0.15706 1.2416 0.23994 0.71262 0.14327 1.4184 0.29528 2.1162 0.45859 0.37358 0.0876 0.74573 0.17725 1.1152 0.27026 0.72077 0.18127 1.4336 0.37286 2.1394 0.57404 0.32751 0.0934 0.6547 0.1869 0.9791 0.28444 0.75934 0.22804 1.5097 0.468 2.253 0.71723 0.2557 0.0859 0.51238 0.17042 0.76626 0.25864 0.81157 0.28169 1.6131 0.57588 2.4071 0.88042 0.17642 0.0677 0.35456 0.13307 0.53018 0.20188 0.90423 0.35392 1.7976 0.72217 2.6812 1.1023 0.0572 0.0246 0.11508 0.0482 0.17222 0.0729 3.7694 1.6305 7.3531 3.4908 10.855 5.4373 0.30925 0.17203 0.61829 0.34324 0.92621 0.51664 5.7488 3.2349 11.287 6.6762 16.963 9.7852 0.18957 0.10385 0.38153 0.20261 0.57147 0.30574 6.6422 3.6033 13.509 6.7106 21.216 8.3901-28.536-6.4844-41.162-31.662-77.698-32.61zm-177.76 12.732c-0.61769-0.0125-1.2321 9.9e-4 -1.8434 0.0399-35.839 2.2856-50.631 40.448-80.287 57.566-2.8665 1.6546-5.6937 3.0769-8.4514 4.3279v1.2513c1.151-0.48011 2.3029-0.96399 3.4675-1.5048 0.93831-0.43866 1.8831-0.89146 2.8425-1.3758 0.36679-0.18465 0.73469-0.37402 1.1029-0.56502 1.2976-0.67413 2.6058-1.3735 3.9358-2.1362 29.704-17.033 41.704-54.085 77.543-56.37 14.67-0.93558 31.077 12.493 51.022 20.833 1.6621 0.69494 3.3484 1.3549 5.0606 1.9679 3.1396 1.124 6.3772 2.0632 9.6955 2.8044-25.962-5.9362-46.378-26.501-64.088-26.838zm64.088 26.838c0.50485 0.11546 1.0099 0.22936 1.519 0.33347-0.50997-0.10222-1.0133-0.22051-1.519-0.33347zm1.519 0.33347c0.67295 0.13487 1.3454 0.27055 2.0259 0.38571-0.67954-0.1167-1.3538-0.24825-2.0259-0.38571zm2.0259 0.38571c0.10135 0.0174 0.20232 0.0353 0.30379 0.0523-0.10159-0.0167-0.20241-0.0351-0.30379-0.0523zm0.30379 0.0523c0.85659 0.14089 1.717 0.27108 2.5858 0.3786-0.86826-0.10747-1.7295-0.23586-2.5858-0.3786zm187.52-7.7309c0.95326 0.21661 1.9258 0.40997 2.9192 0.57791 1.0013 0.16551 2.014 0.31104 3.0457 0.42569-2.052-0.22805-4.0283-0.58157-5.9649-1.0036z" fill="url(#linearGradient14655-8)"/>
<path d="m454.15 101.17s-9.0069 1.612-13.805 3.0282c-57.126 16.862-61.527 51.299-99.072 54.619-16.118 1.4256-62.527-14.891-88.34-11.297-33.331 4.6403-50.609 26.376-79.755 30.464-35.891 5.0329-72.965-17.838-113.43-9.7913-31.555 6.2744-44.199 39.273-67.167 64.625v1.5309c19.361-19.377 35.014-58.055 67.167-65.33 39.21-8.8707 81.322 17.725 114.25 10.139 35.494-8.1783 45.874-25.618 78.952-30.818 29.342-4.6128 69.445 14.933 88.521 12.599 34.987-4.2807 47.819-39.699 101.9-55.339 3.6371-1.0518 10.784-1.6789 10.784-1.6789z" fill="url(#linearGradient25349-6)"/>
</svg>
