<?xml version="1.0" encoding="UTF-8"?>
<!-- Created with Inkscape (http://www.inkscape.org/) -->
<svg width="1920" height="1080" version="1.1" viewBox="0 0 508 285.75" xmlns="http://www.w3.org/2000/svg" xmlns:xlink="http://www.w3.org/1999/xlink">
 <defs>
  <linearGradient id="linearGradient25627">
   <stop stop-color="#bda62c" offset="0"/>
   <stop stop-color="#ae9a28" stop-opacity=".98824" offset=".14669"/>
   <stop stop-color="#8c7b20" stop-opacity=".96863" offset=".30531"/>
   <stop stop-color="#bda62c" stop-opacity=".95686" offset=".51079"/>
   <stop stop-color="#82721e" stop-opacity=".94902" offset=".6231"/>
   <stop stop-color="#c0ab2c" stop-opacity=".99608" offset=".83541"/>
   <stop stop-color="#7f6f1e" stop-opacity=".92157" offset="1"/>
  </linearGradient>
  <linearGradient id="linearGradient25349-5" x1="-19.327" x2="365.1" y1="174.88" y2="71.87" gradientTransform="matrix(1.5862 0 0 1.5862 -78.224 -19.404)" gradientUnits="userSpaceOnUse" xlink:href="#linearGradient25627"/>
  <linearGradient id="linearGradient14655-0" x1="-46.183" x2="1721.9" y1="706.05" y2="445.69" gradientTransform="matrix(.41967 0 0 .41967 -78.224 -19.404)" gradientUnits="userSpaceOnUse">
   <stop stop-color="#bda62c" offset="0"/>
   <stop stop-color="#615516" stop-opacity=".98824" offset=".098576"/>
   <stop stop-color="#cab12f" stop-opacity=".97647" offset=".25339"/>
   <stop stop-color="#8c7b20" stop-opacity=".96863" offset=".33815"/>
   <stop stop-color="#87771f" stop-opacity=".96471" offset=".42151"/>
   <stop stop-color="#bda62c" stop-opacity=".95686" offset=".53339"/>
   <stop stop-color="#82721e" stop-opacity=".94902" offset=".6231"/>
   <stop stop-color="#80711e" stop-opacity=".93725" offset=".73471"/>
   <stop stop-color="#d7be31" stop-opacity=".92941" offset=".83541"/>
   <stop stop-color="#bda62c" stop-opacity=".92175" offset="1"/>
  </linearGradient>
  <linearGradient id="linearGradient4687-8-0" x1="1155.1" x2="93.584" y1="262.51" y2="615.88" gradientTransform="matrix(.51134 .054281 -.054281 .51134 -43.989 -44.76)" gradientUnits="userSpaceOnUse">
   <stop stop-color="#8b5cf6" offset="0"/>
   <stop stop-color="#6d28d9" offset=".21248"/>
   <stop stop-color="#6f5cf6" offset=".42964"/>
   <stop stop-color="#7c3aed" offset=".59961"/>
   <stop stop-color="#6376f6" offset=".80968"/>
   <stop stop-color="#6d28d9" offset="1"/>
  </linearGradient>
  <linearGradient id="linearGradient4479-5-0" x1="1143.2" x2="120.86" y1="196.75" y2="539.49" gradientTransform="matrix(.51134 .054281 -.054281 .51134 -43.989 -44.76)" gradientUnits="userSpaceOnUse">
   <stop stop-color="#8b5cf6" offset="0"/>
   <stop stop-color="#5151dc" offset=".25152"/>
   <stop stop-color="#3b82f6" offset=".4454"/>
   <stop stop-color="#8b69f6" offset=".63944"/>
   <stop stop-color="#60a5fa" offset=".83593"/>
   <stop stop-color="#60a5fa" offset="1"/>
  </linearGradient>
  <linearGradient id="linearGradient6948-5" x1="466.89" x2="1404.4" y1="475.5" y2="195.51" gradientTransform="matrix(.51422 0 0 .51422 -88.324 -63.529)" gradientUnits="userSpaceOnUse">
   <stop stop-color="#3e2fdd" offset="0"/>
   <stop stop-color="#a4007e" offset="1"/>
  </linearGradient>
  <linearGradient id="linearGradient12309-5-3" x1="1181.7" x2="861.39" y1="252.37" y2="436.6" gradientTransform="matrix(.51422 0 0 .51422 -88.324 -61.884)" gradientUnits="userSpaceOnUse">
   <stop stop-color="#7e5af0" offset="0"/>
   <stop stop-color="#7c61ee" offset=".49538"/>
   <stop stop-color="#4c6fe2" offset="1"/>
  </linearGradient>
  <linearGradient id="linearGradient4551-1-1" x1="1112.8" x2="89.147" y1="69.067" y2="487.89" gradientTransform="matrix(.51134 .054281 -.054281 .51134 -43.989 -44.76)" gradientUnits="userSpaceOnUse">
   <stop stop-color="#60a5fa" offset="0"/>
   <stop stop-color="#365fd8" offset=".23216"/>
   <stop stop-color="#3b82f6" offset=".43871"/>
   <stop stop-color="#4d4eeb" offset=".65563"/>
   <stop stop-color="#60a5fa" offset="1"/>
  </linearGradient>
  <linearGradient id="linearGradient24274-6" x1="132.11" x2="1068.3" y1="575.51" y2="320.25" gradientTransform="matrix(.51134 .054281 -.054281 .51134 -43.989 -44.76)" gradientUnits="userSpaceOnUse">
   <stop stop-color="#1c52f2" offset="0"/>
   <stop stop-color="#d62bc3" stop-opacity=".42363" offset="1"/>
  </linearGradient>
  <linearGradient id="linearGradient118139" x1="100.6" x2="345.1" y1="115.79" y2="-9.8374" gradientTransform="matrix(1.3993 0 0 1.3993 .42751 7.4298)" gradientUnits="userSpaceOnUse">
   <stop stop-color="#8b5cf6" offset="0"/>
   <stop stop-color="#5151dc" offset=".25152"/>
   <stop stop-color="#3b82f6" offset=".4454"/>
   <stop stop-color="#8b5cf6" offset=".63944"/>
   <stop stop-color="#60a5fa" offset=".83593"/>
   <stop stop-color="#60a5fa" offset="1"/>
  </linearGradient>
  <linearGradient id="linearGradient161031" x1="-12.42" x2="373.66" y1="169.75" y2="-5.834" gradientTransform="matrix(1.3993 0 0 1.3993 .42751 -1.443)" gradientUnits="userSpaceOnUse" xlink:href="#linearGradient25627"/>
 </defs>
 <rect x="2.3624e-6" y="9.8662e-8" width="508" height="285.75" fill="#1b1e20" stop-color="#000000" style="-inkscape-stroke:none;font-variation-settings:normal;paint-order:stroke fill markers"/>
 <path d="m512.69-16.413c-75.973 9.5537-70.523 108.1-140.39 119.36-46.449 2.6086-61.193-11.888-96.536-2.9899-42.098 10.599-67.219 48.924-103.19 52.385-38.529 3.7065-82.349-15.658-124.14 4.2357-25.945 12.351-38.044 43.916-53.224 66.487v28.865c34.046-19.52 63.597-49.375 88.166-57.158 25.042-7.9323 50.758-3.2762 76.956-2.643 23.073 0.55767 47.05-15.445 70.846-17.025 47.575-3.1588 98.994 9.0476 145.62 1.4318 45.254-7.3918 77.344-44.003 119.99-54.808 5.1737-1.3108 10.49-2.0708 15.901-2.468z" fill="url(#linearGradient161031)"/>
 <path d="m138.57 187.66s39.45-6.425 59.205-9.446c28.341-4.3339 57.025-6.6611 85.104-12.452 28.066-5.7879 56.418-11.64 83.049-22.223 34.426-13.68 63.832-37.997 97.793-52.793 15.787-6.8776 48.927-16.579 48.927-16.579m-374.92 112.73s39.792-6.344 59.676-9.5889c28.336-4.6242 56.895-8.0893 84.974-14.08 28.124-6.0005 56.793-11.086 83.454-21.862 34.206-13.827 62.968-38.817 96.489-54.232 16.239-7.4675 50.371-18.386 50.371-18.386m-375.8 117.38s40.135-6.2597 60.145-9.73c28.339-4.9146 56.757-9.5124 84.845-15.706 28.181-6.2144 57.172-10.528 83.86-21.506 33.986-13.98 62.076-39.665 95.151-55.681 16.679-8.0765 51.784-20.231 51.784-20.231m-376.63 122.09s40.479-6.1725 60.613-9.8694c28.35-5.2054 56.612-10.931 84.717-17.33 28.237-6.4292 57.555-9.9634 84.265-21.154 33.801-14.162 61.208-40.614 93.869-57.236 17.152-8.7284 53.312-22.16 53.312-22.16m-377.62 126.98s40.825-6.0825 61.08-10.007c28.368-5.4967 56.46-12.344 84.59-18.951 28.293-6.6449 57.939-9.401 84.671-20.807 33.577-14.326 60.255-41.505 92.461-58.693 17.562-9.3728 54.655-24.071 54.655-24.071m-378.3 131.76s41.173-5.99 61.546-10.143c28.394-5.7885 56.3-13.753 84.464-20.569 28.349-6.8611 58.328-8.8321 85.076-20.463 33.387-14.517 59.32-42.486 91.101-60.244 17.999-10.057 56.1-26.057 56.1-26.057m-379.13 136.71s41.522-5.8952 62.01-10.278c28.427-6.081 56.133-15.157 84.34-22.186 28.404-7.0778 58.72-8.2599 85.481-20.122 33.208-14.72 58.371-43.505 89.737-61.825 18.433-10.766 57.555-28.082 57.555-28.082m-379.97 141.73s41.872-5.7983 62.474-10.411c28.467-6.3743 55.959-16.558 84.217-23.801 28.459-7.2946 59.115-7.6848 85.887-19.785 33.041-14.933 57.407-44.559 88.367-63.43 18.863-11.497 59.019-30.143 59.019-30.143m-380.8 146.8s42.224-5.6997 62.936-10.544c28.514-6.6686 55.777-17.955 84.095-25.415 28.513-7.5115 59.514-7.1073 86.292-19.45 32.884-15.157 56.427-45.641 86.991-65.054 19.285-12.248 60.485-32.23 60.485-32.23m-381.64 151.92s42.577-5.5994 63.397-10.675c28.569-6.964 55.589-19.348 83.974-27.028 28.567-7.7282 59.916-6.5276 86.698-19.117 32.739-15.389 55.433-46.75 85.614-66.694 19.7-13.018 61.959-34.339 61.959-34.339m-382.48 157.08s42.931-5.4979 63.856-10.805c28.63-7.2606 55.394-20.739 83.855-28.639 28.62-7.9445 60.304-5.9806 87.103-18.787 32.186-15.38 53.884-46.999 83.274-67.216 19.628-13.501 61.808-35.883 61.808-35.883l2.5986-1.7459m-383.34 162.31s43.286-5.3949 64.314-10.933c28.699-7.5583 55.192-22.125 83.736-30.249 28.673-8.1604 60.728-5.3627 87.509-18.459 32.483-15.885 53.401-49.041 82.846-70.029 20.507-14.618 64.924-38.637 64.924-38.637m-384.17 167.54s43.642-5.2914 64.771-11.062c28.774-7.8579 54.983-23.511 83.618-31.86 28.726-8.3756 61.138-4.7788 87.916-18.131 32.372-16.141 52.368-50.202 81.463-71.695 20.894-15.435 66.408-40.784 66.408-40.784m-385.02 172.76s43.999-5.1873 65.227-11.19c28.855-8.1592 54.767-24.895 83.5-33.472 28.779-8.59 61.55-4.1947 88.324-17.802 32.269-16.4 51.322-51.363 80.081-73.345 21.269-16.257 67.883-42.914 67.883-42.914m-385.86 177.95s44.357-5.083 65.68-11.318c28.943-8.4625 54.543-26.279 83.383-35.085 28.832-8.8034 61.963-3.6107 88.733-17.472 32.176-16.66 50.269-52.519 78.704-74.976 21.63-17.082 69.356-45.021 69.356-45.021m-386.7 183.1s44.716-4.9786 66.133-11.446c29.037-8.7678 54.312-27.662 83.265-36.699 28.885-9.0157 62.378-3.0269 89.144-17.14 32.091-16.921 49.208-53.668 77.333-76.584 21.979-17.909 70.824-47.099 70.824-47.099m-387.54 188.2s45.075-4.8744 66.583-11.574c29.136-9.0754 54.073-29.045 83.148-38.315 28.938-9.2269 62.794-2.4436 89.557-16.807 32.013-17.181 48.14-54.801 75.968-78.16 22.314-18.732 72.281-49.138 72.281-49.138m-388.38 193.23s45.435-4.7704 67.032-11.702c29.242-9.3853 53.826-30.428 83.03-39.934 28.992-9.4368 63.211-1.861 89.972-16.471 31.943-17.439 47.07-55.919 74.613-79.707 22.637-19.551 73.735-51.137 73.735-51.137m-389.22 198.18s45.795-4.667 67.478-11.831c29.354-9.6976 53.572-31.813 82.911-41.555 29.046-9.6454 63.629-1.2792 90.389-16.132 31.878-17.694 45.995-57.014 73.265-81.214 22.945-20.362 75.176-53.088 75.176-53.088m-390.06 203.05s46.156-4.5642 67.923-11.96c29.471-10.012 53.311-33.198 82.792-43.179 29.101-9.8526 64.048-0.69827 90.809-15.791 31.818-17.945 44.92-58.085 71.928-82.681 23.24-21.165 76.609-54.987 76.609-54.987m-390.9 207.83s46.517-4.4622 68.366-12.089c29.593-10.33 53.041-34.584 82.672-44.805 29.157-10.058 64.467-0.1181 91.232-15.446 31.763-18.19 43.844-59.128 70.602-84.104 23.522-21.956 78.03-56.83 78.03-56.83m-391.74 212.51s46.878-4.3613 68.807-12.219c29.721-10.65 52.764-35.971 82.551-46.435 29.214-10.262 64.886 0.46112 91.657-15.097 31.712-18.43 42.768-60.142 69.287-85.481 23.792-22.734 79.44-58.614 79.44-58.614m-392.58 217.08s47.239-4.2614 69.246-12.35c29.854-10.972 52.479-37.36 82.429-48.067 29.272-10.465 65.305 1.0397 92.086-14.745 31.663-18.663 41.695-61.124 67.984-86.811 24.05-23.499 80.838-60.337 80.838-60.337m-393.42 221.54s47.601-4.1626 69.683-12.481c29.992-11.298 52.186-38.75 82.306-49.703 29.331-10.666 65.725 1.6176 92.517-14.389 31.617-18.889 40.625-62.073 66.694-88.09 24.296-24.248 82.223-61.996 82.223-61.996m-394.26 225.89s47.962-4.0653 70.118-12.613c30.136-11.626 51.886-40.142 82.182-51.342 29.391-10.865 66.144 2.1951 92.952-14.029 31.572-19.107 39.559-62.987 65.416-89.318 24.53-24.98 83.595-63.59 83.595-63.59m-395.1 230.12s48.323-3.9693 70.551-12.746c30.284-11.957 51.577-41.536 82.057-52.985 29.452-11.063 66.564 2.7722 93.39-13.664 31.529-19.318 38.499-63.867 64.152-90.496 24.755-25.696 84.955-65.119 84.955-65.119m-395.95 234.24s48.684-3.8748 70.981-12.879c30.437-12.291 51.261-42.932 81.93-54.631 29.515-11.259 66.983 3.3492 93.832-13.296 31.485-19.52 37.442-64.71 62.9-91.622 24.968-26.394 86.3-66.581 86.3-66.581m-396.78 238.24s49.045-3.782 71.41-13.013c30.594-12.628 50.937-44.33 81.802-56.281 29.579-11.453 67.403 3.9263 94.277-12.923 31.443-19.714 36.394-65.519 61.664-92.698 25.174-27.075 87.636-67.979 87.636-67.979m-397.63 242.13s49.405-3.6908 71.836-13.148c30.756-12.967 50.606-45.73 81.673-57.934 29.645-11.646 67.822 4.5037 94.725-12.546 31.399-19.899 35.351-66.292 60.439-93.723 25.37-27.738 88.956-69.312 88.956-69.312" fill="none" stroke="url(#linearGradient118139)" stroke-width=".13605px"/>
 <path d="m-2.3439 267.4c27.953-7.2251 57.908-49.782 88.549-54.36 36.153-5.4016 65.592 25.568 103.06 26.283 62.064 1.1845 91.794-62.185 167.67-18.524 33.041 19.012 89.302 2.294 120.05-34.825m-479.63 80.78c27.664-7.4173 57.298-50.644 88.247-55.08 36.019-5.2455 66.012 25.421 103.86 25.786 61.232 0.96571 91.284-61.165 166.11-18.696 33.288 18.436 88.44 2.0974 119.61-33.981m-478.12 81.324c27.374-7.6094 56.688-51.506 87.946-55.8 35.885-5.0894 66.432 25.275 104.66 25.289 60.4 0.747 90.775-60.144 164.54-18.867 33.536 17.86 87.579 1.9007 119.16-33.136m-476.61 81.867c27.084-7.8016 56.079-52.367 87.645-56.52 35.75-4.9333 66.852 25.128 105.45 24.793 59.569 0.52821 90.265-59.124 162.98-19.038 33.783 17.284 86.718 1.704 118.72-32.291m-475.1 82.411c26.794-7.9937 55.469-53.229 87.343-57.241 35.616-4.7772 67.273 24.981 106.25 24.296 58.737 0.3094 89.755-58.104 161.41-19.209 34.031 16.707 85.856 1.5073 118.28-31.447m-473.58 82.954c26.504-8.1859 54.859-54.091 87.042-57.961 35.482-4.6211 67.693 24.835 107.05 23.799 57.906 0.0905 89.245-57.083 159.84-19.381 34.278 16.131 84.995 1.3107 117.83-30.602m-472.07 83.498c26.214-8.378 54.25-54.953 86.741-58.681 35.348-4.465 68.113 24.688 107.85 23.302 57.074-0.12804 88.736-56.063 158.28-19.552 34.526 15.555 84.134 1.114 117.39-29.757m-470.56 84.041c25.924-8.5701 53.64-55.815 86.439-59.401 35.214-4.3089 68.533 24.542 108.65 22.805 56.243-0.34679 88.226-55.042 156.71-19.723 34.774 14.978 83.272 0.91734 116.95-28.912m-469.05 84.585c25.635-8.7623 53.03-56.676 86.138-60.121 35.08-4.1528 68.954 24.395 109.44 22.309 55.411-0.5656 87.716-54.022 155.15-19.894 35.021 14.402 82.411 0.72068 116.5-28.068m-467.26 85.03c25.265-9.2069 52.266-57.451 85.561-60.742 34.946-3.9967 69.374 24.248 110.24 21.812 54.579-0.78439 87.207-53.001 153.58-20.066 35.269 13.826 81.55 0.52404 116.06-27.223m-465.45 85.454c24.888-9.683 51.492-58.206 84.957-61.343 34.811-3.8406 69.794 24.102 111.04 21.315 53.748-1.0031 86.697-51.981 152.02-20.237 35.516 13.25 80.688 0.32737 115.62-26.378m-463.63 85.867c24.512-10.166 50.724-58.949 84.353-61.933 34.677-3.6845 70.214 23.955 111.84 20.818 52.916-1.2218 86.187-50.96 150.45-20.408 35.764 12.673 79.827 0.13084 115.17-25.534m-461.82 86.267c24.135-10.656 49.961-59.678 83.749-62.51 34.543-3.5284 70.635 23.808 112.64 20.321 52.085-1.4406 85.678-49.94 148.89-20.579 36.011 12.097 78.966-0.0662 114.73-24.689m-460 86.655c23.758-11.152 49.204-60.394 83.145-63.074 34.409-3.3723 71.055 23.662 113.43 19.824 51.253-1.6594 85.168-48.92 147.32-20.751 36.259 11.521 78.104-0.26264 114.29-23.844m-458.19 87.028c23.382-11.654 48.454-61.094 82.541-63.624 34.275-3.2162 71.475 23.515 114.23 19.328 50.422-1.8781 84.658-47.899 145.76-20.922 36.506 10.945 77.243-0.4592 113.84-22.999m-456.37 87.388c23.006-12.162 47.711-61.78 81.937-64.16 34.141-3.0601 71.895 23.368 115.03 18.831 49.59-2.0969 84.148-46.879 144.19-21.093 36.754 10.368 76.382-0.65598 113.4-22.155m-454.56 87.732c22.63-12.676 46.974-62.449 81.334-64.681 34.006-2.904 72.316 23.222 115.83 18.334 48.758-2.3156 83.639-45.858 142.63-21.264 37.001 9.792 75.52-0.85263 112.96-21.31m-452.75 88.06c22.255-13.195 46.244-63.1 80.73-65.186 33.872-2.7479 72.736 23.075 116.62 17.837 47.927-2.5344 83.129-44.838 141.06-21.436 37.249 9.2157 74.659-1.0493 112.51-20.465m-450.93 88.37c21.881-13.72 45.521-63.734 80.126-65.673 33.738-2.5919 73.156 22.928 117.42 17.34 47.095-2.7531 82.619-43.817 139.5-21.607 37.496 8.6395 73.798-1.2459 112.07-19.62m-449.12 88.663c21.508-14.249 44.806-64.348 79.522-66.142 33.604-2.4358 73.576 22.782 118.22 16.843 46.264-2.9719 82.11-42.797 137.93-21.778 37.744 8.0631 72.936-1.4426 111.63-18.776m-447.3 88.937c21.135-14.783 44.098-64.942 78.918-66.593 33.47-2.2796 73.997 22.635 119.02 16.347 45.432-3.1907 81.6-41.776 136.37-21.95 37.991 7.4869 72.075-1.6393 111.18-17.931m-445.49 89.19c20.764-15.321 43.398-65.515 78.314-67.023 33.336-2.1235 74.417 22.488 119.82 15.85 44.601-3.4094 81.09-40.756 134.8-22.121 38.239 6.9106 71.214-1.836 110.74-17.086m-443.67 89.423c20.394-15.861 42.707-66.065 77.71-67.432 33.201-1.9674 74.837 22.342 120.61 15.353 43.769-3.6282 80.581-39.736 133.24-22.292 38.486 6.3342 70.352-2.0326 110.29-16.242m-441.86 89.633c20.026-16.405 42.025-66.591 77.106-67.818 33.067-1.8113 75.257 22.195 121.41 14.856 42.937-3.8469 80.071-38.715 131.67-22.463 38.734 5.758 69.491-2.2293 109.85-15.397m-440.04 89.818c19.659-16.951 41.351-67.092 76.502-68.181 32.933-1.6552 75.678 22.048 122.21 14.359 42.106-4.0656 79.561-37.695 130.11-22.635 38.981 5.1817 68.63-2.426 109.41-14.552m-438.23 89.98c19.294-17.499 40.687-67.567 75.898-68.519 32.799-1.4991 76.098 21.902 123.01 13.863 41.274-4.2845 79.051-36.674 128.54-22.806 39.229 4.6054 67.768-2.6227 108.96-13.707m-436.41 90.115c18.931-18.047 40.033-68.015 75.295-68.831 32.665-1.343 76.518 21.755 123.81 13.366 40.443-4.5032 78.542-35.654 126.98-22.977 39.476 4.0292 66.907-2.8193 108.52-12.863m-434.6 90.221c18.57-18.596 39.387-68.431 74.69-69.114 32.531-1.1869 76.938 21.608 124.6 12.869 39.611-4.7219 78.032-34.633 125.41-23.148 39.724 3.453 66.046-3.0159 108.08-12.018m-432.79 90.3c18.211-19.143 38.753-68.819 74.087-69.369 32.397-1.0308 77.359 21.462 125.4 12.372 38.78-4.9407 77.522-33.613 123.85-23.32 39.971 2.8766 65.184-3.2126 107.63-11.173m-430.97 90.347c17.856-19.688 38.13-69.172 73.483-69.592 32.262-0.87478 77.779 21.315 126.2 11.875 37.948-5.1594 77.013-32.592 122.28-23.491 40.219 2.3004 64.323-3.4093 107.19-10.329m-429.16 90.361c17.503-20.231 37.517-69.492 72.879-69.783 32.128-0.71868 78.199 21.168 127 11.378 37.117-5.3781 76.503-31.572 120.72-23.662 40.466 1.7241 63.462-3.6059 106.75-9.4838m-427.34 90.341c17.154-20.77 36.916-69.775 72.275-69.939 31.994-0.56254 78.619 21.022 127.8 10.882 36.285-5.597 75.993-30.552 119.15-23.833 40.714 1.1478 62.6-3.8026 106.3-8.6392m-425.53 90.284c16.808-21.304 36.327-70.021 71.671-70.06 31.86-0.40645 79.04 20.875 128.59 10.385 35.453-5.8157 75.484-29.531 117.59-24.005 40.962 0.57154 61.739-3.9993 105.86-7.7944m-423.71 90.191c16.467-21.831 35.75-70.226 71.067-70.143 31.726-0.25038 79.46 20.728 129.39 9.8879 34.622-6.0345 74.974-28.511 116.02-24.176 41.209-1e-3 60.878-4.1959 105.42-6.9497m-421.9 90.057c16.13-22.35 35.186-70.391 70.463-70.186 31.592-0.094 79.88 20.582 130.19 9.3911 33.79-6.2532 74.464-27.49 114.46-24.347 41.457-0.58102 60.017-4.3925 104.97-6.105m-420.08 89.882c15.797-22.859 34.635-70.511 69.86-70.187 31.458 0.0618 80.3 20.435 130.99 8.8943 32.959-6.472 73.955-26.47 112.89-24.518 41.704-1.1573 59.155-4.5893 104.53-5.2603m-418.27 89.663c15.469-23.358 34.097-70.584 69.255-70.144 31.323 0.21797 80.721 20.288 131.78 8.3974 32.127-6.6908 73.445-25.449 111.33-24.69 41.952-1.7336 58.294-4.786 104.09-4.4156m-416.46 89.402c15.148-23.843 33.574-70.614 68.654-70.06 31.189 0.37404 81.141 20.142 132.58 7.9006 31.296-6.9095 72.935-24.429 109.76-24.861 42.199-2.3099 57.432-4.9826 103.64-3.5708m-414.64 89.091c14.831-24.314 33.065-70.592 68.051-69.927 31.055 0.53013 81.561 19.995 133.38 7.4038 30.464-7.1283 72.425-23.408 108.2-25.032 42.447-2.8862 56.571-5.1792 103.2-2.7261m-412.83 88.727c14.521-24.769 32.569-70.512 67.445-69.738 30.921 0.68624 81.982 19.849 134.18 6.907 29.632-7.347 71.916-22.388 106.63-25.203 42.694-3.4624 55.71-5.3759 102.76-1.8814" fill="none" stop-color="#000000" stroke="url(#linearGradient24274-6)" stroke-width=".40816" style="font-variation-settings:normal"/>
 <path d="m512.69-13.915c-75.973 9.5537-70.523 106.45-140.39 117.72-46.449 2.6085-61.193-10.19-96.536-1.2915-42.098 10.599-67.219 47.226-103.19 50.686-38.529 3.7065-82.349-14.923-124.14 4.9707-25.945 12.351-38.044 43.809-53.224 66.38v30.747c34.046-19.52 63.597-49.375 88.166-57.158 25.042-7.9323 50.758-3.2762 76.956-2.643 23.073 0.55768 47.05-15.445 70.846-17.025 47.575-3.1588 98.994 9.0476 145.62 1.4318 45.254-7.3918 77.344-44.003 119.99-54.808 5.1737-1.3108 10.49-2.0709 15.901-2.468z" fill="url(#linearGradient4551-1-1)"/>
 <path d="m512.69 52.472c-47.302 6.2858-71.17 25.426-100.41 65.491-34.703 47.554-99.342 29.008-99.342 29.008l76.282 26.911 123.47-22.476z" fill="url(#linearGradient12309-5-3)"/>
 <path d="m149.55 174.1c11.262 1.0362 40.411-0.55698 51.453-4.3256 56.155-27.335 77.142-58.432 141.16-39.855 71.783 20.829 96.518-76.947 170.64-87.772m-363.65 153.96s26.032-1.2857 62.49-3.4722c64.385-4.5362 84.135-3.3375 154.55 15.778 48.409 13.141 100.22-49.941 146.63-58.287m-363.66 45.222c0.38838 0.0357 26.528-1.2606 62.11-3.5016 64.073-5.4002 84.069-5.2515 154.09 13.859 48.885 13.343 100.63-49.845 147.46-58.706m-363.65 47.589c0.77675 0.0719 27.024-1.2355 61.729-3.531 63.759-6.262 83.996-7.1745 153.63 11.941 49.369 13.553 101.04-49.79 148.29-59.184m-363.63 50.016c1.1651 0.10705 27.52-1.2103 61.348-3.5605 63.39-7.1229 84-9.0833 153.16 10.022 49.86 13.773 101.44-49.78 149.11-59.725m-363.6 52.504c1.5534 0.14291 28.016-1.1852 60.968-3.5899 63.092-7.9838 83.904-11.028 152.7 8.1039 50.367 14.006 101.87-49.821 149.94-60.334m-363.59 55.061c1.9419 0.17875 28.512-1.1601 60.587-3.6193 62.808-8.8431 83.787-12.986 152.24 6.1856 50.889 14.252 102.3-49.921 150.78-61.014m-363.59 57.689c2.3302 0.21435 29.007-1.1349 60.207-3.6487 62.494-9.6799 83.636-14.962 151.78 4.2672 51.424 14.511 102.74-50.082 151.61-61.763m-363.59 60.385c2.7185 0.25016 29.503-1.1098 59.826-3.6781 62.177-10.525 83.529-16.935 151.32 2.3489 51.971 14.784 103.18-50.31 152.44-62.58m-363.57 63.15c3.1069 0.28588 29.999-1.0847 59.446-3.7075 61.86-11.365 83.409-18.904 150.86 0.4304 52.566 15.069 103.58-50.607 153.26-63.466m-363.54 65.984c3.4952 0.32157 30.495-1.0595 59.065-3.737 61.543-12.2 83.284-20.893 150.39-1.4879 53.287 15.408 103.88-50.961 154.06-64.422m-363.51 68.888c3.8836 0.35734 30.991-1.0344 58.684-3.7664 61.228-13.029 83.154-22.9 149.93-3.4063 53.938 15.746 104.29-51.439 154.9-65.455m-363.5 71.868c4.272 0.39306 31.487-1.0093 58.304-3.7959 60.914-13.852 83.015-24.922 149.47-5.3247 54.616 16.106 104.7-52.021 155.72-66.554m-363.48 74.915c4.6604 0.42878 31.982-0.98415 57.923-3.8253 60.603-14.669 82.87-26.961 149.01-7.2431 55.326 16.494 105.12-52.722 156.55-67.717m-363.47 78.027c5.0487 0.4645 32.478-0.95902 57.543-3.8547 60.294-15.478 82.717-29.016 148.55-9.1614 56.066 16.909 105.53-53.554 157.38-68.94m-363.45 81.197c5.4371 0.50024 32.974-0.93391 57.162-3.8842 59.988-16.281 82.556-31.089 148.09-11.08 56.837 17.355 105.97-54.533 158.2-70.214m-363.44 84.419c5.8254 0.536 33.47-0.90875 56.781-3.9136 59.687-17.077 82.388-33.182 147.62-12.998 57.636 17.832 106.43-55.67 159.03-71.529m-363.42 87.681c6.2138 0.57173 33.966-0.88364 56.401-3.9429 59.39-17.864 82.213-35.293 147.16-14.917 58.461 18.341 106.93-56.981 159.85-72.874m-363.4 90.975c6.6022 0.60746 34.461-0.85856 56.02-3.9724 59.098-18.644 82.057-37.51 146.7-16.835 58.608 18.744 107.73-58.543 160.68-74.233m-363.38 94.282c6.9905 0.64321 34.957-0.8334 55.64-4.0018 58.812-19.416 81.867-39.663 146.24-18.753 59.429 19.304 108.27-60.191 161.51-75.597m-363.38 97.593c7.3789 0.67889 35.453-0.80824 55.259-4.0313 58.532-20.179 81.666-41.827 145.78-20.672 60.28 19.891 108.85-62.001 162.34-76.941m-363.36 100.88c7.7673 0.71471 35.949-0.78312 54.879-4.0606 58.258-20.934 81.452-43.995 145.32-22.59 61.169 20.501 109.49-63.966 163.17-78.25m-363.35 104.14c8.1556 0.75042 36.445-0.75797 54.498-4.0901 57.992-21.68 81.22-46.156 144.85-24.508 62.102 21.127 110.2-66.063 164-79.505m-363.33 107.34c8.544 0.78608 36.941-0.73286 54.117-4.1196 57.733-22.418 80.962-48.282 144.39-26.427 62.671 21.593 110.08-67.729 163.64-80.429 0.40396-0.09207 0.8069-0.18324 1.2089-0.2733m-363.34 110.49c8.9323 0.82183 37.436-0.70772 53.737-4.149 57.482-23.147 80.303-49.275 143.93-28.345 69.765 22.948 100.01-67.92 165.68-81.853m-363.33 113.59c9.3207 0.85762 37.932-0.68259 53.356-4.1784 57.24-23.868 79.84-50.89 143.47-30.264 70.144 22.738 99.51-69.537 166.51-82.955m-363.32 116.64c9.709 0.8933 38.428-0.65746 52.976-4.2078 57.005-24.579 79.352-52.473 143.01-32.182 70.524 22.48 98.936-71.106 167.33-84.008m-363.3 119.64c10.097 0.92906 38.924-0.63238 52.595-4.2372 56.779-25.282 78.836-54.019 142.55-34.1 70.889 22.163 98.337-72.637 168.17-85.018m-363.29 122.6c10.486 0.96482 39.42-0.60721 52.214-4.2666 56.562-25.975 78.297-55.53 142.08-36.019 71.218 21.784 97.719-74.119 168.98-85.977m-363.27 125.5c10.874 1.0005 39.916-0.58203 51.834-4.296 56.354-26.66 77.731-56.998 141.62-37.937 71.52 21.337 97.121-75.562 169.82-86.898" fill="none" stroke="url(#linearGradient6948-5)" stroke-width=".13605px"/>
 <path d="m512.69 92.115c-5.1984 0.75254-10.67 1.7394-16.625 3.048-61.13 13.434-71.999 63.718-117.96 59.091-22.335-2.2483-71.181-16.016-93.133-11.895-37.402 7.0213-53.515 31.009-91.827 34.525-44.958 4.1269-73.418-18.296-117.99-11.623-37.452 5.6073-58.336 48.342-75.802 69.713-1.3348 1.6332-2.7187 3.1533-4.142 4.5875v15.713c13.51-6.6608 24.967-13.383 31.445-17.591 93.004-79.15 78.553-13.124 150.03-17.7 24.168-1.5472 85.27-47.758 109.55-52.809 50.149-10.432 60.139 24.584 110.1 16.487 41.302-6.6928 77.963-29.943 116.35-44.284z" fill="url(#linearGradient4479-5-0)"/>
 <path d="m512.69 125.74c-0.79787 0.13154-1.5924 0.2453-2.395 0.40134-29.813 5.7962-51.393 25.874-88.008 47.31-40.739 23.851-99.464-29.018-139.94-18.876-41.125 10.305-59.294 45.73-100.09 51.441-41.268 5.7775-66.158-45.072-120.5-23.373-32.613 13.021-43.228 45.783-58.978 61.933-2.4962 2.5595-5.0139 4.8584-7.5675 6.9434v18.398c4.1606-1.7274 8.3953-3.7974 12.724-6.2796 33.303-19.096 46.755-60.636 86.935-63.199 21.929-1.3985 47.321 25.704 80.959 29.867 44.995 5.5687 76.445-37.22 102.31-41.814 53.281-9.4625 72.111 29.575 111.71 33.976 51.761 5.7523 84.269-35.58 122.84-57.24z" fill="url(#linearGradient4687-8-0)"/>
 <path d="m512.7 133.66c-37.014 26.149-68.459 89.144-116.67 89.125 48.182 1.9352 79.662-36.786 116.67-57.533zm-212.76 30.822c-46.345 0.76242-72.142 63.746-119.52 66.231 42.54 2.2338 72.752-37.783 97.722-42.218 53.281-9.4625 72.111 29.575 111.71 33.976-37.127-4.1259-46.082-58.71-89.911-57.989zm-206.85 24.424c-39.524-0.47367-68.003 65.081-97.878 76.453v3.9143c4.0826-1.8353 8.1904-3.8649 12.276-6.1082 33.303-19.096 47.204-60.16 87.384-62.723 21.929-1.3985 47.321 25.833 80.959 29.996-33.638-4.163-46.402-41.096-82.741-41.532z" fill="#e9ebed" fill-opacity=".49133" opacity=".23994"/>
 <path d="m512.69 161.76c-35.818 21.626-68.261 59.58-114.07 60.958-0.85892 0.04-1.7213 0.0662-2.5909 0.0658 1.5057 0.0606 2.9951 0.0814 4.4689 0.0644 5.8942-0.0686 11.539-0.74492 16.976-1.9119 0.9751-0.20927 1.9355-0.45177 2.8976-0.69202 0.37927-0.0946 0.7652-0.17324 1.1426-0.27262 0-2e-4 0-3.8e-4 4e-3 -7.4e-4 0.64051-0.16873 1.2697-0.3655 1.9047-0.5474 0.68793-0.19707 1.3815-0.38094 2.0631-0.59297 1.3095-0.40738 2.6069-0.84175 3.894-1.3016 0-3.7e-4 0-1e-3 4e-3 -1e-3 1.2868-0.45981 2.5631-0.94479 3.8289-1.4535 0-3.7e-4 4e-3 -1e-3 4e-3 -1e-3 0.14705-0.059 0.29062-0.12538 0.43747-0.18512 1.1178-0.45496 2.2311-0.92127 3.3336-1.4115 1.246-0.55408 2.482-1.1296 3.7096-1.7254 0-7.4e-4 4e-3 -1e-3 4e-3 -3e-3 1.159-0.56254 2.3098-1.146 3.4536-1.7427 0.069-0.0361 0.13938-0.0688 0.20827-0.10481 1.2101-0.63382 2.4117-1.2855 3.6062-1.9539 0-1e-3 4e-3 -1e-3 6e-3 -3e-3 1.1945-0.66844 2.3819-1.3535 3.5621-2.053 0-1e-3 4e-3 -1e-3 6e-3 -3e-3 1.1801-0.69942 2.3537-1.4128 3.5209-2.1397 0-1e-3 4e-3 -3e-3 6e-3 -4e-3 1.1672-0.7269 2.3276-1.4663 3.4833-2.2171 0-1e-3 4e-3 -3e-3 6e-3 -4e-3 2.3128-1.5026 4.6037-3.0498 6.8783-4.6265 0-1e-3 4e-3 -3e-3 6e-3 -4e-3 1.0588-0.73403 2.1041-1.4918 3.1564-2.2373 1.2102-0.85746 2.4276-1.7042 3.6308-2.5729 4.4958-3.2458 8.9472-6.5546 13.399-9.8113 0-1e-3 4e-3 -1e-3 4e-3 -3e-3 0.14469-0.10592 0.28922-0.20883 0.43387-0.31456 2.0838-1.5228 4.1677-3.0363 6.2564-4.5231 2.229-1.5868 4.4632-3.1467 6.7084-4.6648v-7.5e-4c1.8134-1.2262 3.6409-2.4018 5.4711-3.5664 0.43936-0.27955 0.87276-0.58071 1.3132-0.85618 1.1369-0.71094 2.2777-1.4071 3.4232-2.0884 0.66337-0.39448 1.3321-0.77197 1.9987-1.1556 0.48538-0.27926 0.96769-0.56779 1.4549-0.84098zm-216.64 23.023v7.5e-4c-45.078-1.1696-64.4 47.155-115.64 45.928 42.54 2.2338 72.752-37.783 97.722-42.218 1.6189-0.28752 3.2034-0.52639 4.7603-0.72674 0.51446-0.0662 1.0092-0.10425 1.5171-0.16125 1.0321-0.11587 2.0653-0.23266 3.0711-0.31166 0.58433-0.0459 1.149-0.0653 1.7246-0.0991 0.90053-0.053 1.8036-0.10957 2.6835-0.13378 0.59918-0.0165 1.1817-0.01 1.7716-0.014 0.83637-6e-3 1.6743-0.0112 2.4926 7e-3 0.56974 0.0126 1.1265 0.0466 1.6878 0.0724 0.82199 0.0375 1.642 0.0764 2.4463 0.13811 0.53379 0.041 1.0581 0.0954 1.5844 0.14679 0.80109 0.0782 1.5985 0.16113 2.3827 0.2625 0.51293 0.0665 1.0184 0.14321 1.5243 0.21911 0.78633 0.11782 1.5678 0.2425 2.3378 0.38252 0.46733 0.0851 0.93046 0.17609 1.392 0.269 0.79895 0.16063 1.5903 0.33105 2.3726 0.51414 0.41884 0.0982 0.83607 0.19872 1.2503 0.303 0.80806 0.20322 1.6072 0.41802 2.3986 0.64357 0.36718 0.10467 0.734 0.20954 1.0977 0.3189 0.85132 0.25565 1.6926 0.52469 2.5259 0.8041 0.28667 0.0963 0.57444 0.19107 0.85907 0.28997 0.90987 0.31582 1.8085 0.64564 2.6987 0.98707 0.1978 0.0758 0.39751 0.14918 0.59441 0.22633 1.0138 0.39679 2.0153 0.80965 3.006 1.2358 0.0641 0.0276 0.12902 0.054 0.19308 0.0817 4.226 1.828 8.2438 3.9137 12.17 6.0959 0.34671 0.19287 0.69318 0.38482 1.0384 0.57923 6.4451 3.6268 12.654 7.4848 19.017 10.97 0.21253 0.11642 0.42775 0.22715 0.6407 0.34276 7.4468 4.0397 15.146 7.5234 23.786 9.4064-31.992-7.2698-46.148-35.497-87.109-36.56zm-199.29 14.274c-0.69251-0.014-1.3814 1e-3 -2.0667 0.0448-40.18 2.5624-56.764 45.348-90.012 64.539-3.2137 1.855-6.3833 3.4496-9.4751 4.8521v1.4029c1.2905-0.53826 2.5819-1.0808 3.8875-1.687 1.052-0.49179 2.1112-0.99944 3.1868-1.5424 0.41122-0.20701 0.82368-0.41932 1.2365-0.63346 1.4548-0.75583 2.9214-1.54 4.4125-2.395 33.303-19.096 46.755-60.636 86.936-63.199 16.447-1.0489 34.841 14.006 57.202 23.356 1.8634 0.77911 3.754 1.519 5.6736 2.2062 3.5199 1.2602 7.1496 2.3131 10.87 3.1441-29.106-6.6552-51.996-29.712-71.851-30.089zm71.851 30.089c0.566 0.12943 1.1322 0.25714 1.703 0.37385-0.57175-0.1146-1.136-0.24722-1.703-0.37385zm1.703 0.37385c0.75446 0.15121 1.5083 0.30332 2.2713 0.43244-0.76185-0.13084-1.5178-0.27833-2.2713-0.43244zm2.2713 0.43244c0.11363 0.0195 0.22683 0.0396 0.3406 0.0586-0.11391-0.0188-0.22693-0.0393-0.3406-0.0586zm0.3406 0.0586c0.96034 0.15795 1.925 0.30392 2.899 0.42445-0.97344-0.12048-1.939-0.26443-2.899-0.42445zm210.24-8.6673c1.0687 0.24285 2.1591 0.45964 3.2728 0.64791 1.1226 0.18557 2.2579 0.34872 3.4146 0.47726-2.3006-0.25567-4.5162-0.65202-6.6874-1.1252z" fill="url(#linearGradient14655-0)"/>
 <path d="m512.69 90.056s-10.098 1.8073-15.477 3.3951c-64.046 18.905-68.98 57.513-111.07 61.235-18.071 1.5982-70.1-16.694-99.04-12.665-37.368 5.2024-56.739 29.571-89.416 34.154-40.239 5.6425-81.803-19.999-127.17-10.977-35.378 7.0344-49.552 44.03-75.303 72.453v1.7164c21.707-21.725 39.255-65.087 75.303-73.243 43.959-9.9452 91.173 19.872 128.09 11.367 39.793-9.1689 51.431-28.721 88.515-34.551 32.896-5.1716 77.857 16.742 99.244 14.125 39.225-4.7992 53.611-44.508 114.24-62.042 4.0777-1.1792 12.091-1.8823 12.091-1.8823z" fill="url(#linearGradient25349-5)"/>
</svg>
