<?xml version="1.0" encoding="UTF-8"?>
<!-- Created with Inkscape (http://www.inkscape.org/) -->
<svg width="5120" height="2880" version="1.1" viewBox="0 0 1354.7 762" xmlns="http://www.w3.org/2000/svg" xmlns:xlink="http://www.w3.org/1999/xlink">
 <defs>
  <linearGradient id="linearGradient25627">
   <stop stop-color="#bda62c" offset="0"/>
   <stop stop-color="#ae9a28" stop-opacity=".98824" offset=".14669"/>
   <stop stop-color="#8c7b20" stop-opacity=".96863" offset=".30531"/>
   <stop stop-color="#bda62c" stop-opacity=".95686" offset=".51079"/>
   <stop stop-color="#82721e" stop-opacity=".94902" offset=".6231"/>
   <stop stop-color="#c0ab2c" stop-opacity=".99608" offset=".83541"/>
   <stop stop-color="#7f6f1e" stop-opacity=".92157" offset="1"/>
  </linearGradient>
  <linearGradient id="linearGradient25349-2" x1="-19.327" x2="365.1" y1="174.88" y2="71.87" gradientTransform="matrix(4.2986 0 0 4.2986 -222.84 -76.072)" gradientUnits="userSpaceOnUse" xlink:href="#linearGradient25627"/>
  <linearGradient id="linearGradient14655-8" x1="-46.183" x2="1721.9" y1="706.05" y2="445.69" gradientTransform="matrix(1.1373 0 0 1.1373 -222.84 -76.072)" gradientUnits="userSpaceOnUse">
   <stop stop-color="#bda62c" offset="0"/>
   <stop stop-color="#615516" stop-opacity=".98824" offset=".098576"/>
   <stop stop-color="#cab12f" stop-opacity=".97647" offset=".25339"/>
   <stop stop-color="#8c7b20" stop-opacity=".96863" offset=".33815"/>
   <stop stop-color="#87771f" stop-opacity=".96471" offset=".42151"/>
   <stop stop-color="#bda62c" stop-opacity=".95686" offset=".53339"/>
   <stop stop-color="#82721e" stop-opacity=".94902" offset=".6231"/>
   <stop stop-color="#80711e" stop-opacity=".93725" offset=".73471"/>
   <stop stop-color="#d7be31" stop-opacity=".92941" offset=".83541"/>
   <stop stop-color="#bda62c" stop-opacity=".92175" offset="1"/>
  </linearGradient>
  <linearGradient id="linearGradient4687-8-0" x1="1155.1" x2="93.584" y1="262.51" y2="615.88" gradientTransform="matrix(1.3858 .1471 -.1471 1.3858 -130.06 -144.79)" gradientUnits="userSpaceOnUse">
   <stop stop-color="#8b5cf6" offset="0"/>
   <stop stop-color="#6d28d9" offset=".21248"/>
   <stop stop-color="#6f5cf6" offset=".42964"/>
   <stop stop-color="#7c3aed" offset=".59961"/>
   <stop stop-color="#6376f6" offset=".80968"/>
   <stop stop-color="#6d28d9" offset="1"/>
  </linearGradient>
  <linearGradient id="linearGradient4479-5-9" x1="1143.2" x2="120.86" y1="196.75" y2="539.49" gradientTransform="matrix(1.3858 .1471 -.1471 1.3858 -130.06 -144.79)" gradientUnits="userSpaceOnUse">
   <stop stop-color="#8b5cf6" offset="0"/>
   <stop stop-color="#5151dc" offset=".25152"/>
   <stop stop-color="#3b82f6" offset=".4454"/>
   <stop stop-color="#8b69f6" offset=".63944"/>
   <stop stop-color="#60a5fa" offset=".83593"/>
   <stop stop-color="#60a5fa" offset="1"/>
  </linearGradient>
  <linearGradient id="linearGradient6948-4" x1="466.89" x2="1404.4" y1="475.5" y2="195.51" gradientTransform="matrix(1.3935 0 0 1.3935 -250.21 -195.65)" gradientUnits="userSpaceOnUse">
   <stop stop-color="#3e2fdd" offset="0"/>
   <stop stop-color="#a4007e" offset="1"/>
  </linearGradient>
  <linearGradient id="linearGradient12309-5-7" x1="1181.7" x2="861.39" y1="252.37" y2="436.6" gradientTransform="matrix(1.3935 0 0 1.3935 -250.21 -191.19)" gradientUnits="userSpaceOnUse">
   <stop stop-color="#7e5af0" offset="0"/>
   <stop stop-color="#7c61ee" offset=".49538"/>
   <stop stop-color="#4c6fe2" offset="1"/>
  </linearGradient>
  <linearGradient id="linearGradient4551-1-4" x1="1112.8" x2="89.147" y1="69.067" y2="487.89" gradientTransform="matrix(1.3858 .1471 -.1471 1.3858 -130.06 -144.79)" gradientUnits="userSpaceOnUse">
   <stop stop-color="#60a5fa" offset="0"/>
   <stop stop-color="#365fd8" offset=".23216"/>
   <stop stop-color="#3b82f6" offset=".43871"/>
   <stop stop-color="#4d4eeb" offset=".65563"/>
   <stop stop-color="#60a5fa" offset="1"/>
  </linearGradient>
  <linearGradient id="linearGradient24274" x1="132.11" x2="1068.3" y1="575.51" y2="320.25" gradientTransform="matrix(1.3858 .1471 -.1471 1.3858 -130.06 -144.79)" gradientUnits="userSpaceOnUse">
   <stop stop-color="#1c52f2" offset="0"/>
   <stop stop-color="#d62bc3" stop-opacity=".42363" offset="1"/>
  </linearGradient>
  <linearGradient id="linearGradient118139" x1="100.6" x2="345.1" y1="115.79" y2="-9.8374" gradientTransform="matrix(3.7922 0 0 3.7922 -9.6924 -3.352)" gradientUnits="userSpaceOnUse">
   <stop stop-color="#8b5cf6" offset="0"/>
   <stop stop-color="#5151dc" offset=".25152"/>
   <stop stop-color="#3b82f6" offset=".4454"/>
   <stop stop-color="#8b5cf6" offset=".63944"/>
   <stop stop-color="#60a5fa" offset=".83593"/>
   <stop stop-color="#60a5fa" offset="1"/>
  </linearGradient>
  <linearGradient id="linearGradient161031" x1="-12.42" x2="373.66" y1="169.75" y2="-5.834" gradientTransform="matrix(3.7922 0 0 3.7922 -9.6924 -27.397)" gradientUnits="userSpaceOnUse" xlink:href="#linearGradient25627"/>
 </defs>
 <rect x="1.6211e-6" y="-1.2773e-5" width="1354.7" height="762" fill="#1b1e20" stop-color="#000000" style="-inkscape-stroke:none;font-variation-settings:normal;paint-order:stroke fill markers"/>
 <path d="m1378.6-67.966c-205.89 25.891-191.12 292.94-380.47 323.47-125.88 7.0692-165.83-32.217-261.61-8.1027-114.09 28.724-182.16 132.59-279.65 141.96-104.42 10.045-223.17-42.433-336.41 11.479-70.313 33.473-103.1 119.01-144.24 180.18v78.224c92.264-52.899 172.35-133.81 238.93-154.9 67.863-21.497 137.55-8.8787 208.55-7.1626 62.528 1.5113 127.51-41.857 191.99-46.138 128.93-8.5605 268.28 24.519 394.63 3.8802 122.64-20.032 209.6-119.25 325.18-148.53 14.02-3.5522 28.428-5.6121 43.091-6.6884z" fill="url(#linearGradient161031)"/>
 <path d="m364.69 485.07s106.91-17.412 160.45-25.599c76.804-11.745 154.54-18.052 230.63-33.744 76.061-15.685 152.89-31.545 225.06-60.224 93.295-37.073 172.99-102.97 265.02-143.07 42.783-18.639 132.59-44.93 132.59-44.93m-1016 305.49s107.84-17.192 161.72-25.986c76.791-12.532 154.19-21.922 230.28-38.158 76.216-16.261 153.91-30.042 226.16-59.247 92.7-37.47 170.65-105.2 261.49-146.97 44.008-20.237 136.5-49.826 136.5-49.826m-1018.4 318.11s108.77-16.964 162.99-26.368c76.8-13.319 153.81-25.779 229.93-42.564 76.371-16.841 154.94-28.531 227.26-58.282 92.102-37.886 168.23-107.49 257.86-150.9 45.201-21.888 140.34-54.826 140.34-54.826m-1020.7 330.86s109.7-16.728 164.26-26.746c76.828-14.107 153.42-29.622 229.58-46.963 76.523-17.423 155.97-27.001 228.36-57.329 91.6-38.378 165.87-110.07 254.39-155.11 46.481-23.654 144.48-60.054 144.48-60.054m-1023.3 344.12s110.64-16.484 165.53-27.12c76.878-14.896 153.01-33.453 229.24-51.356 76.675-18.008 157.02-25.477 229.46-56.386 90.994-38.824 163.29-112.48 250.57-159.06 47.595-25.4 148.12-65.233 148.12-65.233m-1025.2 357.07s111.58-16.233 166.79-27.489c76.947-15.687 152.57-37.271 228.9-55.743 76.826-18.594 158.07-23.935 230.56-55.454 90.479-39.341 160.76-115.14 246.89-163.26 48.779-27.256 152.03-70.614 152.03-70.614m-1027.4 370.48s112.52-15.976 168.05-27.854c77.037-16.48 152.12-41.077 228.56-60.125 76.975-19.181 159.13-22.385 231.66-54.531 89.994-39.89 158.19-117.9 243.19-167.55 49.955-29.176 155.98-76.104 155.98-76.104m-1029.7 384.08s113.47-15.714 169.31-28.215c77.146-17.274 151.65-44.872 228.23-64.502 77.123-19.769 160.2-20.826 232.75-53.617 89.54-40.47 155.57-120.76 239.48-171.9 51.118-31.157 159.94-81.687 159.94-81.687m-1032 397.84s114.43-15.446 170.56-28.573c77.275-18.072 151.16-48.658 227.9-68.875 77.27-20.356 161.28-19.261 233.85-52.709 89.115-41.075 152.92-123.69 235.75-176.3 52.262-33.193 163.92-87.344 163.92-87.344m-1034.3 411.72s115.38-15.175 171.81-28.928c77.423-18.873 150.65-52.435 227.57-73.245 77.416-20.943 162.37-17.69 234.95-51.808 88.722-41.705 150.23-126.69 232.02-180.74 53.388-35.279 167.91-93.059 167.91-93.059m-1036.5 425.7s116.34-14.899 173.05-29.281c77.589-19.677 150.12-56.203 227.25-77.612 77.561-21.53 163.42-16.208 236.05-50.912 87.226-41.68 146.03-127.37 225.67-182.16 53.191-36.589 167.5-97.243 167.5-97.243l7.0421-4.7315m-1038.8 439.86s117.31-14.62 174.29-29.629c77.774-20.483 149.57-59.96 226.93-81.975 77.704-22.115 164.57-14.533 237.15-50.024 88.031-43.049 144.72-132.9 224.51-189.78 55.574-39.615 175.94-104.71 175.94-104.71m-1041.1 454.04s118.27-14.34 175.53-29.977c77.977-21.295 149.01-63.714 226.61-86.341 77.847-22.698 165.68-12.951 238.25-49.135 87.729-43.743 141.92-136.05 220.77-194.3 56.624-41.829 179.97-110.53 179.97-110.53m-1043.4 468.19s119.24-14.058 176.77-30.324c78.198-22.112 148.42-67.466 226.29-90.709 77.991-23.279 166.8-11.368 239.36-48.243 87.45-44.444 139.08-139.19 217.02-198.77 57.638-44.057 183.97-116.3 183.97-116.3m-1045.7 482.26s120.21-13.775 178-30.671c78.435-22.933 147.81-71.215 225.97-95.08 78.134-23.857 167.92-9.785 240.47-47.349 87.197-45.15 136.23-142.33 213.29-203.19 58.619-46.294 187.96-122.01 187.96-122.01m-1048 496.21s121.18-13.492 179.22-31.018c78.689-23.761 147.19-74.964 225.65-99.455 78.278-24.433 169.05-8.2029 241.58-46.451 86.967-45.857 133.35-145.44 209.57-207.54 59.565-48.532 191.93-127.64 191.93-127.64m-1050.2 510.03s122.15-13.21 180.44-31.365c78.96-24.595 146.54-78.712 225.33-103.84 78.423-25.005 170.17-6.6223 242.7-45.547 86.756-46.561 130.46-148.51 205.87-211.82 60.472-50.763 195.88-133.17 195.88-133.17m-1052.5 523.65s123.13-12.928 181.66-31.712c79.246-25.434 145.87-82.462 225.01-108.22 78.569-25.574 171.3-5.0434 243.83-44.637 86.566-47.261 127.56-151.54 202.2-216.01 61.346-52.983 199.82-138.58 199.82-138.58m-1054.8 537.08s124.11-12.648 182.87-32.061c79.548-26.281 145.18-86.213 224.69-112.61 78.716-26.139 172.44-3.4667 244.96-43.719 86.39-47.951 124.65-154.51 198.55-220.09 62.181-55.182 203.73-143.87 203.73-143.87m-1057.1 550.28s125.08-12.369 184.07-32.41c79.866-27.134 144.47-89.966 224.37-117.02 78.865-26.701 173.57-1.8923 246.09-42.794 86.228-48.63 121.73-157.41 194.93-224.07 62.981-57.357 207.61-149.02 207.61-149.02m-1059.4 563.22s126.06-12.093 185.27-32.761c80.198-27.994 143.74-93.722 224.04-121.42 79.016-27.258 174.71-0.32006 247.24-41.859 86.079-49.296 118.82-160.24 191.33-227.92 63.746-59.501 211.46-154.01 211.46-154.01m-1061.6 575.9s127.04-11.819 186.47-33.114c80.545-28.861 142.99-97.482 223.71-125.84 79.17-27.811 175.84 1.2496 248.39-40.914 85.94-49.945 115.9-162.99 187.77-231.66 64.477-61.611 215.28-158.85 215.28-158.85m-1063.9 588.29s128.02-11.548 187.66-33.468c80.906-29.735 142.22-101.25 223.38-130.26 79.327-28.36 176.98 2.8176 249.55-39.96 85.808-50.577 113-165.65 184.24-235.26 65.176-63.682 219.07-163.51 219.07-163.51m-1066.2 600.38s129-11.281 188.84-33.823c81.28-30.617 141.43-105.01 223.05-134.7 79.487-28.905 178.12 4.3838 250.72-38.994 85.683-51.189 110.1-168.22 180.74-238.73 65.842-65.712 222.83-168.01 222.83-168.01m-1068.5 612.17s129.98-11.017 190.02-34.181c81.668-31.507 140.61-108.79 222.71-139.14 79.65-29.445 179.25 5.9487 251.9-38.018 85.561-51.781 107.21-170.7 177.28-242.05 66.478-67.697 226.54-172.33 226.54-172.33m-1070.7 623.64s130.96-10.757 191.19-34.541c82.07-32.404 139.77-112.56 222.37-143.59 79.817-29.981 180.39 7.5128 253.09-37.031 85.443-52.351 104.33-173.08 173.85-245.25 67.086-69.637 230.23-176.47 230.23-176.47m-1073 634.8s131.93-10.501 192.36-34.902c82.484-33.308 138.92-116.35 222.03-148.05 79.986-30.512 181.53 9.0766 254.29-36.032 85.325-52.898 101.47-175.37 170.46-248.3 67.665-71.529 233.87-180.44 233.87-180.44m-1075.3 645.64s132.91-10.249 193.52-35.266c82.911-34.221 138.04-120.13 221.69-152.52 80.161-31.039 182.66 10.64 255.49-35.022 85.21-53.424 98.628-177.56 167.11-251.21 68.222-73.375 237.49-184.22 237.49-184.22m-1077.6 656.17s133.89-10.002 194.68-35.631c83.35-35.141 137.14-123.93 221.34-157 80.34-31.561 183.8 12.205 256.71-34 85.092-53.926 95.801-179.65 163.79-253.99 68.752-75.172 241.07-187.84 241.07-187.84" fill="none" stroke="url(#linearGradient118139)" stroke-width=".36871px"/>
 <path d="m-17.203 701.17c75.754-19.58 156.93-134.91 239.97-147.32 97.975-14.638 177.75 69.29 279.3 71.228 168.19 3.2099 248.76-168.52 454.39-50.201 89.541 51.524 242.01 6.2167 325.34-94.378m-1299.8 218.92c74.969-20.101 155.28-137.25 239.15-149.27 97.611-14.215 178.89 68.892 281.46 69.881 165.94 2.6171 247.38-165.76 450.15-50.665 90.212 49.962 239.68 5.6839 324.14-92.088m-1295.7 220.39c74.183-20.622 153.63-139.58 238.33-151.22 97.248-13.792 180.03 68.495 283.62 68.535 163.69 2.0244 246-162.99 445.91-51.129 90.883 48.401 237.34 5.151 322.94-89.799m-1291.6 221.86c73.398-21.143 151.97-141.92 237.52-153.17 96.884-13.369 181.17 68.098 285.78 67.188 161.43 1.4314 244.62-160.23 441.67-51.593 91.554 46.839 235.01 4.6178 321.73-87.51m-1287.5 223.33c72.613-21.663 150.32-144.25 236.7-155.12 96.521-12.946 182.31 67.7 287.95 65.842 159.18 0.83849 243.24-157.46 437.42-52.058 92.225 45.277 232.67 4.0848 320.53-85.221m-1283.4 224.81c71.827-22.184 148.67-146.59 235.89-157.07 96.157-12.523 183.45 67.303 290.11 64.496 156.93 0.24535 241.86-154.7 433.18-52.522 92.895 43.716 230.34 3.552 319.33-82.931m-1279.3 226.28c71.041-22.704 147.02-148.92 235.07-159.03 95.794-12.1 184.59 66.905 292.27 63.149 154.67-0.34699 240.48-151.93 428.94-52.986 93.566 42.154 228 3.0191 318.13-80.642m-1275.2 227.75c70.256-23.225 145.37-151.26 234.25-160.98 95.43-11.677 185.73 66.508 294.43 61.803 152.42-0.93982 239.09-149.17 424.7-53.45 94.237 40.592 225.67 2.486 316.93-78.353m-1271.1 229.23c69.47-23.746 143.71-153.59 233.44-162.93 95.066-11.254 186.87 66.11 296.59 60.457 150.16-1.5328 237.71-146.4 420.46-53.914 94.908 39.03 223.34 1.9531 315.72-76.064m-1266.3 230.43c68.47-24.951 141.64-155.69 231.87-164.61 94.703-10.831 188 65.713 298.76 59.11 147.91-2.1257 236.33-143.63 416.22-54.378 95.578 37.469 221 1.4202 314.52-73.774m-1261.4 231.58c67.448-26.241 139.54-157.74 230.24-166.24 94.34-10.408 189.14 65.316 300.92 57.764 145.66-2.7184 234.95-140.87 411.98-54.842 96.249 35.907 218.67 0.88718 313.32-71.486m-1256.5 232.7c66.427-27.55 137.46-159.75 228.6-167.84 93.976-9.9851 190.28 64.918 303.08 56.417 143.4-3.3112 233.57-138.1 407.73-55.307 96.92 34.345 216.33 0.35457 312.12-69.196m-1251.5 233.78c65.405-28.878 135.39-161.73 226.96-169.4 93.612-9.562 191.42 64.521 305.24 55.071 141.15-3.9041 232.19-135.34 403.49-55.771 97.591 32.783 214-0.17937 310.92-66.907m-1246.6 234.84c64.385-30.221 133.34-163.67 225.32-170.93 93.249-9.139 192.56 64.123 307.41 53.725 138.9-4.4969 230.81-132.57 399.25-56.235 98.261 31.222 211.66-0.71176 309.72-64.618m-1241.7 235.85c63.365-31.582 131.31-165.57 223.69-172.42 92.885-8.716 193.7 63.726 309.57 52.378 136.64-5.0896 229.43-129.81 395.01-56.699 98.933 29.66 209.33-1.2444 308.51-62.329m-1236.8 236.82c62.346-32.959 129.3-167.42 222.05-173.88 92.522-8.293 194.84 63.328 311.73 51.032 134.39-5.6825 228.04-127.04 390.77-57.163 99.603 28.098 207-1.7777 307.31-60.04m-1231.9 237.75c61.328-34.352 127.3-169.24 220.42-175.29 92.158-7.8699 195.98 62.931 313.89 49.685 132.14-6.2754 226.66-124.28 386.53-57.627 100.27 26.536 204.66-2.3107 306.11-57.75m-1226.9 238.64c60.313-35.759 125.32-171 218.78-176.65 91.795-7.447 197.12 62.533 316.06 48.339 129.88-6.8682 225.28-121.51 382.29-58.091 100.94 24.975 202.33-2.8437 304.91-55.461m-1222 239.49c59.299-37.181 123.36-172.72 217.14-177.97 91.431-7.024 198.25 62.136 318.22 46.992 127.63-7.461 223.9-118.75 378.04-58.555 101.62 23.413 199.99-3.3765 303.71-53.172m-1217.1 240.28c58.286-38.616 121.42-174.38 215.51-179.25 91.067-6.601 199.39 61.738 320.38 45.646 125.38-8.0539 222.52-115.98 373.8-59.019 102.29 21.851 197.66-3.9095 302.51-50.883m-1212.2 241.02c57.278-40.062 119.51-175.99 213.87-180.47 90.704-6.1778 200.53 61.341 322.54 44.3 123.12-8.6469 221.14-113.22 369.56-59.484 102.96 20.29 195.32-4.4425 301.3-48.593m-1207.3 241.71c56.271-41.519 117.61-177.55 212.23-181.63 90.34-5.7548 201.67 60.944 324.71 42.953 120.87-9.2396 219.76-110.45 365.32-59.948 103.63 18.728 192.99-4.9756 300.1-46.304m-1202.4 242.34c55.269-42.984 115.74-179.04 210.6-182.74 89.977-5.3318 202.81 60.546 326.87 41.607 118.61-9.8325 218.37-107.68 361.08-60.412 104.3 17.166 190.66-5.5085 298.9-44.015m-1197.4 242.91c54.27-44.458 113.89-180.46 208.96-183.79 89.613-4.9088 203.95 60.149 329.03 40.26 116.36-10.425 216.99-104.92 356.84-60.876 104.97 15.604 188.32-6.0415 297.7-41.726m-1192.5 243.41c53.275-45.939 112.06-181.82 207.32-184.77 89.25-4.4857 205.09 59.751 331.19 38.914 114.11-11.018 215.61-102.15 352.6-61.34 105.64 14.043 185.99-6.5744 296.5-39.437m-1187.6 243.85c52.286-47.422 110.26-183.11 205.69-185.69 88.886-4.0626 206.23 59.354 333.35 37.568 111.85-11.611 214.23-99.388 348.35-61.804 106.31 12.481 183.65-7.1074 295.3-37.148m-1182.7 244.21c51.302-48.907 108.49-184.32 204.05-186.53 88.523-3.6397 207.37 58.957 335.52 36.221 109.6-12.204 212.85-96.622 344.11-62.268 106.98 10.919 181.32-7.6404 294.09-34.858m-1177.8 244.5c50.324-50.395 106.74-185.45 202.41-187.3 88.159-3.2166 208.5 58.559 337.68 34.875 107.35-12.797 211.47-93.857 339.87-62.732 107.65 9.3576 178.99-8.1732 292.89-32.569m-1172.9 244.71c49.353-51.877 105.02-186.5 200.78-187.99 87.795-2.7936 209.64 58.162 339.84 33.529 105.09-13.389 210.09-91.092 335.63-63.197 108.32 7.7958 176.65-8.7062 291.69-30.28m-1167.9 244.84c48.39-53.356 103.33-187.46 199.14-188.6 87.432-2.3706 210.78 57.764 342 32.182 102.84-13.982 208.71-88.326 331.39-63.661 108.99 6.234 174.32-9.2392 290.49-27.991m-1163 244.88c47.434-54.827 101.67-188.32 197.5-189.11 87.068-1.9476 211.92 57.367 344.17 30.836 100.59-14.575 207.32-85.561 327.15-64.125 109.66 4.6724 171.98-9.772 289.29-25.701m-1158.1 244.82c46.488-56.287 100.04-189.09 195.87-189.54 86.705-1.5245 213.06 56.97 346.33 29.489 98.333-15.168 205.94-82.795 322.91-64.589 110.34 3.1106 169.65-10.305 288.09-23.412m-1153.2 244.67c45.551-57.733 98.446-189.76 194.23-189.86 86.341-1.1015 214.2 56.572 348.49 28.143 96.079-15.761 204.56-80.03 318.66-65.053 111.01 1.5489 167.31-10.838 286.88-21.123m-1148.3 244.42c44.625-59.161 96.883-190.31 192.59-190.09 85.978-0.67854 215.34 56.175 350.65 26.797 93.826-16.354 203.18-77.264 314.42-65.517 111.68-4e-3 164.98-11.371 285.68-18.834m-1143.4 244.06c43.711-60.568 95.354-190.76 190.96-190.2 85.614-0.25483 216.48 55.777 352.81 25.45 91.572-16.946 201.8-74.499 310.18-65.981 112.35-1.5746 162.65-11.904 284.48-16.545m-1138.4 243.58c42.81-61.949 93.861-191.09 189.32-190.21 85.25 0.16762 217.62 55.38 354.98 24.104 89.319-17.539 200.42-71.734 305.94-66.445 113.02-3.1364 160.31-12.437 283.28-14.255m-1133.5 242.99c41.922-63.3 92.404-191.28 187.68-190.09 84.887 0.59071 218.75 54.982 357.14 22.757 87.065-18.132 199.04-68.968 301.7-66.909 113.69-4.6982 157.98-12.97 282.08-11.966m-1128.6 242.28c41.05-64.614 90.986-191.37 186.05-189.87 84.523 1.0136 219.89 54.585 359.3 21.411 84.812-18.725 197.66-66.203 297.46-67.373 114.36-6.2599 155.64-13.503 280.88-9.6771m-1123.7 241.44c40.193-65.89 89.605-191.3 184.42-189.5 84.16 1.4367 221.03 54.188 361.46 20.064 82.558-19.318 196.27-63.437 293.22-67.838 115.03-7.8216 153.31-14.036 279.67-7.3877m-1118.8 240.45c39.352-67.126 88.263-191.09 182.78-188.99 83.796 1.8597 222.17 53.79 363.63 18.718 80.305-19.91 194.89-60.672 288.97-68.302 115.7-9.3833 150.97-14.569 278.47-5.0987" fill="none" stop-color="#000000" stroke="url(#linearGradient24274)" stroke-width="1.1061" style="font-variation-settings:normal"/>
 <path d="m1378.6-61.196c-205.89 25.891-191.12 288.49-380.47 319.02-125.88 7.0692-165.83-27.615-261.61-3.5-114.09 28.724-182.16 127.98-279.65 137.36-104.42 10.045-223.17-40.441-336.41 13.471-70.313 33.473-103.1 118.72-144.24 179.89v83.325c92.264-52.899 172.35-133.81 238.93-154.9 67.863-21.497 137.55-8.8787 208.55-7.1626 62.528 1.5113 127.51-41.857 191.99-46.138 128.93-8.5605 268.28 24.519 394.63 3.8802 122.64-20.032 209.6-119.25 325.18-148.53 14.02-3.5522 28.428-5.6121 43.091-6.6884z" fill="url(#linearGradient4551-1-4)"/>
 <path d="m1378.6 118.71c-128.19 17.035-192.87 68.906-272.11 177.48-94.045 128.87-269.22 78.611-269.22 78.611l206.72 72.929 334.6-60.911z" fill="url(#linearGradient12309-5-7)"/>
 <path d="m394.42 448.33c30.522 2.8082 109.52-1.5094 139.44-11.722 152.18-74.079 209.06-158.35 382.55-108.01 194.53 56.448 261.56-208.53 462.42-237.86m-985.51 417.24s70.548-3.4843 169.35-9.4097c174.48-12.293 228.01-9.0448 418.83 42.757 131.19 35.614 271.6-135.34 397.37-157.96m-985.52 122.55c1.0523 0.0967 71.892-3.4163 168.32-9.4896 173.64-14.635 227.83-14.232 417.58 37.558 132.48 36.159 272.7-135.08 399.63-159.09m-985.49 128.97c2.105 0.19492 73.236-3.3481 167.29-9.5691 172.79-16.97 227.63-19.443 416.33 32.359 133.79 36.729 273.81-134.93 401.86-160.39m-985.44 135.54c3.1574 0.2901 74.579-3.2799 166.26-9.649 171.79-19.303 227.64-24.616 415.08 27.161 135.12 37.326 274.92-134.9 404.08-161.86m-985.37 142.29c4.2097 0.3873 75.923-3.2119 165.22-9.7287 170.98-21.636 227.38-29.885 413.83 21.962 136.5 37.957 276.06-135.02 406.33-163.51m-985.34 149.22c5.2624 0.48441 77.267-3.1439 164.19-9.8084 170.21-23.965 227.06-35.192 412.58 16.763 137.91 38.623 277.24-135.29 408.61-165.35m-985.34 156.34c6.3148 0.58089 78.61-3.0756 163.16-9.8881 169.36-26.233 226.66-40.547 411.32 11.564 139.36 39.326 278.43-135.72 410.88-167.38m-985.33 163.64c7.3671 0.67793 79.954-3.0074 162.13-9.9678 168.5-28.523 226.36-45.895 410.07 6.3655 140.84 40.065 279.61-136.34 413.11-169.59m-985.28 171.14c8.4198 0.77474 81.298-2.9394 161.1-10.048 167.64-30.799 226.04-51.231 408.82 1.1664 142.46 40.837 280.7-137.15 415.32-171.99m-985.21 178.82c9.4721 0.87145 82.641-2.8713 160.07-10.127 166.78-33.061 225.7-56.62 407.57-4.0323 144.41 41.756 281.52-138.1 417.51-174.58m-985.11 186.69c10.525 0.96841 83.985-2.8032 159.04-10.207 165.93-35.308 225.35-62.06 406.32-9.2311 146.17 42.671 282.64-139.4 419.77-177.38m-985.09 194.76c11.577 1.0652 85.329-2.7352 158-10.287 165.08-37.539 224.97-67.54 405.07-14.43 148.01 43.649 283.75-140.98 422.01-180.36m-985.04 203.02c12.63 1.162 86.673-2.667 156.97-10.367 164.23-39.752 224.58-73.064 403.82-19.629 149.93 44.698 284.86-142.88 424.25-183.52m-985 211.45c13.682 1.2588 88.016-2.5989 155.94-10.446 163.4-41.947 224.16-78.633 402.57-24.828 151.94 45.824 286-145.13 426.49-186.83m-984.96 220.05c14.735 1.3557 89.36-2.5309 154.91-10.526 162.57-44.122 223.73-84.252 401.32-30.026 154.03 47.033 287.18-147.78 428.73-190.28m-984.92 228.78c15.787 1.4526 90.704-2.4627 153.88-10.606 161.75-46.278 223.27-89.922 400.06-35.225 156.19 48.325 288.43-150.87 430.97-193.84m-984.87 237.62c16.84 1.5494 92.048-2.3947 152.85-10.685 160.95-48.413 222.8-95.644 398.81-40.424 158.43 49.704 289.79-154.42 433.21-197.49m-984.83 246.54c17.892 1.6462 93.391-2.3267 151.82-10.765 160.16-50.526 222.38-101.65 397.56-45.623 158.83 50.797 291.96-158.65 435.44-201.17m-984.78 255.51c18.945 1.7431 94.735-2.2585 150.78-10.845 159.38-52.617 221.86-107.49 396.31-50.822 161.05 52.314 293.42-163.12 437.7-204.87m-984.76 264.48c19.997 1.8398 96.078-2.1903 149.75-10.925 158.62-54.685 221.32-113.35 395.06-56.021 163.36 53.905 294.99-168.02 439.95-208.51m-984.72 273.4c21.05 1.9369 97.423-2.1223 148.72-11.004 157.88-56.732 220.74-119.23 393.81-61.219 165.77 55.559 296.72-173.35 442.19-212.06m-984.68 282.22c22.102 2.0336 98.766-2.0541 147.69-11.084 157.16-58.754 220.11-125.08 392.56-66.418 168.3 57.254 298.64-179.03 444.43-215.46m-984.64 290.91c23.154 2.1303 100.11-1.986 146.66-11.164 156.46-60.754 219.41-130.84 391.31-71.617 169.84 58.519 298.31-183.55 443.46-217.96 1.0945-0.24915 2.1866-0.49659 3.2761-0.74065m-984.66 299.43c24.207 2.2272 101.45-1.9179 145.63-11.244 155.78-62.73 217.62-133.54 390.06-76.816 189.07 62.19 271.02-184.06 448.99-221.82m-984.64 307.83c25.259 2.3242 102.8-1.8498 144.6-11.324 155.12-64.682 216.37-137.91 388.8-82.015 190.09 61.621 269.68-188.45 451.24-224.81m-984.6 316.09c26.312 2.4209 104.14-1.7817 143.56-11.403 154.49-66.61 215.04-142.2 387.55-87.214 191.12 60.922 268.12-192.7 453.47-227.66m-984.55 324.22c27.364 2.5178 105.48-1.7138 142.53-11.483 153.87-68.514 213.65-146.39 386.3-92.412 192.11 60.062 266.49-196.85 455.74-230.4m-984.54 332.24c28.417 2.6147 106.83-1.6455 141.5-11.563 153.29-70.393 212.19-150.49 385.05-97.611 193 59.036 264.82-200.86 457.94-233m-984.46 340.12c29.469 2.7114 108.17-1.5773 140.47-11.642 152.72-72.248 210.65-154.47 383.8-102.81 193.82 57.824 263.2-204.78 460.23-235.5" fill="none" stroke="url(#linearGradient6948-4)" stroke-width=".36871px"/>
 <path d="m1378.6 226.15c-14.088 2.0394-28.917 4.7138-45.053 8.26-165.66 36.407-195.12 172.68-319.68 160.14-60.528-6.0929-192.9-43.404-252.39-32.237-101.36 19.028-145.03 84.034-248.85 93.564-121.84 11.184-198.96-49.583-319.76-31.498-101.5 15.196-158.09 131.01-205.43 188.92-3.617 4.4261-7.3675 8.5455-11.225 12.432v42.584c36.614-18.051 67.663-36.268 85.216-47.671 252.04-214.5 212.88-35.566 406.59-47.967 65.496-4.1931 231.08-129.42 296.88-143.11 135.9-28.27 162.98 66.622 298.38 44.68 111.93-18.137 211.28-81.146 315.31-120.01z" fill="url(#linearGradient4479-5-9)"/>
 <path d="m1378.6 317.28c-2.1623 0.35647-4.3155 0.66477-6.4903 1.0876-80.794 15.708-139.28 70.119-238.5 128.21-110.4 64.636-269.55-78.641-379.25-51.153-111.45 27.926-160.69 123.93-271.24 139.41-111.84 15.657-179.29-122.15-326.57-63.342-88.381 35.288-117.15 124.07-159.83 167.84-6.7649 6.9364-13.588 13.166-20.508 18.817v49.86c11.275-4.6813 22.751-10.291 34.482-17.018 90.25-51.751 126.71-164.33 235.6-171.27 59.429-3.79 128.24 69.658 219.4 80.94 121.94 15.091 207.17-100.87 277.26-113.32 144.39-25.644 195.42 80.148 302.74 92.075 140.27 15.589 228.37-96.423 332.9-155.12z" fill="url(#linearGradient4687-8-0)"/>
 <path d="m1378.6 338.74c-100.31 70.864-185.53 241.58-316.19 241.53 130.58 5.2446 215.89-99.692 316.19-155.92zm-576.59 83.527c-125.6 2.0662-195.51 172.75-323.91 179.49 115.28 6.0536 197.16-102.39 264.83-114.41 144.39-25.644 195.42 80.148 302.74 92.075-100.61-11.181-124.88-159.11-243.66-157.15zm-560.58 66.19c-107.11-1.2837-184.29 176.37-265.25 207.19v10.608c11.064-4.9737 22.196-10.474 33.267-16.553 90.25-51.751 127.92-163.04 236.81-169.98 59.429-3.79 128.24 70.007 219.4 81.289-91.161-11.282-125.75-111.37-224.23-112.55z" fill="#e9ebed" fill-opacity=".49133" opacity=".23994"/>
 <path d="m1378.6 414.9c-97.068 58.607-184.99 161.46-309.13 165.2-2.3277 0.10846-4.6648 0.17937-7.0216 0.17824 4.0804 0.1642 8.1168 0.2207 12.111 0.17444 15.974-0.18582 31.27-2.0187 46.005-5.1814 2.6424-0.56712 5.245-1.2243 7.8521-1.8754 1.0281-0.25635 2.0739-0.46948 3.0963-0.7388v-2e-3c1.7361-0.45726 3.4411-0.99052 5.1619-1.4835 1.8643-0.53406 3.7437-1.0324 5.5909-1.607 3.5487-1.104 7.0648-2.2812 10.553-3.5274v-4e-3c3.4873-1.2461 6.9462-2.5604 10.376-3.939v-4e-3c0.3986-0.16003 0.7876-0.33978 1.1858-0.50167 3.0292-1.233 6.0463-2.4967 9.0338-3.8253 3.3769-1.5016 6.7262-3.0611 10.053-4.6758v-8e-3c3.1411-1.5245 6.2598-3.1058 9.3595-4.7228 0.1858-0.0978 0.3792-0.18658 0.5643-0.28404 3.2795-1.7177 6.5358-3.4837 9.7728-5.295v-8e-3c3.2374-1.8115 6.4551-3.668 9.6534-5.5635v-8e-3c3.1984-1.8955 6.3785-3.8289 9.5416-5.7987v-0.0114c3.163-1.9699 6.3079-3.9738 9.4399-6.0084v-0.0114c6.2677-4.0721 12.476-8.2649 18.64-12.538v-0.0114c2.8692-1.9892 5.702-4.0427 8.5537-6.0632 3.2799-2.3237 6.5791-4.6186 9.8396-6.9725 12.184-8.7962 24.247-17.763 36.311-26.589v-8e-3c0.3921-0.28707 0.7839-0.56595 1.176-0.85249 5.6469-4.1268 11.295-8.2284 16.955-12.258 6.0409-4.3002 12.096-8.5276 18.18-12.642v-2e-3c4.9143-3.3231 9.8669-6.5089 14.827-9.6651 1.1908-0.75756 2.3652-1.5737 3.5586-2.3202 3.0812-1.9267 6.1726-3.8133 9.2773-5.6595 1.7978-1.0691 3.6098-2.092 5.4164-3.1316 1.3155-0.75681 2.6226-1.5387 3.9431-2.2791zm-587.09 62.394v2e-3c-122.16-3.1696-174.53 127.79-313.38 124.46 115.28 6.0536 197.16-102.39 264.83-114.41 4.3872-0.77918 8.6811-1.4265 12.9-1.9695 1.3944-0.17937 2.7349-0.28252 4.1115-0.43702 2.7971-0.31399 5.5969-0.63049 8.3227-0.84459 1.5836-0.12439 3.1138-0.1771 4.6739-0.26849 2.4403-0.14372 4.8874-0.29693 7.2723-0.36253 1.6238-0.0448 3.2025-0.0266 4.8013-0.0379 2.2662-0.0152 4.5374-0.0303 6.7546 0.019 1.5442 0.0341 3.0531 0.12628 4.5741 0.19605 2.2275 0.10163 4.4498 0.20706 6.6295 0.37429 1.4463 0.11111 2.8676 0.25863 4.2935 0.3978 2.171 0.21199 4.3322 0.43667 6.4573 0.71138 1.3898 0.18013 2.7596 0.38809 4.1308 0.59378 2.1308 0.3193 4.2488 0.65719 6.3356 1.0366 1.2666 0.23056 2.5214 0.47721 3.7725 0.72901 2.165 0.4353 4.3094 0.89715 6.4297 1.3933 1.135 0.26622 2.2654 0.53853 3.3883 0.82113 2.1896 0.55074 4.3553 1.1328 6.5002 1.7441 0.99507 0.28366 1.989 0.56785 2.9746 0.86421 2.3072 0.69283 4.587 1.4219 6.8453 2.1791 0.77665 0.26091 1.5567 0.51779 2.328 0.78582 2.4657 0.85586 4.901 1.7497 7.3132 2.675 0.53621 0.20553 1.0774 0.40428 1.6109 0.61335 2.7474 1.0753 5.4615 2.1942 8.1464 3.3491 0.17444 0.0747 0.34888 0.14638 0.52332 0.22147 11.453 4.954 22.341 10.606 32.981 16.52 0.9397 0.52268 1.8786 1.0429 2.8142 1.5697 17.466 9.8286 34.292 20.284 51.537 29.73 0.57604 0.31551 1.1593 0.61558 1.7364 0.9289 20.181 10.948 41.045 20.389 64.461 25.491-86.699-19.701-125.06-96.199-236.07-99.079zm-540.08 38.684c-1.8768-0.0379-3.7436 3e-3 -5.6007 0.12135-108.89 6.9442-153.83 122.89-243.93 174.9-8.7092 5.0272-17.299 9.3485-25.678 13.149v3.8018c3.4972-1.4587 6.997-2.9289 10.535-4.572 2.851-1.3328 5.7217-2.7085 8.6363-4.1799 1.1145-0.56102 2.2325-1.1364 3.3512-1.7167 3.9424-2.0483 7.917-4.1733 11.958-6.4904 90.25-51.751 126.71-164.33 235.6-171.27 44.572-2.8426 94.42 37.958 155.02 63.295 5.0497 2.1114 10.173 4.1164 15.375 5.9789 9.5393 3.4152 19.375 6.2686 29.458 8.5206-78.879-18.036-140.91-80.519-194.72-81.542zm194.72 81.542c1.5339 0.35078 3.0683 0.69686 4.6151 1.0132-1.5495-0.31058-3.0789-0.66996-4.6151-1.0132zm4.6151 1.0132c2.0448 0.40979 4.0876 0.822 6.1551 1.1719-2.0645-0.35457-4.113-0.75427-6.1551-1.1719zm6.1551 1.1719c0.30717 0.0527 0.61472 0.10731 0.92302 0.15889-0.30716-0.0508-0.61471-0.10656-0.92302-0.15889zm0.92302 0.15889c2.6026 0.42806 5.2169 0.82362 7.8567 1.1503-2.6382-0.3265-5.2548-0.71661-7.8567-1.1503zm569.74-23.489c2.8965 0.65814 5.8514 1.2456 8.8696 1.7559 3.0421 0.50288 6.119 0.94502 9.2533 1.2934-6.2344-0.69287-12.239-1.767-18.123-3.0492z" fill="url(#linearGradient14655-8)"/>
 <path d="m1378.6 220.57s-27.366 4.8977-41.943 9.2006c-173.57 51.233-186.94 155.86-301.01 165.95-48.972 4.3313-189.97-45.242-268.4-34.324-101.27 14.099-153.76 80.139-242.32 92.557-109.05 15.291-221.69-54.197-344.65-29.749-95.874 19.063-134.29 119.32-204.07 196.35v4.6514c58.826-58.874 106.38-176.39 204.07-198.49 119.13-26.952 247.08 53.855 347.12 30.805 107.84-24.848 139.38-77.835 239.88-93.635 89.15-14.015 210.99 45.372 268.95 38.28 106.3-13.006 145.29-120.62 309.6-168.14 11.05-3.1958 32.766-5.101 32.766-5.101z" fill="url(#linearGradient25349-2)"/>
</svg>
