<svg width="22" height="22" version="1" xmlns="http://www.w3.org/2000/svg">
<rect x="1.375" y="1.7189" width="19.25" height="19.25" rx=".96249" ry=".96249" opacity=".2" stroke-width=".34375"/>
<rect x="1.3752" y="1.375" width="19.25" height="19.25" rx=".96249" ry=".96249" fill="#60a5fa" stop-color="#000000"/>
<rect x="1.3752" y="11.278" width="19.25" height="9.3471" rx=".96249" ry=".96249" fill="#1d4ed8" stop-color="#000000"/>
<path d="m2.3379 1.375c-0.53322 0-0.96276 0.42954-0.96276 0.96276v0.34375c0-0.53322 0.42954-0.96276 0.96276-0.96276h17.324c0.53322 0 0.96276 0.42954 0.96276 0.96276v-0.34375c0-0.53322-0.42954-0.96276-0.96276-0.96276z" fill="#fff" opacity=".2" stroke-width=".34375"/>
<path d="m6.7845 11.862c-0.11534 0.0018-0.23031 0.0058-0.34442 0.01208-0.22823 0.01261-0.45372 0.03391-0.67675 0.06311-0.22303 0.0292-0.44391 0.06655-0.66131 0.11078-0.2174 0.04422-0.43184 0.09539-0.64318 0.15308-0.21135 0.05769-0.41952 0.12174-0.62438 0.19134-0.20486 0.0696-0.4063 0.14429-0.60424 0.22424-0.19795 0.07995-0.39216 0.16503-0.58276 0.25378-0.1906 0.08874-0.37711 0.18129-0.55993 0.27728-0.18283 0.09599-0.36181 0.19508-0.53643 0.29675-0.059968 0.03492-0.11693 0.07196-0.1759 0.10742v1.9121c0.12923-0.04784 0.26623-0.09502 0.41223-0.13965 0.15282-0.04671 0.31466-0.09102 0.48474-0.13092 0.17007-0.0399 0.34824-0.07568 0.53442-0.10541 0.18618-0.02973 0.38027-0.05365 0.58142-0.06982 0.20115-0.01617 0.40941-0.02426 0.62438-0.0235 0.21497 7.57e-4 0.43702 0.01051 0.66467 0.03155 0.22765 0.02106 0.46107 0.0533 0.70025 0.09802 0.23918 0.04472 0.48358 0.10212 0.73315 0.17389 0.12478 0.03588 0.25082 0.07556 0.37799 0.11884 0.12717 0.04328 0.25597 0.08991 0.38537 0.14099 0.12941 0.05109 0.25924 0.10651 0.39074 0.16583 0.1315 0.05933 0.264 0.12269 0.39746 0.19067 0.13346 0.06798 0.26267 0.1396 0.38672 0.21417 0.12405 0.07457 0.24286 0.15238 0.35785 0.23297 0.11498 0.08059 0.22608 0.1637 0.33233 0.24975 0.10625 0.08606 0.20829 0.1749 0.30615 0.26587 0.097861 0.09096 0.1915 0.18399 0.28131 0.2793 0.089806 0.0953 0.17572 0.1923 0.25781 0.29138 0.082087 0.09908 0.16027 0.2005 0.23498 0.30279 0.074708 0.1023 0.14583 0.2059 0.2135 0.31085 0.06767 0.10495 0.13172 0.21119 0.19269 0.31824 0.06097 0.10704 0.11862 0.21503 0.17322 0.3236 0.1092 0.21715 0.20629 0.43672 0.29205 0.65661 0.08576 0.21989 0.15988 0.43981 0.22492 0.65795 0.06102 0.20471 0.1127 0.4076 0.15777 0.60693h8.5897c0.53322 0 0.96209-0.42954 0.96209-0.96276v-0.47869c-0.54292-0.22377-1.0874-0.51365-1.275-0.617-0.33162-0.18274-0.68057-0.3841-1.0467-0.60558-0.36611-0.22149-0.74942-0.46318-1.1507-0.72711s-0.82023-0.54998-1.2575-0.86004c-0.43726-0.31006-0.893-0.6445-1.3669-1.0044-0.47393-0.35988-0.96573-0.74541-1.477-1.1588-0.25566-0.2067-0.51104-0.39793-0.76537-0.57403-0.25433-0.17609-0.5081-0.337-0.76068-0.48406-0.25257-0.14706-0.50425-0.27989-0.75463-0.39947-0.25038-0.11958-0.49949-0.22593-0.74725-0.31958-0.24776-0.093652-0.49381-0.1751-0.73852-0.24438-0.24471-0.069282-0.48788-0.12674-0.72912-0.17322-0.24124-0.046475-0.48105-0.081529-0.71838-0.10675-0.23733-0.025217-0.47196-0.040801-0.70495-0.046328-0.1165-0.0027-0.23244-0.0026-0.34778-6.88e-4z" fill="#2563eb" fill-rule="evenodd" stop-color="#000000" stroke-width=".028546px" style="paint-order:stroke fill markers"/>
<path d="m8.2481 6.2644c-0.25681 0.0022642-0.50856 0.011656-0.75518 0.02761-0.24661 0.015954-0.48818 0.038421-0.72463 0.06697-0.23644 0.028549-0.46778 0.063352-0.69408 0.10339-0.2263 0.040041-0.44735 0.085566-0.66353 0.136-0.21618 0.05043-0.42748 0.10565-0.63357 0.16537-0.20609 0.059717-0.407 0.1239-0.60303 0.19181-0.19602 0.0679-0.38709 0.13944-0.57307 0.21442-0.18598 0.074982-0.36685 0.15344-0.54281 0.2344-0.17596 0.08096-0.34688 0.16442-0.51285 0.25026-0.16597 0.085836-0.32718 0.17387-0.48319 0.26348-0.156 0.089608-0.30687 0.18089-0.45293 0.27317-0.080777 0.051032-0.15636 0.10292-0.2341 0.1545v5.2063c0.058969-0.03547 0.11539-0.0723 0.17536-0.10721 0.17462-0.10167 0.35352-0.20068 0.53635-0.29667 0.18283-0.09599 0.36954-0.18883 0.56014-0.27757 0.1906-0.08874 0.38511-0.17354 0.58305-0.25349 0.19795-0.07995 0.39934-0.1551 0.6042-0.2247 0.20486-0.0696 0.41312-0.13353 0.62447-0.19122 0.21135-0.05769 0.42586-0.1091 0.64327-0.15333 0.2174-0.04422 0.43786-0.08124 0.66089-0.11044 0.22303-0.0292 0.44853-0.05054 0.67675-0.06315 0.22823-0.01261 0.45903-0.01668 0.69203-0.01117 0.1165 0.0028 0.23341 8e-3 0.35101 0.01557 0.11771 0.0076 0.23577 0.01764 0.35453 0.03025 0.23733 0.02522 0.47693 0.06074 0.71817 0.10721 0.12062 0.02324 0.24153 0.0493 0.36305 0.07814 9.26e-5 2.2e-5 1.503e-4 -2.2e-5 3.006e-4 0 0.12142 0.02882 0.24343 0.06056 0.36569 0.09517 0.12236 0.03464 0.2449 0.07215 0.36804 0.11279 9.08e-5 2.9e-5 1.503e-4 -3.1e-5 3.007e-4 0 0.12306 0.04061 0.2466 0.08421 0.37039 0.131 0.24776 0.09365 0.49687 0.2 0.74725 0.31958 0.25038 0.11958 0.50202 0.25241 0.75459 0.39947s0.50614 0.30826 0.76047 0.48436c0.25433 0.1761 0.5095 0.36725 0.76516 0.57395 0.51131 0.4134 1.0035 0.79917 1.4775 1.1591 0.47393 0.35988 0.92946 0.6939 1.3667 1.004 0.43726 0.31006 0.85642 0.59611 1.2577 0.86004 0.40132 0.26393 0.78472 0.50578 1.1508 0.72727 0.36611 0.22149 0.71494 0.42264 1.0466 0.60538 0.18756 0.10335 0.73216 0.39365 1.2751 0.61742v-10.936c-0.0051 1.804e-4 -0.0099 6.875e-4 -0.01499 8.937e-4 -0.21549 0.00819-0.43654 0.011856-0.66295 0.010869-0.22641-9.991e-4 -0.45808-0.00666-0.69555-0.017624-0.23747-0.010961-0.48067-0.027014-0.72933-0.048755-0.24866-0.021742-0.50284-0.049227-0.76282-0.082538-0.25998-0.033309-0.52576-0.072698-0.79718-0.11837-0.27143-0.045675-0.54855-0.097723-0.83155-0.15656-0.283-0.058835-0.57179-0.1243-0.8665-0.19709-0.29471-0.07279-0.5955-0.15273-0.90204-0.24027-0.30654-0.087541-0.61878-0.18271-0.93729-0.2858-0.31851-0.10309-0.63206-0.19568-0.94022-0.27846-0.30817-0.082772-0.61096-0.15586-0.9088-0.21942-0.29784-0.06356-0.5907-0.11757-0.87825-0.16302-0.28754-0.045452-0.56984-0.08229-0.84712-0.11074-0.27728-0.028445-0.54954-0.048552-0.81657-0.061096s-0.52892-0.017531-0.78573-0.015273z" fill="#3b82f6" fill-rule="evenodd" stop-color="#000000" stroke-width=".028546px" style="paint-order:stroke fill markers"/>
<path d="m5.0547 7.2641 3.6905 2.0606h7.5852v1.1095h-5.5972l3.6905 2.0606h1.9068v1.0646l2.0606 1.1503v-5.5856h5.15e-4v-1.8599zm-0.34847 0.95515-5.151e-4 7.4455h13.337l-3.691-2.0606h-7.5847v-4.2346z" fill-opacity=".2" stop-color="#000000" style="-inkscape-stroke:none;font-variation-settings:normal"/>
<path d="m4.4777 6.7569 3.6905 2.0606h7.5852v1.1095h-5.5972l3.6905 2.0606h1.9068v1.0646l2.0606 1.1503v-5.5856h5.16e-4v-1.8599zm-0.34847 0.95515-5.151e-4 7.4455h13.337l-3.691-2.0606h-7.5847v-4.2346z" fill="#fff" stroke-width=".9759"/>
</svg>
