<?xml version="1.0" encoding="UTF-8" standalone="no"?>
<svg
   width="22"
   height="22"
   version="1"
   id="svg12"
   xmlns="http://www.w3.org/2000/svg"
   xmlns:svg="http://www.w3.org/2000/svg">
  <defs
     id="defs16" />
  <rect
     style="opacity:0.2;stroke-width:0.343747"
     width="19.249847"
     height="19.249847"
     x="1.3749994"
     y="1.7188873"
     rx="0.96249229"
     ry="0.96249229"
     id="rect28957-5" />
  <rect
     style="fill:#60a5fa;fill-opacity:1;stroke:none;stroke-width:8.02907;stroke-linecap:round;stop-color:#000000"
     id="rect24605-7"
     width="19.249847"
     height="19.249847"
     x="1.3751515"
     y="1.3750148"
     ry="0.96249229"
     rx="0.96249229" />
  <rect
     style="fill:#1d4ed8;fill-opacity:1;stroke:none;stroke-width:8.02907;stroke-linecap:round;stop-color:#000000"
     id="rect25882-1"
     width="19.249847"
     height="9.3470621"
     x="1.3751515"
     y="11.2778"
     ry="0.96249229"
     rx="0.96249229" />
  <path
     style="opacity:0.2;fill:#ffffff;stroke-width:0.343747"
     d="m 2.3379118,1.3750148 c -0.5332204,0 -0.9627603,0.4295405 -0.9627603,0.9627612 v 0.3437473 c 0,-0.5332208 0.4295399,-0.9627612 0.9627603,-0.9627612 H 19.662238 c 0.533221,0 0.962761,0.4295404 0.962761,0.9627612 V 2.337776 c 0,-0.5332207 -0.42954,-0.9627612 -0.962761,-0.9627612 z"
     id="path10-6-5" />
  <path
     id="path146-4"
     style="fill:#2563eb;fill-opacity:1;fill-rule:evenodd;stroke-width:0.0285455px;paint-order:stroke fill markers;stop-color:#000000"
     d="m 6.784473,11.862242 c -0.1153368,0.0018 -0.230307,0.0058 -0.3444191,0.01208 -0.2282253,0.01261 -0.4537235,0.03391 -0.6767521,0.06311 -0.2230278,0.0292 -0.4439087,0.06655 -0.6613109,0.110777 -0.2174021,0.04422 -0.4318371,0.09539 -0.6431837,0.153075 -0.2113458,0.05769 -0.4195235,0.121745 -0.6243848,0.191344 -0.2048603,0.0696 -0.4062969,0.144289 -0.6042428,0.224242 -0.1979459,0.07995 -0.3921583,0.165034 -0.5827589,0.253782 -0.1906016,0.08874 -0.3771057,0.181294 -0.5599321,0.27728 -0.1828273,0.09599 -0.3618111,0.195085 -0.5364343,0.29675 -0.059968,0.03492 -0.1169336,0.07196 -0.1759019,0.107422 v 1.912094 c 0.1292289,-0.04784 0.2662303,-0.09502 0.4122287,-0.139648 0.1528184,-0.04671 0.3146642,-0.09102 0.484737,-0.130919 0.1700728,-0.0399 0.3482371,-0.07568 0.5344194,-0.105407 0.1861833,-0.02973 0.3802682,-0.05365 0.5814169,-0.06982 0.2011488,-0.01617 0.4094145,-0.02426 0.6243848,-0.0235 0.2149693,7.57e-4 0.4370199,0.01051 0.6646667,0.03155 0.2276469,0.02106 0.4610715,0.0533 0.7002518,0.09802 0.2391794,0.04472 0.4835802,0.102125 0.7331482,0.173888 0.124784,0.03588 0.250821,0.07556 0.3779875,0.118835 0.1271673,0.04328 0.2559681,0.08991 0.385373,0.14099 0.1294068,0.05109 0.2592416,0.106509 0.3907439,0.165831 0.1315031,0.05933 0.264,0.122694 0.3974575,0.190672 0.1334566,0.06798 0.2626653,0.139603 0.386716,0.214171 0.1240516,0.07457 0.2428635,0.152375 0.3578465,0.232969 0.114983,0.08059 0.2260802,0.163695 0.3323338,0.249754 0.1062527,0.08606 0.2082887,0.174905 0.3061502,0.265867 0.097861,0.09096 0.1915036,0.183992 0.2813085,0.279295 0.089806,0.0953 0.1757195,0.192298 0.2578097,0.291379 0.082087,0.09908 0.1602737,0.200496 0.2349839,0.302793 0.074708,0.102298 0.1458297,0.205898 0.2134986,0.31085 0.06767,0.10495 0.131721,0.211192 0.192687,0.318235 0.06097,0.107043 0.118618,0.215033 0.173216,0.323605 0.109202,0.217146 0.206289,0.43672 0.29205,0.656611 0.08576,0.219892 0.159885,0.439814 0.224915,0.657954 0.06102,0.204707 0.1127,0.407603 0.157773,0.606929 h 8.589656 c 0.533221,0 0.962087,-0.42954 0.962087,-0.962761 V 19.183647 C 20.082084,18.959878 19.537603,18.67 19.350047,18.566647 19.018427,18.38391 18.669473,18.182551 18.303364,17.961062 17.937253,17.739572 17.553941,17.497887 17.152616,17.233956 16.751291,16.970025 16.332386,16.683978 15.895119,16.373917 15.457856,16.063854 15.002116,15.729413 14.528187,15.369529 14.054259,15.009646 13.56246,14.62412 13.051146,14.210725 12.795488,14.004028 12.540105,13.812794 12.285773,13.636694 12.031445,13.460604 11.777669,13.299698 11.525098,13.152638 11.27253,13.005579 11.020848,12.872744 10.770466,12.753167 10.520085,12.633589 10.27098,12.52724 10.023216,12.433589 9.7754555,12.339937 9.5294094,12.25849 9.284696,12.189206 9.0399827,12.119924 8.796813,12.062462 8.5555766,12.01599 8.3143402,11.969515 8.0745264,11.934461 7.8371987,11.90924 7.5998691,11.884023 7.36524,11.868439 7.1322481,11.862912 c -0.1164964,-0.0027 -0.232441,-0.0026 -0.347776,-6.88e-4 z" />
  <path
     id="path148-9"
     style="fill:#3b82f6;fill-opacity:1;fill-rule:evenodd;stroke-width:0.0285455px;paint-order:stroke fill markers;stop-color:#000000"
     d="M 8.2481202,6.2644298 C 7.9913105,6.266694 7.7395563,6.2760862 7.4929418,6.2920398 7.2463273,6.3079935 7.0047572,6.330461 6.7683113,6.3590097 6.5318663,6.3875583 6.3005317,6.4223614 6.0742305,6.4624023 5.8479294,6.5024433 5.6268798,6.5479686 5.4106968,6.598399 5.1945147,6.6488294 4.983212,6.7040514 4.7771224,6.7637682 4.5710338,6.8234854 4.3701178,6.8876727 4.1740969,6.9555734 3.978076,7.0234737 3.7870097,7.0950145 3.6010308,7.1699958 3.4150529,7.2449773 3.2341818,7.3234315 3.0582203,7.4043916 2.8822588,7.4853516 2.7113389,7.5688131 2.5453691,7.6546488 2.3793993,7.7404846 2.2181878,7.8285155 2.062184,7.9181238 1.9061802,8.0077317 1.755317,8.0990136 1.6092544,8.1912919 1.5284778,8.2423236 1.4528931,8.2942074 1.3751524,8.3457936 v 5.2063484 c 0.058969,-0.03547 0.1153854,-0.0723 0.1753556,-0.107211 0.1746223,-0.101666 0.3535235,-0.200681 0.5363499,-0.296666 0.1828264,-0.09599 0.3695395,-0.188827 0.5601411,-0.277574 0.1906016,-0.08874 0.3851063,-0.173536 0.5830523,-0.253488 0.1979459,-0.07995 0.3993394,-0.155104 0.6042006,-0.224703 0.2048613,-0.0696 0.4131224,-0.133529 0.6244682,-0.191218 0.2113467,-0.05769 0.425865,-0.109104 0.6432672,-0.153326 0.2174021,-0.04422 0.4378632,-0.08124 0.660891,-0.110443 0.2230286,-0.0292 0.4485268,-0.05054 0.6767511,-0.06315 0.2282253,-0.01261 0.4590337,-0.01668 0.6920256,-0.01117 0.1164964,0.0028 0.2334118,0.008 0.3510064,0.01557 0.117711,0.0076 0.2357675,0.01764 0.3545318,0.03025 0.2373277,0.02522 0.4769307,0.06074 0.7181671,0.10721 0.1206186,0.02324 0.2415334,0.0493 0.3630495,0.07814 9.26e-5,2.2e-5 1.503e-4,-2.2e-5 3.006e-4,0 0.1214245,0.02882 0.2434282,0.06056 0.3656923,0.09517 0.1223567,0.03464 0.2449022,0.07215 0.3680435,0.112793 9.08e-5,2.9e-5 1.503e-4,-3.1e-5 3.007e-4,0 0.1230551,0.04061 0.2465998,0.08421 0.3703931,0.131002 0.247763,0.09365 0.496866,0.2 0.747247,0.319578 0.250379,0.119577 0.502022,0.252411 0.75459,0.399471 0.252568,0.14706 0.506138,0.30826 0.760466,0.484359 0.254328,0.1761 0.509505,0.36725 0.765164,0.573947 0.511313,0.413395 1.003529,0.799172 1.477456,1.159055 0.473929,0.359883 0.929455,0.693904 1.366723,1.003966 0.437264,0.310063 0.856422,0.596109 1.257747,0.860039 0.401325,0.263931 0.78472,0.505784 1.150831,0.727273 0.366109,0.221491 0.71494,0.422638 1.046556,0.605376 0.187555,0.103352 0.732164,0.39365 1.275079,0.617419 V 17.020199 8.2476848 c -0.0051,1.804e-4 -0.0099,6.875e-4 -0.01499,8.937e-4 -0.215488,0.00819 -0.436535,0.011856 -0.662952,0.010869 C 19.720645,8.2584484 19.48898,8.2527875 19.251509,8.2418235 19.014041,8.2308622 18.77084,8.2148092 18.522183,8.1930689 18.273524,8.1713269 18.019347,8.1438415 17.759367,8.1105311 17.499391,8.077222 17.233612,8.0378333 16.96219,7.992158 16.690763,7.9464832 16.413641,7.8944354 16.13064,7.8356003 15.847641,7.7767652 15.558849,7.7112985 15.26414,7.6385083 14.969432,7.5657181 14.668642,7.4857784 14.362095,7.398238 14.055552,7.3106972 13.74332,7.2155249 13.424806,7.1124396 13.106294,7.0093535 12.792745,6.916756 12.484582,6.833984 12.176416,6.7512124 11.873623,6.678129 11.575783,6.6145684 11.27794,6.5510085 10.985078,6.4970006 10.697533,6.451549 10.409988,6.406097 10.127692,6.3692589 9.8504178,6.3408129 9.5731417,6.3123678 9.3008816,6.2922608 9.033852,6.2797171 8.7668224,6.2671734 8.5049354,6.2621858 8.2481266,6.2644445 Z" />
  <path
     id="path42840"
     style="font-variation-settings:normal;vector-effect:none;fill:#000000;fill-opacity:0.2;stroke:none;stroke-width:0.560652;stroke-linecap:butt;stroke-linejoin:miter;stroke-miterlimit:4;stroke-dasharray:none;stroke-dashoffset:0;stroke-opacity:1;-inkscape-stroke:none;stop-color:#000000"
     d="M 5.0547285,7.264114 8.745201,9.3246867 h 7.585186 v 1.1094623 h -5.597233 l 3.690484,2.060572 h 1.906761 V 13.5593 l 2.060573,1.15031 V 9.1239754 h 5.15e-4 V 7.264114 Z M 4.7062558,8.2192594 4.7057407,15.664756 H 18.042486 L 14.35151,13.604183 H 13.637924 13.637409 6.7668144 V 9.3695694 Z" />
  <path
     id="path31"
     style="fill:#ffffff;fill-opacity:1;stroke-width:0.975902"
     d="M 4.4776841,6.7569458 8.1681566,8.8175181 H 15.753342 V 9.9269798 H 10.15611 l 3.690484,2.0605732 h 1.90676 v 1.064579 l 2.060573,1.15031 V 8.6168073 h 5.16e-4 V 6.7569458 Z M 4.1292114,7.7120913 4.1286963,15.157587 H 17.465442 L 13.774465,13.097014 H 13.06088 13.060364 6.1897699 V 8.8624016 Z" />
</svg>
