<svg width="16" height="16" version="1" xmlns="http://www.w3.org/2000/svg">
<g>
<rect x="4.798e-7" y="-1.961e-8" width="16" height="16" rx="0" ry="0" fill="#60a5fa" stop-color="#000000"/>
<rect x="4.798e-7" y="8.231" width="16" height="7.769" rx="0" ry="0" fill="#1d4ed8" stop-color="#000000"/>
<path d="m4.4961 8.7165c-0.095865 0.00154-0.19143 0.0048-0.28627 0.010046-0.1897 0.010486-0.37712 0.028186-0.5625 0.052455-0.18538 0.024269-0.36897 0.055319-0.54967 0.092076-0.1807 0.036757-0.35893 0.079282-0.5346 0.12723-0.17567 0.04795-0.3487 0.10119-0.51897 0.15904-0.17028 0.05785-0.3377 0.11993-0.50223 0.18638-0.16453 0.066454-0.32595 0.13717-0.48438 0.21094-0.15842 0.073764-0.31344 0.15069-0.4654 0.23047-0.15196 0.079781-0.30073 0.16215-0.44587 0.24665-0.049845 0.029021-0.097192 0.059811-0.14621 0.089286v1.5893c0.10741-0.039764 0.22128-0.078974 0.34263-0.11607 0.12702-0.03883 0.26154-0.07565 0.4029-0.10882 0.14136-0.03317 0.28945-0.06291 0.4442-0.08761 0.15475-0.02471 0.31607-0.0446 0.48326-0.05804s0.3403-0.02016 0.51897-0.01953c0.17868 6.28e-4 0.36324 0.0087 0.55246 0.02623 0.18921 0.0175 0.38323 0.0443 0.58203 0.08147 0.1988 0.03717 0.40194 0.08488 0.60937 0.14453 0.10372 0.02982 0.20848 0.0628 0.31417 0.09877 0.1057 0.03597 0.21275 0.07472 0.32031 0.11719 0.10756 0.04246 0.21548 0.08853 0.32478 0.13783 0.1093 0.04931 0.21943 0.10198 0.33036 0.15848 0.11093 0.0565 0.21832 0.11604 0.32143 0.17801 0.10311 0.06198 0.20186 0.12665 0.29743 0.19364 0.095571 0.06699 0.18791 0.13606 0.27623 0.20759 0.088315 0.07153 0.17312 0.14538 0.25446 0.22098 0.08134 0.0756 0.15917 0.15293 0.23382 0.23214 0.074645 0.07921 0.14605 0.15984 0.21429 0.24219 0.068231 0.08235 0.13321 0.16665 0.19531 0.25167 0.062097 0.08503 0.12121 0.17114 0.17745 0.25837 0.056246 0.08723 0.10948 0.17554 0.16016 0.26451 0.050671 0.08897 0.098591 0.17873 0.14397 0.26897 0.090766 0.18049 0.17146 0.36299 0.24274 0.54576 0.071286 0.18277 0.13289 0.36556 0.18694 0.54688 0.05072 0.17015 0.093674 0.33879 0.13114 0.50446h7.9392l-3e-6 -1.1981c-0.45126-0.18599-0.90382-0.42693-1.0597-0.51283-0.27563-0.15189-0.56568-0.31925-0.86998-0.50335-0.3043-0.1841-0.6229-0.38498-0.95647-0.60435s-0.68175-0.45713-1.0452-0.71484c-0.36344-0.25772-0.74224-0.5357-1.1362-0.83482-0.39392-0.29913-0.80269-0.61957-1.2277-0.96317-0.2125-0.1718-0.42477-0.33075-0.63616-0.47712-0.21139-0.14637-0.42232-0.28011-0.63225-0.40234-0.20993-0.12223-0.41912-0.23264-0.62723-0.33203-0.20811-0.099389-0.41516-0.18778-0.62109-0.26563-0.20593-0.077841-0.41044-0.14554-0.61384-0.20312-0.2034-0.057586-0.40552-0.10535-0.60603-0.14397-0.20051-0.038627-0.39984-0.067766-0.5971-0.088727-0.19726-0.02096-0.39228-0.033915-0.58594-0.038505-0.096828-0.0022857-0.1932-0.0021429-0.28906-5.714e-4z" fill="#2563eb" fill-rule="evenodd" stop-color="#000000" stroke-width=".023726px" style="paint-order:stroke fill markers"/>
<path d="m5.7126 4.064c-0.21345 0.00189-0.42271 0.00969-0.62769 0.022949-0.20498 0.01326-0.40577 0.031935-0.60229 0.055664-0.19653 0.023729-0.38881 0.052656-0.5769 0.085937-0.1881 0.033281-0.37183 0.07112-0.55151 0.11304-0.17969 0.041917-0.35531 0.087816-0.52661 0.13745-0.1713 0.049635-0.33829 0.10299-0.50122 0.15942-0.16293 0.056437-0.32174 0.1159-0.47632 0.17822-0.15458 0.062323-0.30492 0.12753-0.45117 0.19482-0.14625 0.067292-0.28832 0.13666-0.42627 0.20801-0.13795 0.071344-0.27194 0.14451-0.40161 0.21899-0.12967 0.07448-0.25506 0.15035-0.37646 0.22705-0.067138 0.042416-0.12996 0.085541-0.19458 0.12842v4.3274c0.049013-0.029475 0.095906-0.060091 0.14575-0.089111 0.14514-0.084502 0.29384-0.1668 0.4458-0.24658 0.15196-0.079781 0.30715-0.15695 0.46558-0.23071 0.15842-0.073764 0.32009-0.14424 0.48462-0.21069 0.16453-0.066455 0.33192-0.12892 0.5022-0.18677 0.17028-0.05785 0.34338-0.11099 0.51904-0.15894 0.17567-0.04795 0.35397-0.090684 0.53467-0.12744 0.1807-0.036757 0.36394-0.067528 0.54932-0.091797 0.18538-0.024268 0.3728-0.042003 0.5625-0.05249 0.18969-0.010486 0.38154-0.013868 0.57519-0.00928 0.096829 0.00229 0.19401 0.00661 0.29175 0.01294 0.097839 0.00631 0.19596 0.014657 0.29468 0.025146 0.19726 0.02096 0.39641 0.050485 0.59692 0.089111 0.10026 0.019314 0.20076 0.040973 0.30176 0.064941 7.75e-5 1.86e-5 1.249e-4 -1.86e-5 2.5e-4 0 0.10092 0.023954 0.20233 0.05033 0.30395 0.079101 0.1017 0.028794 0.20356 0.059973 0.30591 0.09375 7.51e-5 2.46e-5 1.251e-4 -2.45e-5 2.5e-4 0 0.10228 0.033756 0.20497 0.069994 0.30786 0.10889 0.20593 0.077841 0.41298 0.16624 0.62109 0.26562 0.20811 0.09939 0.41727 0.2098 0.6272 0.33203 0.20993 0.12223 0.42069 0.25622 0.63208 0.40259 0.21139 0.14637 0.42349 0.30525 0.63599 0.47705 0.42499 0.3436 0.83411 0.66425 1.228 0.96338s0.77254 0.57676 1.136 0.83447c0.36344 0.25772 0.71184 0.49547 1.0454 0.71484 0.33357 0.21937 0.65224 0.4204 0.95654 0.60449 0.3043 0.1841 0.59424 0.35129 0.86987 0.50317 0.15589 0.0859 0.60856 0.32719 1.0598 0.51318v-9.0898c-0.0043 1.5e-4 -0.0082 5.714e-4 -0.01246 7.428e-4 -0.17911 0.00681-0.36284 0.00985-0.55103 0.00903-0.18818-8.243e-4 -0.38074-0.00553-0.57812-0.014644-0.19738-0.00911-0.39952-0.022457-0.6062-0.040527-0.20668-0.018072-0.41794-0.040917-0.63403-0.068604-0.21609-0.027686-0.43699-0.060425-0.66259-0.098389-0.2256-0.037964-0.45594-0.081225-0.69116-0.13013-0.23522-0.048902-0.47526-0.10332-0.72021-0.16382-0.24496-0.060502-0.49496-0.12695-0.74976-0.19971-0.25479-0.072762-0.51431-0.15187-0.77905-0.23755-0.26474-0.085683-0.52535-0.16265-0.78149-0.23145-0.25614-0.068798-0.50781-0.12954-0.75537-0.18237-0.24756-0.052829-0.49098-0.097719-0.72998-0.1355-0.239-0.037779-0.47364-0.068397-0.7041-0.092041-0.23047-0.023643-0.45676-0.040356-0.67871-0.050781s-0.43962-0.014571-0.65308-0.012694z" fill="#3b82f6" fill-rule="evenodd" stop-color="#000000" stroke-width=".023726px" style="paint-order:stroke fill markers"/>
</g>
<path d="m3.0585 4.752 3.0674 1.7127h6.3046v0.92215h-4.6522l3.0674 1.7127h1.5848v0.88484l1.7127 0.9561v-4.6426h4.29e-4v-1.5459zm-0.28964 0.79389-4.282e-4 6.1885h11.085l-3.0678-1.7127h-6.3042v-3.5197z" fill-opacity=".2" stop-color="#000000" style="-inkscape-stroke:none;font-variation-settings:normal"/>
<path d="m2.5789 4.3304 3.0674 1.7127h6.3046v0.92215h-4.6522l3.0674 1.7127h1.5848v0.88484l1.7127 0.9561v-4.6426h4.28e-4v-1.5459zm-0.28964 0.79389-4.282e-4 6.1885h11.085l-3.0678-1.7127h-6.3042v-3.5197z" fill="#fff" stroke-width=".81114"/>
</svg>
