<?xml version="1.0" encoding="UTF-8" standalone="no"?>
<svg
   width="16"
   height="16"
   version="1"
   id="svg12"
   sodipodi:docname="distributor-logo-langitketujuh.svg"
   inkscape:version="1.1.1 (3bf5ae0d25, 2021-09-20)"
   xmlns:inkscape="http://www.inkscape.org/namespaces/inkscape"
   xmlns:sodipodi="http://sodipodi.sourceforge.net/DTD/sodipodi-0.dtd"
   xmlns="http://www.w3.org/2000/svg"
   xmlns:svg="http://www.w3.org/2000/svg">
  <sodipodi:namedview
     id="namedview10"
     pagecolor="#505050"
     bordercolor="#ffffff"
     borderopacity="1"
     inkscape:pageshadow="0"
     inkscape:pageopacity="0"
     inkscape:pagecheckerboard="1"
     showgrid="false"
     inkscape:zoom="8.46875"
     inkscape:cx="14.464945"
     inkscape:cy="7.4391144"
     inkscape:window-width="1366"
     inkscape:window-height="703"
     inkscape:window-x="0"
     inkscape:window-y="0"
     inkscape:window-maximized="1"
     inkscape:current-layer="svg12"
     inkscape:snap-global="true" />
  <defs
     id="defs16" />
  <path
     id="path12"
     style="font-variation-settings:normal;opacity:0.2;vector-effect:none;fill:#000000;fill-opacity:1;stroke:none;stroke-width:1;stroke-linecap:butt;stroke-linejoin:miter;stroke-miterlimit:4;stroke-dasharray:none;stroke-dashoffset:0;stroke-opacity:1;-inkscape-stroke:none;stop-color:#000000;stop-opacity:1"
     d="M 1.0316602,3.563844 5.069533,5.8183875 h 8.299216 V 7.0322879 H 7.2446223 L 11.28251,9.286832 h 2.086253 v 1.164793 l 2.254544,1.258596 V 5.5987827 h 5.64e-4 V 3.563844 Z M 0.65038414,4.6089016 0.64982055,12.755279 H 15.242018 L 11.203592,10.500732 H 10.422831 10.422268 2.9049127 V 5.8674961 Z" />
  <path
     style="fill:#2563eb;fill-opacity:1;stroke-width:0.811138"
     d="m 0.46544264,4.2421167 -5.637e-4,8.1463753 H 15.057075 L 11.018649,10.133947 H 10.237891 10.237327 2.7199711 V 5.5007112 Z"
     id="path44874" />
  <path
     style="fill:#3b82f6;fill-opacity:1;stroke-width:0.811138"
     d="M 0.84671869,3.197059 4.8845915,5.4516026 H 13.183807 V 6.665503 H 7.0596808 L 11.097567,8.9200475 H 13.18382 V 10.08484 l 2.254545,1.258595 V 5.2319979 h 5.63e-4 V 3.197059 Z"
     id="path29607" />
  <path
     id="path31"
     style="fill:#ffffff;fill-opacity:1;stroke-width:1;font-variation-settings:normal;opacity:0.2;vector-effect:none;stroke-linecap:butt;stroke-linejoin:miter;stroke-miterlimit:4;stroke-dasharray:none;stroke-dashoffset:0;stroke-opacity:1;-inkscape-stroke:none;stop-color:#000000;stop-opacity:1"
     d="M 0.84765625,3.197266 1.3339844,3.46875 H 15.125 v 2.035156 5.666016 l 0.3125,0.173828 V 5.232422 h 0.002 V 3.197266 Z M 0.46484375,4.242187 V 4.624878 L 2.40625,5.708862 v 4.697388 h 8.466797 l 3.550781,1.982422 h 0.632813 l -4.03711,-2.253906 H 2.7207031 V 5.5 Z M 7.0605469,6.666016 7.546875,6.9375 13.183807,6.936987 V 6.665503 Z"
     sodipodi:nodetypes="cccccccccccccccccccccccccc" />
</svg>
