<?xml version="1.0" encoding="UTF-8" standalone="no"?>
<svg
   width="16"
   height="16"
   version="1"
   id="svg12"
   xmlns="http://www.w3.org/2000/svg"
   xmlns:svg="http://www.w3.org/2000/svg">
  <defs
     id="defs16" />
  <rect
     style="fill:#60a5fa;fill-opacity:1;stroke:none;stroke-width:6.67357;stroke-linecap:round;stop-color:#000000"
     id="rect24605"
     width="16"
     height="16"
     x="4.7980313e-07"
     y="-1.9609809e-08"
     ry="0"
     rx="0" />
  <rect
     style="fill:#1d4ed8;fill-opacity:1;stroke:none;stroke-width:6.67357;stroke-linecap:round;stop-color:#000000"
     id="rect25882"
     width="16"
     height="7.7690487"
     x="4.7980313e-07"
     y="8.2309513"
     ry="0"
     rx="0" />
  <path
     id="path146"
     style="fill:#2563eb;fill-opacity:1;fill-rule:evenodd;stroke-width:0.0237263px;paint-order:stroke fill markers;stop-color:#000000"
     d="m 4.4960945,8.7165163 c -0.095865,0.00154 -0.1914251,0.0048 -0.2862723,0.010046 -0.1896951,0.010486 -0.3771242,0.028186 -0.5625,0.052455 C 3.4619471,8.803286 3.2783562,8.8343363 3.0976568,8.8710932 2.9169577,8.90785 2.7387245,8.9503749 2.5630588,8.9983254 2.3873931,9.0462757 2.2143608,9.099516 2.0440854,9.1573657 1.8738102,9.2152152 1.7063808,9.2772949 1.5418533,9.3437494 1.3773256,9.4102037 1.2159011,9.4809223 1.0574782,9.5546869 0.89905534,9.6284514 0.74403734,9.7053749 0.59207648,9.7851557 0.44011533,9.8649363 0.2913479,9.9473052 0.1462059,10.031807 0.09636047,10.060828 0.04901361,10.091618 7.5268263e-7,10.121093 v 1.589286 C 0.1074119,11.670615 0.22128476,11.631405 0.34263447,11.594307 c 0.12701943,-0.03883 0.26154172,-0.07565 0.40290201,-0.108816 0.14136029,-0.03317 0.28944542,-0.06291 0.44419632,-0.08761 0.1547508,-0.02471 0.3160688,-0.0446 0.4832588,-0.05804 0.16719,-0.01344 0.3402958,-0.02016 0.5189735,-0.01953 0.1786774,6.28e-4 0.3632403,0.0087 0.5524551,0.02623 0.1892143,0.0175 0.3832309,0.0443 0.5820315,0.08147 0.1988005,0.03717 0.40194,0.08488 0.6093748,0.144532 0.1037175,0.02982 0.2084769,0.0628 0.3141743,0.09877 0.1056986,0.03597 0.212754,0.07472 0.3203123,0.117188 0.1075597,0.04246 0.2154757,0.08853 0.3247769,0.137834 0.1093023,0.04931 0.2194305,0.10198 0.3303571,0.158482 0.1109257,0.0565 0.2183209,0.116035 0.3214286,0.178014 0.1031089,0.06198 0.201862,0.12665 0.2974331,0.193638 0.095571,0.06699 0.1879126,0.136059 0.2762278,0.20759 0.088315,0.07153 0.1731242,0.145376 0.2544642,0.220982 0.08134,0.0756 0.1591732,0.152929 0.2338169,0.232142 0.074645,0.07921 0.1460543,0.159835 0.2142857,0.242188 0.068231,0.08235 0.1332149,0.166648 0.1953126,0.251674 0.062097,0.08503 0.1212114,0.171138 0.1774543,0.258371 0.056246,0.08723 0.1094828,0.175538 0.1601571,0.264509 0.050671,0.08897 0.098591,0.17873 0.1439743,0.268973 0.090766,0.180486 0.17146,0.362991 0.2427429,0.545759 0.071286,0.182768 0.1328914,0.365562 0.1869428,0.546875 0.05072,0.170147 0.093674,0.338789 0.1311372,0.504464 h 7.9391774 l -3e-6,-1.198102 C 15.548742,14.615906 15.096182,14.374966 14.94029,14.289063 14.664656,14.137175 14.374613,13.969811 14.070313,13.785714 13.76601,13.601618 13.44741,13.400735 13.113839,13.181362 12.780268,12.961989 12.432085,12.724234 12.068639,12.466518 11.705196,12.208802 11.326396,11.930823 10.932479,11.631697 10.538562,11.33257 10.12979,11.01213 9.7047989,10.668527 9.4923018,10.496725 9.2800332,10.337776 9.0686389,10.191406 8.8572475,10.045036 8.646316,9.9112952 8.4363846,9.7890626 8.226456,9.6668303 8.0172646,9.5564212 7.8091532,9.4570314 7.6010446,9.357642 7.3939931,9.2692472 7.1880589,9.1914063 6.9821274,9.1135654 6.7776189,9.0458686 6.5742191,8.9882814 6.3708191,8.9306949 6.1687026,8.8829349 5.9681926,8.844308 5.7676828,8.8056814 5.5683554,8.7765417 5.3710943,8.7555806 5.173832,8.7346206 4.9788143,8.721666 4.7851568,8.717076 4.6883283,8.7147903 4.591958,8.7149331 4.4960942,8.7165046 Z" />
  <path
     id="path148"
     style="fill:#3b82f6;fill-opacity:1;fill-rule:evenodd;stroke-width:0.0237263px;paint-order:stroke fill markers;stop-color:#000000"
     d="m 5.7126426,4.0639616 c -0.2134538,0.00189 -0.4227061,0.00969 -0.6276858,0.022949 -0.20498,0.01326 -0.4057671,0.031935 -0.6022946,0.055664 -0.1965274,0.023729 -0.3888071,0.052656 -0.5769031,0.085937 -0.1880963,0.033281 -0.3718274,0.07112 -0.5515134,0.1130371 -0.1796852,0.041917 -0.3553149,0.087816 -0.5266109,0.1374509 -0.171296,0.049635 -0.3382926,0.1029862 -0.5012203,0.1594237 -0.162928,0.056437 -0.3217371,0.1159 -0.476318,0.1782225 C 1.6955156,4.8789691 1.5451799,4.9441779 1.3989251,5.0114699 1.2526702,5.078762 1.1106059,5.1481331 0.97265591,5.2194777 0.83470562,5.290822 0.70071105,5.3639914 0.57104476,5.4384717 0.44137819,5.5129517 0.31598419,5.5888228 0.19458018,5.6655222 0.1274419,5.7079385 0.06461704,5.7510631 4.6696834e-7,5.7939402 V 10.121329 C 0.04901332,10.091854 0.09590647,10.061238 0.14575218,10.032218 0.2908939,9.9477157 0.43959162,9.8654166 0.59155276,9.785636 0.74351362,9.7058552 0.89870534,9.628688 1.0571285,9.5549234 1.2155513,9.4811589 1.3772193,9.4106846 1.5417471,9.3442303 1.7062748,9.2777757 1.8736685,9.2153126 2.0439439,9.1574629 2.2142194,9.0996132 2.3873208,9.0464777 2.5629865,8.9985274 2.7386525,8.9505769 2.9169548,8.9078429 3.0976542,8.871086 3.2783537,8.834329 3.4615957,8.803558 3.6469705,8.779289 3.8323465,8.755021 4.0197751,8.737286 4.20947,8.726799 4.3991648,8.716313 4.5910071,8.712931 4.7846645,8.717519 c 0.096829,0.00229 0.194006,0.00661 0.2917472,0.01294 0.097839,0.00631 0.1959648,0.014657 0.2946786,0.025146 0.1972611,0.02096 0.3964134,0.050485 0.5969231,0.089111 0.1002552,0.019314 0.2007563,0.040973 0.3017574,0.064941 7.75e-5,1.86e-5 1.249e-4,-1.86e-5 2.5e-4,0 0.1009249,0.023954 0.2023312,0.05033 0.3039546,0.079101 0.1017,0.028794 0.2035563,0.059973 0.3059086,0.09375 7.51e-5,2.46e-5 1.251e-4,-2.45e-5 2.5e-4,0 0.1022791,0.033756 0.2049677,0.069994 0.307862,0.1088866 0.2059343,0.077841 0.4129829,0.1662354 0.6210914,0.2656249 0.2081086,0.09939 0.4172686,0.2097985 0.6271972,0.3320308 0.2099286,0.1222326 0.4206886,0.2562177 0.63208,0.4025877 0.2113914,0.146369 0.4234886,0.305248 0.6359857,0.47705 0.4249917,0.343603 0.8341087,0.664252 1.2280257,0.963378 0.393917,0.299126 0.77254,0.576756 1.135986,0.834472 0.363443,0.257716 0.711837,0.49547 1.045408,0.714843 0.333572,0.219373 0.65224,0.420395 0.956543,0.604492 0.3043,0.184097 0.59424,0.351286 0.869872,0.503173 0.155891,0.0859 0.608557,0.327192 1.059814,0.513184 V 13.003896 5.7123977 c -0.0043,1.5e-4 -0.0082,5.714e-4 -0.01246,7.428e-4 -0.179109,0.00681 -0.362837,0.00985 -0.551029,0.00903 -0.188185,-8.243e-4 -0.38074,-0.00553 -0.57812,-0.014644 -0.19738,-0.00911 -0.399522,-0.022457 -0.6062,-0.040527 C 14.04551,5.6489277 13.834245,5.6260825 13.618156,5.5983957 13.40207,5.57071 13.181162,5.5379711 12.955562,5.5000068 12.729959,5.4620431 12.499622,5.4187822 12.264399,5.36988 12.029176,5.3209777 11.789139,5.2665634 11.544185,5.206062 11.29923,5.1455605 11.049222,5.0791165 10.794427,5.0063551 10.539636,4.9335934 10.280116,4.8544885 10.015376,4.7688065 9.750636,4.6831239 9.4900218,4.6061591 9.2338846,4.5373611 8.9777446,4.4685634 8.7260703,4.4078182 8.4785132,4.3549882 8.2309532,4.3021588 7.9875332,4.2572688 7.7485332,4.2194905 7.5095332,4.1817117 7.274896,4.1510934 7.0444331,4.1274494 6.813968,4.1038065 6.587672,4.0870939 6.3657234,4.0766682 6.1437748,4.0662425 5.9261011,4.0620968 5.7126477,4.0639739 Z" />
  <path
     id="path42840"
     style="font-variation-settings:normal;vector-effect:none;fill:#000000;fill-opacity:0.2;stroke:none;stroke-width:0.465996;stroke-linecap:butt;stroke-linejoin:miter;stroke-miterlimit:4;stroke-dasharray:none;stroke-dashoffset:0;stroke-opacity:1;-inkscape-stroke:none;stop-color:#000000"
     d="M 3.0584762,4.7519909 6.1258811,6.4646746 H 12.430451 V 7.3868247 H 7.7782063 L 10.845622,9.099508 h 1.584839 v 0.884845 l 1.712684,0.956102 V 6.2978496 h 4.29e-4 V 4.7519909 Z M 2.7688366,5.5458779 2.7684084,11.734342 H 13.853495 l -3.067824,-1.712684 h -0.59311 -4.29e-4 -5.7106234 V 6.5019798 Z" />
  <path
     id="path31"
     style="fill:#ffffff;fill-opacity:1;stroke-width:0.811139"
     d="M 2.5788549,4.3304485 5.6462597,6.0431319 H 11.95083 V 6.9652818 H 7.298585 L 10.366,8.677966 h 1.58484 v 0.8848449 l 1.712684,0.9561021 V 5.8763073 h 4.28e-4 V 4.3304485 Z M 2.2892153,5.1243356 2.2887871,11.3128 H 13.373874 L 10.306049,9.6001153 H 9.7129392 9.712511 4.0018872 V 6.0804377 Z" />
</svg>
