<svg xmlns="http://www.w3.org/2000/svg" xmlns:xlink="http://www.w3.org/1999/xlink" width="24" height="24"><defs><linearGradient id="b" x1="417.096" x2="430.665" y1="551.608" y2="537.184" gradientTransform="matrix(-1 0 0 1 452.144 499.8)" gradientUnits="userSpaceOnUse" spreadMethod="pad"><stop offset="0" stop-color="#2f74c8"/><stop offset="1" stop-color="#4699d7"/></linearGradient><linearGradient xlink:href="#a" id="d" x1="5.91" x2="13.005" y1="1044.371" y2="1051.466" gradientTransform="translate(2.7 -107) scale(1.09987)" gradientUnits="userSpaceOnUse"/><linearGradient id="a" x1="405.57" x2="427.57" y1="509.8" y2="533.8" gradientUnits="userSpaceOnUse"><stop offset="0" stop-opacity=".286"/><stop offset="1" stop-opacity="0"/></linearGradient><linearGradient xlink:href="#b" id="c" x1="19.997" x2="2" y1="1050.362" y2="1032.365" gradientUnits="userSpaceOnUse"/></defs><g transform="translate(1 -1029.362)"><rect width="17.997" height="17.997" x="2" y="1032.365" rx=".997" ry=".997" style="fill:url(#c)"/><path d="M2.998 2.002A.996.996 0 0 0 2 3v1c0-.553.446-.998.998-.998H19c.553 0 .998.445.998.998V3A.996.996 0 0 0 19 2.002H2.998z" style="fill:#fff;color:#000;clip-rule:nonzero;display:inline;overflow:visible;visibility:visible;opacity:.3;isolation:auto;mix-blend-mode:normal;color-interpolation:sRGB;color-interpolation-filters:linearRGB;solid-color:#000;solid-opacity:1;fill-opacity:1;fill-rule:nonzero;stroke-width:1;stroke-linecap:butt;stroke-linejoin:miter;stroke-miterlimit:4;stroke-dasharray:none;stroke-dashoffset:0;stroke-opacity:1;filter-blend-mode:normal;filter-gaussianBlur-deviation:0;color-rendering:auto;image-rendering:auto;shape-rendering:auto;text-rendering:auto;enable-background:accumulate" transform="translate(0 1030.362)"/><path d="M2.998 1050.362a.996.996 0 0 1-.998-.998v-1c0 .553.446.998.998.998H19a.996.996 0 0 0 .998-.998v1a.996.996 0 0 1-.998.998H2.998z" style="color:#000;clip-rule:nonzero;display:inline;overflow:visible;visibility:visible;opacity:.3;isolation:auto;mix-blend-mode:normal;color-interpolation:sRGB;color-interpolation-filters:linearRGB;solid-color:#000;solid-opacity:1;fill:#000;fill-opacity:1;fill-rule:nonzero;stroke-width:1;stroke-linecap:butt;stroke-linejoin:miter;stroke-miterlimit:4;stroke-dasharray:none;stroke-dashoffset:0;stroke-opacity:1;color-rendering:auto;image-rendering:auto;shape-rendering:auto;text-rendering:auto;enable-background:accumulate;filter-blend-mode:normal;filter-gaussianBlur-deviation:0"/><path d="m16 1038.362-9.72.002 1.92 2.2h7.698v2.198H8.2v-1.1l-2.2-2.547v5.25l5 5h8.998v-7.004L16 1038.362z" style="font-variation-settings:normal;opacity:.2;vector-effect:none;fill:url(#d);fill-opacity:1;stroke:none;stroke-width:.4;stroke-linecap:butt;stroke-linejoin:miter;stroke-miterlimit:4;stroke-dasharray:none;stroke-dashoffset:0;stroke-opacity:1;-inkscape-stroke:none;stop-color:#000"/><path fill="#ebeded" d="m6.255 1038.362 2.697 1.472h5.542v.792h-4.09l2.697 1.472h1.393v.76l1.506.822v-5.318zm-.255.682v5.318h9.745l-2.697-1.472H7.506v-3.024z" style="fill:#dee2e2;fill-opacity:1"/></g></svg>