<svg xmlns="http://www.w3.org/2000/svg" xmlns:xlink="http://www.w3.org/1999/xlink" width="22" height="22"><defs><linearGradient xlink:href="#a" id="d" x1="5.91" x2="13.005" y1="1044.371" y2="1051.466" gradientTransform="matrix(1.2 0 0 1.2 1.4 -212.272)" gradientUnits="userSpaceOnUse"/><linearGradient id="a" x1="405.57" x2="427.57" y1="509.8" y2="533.8" gradientUnits="userSpaceOnUse"><stop offset="0" stop-opacity=".286"/><stop offset="1" stop-opacity="0"/></linearGradient><linearGradient id="b" x1="417.096" x2="430.665" y1="551.608" y2="537.184" gradientTransform="matrix(-1 0 0 1 452.144 499.8)" gradientUnits="userSpaceOnUse" spreadMethod="pad"><stop offset="0" stop-color="#2f74c8"/><stop offset="1" stop-color="#4699d7"/></linearGradient><linearGradient xlink:href="#b" id="c" x1="18" x2="2" y1="1049.362" y2="1033.362" gradientUnits="userSpaceOnUse"/></defs><g transform="translate(0 -1030.362)"><rect width="17.997" height="17.997" x="2" y="1032.365" rx=".997" ry=".997" style="fill:url(#c);fill-opacity:1"/><path d="M2.998 2.002A.996.996 0 0 0 2 3v1c0-.553.446-.998.998-.998H19c.553 0 .998.445.998.998V3A.996.996 0 0 0 19 2.002H2.998z" style="fill:#fff;color:#000;clip-rule:nonzero;display:inline;overflow:visible;visibility:visible;opacity:.3;isolation:auto;mix-blend-mode:normal;color-interpolation:sRGB;color-interpolation-filters:linearRGB;solid-color:#000;solid-opacity:1;fill-opacity:1;fill-rule:nonzero;stroke-width:1;stroke-linecap:butt;stroke-linejoin:miter;stroke-miterlimit:4;stroke-dasharray:none;stroke-dashoffset:0;stroke-opacity:1;filter-blend-mode:normal;filter-gaussianBlur-deviation:0;color-rendering:auto;image-rendering:auto;shape-rendering:auto;text-rendering:auto;enable-background:accumulate" transform="translate(0 1030.362)"/><path d="M2.998 1050.362a.996.996 0 0 1-.998-.998v-1c0 .553.446.998.998.998H19a.996.996 0 0 0 .998-.998v1a.996.996 0 0 1-.998.998H2.998z" style="color:#000;clip-rule:nonzero;display:inline;overflow:visible;visibility:visible;opacity:.3;isolation:auto;mix-blend-mode:normal;color-interpolation:sRGB;color-interpolation-filters:linearRGB;solid-color:#000;solid-opacity:1;fill:#000;fill-opacity:1;fill-rule:nonzero;stroke-width:1;stroke-linecap:butt;stroke-linejoin:miter;stroke-miterlimit:4;stroke-dasharray:none;stroke-dashoffset:0;stroke-opacity:1;color-rendering:auto;image-rendering:auto;shape-rendering:auto;text-rendering:auto;enable-background:accumulate;filter-blend-mode:normal;filter-gaussianBlur-deviation:0"/><path d="m5.305 1037.362 2.095 2.4h8.4v2.4H7.4v-1.2l-2.4-2.781v6.381l4.8 4.8h10.8v-8.4l-3.6-3.6z" style="font-variation-settings:normal;opacity:.2;vector-effect:none;fill:url(#d);fill-opacity:1;stroke:none;stroke-width:.4;stroke-linecap:butt;stroke-linejoin:miter;stroke-miterlimit:4;stroke-dasharray:none;stroke-dashoffset:0;stroke-opacity:1;-inkscape-stroke:none;stop-color:#000"/><path fill="#ebeded" d="m5.306 1037.362 3.236 1.963h6.65v1.057h-4.907l3.236 1.963h1.672v1.013l1.807 1.097v-7.093zm-.306.91v7.092h11.694l-3.236-1.963h-6.65v-4.033z" style="stroke-width:1;fill:#dee2e2;fill-opacity:1"/></g></svg>