<svg xmlns="http://www.w3.org/2000/svg" xmlns:xlink="http://www.w3.org/1999/xlink" width="16" height="16"><defs><linearGradient id="b" x1="417.096" x2="430.665" y1="551.608" y2="537.184" gradientTransform="matrix(-1 0 0 1 452.144 499.8)" gradientUnits="userSpaceOnUse" spreadMethod="pad"><stop offset="0" stop-color="#2f74c8"/><stop offset="1" stop-color="#4699d7"/></linearGradient><linearGradient xlink:href="#a" id="d" x1="5.91" x2="13.005" y1="1044.371" y2="1051.466" gradientUnits="userSpaceOnUse"/><linearGradient id="a" x1="405.57" x2="427.57" y1="509.8" y2="533.8" gradientUnits="userSpaceOnUse"><stop offset="0" stop-opacity=".286"/><stop offset="1" stop-opacity="0"/></linearGradient><linearGradient xlink:href="#b" id="c" x1="13" x2="1" y1="1051.362" y2="1039.362" gradientUnits="userSpaceOnUse"/></defs><g transform="translate(0 -1036.362)"><rect width="16" height="16" y="1036.362" rx="1" ry="1" style="font-variation-settings:normal;opacity:1;vector-effect:none;fill:url(#c);fill-opacity:1;stroke-width:.4;stroke-linecap:butt;stroke-linejoin:miter;stroke-miterlimit:4;stroke-dasharray:none;stroke-dashoffset:0;stroke-opacity:1;-inkscape-stroke:none;stop-color:#000;stop-opacity:1"/><path d="m3.254 1041.362 1.746 2h7v2H5v-1l-2-2.318v5.318l4 4h9v-7l-3-3H3.254z" style="fill:url(#d);stroke:none;stroke-width:.4;stroke-linecap:butt;stroke-linejoin:miter;stroke-opacity:1;font-variation-settings:normal;opacity:.2;vector-effect:none;fill-opacity:1;stroke-miterlimit:4;stroke-dasharray:none;stroke-dashoffset:0;-inkscape-stroke:none;stop-color:#000;stop-opacity:1"/><path d="M1 0C.446 0 0 .446 0 1v1c0-.554.446-1 1-1h14c.554 0 1 .446 1 1V1c0-.554-.446-1-1-1H1z" style="fill:#fff;color:#000;clip-rule:nonzero;display:inline;overflow:visible;visibility:visible;opacity:.3;isolation:auto;mix-blend-mode:normal;color-interpolation:sRGB;color-interpolation-filters:linearRGB;solid-color:#000;solid-opacity:1;fill-opacity:1;fill-rule:nonzero;stroke-width:1;stroke-linecap:butt;stroke-linejoin:miter;stroke-miterlimit:4;stroke-dasharray:none;stroke-dashoffset:0;stroke-opacity:1;filter-blend-mode:normal;filter-gaussianBlur-deviation:0;color-rendering:auto;image-rendering:auto;shape-rendering:auto;text-rendering:auto;enable-background:accumulate" transform="translate(0 1036.362)"/><path d="M1 1052.362c-.554 0-1-.446-1-1v-1c0 .554.446 1 1 1h14c.554 0 1-.446 1-1v1c0 .554-.446 1-1 1H1z" style="color:#000;clip-rule:nonzero;display:inline;overflow:visible;visibility:visible;opacity:.3;isolation:auto;mix-blend-mode:normal;color-interpolation:sRGB;color-interpolation-filters:linearRGB;solid-color:#000;solid-opacity:1;fill:#000;fill-opacity:1;fill-rule:nonzero;stroke-width:1;stroke-linecap:butt;stroke-linejoin:miter;stroke-miterlimit:4;stroke-dasharray:none;stroke-dashoffset:0;stroke-opacity:1;color-rendering:auto;image-rendering:auto;shape-rendering:auto;text-rendering:auto;enable-background:accumulate;filter-blend-mode:normal;filter-gaussianBlur-deviation:0"/><path fill="#ebeded" d="m3.255 1041.362 2.697 1.472h5.542v.792h-4.09l2.697 1.472h1.393v.76l1.506.822v-5.318zm-.255.682v5.318h9.745l-2.697-1.472H4.506v-3.024z" style="fill:#dee2e2;fill-opacity:1"/></g></svg>