<?xml version="1.0" encoding="UTF-8"?>
<svg width="16" height="16" version="1.1" xmlns="http://www.w3.org/2000/svg">
 <path d="m8.0418-6e-8v7.8e-4a1.7755 1.8192 0 0 0-0.92969 0.24219l-5.2242 3.0906a1.7755 1.8192 0 0 0-0.88791 1.5758v6.1812a1.7755 1.8192 0 0 0 0.88791 1.575l5.2242 3.0906a1.7755 1.8192 0 0 0 1.7758 0l5.2242-3.0906a1.7755 1.8192 0 0 0 0.88791-1.575v-6.1812a1.7755 1.8192 0 0 0-0.88791-1.5758l-5.2242-3.0906a1.7755 1.8192 0 0 0-0.84614-0.24297z" fill="#f374b4"/>
 <path d="m14 11.46-2-1.1533-3.9961-2.3047-4.0039 2.3047-2 1.1533 6 3.4667z" fill="#d84790"/>
 <path d="m2.0046 11.469 1.9988-1.1554 4.0005-2.3121-5.046e-4 -4.6161 0.0012-2.3087-6.0022 3.4628z" fill="#a92868"/>
 <path d="m13.999 11.47-1.9988-1.1554-3.9961-2.3129-0.00391-4.6153-0.0012-2.3087 6.0022 3.4628z" fill="#c52f7a"/>
 <path d="m8.0039 3.3848-4.0039 2.3086 4.0039 2.3086 4-2.3066-4-2.3105z" fill="#e87fb4" stop-color="#000000" style="-inkscape-stroke:none;font-variation-settings:normal"/>
 <path d="m12 5.6976-3.9961 2.3044-0.00382 4.618 3.9999-2.3133z" fill="#e0599c" stop-color="#000000" style="-inkscape-stroke:none;font-variation-settings:normal"/>
 <path d="m4.0078 5.6976 3.9961 2.3044 0.00382 4.618-3.9999-2.3133z" fill="#ba2d73" stop-color="#000000" style="-inkscape-stroke:none;font-variation-settings:normal"/>
</svg>
