<?xml version="1.0" encoding="UTF-8"?>
<svg width="22" height="22" version="1.1" xmlns="http://www.w3.org/2000/svg">
 <g stroke-width="1.375">
  <path d="m11.057-3.5527e-7v0.0010725a2.4413 2.5014 0 0 0-1.2783 0.33301l-7.1833 4.2496a2.4413 2.5014 0 0 0-1.2209 2.1667v8.4992a2.4413 2.5014 0 0 0 1.2209 2.1656l7.1833 4.2496a2.4413 2.5014 0 0 0 2.4417 0l7.1833-4.2496a2.4413 2.5014 0 0 0 1.2209-2.1656v-8.4992a2.4413 2.5014 0 0 0-1.2209-2.1667l-7.1833-4.2496a2.4413 2.5014 0 0 0-1.1634-0.33408z" fill="#f374b4"/>
  <path d="m19.25 15.758-2.75-1.5858-5.4946-3.169-5.5054 3.169-2.75 1.5858 8.25 4.7667z" fill="#d84790"/>
  <path d="m2.7563 15.77 2.7484-1.5887 5.5007-3.1791-6.94e-4 -6.3471 0.0016-3.1745-8.253 4.7614z" fill="#a92868"/>
  <path d="m19.249 15.771-2.7484-1.5887-5.4946-3.1802-0.0054-6.346-0.0017-3.1745 8.253 4.7614z" fill="#c52f7a"/>
  <path d="m11.005 4.6541-5.5054 3.1743 5.5054 3.1743 5.5-3.1716-5.5-3.1769z" fill="#e87fb4" stop-color="#000000" style="-inkscape-stroke:none;font-variation-settings:normal"/>
  <path d="m16.5 7.8342-5.4946 3.1686-0.0053 6.3498 5.4999-3.1808z" fill="#e0599c" stop-color="#000000" style="-inkscape-stroke:none;font-variation-settings:normal"/>
  <path d="m5.5107 7.8342 5.4946 3.1686 0.0053 6.3498-5.4999-3.1808z" fill="#ba2d73" stop-color="#000000" style="-inkscape-stroke:none;font-variation-settings:normal"/>
 </g>
</svg>
