<?xml version="1.0" encoding="UTF-8"?>
<svg width="24" height="24" version="1.1" xmlns="http://www.w3.org/2000/svg">
 <g stroke-width="1.5">
  <path d="m12.063-2.4212e-7v0.00117a2.6633 2.7288 0 0 0-1.3945 0.36329l-7.8363 4.6359a2.6633 2.7288 0 0 0-1.3319 2.3637v9.2718a2.6633 2.7288 0 0 0 1.3319 2.3625l7.8363 4.6359a2.6633 2.7288 0 0 0 2.6637 0l7.8363-4.6359a2.6633 2.7288 0 0 0 1.3319-2.3625v-9.2718a2.6633 2.7288 0 0 0-1.3319-2.3637l-7.8363-4.6359a2.6633 2.7288 0 0 0-1.2692-0.36446z" fill="#f374b4"/>
  <path d="m21 17.19-3-1.73-5.9942-3.4571-6.0059 3.4571-3 1.73 9 5.2001z" fill="#d84790"/>
  <path d="m3.0069 17.204 2.9982-1.7331 6.0008-3.4682-7.57e-4 -6.9242 0.0018-3.4631-9.0033 5.1942z" fill="#a92868"/>
  <path d="m20.998 17.205-2.9982-1.7331-5.9942-3.4694-0.0059-6.923-0.0018-3.4631 9.0033 5.1942z" fill="#c52f7a"/>
  <path d="m12.006 5.0772-6.0059 3.4629 6.0059 3.4629 6-3.4599-6-3.4658z" fill="#e87fb4" stop-color="#000000" style="-inkscape-stroke:none;font-variation-settings:normal"/>
  <path d="m18 8.5464-5.9942 3.4566-0.0057 6.927 5.9999-3.47z" fill="#e0599c" stop-color="#000000" style="-inkscape-stroke:none;font-variation-settings:normal"/>
  <path d="m6.0117 8.5464 5.9942 3.4566 0.0057 6.927-5.9999-3.47z" fill="#ba2d73" stop-color="#000000" style="-inkscape-stroke:none;font-variation-settings:normal"/>
 </g>
</svg>
