<?xml version="1.0" encoding="UTF-8"?>
<svg width="24" height="24" version="1.1" xmlns="http://www.w3.org/2000/svg">
 <path d="m11.938-3.5527e-7v0.00117a2.6632 2.7288 0 0 0-1.3945 0.36328l-7.8363 4.6359a2.6632 2.7288 0 0 0-1.3319 2.3637v9.2718a2.6632 2.7288 0 0 0 1.3319 2.3625l7.8363 4.6359a2.6632 2.7288 0 0 0 2.6637 0l7.8363-4.6359a2.6632 2.7288 0 0 0 1.3319-2.3625v-9.2718a2.6632 2.7288 0 0 0-1.3319-2.3637l-7.8363-4.6359a2.6632 2.7288 0 0 0-1.2692-0.36445z" fill="#f374b4" stroke-width="1.5"/>
 <polygon transform="matrix(.2 0 0 .2 2.875 1.6099)" points="60 43.3 60 26 30 8.7 0 26 0 60.6 30 77.9 60 60.6 45 69.3 30 60.6 30 43.3 45 34.6" fill="#009741" opacity=".6"/>
 <polygon transform="matrix(.2 0 0 .2 2.875 1.6099)" points="0 77.9 30 95.3 60 77.9 60 60.6 45 69.3 30 60.6 30 43.3 45 34.6 30 26 0 43.3" fill="#dedc0a" opacity=".6"/>
 <polygon transform="matrix(.2 0 0 .2 2.875 1.6099)" points="45 103.9 75 86.6 75 52 45 34.6 60 43.3 60 60.6 45 69.3 30 60.6 30 43.3 45 34.6 15 52 15 86.6" fill="#f39208" opacity=".6"/>
 <polygon transform="matrix(.2 0 0 .2 2.875 1.6099)" points="30 60.6 30 77.9 60 95.3 90 77.9 90 43.3 60 26 45 34.6 60 43.3 60 60.6 45 69.3" fill="#e72174" opacity=".6"/>
 <polygon transform="matrix(.2 0 0 .2 2.875 1.6099)" points="30 26 30 43.3 45 34.6 60 43.3 60 60.6 45 69.3 30 60.6 60 77.9 90 60.6 90 26 60 8.7" fill="#253887" opacity=".6"/>
 <polygon transform="matrix(.2 0 0 .2 2.875 1.6099)" points="45 34.6 60 43.3 60 60.6 75 52 75 17.3 45 0 15 17.3 15 52 30 60.6 30 43.3" fill="#3ba9e0" opacity=".6"/>
 <g stroke-width="1.5">
  <path d="m20.875 17.19-3-1.73-5.9942-3.457-6.0058 3.457-3 1.73 9 5.2z" fill="#d84790"/>
  <path d="m2.8819 17.204 2.9982-1.7331 6.0008-3.4682-7.57e-4 -6.9242 0.0018-3.463-9.0033 5.1942z" fill="#a92868"/>
  <path d="m20.873 17.205-2.9982-1.7331-5.9942-3.4694-0.0059-6.923-0.0018-3.463 9.0033 5.1942z" fill="#c52f7a"/>
  <path d="m11.881 5.0772-6.0058 3.4629 6.0058 3.4629 6-3.4599-6-3.4658z" fill="#e87fb4" stop-color="#000000" style="-inkscape-stroke:none;font-variation-settings:normal"/>
  <path d="m17.875 8.5464-5.9942 3.4566-0.0057 6.927 5.9998-3.47z" fill="#e0599c" stop-color="#000000" style="-inkscape-stroke:none;font-variation-settings:normal"/>
  <path d="m5.8867 8.5464 5.9942 3.4566 0.00573 6.927-5.9998-3.47z" fill="#ba2d73" stop-color="#000000" style="-inkscape-stroke:none;font-variation-settings:normal"/>
 </g>
</svg>
