<?xml version="1.0" encoding="UTF-8"?>
<svg width="32" height="32" version="1.1" xmlns="http://www.w3.org/2000/svg">
 <g stroke-width="2">
  <path d="m16.084 2.1051e-7v0.00156a3.551 3.6384 0 0 0-1.8594 0.48438l-10.448 6.1812a3.551 3.6384 0 0 0-1.7758 3.1516v12.362a3.551 3.6384 0 0 0 1.7758 3.15l10.448 6.1812a3.551 3.6384 0 0 0 3.5516 0l10.448-6.1812a3.551 3.6384 0 0 0 1.7758-3.15v-12.362a3.551 3.6384 0 0 0-1.7758-3.1516l-10.448-6.1812a3.551 3.6384 0 0 0-1.6923-0.48594z" fill="#f374b4"/>
  <path d="m28 22.92-4-2.3066-7.9922-4.6094-8.0078 4.6094-4 2.3066 12 6.9334z" fill="#d84790"/>
  <path d="m4.0092 22.938 3.9976-2.3108 8.001-4.6242-1e-3 -9.2322 0.0024-4.6174-12.004 6.9256z" fill="#a92868"/>
  <path d="m27.998 22.94-3.9976-2.3108-7.9922-4.6258-0.00782-9.2306-0.0024-4.6174 12.004 6.9256z" fill="#c52f7a"/>
  <path d="m16.008 6.7696-8.0078 4.6172 8.0078 4.6172 8-4.6132-8-4.621z" fill="#e87fb4" stop-color="#000000" style="-inkscape-stroke:none;font-variation-settings:normal"/>
  <path d="m24 11.395-7.9922 4.6088-0.0076 9.236 7.9998-4.6266z" fill="#e0599c" stop-color="#000000" style="-inkscape-stroke:none;font-variation-settings:normal"/>
  <path d="m8.0156 11.395 7.9922 4.6088 0.0076 9.236-7.9998-4.6266z" fill="#ba2d73" stop-color="#000000" style="-inkscape-stroke:none;font-variation-settings:normal"/>
 </g>
</svg>
