<?xml version="1.0" encoding="UTF-8"?>
<svg width="48" height="48" version="1.1" xmlns="http://www.w3.org/2000/svg">
 <g stroke-width="3">
  <path d="m24.125 3.1577e-7v0.00234a5.3265 5.4576 0 0 0-2.7891 0.72657l-15.673 9.2718a5.3265 5.4576 0 0 0-2.6637 4.7274v18.544a5.3265 5.4576 0 0 0 2.6637 4.725l15.673 9.2718a5.3265 5.4576 0 0 0 5.3274 0l15.673-9.2718a5.3265 5.4576 0 0 0 2.6637-4.725v-18.544a5.3265 5.4576 0 0 0-2.6637-4.7274l-15.673-9.2718a5.3265 5.4576 0 0 0-2.5384-0.72891z" fill="#f374b4"/>
  <path d="m42 34.38-6-3.4599-11.988-6.9141-12.012 6.9141-6 3.4599 18 10.4z" fill="#d84790"/>
  <path d="m6.0138 34.407 5.9964-3.4662 12.002-6.9363-0.001514-13.848 0.0036-6.9261-18.007 10.388z" fill="#a92868"/>
  <path d="m41.997 34.41-5.9964-3.4662-11.988-6.9387-0.01173-13.846-0.0036-6.9261 18.007 10.388z" fill="#c52f7a"/>
  <path d="m24.012 10.154-12.012 6.9258 12.012 6.9258 12-6.9198-12-6.9315z" fill="#e87fb4" stop-color="#000000" style="-inkscape-stroke:none;font-variation-settings:normal"/>
  <path d="m36 17.093-11.988 6.9132-0.01146 13.854 12-6.9399z" fill="#e0599c" stop-color="#000000" style="-inkscape-stroke:none;font-variation-settings:normal"/>
  <path d="m12.023 17.093 11.988 6.9132 0.01146 13.854-12-6.9399z" fill="#ba2d73" stop-color="#000000" style="-inkscape-stroke:none;font-variation-settings:normal"/>
 </g>
</svg>
