<?xml version="1.0" encoding="UTF-8"?>
<svg width="48" height="48" version="1.1" xmlns="http://www.w3.org/2000/svg">
 <path d="m24.125 2.1051e-7v0.00234a5.3266 5.4577 0 0 0-2.7891 0.72658l-15.672 9.2719a5.3266 5.4577 0 0 0-2.6637 4.7275v18.543a5.3266 5.4577 0 0 0 2.6637 4.7251l15.672 9.2719a5.3266 5.4577 0 0 0 5.3275 0l15.672-9.2719a5.3266 5.4577 0 0 0 2.6637-4.7251v-18.543a5.3266 5.4577 0 0 0-2.6637-4.7275l-15.672-9.2719a5.3266 5.4577 0 0 0-2.5385-0.72892z" fill="#f374b4" stroke-width="3"/>
 <polygon transform="matrix(.4 0 0 .4 5.9992 3.2199)" points="0 60.6 30 77.9 60 60.6 45 69.3 30 60.6 30 43.3 45 34.6 60 43.3 60 26 30 8.7 0 26" fill="#009741" opacity=".6"/>
 <polygon transform="matrix(.4 0 0 .4 5.9992 3.2199)" points="45 69.3 30 60.6 30 43.3 45 34.6 30 26 0 43.3 0 77.9 30 95.3 60 77.9 60 60.6" fill="#dedc0a" opacity=".6"/>
 <polygon transform="matrix(.4 0 0 .4 5.9992 3.2199)" points="60 43.3 60 60.6 45 69.3 30 60.6 30 43.3 45 34.6 15 52 15 86.6 45 103.9 75 86.6 75 52 45 34.6" fill="#f39208" opacity=".6"/>
 <polygon transform="matrix(.4 0 0 .4 5.9992 3.2199)" points="90 43.3 60 26 45 34.6 60 43.3 60 60.6 45 69.3 30 60.6 30 77.9 60 95.3 90 77.9" fill="#e72174" opacity=".6"/>
 <polygon transform="matrix(.4 0 0 .4 5.9992 3.2199)" points="60 60.6 45 69.3 30 60.6 60 77.9 90 60.6 90 26 60 8.7 30 26 30 43.3 45 34.6 60 43.3" fill="#253887" opacity=".6"/>
 <polygon transform="matrix(.4 0 0 .4 5.9992 3.2199)" points="75 17.3 45 0 15 17.3 15 52 30 60.6 30 43.3 45 34.6 60 43.3 60 60.6 75 52" fill="#3ba9e0" opacity=".6"/>
 <g transform="matrix(3 0 0 3 -.0009739 3.1358e-7)">
  <path d="M 14,11.46 12,10.3067 8.0039,8.002 4,10.3067 2,11.46 8,14.9267 Z" fill="#d84790"/>
  <path d="m2.0046 11.469 1.9988-1.1554 4.0005-2.3121-5.046e-4 -4.6161 0.0012-2.3087-6.0022 3.4628z" fill="#a92868"/>
  <path d="m13.999 11.47-1.9988-1.1554-3.9961-2.3129-0.00391-4.6153-0.0012-2.3087 6.0022 3.4628z" fill="#c52f7a"/>
  <path d="m8.0039 3.3848-4.0039 2.3086 4.0039 2.3086 4-2.3066-4-2.3105z" fill="#e87fb4" stop-color="#000000" style="-inkscape-stroke:none;font-variation-settings:normal"/>
  <path d="m12 5.6976-3.9961 2.3044-0.00382 4.618 3.9999-2.3133z" fill="#e0599c" stop-color="#000000" style="-inkscape-stroke:none;font-variation-settings:normal"/>
  <path d="m4.0078 5.6976 3.9961 2.3044 0.00382 4.618-3.9999-2.3133z" fill="#ba2d73" stop-color="#000000" style="-inkscape-stroke:none;font-variation-settings:normal"/>
 </g>
</svg>
