<?xml version="1.0" encoding="UTF-8"?>
<svg width="64" height="64" version="1.1" xmlns="http://www.w3.org/2000/svg">
 <g stroke-width="4">
  <path d="m32.167-3.7898e-7v0.00312a7.102 7.2768 0 0 0-3.7188 0.96876l-20.897 12.362a7.102 7.2768 0 0 0-3.5516 6.3032v24.725a7.102 7.2768 0 0 0 3.5516 6.3l20.897 12.362a7.102 7.2768 0 0 0 7.1032 0l20.897-12.362a7.102 7.2768 0 0 0 3.5516-6.3v-24.725a7.102 7.2768 0 0 0-3.5516-6.3032l-20.897-12.362a7.102 7.2768 0 0 0-3.3846-0.97188z" fill="#f374b4"/>
  <path d="m56 45.84-8-4.6132-15.984-9.2188-16.016 9.2188-8 4.6132 24 13.867z" fill="#d84790"/>
  <path d="m8.0183 45.876 7.9952-4.6216 16.002-9.2484-2e-3 -18.464 0.0048-9.2348-24.009 13.851z" fill="#a92868"/>
  <path d="m55.996 45.88-7.9952-4.6216-15.984-9.2516-0.01564-18.461-0.0048-9.2348 24.009 13.851z" fill="#c52f7a"/>
  <path d="m32.016 13.539-16.016 9.2344 16.016 9.2344 16-9.2264-16-9.242z" fill="#e87fb4" stop-color="#000000" style="-inkscape-stroke:none;font-variation-settings:normal"/>
  <path d="m48 22.79-15.984 9.2176-0.01528 18.472 16-9.2532z" fill="#e0599c" stop-color="#000000" style="-inkscape-stroke:none;font-variation-settings:normal"/>
  <path d="m16.031 22.79 15.984 9.2176 0.01528 18.472-16-9.2532z" fill="#ba2d73" stop-color="#000000" style="-inkscape-stroke:none;font-variation-settings:normal"/>
 </g>
</svg>
