<?xml version="1.0" encoding="UTF-8"?>
<!-- Created with Inkscape (http://www.inkscape.org/) -->
<svg width="1080" height="1024" version="1.1" viewBox="0 0 285.75 270.93" xmlns="http://www.w3.org/2000/svg" xmlns:xlink="http://www.w3.org/1999/xlink">
 <defs>
  <linearGradient id="linearGradient16905">
   <stop stop-color="#1b668f" offset="0"/>
   <stop stop-color="#121c94" offset=".5"/>
   <stop stop-color="#382279" offset="1"/>
  </linearGradient>
  <linearGradient id="linearGradient78639">
   <stop stop-color="#2936ea" offset="0"/>
   <stop stop-color="#164593" offset="1"/>
  </linearGradient>
  <linearGradient id="linearGradient75480" x1="-21.655" x2="1378.4" y1="110.14" y2="110.14" gradientTransform="matrix(.26228 0 0 .26228 -36.26 49.852)" gradientUnits="userSpaceOnUse" xlink:href="#linearGradient16905"/>
  <linearGradient id="linearGradient3595" x1="-21.656" x2="383.08" y1="81.035" y2="81.035" gradientTransform="matrix(.99128 0 0 .99128 -36.26 38.973)" gradientUnits="userSpaceOnUse">
   <stop stop-color="#51d677" stop-opacity=".47843" offset="0"/>
   <stop stop-color="#eded84" stop-opacity=".32941" offset=".26488"/>
   <stop stop-color="#a9ebf6" stop-opacity=".19951" offset=".49538"/>
   <stop stop-color="#e9bf9d" stop-opacity=".35686" offset=".74191"/>
   <stop stop-color="#5138aa" stop-opacity=".52157" offset="1"/>
  </linearGradient>
  <linearGradient id="linearGradient21995" x1="-21.655" x2="383.08" y1="92.147" y2="92.147" gradientTransform="translate(0 -155.84)" gradientUnits="userSpaceOnUse">
   <stop stop-color="#445feb" offset="0"/>
   <stop stop-color="#252fb5" offset=".5"/>
   <stop stop-color="#9b53c1" offset="1"/>
  </linearGradient>
  <linearGradient id="linearGradient21997" x1="-21.655" x2="383.08" y1="99.556" y2="99.556" gradientTransform="translate(0 -189.92)" gradientUnits="userSpaceOnUse">
   <stop stop-color="#3410ab" stop-opacity=".67526" offset="0"/>
   <stop stop-color="#169bd6" offset=".5"/>
   <stop stop-color="#0940a2" stop-opacity=".56984" offset="1"/>
  </linearGradient>
  <linearGradient id="linearGradient21999" x1="-24.528" x2="386.16" y1="-24.045" y2="-24.045" gradientTransform="translate(0 -138.44)" gradientUnits="userSpaceOnUse">
   <stop stop-color="#6a5e19" offset="0"/>
   <stop stop-color="#85751e" stop-opacity=".98824" offset=".14669"/>
   <stop stop-color="#8c7b20" stop-opacity=".96863" offset=".30531"/>
   <stop stop-color="#bda62c" stop-opacity=".95686" offset=".51079"/>
   <stop stop-color="#82721e" stop-opacity=".94902" offset=".6231"/>
   <stop stop-color="#968623" stop-opacity=".99608" offset=".83541"/>
   <stop stop-color="#4e4412" stop-opacity=".92157" offset="1"/>
  </linearGradient>
  <linearGradient id="linearGradient22001" x1="-21.655" x2="1378.4" y1="110.14" y2="110.14" gradientTransform="matrix(.26458 0 0 .26458 0 -4.9003)" gradientUnits="userSpaceOnUse" xlink:href="#linearGradient16905"/>
  <linearGradient id="linearGradient22003" x1="181.04" x2="361.42" y1="110.14" y2="110.14" gradientTransform="translate(0 -18.521)" gradientUnits="userSpaceOnUse" xlink:href="#linearGradient78639"/>
  <linearGradient id="linearGradient22005" x1="-21.655" x2="183.99" y1="110.14" y2="110.14" gradientTransform="translate(0 -18.521)" gradientUnits="userSpaceOnUse">
   <stop stop-color="#2f38a6" offset="0"/>
   <stop stop-color="#3d33eb" offset="1"/>
  </linearGradient>
  <linearGradient id="linearGradient22007" x1="-82.44" x2="1448.4" y1="345.52" y2="345.52" gradientTransform="scale(.26458)" gradientUnits="userSpaceOnUse" xlink:href="#linearGradient1294"/>
  <linearGradient id="linearGradient1294">
   <stop stop-color="#6a5e19" offset="0"/>
   <stop stop-color="#d1b832" stop-opacity=".98824" offset=".14669"/>
   <stop stop-color="#8c7b20" stop-opacity=".96863" offset=".30531"/>
   <stop stop-color="#dbc865" stop-opacity=".95686" offset=".51079"/>
   <stop stop-color="#82721e" stop-opacity=".94902" offset=".6231"/>
   <stop stop-color="#968623" stop-opacity=".99608" offset=".83541"/>
   <stop stop-color="#cfb530" stop-opacity=".92157" offset="1"/>
  </linearGradient>
  <linearGradient id="linearGradient22009" x1="-21.655" x2="383.08" y1="92.147" y2="92.147" gradientTransform="translate(0 -18.521)" gradientUnits="userSpaceOnUse">
   <stop stop-color="#445feb" offset="0"/>
   <stop stop-color="#4a55ed" offset=".5"/>
   <stop stop-color="#9b53c1" offset="1"/>
  </linearGradient>
  <linearGradient id="linearGradient22011" x1="-24.528" x2="386.16" y1="-24.045" y2="-24.045" gradientTransform="translate(0 -2.3527)" gradientUnits="userSpaceOnUse" xlink:href="#linearGradient1056"/>
  <linearGradient id="linearGradient1056">
   <stop stop-color="#6a5e19" offset="0"/>
   <stop stop-color="#85751e" stop-opacity=".98824" offset=".14669"/>
   <stop stop-color="#a38f26" stop-opacity=".96863" offset=".30531"/>
   <stop stop-color="#f5d737" stop-opacity=".95686" offset=".51079"/>
   <stop stop-color="#968623" stop-opacity=".99608" offset=".83541"/>
   <stop stop-color="#4e4412" stop-opacity=".92157" offset="1"/>
  </linearGradient>
  <linearGradient id="linearGradient22013" x1="-21.655" x2="383.08" y1="99.556" y2="99.556" gradientTransform="translate(0 -59.037)" gradientUnits="userSpaceOnUse">
   <stop stop-color="#3410ab" stop-opacity=".67526" offset="0"/>
   <stop stop-color="#2936e9" offset=".5"/>
   <stop stop-color="#0940a2" stop-opacity=".56984" offset="1"/>
  </linearGradient>
  <linearGradient id="linearGradient22015" x1="-24.528" x2="386.16" y1="-24.045" y2="-24.045" gradientTransform="translate(0 -44.553)" gradientUnits="userSpaceOnUse" xlink:href="#linearGradient17531"/>
  <linearGradient id="linearGradient17531">
   <stop stop-color="#6a5e19" offset="0"/>
   <stop stop-color="#85751e" stop-opacity=".98824" offset=".14669"/>
   <stop stop-color="#8c7b20" stop-opacity=".96863" offset=".30531"/>
   <stop stop-color="#d1b637" stop-opacity=".95686" offset=".51079"/>
   <stop stop-color="#82721e" stop-opacity=".94902" offset=".6231"/>
   <stop stop-color="#968623" stop-opacity=".99608" offset=".83541"/>
   <stop stop-color="#4e4412" stop-opacity=".92157" offset="1"/>
  </linearGradient>
  <linearGradient id="linearGradient22017" x1="253.56" x2="239.42" y1="147.01" y2="130.45" gradientTransform="translate(0 -18.521)" gradientUnits="userSpaceOnUse">
   <stop stop-color="#28ead8" stop-opacity=".58819" offset="0"/>
   <stop stop-color="#164593" stop-opacity=".023098" offset="1"/>
  </linearGradient>
  <linearGradient id="linearGradient22019" x1="251.13" x2="241.25" y1="138.13" y2="126.04" gradientTransform="matrix(-1 0 0 1 361.42 -18.521)" gradientUnits="userSpaceOnUse">
   <stop stop-color="#dc29ea" stop-opacity=".68736" offset="0"/>
   <stop stop-color="#164593" stop-opacity=".023098" offset="1"/>
  </linearGradient>
  <linearGradient id="linearGradient24593" x1="181.04" x2="361.42" y1="110.14" y2="110.14" gradientTransform="matrix(.99128 0 0 .99128 -36.26 36.35)" gradientUnits="userSpaceOnUse" xlink:href="#linearGradient78639"/>
  <linearGradient id="linearGradient78325" x1="-21.655" x2="183.99" y1="110.14" y2="110.14" gradientTransform="matrix(.99128 0 0 .99128 -36.26 36.35)" gradientUnits="userSpaceOnUse">
   <stop stop-color="#2e3476" offset="0"/>
   <stop stop-color="#3d33eb" offset="1"/>
  </linearGradient>
  <linearGradient id="linearGradient87990" x1="-82.44" x2="1448.4" y1="345.52" y2="345.52" gradientTransform="matrix(.26228 0 0 .26228 -36.26 54.71)" gradientUnits="userSpaceOnUse" xlink:href="#linearGradient1294"/>
  <linearGradient id="linearGradient25753" x1="-21.655" x2="383.08" y1="92.147" y2="92.147" gradientTransform="matrix(.99128 0 0 .99128 -36.26 36.35)" gradientUnits="userSpaceOnUse">
   <stop stop-color="#4465eb" offset="0"/>
   <stop stop-color="#46a7e1" offset=".5"/>
   <stop stop-color="#6b50c1" offset="1"/>
  </linearGradient>
  <linearGradient id="linearGradient25219" x1="-24.528" x2="386.16" y1="-24.045" y2="-24.045" gradientTransform="matrix(.99128 0 0 .99128 -36.26 52.378)" gradientUnits="userSpaceOnUse" xlink:href="#linearGradient1056"/>
  <linearGradient id="linearGradient14910" x1="253.56" x2="239.42" y1="147.01" y2="130.45" gradientTransform="matrix(.99128 0 0 .99128 -36.26 36.35)" gradientUnits="userSpaceOnUse">
   <stop stop-color="#e06fea" stop-opacity=".39011" offset="0"/>
   <stop stop-color="#164593" stop-opacity=".023098" offset="1"/>
  </linearGradient>
  <linearGradient id="linearGradient15720" x1="251.13" x2="241.25" y1="138.13" y2="126.04" gradientTransform="matrix(-.99128 0 0 .99128 322.01 36.35)" gradientUnits="userSpaceOnUse">
   <stop stop-color="#dc29ea" stop-opacity=".18321" offset="0"/>
   <stop stop-color="#164593" stop-opacity=".023098" offset="1"/>
  </linearGradient>
  <linearGradient id="linearGradient35006" x1="542.26" x2="409.86" y1="531.52" y2="437.69" gradientTransform="matrix(.26228 0 0 .26228 -36.26 38.973)" gradientUnits="userSpaceOnUse">
   <stop stop-color="#9e80dc" stop-opacity=".08" offset="0"/>
   <stop stop-color="#9e80dc" stop-opacity="0" offset="1"/>
  </linearGradient>
  <linearGradient id="linearGradient35006-3" x1="542.26" x2="409.86" y1="531.52" y2="437.69" gradientTransform="matrix(-.26228 0 0 .26228 416.54 -28.97)" gradientUnits="userSpaceOnUse">
   <stop stop-color="#9e80dc" stop-opacity=".12323" offset="0"/>
   <stop stop-color="#9e80dc" stop-opacity="0" offset="1"/>
  </linearGradient>
  <linearGradient id="linearGradient26562" x1="-21.655" x2="383.08" y1="99.556" y2="99.556" gradientTransform="matrix(.99128 0 0 .99128 -36.26 -3.8124)" gradientUnits="userSpaceOnUse">
   <stop stop-color="#0031b6" offset="0"/>
   <stop stop-color="#255cc7" offset=".5"/>
   <stop stop-color="#3d3dd3" offset="1"/>
  </linearGradient>
  <linearGradient id="linearGradient34063" x1="79.735" x2="21.187" y1="42.158" y2="1.0037" gradientTransform="matrix(.99128 0 0 .99128 -36.26 38.973)" gradientUnits="userSpaceOnUse">
   <stop stop-color="#9e7fdc" stop-opacity=".1" offset="0"/>
   <stop stop-color="#9e7fdc" stop-opacity="0" offset="1"/>
  </linearGradient>
  <linearGradient id="linearGradient53858" x1="79.735" x2="21.187" y1="42.158" y2="1.0037" gradientTransform="matrix(-.99128 0 0 .99128 236.24 153.46)" gradientUnits="userSpaceOnUse">
   <stop stop-color="#7fdcdb" stop-opacity=".07" offset="0"/>
   <stop stop-color="#9e7fdc" stop-opacity="0" offset="1"/>
  </linearGradient>
  <linearGradient id="linearGradient35392" x1="654.09" x2="409.86" y1="615.36" y2="437.69" gradientTransform="matrix(.26228 0 0 .26228 -28.654 10.614)" gradientUnits="userSpaceOnUse">
   <stop stop-color="#b1cdef" stop-opacity=".26275" offset="0"/>
   <stop stop-color="#9e80dc" stop-opacity="0" offset="1"/>
  </linearGradient>
  <linearGradient id="linearGradient37083" x1="32.688" x2="-4.3074" y1="61.359" y2="35.59" gradientTransform="matrix(.99128 0 0 .99128 -36.26 38.973)" gradientUnits="userSpaceOnUse">
   <stop stop-color="#a9e3ed" stop-opacity=".05" offset="0"/>
   <stop stop-color="#a9e3ed" stop-opacity="0" offset="1"/>
  </linearGradient>
  <linearGradient id="linearGradient37280" x1="32.688" x2="-4.3074" y1="61.359" y2="35.59" gradientTransform="matrix(2.429 0 0 2.429 51.309 -4.3718)" gradientUnits="userSpaceOnUse">
   <stop stop-color="#60cbde" stop-opacity=".059582" offset="0"/>
   <stop stop-color="#a9e3ed" stop-opacity="0" offset="1"/>
  </linearGradient>
  <linearGradient id="linearGradient37849" x1="32.688" x2="-4.3074" y1="61.359" y2="35.59" gradientTransform="matrix(2.429 0 0 2.429 -11.716 3.9903)" gradientUnits="userSpaceOnUse">
   <stop stop-color="#84b0b8" stop-opacity=".05" offset="0"/>
   <stop stop-color="#a9e3ed" stop-opacity="0" offset="1"/>
  </linearGradient>
  <linearGradient id="linearGradient69576" x1="-24.528" x2="386.16" y1="-24.045" y2="-24.045" gradientTransform="matrix(.99128 0 0 .99128 -36.26 10.545)" gradientUnits="userSpaceOnUse" xlink:href="#linearGradient17531"/>
  <linearGradient id="linearGradient53643" x1="79.735" x2="21.187" y1="42.158" y2="1.0037" gradientTransform="matrix(-.99128 0 0 .99128 236.55 108.71)" gradientUnits="userSpaceOnUse">
   <stop stop-color="#dc7fdc" stop-opacity=".08" offset="0"/>
   <stop stop-color="#9e7fdc" stop-opacity="0" offset="1"/>
  </linearGradient>
  <linearGradient id="linearGradient53697" x1="32.688" x2="-4.3074" y1="61.359" y2="35.59" gradientTransform="matrix(-2.429 0 0 2.429 295.16 -62.498)" gradientUnits="userSpaceOnUse">
   <stop stop-color="#a9e3ed" stop-opacity=".06" offset="0"/>
   <stop stop-color="#a9e3ed" stop-opacity="0" offset="1"/>
  </linearGradient>
  <linearGradient id="linearGradient53804" x1="32.688" x2="-4.3074" y1="61.359" y2="35.59" gradientTransform="matrix(-2.429 0 0 2.429 277.99 -33.554)" gradientUnits="userSpaceOnUse">
   <stop stop-color="#dd83f2" stop-opacity=".12549" offset="0"/>
   <stop stop-color="#a9e3ed" stop-opacity="0" offset="1"/>
  </linearGradient>
  <linearGradient id="linearGradient5163" x1="654.09" x2="409.86" y1="615.36" y2="437.69" gradientTransform="matrix(-.26228 0 0 .26228 314.4 10.614)" gradientUnits="userSpaceOnUse">
   <stop stop-color="#b1cdef" stop-opacity=".14678" offset="0"/>
   <stop stop-color="#9e80dc" stop-opacity="0" offset="1"/>
  </linearGradient>
 </defs>
 <rect width="285.75" height="270.93" fill="#1b1e20" stop-color="#000000" style="-inkscape-stroke:none;font-variation-settings:normal;paint-order:stroke fill markers"/>
 <path d="m-57.726 32.507v20.737l189.72 139.32 10.886 22.976 10.885-22.976 189.72-139.32v-20.737l-200.6 147.31z" fill="url(#linearGradient75480)" stop-color="#000000" style="-inkscape-stroke:none;font-variation-settings:normal"/>
 <path d="m-77.254 54.677s10.743 22.343 50.148 20.398c5.6293-0.27786 11.844-1.0514 18.695-2.4565 41.109-8.4308 55.94 22.014 66.681 50.483 3.5804 9.4896 6.7064 18.76 10.2 26.297 10.036 21.656 35.048 48.353 62.516 60.565 16.481 7.3269 33.846 9.4389 49.391 2.118 13.245-6.2377 15.827-13.801 15.291-20.843-0.53648-7.042-4.1918-13.562-3.4221-17.713 1.9909-10.737 9.7289-12.07 17.497-11.349 12.946 1.2025 25.975 8.1123 12.617-13.296-4.1494-6.6501-6.2102-12.632-6.8986-17.911-2.0654-15.836 8.2202-25.342 11.516-27.57 4.337-2.9306 9.4188-5.1325 15.044-6.783 39.377-11.554 105.38 3.9045 128.96-14.509m-446.81-28.149c0.9515 0.2977 11.548 23.177 49.79 22.173 5.4587-0.08554 11.515-0.6837 18.214-1.9229 40.195-7.4354 55.694 21.953 66.961 49.252 3.7153 9.1182 7.0345 18.105 10.72 25.467 10.482 21.139 35.583 47.55 62.568 59.89 16.191 7.4041 33.128 9.7895 48.16 2.9863 12.769-5.6452 14.931-12.611 13.77-19.264-1.1607-6.6533-5.217-13.786-4.3853-18.633 1.9982-11.047 9.9133-12.962 18.376-12.48 13.641 0.91533 27.742 7.3177 15.567-13.713-3.7095-6.5519-5.488-12.438-6.0961-17.615-1.6253-15.674 7.7622-25.48 11.105-27.895 4.2395-2.8908 9.2241-5.0643 14.766-6.6904 39.38-11.404 103.24 2.2503 126.15-15.651m-444.25-26.622c1.903 0.59541 12.354 24.012 49.433 23.948 5.2881 0.10678 11.186-0.31601 17.733-1.3893 39.282-6.4399 55.448 21.892 67.24 48.021 3.8501 8.7468 7.3625 17.451 11.241 24.637 10.927 20.622 36.118 46.746 62.621 59.215 15.902 7.4813 32.41 10.14 46.929 3.8547 12.293-5.0527 14.034-11.42 12.249-17.685-1.785-6.2647-6.2422-14.01-5.3485-19.553 2.0054-11.358 10.098-13.853 19.256-13.61 14.336 0.62817 29.51 6.5231 18.517-14.129-3.2696-6.4537-4.7658-12.245-5.2936-17.319-1.1852-15.512 7.3042-25.618 10.694-28.221 4.1421-2.851 9.0293-4.9962 14.488-6.5978 39.382-11.253 101.09 0.59617 123.35-16.794m-441.69-25.096c2.8545 0.89311 13.159 24.847 49.076 25.723 5.1175 0.2991 10.857 0.05167 17.252-0.85574 38.369-5.4445 55.201 21.831 67.519 46.791 3.985 8.3754 7.6906 16.796 11.762 23.807 11.373 20.104 36.653 45.943 62.673 58.54 15.612 7.5585 31.692 10.491 45.699 4.723 11.817-4.4602 13.138-10.23 10.729-16.106-2.4092-5.876-7.2674-14.234-6.3116-20.473 2.0126-11.668 10.282-14.745 20.136-14.741 15.031 0.341 31.277 5.7285 21.467-14.545-2.8297-6.3554-4.0436-12.051-4.491-17.023-0.74513-15.35 6.8462-25.756 10.282-28.547 4.0447-2.8112 8.8346-4.9281 14.21-6.5052 39.384-11.103 98.942-1.058 120.55-17.937m-439.13-23.57c3.806 1.1908 13.965 25.681 48.719 27.498 4.947 0.49142 10.529 0.41936 16.771-0.32215 37.456-4.449 54.955 21.77 67.798 45.56 4.1198 8.0041 8.0187 16.142 12.282 22.977 11.818 19.587 37.188 45.139 62.726 57.865 15.323 7.6356 30.975 10.841 44.468 5.5913 11.341-3.8677 12.241-9.0395 9.208-14.527-3.0335-5.4874-8.2926-14.458-7.2748-21.393 2.0199-11.978 10.467-15.636 21.016-15.872 15.726 0.0538 33.044 4.9339 24.417-14.961-2.3897-6.2572-3.3215-11.857-3.6885-16.727-0.30506-15.188 6.3882-25.894 9.8708-28.872 3.9472-2.7714 8.6399-4.86 13.931-6.4126 39.387-10.953 96.795-2.7122 117.75-19.079m-436.57-22.043c4.7575 1.4885 14.771 26.516 48.361 29.274 4.7764 0.68374 10.2 0.78704 16.291 0.21145 36.543-3.4536 54.709 21.709 68.077 44.329 4.2547 7.6327 8.3467 15.487 12.803 22.147 12.263 19.07 37.723 44.335 62.778 57.19 15.033 7.7128 30.257 11.192 43.237 6.4596 10.864-3.2752 11.345-7.849 7.6872-12.948s-9.3178-14.682-8.238-22.313c2.0272-12.288 10.651-16.528 21.896-17.003 16.421-0.23333 34.811 4.1393 27.367-15.377-1.9498-6.159-2.5993-11.663-2.886-16.431 0.13501-15.026 5.9302-26.032 9.4594-29.198 3.8498-2.7316 8.4452-4.7919 13.653-6.32 39.389-10.802 94.647-4.3663 114.94-20.222m-434.01-20.517c5.709 1.7862 15.576 27.351 48.004 31.049 4.6058 0.87606 9.8714 1.1547 15.81 0.74504 35.63-2.4581 54.462 21.648 68.356 43.098 4.3895 7.2613 8.6748 14.833 13.324 21.317 12.709 18.553 38.258 43.532 62.831 56.515 14.744 7.79 29.539 11.542 42.007 7.328 10.388-2.6828 10.449-6.6586 6.1666-11.369-4.282-4.71-10.343-14.906-9.2012-23.233 2.0344-12.598 10.835-17.419 22.776-18.134 17.115-0.5205 36.579 3.3447 30.317-15.793-1.5099-6.0608-1.8771-11.47-2.0835-16.135 0.57509-14.864 5.4723-26.17 9.0481-29.524 3.7523-2.6918 8.2505-4.7238 13.375-6.2274 39.392-10.652 92.5-6.0205 112.14-21.365m-431.45-18.99c6.6605 2.0839 16.382 28.185 47.647 32.824 4.4352 1.0684 9.5427 1.5224 15.329 1.2786 34.717-1.4627 54.216 21.587 68.636 41.867 4.5244 6.8899 9.0028 14.178 13.845 20.487 13.154 18.036 38.793 42.728 62.883 55.84 14.454 7.8672 28.821 11.893 40.776 8.1963 9.9123-2.0903 9.5521-5.4681 4.6458-9.7895s-11.368-15.13-10.164-24.153c2.0417-12.909 11.02-18.311 23.656-19.264 17.81-0.80768 38.346 2.5501 33.267-16.21-1.07-5.9626-1.1549-11.276-1.2809-15.839 1.0152-14.702 5.0143-26.308 8.6367-29.85 3.6549-2.652 8.0557-4.6557 13.097-6.1348 39.394-10.502 90.352-7.6747 109.34-22.508m-428.89-17.464c7.612 2.3816 17.187 29.02 47.29 34.599 4.2646 1.2607 9.2141 1.8901 14.848 1.8122 33.803-0.46721 53.97 21.526 68.915 40.636 4.6592 6.5185 9.3309 13.524 14.365 19.657 13.6 17.519 39.328 41.924 62.936 55.165 14.164 7.9444 28.104 12.243 39.545 9.0646 9.4362-1.4978 8.6557-4.2776 3.1251-8.2104-5.5305-3.9327-12.393-15.354-11.128-25.073 2.0489-13.219 11.204-19.202 24.535-20.395 18.505-1.0948 40.113 1.7555 36.217-16.626-0.63007-5.8643-0.43271-11.082-0.47839-15.543 1.4552-14.539 4.5563-26.446 8.2254-30.175 3.5574-2.6122 7.861-4.5876 12.819-6.0421 39.396-10.351 88.205-9.3288 106.54-23.65m-426.33-15.938c8.5635 2.6793 17.993 29.855 46.932 36.375 4.0941 1.453 8.8854 2.2578 14.367 2.3458 32.89 0.52824 53.723 21.465 69.194 39.405 4.7941 6.1471 9.659 12.87 14.886 18.826 14.045 17.001 39.863 41.121 62.988 54.49 13.875 8.0215 27.386 12.594 38.314 9.9329 8.9602-0.9053 7.7592-3.0872 1.6044-6.6312s-13.419-15.578-12.091-25.992c2.0562-13.529 11.389-20.094 25.415-21.526 19.2-1.382 41.881 0.9609 39.167-17.042-0.19015-5.7661 0.28947-10.888 0.32413-15.247 1.8953-14.377 4.0983-26.584 7.814-30.501 3.46-2.5724 7.6663-4.5195 12.541-5.9495 39.399-10.201 86.057-10.983 103.74-24.793m-423.77-14.411c9.515 2.977 18.798 30.689 46.575 38.15 3.9235 1.6453 8.5567 2.6255 13.886 2.8794 31.977 1.5237 53.477 21.404 69.473 38.175 4.9289 5.7757 9.987 12.215 15.407 17.996 14.49 16.484 40.398 40.317 63.041 53.815 13.585 8.0987 26.668 12.944 37.084 10.801 8.4841-0.31282 6.8628-1.8967 0.0837-5.0521-6.779-3.1554-14.444-15.802-13.054-26.912 2.0634-13.839 11.573-20.985 26.295-22.657 19.895-1.6692 43.648 0.1663 42.117-17.458 0.24976-5.6679 1.0116-10.694 1.1267-14.951 2.3354-14.215 3.6403-26.722 7.4026-30.827 3.3626-2.5326 7.4716-4.4514 12.262-5.8569 39.401-10.05 83.91-12.637 100.93-25.936m-421.21-12.885c10.467 3.2747 19.604 31.524 46.218 39.925 3.7529 1.8377 8.228 2.9932 13.405 3.413 31.064 2.5192 53.231 21.343 69.752 36.944 5.0638 5.4043 10.315 11.561 15.927 17.166 14.936 15.967 40.933 39.513 63.093 53.14 13.296 8.1759 25.95 13.295 35.853 11.67 8.008 0.27966 5.9664-0.70626-1.437-3.473-7.4033-2.7668-15.469-16.026-14.017-27.832 2.0707-14.149 11.758-21.877 27.175-23.788 20.59-1.9564 45.415-0.6283 45.067-17.874 0.68969-5.5697 1.7338-10.501 1.9292-14.655 2.7754-14.053 3.1823-26.86 6.9913-31.152 3.2651-2.4927 7.2769-4.3833 11.984-5.7643 39.404-9.9001 81.762-14.291 98.131-27.078m-418.65-11.359c11.418 3.5725 20.41 32.359 45.861 41.7 3.5823 2.03 7.8993 3.3608 12.924 3.9466 30.151 3.5146 52.984 21.282 70.031 35.713 5.1986 5.0329 10.643 10.906 16.448 16.336 15.381 15.45 41.469 38.71 63.146 52.465 13.006 8.2531 25.233 13.646 34.622 12.538 7.5319 0.87216 5.0699 0.48421-2.9577-1.8939s-16.494-16.25-14.98-28.752c2.0779-14.46 11.942-22.768 28.055-24.918 21.285-2.2435 47.183-1.4229 48.017-18.29 1.1296-5.4714 2.456-10.307 2.7317-14.359 3.2155-13.891 2.7243-26.998 6.5799-31.478 3.1677-2.4529 7.0821-4.3152 11.706-5.6717 39.406-9.7498 79.615-15.945 95.329-28.221m-416.09-9.8322c12.37 3.8702 21.215 33.193 45.503 43.475 3.4117 2.2223 7.5706 3.7285 12.444 4.4802 29.238 4.5101 52.738 21.221 70.31 34.482 5.3335 4.6615 10.971 10.252 16.969 15.506 15.827 14.933 42.004 37.906 63.198 51.79 12.717 8.3302 24.515 13.996 33.392 13.406 7.0558 1.4646 4.1735 1.6747-4.4784-0.31476-8.6518-1.9894-17.52-16.474-15.944-29.672 2.0852-14.77 12.126-23.66 28.935-26.049 21.98-2.5307 48.95-2.2175 50.967-18.707 1.5695-5.3732 3.1782-10.113 3.5342-14.063 3.6556-13.729 2.2663-27.136 6.1686-31.804 3.0702-2.4131 6.8874-4.2471 11.428-5.5791 39.409-9.5994 77.468-17.6 92.527-29.364m-413.53-8.3058c13.321 4.1679 22.021 34.028 45.146 45.251 3.2411 2.4146 7.2419 4.0962 11.963 5.0138 28.325 5.5055 52.492 21.16 70.59 33.251 5.4683 4.2901 11.299 9.5973 17.49 14.676 16.272 14.416 42.539 37.102 63.251 51.115 12.427 8.4074 23.797 14.347 32.161 14.275 6.5798 2.0571 3.277 2.8651-5.9991 1.2644-9.2761-1.6008-18.545-16.698-16.907-30.592 2.0924-15.08 12.311-24.551 29.815-27.18 22.674-2.8179 50.717-3.0121 53.917-19.123 2.0094-5.275 3.9004-9.9194 4.3368-13.767 4.0957-13.567 1.8083-27.274 5.7572-32.129 2.9728-2.3733 6.6927-4.179 11.15-5.4865 39.411-9.4491 75.32-19.254 89.725-30.506m-410.97-6.7794c14.273 4.4656 22.826 34.863 44.789 47.026 3.0706 2.6069 6.9133 4.4639 11.482 5.5474 27.411 6.501 52.245 21.099 70.869 32.02 5.6032 3.9187 11.627 8.9428 18.01 13.846 16.718 13.898 43.074 36.299 63.303 50.44 12.138 8.4846 23.079 14.697 30.93 15.143 6.1037 2.6496 2.3806 4.0556-7.5198 2.8435-9.9003-1.2121-19.57-16.921-17.87-31.512 2.0997-15.39 12.495-25.442 30.695-28.311 23.369-3.105 52.485-3.8067 56.867-19.539 2.4494-5.1768 4.6226-9.7256 5.1393-13.472 4.5357-13.405 1.3503-27.412 5.3458-32.455 2.8754-2.3335 6.498-4.1109 10.872-5.3939 39.413-9.2987 73.173-20.908 86.922-31.649m-408.41-5.2531c15.224 4.7633 23.632 35.697 44.432 48.801 2.9 2.7993 6.5846 4.8316 11.001 6.081 26.498 7.4964 51.999 21.038 71.148 30.79 5.738 3.5473 11.955 8.2883 18.531 13.016 17.163 13.381 43.609 35.495 63.356 49.765 11.848 8.5618 22.362 15.048 29.7 16.011 5.6276 3.2421 1.4841 5.246-9.0405 4.4226-10.525-0.82346-20.595-17.145-18.833-32.432 2.1069-15.7 12.68-26.334 31.574-29.442 24.064-3.3922 54.252-4.6013 59.817-19.955 2.8893-5.0785 5.3448-9.5318 5.9418-13.176 4.9758-13.243 0.89232-27.55 4.9345-32.781 2.7779-2.2937 6.3033-4.0428 10.593-5.3013 39.416-9.1484 71.025-22.562 84.12-32.792m-405.85-3.7267c16.176 5.061 24.437 36.532 44.074 50.576 2.7294 2.9916 6.2559 5.1993 10.52 6.6146 25.585 8.4919 51.753 20.977 71.427 29.559 5.8729 3.1759 12.283 7.6339 19.052 12.186 17.608 12.864 44.144 34.692 63.408 49.09 11.559 8.639 21.644 15.398 28.469 16.88 5.1515 3.8346 0.58767 6.4365-10.561 6.0017-11.149-0.43481-21.62-17.369-19.796-33.352 2.1142-16.01 12.864-27.225 32.454-30.572 24.759-3.6794 56.019-5.3959 62.767-20.371 3.3292-4.9803 6.0669-9.3381 6.7444-12.88 5.4159-13.081 0.43433-27.688 4.5231-33.107 2.6805-2.2539 6.1085-3.9747 10.315-5.2087 39.418-8.998 68.878-24.216 81.318-33.934m-403.29-2.2003c17.127 5.3587 25.243 37.367 43.717 52.351 2.5588 3.1839 5.9272 5.567 10.039 7.1482 24.672 9.4873 51.506 20.916 71.706 28.328 6.0077 2.8045 12.612 6.9794 19.572 11.356 18.054 12.347 44.679 33.888 63.461 48.415 11.269 8.7161 20.926 15.749 27.238 17.748 4.6754 4.4271-0.30877 7.627-12.082 7.5808-11.773-0.0462-22.646-17.593-20.759-34.272 2.1214-16.321 13.049-28.117 33.334-31.703 25.454-3.9665 57.787-6.1905 65.717-20.787 3.7691-4.8821 6.7891-9.1443 7.5469-12.584 5.856-12.919-0.0237-27.826 4.1118-33.432 2.5831-2.2141 5.9138-3.9066 10.037-5.1161 39.421-8.8477 66.73-25.87 78.516-35.077m-400.73-0.67393c18.079 5.6564 26.049 38.201 43.36 54.127 2.3882 3.3762 5.5985 5.9346 9.5583 7.6818 23.759 10.483 51.26 20.855 71.985 27.097 6.1426 2.4331 12.94 6.325 20.093 10.526 18.499 11.83 45.214 33.084 63.513 47.74 10.98 8.7933 20.208 16.099 26.008 18.616 4.1993 5.0196-1.2052 8.8174-13.603 9.16-12.397 0.34251-23.671-17.817-21.723-35.191 2.1287-16.631 13.233-29.008 34.214-32.834 26.149-4.2537 59.554-6.9851 68.667-21.204 4.209-4.7839 7.5113-8.9505 8.3494-12.288 6.296-12.757-0.48166-27.964 3.7004-33.758 2.4856-2.1743 5.7191-3.8385 9.7589-5.0235 39.423-8.6973 64.583-27.525 75.713-36.22m-398.17 0.85245c19.03 5.9541 26.854 39.036 43.002 55.902 2.2176 3.5685 5.2698 6.3023 9.0775 8.2154 22.846 11.478 51.014 20.794 72.264 25.866 6.2774 2.0617 13.268 5.6705 20.614 9.6956 18.945 11.313 45.749 32.281 63.566 47.065 10.69 8.8705 19.491 16.45 24.777 19.485 3.7232 5.612-2.1017 10.008-15.123 10.739-13.022 0.73117-24.696-18.041-22.686-36.111 2.1359-16.941 13.417-29.9 35.094-33.965 26.844-4.5409 61.321-7.7797 71.617-21.62 4.649-4.6856 8.2335-8.7568 9.152-11.992 6.7361-12.595-0.93965-28.102 3.289-34.084 2.3882-2.1345 5.5244-3.7704 9.4807-4.9308 39.426-8.547 62.435-29.179 72.911-37.362m-395.61 2.3788c19.982 6.2518 27.66 39.871 42.645 57.677 2.0471 3.7609 4.9411 6.67 8.5966 8.749 21.933 12.474 50.767 20.733 72.544 24.635 6.4123 1.6903 13.596 5.016 21.134 8.8655 19.39 10.795 46.284 31.477 63.618 46.39 10.401 8.9477 18.773 16.801 23.546 20.353 3.2472 6.2045-2.9981 11.198-16.644 12.318-13.646 1.1198-25.721-18.265-23.649-37.031 2.1432-17.251 13.602-30.791 35.974-35.096 27.538-4.828 63.089-8.5743 74.567-22.036 5.0889-4.5874 8.9557-8.563 9.9545-11.696 7.1762-12.433-1.3976-28.24 2.8777-34.409 2.2907-2.0947 5.3296-3.7022 9.2025-4.8382 39.428-8.3966 60.288-30.833 70.109-38.505m-393.05 3.9052c20.933 6.5495 28.465 40.705 42.288 59.452 1.8765 3.9532 4.6125 7.0377 8.1157 9.2826 21.019 13.469 50.521 20.671 72.823 23.404 6.5471 1.3189 13.924 4.3616 21.655 8.0354 19.835 10.278 46.819 30.673 63.671 45.715 10.111 9.0248 18.055 17.151 22.316 21.221 2.7711 6.797-3.8945 12.389-18.165 13.897-14.27 1.5085-26.746-18.489-24.612-37.951 2.1504-17.561 13.786-31.683 36.854-36.226 28.233-5.1152 64.856-9.3689 77.517-22.452 5.5288-4.4892 9.6779-8.3692 10.757-11.4 7.6162-12.27-1.8556-28.378 2.4663-34.735 2.1933-2.0549 5.1349-3.6341 8.9244-4.7456 39.43-8.2463 58.14-32.487 67.307-39.648m-390.49 5.4316c21.885 6.8472 29.271 41.54 41.931 61.228 1.7059 4.1455 4.2838 7.4054 7.6348 9.8162 20.106 14.465 50.275 20.61 73.102 22.174 6.682 0.94755 14.252 3.7071 22.176 7.2053 20.281 9.7611 47.354 29.87 63.723 45.04 9.8216 9.102 17.337 17.502 21.085 22.089 2.295 7.3895-4.791 13.579-19.685 15.476-14.894 1.8972-27.772-18.713-25.575-38.871 2.1577-17.872 13.971-32.574 37.733-37.357 28.928-5.4024 66.623-10.163 80.467-22.868 5.9687-4.391 10.4-8.1755 11.56-11.104 8.0563-12.108-2.3136-28.516 2.055-35.061 2.0959-2.0151 4.9402-3.566 8.6462-4.653 39.433-8.0959 55.993-34.141 64.505-40.79m-387.93 6.958c22.836 7.1449 30.077 42.375 41.573 63.003 1.5353 4.3378 3.9551 7.7731 7.154 10.35 19.193 15.46 50.028 20.549 73.381 20.943 6.8168 0.57615 14.58 3.0526 22.697 6.3752 20.726 9.2439 47.889 29.066 63.776 44.365 9.5321 9.1792 16.62 17.852 19.854 22.958 1.8189 7.982-5.6874 14.77-21.206 17.056-15.519 2.2858-28.797-18.937-26.539-39.791 2.1649-18.182 14.155-33.466 38.613-38.488 29.623-5.6895 68.391-10.958 83.417-23.284 6.4086-4.2927 11.122-7.9817 12.362-10.808 8.4964-11.946-2.7716-28.654 1.6436-35.386 1.9984-1.9753 4.7455-3.4979 8.368-4.5604 39.435-7.9456 53.845-35.795 61.702-41.933m-385.37 8.4843c23.788 7.4426 30.882 43.209 41.216 64.778 1.3647 4.5301 3.6264 8.1408 6.6731 10.883 18.28 16.456 49.782 20.488 73.66 19.712 6.9517 0.20475 14.908 2.3982 23.217 5.5452 21.172 8.7268 48.424 28.262 63.828 43.69 9.2425 9.2564 15.902 18.203 18.624 23.826 1.3428 8.5745-6.5839 15.96-22.727 18.635-16.143 2.6745-29.822-19.161-27.502-40.711 2.1722-18.492 14.34-34.357 39.493-39.619 30.318-5.9767 70.158-11.753 86.367-23.701 6.8485-4.1945 11.844-7.7879 13.165-10.512 8.9364-11.784-3.2296-28.792 1.2323-35.712 1.901-1.9355 4.5508-3.4298 8.0899-4.4678 39.438-7.7952 51.698-37.45 58.9-43.076m-382.81 10.011c24.739 7.7403 31.688 44.044 40.859 66.553 1.1942 4.7225 3.2977 8.5084 6.1922 11.417 17.367 17.451 49.536 20.427 73.939 18.481 7.0865-0.16665 15.236 1.7437 23.738 4.7151 21.617 8.2096 48.959 27.459 63.881 43.015 8.953 9.3335 15.184 18.553 17.393 24.694 0.86676 9.167-7.4803 17.151-24.248 20.214s-30.847-19.385-28.465-41.631c2.1794-18.802 14.524-35.249 40.373-40.75 31.013-6.2639 71.925-12.547 89.317-24.117 7.2885-4.0963 12.567-7.5942 13.967-10.216 9.3765-11.622-3.6876-28.93 0.8209-36.038 1.8035-1.8957 4.356-3.3617 7.8117-4.3752 39.44-7.6449 49.55-39.104 56.098-44.219m-380.26 11.537c25.691 8.038 32.493 44.879 40.502 68.328 1.0236 4.9148 2.969 8.8761 5.7113 11.951 16.454 18.446 49.289 20.366 74.219 17.25 7.2214-0.53803 15.564 1.0893 24.259 3.885 22.062 7.6924 49.494 26.655 63.933 42.34 8.6635 9.4107 14.466 18.904 16.162 25.563 0.39067 9.7594-8.3768 18.341-25.768 21.793-17.391 3.4518-31.872-19.609-29.428-42.551 2.1867-19.112 14.708-36.14 41.253-41.88 31.708-6.551 73.692-13.342 92.267-24.533 7.7284-3.9981 13.289-7.4004 14.77-9.92 9.8166-11.46-4.1456-29.068 0.40954-36.364 1.7061-1.8558 4.1613-3.2936 7.5335-4.2826 39.443-7.4945 47.403-40.758 53.296-45.361m-377.7 13.063c26.642 8.3357 33.299 45.713 40.144 70.104 0.85299 5.1071 2.6404 9.2438 5.2305 12.484 15.541 19.442 49.043 20.305 74.498 16.019 7.3562-0.90943 15.892 0.43481 24.779 3.0549 22.508 7.1752 50.029 25.851 63.986 41.665 8.374 9.4879 13.749 19.254 14.931 26.431-0.0854 10.352-9.2732 19.532-27.289 23.372-18.016 3.8404-32.898-19.833-30.391-43.471 2.1939-19.423 14.893-37.032 42.133-43.011 32.403-6.8382 75.46-14.136 95.217-24.949 8.1683-3.8998 14.011-7.2066 15.572-9.6241 10.257-11.298-4.6036-29.206-2e-3 -36.689 1.6087-1.816 3.9666-3.2255 7.2554-4.19 39.445-7.3442 45.255-42.412 50.493-46.504m-375.14 14.59c27.594 8.6334 34.104 46.548 39.787 71.879 0.68241 5.2994 2.3117 9.6115 4.7496 13.018 14.627 20.437 48.797 20.244 74.777 14.788 7.4911-1.2808 16.22-0.21965 25.3 2.2248 22.953 6.6581 50.564 25.048 64.038 40.99 8.0844 9.5651 13.031 19.605 13.701 27.299-0.56149 10.944-10.17 20.722-28.81 24.951-18.64 4.2291-33.923-20.057-31.355-44.39 2.2012-19.733 15.077-37.923 43.013-44.142 33.097-7.1254 77.227-14.931 98.167-25.365 8.6082-3.8016 14.733-7.0129 16.375-9.3282 10.697-11.136-5.0616-29.344-0.41317-37.015 1.5112-1.7762 3.7719-3.1574 6.9772-4.0974 39.447-7.1938 43.108-44.066 47.691-47.647m-372.58 16.116c28.545 8.9311 34.91 47.383 39.43 73.654 0.51183 5.4917 1.983 9.9792 4.2687 13.551 13.714 21.433 48.55 20.183 75.056 13.558 7.6259-1.6522 16.548-0.87411 25.821 1.3948 23.399 6.1409 51.099 24.244 64.091 40.315 7.7949 9.6422 12.313 19.956 12.47 28.168-1.0376 11.537-11.066 21.912-30.33 26.53-19.264 4.6177-34.948-20.281-32.318-45.31 2.2084-20.043 15.262-38.814 43.892-45.273 33.792-7.4126 78.994-15.726 101.12-25.781 9.0481-3.7034 15.455-6.8191 17.177-9.0322 11.137-10.974-5.5196-29.482-0.82453-37.341 1.4138-1.7364 3.5772-3.0893 6.699-4.0048 39.45-7.0435 40.96-45.72 44.889-48.789m-370.02 17.643c29.497 9.2288 35.716 48.217 39.073 75.429 0.34124 5.6841 1.6543 10.347 3.7878 14.085 12.801 22.428 48.304 20.122 75.335 12.327 7.7608-2.0236 16.876-1.5286 26.342 0.56468 23.844 5.6237 51.634 23.441 64.143 39.64 7.5054 9.7194 11.595 20.306 11.239 29.036-1.5137 12.129-11.963 23.103-31.851 28.109-19.888 5.0064-35.973-20.505-33.281-46.23 2.2157-20.353 15.446-39.706 44.772-46.404 34.487-7.6997 80.762-16.52 104.07-26.198 9.488-3.6052 16.178-6.6253 17.98-8.7362 11.577-10.812-5.9776-29.62-1.2359-37.666 1.3163-1.6966 3.3824-3.0212 6.4208-3.9121 39.452-6.8931 38.813-47.375 42.087-49.932m-367.46 19.169c30.448 9.5265 36.521 49.052 38.715 77.204 0.17066 5.8764 1.3256 10.715 3.307 14.618 11.888 23.424 48.058 20.061 75.614 11.096 7.8956-2.395 17.204-2.183 26.862-0.2654 24.289 5.1066 52.169 22.637 64.196 38.965 7.2158 9.7966 10.878 20.657 10.009 29.904-1.9897 12.722-12.859 24.293-33.372 29.688-20.513 5.3951-36.999-20.729-34.244-47.15 2.2229-20.663 15.631-40.597 45.652-47.534 35.182-7.9869 82.529-17.315 107.02-26.614 9.928-3.507 16.9-6.4316 18.782-8.4403 12.017-10.65-6.4356-29.757-1.6472-37.992 1.2189-1.6568 3.1877-2.9531 6.1427-3.8195 39.455-6.7428 36.665-49.029 39.284-51.075m-364.9 20.695c31.4 9.8242 37.327 49.887 38.358 78.98 8.01e-5 6.0687 0.99693 11.082 2.8261 15.152 10.975 24.419 47.811 20 75.893 9.865 8.0305-2.7664 17.532-2.8375 27.383-1.0955 24.735 4.5894 52.705 21.833 64.248 38.29 6.9263 9.8738 10.16 21.007 8.7781 30.773-2.4658 13.314-13.755 25.484-34.892 31.268-21.137 5.7837-38.024-20.952-35.207-48.07 2.2302-20.973 15.815-41.489 46.532-48.665 35.877-8.274 84.296-18.109 109.97-27.03 10.368-3.4087 17.622-6.2378 19.585-8.1443 12.457-10.488-6.8936-29.895-2.0586-38.318 1.1215-1.617 2.993-2.885 5.8645-3.7269 39.457-6.5924 34.518-50.683 36.482-52.217m-362.34 22.222c32.351 10.122 38.132 50.721 38.001 80.755-0.1705 6.261 0.66825 11.45 2.3452 15.686 10.062 25.415 47.565 19.939 76.173 8.6342 8.1653-3.1378 17.861-3.492 27.904-1.9256 25.18 4.0722 53.24 21.03 64.301 37.615 6.6368 9.951 9.4421 21.358 7.5474 31.641-2.9419 13.907-14.652 26.674-36.413 32.847-21.761 6.1724-39.049-21.176-36.17-48.99 2.2374-21.284 15.999-42.38 47.412-49.796 36.572-8.5612 86.064-18.904 112.92-27.446 10.808-3.3105 18.344-6.044 20.387-7.8484 12.897-10.326-7.3516-30.033-2.47-38.643 1.024-1.5772 2.7983-2.8169 5.5863-3.6343 39.46-6.4421 32.37-52.337 33.68-53.36m-359.78 23.748c33.303 10.42 38.938 51.556 37.644 82.53-0.34108 6.4533 0.33956 11.818 1.8643 16.219 9.1486 26.41 47.319 19.878 76.452 7.4034 8.3002-3.5092 18.189-4.1464 28.424-2.7556 25.626 3.5551 53.775 20.226 64.353 36.939 6.3473 10.028 8.7243 21.708 6.3167 32.509-3.418 14.499-15.548 27.865-37.934 34.426-22.385 6.561-40.074-21.4-37.134-49.91 2.2447-21.594 16.184-43.272 48.292-50.927 37.267-8.8484 87.831-19.699 115.87-27.862 11.248-3.2123 19.066-5.8503 21.19-7.5524 13.337-10.163-7.8096-30.171-2.8813-38.969 0.92658-1.5374 2.6036-2.7488 5.3082-3.5417 39.462-6.2918 30.223-53.991 30.878-54.503m-357.22 25.274c34.254 10.717 39.744 52.391 37.286 84.305-0.51167 6.6457 0.01088 12.185 1.3835 16.753 8.2355 27.405 47.072 19.817 76.731 6.1725 8.435-3.8806 18.517-4.8009 28.945-3.5857 26.071 3.0379 54.31 19.422 64.406 36.264 6.0578 10.105 8.0066 22.059 5.086 33.378-3.8941 15.092-16.445 29.055-39.455 36.005-23.01 6.9497-41.099-21.624-38.097-50.83 2.252-21.904 16.368-44.163 49.172-52.058 37.962-9.1356 89.598-20.493 118.82-28.278 11.688-3.1141 19.788-5.6565 21.992-7.2565 13.777-10.001-8.2676-30.309-3.2927-39.295 0.82914-1.4976 2.4088-2.6807 5.03-3.4491 39.464-6.1414 28.075-55.645 28.075-55.645" fill="none" stroke="url(#linearGradient3595)" stroke-width=".26228px"/>
 <path d="m345.43 66.565v194.84h-405.92l3e-6 -195.61 203.36 149.52z" fill="#1b1e20" stop-color="#000000" style="-inkscape-stroke:none;font-variation-settings:normal"/>
 <g transform="matrix(1.44,0,0,1.44,-117.34,116.95)" opacity=".02" stroke-width=".6884">
  <g transform="translate(0,77.637)" opacity=".075" stroke-width=".6884">
   <path d="m-21.655-173.61 202.37 148.61 202.37-148.61v16.181l-202.37 148.61-202.37-148.61z" fill="url(#linearGradient21995)" stop-color="#000000" style="-inkscape-stroke:none;font-variation-settings:normal"/>
   <path d="m-21.655-193.8 202.37 148.61 202.37-148.61v22.391l-202.37 148.61-202.37-148.61z" fill="url(#linearGradient21997)"/>
   <path d="m-21.655-157.94 202.37 148.61 202.37-148.61v1.7412l-202.37 148.61-202.37-148.61z" fill="url(#linearGradient21999)" stop-color="#000000" style="-inkscape-stroke:none;font-variation-settings:normal;paint-order:stroke fill markers"/>
  </g>
  <path d="m-21.656-22.398v20.919l191.38 140.54 10.981 23.178 10.981-23.178 191.38-140.54v-20.919l-202.37 148.61z" fill="url(#linearGradient22001)" stop-color="#000000" style="-inkscape-stroke:none;font-variation-settings:normal"/>
  <path d="m191.22 138.75-10.513 23.491 202.37-148.61v-15.771z" fill="url(#linearGradient22003)"/>
  <path d="m-21.656-2.1353v15.771l202.37 148.61-10.513-23.491z" fill="url(#linearGradient22005)"/>
  <path d="m-21.656-2.1353v1.3126l190.92 140.2 11.449 22.866 11.449-22.866 190.92-140.2v-1.3126l-191.85 140.89-10.513 21.102-10.513-21.102-191.54-140.66z" color="#000000" fill="url(#linearGradient22007)" stroke-linecap="square" stroke-width=".18214" style="-inkscape-stroke:none"/>
  <path d="m-21.655-41.581 202.37 148.61 202.37-148.61v21.473l-202.37 148.61-202.37-148.61z" fill="url(#linearGradient22009)" stop-color="#000000" style="-inkscape-stroke:none;font-variation-settings:normal"/>
  <path d="m-21.655-23.098 202.37 148.61 202.37-148.61v2.9889l-202.37 148.61-202.37-148.61z" fill="url(#linearGradient22011)" stop-color="#000000" style="-inkscape-stroke:none;font-variation-settings:normal;paint-order:stroke fill markers"/>
  <path d="m-21.655-62.914 202.37 148.61 202.37-148.61v22.391l-202.37 148.61-202.37-148.61z" fill="url(#linearGradient22013)"/>
  <path d="m-21.655-64.05 202.37 148.61 202.37-148.61v1.7412l-202.37 148.61-202.37-148.61z" fill="url(#linearGradient22015)" stop-color="#000000" style="-inkscape-stroke:none;font-variation-settings:normal;paint-order:stroke fill markers"/>
  <path d="m191.22 138.75-10.513 23.491 202.37-148.61v-15.771z" fill="url(#linearGradient22017)"/>
  <path d="m170.2 138.75 10.513 23.491-202.37-148.61-2e-6 -15.771z" fill="url(#linearGradient22019)"/>
 </g>
 <g transform="matrix(.99128 0 0 .99128 -36.26 131.67)" opacity=".02">
  <path d="m-21.655-173.61 202.37 148.61 202.37-148.61v16.181l-202.37 148.61-202.37-148.61z" fill="url(#linearGradient21995)" stop-color="#000000" style="-inkscape-stroke:none;font-variation-settings:normal"/>
  <path d="m-21.655-193.8 202.37 148.61 202.37-148.61v22.391l-202.37 148.61-202.37-148.61z" fill="url(#linearGradient21997)"/>
  <path d="m-21.655-157.94 202.37 148.61 202.37-148.61v1.7412l-202.37 148.61-202.37-148.61z" fill="url(#linearGradient21999)" stop-color="#000000" style="-inkscape-stroke:none;font-variation-settings:normal;paint-order:stroke fill markers"/>
 </g>
 <path d="m153.3 192.25-10.421 23.286 200.6-147.31v-15.633z" fill="url(#linearGradient24593)"/>
 <path d="m-57.726 52.593v15.633l200.6 147.31-10.421-23.286z" fill="url(#linearGradient78325)"/>
 <path d="m-57.726 52.593v1.3011l189.25 138.98 11.35 22.666 11.35-22.666 189.25-138.98v-1.3011l-190.18 139.66-10.421 20.918-10.421-20.918-189.87-139.43z" color="#000000" fill="url(#linearGradient87990)" stroke-linecap="square" stroke-width=".26228" style="-inkscape-stroke:none"/>
 <path d="m-57.726 13.491 200.6 147.31 200.6-147.31v21.286l-200.6 147.31-200.6-147.31z" fill="url(#linearGradient25753)" stop-color="#000000" style="-inkscape-stroke:none;font-variation-settings:normal"/>
 <path d="m-57.726 31.814 200.6 147.31 200.6-147.31v2.9628l-200.6 147.31-200.6-147.31z" fill="url(#linearGradient25219)" stop-color="#000000" style="-inkscape-stroke:none;font-variation-settings:normal;paint-order:stroke fill markers"/>
 <path d="m153.3 192.25-10.421 23.286 200.6-147.31v-15.633z" fill="url(#linearGradient14910)"/>
 <path d="m132.45 192.25 10.421 23.286-200.6-147.31-2e-6 -15.633z" fill="url(#linearGradient15720)"/>
 <path d="m73.922 150.57v3.112l33.688 24.739v-3.112zm0 4.6856v4.9197l33.688 24.739v-4.9197zm33.688 31.167-33.688-24.739v2.0982l33.688 24.739z" fill="url(#linearGradient35006)"/>
 <path d="m306.36 82.627v3.112l-33.688 24.739v-3.112zm0 4.6856v4.9197l-33.688 24.739v-4.9197zm-33.688 31.167 33.688-24.739v2.0982l-33.688 24.739z" fill="url(#linearGradient35006-3)"/>
 <path d="m142.88 161.85 200.77-146.76-0.17058-1.5973z" fill="#d0b2e4"/>
 <path d="m142.88 161.85-200.77-146.76 0.17058-1.5973z" fill="#b2e3e4"/>
 <path d="m-57.726-7.6558 200.6 147.31 200.6-147.31v22.196l-200.6 147.31-200.6-147.31z" fill="url(#linearGradient26562)"/>
 <g transform="matrix(.80688 0 0 .8075 7.7392 65.55)" fill="none" stop-color="#000000" stroke="#235dc6" stroke-width=".64985" style="-inkscape-stroke:none;font-variation-settings:normal;paint-order:stroke fill markers">
  <path d="m116.37 53.187v6.7346" stop-color="#000000" style="-inkscape-stroke:none;font-variation-settings:normal;paint-order:stroke fill markers"/>
  <path d="m122.49 57.678v8.7187" stop-color="#000000" style="-inkscape-stroke:none;font-variation-settings:normal;paint-order:stroke fill markers"/>
  <path d="m133.56 65.81v8.379" stop-color="#000000" style="-inkscape-stroke:none;font-variation-settings:normal;paint-order:stroke fill markers"/>
  <path d="m128.48 62.077v4.1961" stop-color="#000000" style="-inkscape-stroke:none;font-variation-settings:normal;paint-order:stroke fill markers"/>
  <circle cx="116.42" cy="61.028" r="1.21" stop-color="#000000" style="-inkscape-stroke:none;font-variation-settings:normal;paint-order:stroke fill markers"/>
  <circle cx="122.45" cy="66.901" r=".64061" stop-color="#000000" style="-inkscape-stroke:none;font-variation-settings:normal;paint-order:stroke fill markers"/>
  <circle cx="128.5" cy="67.357" r="1.21" stop-color="#000000" style="-inkscape-stroke:none;font-variation-settings:normal;paint-order:stroke fill markers"/>
  <circle cx="133.55" cy="75.222" r="1.21" stop-color="#000000" style="-inkscape-stroke:none;font-variation-settings:normal;paint-order:stroke fill markers"/>
 </g>
 <path d="m-8.3682 35.153v15.633l8.6326 6.3392v-15.633zm11.186 8.2141v15.633l17.364 12.752v-15.634zm22.662 16.642 0.14497 15.74 10.891 7.9974 0.01896-15.619zm15.059 11.059-0.20388 15.484 3.2877 2.4143v-15.634z" fill="url(#linearGradient34063)" stop-color="#000000" style="-inkscape-stroke:none;font-variation-settings:normal"/>
 <path d="m208.35 158.03v7.2402l-8.6326 6.3392v-7.2402zm-11.186 8.2141v7.2402l-17.364 12.752v-7.2408zm-22.662 16.642-0.14497 7.3468-10.891 7.9974-0.0189-7.2264zm-15.059 11.059 0.20389 7.0907-3.2877 2.4143v-7.2408z" fill="url(#linearGradient53858)" stop-color="#000000" style="-inkscape-stroke:none;font-variation-settings:normal"/>
 <g transform="matrix(.99128 0 0 .99128 -36.26 77.576)" opacity=".02">
  <path d="m-21.655-173.61 202.37 148.61 202.37-148.61v16.181l-202.37 148.61-202.37-148.61z" fill="url(#linearGradient21995)" stop-color="#000000" style="-inkscape-stroke:none;font-variation-settings:normal"/>
  <path d="m-21.655-193.8 202.37 148.61 202.37-148.61v22.391l-202.37 148.61-202.37-148.61z" fill="url(#linearGradient21997)"/>
  <path d="m-21.655-157.94 202.37 148.61 202.37-148.61v1.7412l-202.37 148.61-202.37-148.61z" fill="url(#linearGradient21999)" stop-color="#000000" style="-inkscape-stroke:none;font-variation-settings:normal;paint-order:stroke fill markers"/>
 </g>
 <path d="m63.922 84.572v17.255l24.869 18.263v-17.256z" fill="#7777e1" fill-opacity=".095564"/>
 <path d="m81.528 122.21v7.3084l61.347 45.211v-7.3084zm0 8.882v2.8215l61.347 45.211v-2.8215z" fill="url(#linearGradient35392)"/>
 <path d="m-36.294 74.612v4.2164l32.517 23.879v-4.2169z" fill="url(#linearGradient37083)"/>
 <path d="m51.224 82.955v10.332l79.677 58.512v-10.333z" fill="url(#linearGradient37280)"/>
 <path d="m-11.801 91.317v10.332l22.12 16.244v-3.5131zm26.322 26.149v3.5131l8.6541 6.3551v-3.5131zm10.748 7.8924v3.5131l9.088 6.6742v-3.5136zm15.462 11.355v3.5131l11.44 8.4016v-3.5136zm14.833 10.893v3.5136l7.0261 5.1595v-3.5136zm9.82 7.2111v3.5136l2.4921 1.8303v-3.5136z" fill="url(#linearGradient37849)"/>
 <g transform="matrix(.80688 0 0 .8075 33.142 84.597)" fill="none" stroke="#235dc6" stroke-width=".64985">
  <path d="m116.37 53.187v6.7346" stop-color="#000000" style="font-variation-settings:normal"/>
  <path d="m122.49 57.678v8.7187"/>
  <path d="m128.48 62.077v4.1961"/>
  <circle cx="116.42" cy="61.028" r="1.21" stop-color="#000000" style="font-variation-settings:normal;paint-order:stroke fill markers"/>
  <circle cx="122.45" cy="66.901" r=".64061" stop-color="#000000" style="font-variation-settings:normal;paint-order:stroke fill markers"/>
  <circle cx="128.5" cy="67.357" r="1.21" stop-color="#000000" style="font-variation-settings:normal;paint-order:stroke fill markers"/>
  <path d="m110.31 48.673v8.379"/>
  <circle cx="110.3" cy="58.084" r="1.21" stop-color="#000000" style="font-variation-settings:normal;paint-order:stroke fill markers"/>
 </g>
 <path d="m-57.726-8.7816 200.6 147.31 200.6-147.31v1.726l-200.6 147.31-200.6-147.31z" fill="url(#linearGradient69576)" stop-color="#000000" style="-inkscape-stroke:none;font-variation-settings:normal;paint-order:stroke fill markers"/>
 <path d="m208.66 104.89v15.633l-8.6326 6.3392v-15.633zm-11.186 8.2141v15.633l-17.364 12.752v-15.634zm-22.662 16.642-0.14497 15.74-10.891 7.9974-0.0189-15.619zm-15.059 11.059 0.20388 15.484-3.2877 2.4143v-15.634z" fill="url(#linearGradient53643)" stop-color="#000000" style="-inkscape-stroke:none;font-variation-settings:normal"/>
 <path d="m295.25 24.829v10.332l-22.12 16.244v-3.5131zm-26.322 26.149v3.5131l-8.6541 6.3551v-3.5131zm-10.748 7.8924v3.5131l-9.088 6.6742v-3.5136zm-15.462 11.355v3.5131l-11.44 8.4016v-3.5136zm-14.833 10.893v3.5136l-7.0261 5.1595v-3.5136zm-9.82 7.2111v3.5136l-2.4921 1.8303v-3.5136z" fill="url(#linearGradient53697)"/>
 <path d="m278.08 53.773v10.332l-79.677 58.512v-10.333z" fill="url(#linearGradient53804)"/>
 <path d="m204.22 122.21v7.3084l-61.347 45.211v-7.3084zm0 8.882v2.8215l-61.347 45.211v-2.8215z" fill="url(#linearGradient5163)"/>
</svg>
