<?xml version="1.0" encoding="UTF-8" standalone="no"?>
<svg
   width="1080"
   height="1920"
   version="1.1"
   viewBox="0 0 285.75 508"
   id="svg147"
   sodipodi:docname="1080x1920.svg"
   inkscape:version="1.3.2 (091e20ef0f, 2023-11-25)"
   xmlns:inkscape="http://www.inkscape.org/namespaces/inkscape"
   xmlns:sodipodi="http://sodipodi.sourceforge.net/DTD/sodipodi-0.dtd"
   xmlns:xlink="http://www.w3.org/1999/xlink"
   xmlns="http://www.w3.org/2000/svg"
   xmlns:svg="http://www.w3.org/2000/svg">
  <sodipodi:namedview
     id="namedview147"
     pagecolor="#505050"
     bordercolor="#ffffff"
     borderopacity="1"
     inkscape:showpageshadow="0"
     inkscape:pageopacity="0"
     inkscape:pagecheckerboard="1"
     inkscape:deskcolor="#505050"
     inkscape:zoom="0.17465278"
     inkscape:cx="526.75944"
     inkscape:cy="959.04573"
     inkscape:window-width="1280"
     inkscape:window-height="660"
     inkscape:window-x="0"
     inkscape:window-y="0"
     inkscape:window-maximized="1"
     inkscape:current-layer="svg147" />
  <defs
     id="defs91">
    <linearGradient
       id="linearGradient16905">
      <stop
         stop-color="#1b668f"
         offset="0"
         id="stop1" />
      <stop
         stop-color="#121c94"
         offset=".5"
         id="stop2" />
      <stop
         stop-color="#382279"
         offset="1"
         id="stop3" />
    </linearGradient>
    <linearGradient
       id="linearGradient78639">
      <stop
         stop-color="#2936ea"
         offset="0"
         id="stop4" />
      <stop
         stop-color="#164593"
         offset="1"
         id="stop5" />
    </linearGradient>
    <linearGradient
       id="linearGradient75480-3"
       x1="-21.655001"
       x2="1378.4"
       y1="110.14"
       y2="110.14"
       gradientTransform="matrix(0.60131014,0,0,0.60131014,-267.82275,-39.654924)"
       gradientUnits="userSpaceOnUse"
       xlink:href="#linearGradient16905" />
    <linearGradient
       id="linearGradient3595-6"
       x1="-21.656"
       x2="383.07999"
       y1="81.035004"
       y2="81.035004"
       gradientTransform="matrix(2.2726854,0,0,2.2726854,-267.82275,-64.596283)"
       gradientUnits="userSpaceOnUse">
      <stop
         stop-color="#51d677"
         stop-opacity=".47843"
         offset="0"
         id="stop6" />
      <stop
         stop-color="#eded84"
         stop-opacity=".32941"
         offset=".26488"
         id="stop7" />
      <stop
         stop-color="#a9ebf6"
         stop-opacity=".19951"
         offset=".49538"
         id="stop8" />
      <stop
         stop-color="#e9bf9d"
         stop-opacity=".35686"
         offset=".74191"
         id="stop9" />
      <stop
         stop-color="#5138aa"
         stop-opacity=".52157"
         offset="1"
         id="stop10" />
    </linearGradient>
    <linearGradient
       id="linearGradient21995-7"
       x1="-21.655001"
       x2="383.07999"
       y1="92.147003"
       y2="92.147003"
       gradientTransform="translate(0,-155.84)"
       gradientUnits="userSpaceOnUse">
      <stop
         stop-color="#445feb"
         offset="0"
         id="stop11" />
      <stop
         stop-color="#252fb5"
         offset=".5"
         id="stop12" />
      <stop
         stop-color="#9b53c1"
         offset="1"
         id="stop13" />
    </linearGradient>
    <linearGradient
       id="linearGradient21997-5"
       x1="-21.655001"
       x2="383.07999"
       y1="99.556"
       y2="99.556"
       gradientTransform="translate(0,-189.92)"
       gradientUnits="userSpaceOnUse">
      <stop
         stop-color="#3410ab"
         stop-opacity=".67526"
         offset="0"
         id="stop14" />
      <stop
         stop-color="#169bd6"
         offset=".5"
         id="stop15" />
      <stop
         stop-color="#0940a2"
         stop-opacity=".56984"
         offset="1"
         id="stop16" />
    </linearGradient>
    <linearGradient
       id="linearGradient21999-5"
       x1="-24.528"
       x2="386.16"
       y1="-24.045"
       y2="-24.045"
       gradientTransform="translate(0,-138.44)"
       gradientUnits="userSpaceOnUse">
      <stop
         stop-color="#6a5e19"
         offset="0"
         id="stop17" />
      <stop
         stop-color="#85751e"
         stop-opacity=".98824"
         offset=".14669"
         id="stop18" />
      <stop
         stop-color="#8c7b20"
         stop-opacity=".96863"
         offset=".30531"
         id="stop19" />
      <stop
         stop-color="#bda62c"
         stop-opacity=".95686"
         offset=".51079"
         id="stop20" />
      <stop
         stop-color="#82721e"
         stop-opacity=".94902"
         offset=".6231"
         id="stop21" />
      <stop
         stop-color="#968623"
         stop-opacity=".99608"
         offset=".83541"
         id="stop22" />
      <stop
         stop-color="#4e4412"
         stop-opacity=".92157"
         offset="1"
         id="stop23" />
    </linearGradient>
    <linearGradient
       id="linearGradient22001-2"
       x1="-21.655001"
       x2="1378.4"
       y1="110.14"
       y2="110.14"
       gradientTransform="matrix(0.26458,0,0,0.26458,0,-4.9003)"
       gradientUnits="userSpaceOnUse"
       xlink:href="#linearGradient16905" />
    <linearGradient
       id="linearGradient22003-9"
       x1="181.03999"
       x2="361.42001"
       y1="110.14"
       y2="110.14"
       gradientTransform="translate(0,-18.521)"
       gradientUnits="userSpaceOnUse"
       xlink:href="#linearGradient78639" />
    <linearGradient
       id="linearGradient22005-1"
       x1="-21.655001"
       x2="183.99001"
       y1="110.14"
       y2="110.14"
       gradientTransform="translate(0,-18.521)"
       gradientUnits="userSpaceOnUse">
      <stop
         stop-color="#2f38a6"
         offset="0"
         id="stop24" />
      <stop
         stop-color="#3d33eb"
         offset="1"
         id="stop25" />
    </linearGradient>
    <linearGradient
       id="linearGradient22007-2"
       x1="-82.440002"
       x2="1448.4"
       y1="345.51999"
       y2="345.51999"
       gradientTransform="scale(0.26458)"
       gradientUnits="userSpaceOnUse"
       xlink:href="#linearGradient1294-7" />
    <linearGradient
       id="linearGradient1294-7">
      <stop
         stop-color="#6a5e19"
         offset="0"
         id="stop26" />
      <stop
         stop-color="#d1b832"
         stop-opacity=".98824"
         offset=".14669"
         id="stop27" />
      <stop
         stop-color="#8c7b20"
         stop-opacity=".96863"
         offset=".30531"
         id="stop28" />
      <stop
         stop-color="#dbc865"
         stop-opacity=".95686"
         offset=".51079"
         id="stop29" />
      <stop
         stop-color="#82721e"
         stop-opacity=".94902"
         offset=".6231"
         id="stop30" />
      <stop
         stop-color="#968623"
         stop-opacity=".99608"
         offset=".83541"
         id="stop31" />
      <stop
         stop-color="#cfb530"
         stop-opacity=".92157"
         offset="1"
         id="stop32" />
    </linearGradient>
    <linearGradient
       id="linearGradient22009-0"
       x1="-21.655001"
       x2="383.07999"
       y1="92.147003"
       y2="92.147003"
       gradientTransform="translate(0,-18.521)"
       gradientUnits="userSpaceOnUse">
      <stop
         stop-color="#445feb"
         offset="0"
         id="stop33" />
      <stop
         stop-color="#4a55ed"
         offset=".5"
         id="stop34" />
      <stop
         stop-color="#9b53c1"
         offset="1"
         id="stop35" />
    </linearGradient>
    <linearGradient
       id="linearGradient22011-9"
       x1="-24.528"
       x2="386.16"
       y1="-24.045"
       y2="-24.045"
       gradientTransform="translate(0,-2.3527)"
       gradientUnits="userSpaceOnUse"
       xlink:href="#linearGradient1056-3" />
    <linearGradient
       id="linearGradient1056-3">
      <stop
         stop-color="#6a5e19"
         offset="0"
         id="stop36" />
      <stop
         stop-color="#85751e"
         stop-opacity=".98824"
         offset=".14669"
         id="stop37" />
      <stop
         stop-color="#a38f26"
         stop-opacity=".96863"
         offset=".30531"
         id="stop38" />
      <stop
         stop-color="#f5d737"
         stop-opacity=".95686"
         offset=".51079"
         id="stop39" />
      <stop
         stop-color="#968623"
         stop-opacity=".99608"
         offset=".83541"
         id="stop40" />
      <stop
         stop-color="#4e4412"
         stop-opacity=".92157"
         offset="1"
         id="stop41" />
    </linearGradient>
    <linearGradient
       id="linearGradient22013-6"
       x1="-21.655001"
       x2="383.07999"
       y1="99.556"
       y2="99.556"
       gradientTransform="translate(0,-59.037)"
       gradientUnits="userSpaceOnUse">
      <stop
         stop-color="#3410ab"
         stop-opacity=".67526"
         offset="0"
         id="stop42" />
      <stop
         stop-color="#2936e9"
         offset=".5"
         id="stop43" />
      <stop
         stop-color="#0940a2"
         stop-opacity=".56984"
         offset="1"
         id="stop44" />
    </linearGradient>
    <linearGradient
       id="linearGradient22015-0"
       x1="-24.528"
       x2="386.16"
       y1="-24.045"
       y2="-24.045"
       gradientTransform="translate(0,-44.553)"
       gradientUnits="userSpaceOnUse"
       xlink:href="#linearGradient17531-6" />
    <linearGradient
       id="linearGradient17531-6">
      <stop
         stop-color="#6a5e19"
         offset="0"
         id="stop45" />
      <stop
         stop-color="#85751e"
         stop-opacity=".98824"
         offset=".14669"
         id="stop46" />
      <stop
         stop-color="#8c7b20"
         stop-opacity=".96863"
         offset=".30531"
         id="stop47" />
      <stop
         stop-color="#d1b637"
         stop-opacity=".95686"
         offset=".51079"
         id="stop48" />
      <stop
         stop-color="#82721e"
         stop-opacity=".94902"
         offset=".6231"
         id="stop49" />
      <stop
         stop-color="#968623"
         stop-opacity=".99608"
         offset=".83541"
         id="stop50" />
      <stop
         stop-color="#4e4412"
         stop-opacity=".92157"
         offset="1"
         id="stop51" />
    </linearGradient>
    <linearGradient
       id="linearGradient22017-2"
       x1="253.56"
       x2="239.42"
       y1="147.00999"
       y2="130.45"
       gradientTransform="translate(0,-18.521)"
       gradientUnits="userSpaceOnUse">
      <stop
         stop-color="#28ead8"
         stop-opacity=".58819"
         offset="0"
         id="stop52" />
      <stop
         stop-color="#164593"
         stop-opacity=".023098"
         offset="1"
         id="stop53" />
    </linearGradient>
    <linearGradient
       id="linearGradient22019-6"
       x1="251.13"
       x2="241.25"
       y1="138.13"
       y2="126.04"
       gradientTransform="matrix(-1,0,0,1,361.42,-18.521)"
       gradientUnits="userSpaceOnUse">
      <stop
         stop-color="#dc29ea"
         stop-opacity=".68736"
         offset="0"
         id="stop54" />
      <stop
         stop-color="#164593"
         stop-opacity=".023098"
         offset="1"
         id="stop55" />
    </linearGradient>
    <linearGradient
       id="linearGradient24593-1"
       x1="181.03999"
       x2="361.42001"
       y1="110.14"
       y2="110.14"
       gradientTransform="matrix(2.2726854,0,0,2.2726854,-267.82275,-70.609506)"
       gradientUnits="userSpaceOnUse"
       xlink:href="#linearGradient78639" />
    <linearGradient
       id="linearGradient78325-8"
       x1="-21.655001"
       x2="183.99001"
       y1="110.14"
       y2="110.14"
       gradientTransform="matrix(2.2726854,0,0,2.2726854,-267.82275,-70.609506)"
       gradientUnits="userSpaceOnUse">
      <stop
         stop-color="#2e3476"
         offset="0"
         id="stop56" />
      <stop
         stop-color="#3d33eb"
         offset="1"
         id="stop57" />
    </linearGradient>
    <linearGradient
       id="linearGradient87990-7"
       x1="-82.440002"
       x2="1448.4"
       y1="345.51999"
       y2="345.51999"
       gradientTransform="matrix(0.60131014,0,0,0.60131014,-267.82275,-28.518159)"
       gradientUnits="userSpaceOnUse"
       xlink:href="#linearGradient1294-7" />
    <linearGradient
       id="linearGradient25753-9"
       x1="-21.655001"
       x2="383.07999"
       y1="92.147003"
       y2="92.147003"
       gradientTransform="matrix(2.2726854,0,0,2.2726854,-267.82275,-70.609506)"
       gradientUnits="userSpaceOnUse">
      <stop
         stop-color="#4465eb"
         offset="0"
         id="stop58" />
      <stop
         stop-color="#46a7e1"
         offset=".5"
         id="stop59" />
      <stop
         stop-color="#6b50c1"
         offset="1"
         id="stop60" />
    </linearGradient>
    <linearGradient
       id="linearGradient25219-2"
       x1="-24.528"
       x2="386.16"
       y1="-24.045"
       y2="-24.045"
       gradientTransform="matrix(2.2726854,0,0,2.2726854,-267.82275,-33.864727)"
       gradientUnits="userSpaceOnUse"
       xlink:href="#linearGradient1056-3" />
    <linearGradient
       id="linearGradient14910-0"
       x1="253.56"
       x2="239.42"
       y1="147.00999"
       y2="130.45"
       gradientTransform="matrix(2.2726854,0,0,2.2726854,-267.82275,-70.609506)"
       gradientUnits="userSpaceOnUse">
      <stop
         stop-color="#e06fea"
         stop-opacity=".39011"
         offset="0"
         id="stop61" />
      <stop
         stop-color="#164593"
         stop-opacity=".023098"
         offset="1"
         id="stop62" />
    </linearGradient>
    <linearGradient
       id="linearGradient15720-2"
       x1="251.13"
       x2="241.25"
       y1="138.13"
       y2="126.04"
       gradientTransform="matrix(-2.2726854,0,0,2.2726854,553.56819,-70.609506)"
       gradientUnits="userSpaceOnUse">
      <stop
         stop-color="#dc29ea"
         stop-opacity=".18321"
         offset="0"
         id="stop63" />
      <stop
         stop-color="#164593"
         stop-opacity=".023098"
         offset="1"
         id="stop64" />
    </linearGradient>
    <linearGradient
       id="linearGradient35006-37"
       x1="542.26001"
       x2="409.85999"
       y1="531.52002"
       y2="437.69"
       gradientTransform="matrix(0.60131014,0,0,0.60131014,-267.82275,-64.596283)"
       gradientUnits="userSpaceOnUse">
      <stop
         stop-color="#9e80dc"
         stop-opacity=".08"
         offset="0"
         id="stop65" />
      <stop
         stop-color="#9e80dc"
         stop-opacity="0"
         offset="1"
         id="stop66" />
    </linearGradient>
    <linearGradient
       id="linearGradient35006-3-5"
       x1="542.26001"
       x2="409.85999"
       y1="531.52002"
       y2="437.69"
       gradientTransform="matrix(-0.60131014,0,0,0.60131014,770.3036,-220.3716)"
       gradientUnits="userSpaceOnUse">
      <stop
         stop-color="#9e80dc"
         stop-opacity=".12323"
         offset="0"
         id="stop67" />
      <stop
         stop-color="#9e80dc"
         stop-opacity="0"
         offset="1"
         id="stop68" />
    </linearGradient>
    <linearGradient
       id="linearGradient26562-9"
       x1="-21.655001"
       x2="383.07999"
       y1="99.556"
       y2="99.556"
       gradientTransform="matrix(2.2726854,0,0,2.2726854,-267.82275,-162.68781)"
       gradientUnits="userSpaceOnUse">
      <stop
         stop-color="#0031b6"
         offset="0"
         id="stop69" />
      <stop
         stop-color="#255cc7"
         offset=".5"
         id="stop70" />
      <stop
         stop-color="#3d3dd3"
         offset="1"
         id="stop71" />
    </linearGradient>
    <linearGradient
       id="linearGradient34063-2"
       x1="79.735001"
       x2="21.187"
       y1="42.158001"
       y2="1.0037"
       gradientTransform="matrix(2.2726854,0,0,2.2726854,-267.82275,-64.596283)"
       gradientUnits="userSpaceOnUse">
      <stop
         stop-color="#9e7fdc"
         stop-opacity=".1"
         offset="0"
         id="stop72" />
      <stop
         stop-color="#9e7fdc"
         stop-opacity="0"
         offset="1"
         id="stop73" />
    </linearGradient>
    <linearGradient
       id="linearGradient53858-2"
       x1="79.735001"
       x2="21.187"
       y1="42.158001"
       y2="1.0037"
       gradientTransform="matrix(-2.2726854,0,0,2.2726854,356.92939,197.88737)"
       gradientUnits="userSpaceOnUse">
      <stop
         stop-color="#7fdcdb"
         stop-opacity=".07"
         offset="0"
         id="stop74" />
      <stop
         stop-color="#9e7fdc"
         stop-opacity="0"
         offset="1"
         id="stop75" />
    </linearGradient>
    <linearGradient
       id="linearGradient35392-8"
       x1="654.09003"
       x2="409.85999"
       y1="615.35999"
       y2="437.69"
       gradientTransform="matrix(0.60131014,0,0,0.60131014,-250.39277,-129.60963)"
       gradientUnits="userSpaceOnUse">
      <stop
         stop-color="#b1cdef"
         stop-opacity=".26275"
         offset="0"
         id="stop76" />
      <stop
         stop-color="#9e80dc"
         stop-opacity="0"
         offset="1"
         id="stop77" />
    </linearGradient>
    <linearGradient
       id="linearGradient37083-9"
       x1="32.688"
       x2="-4.3074002"
       y1="61.359001"
       y2="35.59"
       gradientTransform="matrix(2.2726854,0,0,2.2726854,-267.82275,-64.596283)"
       gradientUnits="userSpaceOnUse">
      <stop
         stop-color="#a9e3ed"
         stop-opacity=".05"
         offset="0"
         id="stop78" />
      <stop
         stop-color="#a9e3ed"
         stop-opacity="0"
         offset="1"
         id="stop79" />
    </linearGradient>
    <linearGradient
       id="linearGradient37280-7"
       x1="32.688"
       x2="-4.3074002"
       y1="61.359001"
       y2="35.59"
       gradientTransform="matrix(5.5688672,0,0,5.5688672,-67.05796,-163.97263)"
       gradientUnits="userSpaceOnUse">
      <stop
         stop-color="#60cbde"
         stop-opacity=".059582"
         offset="0"
         id="stop80" />
      <stop
         stop-color="#a9e3ed"
         stop-opacity="0"
         offset="1"
         id="stop81" />
    </linearGradient>
    <linearGradient
       id="linearGradient37849-3"
       x1="32.688"
       x2="-4.3074002"
       y1="61.359001"
       y2="35.59"
       gradientTransform="matrix(5.5688672,0,0,5.5688672,-211.55712,-144.79723)"
       gradientUnits="userSpaceOnUse">
      <stop
         stop-color="#84b0b8"
         stop-opacity=".05"
         offset="0"
         id="stop82" />
      <stop
         stop-color="#a9e3ed"
         stop-opacity="0"
         offset="1"
         id="stop83" />
    </linearGradient>
    <linearGradient
       id="linearGradient69576-6"
       x1="-24.528"
       x2="386.16"
       y1="-24.045"
       y2="-24.045"
       gradientTransform="matrix(2.2726854,0,0,2.2726854,-267.82275,-129.7672)"
       gradientUnits="userSpaceOnUse"
       xlink:href="#linearGradient17531-6" />
    <linearGradient
       id="linearGradient53643-1"
       x1="79.735001"
       x2="21.187"
       y1="42.158001"
       y2="1.0037"
       gradientTransform="matrix(-2.2726854,0,0,2.2726854,357.6324,95.294109)"
       gradientUnits="userSpaceOnUse">
      <stop
         stop-color="#dc7fdc"
         stop-opacity=".08"
         offset="0"
         id="stop84" />
      <stop
         stop-color="#9e7fdc"
         stop-opacity="0"
         offset="1"
         id="stop85" />
    </linearGradient>
    <linearGradient
       id="linearGradient53697-2"
       x1="32.688"
       x2="-4.3074002"
       y1="61.359001"
       y2="35.59"
       gradientTransform="matrix(-5.5688672,0,0,5.5688672,492.01781,-297.24291)"
       gradientUnits="userSpaceOnUse">
      <stop
         stop-color="#a9e3ed"
         stop-opacity=".06"
         offset="0"
         id="stop86" />
      <stop
         stop-color="#a9e3ed"
         stop-opacity="0"
         offset="1"
         id="stop87" />
    </linearGradient>
    <linearGradient
       id="linearGradient53804-9"
       x1="32.688"
       x2="-4.3074002"
       y1="61.359001"
       y2="35.59"
       gradientTransform="matrix(-5.5688672,0,0,5.5688672,452.66096,-230.88049)"
       gradientUnits="userSpaceOnUse">
      <stop
         stop-color="#dd83f2"
         stop-opacity=".12549"
         offset="0"
         id="stop88" />
      <stop
         stop-color="#a9e3ed"
         stop-opacity="0"
         offset="1"
         id="stop89" />
    </linearGradient>
    <linearGradient
       id="linearGradient5163-3"
       x1="654.09003"
       x2="409.85999"
       y1="615.35999"
       y2="437.69"
       gradientTransform="matrix(-0.60131014,0,0,0.60131014,536.13821,-129.60963)"
       gradientUnits="userSpaceOnUse">
      <stop
         stop-color="#b1cdef"
         stop-opacity=".14678"
         offset="0"
         id="stop90" />
      <stop
         stop-color="#9e80dc"
         stop-opacity="0"
         offset="1"
         id="stop91" />
    </linearGradient>
    <linearGradient
       inkscape:collect="always"
       xlink:href="#linearGradient21995-7"
       id="linearGradient147"
       gradientUnits="userSpaceOnUse"
       gradientTransform="translate(0,-155.84)"
       x1="-21.655001"
       y1="92.147003"
       x2="383.07999"
       y2="92.147003" />
    <linearGradient
       inkscape:collect="always"
       xlink:href="#linearGradient21997-5"
       id="linearGradient148"
       gradientUnits="userSpaceOnUse"
       gradientTransform="translate(0,-189.92)"
       x1="-21.655001"
       y1="99.556"
       x2="383.07999"
       y2="99.556" />
    <linearGradient
       inkscape:collect="always"
       xlink:href="#linearGradient21999-5"
       id="linearGradient149"
       gradientUnits="userSpaceOnUse"
       gradientTransform="translate(0,-138.44)"
       x1="-24.528"
       y1="-24.045"
       x2="386.16"
       y2="-24.045" />
    <linearGradient
       inkscape:collect="always"
       xlink:href="#linearGradient21995-7"
       id="linearGradient150"
       gradientUnits="userSpaceOnUse"
       gradientTransform="translate(0,-155.84)"
       x1="-21.655001"
       y1="92.147003"
       x2="383.07999"
       y2="92.147003" />
    <linearGradient
       inkscape:collect="always"
       xlink:href="#linearGradient21997-5"
       id="linearGradient151"
       gradientUnits="userSpaceOnUse"
       gradientTransform="translate(0,-189.92)"
       x1="-21.655001"
       y1="99.556"
       x2="383.07999"
       y2="99.556" />
    <linearGradient
       inkscape:collect="always"
       xlink:href="#linearGradient21999-5"
       id="linearGradient152"
       gradientUnits="userSpaceOnUse"
       gradientTransform="translate(0,-138.44)"
       x1="-24.528"
       y1="-24.045"
       x2="386.16"
       y2="-24.045" />
    <linearGradient
       inkscape:collect="always"
       xlink:href="#linearGradient21995-7"
       id="linearGradient153"
       gradientUnits="userSpaceOnUse"
       gradientTransform="translate(0,-155.84)"
       x1="-21.655001"
       y1="92.147003"
       x2="383.07999"
       y2="92.147003" />
    <linearGradient
       inkscape:collect="always"
       xlink:href="#linearGradient21997-5"
       id="linearGradient154"
       gradientUnits="userSpaceOnUse"
       gradientTransform="translate(0,-189.92)"
       x1="-21.655001"
       y1="99.556"
       x2="383.07999"
       y2="99.556" />
    <linearGradient
       inkscape:collect="always"
       xlink:href="#linearGradient21999-5"
       id="linearGradient155"
       gradientUnits="userSpaceOnUse"
       gradientTransform="translate(0,-138.44)"
       x1="-24.528"
       y1="-24.045"
       x2="386.16"
       y2="-24.045" />
  </defs>
  <rect
     width="285.75"
     height="507.99997"
     fill="#1b1e20"
     stop-color="#000000"
     style="font-variation-settings:normal;stroke-width:1;-inkscape-stroke:none;paint-order:stroke fill markers"
     id="rect91"
     x="7.1054274e-15"
     y="1.5258789e-05" />
  <path
     d="m -317.04609,-79.421465 v 47.542156 L 117.9156,287.53299 142.87272,340.21081 167.82984,287.53299 602.79153,-31.879309 V -79.421465 L 142.87272,258.31777 Z"
     fill="url(#linearGradient75480-3)"
     stop-color="#000000"
     style="font-variation-settings:normal;fill:url(#linearGradient75480-3);stroke-width:1;-inkscape-stroke:none"
     id="path91" />
  <path
     d="m -361.8089,-28.593309 c 0,0 24.62985,51.224511 114.97243,46.765199 12.90643,-0.637042 27.15344,-2.410501 42.86103,-5.632017 94.24917,-19.3293408 128.252185,50.471798 152.882035,115.740897 8.208818,21.75718 15.375474,43.01012 23.385024,60.29101 23.0104855,49.65 80.353672,110.85857 143.330691,138.85805 37.78476,16.79848 77.59736,21.64082 113.23671,4.85592 30.36671,-14.30156 36.2866,-31.64185 35.05632,-47.787 -1.23004,-16.14516 -9.61037,-31.09398 -7.84579,-40.61138 4.56452,-24.61773 22.30504,-27.67343 40.11441,-26.01891 29.68188,2.75692 59.55163,18.59844 28.92553,-30.48429 -9.51328,-15.24699 -14.23853,-28.96189 -15.81668,-41.06349 -4.73519,-36.30721 18.84571,-58.101961 26.40315,-63.208531 9.94333,-6.71891 21.59475,-11.76706 34.49149,-15.55123 90.27833,-26.489208 241.60767,8.95172 295.65516,-33.263628 M -358.53853,-30.238491 c 2.18153,0.682533 26.47587,53.138416 114.15305,50.835428 12.51492,-0.196118 26.39951,-1.567487 41.75923,-4.408646 92.15467,-17.04695885 127.682496,50.331198 153.524445,112.919139 8.517903,20.90506 16.128188,41.50953 24.577729,58.38801 C -0.49300325,235.96 57.05624,296.51162 118.92783,324.802 c 37.12053,16.97545 75.95133,22.44444 110.41494,6.84667 29.27461,-12.9428 34.23209,-28.9122 31.57032,-44.16646 -2.66116,-15.25427 -11.96087,-31.60791 -10.05399,-42.72043 4.58112,-25.32802 22.72806,-29.71703 42.13134,-28.61159 31.27458,2.09862 63.60368,16.77666 35.68904,-31.43821 -8.50469,-15.02154 -12.5828,-28.51705 -13.97671,-40.38471 -3.72623,-35.9351 17.79604,-58.418321 25.46014,-63.955191 9.71982,-6.62764 21.14749,-11.61094 33.85392,-15.339112 90.2844,-26.144973 236.68655,5.159302 289.23104,-35.882976 M -355.26672,-31.886461 c 4.36295,1.365066 28.32312,55.051108 113.33368,54.904444 12.12341,0.244808 25.6468,-0.72452 40.65622,-3.185275 90.06137,-14.7645758 127.12493,50.191801 154.154736,110.097372 8.82711,20.05417 16.879689,40.00896 25.771647,56.48502 25.0528717,47.27913 82.80696,107.17378 143.573117,135.75507 36.45751,17.15242 74.3053,23.24806 107.59317,8.83754 28.18372,-11.58415 32.17638,-26.18376 28.08433,-40.54592 -4.09205,-14.36216 -14.31125,-32.12062 -12.2628,-44.82948 4.59773,-26.03952 23.15108,-31.76063 44.14827,-31.20427 32.86728,1.44021 67.65573,14.95487 42.45256,-32.39213 -7.49611,-14.7961 -10.92647,-28.07343 -12.13675,-39.70715 -2.71728,-35.5642 16.74636,-58.734681 24.51712,-64.701841 9.49643,-6.53637 20.70144,-11.454821 33.21515,-15.126996 90.29046,-25.799525 231.76543,1.366884 282.80691,-38.503534 M -352.00738,-33.540733 c 6.54448,2.047598 30.17035,56.965012 112.5155,58.974672 11.73288,0.685732 24.89288,0.11847 39.55443,-1.961904 87.96807,-12.482194 126.555243,50.051204 154.797147,107.275605 9.136317,19.20207 17.632403,38.50838 26.965565,54.58202 26.0734591,46.09249 84.033604,105.3314 143.694328,134.21571 35.79328,17.32938 72.66048,24.05168 104.77261,10.82829 27.09163,-10.22587 30.12066,-23.45411 24.59713,-36.92538 -5.52354,-13.47127 -16.66152,-32.63455 -14.47004,-46.93853 4.61434,-26.75102 23.57411,-33.80544 46.16521,-33.79695 34.46118,0.7818 71.70777,13.13309 49.21606,-33.34727 -6.48751,-14.57064 -9.27073,-27.62858 -10.29653,-39.02837 -1.70834,-35.19208 15.69668,-59.051041 23.57411,-65.448491 9.27304,-6.44522 20.25538,-11.298584 32.57758,-14.914881 90.29531,-25.455289 226.84431,-2.425653 276.38279,-41.12288 M -348.74296,-35.186885 c 8.7259,2.730132 32.0176,58.878916 111.69613,63.0449 11.34173,1.12667 24.13895,0.961449 38.45141,-0.73858 85.87479,-10.200176 125.997683,49.911804 155.439566,104.453835 9.445402,18.35118 18.383904,37.0078 28.159481,52.67903 27.095259,44.90705 85.260249,103.489 143.815533,132.66423 35.13026,17.50634 71.01445,24.8553 101.95085,12.81915 26.00074,-8.86747 28.06615,-20.72446 21.11113,-33.30484 -6.9549,-12.58037 -19.01177,-33.14727 -16.67848,-49.04758 4.63094,-27.46131 23.99713,-35.84904 48.18335,-36.38963 36.05389,0.12342 75.75982,11.31179 55.97958,-34.30119 -5.47893,-14.34519 -7.61501,-27.18495 -8.45657,-38.3496 -0.69941,-34.82117 14.64579,-59.367391 22.6311,-66.195141 9.04965,-6.353946 19.80812,-11.142464 31.94001,-14.70155 C 475.7815,32.335096 607.40332,51.228082 655.4388,13.702712 M -345.47611,-36.835751 c 10.90744,3.412664 33.86362,60.79282 110.87675,67.115128 10.95071,1.567607 23.38502,1.804451 37.34961,0.484779 83.78149,-7.917915 125.427999,49.771203 156.08198,101.632074 9.754609,17.49907 19.136618,35.50722 29.353399,50.77482 28.115846,43.72162 86.486893,101.64661 143.924621,131.11274 34.46604,17.68331 69.36963,25.65892 99.12909,14.80942 24.90863,-7.50907 26.01043,-17.99482 17.62392,-29.68551 -8.38603,-11.68973 -21.36325,-33.6612 -18.88693,-51.15664 4.64755,-28.17281 24.41894,-37.89263 50.20029,-38.98231 37.64658,-0.53497 79.81186,9.49001 62.74309,-35.25511 -4.47035,-14.12095 -5.95929,-26.74011 -6.61661,-37.67082 0.30955,-34.44906 13.59611,-59.683751 21.68687,-66.941801 8.82627,-6.262672 19.36207,-10.986342 31.30246,-14.489429 C 479.59864,30.145985 606.28237,44.900986 652.82697,8.5488072 M -342.20926,-38.489115 c 13.08946,4.095197 35.71086,62.705512 110.05737,71.185356 10.55956,2.008569 22.63231,2.647467 36.24661,1.70809 81.68698,-5.635654 124.858303,49.631818 156.724383,98.810299 10.063815,16.64818 19.888119,34.00665 30.5473163,48.87183 29.1376457,42.53619 87.7135367,99.80423 144.0458307,129.57337 33.8018,17.86028 67.7236,26.46255 96.30732,16.80091 23.81774,-6.15068 23.95471,-15.26639 14.13792,-26.06498 -9.81727,-10.79859 -23.7135,-34.17513 -21.09537,-53.26568 4.66428,-28.88432 24.84197,-39.93624 52.21722,-41.575 39.24049,-1.19334 83.8627,7.66835 69.5066,-36.20903 -3.46175,-13.8955 -4.30355,-26.29527 -4.77664,-36.99204 1.31852,-34.07695 12.54644,-60.000111 20.74386,-67.688451 8.60288,-6.171405 18.91602,-10.830229 30.66489,-14.277317 C 483.43033,27.966874 605.18688,38.58486 650.22847,3.4061142 M -338.9412,-40.132479 c 15.27002,4.777731 37.5581,64.619417 109.2392,75.255585 10.16854,2.449409 21.87839,3.49036 35.1436,2.931461 79.59369,-3.353393 124.300742,49.492422 157.354679,95.987323 10.3729,15.79607 20.640832,32.50607 31.7412335,46.96883 30.1582325,41.35076 88.9401805,97.96184 144.1670475,128.02189 33.13878,18.03724 66.07757,27.26616 93.48555,18.79117 22.72564,-4.79228 21.9002,-12.53674 10.65144,-22.44444 -11.24852,-9.90757 -26.06376,-34.68784 -23.30382,-55.37473 4.68089,-29.59582 25.26499,-41.98105 54.23416,-44.16768 40.83319,-1.85172 87.91474,5.84656 76.27011,-37.16295 -2.45317,-13.67005 -2.64783,-25.85164 -2.9368,-36.31448 2.32748,-33.706051 11.49604,-60.316471 19.80085,-68.435106 8.37948,-6.080131 18.46875,-10.674107 30.02733,-14.065196 90.31834,-24.077133 207.1477,-17.59604 250.68629,-51.6026858 M -335.68344,-41.782751 c 17.4518,5.460263 39.40534,66.53332 108.41982,79.3246 9.7774,2.890371 21.12446,4.333375 34.0418,4.154833 77.50039,-1.071156 123.731057,49.351817 157.997092,93.165558 10.682107,14.94518 21.392334,31.0067 32.9351518,45.06584 31.1800322,40.16411 90.1668252,96.11944 144.2882562,126.4704 32.47455,18.21421 64.43275,28.06978 90.66378,20.78264 21.63476,-3.43399 19.84449,-9.80721 7.16496,-18.82389 -12.67952,-9.01668 -28.41402,-35.20178 -25.51226,-57.48379 4.69749,-30.30611 25.68802,-44.02465 56.2523,-46.75914 42.42589,-2.51014 91.96679,4.02477 83.03362,-38.11809 -1.44457,-13.4446 -0.99207,-25.4068 -1.0968,-35.6357 3.33642,-33.333941 10.44611,-60.632831 18.85784,-69.181763 8.15609,-5.988859 18.02269,-10.517867 29.38976,-13.853078 C 491.07506,23.593985 602.97846,25.938184 645.01405,-6.8963628 M -332.42251,-43.436297 c 19.63358,6.142796 41.25137,68.447225 107.60045,83.394829 9.38637,3.331332 20.37174,5.176389 32.93879,5.378204 75.40709,1.211093 123.173486,49.212423 158.6395,90.343794 10.991313,14.09307 22.145047,29.50612 34.12906866,43.16284 C 33.085918,217.82205 92.278768,273.11921 145.29476,303.7744 c 31.81033,18.39118 62.78672,28.87341 87.84323,22.77292 20.54266,-2.0756 17.78998,-7.07793 3.67848,-15.20336 -14.11125,-8.12542 -30.76428,-35.71449 -27.7207,-59.59163 4.71409,-31.01761 26.11103,-46.06824 58.26923,-49.35182 44.0198,-3.16855 96.01884,2.20299 89.79713,-39.07201 -0.43595,-13.22036 0.66366,-24.96317 0.74314,-34.95693 4.34538,-32.963031 9.39607,-60.949181 17.91482,-69.928409 7.93271,-5.897588 17.57665,-10.361748 28.75099,-13.640961 90.32925,-23.387448 197.30546,-25.180142 237.83805,-56.84259 m -971.57,-33.040604 c 21.81536,6.825451 43.0986,70.361129 106.78107,87.465057 8.99522,3.772173 19.61782,6.019404 31.83699,6.601575 73.3138,3.493391 122.6038,49.071821 159.281913,87.522022 11.300398,13.24219 22.8965477,28.00555 35.3229857,41.25985 33.2224183,37.79324 92.6201133,92.43345 144.5306713,123.37955 31.14731,18.56814 61.14069,29.67703 85.02147,24.76439 19.45176,-0.71719 15.73425,-4.34853 0.19198,-11.58294 -15.54274,-7.23429 -33.11454,-36.22842 -29.92793,-61.70068 4.7307,-31.72911 26.53405,-48.11184 60.28616,-51.9445 45.61249,-3.82684 100.07089,0.38127 96.56065,-40.02593 0.57263,-12.99491 2.31935,-24.51833 2.5831,-34.27816 5.35421,-32.590911 8.34603,-61.265535 16.97181,-70.675059 7.70931,-5.806317 17.12938,-10.20563 28.11342,-13.427631 90.3341,-23.042 192.38434,-28.9728 231.41392,-59.461936 M -325.89609,-46.72666 c 23.99592,7.507983 44.94584,72.273821 105.9629,91.535284 8.6042,4.213135 18.86389,6.862298 30.73398,7.824947 71.21929,5.775651 122.046234,48.932429 159.924324,84.700259 11.609605,12.39008 23.6492621,26.50497 36.516904,39.35685 34.243006,36.60781 93.846762,90.59106 144.651882,121.82806 30.48308,18.74511 59.49588,30.48065 82.1997,26.75466 18.35966,0.64119 13.67854,-1.61924 -3.29449,-7.96252 -16.97302,-6.34328 -35.46601,-36.74114 -32.13637,-63.80973 4.7473,-32.43941 26.95586,-50.15544 62.30309,-54.53718 47.20519,-4.48525 104.12293,-1.44046 103.32416,-40.97985 1.58118,-12.76946 3.97508,-24.07471 4.42307,-33.59938 6.36316,-32.220021 7.29599,-61.581901 16.0288,-71.422932 7.48592,-5.715047 16.68333,-10.049512 27.47585,-13.215515 90.34016,-22.697764 187.4511,-32.7654568 224.97768,-62.081281 m -959.82475,-26.041945 c 26.1777,8.190516 46.79307,74.187725 105.14351,95.605513 8.21307,4.654096 18.10997,7.705312 29.63219,9.048318 69.126,8.057791 121.476548,48.791832 160.554617,81.878492 11.918811,11.53882 24.4007628,25.00439 37.710821,37.45386 35.264805,35.42116 95.073402,88.74867 144.773092,120.28506 29.81885,18.92207 57.84984,31.28427 79.37793,28.74492 17.26878,1.9996 11.62367,1.11013 -6.78096,-4.3421 -18.40451,-5.45226 -37.81628,-37.25507 -34.34483,-65.91879 4.76404,-33.1509 27.37889,-52.20025 64.32125,-57.12985 48.7991,-5.14367 108.17497,-3.26225 110.08767,-41.93378 2.58977,-12.54401 5.6308,-23.62987 6.26291,-32.92182 7.37211,-31.847891 6.24595,-61.898251 15.08578,-72.169578 7.26254,-5.623775 16.23728,-9.893393 26.8383,-13.003397 90.345,-22.353527 182.52997,-36.55811385 218.55355,-64.701839 m -953.9582,-22.541403 c 28.35948,8.873049 48.63911,76.101629 104.32414,99.674529 7.82192,5.095058 17.35726,8.548327 28.52917,10.27169 67.03271,10.340047 120.910506,48.652438 161.197037,79.056728 12.227654,10.68732 25.1534768,23.50381 38.903527,35.55086 36.285392,34.23573 96.300046,86.90628 144.894306,118.73721 29.15582,19.09904 56.20502,32.0891 76.55616,30.7364 16.17667,3.358 9.56843,3.83945 -10.26744,-0.72166 -19.836,-4.56113 -40.16654,-37.769 -36.55327,-68.02784 4.78064,-33.8624 27.80191,-54.24385 66.33817,-59.72253 50.3918,-5.80208 112.22703,-5.08403 116.85118,-42.8877 3.59836,-12.31856 7.28666,-23.18624 8.10289,-32.24304 8.38105,-31.477001 5.1959,-62.214615 14.14277,-72.916236 7.03914,-5.532504 15.79001,-9.737154 26.20072,-12.79128 C 510.1987,12.685725 597.45649,-5.6569678 631.97706,-32.62738 m -948.09164,-19.042074 c 30.54126,9.555582 50.48635,78.015533 103.50477,103.744757 7.43089,5.535898 16.60333,9.391342 27.42616,11.495061 64.93941,12.622795 120.346874,48.513046 161.839443,76.233746 12.536739,9.83582 25.9061899,22.00323 40.097444,33.64787 37.307192,33.0503 97.526693,85.06389 145.015513,117.18936 28.4916,19.27601 54.55899,32.89272 73.7344,32.72667 15.08578,4.71627 7.51307,6.56885 -13.75369,2.89873 -21.26748,-3.67011 -42.51679,-38.28172 -38.76171,-70.13689 4.79725,-34.57391 28.22494,-56.28745 68.35511,-62.31522 51.9845,-6.46048 116.27786,-6.90581 123.60984,-43.84283 4.60695,-12.09383 8.94238,-22.74139 9.94285,-31.56426 9.39001,-31.104881 4.14586,-62.530974 13.19976,-73.66289 6.81575,-5.441233 15.34396,-9.581036 25.56316,-12.579163 C 514.0156,10.501644 596.3462,-11.97673 629.36378,-37.775043 M -312.8613,-53.317788 c 32.72182,10.238115 52.33358,79.928226 102.68659,107.814985 7.03975,5.97686 15.84941,10.234236 26.32437,12.718552 62.84611,14.90518 119.782034,48.372451 162.481854,73.411981 12.8458245,8.98432 26.6576915,20.50266 41.291361,31.74487 38.32778,31.86487 98.754545,83.2215 145.136725,115.64272 27.82858,19.45298 52.91296,33.69635 70.91384,34.71815 13.99369,6.07468 5.45784,9.29813 -17.24089,6.51916 -22.69776,-2.77898 -44.86705,-38.79565 -40.97016,-72.24595 4.81386,-35.2842 28.64796,-58.33104 70.37204,-64.90789 53.57841,-7.11878 120.32991,-8.72748 130.37336,-44.79675 5.61553,-11.86863 10.59811,-22.29778 11.78281,-30.8855 10.39896,-30.732761 3.09583,-62.847325 12.25675,-74.409537 6.59236,-5.349962 14.8979,-9.424917 24.92439,-12.365833 90.36197,-21.3183948 167.76661,-47.934875 199.28118,-72.561088 M -309.6056,-54.963454 c 34.9036,10.920647 54.18082,81.84213 101.86721,111.885213 6.64873,6.417821 15.09669,11.07725 25.22136,13.94156 60.7516,17.18635 119.217195,48.233051 163.124266,70.590221 13.1549089,8.13282 27.4104041,19.00207 42.485278,29.84066 39.349579,30.67944 99.981186,81.37911 145.257936,114.09487 27.16434,19.62994 51.26814,34.49997 68.09208,36.70841 12.90279,7.43308 3.4026,12.02754 -20.72689,10.13958 -24.12926,-1.88797 -47.21853,-39.30837 -43.1786,-74.355 4.83045,-35.9957 29.07098,-60.37465 72.39018,-67.50057 55.1711,-7.7772 124.38559,-10.54927 137.13687,-45.75068 6.62412,-11.64342 12.25432,-21.85293 13.62278,-30.20671 11.40791,-30.361871 2.04578,-63.163691 11.31312,-75.156198 6.36886,-5.258691 14.45186,-9.268799 24.28683,-12.153716 90.36803,-20.9741588 162.83336,-51.727532 192.85705,-75.180434 m -930.49196,-8.544085 c 37.08538,11.60318 56.02685,83.756034 101.04784,115.955441 6.25758,6.858783 14.34276,11.920261 24.11955,15.164571 58.65832,19.46873 118.652366,48.092451 163.754566,67.768451 13.4652067,7.28132 28.161906,17.50149 43.679196,27.93767 40.370166,29.49279 101.207838,79.53671 145.379138,112.54701 26.50012,19.80691 49.62212,35.3036 65.27032,38.6999 11.81069,8.79147 1.34737,14.7573 -24.21289,13.75975 -25.56026,-0.99756 -49.56878,-39.8223 -45.38583,-76.46405 4.84706,-36.7072 29.49279,-62.41946 74.40711,-70.09204 56.76381,-8.43561 128.434,-12.37069 143.90039,-46.7046 7.6327,-11.41821 13.91004,-21.4093 15.46274,-29.52915 12.41674,-29.989751 0.99579,-63.480048 10.37011,-75.902849 6.14559,-5.167542 14.00459,-9.11256 23.64926,-11.941841 90.37289,-20.6299228 157.91225,-55.52019 186.43294,-77.800992 m -924.61329,-5.044635 c 39.26716,12.285835 57.87409,85.669938 100.22846,120.024458 5.86656,7.299618 13.58884,12.763398 23.01655,16.388788 56.56502,21.75112 118.087521,47.953061 164.396972,64.946681 13.7742916,6.42983 28.914619,16.00213 44.873113,26.03468 41.391965,28.30735 102.434475,77.69432 145.500355,110.99917 25.8371,19.98266 47.9773,36.10721 62.44854,40.69016 10.7192,10.14987 -0.70789,17.48573 -27.70009,17.38028 -26.99223,-0.10581 -51.91905,-40.33623 -47.59428,-78.5731 4.86367,-37.41749 29.91582,-64.46305 76.42405,-72.68472 58.35771,-9.09401 132.48241,-14.19247 150.66389,-47.65852 8.6413,-11.193 15.56578,-20.96446 17.30272,-28.85037 13.4252,-29.618851 -0.0543,-63.796407 9.42697,-76.649504 5.92208,-5.07627 13.55854,-8.956441 23.0117,-11.729481 90.37894,-20.2844748 152.99112,-59.312848 180.00881,-80.420338 m -918.74673,-1.545062 c 41.44773,12.968246 59.72133,87.58263 99.4103,124.094685 5.47541,7.740589 12.83612,13.605809 21.91474,17.611799 54.47173,24.033491 117.522689,47.812451 165.03939,62.124911 14.08337744,5.57833 29.666121,14.50156 46.067031,24.13168 42.412553,27.12193 103.661119,75.85194 145.621559,109.45132 25.17287,20.15963 46.33127,36.91084 59.62678,42.68043 9.62771,11.50815 -2.7631,20.21538 -31.18609,21.00082 -28.42372,0.78527 -54.2693,-40.84894 -49.80272,-80.68215 4.8804,-38.12899 30.33884,-66.50665 78.44098,-75.2774 59.95041,-9.75231 136.54294,-16.01425 157.42741,-48.61244 9.64988,-10.9678 17.2215,-20.52083 19.14268,-28.1716 14.43488,-29.246741 -1.10429,-64.11155 8.48384,-77.396154 5.69868,-4.984999 13.11249,-8.800323 22.37413,-11.517121 90.38501,-19.94023885 148.07,-63.105505 173.58469,-83.039684 m -912.88017,1.954388 c 43.6295,13.650658 61.56856,89.496535 98.59091,128.16734 5.08439,8.18154 12.08196,14.44943 20.81174,18.8348 52.37843,26.315881 116.957848,47.673061 165.6818,59.303151 14.3924622,4.72695 30.418834,13.00098 47.260948,22.22869 43.434352,25.93649 104.887762,74.00833 145.730652,107.90468 24.50864,20.33659 44.68524,37.71445 56.80501,44.6719 8.53621,12.86643 -4.81845,22.94503 -34.6733,24.62137 -29.85399,1.67633 -56.61956,-41.36288 -52.01116,-82.79121 4.897,-38.84049 30.76186,-68.55025 80.45912,-77.87008 61.54311,-10.41072 140.59136,-17.83603 164.19092,-49.56757 10.65847,-10.74259 18.87723,-20.076 20.98264,-27.49283 15.44336,-28.875831 -2.15426,-64.427905 7.54071,-78.142804 5.4753,-4.893728 12.66523,-8.644204 21.73657,-11.304883 90.38986,-19.5960028 143.14888,-66.89695 167.16056,-85.660241 m -907.0136,5.453839 c 45.81127,14.333069 63.41459,91.410438 97.77153,132.239988 4.69325,8.62239 11.32852,15.29184 19.70873,20.05903 50.28392,28.598261 116.393007,47.532451 166.3242093,56.480171 14.7015475,3.87532 31.1703357,11.50015 48.4548657,20.32569 44.454939,24.74984 106.114415,72.16594 145.851865,106.35683 23.84562,20.51356 43.04042,38.51807 53.98446,46.66217 7.44471,14.22519 -6.8737,25.67468 -38.1593,28.2419 -31.28549,2.56747 -58.96982,-41.87559 -54.21961,-84.90025 4.91361,-39.552 31.18488,-70.59386 82.47606,-80.46277 63.13702,-11.06912 144.63976,-19.65782 170.95443,-50.52149 11.66718,-10.5175 20.53295,-19.63237 22.82261,-26.81405 16.45303,-28.503721 -3.20431,-64.744265 6.59757,-78.889459 5.25191,-4.802457 12.21917,-8.488087 21.09901,-11.092523 C 540.7545,-4.7602568 588.57423,-56.19931 611.09502,-73.78929 m -901.14704,8.953411 c 47.99305,15.015482 65.26182,93.324343 96.95215,136.300518 4.30222,9.06335 10.57484,16.13546 18.60693,21.28204 48.19063,30.880641 115.828171,47.393061 166.9545028,53.658401 15.0106328,3.02395 31.9230492,9.9997 49.6487832,18.42269 45.475526,23.56442 107.341054,70.32356 145.973074,104.80898 23.18139,20.69053 41.39439,39.3217 51.16269,48.65365 6.35322,15.58275 -8.92893,28.40312 -41.64529,31.86245 -32.71698,3.45848 -61.3213,-42.38953 -56.42806,-87.00931 4.93022,-40.26229 31.60791,-72.63866 84.49299,-83.05544 64.72972,-11.72754 148.68818,-21.47961 177.71795,-51.47542 12.67613,-10.29229 22.18868,-19.18752 24.66257,-26.13649 17.4615,-28.131601 -4.25434,-65.060617 5.65444,-79.636107 5.02852,-4.711186 11.77276,-8.331846 20.46023,-10.880163 90.40076,-18.9063188 133.29452,-74.482265 154.31231,-90.900145 m -895.28049,12.453104 c 50.17363,15.697893 67.10907,95.237035 96.13399,140.37317 3.91108,9.50431 9.82128,16.97787 17.50392,22.50504 46.09734,33.163031 115.263335,47.253681 167.5969172,50.836641 15.319718,2.17245 32.6745498,8.49924 50.8427008,16.5197 46.497326,22.37898 108.567702,68.48116 146.094282,103.26113 22.51716,20.86749 39.74836,40.12532 48.34093,50.64392 5.26172,16.9415 -10.98417,31.13276 -45.13251,35.48298 -34.14846,4.34949 -63.67155,-42.90345 -58.63649,-89.11836 4.94682,-40.97379 32.03092,-74.68226 86.50992,-85.64812 66.32363,-12.38644 152.7487,-23.30139 184.48145,-52.42934 13.6846,-10.06709 23.84441,-18.7439 26.50255,-25.45771 18.46996,-27.760701 -5.30439,-65.376982 4.71142,-80.382766 4.80513,-4.619915 11.32634,-8.175728 19.82267,-10.6678038 C 548.37133,-9.1295098 586.3379,-68.843562 605.8527,-84.08813 m -889.40181,15.952433 c 52.3554,16.381517 68.9563,97.150939 95.31461,144.445826 3.51993,9.94527 9.06771,17.82149 16.40212,23.728051 44.00404,35.44541 114.698492,47.11307 168.2393247,48.01487 15.6288033,1.32095 33.4272633,6.99878 52.0354063,14.6167 47.517913,21.19355 109.794339,66.63878 146.215489,101.71328 21.85414,21.04446 38.10354,40.92895 45.51916,52.6354 4.17023,18.30027 -13.03976,33.8624 -48.6185,39.10231 -35.57874,5.2399 -66.02181,-43.41617 -60.84494,-91.22741 4.96343,-41.6853 32.45274,-76.72586 88.52807,-88.2408 67.91633,-13.04461 156.79711,-25.12318 191.24497,-53.38326 14.69306,-9.84188 25.50013,-18.29906 28.3425,-24.778941 19.47965,-27.38859 -6.35442,-65.693338 3.7683,-81.129418 4.58173,-4.528644 10.8798,-8.0196098 19.1851,-10.4555648 C 552.19417,-11.311288 585.23477,-75.162234 603.24656,-89.23349 m -883.53525,19.451763 c 54.53718,17.063928 70.80233,99.064843 94.49523,148.518476 3.12891,10.38611 8.31415,18.6639 15.29911,24.952271 41.91075,37.72658 114.13366,46.97368 168.8817431,45.19311 15.9378889,0.46943 34.1787649,5.49832 53.2293229,12.7137 48.539714,20.00812 111.020984,64.79639 146.336704,100.16664 21.18991,21.22143 36.45751,41.73257 42.69739,54.62567 3.07873,19.65903 -15.09427,36.59205 -52.10571,42.72285 -37.01022,6.13164 -68.37207,-43.93011 -63.05217,-93.33647 4.98015,-42.39558 32.87576,-78.76946 90.545,-90.83348 69.50903,-13.70278 160.84553,-26.94496 198.00848,-54.33718 15.70153,-9.61667 27.15586,-17.85543 30.18247,-24.100161 20.48811,-27.01769 -7.40447,-66.009696 2.82516,-81.876071 4.35835,-4.437373 10.43339,-7.8634908 18.54754,-10.2432048 90.41773,-17.8723982 118.5263,-85.8602382 135.03994,-98.7593942 m -877.66869,22.951092 c 56.71895,17.74634 72.64957,100.978748 93.67585,152.579008 2.73777,10.82708 7.56059,19.507521 14.19731,26.175281 39.81624,40.00896 113.568821,46.83308 169.5241545,42.37134 16.2469735,-0.38205 34.9314785,3.99774 54.4232405,10.8101 49.560295,18.82147 112.247635,62.954 146.457915,98.61879 20.52689,21.3984 34.81269,42.53619 39.87562,56.61593 1.98724,21.01658 -17.14998,39.32049 -55.5917,46.34339 -38.44172,7.02278 -70.72233,-44.44282 -65.26062,-95.44552 4.99676,-43.10708 33.29878,-80.81305 92.56194,-93.42615 71.10293,-14.36095 164.90605,-28.76675 204.77198,-55.29232 16.71,-9.39146 28.8116,-17.41059 32.02245,-23.422601 21.49778,-26.64557 -8.45452,-66.326051 1.88202,-82.62272 4.13496,-4.3461018 9.98697,-7.7073738 17.90997,-10.0308458 C 559.84675,-15.677147 583.02572,-87.80188 598.03878,-99.528937 m -871.80213,26.450422 c 58.89952,18.428752 74.49681,102.892652 92.85768,156.651664 2.34674,11.26803 6.80703,20.349931 13.0943,27.398281 37.72295,42.29134 113.005197,46.69369 170.1544479,39.54958 16.5560591,-1.23356 35.6829791,2.49741 55.6171581,8.90711 50.582104,17.63603 113.474274,61.1116 146.579124,97.07094 19.86266,21.57536 33.16666,43.34102 37.05507,58.6074 0.89569,22.37535 -19.20571,42.05014 -59.0777,49.96393 -39.8732,7.91379 -73.07381,-44.95675 -67.46906,-97.55457 5.01336,-43.81858 33.7218,-82.85787 94.57886,-96.01762 72.69564,-15.01912 168.95447,-30.58853 211.5355,-56.24624 17.71847,-9.16626 30.46732,-16.966961 33.86241,-22.743821 22.50625,-26.274673 -9.50455,-66.642414 0.93895,-83.3693788 3.91157,-4.254831 9.54056,-7.551134 17.27241,-9.81860705 C 563.66444,-17.862561 581.91502,-94.124188 595.42749,-104.67793 m -865.93557,29.949749 c 61.0813,19.111163 76.34405,104.805343 92.0383,160.72431 1.9556,11.70888 6.05347,21.193551 11.99178,28.622511 35.62965,44.57372 112.440358,46.55308 170.7968597,36.72659 16.8651443,-2.08505 36.4356933,0.99687 56.8110753,7.004 51.602685,16.4506 114.700915,59.26921 146.700335,95.52309 19.19843,21.75232 31.52063,44.14464 34.2333,60.59767 -0.19581,23.73411 -21.26021,44.77978 -62.5649,53.58447 -41.3047,8.80493 -75.42407,-45.46947 -69.67751,-99.66362 5.02997,-44.53009 34.14483,-84.90147 96.59701,-98.61031 74.28833,-15.67729 173.00288,-32.41031 218.29901,-57.20016 18.72693,-8.94105 32.12305,-16.522121 35.70237,-22.065051 23.51472,-25.90255 -10.55459,-66.958764 -0.004,-84.1172358 3.68817,-4.16356 9.09413,-7.39501605 16.63363,-9.606248 C 567.48388,-20.04543 580.80485,-100.44516 592.81432,-109.82681 m -860.06901,33.450295 c 63.26307,19.793575 78.19007,106.719248 91.21892,164.796964 1.56458,12.150081 5.29991,22.035961 10.88926,29.845511 33.53635,46.85611 111.875514,46.4137 171.4392664,33.90483 17.1742296,-2.93655 37.1871946,-0.50359 58.0049926,5.10088 52.624491,15.26517 115.927561,57.42682 146.821541,93.97524 18.53542,21.92929 29.87581,44.94826 31.41154,62.58915 -1.28737,25.09166 -23.31593,47.50943 -66.0509,57.20501 -42.73497,9.69594 -77.774329,-45.9834 -71.88595,-101.77267 5.04657,-45.24038 34.56785,-86.94507 98.61394,-101.20299 75.88224,-16.33667 177.05129,-34.2321 225.06252,-58.15408 19.7354,-8.71584 33.77878,-16.078491 37.54234,-21.386271 24.5244,-25.531654 -11.60463,-67.275128 -0.94726,-84.8638948 3.46478,-4.07228905 8.64771,-7.238898 15.99606,-9.393888 C 571.30113,-22.225754 579.6937,-106.76238 590.20139,-114.97071 m -854.19034,36.94962 c 65.44486,20.475986 80.03732,108.633151 90.39955,168.869619 1.17345,12.591281 4.54634,22.879581 9.78673,31.068521 31.44306,49.13849 111.310678,46.27309 172.0816807,31.08306 17.4833143,-3.78805 37.9399073,-2.00408 59.1989103,3.19776 53.645069,14.07853 117.154209,55.58443 146.942749,92.4286 17.87119,22.10626 28.22978,45.75189 28.58978,64.57942 -2.37887,26.45042 -25.37044,50.23786 -69.53812,60.82555 -44.16646,10.58695 -80.124582,-46.49733 -74.09439,-103.88173 5.06318,-45.95188 34.98966,-88.98866 100.63087,-103.79566 77.47494,-16.99484 181.11182,-36.05388 231.82604,-59.108 20.74386,-8.490641 35.4345,-15.633661 39.38231,-20.707501 25.53286,-25.159539 -12.65432,-67.591485 -1.89039,-85.61054685 3.24139,-3.98101795 8.2013,-7.08277895 15.3585,-9.18164895 C 575.13088,-24.402441 578.59385,-113.07596 587.60095,-120.11219 m -848.32378,40.448948 c 67.62543,21.158398 81.88456,110.547056 89.58139,172.930151 0.78236,13.031271 3.79277,23.721991 8.68432,32.291531 29.34855,51.42087 110.745841,46.13369 172.724094,28.26129 17.7924,-4.63955 38.692621,-3.50454 60.392828,1.29465 54.666868,12.89309 118.380848,53.74204 147.063958,90.88075 17.20696,22.28322 26.58375,46.5555 25.76801,66.57089 -3.47036,27.80919 -27.42616,52.96751 -73.02411,64.44609 C 124.87008,388.4902 87.993186,330.00207 94.165194,271.02133 99.2451,224.35795 129.57788,179.98786 196.813,164.63299 c 79.06764,-17.65301 185.16023,-37.87567 238.58955,-60.06193 21.75354,-8.265541 37.09022,-15.190021 41.22227,-20.029931 26.54254,-24.787422 -13.7052,-67.907841 -2.83352,-86.3571978 3.01788,-3.889747 7.75476,-6.92666 14.72094,-8.9692892 90.45167,-15.803346 88.98503,-108.614972 96.49155,-114.477892 m -842.45721,43.948281 c 69.8072,21.84081 83.73179,112.459748 88.762,177.002798 0.39126,13.472481 3.03921,24.564401 7.5818,33.515751 27.25525,53.70325 110.181,45.99431 173.354382,25.43953 18.102697,-5.49105 39.444123,-5.005 61.586745,-0.60846 55.687463,11.70766 119.607493,51.89844 147.185173,89.3329 16.54393,22.46019 24.93893,47.35913 22.94624,68.56116 -4.56185,29.16674 -29.48188,55.69716 -76.51011,68.06663 -47.02943,12.36947 -84.825101,-47.52397 -78.510066,-108.09983 5.096513,-47.37367 35.835706,-93.07707 104.665956,-108.98102 80.66154,-18.31118 189.20863,-39.69745 245.35306,-61.01706 22.762,-8.040341 38.74595,-14.745181 43.06223,-19.351161 27.55101,-24.41652 -14.75488,-68.224199 -3.77665,-87.1038508 2.79461,-3.798597 7.30835,-6.7704212 14.08337,-8.7569302 90.45652,-15.459109 84.06149,-112.407628 90.06622,-117.097238 m -836.59066,47.447611 c 71.98898,22.523222 85.57782,114.373652 87.94263,181.075458 1.8e-4,13.913681 2.28565,25.408011 6.47927,34.738751 25.16196,55.98564 109.616165,45.8537 173.996798,22.61777 18.411783,-6.34243 40.196836,-6.50546 62.780663,-2.51159 56.709259,10.52198 120.834139,50.05604 147.306379,87.78505 15.87971,22.63716 23.2929,48.16275 20.12569,70.55143 -5.65335,30.52549 -31.53639,58.4268 -79.99732,71.68595 C 115.98067,396.23904 77.263808,334.94199 83.721871,272.7698 88.834989,224.68462 119.9806,177.64913 190.40476,161.19609 272.659,142.22675 383.67393,119.67686 442.52133,99.225109 c 23.77047,-7.81512 40.40168,-14.30155 44.9022,-18.67238 28.55947,-24.044405 -15.80456,-68.540556 -4.71967,-87.8505028 2.5711,-3.7073262 6.86193,-6.6143032 13.44581,-8.5446912 90.46258,-15.114873 79.13794,-116.199075 83.6421,-119.717795 m -830.7241,50.946939 c 74.17075,23.206846 87.42505,116.287557 87.12324,185.148111 -0.3909,14.35488 1.5321,26.25042 5.37687,35.96176 23.06867,58.26802 109.051329,45.71431 174.639212,19.796 18.720868,-7.19393 40.948338,-8.00591 63.97458,-4.41471 57.729848,9.33632 122.058358,48.21366 147.415468,86.23841 15.21548,22.81413 21.64809,48.96638 17.30392,72.54291 -6.74484,31.88426 -33.5921,61.15524 -83.48331,75.30649 -49.8912,14.15126 -89.526834,-48.55062 -82.926956,-112.31793 5.129724,-48.79668 36.681746,-97.16427 108.699816,-114.16638 83.84694,-19.62873 197.31758,-43.34102 258.88008,-62.924901 24.77894,-7.58992 42.05741,-13.85672 46.74217,-17.99361 29.56916,-23.673505 -16.85423,-68.8569158 -5.6628,-88.597159 2.34771,-3.616054 6.41552,-6.458184 12.80825,-8.332331 90.46742,-14.769425 74.21439,-119.991729 77.21676,-122.337139 m -824.85754,54.446267 c 76.35132,23.889257 89.27229,118.201461 86.30507,189.220763 -0.78198,14.79488 0.77851,27.09404 4.27435,37.18598 20.97537,60.54919 108.486487,45.57371 175.281621,16.97302 19.029953,-8.04543 41.701051,-9.50637 65.168498,-6.31782 58.751641,8.15064 123.282581,46.37127 147.536681,84.69056 14.55246,22.99109 20.00205,49.76999 14.48215,74.53317 -7.83634,33.24182 -35.64782,63.88489 -86.97052,78.92704 -51.32269,15.04214 -91.877093,-49.06456 -85.135398,-114.42699 5.146329,-49.50818 37.104768,-99.20787 110.716748,-116.75906 85.44085,-20.2869 201.36599,-45.16281 265.6436,-63.878831 25.7874,-7.36471 43.71313,-13.41308 48.58213,-17.31483 30.57762,-23.301388 -17.90512,-69.1732708 -6.60594,-89.343809 2.12433,-3.524784 5.96911,-6.302066 12.16948,-8.119972 90.47348,-14.425189 69.29084,-123.779538 70.79263,-124.955278 m -818.97886,57.945603 c 78.5331,24.571668 91.11953,120.114152 85.4857,193.281287 -1.17308,15.23609 0.025,27.93646 3.17182,38.40899 18.88086,62.83157 107.921648,45.43432 175.924033,14.15126 19.339038,-8.89693 42.452551,-11.00683 66.361202,-8.22094 59.772235,6.96496 124.518925,44.52888 147.657885,83.14271 13.88823,23.16806 18.35603,50.57362 11.66052,76.52465 -8.92784,34.60058 -37.70234,66.61453 -90.45652,82.54757 -52.75418,15.93304 -94.227357,-49.57726 -87.343848,-116.53603 5.162936,-50.21847 37.526578,-101.25268 112.734898,-119.35053 87.03355,-20.94507 205.4144,-46.98459 272.4071,-64.832751 26.79587,-7.1395 45.36887,-12.96824 50.42211,-16.63727 31.58729,-22.930485 -18.95481,-69.4896278 -7.54908,-90.090461 1.90094,-3.433512 5.52269,-6.145947 11.53215,-7.907733 90.47834,-14.079741 64.36852,-127.573405 64.36852,-127.573405"
     fill="none"
     stroke="url(#linearGradient3595-6)"
     stroke-width="0.49609px"
     id="path92"
     style="stroke:url(#linearGradient3595-6)" />
  <path
     d="M 607.26417,-1.3368408 V 445.35797 h -930.63741 l 1e-5,-448.4765968 466.24596,342.8058168 z"
     fill="#1b1e20"
     stop-color="#000000"
     style="font-variation-settings:normal;stroke-width:1;-inkscape-stroke:none"
     id="path93" />
  <g
     transform="matrix(3.3013939,0,0,3.3013939,-453.72237,114.1871)"
     opacity="0.02"
     stroke-width="0.56794"
     id="g106">
    <g
       transform="translate(0,77.637)"
       opacity="0.075"
       stroke-width="0.56794"
       id="g96">
      <path
         d="M -21.655,-173.61 180.715,-25 383.085,-173.61 v 16.181 l -202.37,148.61 -202.37,-148.61 z"
         fill="url(#linearGradient21995-7)"
         stop-color="#000000"
         style="font-variation-settings:normal;fill:url(#linearGradient147);stroke-width:0.56794;-inkscape-stroke:none"
         id="path94" />
      <path
         d="m -21.655,-193.8 202.37,148.61 202.37,-148.61 v 22.391 l -202.37,148.61 -202.37,-148.61 z"
         fill="url(#linearGradient21997-5)"
         id="path95"
         style="fill:url(#linearGradient148);stroke-width:0.56794" />
      <path
         d="m -21.655,-157.94 202.37,148.61 202.37,-148.61 v 1.7412 l -202.37,148.61 -202.37,-148.61 z"
         fill="url(#linearGradient21999-5)"
         stop-color="#000000"
         style="font-variation-settings:normal;fill:url(#linearGradient149);stroke-width:0.56794;-inkscape-stroke:none;paint-order:stroke fill markers"
         id="path96" />
    </g>
    <path
       d="m -21.656,-22.398 v 20.919 l 191.38,140.54 10.981,23.178 10.981,-23.178 191.38,-140.54 v -20.919 l -202.37,148.61 z"
       fill="url(#linearGradient22001-2)"
       stop-color="#000000"
       style="font-variation-settings:normal;fill:url(#linearGradient22001-2);stroke-width:0.56794;-inkscape-stroke:none"
       id="path97" />
    <path
       d="m 191.22,138.75 -10.513,23.491 202.37,-148.61 V -2.14 Z"
       fill="url(#linearGradient22003-9)"
       id="path98"
       style="fill:url(#linearGradient22003-9);stroke-width:0.56794" />
    <path
       d="m -21.656,-2.1353 v 15.771 l 202.37,148.61 -10.513,-23.491 z"
       fill="url(#linearGradient22005-1)"
       id="path99"
       style="fill:url(#linearGradient22005-1);stroke-width:0.56794" />
    <path
       d="m -21.656,-2.1353 v 1.3126 l 190.92,140.2 11.449,22.866 11.449,-22.866 190.92,-140.2 v -1.3126 l -191.85,140.89 -10.513,21.102 -10.513,-21.102 -191.54,-140.66 z"
       color="#000000"
       fill="url(#linearGradient22007-2)"
       stroke-linecap="square"
       stroke-width="0.150268"
       style="fill:url(#linearGradient22007-2);-inkscape-stroke:none"
       id="path100" />
    <path
       d="m -21.655,-41.581 202.37,148.61 202.37,-148.61 v 21.473 l -202.37,148.61 -202.37,-148.61 z"
       fill="url(#linearGradient22009-0)"
       stop-color="#000000"
       style="font-variation-settings:normal;fill:url(#linearGradient22009-0);stroke-width:0.56794;-inkscape-stroke:none"
       id="path101" />
    <path
       d="m -21.655,-23.098 202.37,148.61 202.37,-148.61 v 2.9889 l -202.37,148.61 -202.37,-148.61 z"
       fill="url(#linearGradient22011-9)"
       stop-color="#000000"
       style="font-variation-settings:normal;fill:url(#linearGradient22011-9);stroke-width:0.56794;-inkscape-stroke:none;paint-order:stroke fill markers"
       id="path102" />
    <path
       d="m -21.655,-62.914 202.37,148.61 202.37,-148.61 v 22.391 l -202.37,148.61 -202.37,-148.61 z"
       fill="url(#linearGradient22013-6)"
       id="path103"
       style="fill:url(#linearGradient22013-6);stroke-width:0.56794" />
    <path
       d="m -21.655,-64.05 202.37,148.61 202.37,-148.61 v 1.7412 l -202.37,148.61 -202.37,-148.61 z"
       fill="url(#linearGradient22015-0)"
       stop-color="#000000"
       style="font-variation-settings:normal;fill:url(#linearGradient22015-0);stroke-width:0.56794;-inkscape-stroke:none;paint-order:stroke fill markers"
       id="path104" />
    <path
       d="m 191.22,138.75 -10.513,23.491 202.37,-148.61 V -2.14 Z"
       fill="url(#linearGradient22017-2)"
       id="path105"
       style="fill:url(#linearGradient22017-2);stroke-width:0.56794" />
    <path
       d="m 170.2,138.75 10.513,23.491 -202.37,-148.61 -2e-6,-15.771 z"
       fill="url(#linearGradient22019-6)"
       id="path106"
       style="fill:url(#linearGradient22019-6);stroke-width:0.56794" />
  </g>
  <g
     transform="matrix(2.2726855,0,0,2.2726855,-267.82276,147.92466)"
     opacity="0.02"
     id="g109"
     style="stroke-width:0.825015">
    <path
       d="M -21.655,-173.61 180.715,-25 383.085,-173.61 v 16.181 l -202.37,148.61 -202.37,-148.61 z"
       fill="url(#linearGradient21995-7)"
       stop-color="#000000"
       style="font-variation-settings:normal;fill:url(#linearGradient150);stroke-width:0.825015;-inkscape-stroke:none"
       id="path107" />
    <path
       d="m -21.655,-193.8 202.37,148.61 202.37,-148.61 v 22.391 l -202.37,148.61 -202.37,-148.61 z"
       fill="url(#linearGradient21997-5)"
       id="path108"
       style="fill:url(#linearGradient151);stroke-width:0.825015" />
    <path
       d="m -21.655,-157.94 202.37,148.61 202.37,-148.61 v 1.7412 l -202.37,148.61 -202.37,-148.61 z"
       fill="url(#linearGradient21999-5)"
       stop-color="#000000"
       style="font-variation-settings:normal;fill:url(#linearGradient152);stroke-width:0.825015;-inkscape-stroke:none;paint-order:stroke fill markers"
       id="path109" />
  </g>
  <path
     d="M 166.76319,286.81907 142.8703,340.20718 602.7891,2.4679372 V -33.373827 Z"
     fill="url(#linearGradient24593-1)"
     id="path110"
     style="fill:url(#linearGradient24593-1);stroke-width:1" />
  <path
     d="M -317.04609,-33.370191 V 2.4715732 L 142.87272,340.21081 118.97983,286.8227 Z"
     fill="url(#linearGradient78325-8)"
     id="path111"
     style="fill:url(#linearGradient78325-8);stroke-width:1" />
  <path
     d="m -317.04609,-33.370191 v 2.983097 l 433.89505,318.624434 26.02134,51.96632 26.02134,-51.96632 433.89504,-318.624434 v -2.983097 l -436.01622,320.188051 -23.89289,47.9579 -23.89289,-47.9579 -435.3132,-319.666848 z"
     color="#000000"
     fill="url(#linearGradient87990-7)"
     stroke-linecap="square"
     stroke-width="0.49609"
     style="fill:url(#linearGradient87990-7);-inkscape-stroke:none"
     id="path112" />
  <path
     d="m -317.04609,-123.01581 459.91881,337.73923 459.91881,-337.73923 v 48.801522 L 142.87272,263.52495 -317.04609,-74.214288 Z"
     fill="url(#linearGradient25753-9)"
     stop-color="#000000"
     style="font-variation-settings:normal;fill:url(#linearGradient25753-9);stroke-width:1;-inkscape-stroke:none"
     id="path113" />
  <path
     d="M -317.04609,-81.010526 142.87272,256.72871 602.79153,-81.010526 v 6.792844 L 142.87272,263.52156 -317.04609,-74.217682 Z"
     fill="url(#linearGradient25219-2)"
     stop-color="#000000"
     style="font-variation-settings:normal;fill:url(#linearGradient25219-2);stroke-width:1;-inkscape-stroke:none;paint-order:stroke fill markers"
     id="path114" />
  <path
     d="M 166.76319,286.81907 142.8703,340.20718 602.7891,2.4679372 V -33.373827 Z"
     fill="url(#linearGradient14910-0)"
     id="path115"
     style="fill:url(#linearGradient14910-0);stroke-width:1" />
  <path
     d="M 118.97983,286.81907 142.87272,340.20718 -317.04609,2.4679372 V -33.373827 Z"
     fill="url(#linearGradient15720-2)"
     id="path116"
     style="fill:url(#linearGradient15720-2);stroke-width:1" />
  <path
     d="m -15.214066,191.25719 v 7.13478 l 77.234942,56.71895 v -7.13477 z m 0,10.74259 v 11.27931 l 77.234942,56.71895 v -11.2793 z m 77.234942,71.45565 -77.234942,-56.71895 v 4.81058 l 77.234942,56.71895 z"
     fill="url(#linearGradient35006-37)"
     id="path117"
     style="fill:url(#linearGradient35006-37);stroke-width:1" />
  <path
     d="m 517.69006,35.487935 v 7.134778 l -77.23494,56.718956 v -7.13478 z m 0,10.74259 v 11.279308 l -77.23494,56.718957 v -11.27931 z m -77.23494,71.455655 77.23494,-56.718956 v 4.810578 l -77.23494,56.718958 z"
     fill="url(#linearGradient35006-3-5)"
     id="path118"
     style="fill:url(#linearGradient35006-3-5);stroke-width:1" />
  <path
     d="m 142.87272,217.12338 460.30668,-336.47865 -0.39108,-3.66224 z"
     fill="#d0b2e4"
     id="path119"
     style="stroke-width:1" />
  <path
     d="m 142.87272,217.12338 -460.30668,-336.47865 0.39109,-3.66224 z"
     fill="#b2e3e4"
     id="path120"
     style="stroke-width:1" />
  <path
     d="m -317.04609,-171.49977 459.91881,337.73924 459.91881,-337.73924 v 50.88755 L 142.87272,217.12702 -317.04609,-120.61222 Z"
     fill="url(#linearGradient26562-9)"
     id="path121"
     style="fill:url(#linearGradient26562-9);stroke-width:1" />
  <g
     transform="matrix(1.8499054,0,0,1.8513599,-166.95188,-3.6652818)"
     fill="none"
     stop-color="#000000"
     stroke="#235dc6"
     stroke-width="0.536136"
     style="font-variation-settings:normal;-inkscape-stroke:none;paint-order:stroke fill markers"
     id="g128">
    <path
       d="m 116.37,53.187 v 6.7346"
       stop-color="#000000"
       style="font-variation-settings:normal;stroke-width:0.536136;-inkscape-stroke:none;paint-order:stroke fill markers"
       id="path122" />
    <path
       d="m 122.49,57.678 v 8.7187"
       stop-color="#000000"
       style="font-variation-settings:normal;stroke-width:0.536136;-inkscape-stroke:none;paint-order:stroke fill markers"
       id="path123" />
    <path
       d="m 133.56,65.81 v 8.379"
       stop-color="#000000"
       style="font-variation-settings:normal;stroke-width:0.536136;-inkscape-stroke:none;paint-order:stroke fill markers"
       id="path124" />
    <path
       d="m 128.48,62.077 v 4.1961"
       stop-color="#000000"
       style="font-variation-settings:normal;stroke-width:0.536136;-inkscape-stroke:none;paint-order:stroke fill markers"
       id="path125" />
    <circle
       cx="116.42"
       cy="61.028"
       r="1.21"
       stop-color="#000000"
       style="font-variation-settings:normal;stroke-width:0.536136;-inkscape-stroke:none;paint-order:stroke fill markers"
       id="circle125" />
    <circle
       cx="122.45"
       cy="66.901001"
       r="0.64060998"
       stop-color="#000000"
       style="font-variation-settings:normal;stroke-width:0.536136;-inkscape-stroke:none;paint-order:stroke fill markers"
       id="circle126" />
    <circle
       cx="128.5"
       cy="67.357002"
       r="1.21"
       stop-color="#000000"
       style="font-variation-settings:normal;stroke-width:0.536136;-inkscape-stroke:none;paint-order:stroke fill markers"
       id="circle127" />
    <circle
       cx="133.55"
       cy="75.222"
       r="1.21"
       stop-color="#000000"
       style="font-variation-settings:normal;stroke-width:0.536136;-inkscape-stroke:none;paint-order:stroke fill markers"
       id="circle128" />
  </g>
  <path
     d="m -203.88453,-73.35491 v 35.841765 l 19.79115,14.534278 v -35.841765 z m 25.64559,18.832381 v 35.841764 l 39.81017,29.235826 v -35.842977 z m 51.95662,38.154449 0.33237,36.085396 24.96923,18.335421 0.0435,-35.8102498 z m 34.526633,25.3546852 -0.467434,35.4987398 7.537558,5.535171 V 14.17754 Z"
     fill="url(#linearGradient34063-2)"
     stop-color="#000000"
     style="font-variation-settings:normal;fill:url(#linearGradient34063-2);stroke-width:1;-inkscape-stroke:none"
     id="path128" />
  <path
     d="m 292.97905,208.37203 v 16.59969 L 273.1879,239.506 v -16.5997 z m -25.64559,18.83238 v 16.59969 l -39.81018,29.23583 v -16.60091 z m -51.95662,38.15445 -0.33236,16.84332 -24.96923,18.33542 -0.0434,-16.56818 z m -34.52664,25.35468 0.46745,16.25667 -7.53756,5.53517 v -16.6009 z"
     fill="url(#linearGradient53858-2)"
     stop-color="#000000"
     style="font-variation-settings:normal;fill:url(#linearGradient53858-2);stroke-width:1;-inkscape-stroke:none"
     id="path129" />
  <g
     transform="matrix(2.2726855,0,0,2.2726855,-267.82276,23.907545)"
     opacity="0.02"
     id="g132"
     style="stroke-width:0.825015">
    <path
       d="M -21.655,-173.61 180.715,-25 383.085,-173.61 v 16.181 l -202.37,148.61 -202.37,-148.61 z"
       fill="url(#linearGradient21995-7)"
       stop-color="#000000"
       style="font-variation-settings:normal;fill:url(#linearGradient153);stroke-width:0.825015;-inkscape-stroke:none"
       id="path130" />
    <path
       d="m -21.655,-193.8 202.37,148.61 202.37,-148.61 v 22.391 l -202.37,148.61 -202.37,-148.61 z"
       fill="url(#linearGradient21997-5)"
       id="path131"
       style="fill:url(#linearGradient154);stroke-width:0.825015" />
    <path
       d="m -21.655,-157.94 202.37,148.61 202.37,-148.61 v 1.7412 l -202.37,148.61 -202.37,-148.61 z"
       fill="url(#linearGradient21999-5)"
       stop-color="#000000"
       style="font-variation-settings:normal;fill:url(#linearGradient155);stroke-width:0.825015;-inkscape-stroke:none;paint-order:stroke fill markers"
       id="path132" />
  </g>
  <path
     d="M -38.140916,39.946035 V 79.507729 L 18.876216,121.37848 V 81.816779 Z"
     fill="#7777e1"
     fill-opacity="0.095564"
     id="path133"
     style="stroke-width:1" />
  <path
     d="m 2.2231892,126.24021 v 16.75605 L 142.87515,246.65011 v -16.75606 z m 0,20.36326 v 6.46885 L 142.87515,256.72617 v -6.46885 z"
     fill="url(#linearGradient35392-8)"
     id="path134"
     style="fill:url(#linearGradient35392-8);stroke-width:1" />
  <path
     d="m -267.9076,17.111304 v 9.666731 l 74.55015,54.746874 v -9.66795 z"
     fill="url(#linearGradient37083-9)"
     id="path135"
     style="fill:url(#linearGradient37083-9);stroke-width:1" />
  <path
     d="M -67.251896,36.239437 V 59.926273 L 115.42353,194.06926 V 170.38 Z"
     fill="url(#linearGradient37280-7)"
     id="path136"
     style="fill:url(#linearGradient37280-7);stroke-width:1" />
  <path
     d="m -211.75105,55.411205 v 23.686834 l 50.71421,37.242951 v -8.05427 z m 60.34798,59.950415 v 8.05427 l 19.84084,14.57064 v -8.05427 z m 24.64075,18.09421 v 8.05428 l 20.83598,15.30153 v -8.05549 z m 35.449049,26.03225 v 8.0544 l 26.228608,19.26146 v -8.05549 z m 34.006647,24.97287 v 8.05549 l 16.108794,11.82899 v -8.05548 z m 22.513525,16.53303 v 8.05549 l 5.713713,4.19629 v -8.05549 z"
     fill="url(#linearGradient37849-3)"
     id="path137"
     style="fill:url(#linearGradient37849-3);stroke-width:1" />
  <g
     transform="matrix(1.8499054,0,0,1.8513599,-108.71053,40.003006)"
     fill="none"
     stroke="#235dc6"
     stroke-width="0.536136"
     id="g143">
    <path
       d="m 116.37,53.187 v 6.7346"
       stop-color="#000000"
       style="font-variation-settings:normal;stroke-width:0.536136"
       id="path138" />
    <path
       d="m 122.49,57.678 v 8.7187"
       id="path139"
       style="stroke-width:0.536136" />
    <path
       d="m 128.48,62.077 v 4.1961"
       id="path140"
       style="stroke-width:0.536136" />
    <circle
       cx="116.42"
       cy="61.028"
       r="1.21"
       stop-color="#000000"
       style="font-variation-settings:normal;stroke-width:0.536136;paint-order:stroke fill markers"
       id="circle140" />
    <circle
       cx="122.45"
       cy="66.901001"
       r="0.64060998"
       stop-color="#000000"
       style="font-variation-settings:normal;stroke-width:0.536136;paint-order:stroke fill markers"
       id="circle141" />
    <circle
       cx="128.5"
       cy="67.357002"
       r="1.21"
       stop-color="#000000"
       style="font-variation-settings:normal;stroke-width:0.536136;paint-order:stroke fill markers"
       id="circle142" />
    <path
       d="m 110.31,48.673 v 8.379"
       id="path142"
       style="stroke-width:0.536136" />
    <circle
       cx="110.3"
       cy="58.084"
       r="1.21"
       stop-color="#000000"
       style="font-variation-settings:normal;stroke-width:0.536136;paint-order:stroke fill markers"
       id="circle143" />
  </g>
  <path
     d="M -317.04609,-174.08154 142.87272,163.6577 602.79153,-174.08154 v 3.95714 L 142.87272,167.61484 -317.04609,-170.1244 Z"
     fill="url(#linearGradient69576-6)"
     stop-color="#000000"
     style="font-variation-settings:normal;fill:url(#linearGradient69576-6);stroke-width:1;-inkscape-stroke:none;paint-order:stroke fill markers"
     id="path143" />
  <path
     d="m 293.68207,86.535479 v 35.841771 l -19.79115,14.53427 v -35.84176 z m -25.64559,18.832381 v 35.84177 l -39.81018,29.23582 v -35.84297 z m -51.95662,38.15445 -0.33236,36.0854 -24.96924,18.33542 -0.0434,-35.81025 z m -34.52664,25.35469 0.46745,35.49874 -7.53756,5.53517 v -35.84298 z"
     fill="url(#linearGradient53643-1)"
     stop-color="#000000"
     style="font-variation-settings:normal;fill:url(#linearGradient53643-1);stroke-width:1;-inkscape-stroke:none"
     id="path144" />
  <path
     d="m 492.21175,-97.025989 v 23.686837 l -50.71422,37.242951 v -8.054277 z m -60.34798,59.950412 v 8.054276 l -19.84085,14.57064 v -8.054276 z m -24.64076,18.094212 v 8.054276 L 386.38703,4.3744472 v -8.055488 z M 371.77396,7.0508832 V 15.105159 L 345.54535,34.366623 V 26.311134 Z M 337.76732,32.023757 v 8.055488 l -16.1088,11.828994 v -8.055488 z m -22.51353,16.533029 v 8.055488 l -5.71371,4.196286 v -8.055488 z"
     fill="url(#linearGradient53697-2)"
     id="path145"
     style="fill:url(#linearGradient53697-2);stroke-width:1" />
  <path
     d="M 452.85489,-30.665998 V -6.9791618 L 270.17947,127.16382 v -23.68926 z"
     fill="url(#linearGradient53804-9)"
     id="path146"
     style="fill:url(#linearGradient53804-9);stroke-width:1" />
  <path
     d="m 283.52468,126.24021 v 16.75605 L 142.87272,246.65011 v -16.75606 z m 0,20.36326 v 6.46885 L 142.87272,256.72617 v -6.46885 z"
     fill="url(#linearGradient5163-3)"
     id="path147"
     style="fill:url(#linearGradient5163-3);stroke-width:1" />
</svg>
