<?xml version="1.0" encoding="UTF-8"?>
<svg width="1366" height="768" version="1.1" viewBox="0 0 361.42 203.2" xmlns="http://www.w3.org/2000/svg" xmlns:xlink="http://www.w3.org/1999/xlink">
<defs>
<linearGradient id="linearGradient16905">
<stop stop-color="#1b668f" offset="0"/>
<stop stop-color="#121c94" offset=".5"/>
<stop stop-color="#382279" offset="1"/>
</linearGradient>
<linearGradient id="linearGradient78639">
<stop stop-color="#2936ea" offset="0"/>
<stop stop-color="#164593" offset="1"/>
</linearGradient>
<linearGradient id="linearGradient75480-3" x1="-21.655" x2="1378.4" y1="110.14" y2="110.14" gradientTransform="matrix(.26458 0 0 .26458 -.00043396 10.975)" gradientUnits="userSpaceOnUse" xlink:href="#linearGradient16905"/>
<linearGradient id="linearGradient3595-6" x1="-21.656" x2="383.08" y1="81.035" y2="81.035" gradientTransform="translate(-.00043396 -3.3768e-5)" gradientUnits="userSpaceOnUse">
<stop stop-color="#51d677" stop-opacity=".47843" offset="0"/>
<stop stop-color="#eded84" stop-opacity=".32941" offset=".26488"/>
<stop stop-color="#a9ebf6" stop-opacity=".19951" offset=".49538"/>
<stop stop-color="#e9bf9d" stop-opacity=".35686" offset=".74191"/>
<stop stop-color="#5138aa" stop-opacity=".52157" offset="1"/>
</linearGradient>
<linearGradient id="linearGradient21995-7" x1="-21.655" x2="383.08" y1="92.147" y2="92.147" gradientTransform="translate(0 -155.84)" gradientUnits="userSpaceOnUse">
<stop stop-color="#445feb" offset="0"/>
<stop stop-color="#252fb5" offset=".5"/>
<stop stop-color="#9b53c1" offset="1"/>
</linearGradient>
<linearGradient id="linearGradient21997-5" x1="-21.655" x2="383.08" y1="99.556" y2="99.556" gradientTransform="translate(0 -189.92)" gradientUnits="userSpaceOnUse">
<stop stop-color="#3410ab" stop-opacity=".67526" offset="0"/>
<stop stop-color="#169bd6" offset=".5"/>
<stop stop-color="#0940a2" stop-opacity=".56984" offset="1"/>
</linearGradient>
<linearGradient id="linearGradient21999-5" x1="-24.528" x2="386.16" y1="-24.045" y2="-24.045" gradientTransform="translate(0 -138.44)" gradientUnits="userSpaceOnUse">
<stop stop-color="#6a5e19" offset="0"/>
<stop stop-color="#85751e" stop-opacity=".98824" offset=".14669"/>
<stop stop-color="#8c7b20" stop-opacity=".96863" offset=".30531"/>
<stop stop-color="#bda62c" stop-opacity=".95686" offset=".51079"/>
<stop stop-color="#82721e" stop-opacity=".94902" offset=".6231"/>
<stop stop-color="#968623" stop-opacity=".99608" offset=".83541"/>
<stop stop-color="#4e4412" stop-opacity=".92157" offset="1"/>
</linearGradient>
<linearGradient id="linearGradient22001-2" x1="-21.655" x2="1378.4" y1="110.14" y2="110.14" gradientTransform="matrix(.26458 0 0 .26458 0 -4.9003)" gradientUnits="userSpaceOnUse" xlink:href="#linearGradient16905"/>
<linearGradient id="linearGradient22003-9" x1="181.04" x2="361.42" y1="110.14" y2="110.14" gradientTransform="translate(0 -18.521)" gradientUnits="userSpaceOnUse" xlink:href="#linearGradient78639"/>
<linearGradient id="linearGradient22005-1" x1="-21.655" x2="183.99" y1="110.14" y2="110.14" gradientTransform="translate(0 -18.521)" gradientUnits="userSpaceOnUse">
<stop stop-color="#2f38a6" offset="0"/>
<stop stop-color="#3d33eb" offset="1"/>
</linearGradient>
<linearGradient id="linearGradient22007-2" x1="-82.44" x2="1448.4" y1="345.52" y2="345.52" gradientTransform="scale(.26458)" gradientUnits="userSpaceOnUse" xlink:href="#linearGradient1294-7"/>
<linearGradient id="linearGradient1294-7">
<stop stop-color="#6a5e19" offset="0"/>
<stop stop-color="#d1b832" stop-opacity=".98824" offset=".14669"/>
<stop stop-color="#8c7b20" stop-opacity=".96863" offset=".30531"/>
<stop stop-color="#dbc865" stop-opacity=".95686" offset=".51079"/>
<stop stop-color="#82721e" stop-opacity=".94902" offset=".6231"/>
<stop stop-color="#968623" stop-opacity=".99608" offset=".83541"/>
<stop stop-color="#cfb530" stop-opacity=".92157" offset="1"/>
</linearGradient>
<linearGradient id="linearGradient22009-0" x1="-21.655" x2="383.08" y1="92.147" y2="92.147" gradientTransform="translate(0 -18.521)" gradientUnits="userSpaceOnUse">
<stop stop-color="#445feb" offset="0"/>
<stop stop-color="#4a55ed" offset=".5"/>
<stop stop-color="#9b53c1" offset="1"/>
</linearGradient>
<linearGradient id="linearGradient22011-9" x1="-24.528" x2="386.16" y1="-24.045" y2="-24.045" gradientTransform="translate(0 -2.3527)" gradientUnits="userSpaceOnUse" xlink:href="#linearGradient1056-3"/>
<linearGradient id="linearGradient1056-3">
<stop stop-color="#6a5e19" offset="0"/>
<stop stop-color="#85751e" stop-opacity=".98824" offset=".14669"/>
<stop stop-color="#a38f26" stop-opacity=".96863" offset=".30531"/>
<stop stop-color="#f5d737" stop-opacity=".95686" offset=".51079"/>
<stop stop-color="#968623" stop-opacity=".99608" offset=".83541"/>
<stop stop-color="#4e4412" stop-opacity=".92157" offset="1"/>
</linearGradient>
<linearGradient id="linearGradient22013-6" x1="-21.655" x2="383.08" y1="99.556" y2="99.556" gradientTransform="translate(0 -59.037)" gradientUnits="userSpaceOnUse">
<stop stop-color="#3410ab" stop-opacity=".67526" offset="0"/>
<stop stop-color="#2936e9" offset=".5"/>
<stop stop-color="#0940a2" stop-opacity=".56984" offset="1"/>
</linearGradient>
<linearGradient id="linearGradient22015-0" x1="-24.528" x2="386.16" y1="-24.045" y2="-24.045" gradientTransform="translate(0 -44.553)" gradientUnits="userSpaceOnUse" xlink:href="#linearGradient17531-6"/>
<linearGradient id="linearGradient17531-6">
<stop stop-color="#6a5e19" offset="0"/>
<stop stop-color="#85751e" stop-opacity=".98824" offset=".14669"/>
<stop stop-color="#8c7b20" stop-opacity=".96863" offset=".30531"/>
<stop stop-color="#d1b637" stop-opacity=".95686" offset=".51079"/>
<stop stop-color="#82721e" stop-opacity=".94902" offset=".6231"/>
<stop stop-color="#968623" stop-opacity=".99608" offset=".83541"/>
<stop stop-color="#4e4412" stop-opacity=".92157" offset="1"/>
</linearGradient>
<linearGradient id="linearGradient22017-2" x1="253.56" x2="239.42" y1="147.01" y2="130.45" gradientTransform="translate(0 -18.521)" gradientUnits="userSpaceOnUse">
<stop stop-color="#28ead8" stop-opacity=".58819" offset="0"/>
<stop stop-color="#164593" stop-opacity=".023098" offset="1"/>
</linearGradient>
<linearGradient id="linearGradient22019-6" x1="251.13" x2="241.25" y1="138.13" y2="126.04" gradientTransform="matrix(-1 0 0 1 361.42 -18.521)" gradientUnits="userSpaceOnUse">
<stop stop-color="#dc29ea" stop-opacity=".68736" offset="0"/>
<stop stop-color="#164593" stop-opacity=".023098" offset="1"/>
</linearGradient>
<linearGradient id="linearGradient24593-1" x1="181.04" x2="361.42" y1="110.14" y2="110.14" gradientTransform="translate(-.00043396 -2.6459)" gradientUnits="userSpaceOnUse" xlink:href="#linearGradient78639"/>
<linearGradient id="linearGradient78325-8" x1="-21.655" x2="183.99" y1="110.14" y2="110.14" gradientTransform="translate(-.00043396 -2.6459)" gradientUnits="userSpaceOnUse">
<stop stop-color="#2e3476" offset="0"/>
<stop stop-color="#3d33eb" offset="1"/>
</linearGradient>
<linearGradient id="linearGradient87990-7" x1="-82.44" x2="1448.4" y1="345.52" y2="345.52" gradientTransform="matrix(.26458 0 0 .26458 -.00043396 15.875)" gradientUnits="userSpaceOnUse" xlink:href="#linearGradient1294-7"/>
<linearGradient id="linearGradient25753-9" x1="-21.655" x2="383.08" y1="92.147" y2="92.147" gradientTransform="translate(-.00043396 -2.6459)" gradientUnits="userSpaceOnUse">
<stop stop-color="#4465eb" offset="0"/>
<stop stop-color="#46a7e1" offset=".5"/>
<stop stop-color="#6b50c1" offset="1"/>
</linearGradient>
<linearGradient id="linearGradient25219-2" x1="-24.528" x2="386.16" y1="-24.045" y2="-24.045" gradientTransform="translate(-.00043396 13.522)" gradientUnits="userSpaceOnUse" xlink:href="#linearGradient1056-3"/>
<linearGradient id="linearGradient14910-0" x1="253.56" x2="239.42" y1="147.01" y2="130.45" gradientTransform="translate(-.00043396 -2.6459)" gradientUnits="userSpaceOnUse">
<stop stop-color="#e06fea" stop-opacity=".39011" offset="0"/>
<stop stop-color="#164593" stop-opacity=".023098" offset="1"/>
</linearGradient>
<linearGradient id="linearGradient15720-2" x1="251.13" x2="241.25" y1="138.13" y2="126.04" gradientTransform="matrix(-1 0 0 1 361.42 -2.6459)" gradientUnits="userSpaceOnUse">
<stop stop-color="#dc29ea" stop-opacity=".18321" offset="0"/>
<stop stop-color="#164593" stop-opacity=".023098" offset="1"/>
</linearGradient>
<linearGradient id="linearGradient35006-37" x1="542.26" x2="409.86" y1="531.52" y2="437.69" gradientTransform="matrix(.26458 0 0 .26458 -.00043396 -3.3768e-5)" gradientUnits="userSpaceOnUse">
<stop stop-color="#9e80dc" stop-opacity=".08" offset="0"/>
<stop stop-color="#9e80dc" stop-opacity="0" offset="1"/>
</linearGradient>
<linearGradient id="linearGradient35006-3-5" x1="542.26" x2="409.86" y1="531.52" y2="437.69" gradientTransform="matrix(-.26458 0 0 .26458 456.79 -68.541)" gradientUnits="userSpaceOnUse">
<stop stop-color="#9e80dc" stop-opacity=".12323" offset="0"/>
<stop stop-color="#9e80dc" stop-opacity="0" offset="1"/>
</linearGradient>
<linearGradient id="linearGradient26562-9" x1="-21.655" x2="383.08" y1="99.556" y2="99.556" gradientTransform="translate(-.00043396 -43.162)" gradientUnits="userSpaceOnUse">
<stop stop-color="#0031b6" offset="0"/>
<stop stop-color="#255cc7" offset=".5"/>
<stop stop-color="#3d3dd3" offset="1"/>
</linearGradient>
<linearGradient id="linearGradient34063-2" x1="79.735" x2="21.187" y1="42.158" y2="1.0037" gradientTransform="translate(-.00043396 -3.3768e-5)" gradientUnits="userSpaceOnUse">
<stop stop-color="#9e7fdc" stop-opacity=".1" offset="0"/>
<stop stop-color="#9e7fdc" stop-opacity="0" offset="1"/>
</linearGradient>
<linearGradient id="linearGradient53858-2" x1="79.735" x2="21.187" y1="42.158" y2="1.0037" gradientTransform="matrix(-1 0 0 1 274.9 115.5)" gradientUnits="userSpaceOnUse">
<stop stop-color="#7fdcdb" stop-opacity=".07" offset="0"/>
<stop stop-color="#9e7fdc" stop-opacity="0" offset="1"/>
</linearGradient>
<linearGradient id="linearGradient35392-8" x1="654.09" x2="409.86" y1="615.36" y2="437.69" gradientTransform="matrix(.26458 0 0 .26458 7.6724 -28.609)" gradientUnits="userSpaceOnUse">
<stop stop-color="#b1cdef" stop-opacity=".26275" offset="0"/>
<stop stop-color="#9e80dc" stop-opacity="0" offset="1"/>
</linearGradient>
<linearGradient id="linearGradient37083-9" x1="32.688" x2="-4.3074" y1="61.359" y2="35.59" gradientTransform="translate(-.00043396 -3.3768e-5)" gradientUnits="userSpaceOnUse">
<stop stop-color="#a9e3ed" stop-opacity=".05" offset="0"/>
<stop stop-color="#a9e3ed" stop-opacity="0" offset="1"/>
</linearGradient>
<linearGradient id="linearGradient37280-7" x1="32.688" x2="-4.3074" y1="61.359" y2="35.59" gradientTransform="matrix(2.4503 0 0 2.4503 88.339 -43.726)" gradientUnits="userSpaceOnUse">
<stop stop-color="#60cbde" stop-opacity=".059582" offset="0"/>
<stop stop-color="#a9e3ed" stop-opacity="0" offset="1"/>
</linearGradient>
<linearGradient id="linearGradient37849-3" x1="32.688" x2="-4.3074" y1="61.359" y2="35.59" gradientTransform="matrix(2.4503 0 0 2.4503 24.759 -35.291)" gradientUnits="userSpaceOnUse">
<stop stop-color="#84b0b8" stop-opacity=".05" offset="0"/>
<stop stop-color="#a9e3ed" stop-opacity="0" offset="1"/>
</linearGradient>
<linearGradient id="linearGradient69576-6" x1="-24.528" x2="386.16" y1="-24.045" y2="-24.045" gradientTransform="translate(-.00043396 -28.678)" gradientUnits="userSpaceOnUse" xlink:href="#linearGradient17531-6"/>
<linearGradient id="linearGradient53643-1" x1="79.735" x2="21.187" y1="42.158" y2="1.0037" gradientTransform="matrix(-1 0 0 1 275.21 70.353)" gradientUnits="userSpaceOnUse">
<stop stop-color="#dc7fdc" stop-opacity=".08" offset="0"/>
<stop stop-color="#9e7fdc" stop-opacity="0" offset="1"/>
</linearGradient>
<linearGradient id="linearGradient53697-2" x1="32.688" x2="-4.3074" y1="61.359" y2="35.59" gradientTransform="matrix(-2.4503 0 0 2.4503 334.34 -102.36)" gradientUnits="userSpaceOnUse">
<stop stop-color="#a9e3ed" stop-opacity=".06" offset="0"/>
<stop stop-color="#a9e3ed" stop-opacity="0" offset="1"/>
</linearGradient>
<linearGradient id="linearGradient53804-9" x1="32.688" x2="-4.3074" y1="61.359" y2="35.59" gradientTransform="matrix(-2.4503 0 0 2.4503 317.02 -73.165)" gradientUnits="userSpaceOnUse">
<stop stop-color="#dd83f2" stop-opacity=".12549" offset="0"/>
<stop stop-color="#a9e3ed" stop-opacity="0" offset="1"/>
</linearGradient>
<linearGradient id="linearGradient5163-3" x1="654.09" x2="409.86" y1="615.36" y2="437.69" gradientTransform="matrix(-.26458 0 0 .26458 353.75 -28.609)" gradientUnits="userSpaceOnUse">
<stop stop-color="#b1cdef" stop-opacity=".14678" offset="0"/>
<stop stop-color="#9e80dc" stop-opacity="0" offset="1"/>
</linearGradient>
</defs>
<rect x="7.1054e-15" width="361.42" height="203.2" fill="#1b1e20" stop-color="#000000" style="-inkscape-stroke:none;font-variation-settings:normal;paint-order:stroke fill markers"/>
<path d="m-21.656-6.5231v20.919l191.38 140.54 10.981 23.178 10.981-23.178 191.38-140.54v-20.919l-202.37 148.61z" fill="url(#linearGradient75480-3)" stop-color="#000000" style="-inkscape-stroke:none;font-variation-settings:normal"/>
<path d="m-41.355 15.842s10.837 22.539 50.589 20.577c5.6788-0.2803 11.948-1.0606 18.859-2.4781 41.47-8.505 56.432 22.208 67.268 50.927 3.6119 9.5731 6.7654 18.925 10.289 26.528 10.125 21.846 35.356 48.779 63.066 61.098 16.626 7.3914 34.143 9.522 49.825 2.1366 13.361-6.2925 15.966-13.923 15.425-21.027s-4.2286-13.682-3.4522-17.869c2.0084-10.832 9.8145-12.177 17.65-11.449 13.06 1.2131 26.203 8.1836 12.728-13.413-4.1859-6.7086-6.2648-12.743-6.9593-18.068-2.0835-15.975 8.2925-25.565 11.618-27.812 4.3751-2.9564 9.5016-5.1776 15.176-6.8427 39.723-11.656 106.31 3.9388 130.09-14.636m-450.74-28.396c0.95987 0.30032 11.65 23.381 50.228 22.368 5.5067-0.08629 11.616-0.68971 18.374-1.9398 40.549-7.5008 56.184 22.146 67.55 49.685 3.748 9.1984 7.0963 18.264 10.815 25.691 10.574 21.325 35.896 47.968 63.119 60.417 16.334 7.4692 33.419 9.8756 48.584 3.0126 12.881-5.6948 15.062-12.722 13.891-19.434-1.171-6.7118-5.2629-13.908-4.4238-18.797 2.0157-11.145 10.001-13.076 18.538-12.589 13.761 0.92338 27.986 7.382 15.704-13.833-3.7421-6.6095-5.5363-12.548-6.1497-17.77-1.6396-15.812 7.8305-25.705 11.203-28.141 4.2768-2.9162 9.3052-5.1089 14.896-6.7493 39.726-11.504 104.15 2.2701 127.26-15.789m-448.15-26.856c1.9197 0.60064 12.462 24.223 49.868 24.159 5.3346 0.10772 11.285-0.31879 17.889-1.4016 39.628-6.4966 55.935 22.085 67.831 48.444 3.884 8.8238 7.4273 17.604 11.34 24.854 11.023 20.803 36.436 47.157 63.172 59.736 16.042 7.5471 32.695 10.229 47.342 3.8886 12.401-5.0972 14.158-11.521 12.357-17.841-1.8007-6.3198-6.2971-14.133-5.3955-19.725 2.023-11.458 10.187-13.975 19.426-13.73 14.462 0.63369 29.769 6.5805 18.68-14.253-3.2983-6.5104-4.8077-12.352-5.3401-17.471-1.1956-15.648 7.3685-25.844 10.788-28.469 4.1785-2.8761 9.1088-5.0402 14.615-6.6558 39.728-11.352 101.98 0.60141 124.44-16.942m-445.57-25.317c2.8796 0.90097 13.275 25.065 49.508 25.949 5.1626 0.30173 10.953 0.05212 17.404-0.86327 38.707-5.4924 55.687 22.023 68.113 47.202 4.02 8.4491 7.7582 16.944 11.865 24.016 11.473 20.281 36.976 46.347 63.225 59.055 15.749 7.625 31.971 10.583 46.101 4.7645 11.921-4.4994 13.253-10.32 10.823-16.248s-7.3313-14.359-6.3672-20.653c2.0304-11.77 10.373-14.874 20.313-14.871 15.163 0.344 31.552 5.7789 21.656-14.673-2.8546-6.4114-4.0792-12.157-4.5306-17.173-0.75169-15.485 6.9065-25.983 10.373-28.798 4.0802-2.8359 8.9123-4.9715 14.335-6.5624 39.731-11.201 99.813-1.0673 121.61-18.095m-442.99-23.777c3.8395 1.2013 14.088 25.907 49.147 27.74 4.9905 0.49574 10.621 0.42305 16.919-0.32498 37.785-4.4882 55.438 21.962 68.394 45.96 4.1561 8.0745 8.0892 16.284 12.39 23.179 11.922 19.76 37.515 45.536 63.278 58.374 15.457 7.7028 31.247 10.936 44.859 5.6405 11.44-3.9018 12.349-9.119 9.289-14.655-3.0602-5.5356-8.3656-14.585-7.3388-21.581 2.0377-12.083 10.559-15.774 21.201-16.012 15.864 0.0543 33.335 4.9773 24.632-15.093-2.4108-6.3123-3.3507-11.961-3.721-16.874-0.30775-15.321 6.4444-26.122 9.9576-29.126 3.9819-2.7958 8.7159-4.9028 14.054-6.469 39.733-11.049 97.646-2.736 118.78-19.247m-440.41-22.237c4.7994 1.5016 14.9 26.749 48.787 29.531 4.8184 0.68975 10.29 0.79396 16.434 0.21331 36.864-3.4839 55.19 21.9 68.676 44.719 4.2921 7.6998 8.4201 15.624 12.916 22.342 12.371 19.238 38.055 44.725 63.33 57.693 15.165 7.7807 30.523 11.29 43.618 6.5165 10.96-3.304 11.445-7.9181 7.7549-13.062-3.6899-5.1436-9.3998-14.811-8.3105-22.509 2.045-12.396 10.745-16.673 22.088-17.152 16.565-0.23539 35.118 4.1757 27.608-15.513-1.967-6.2132-2.6221-11.766-2.9114-16.576 0.1362-15.158 5.9824-26.261 9.5426-29.455 3.8836-2.7556 8.5195-4.8341 13.773-6.3756 39.736-10.897 95.48-4.4047 115.96-20.4m-437.83-20.697c5.7592 1.8019 15.713 27.591 48.426 31.322 4.6463 0.88377 9.9583 1.1649 15.949 0.7516 35.943-2.4797 54.941 21.838 68.958 43.477 4.4282 7.3251 8.7511 14.963 13.441 21.504 12.821 18.716 38.595 43.915 63.383 57.012 14.873 7.8585 29.799 11.644 42.376 7.3924 10.48-2.7064 10.54-6.7171 6.2208-11.469s-10.434-15.037-9.2821-23.437c2.0523-12.709 10.931-17.572 22.976-18.293 17.266-0.52509 36.901 3.3741 30.583-15.932-1.5232-6.1141-1.8936-11.57-2.1018-16.277 0.58015-14.994 5.5204-26.4 9.1277-29.784 3.7853-2.7155 8.323-4.7654 13.493-6.2821 39.738-10.746 93.313-6.0734 113.13-21.553m-435.24-19.157c6.7191 2.1023 16.526 28.433 48.066 33.113 4.4742 1.0778 9.6267 1.5358 15.464 1.2899 35.022-1.4755 54.693 21.777 69.239 42.235 4.5642 6.9505 9.082 14.303 13.966 20.667 13.27 18.194 39.135 43.104 63.436 56.331 14.581 7.9364 29.075 11.997 41.135 8.2684 9.9995-2.1086 9.6362-5.5162 4.6867-9.8756-4.9494-4.3594-11.468-15.263-10.254-24.365 2.0596-13.022 11.117-18.472 23.864-19.434 17.967-0.81478 38.683 2.5725 33.559-16.352-1.0794-6.015-1.165-11.375-1.2922-15.978 1.0241-14.831 5.0584-26.54 8.7127-30.112 3.687-2.6753 8.1266-4.6967 13.212-6.1887 39.741-10.594 91.147-7.7422 110.3-22.705m-432.66-17.618c7.679 2.4026 17.338 29.275 47.706 34.904 4.3021 1.2718 9.2951 1.9067 14.979 1.8282 34.101-0.47132 54.444 21.715 69.521 40.994 4.7002 6.5758 9.413 13.643 14.492 19.829 13.719 17.673 39.674 42.293 63.489 55.65 14.289 8.0142 28.351 12.351 39.893 9.1443 9.5193-1.511 8.7318-4.3153 3.1526-8.2826s-12.502-15.489-11.225-25.293c2.0669-13.335 11.303-19.371 24.751-20.575 18.668-1.1045 40.466 1.7709 36.535-16.772-0.63561-5.9159-0.43652-11.179-0.4826-15.68 1.468-14.667 4.5964-26.679 8.2977-30.441 3.5888-2.6351 7.9302-4.628 12.931-6.0953 39.743-10.442 88.981-9.4109 107.48-23.858m-430.08-16.078c8.6388 2.7029 18.151 30.117 47.345 36.694 4.1301 1.4658 8.9635 2.2776 14.493 2.3665 33.18 0.53289 54.196 21.654 69.802 39.752 4.8362 6.2011 9.7439 12.983 15.017 18.992 14.169 17.151 40.214 41.482 63.542 54.969 13.997 8.0921 27.627 12.705 38.652 10.02 9.039-0.91327 7.8275-3.1143 1.6186-6.6896-6.2089-3.5752-13.537-15.715-12.197-26.221 2.0742-13.648 11.489-20.27 25.639-21.715 19.369-1.3942 42.249 0.96935 39.511-17.192-0.19182-5.8168 0.29202-10.984 0.32699-15.381 1.912-14.504 4.1343-26.818 7.8827-30.769 3.4904-2.595 7.7337-4.5593 12.651-6.0019 39.745-10.291 86.814-11.08 104.65-25.011m-427.5-14.538c9.5987 3.0032 18.964 30.959 46.985 38.485 3.958 1.6598 8.6319 2.6486 14.008 2.9047 32.258 1.5371 53.947 21.592 70.084 38.51 4.9723 5.8265 10.075 12.323 15.542 18.155 14.618 16.629 40.754 40.672 63.595 54.288 13.705 8.17 26.903 13.058 37.41 10.896 8.5587-0.31557 6.9232-1.9134 0.0845-5.0966s-14.571-15.941-13.169-27.149c2.0816-13.961 11.675-21.17 26.527-22.856 20.07-1.6839 44.032 0.16775 42.487-17.612 0.25197-5.7177 1.0206-10.789 1.1366-15.083 2.3559-14.34 3.6723-26.957 7.4677-31.098 3.3922-2.5548 7.5373-4.4906 12.37-5.9084 39.748-10.139 84.648-12.748 101.82-26.164m-424.92-12.998c10.559 3.3036 19.776 31.801 46.624 40.276 3.7859 1.8538 8.3004 3.0195 13.523 3.443 31.337 2.5413 53.699 21.531 70.366 37.269 5.1083 5.4518 10.406 11.662 16.068 17.317 15.067 16.108 41.294 39.861 63.648 53.607 13.413 8.2478 26.179 13.412 36.168 11.772 8.0784 0.28212 6.0188-0.71247-1.4496-3.5036s-15.605-16.167-14.14-28.077c2.0889-14.274 11.861-22.069 27.414-23.997 20.771-1.9736 45.815-0.63383 45.463-18.031 0.69575-5.6186 1.7491-10.593 1.9462-14.784 2.7998-14.177 3.2103-27.096 7.0528-31.426 3.2938-2.5147 7.3409-4.4219 12.09-5.815 39.75-9.9872 82.482-14.417 98.994-27.316m-422.33-11.458c11.518 3.6039 20.589 32.643 46.264 42.067 3.6138 2.0478 7.9688 3.3904 13.038 3.9813 30.416 3.5455 53.45 21.469 70.647 36.027 5.2444 5.0772 10.737 11.002 16.593 16.48 15.517 15.586 41.833 39.05 63.701 52.926 13.121 8.3257 25.455 13.766 34.927 12.648 7.5982 0.87983 5.1145 0.48847-2.9837-1.9105s-16.639-16.393-15.112-29.005c2.0962-14.587 12.047-22.968 28.302-25.138 21.472-2.2632 47.598-1.4354 48.439-18.451 1.1395-5.5196 2.4776-10.398 2.7558-14.486 3.2438-14.013 2.7483-27.236 6.6378-31.755 3.1956-2.4745 7.1444-4.3531 11.809-5.7216 39.753-9.8355 80.315-16.086 96.168-28.469m-419.75-9.9187c12.478 3.9042 21.402 33.485 45.904 43.858 3.4417 2.2418 7.6372 3.7613 12.553 4.5196 29.495 4.5497 53.202 21.407 70.929 34.785 5.3804 4.7025 11.068 10.342 17.118 15.643 15.966 15.064 42.373 38.24 63.754 52.245 12.829 8.4035 24.73 14.119 33.685 13.524 7.1179 1.4775 4.2102 1.6894-4.5178-0.31753-8.7279-2.0069-17.674-16.618-16.084-29.933 2.1035-14.9 12.233-23.868 29.189-26.278 22.173-2.553 49.381-2.237 51.415-18.871 1.5833-5.4205 3.2062-10.202 3.5653-14.187 3.6878-13.85 2.2862-27.375 6.2228-32.084 3.0973-2.4344 6.948-4.2844 11.528-5.6282 39.755-9.6839 78.149-17.754 93.341-29.622m-417.17-8.3789c13.438 4.2045 22.214 34.327 45.543 45.649 3.2697 2.4359 7.3056 4.1322 12.068 5.0579 28.574 5.5539 52.953 21.346 71.21 33.544 5.5164 4.3278 11.399 9.6817 17.643 14.805 16.415 14.542 42.913 37.429 63.807 51.564 12.537 8.4814 24.006 14.473 32.444 14.4 6.6376 2.0752 3.3058 2.8903-6.0518 1.2755-9.3577-1.6149-18.708-16.844-17.055-30.861 2.1108-15.213 12.419-24.767 30.077-27.419 22.874-2.8426 51.163-3.0386 54.391-19.291 2.0271-5.3214 3.9347-10.007 4.3749-13.889 4.1317-13.686 1.8242-27.514 5.8078-32.412 2.999-2.3942 6.7516-4.2157 11.248-5.5348 39.758-9.5322 75.983-19.423 90.514-30.775m-414.59-6.8391c14.398 4.5048 23.027 35.169 45.183 47.439 3.0976 2.6299 6.9741 4.5032 11.583 5.5962 27.653 6.5581 52.705 21.284 71.492 32.302 5.6525 3.9532 11.73 9.0215 18.169 13.968 16.865 14.021 43.453 36.618 63.86 50.883 12.245 8.5592 23.282 14.826 31.202 15.276 6.1574 2.6729 2.4015 4.0913-7.5859 2.8685s-19.742-17.07-18.027-31.789c2.1181-15.525 12.605-25.666 30.965-28.56 23.575-3.1323 52.946-3.8402 57.367-19.711 2.4709-5.2223 4.6632-9.8112 5.1845-13.59 4.5756-13.523 1.3622-27.653 5.3929-32.741 2.9007-2.354 6.5551-4.147 10.967-5.4413 39.76-9.3805 73.816-21.092 87.687-31.927m-412-5.2993c15.358 4.8052 23.84 36.011 44.822 49.23 2.9255 2.8239 6.6425 4.8741 11.098 6.1345 26.731 7.5624 52.456 21.223 71.774 31.06 5.7885 3.5785 12.061 8.3612 18.694 13.13 17.314 13.499 43.992 35.807 63.913 50.203 11.952 8.6371 22.558 15.18 29.961 16.152 5.6771 3.2706 1.4972 5.2922-9.12 4.4615-10.617-0.8307-20.776-17.296-18.999-32.717 2.1254-15.838 12.791-26.566 31.852-29.701 24.276-3.422 54.729-4.6418 60.343-20.131 2.9147-5.1232 5.3918-9.6157 5.9941-13.291 5.0196-13.359 0.90017-27.792 4.9779-33.069 2.8024-2.3139 6.3587-4.0783 10.687-5.3479 39.763-9.2288 71.65-22.761 84.86-33.08m-409.42-3.7595c16.318 5.1055 24.652 36.853 44.462 51.021 2.7534 3.0179 6.3109 5.245 10.613 6.6728 25.81 8.5666 52.208 21.161 72.055 29.819 5.9245 3.2039 12.392 7.701 19.219 12.293 17.763 12.977 44.532 34.997 63.966 49.522 11.66 8.7149 21.834 15.534 28.719 17.028 5.1968 3.8683 0.59285 6.4931-10.654 6.0545-11.247-0.43863-21.811-17.522-19.97-33.645 2.1328-16.151 12.977-27.465 32.74-30.841 24.977-3.7117 56.512-5.4434 63.319-20.55 3.3585-5.0241 6.1203-9.4202 6.8037-12.993 5.4635-13.196 0.43815-27.931 4.5629-33.398 2.7041-2.2737 6.1623-4.0096 10.406-5.2545 39.765-9.0772 69.483-24.429 82.033-34.233m-406.84-2.2197c17.278 5.4058 25.465 37.695 44.102 52.812 2.5813 3.2119 5.9793 5.6159 10.128 7.2111 24.889 9.5708 51.959 21.1 72.337 28.577 6.0606 2.8292 12.722 7.0408 19.745 11.456 18.213 12.456 45.072 34.186 64.019 48.841 11.368 8.7928 21.11 15.887 27.478 17.904 4.7165 4.466-0.31148 7.6941-12.188 7.6475-11.877-0.0465-22.845-17.748-20.942-34.573 2.1401-16.464 13.163-28.364 33.627-31.982 25.678-4.0014 58.295-6.2449 66.295-20.97 3.8023-4.925 6.8488-9.2247 7.6133-12.694 5.9075-13.032-0.0239-28.071 4.1479-33.726 2.6058-2.2336 5.9658-3.9409 10.125-5.1611 39.767-8.9255 67.317-26.098 79.206-35.386m-404.26-0.67985c18.238 5.7061 26.278 38.537 43.741 54.603 2.4092 3.4059 5.6478 5.9868 9.6424 7.7493 23.968 10.575 51.711 21.038 72.619 27.335 6.1966 2.4545 13.053 6.3806 20.27 10.618 18.662 11.934 45.612 33.375 64.072 48.16 11.076 8.8706 20.386 16.241 26.236 18.78 4.2363 5.0637-1.2158 8.895-13.722 9.2405-12.506 0.34553-23.879-17.974-21.914-35.501 2.1474-16.777 13.349-29.263 34.515-33.123 26.379-4.2911 60.078-7.0465 69.271-21.39 4.246-4.8259 7.5774-9.0293 8.4229-12.396 6.3514-12.869-0.48589-28.21 3.733-34.055 2.5075-2.1934 5.7694-3.8722 9.8447-5.0676 39.77-8.7738 65.151-27.767 76.379-36.538m-401.68 0.85995c19.197 6.0065 27.09 39.379 43.381 56.394 2.2372 3.5999 5.3162 6.3578 9.1573 8.2876 23.047 11.579 51.462 20.976 72.9 26.094 6.3326 2.0799 13.384 5.7204 20.795 9.7808 19.111 11.412 46.151 32.565 64.125 47.479 10.784 8.9485 19.662 16.595 24.995 19.656 3.756 5.6614-2.1201 10.096-15.256 10.834s-24.913-18.2-22.885-36.429c2.1547-17.09 13.535-30.163 35.403-34.264 27.08-4.5808 61.861-7.8481 72.247-21.81 4.6898-4.7269 8.3059-8.8338 9.2325-12.097 6.7953-12.705-0.94792-28.349 3.318-34.383 2.4092-2.1533 5.573-3.8035 9.5641-4.9742 39.772-8.6222 62.984-29.435 73.553-37.691m-399.09 2.3997c20.157 6.3068 27.903 40.221 43.02 58.184 2.0651 3.7939 4.9846 6.7287 8.6722 8.8259 22.126 12.583 51.214 20.915 73.182 24.852 6.4687 1.7052 13.715 5.0602 21.32 8.9435 19.561 10.89 46.691 31.754 64.178 46.798 10.492 9.0264 18.938 16.948 23.753 20.532 3.2757 6.2591-3.0245 11.297-16.79 12.427-13.766 1.1297-25.947-18.426-23.857-37.357 2.162-17.403 13.722-31.062 36.29-35.404 27.781-4.8705 63.643-8.6497 75.223-22.23 5.1336-4.6278 9.0344-8.6383 10.042-11.799 7.2393-12.542-1.4099-28.488 2.903-34.712 2.3109-2.1131 5.3765-3.7348 9.2835-4.8808 39.775-8.4705 60.818-31.104 70.726-38.844m-396.51 3.9395c21.117 6.6071 28.716 41.063 42.66 59.975 1.893 3.988 4.653 7.0996 8.1871 9.3642 21.204 13.588 50.965 20.853 73.463 23.61 6.6047 1.3305 14.046 4.3999 21.846 8.1061 20.01 10.369 47.231 30.943 64.231 46.117 10.2 9.1042 18.214 17.302 22.512 21.408 2.7955 6.8568-3.9288 12.498-18.324 14.02-14.396 1.5218-26.982-18.652-24.829-38.285 2.1693-17.716 13.908-31.961 37.178-36.545 28.482-5.1602 65.426-9.4513 78.199-22.65 5.5774-4.5287 9.763-8.4429 10.852-11.5 7.6832-12.378-1.872-28.627 2.488-35.041 2.2126-2.073 5.1801-3.6661 9.0029-4.7874 39.777-8.3188 58.652-32.773 67.899-39.997m-393.93 5.4793c22.077 6.9074 29.528 41.905 42.3 61.766 1.7209 4.182 4.3215 7.4705 7.702 9.9025 20.283 14.592 50.717 20.792 73.745 22.369 6.7408 0.95588 14.377 3.7397 22.371 7.2687 20.459 9.8469 47.771 30.132 64.284 45.436 9.908 9.1821 17.49 17.656 21.27 22.284 2.3152 7.4545-4.8331 13.699-19.859 15.613-15.025 1.9138-28.016-18.878-25.8-39.213 2.1767-18.029 14.094-32.861 38.065-37.686 29.183-5.4499 67.209-10.253 81.175-23.069 6.0212-4.4296 10.492-8.2474 11.661-11.202 8.1272-12.215-2.334-28.767 2.073-35.369 2.1143-2.0328 4.9837-3.5974 8.7223-4.6939 39.78-8.1671 56.485-34.442 65.072-41.149m-391.35 7.0192c23.037 7.2077 30.341 42.747 41.939 63.557 1.5488 4.376 3.9899 7.8414 7.2169 10.441 19.362 15.596 50.468 20.73 74.027 21.127 6.8768 0.58122 14.708 3.0795 22.896 6.4313 20.909 9.3252 48.31 29.322 64.337 44.755 9.6159 9.2599 16.766 18.009 20.029 23.16 1.8349 8.0522-5.7375 14.9-21.393 17.206-15.655 2.3059-29.05-19.104-26.772-40.141 2.184-18.342 14.28-33.76 38.953-38.827 29.884-5.7396 68.992-11.054 84.151-23.489 6.465-4.3305 11.22-8.0519 12.471-10.903 8.5711-12.051-2.796-28.906 1.6581-35.698 2.016-1.9926 4.7872-3.5287 8.4416-4.6005 39.782-8.0155 54.319-36.11 62.245-42.302m-388.76 8.559c23.997 7.5081 31.154 43.589 41.579 65.348 1.3767 4.57 3.6583 8.2124 6.7318 10.979 18.441 16.6 50.22 20.669 74.308 19.885 7.0128 0.20656 15.039 2.4193 23.422 5.5939 21.358 8.8035 48.85 28.511 64.39 44.074 9.3238 9.3378 16.042 18.363 18.787 24.036 1.3546 8.6499-6.6418 16.101-22.927 18.799-16.285 2.698-30.084-19.329-27.744-41.069 2.1913-18.655 14.466-34.659 39.841-39.967 30.585-6.0293 70.775-11.856 87.127-23.909 6.9088-4.2314 11.949-7.8564 13.28-10.604 9.0151-11.888-3.258-29.045 1.2431-36.026 1.9177-1.9525 4.5908-3.46 8.161-4.5071 39.785-7.8638 52.152-37.779 59.418-43.455m-386.18 10.099c24.957 7.8084 31.966 44.431 41.218 67.139 1.2047 4.764 3.3267 8.5833 6.2467 11.517 17.52 17.604 49.971 20.607 74.59 18.644 7.1489-0.16811 15.37 1.7591 23.947 4.7566 21.807 8.2818 49.39 27.7 64.443 43.393 9.0318 9.4156 15.318 18.717 17.546 24.912 0.87438 9.2476-7.5461 17.302-24.461 20.392-16.915 3.0901-31.119-19.555-28.715-41.997 2.1986-18.968 14.652-35.559 40.728-41.108 31.286-6.319 72.558-12.658 90.103-24.329 7.3526-4.1323 12.677-7.661 14.09-10.306 9.459-11.724-3.72-29.184 0.82812-36.355 1.8194-1.9123 4.3944-3.3913 7.8804-4.4137 39.787-7.7121 49.986-39.448 56.591-44.608m-383.6 11.639c25.916 8.1087 32.779 45.273 40.858 68.929 1.0326 4.958 2.9952 8.9542 5.7616 12.056 16.599 18.609 49.723 20.545 74.871 17.402 7.2849-0.54277 15.701 1.0989 24.472 3.9192 22.256 7.7601 49.93 26.89 64.496 42.712 8.7397 9.4935 14.594 19.07 16.304 25.788 0.39411 9.8453-8.4505 18.502-25.995 21.985-17.544 3.4821-32.153-19.781-29.687-42.925 2.2059-19.28 14.838-36.458 41.616-42.249 31.987-6.6087 74.341-13.459 93.079-24.749 7.7964-4.0332 13.406-7.4655 14.9-10.007 9.9029-11.561-4.1821-29.323 0.41314-36.683 1.7211-1.8722 4.1979-3.3226 7.5998-4.3202 39.789-7.5605 47.82-41.116 53.764-45.76m-381.02 13.178c26.876 8.409 33.592 46.115 40.498 70.72 0.86049 5.152 2.6636 9.3251 5.2765 12.594 15.677 19.613 49.474 20.484 75.153 16.16 7.4209-0.91743 16.032 0.43863 24.997 3.0818 22.706 7.2384 50.469 26.079 64.549 42.031 8.4476 9.5714 13.869 19.424 15.063 26.664-0.0862 10.443-9.3548 19.703-27.529 23.578-18.174 3.8742-33.187-20.007-30.659-43.853 2.2132-19.593 15.024-37.357 42.503-43.389 32.688-6.8984 76.124-14.261 96.055-25.169 8.2401-3.9341 14.134-7.27 15.709-9.7088 10.347-11.397-4.6441-29.462-2e-3 -37.012 1.6228-1.832 4.0015-3.2539 7.3192-4.2268 39.792-7.4088 45.653-42.785 50.937-46.913m-378.44 14.718c27.836 8.7094 34.404 46.957 40.137 72.511 0.68841 5.346 2.332 9.696 4.7914 13.132 14.756 20.617 49.226 20.422 75.435 14.919 7.557-1.2921 16.363-0.22158 25.523 2.2444 23.155 6.7166 51.009 25.268 64.602 41.35 8.1556 9.6492 13.145 19.777 13.821 27.54-0.56643 11.041-10.259 20.904-29.063 25.171-18.804 4.2663-34.221-20.233-31.63-44.781 2.2206-19.906 15.21-38.257 43.391-44.53 33.389-7.1881 77.906-15.062 99.031-25.588 8.6839-3.8351 14.863-7.0746 16.519-9.4102 10.791-11.234-5.1061-29.602-0.41681-37.341 1.5245-1.7919 3.8051-3.1852 7.0386-4.1334 39.794-7.2571 43.487-44.454 48.111-48.066m-375.85 16.258c28.796 9.0097 35.217 47.799 39.777 74.302 0.51633 5.54 2.0004 10.067 4.3063 13.671 13.835 21.621 48.977 20.361 75.716 13.677 7.693-1.6668 16.694-0.8818 26.048 1.407 23.604 6.1949 51.549 24.457 64.655 40.669 7.8635 9.7271 12.421 20.131 12.58 28.416-1.0467 11.638-11.163 22.105-30.597 26.764-19.434 4.6584-35.256-20.459-32.602-45.709 2.2279-20.219 15.396-39.156 44.279-45.671 34.09-7.4778 79.689-15.864 102.01-26.008 9.1277-3.736 15.591-6.8791 17.328-9.1116 11.235-11.07-5.5681-29.741-0.83179-37.669 1.4262-1.7517 3.6086-3.1165 6.758-4.04 39.797-7.1054 41.321-46.123 45.284-49.218m-373.27 17.798c29.756 9.31 36.03 48.641 39.416 76.093 0.34425 5.7341 1.6689 10.438 3.8212 14.209 12.914 22.626 48.729 20.299 75.998 12.435 7.829-2.0414 17.025-1.542 26.573 0.56965 24.054 5.6732 52.089 23.647 64.708 39.988 7.5714 9.8049 11.697 20.485 11.338 29.291-1.527 12.236-12.068 23.306-32.131 28.357-20.063 5.0504-36.29-20.685-33.574-46.637 2.2352-20.532 15.582-40.055 45.166-46.812 34.791-7.7674 81.472-16.666 104.98-26.428 9.5715-3.6369 16.32-6.6836 18.138-8.8131 11.679-10.907-6.0302-29.88-1.2468-37.998 1.3279-1.7115 3.4122-3.0478 6.4773-3.9466 39.799-6.9538 39.154-47.791 42.457-50.371m-370.69 19.338c30.716 9.6103 36.842 49.483 39.056 77.884 0.17216 5.9281 1.3373 10.809 3.336 14.747 11.993 23.63 48.481 20.238 76.279 11.194 7.9651-2.4161 17.356-2.2022 27.099-0.26773 24.503 5.1515 52.628 22.836 64.761 39.307 7.2793 9.8828 10.973 20.838 10.097 30.167-2.0072 12.834-12.972 24.507-33.665 29.95-20.693 5.4425-37.324-20.911-34.545-47.565 2.2425-20.845 15.768-40.954 46.054-47.952 35.492-8.0571 83.255-17.467 107.96-26.848 10.015-3.5378 17.048-6.4881 18.948-8.5145 12.123-10.743-6.4922-30.019-1.6617-38.326 1.2296-1.6714 3.2158-2.9791 6.1967-3.8531 39.802-6.8021 36.988-49.46 39.63-51.524m-368.11 20.877c31.676 9.9107 37.655 50.325 38.695 79.674 8.1e-5 6.1221 1.0057 11.18 2.8509 15.285 11.071 24.634 48.232 20.176 76.561 9.9518 8.1011-2.7907 17.687-2.8625 27.624-1.1051 24.952 4.6298 53.168 22.025 64.814 38.626 6.9873 9.9606 10.249 21.192 8.8553 31.043-2.4875 13.431-13.876 25.708-35.199 31.543s-38.358-21.137-35.517-48.493c2.2498-21.158 15.954-41.854 46.941-49.093 36.193-8.3468 85.038-18.269 110.93-27.268 10.459-3.4387 17.777-6.2927 19.757-8.216 12.567-10.58-6.9542-30.158-2.0767-38.655 1.1313-1.6312 3.0193-2.9104 5.9161-3.7597 39.804-6.6504 34.822-51.129 36.803-52.677m-365.52 22.417c32.636 10.211 38.468 51.167 38.335 81.465-0.172 6.3161 0.67412 11.551 2.3658 15.824 10.15 25.638 47.984 20.115 76.843 8.7102 8.2372-3.1654 18.018-3.5227 28.149-1.9425 25.402 4.1081 53.708 21.215 64.867 37.945 6.6952 10.038 9.5251 21.546 7.6138 31.919-2.9678 14.029-14.781 26.909-36.733 33.136-21.953 6.2267-39.392-21.363-36.489-49.421 2.2571-21.471 16.14-42.753 47.829-50.234 36.893-8.6365 86.821-19.07 113.91-27.687 10.903-3.3396 18.505-6.0972 20.567-7.9174 13.011-10.416-7.4162-30.298-2.4917-38.983 1.033-1.5911 2.8229-2.8417 5.6355-3.6663 39.807-6.4988 32.655-52.797 33.976-53.829m-362.94 23.957c33.595 10.511 39.28 52.009 37.975 83.256-0.34408 6.5101 0.34255 11.922 1.8807 16.362 9.2291 26.642 47.735 20.053 77.124 7.4685 8.3732-3.5401 18.349-4.1829 28.674-2.7799 25.851 3.5863 54.248 20.404 64.919 37.264 6.4031 10.116 8.801 21.899 6.3722 32.795-3.4481 14.627-15.685 28.11-38.268 34.729-22.582 6.6188-40.427-21.589-37.46-50.349 2.2644-21.784 16.326-43.652 48.717-51.375 37.594-8.9262 88.604-19.872 116.89-28.107 11.347-3.2405 19.234-5.9017 21.376-7.6189 13.454-10.253-7.8782-30.437-2.9067-39.312 0.93473-1.5509 2.6265-2.773 5.3549-3.5729 39.809-6.3471 30.489-54.466 31.149-54.982m-360.36 25.497c34.555 10.812 40.093 52.851 37.614 85.047-0.51617 6.7041 0.01097 12.292 1.3956 16.9 8.3079 27.647 47.487 19.991 77.406 6.2268 8.5092-3.9147 18.68-4.8431 29.2-3.6173 26.3 3.0646 54.787 19.593 64.972 36.583 6.111 10.194 8.077 22.253 5.1307 33.671-3.9283 15.225-16.589 29.311-39.802 36.322-23.212 7.0108-41.461-21.814-38.432-51.277 2.2718-22.097 16.512-44.552 49.604-52.515 38.295-9.2159 90.386-20.674 119.86-28.527 11.79-3.1414 19.962-5.7062 22.186-7.3203 13.898-10.089-8.3403-30.576-3.3216-39.641 0.83644-1.5108 2.43-2.7042 5.0742-3.4794 39.811-6.1954 28.322-56.135 28.322-56.135" fill="none" stroke="url(#linearGradient3595-6)" stroke-width=".26458px"/>
<path d="m385.05 27.835v196.55h-409.49l3e-6 -197.33 205.15 150.84z" fill="#1b1e20" stop-color="#000000" style="-inkscape-stroke:none;font-variation-settings:normal"/>
<g transform="matrix(1.4526 0 0 1.4526 -81.797 78.666)" opacity=".02" stroke-width=".6884">
<g transform="translate(0 77.637)" opacity=".075" stroke-width=".6884">
<path d="m-21.655-173.61 202.37 148.61 202.37-148.61v16.181l-202.37 148.61-202.37-148.61z" fill="url(#linearGradient21995-7)" stop-color="#000000" style="-inkscape-stroke:none;font-variation-settings:normal"/>
<path d="m-21.655-193.8 202.37 148.61 202.37-148.61v22.391l-202.37 148.61-202.37-148.61z" fill="url(#linearGradient21997-5)"/>
<path d="m-21.655-157.94 202.37 148.61 202.37-148.61v1.7412l-202.37 148.61-202.37-148.61z" fill="url(#linearGradient21999-5)" stop-color="#000000" style="-inkscape-stroke:none;font-variation-settings:normal;paint-order:stroke fill markers"/>
</g>
<path d="m-21.656-22.398v20.919l191.38 140.54 10.981 23.178 10.981-23.178 191.38-140.54v-20.919l-202.37 148.61z" fill="url(#linearGradient22001-2)" stop-color="#000000" style="-inkscape-stroke:none;font-variation-settings:normal"/>
<path d="m191.22 138.75-10.513 23.491 202.37-148.61v-15.771z" fill="url(#linearGradient22003-9)"/>
<path d="m-21.656-2.1353v15.771l202.37 148.61-10.513-23.491z" fill="url(#linearGradient22005-1)"/>
<path d="m-21.656-2.1353v1.3126l190.92 140.2 11.449 22.866 11.449-22.866 190.92-140.2v-1.3126l-191.85 140.89-10.513 21.102-10.513-21.102-191.54-140.66z" color="#000000" fill="url(#linearGradient22007-2)" stroke-linecap="square" stroke-width=".18214" style="-inkscape-stroke:none"/>
<path d="m-21.655-41.581 202.37 148.61 202.37-148.61v21.473l-202.37 148.61-202.37-148.61z" fill="url(#linearGradient22009-0)" stop-color="#000000" style="-inkscape-stroke:none;font-variation-settings:normal"/>
<path d="m-21.655-23.098 202.37 148.61 202.37-148.61v2.9889l-202.37 148.61-202.37-148.61z" fill="url(#linearGradient22011-9)" stop-color="#000000" style="-inkscape-stroke:none;font-variation-settings:normal;paint-order:stroke fill markers"/>
<path d="m-21.655-62.914 202.37 148.61 202.37-148.61v22.391l-202.37 148.61-202.37-148.61z" fill="url(#linearGradient22013-6)"/>
<path d="m-21.655-64.05 202.37 148.61 202.37-148.61v1.7412l-202.37 148.61-202.37-148.61z" fill="url(#linearGradient22015-0)" stop-color="#000000" style="-inkscape-stroke:none;font-variation-settings:normal;paint-order:stroke fill markers"/>
<path d="m191.22 138.75-10.513 23.491 202.37-148.61v-15.771z" fill="url(#linearGradient22017-2)"/>
<path d="m170.2 138.75 10.513 23.491-202.37-148.61-2e-6 -15.771z" fill="url(#linearGradient22019-6)"/>
</g>
<g transform="translate(-4.3396e-4,93.512)" opacity=".02">
<path d="m-21.655-173.61 202.37 148.61 202.37-148.61v16.181l-202.37 148.61-202.37-148.61z" fill="url(#linearGradient21995-7)" stop-color="#000000" style="-inkscape-stroke:none;font-variation-settings:normal"/>
<path d="m-21.655-193.8 202.37 148.61 202.37-148.61v22.391l-202.37 148.61-202.37-148.61z" fill="url(#linearGradient21997-5)"/>
<path d="m-21.655-157.94 202.37 148.61 202.37-148.61v1.7412l-202.37 148.61-202.37-148.61z" fill="url(#linearGradient21999-5)" stop-color="#000000" style="-inkscape-stroke:none;font-variation-settings:normal;paint-order:stroke fill markers"/>
</g>
<path d="m191.22 154.63-10.513 23.491 202.37-148.61v-15.771z" fill="url(#linearGradient24593-1)"/>
<path d="m-21.656 13.74v15.771l202.37 148.61-10.513-23.491z" fill="url(#linearGradient78325-8)"/>
<path d="m-21.656 13.74v1.3126l190.92 140.2 11.449 22.866 11.449-22.866 190.92-140.2v-1.3126l-191.85 140.89-10.513 21.102-10.513-21.102-191.54-140.66z" color="#000000" fill="url(#linearGradient87990-7)" stroke-linecap="square" stroke-width=".26458" style="-inkscape-stroke:none"/>
<path d="m-21.656-25.706 202.37 148.61 202.37-148.61v21.473l-202.37 148.61-202.37-148.61z" fill="url(#linearGradient25753-9)" stop-color="#000000" style="-inkscape-stroke:none;font-variation-settings:normal"/>
<path d="m-21.656-7.2226 202.37 148.61 202.37-148.61v2.9889l-202.37 148.61-202.37-148.61z" fill="url(#linearGradient25219-2)" stop-color="#000000" style="-inkscape-stroke:none;font-variation-settings:normal;paint-order:stroke fill markers"/>
<path d="m191.22 154.63-10.513 23.491 202.37-148.61v-15.771z" fill="url(#linearGradient14910-0)"/>
<path d="m170.2 154.63 10.513 23.491-202.37-148.61-2e-6 -15.771z" fill="url(#linearGradient15720-2)"/>
<path d="m111.15 112.58v3.1394l33.984 24.957v-3.1393zm0 4.7268v4.963l33.984 24.957v-4.963zm33.984 31.441-33.984-24.957v2.1167l33.984 24.957z" fill="url(#linearGradient35006-37)"/>
<path d="m345.63 44.038v3.1393l-33.984 24.957v-3.1393zm0 4.7268v4.963l-33.984 24.957v-4.963zm-33.984 31.441 33.984-24.957v2.1167l-33.984 24.957z" fill="url(#linearGradient35006-3-5)"/>
<path d="m180.71 123.96 202.54-148.05-0.17208-1.6114z" fill="#d0b2e4"/>
<path d="m180.71 123.96-202.54-148.05 0.17208-1.6114z" fill="#b2e3e4"/>
<path d="m-21.656-47.039 202.37 148.61 202.37-148.61v22.391l-202.37 148.61-202.37-148.61z" fill="url(#linearGradient26562-9)"/>
<g transform="matrix(.81398 0 0 .8146 44.386 26.81)" fill="none" stop-color="#000000" stroke="#235dc6" stroke-width=".64985" style="-inkscape-stroke:none;font-variation-settings:normal;paint-order:stroke fill markers">
<path d="m116.37 53.187v6.7346" stop-color="#000000" style="-inkscape-stroke:none;font-variation-settings:normal;paint-order:stroke fill markers"/>
<path d="m122.49 57.678v8.7187" stop-color="#000000" style="-inkscape-stroke:none;font-variation-settings:normal;paint-order:stroke fill markers"/>
<path d="m133.56 65.81v8.379" stop-color="#000000" style="-inkscape-stroke:none;font-variation-settings:normal;paint-order:stroke fill markers"/>
<path d="m128.48 62.077v4.1961" stop-color="#000000" style="-inkscape-stroke:none;font-variation-settings:normal;paint-order:stroke fill markers"/>
<circle cx="116.42" cy="61.028" r="1.21" stop-color="#000000" style="-inkscape-stroke:none;font-variation-settings:normal;paint-order:stroke fill markers"/>
<circle cx="122.45" cy="66.901" r=".64061" stop-color="#000000" style="-inkscape-stroke:none;font-variation-settings:normal;paint-order:stroke fill markers"/>
<circle cx="128.5" cy="67.357" r="1.21" stop-color="#000000" style="-inkscape-stroke:none;font-variation-settings:normal;paint-order:stroke fill markers"/>
<circle cx="133.55" cy="75.222" r="1.21" stop-color="#000000" style="-inkscape-stroke:none;font-variation-settings:normal;paint-order:stroke fill markers"/>
</g>
<path d="m28.137-3.8536v15.771l8.7085 6.395v-15.771zm11.284 8.2863v15.771l17.517 12.864v-15.771zm22.861 16.788 0.14624 15.878 10.986 8.0677 0.01913-15.757zm15.192 11.156-0.20567 15.62 3.3166 2.4355v-15.771z" fill="url(#linearGradient34063-2)" stop-color="#000000" style="-inkscape-stroke:none;font-variation-settings:normal"/>
<path d="m246.76 120.11v7.3039l-8.7085 6.395v-7.3039zm-11.284 8.2863v7.3039l-17.517 12.864v-7.3045zm-22.861 16.788-0.14624 7.4114-10.986 8.0677-0.0191-7.29zm-15.192 11.156 0.20568 7.153-3.3166 2.4355v-7.3045z" fill="url(#linearGradient53858-2)" stop-color="#000000" style="-inkscape-stroke:none;font-variation-settings:normal"/>
<g transform="translate(-4.3396e-4,38.943)" opacity=".02">
<path d="m-21.655-173.61 202.37 148.61 202.37-148.61v16.181l-202.37 148.61-202.37-148.61z" fill="url(#linearGradient21995-7)" stop-color="#000000" style="-inkscape-stroke:none;font-variation-settings:normal"/>
<path d="m-21.655-193.8 202.37 148.61 202.37-148.61v22.391l-202.37 148.61-202.37-148.61z" fill="url(#linearGradient21997-5)"/>
<path d="m-21.655-157.94 202.37 148.61 202.37-148.61v1.7412l-202.37 148.61-202.37-148.61z" fill="url(#linearGradient21999-5)" stop-color="#000000" style="-inkscape-stroke:none;font-variation-settings:normal;paint-order:stroke fill markers"/>
</g>
<path d="m101.06 45.999v17.407l25.088 18.424v-17.408z" fill="#7777e1" fill-opacity=".095564"/>
<path d="m118.82 83.97v7.3727l61.887 45.609v-7.3727zm0 8.9602v2.8463l61.887 45.609v-2.8463z" fill="url(#linearGradient35392-8)"/>
<path d="m-0.035409 35.952v4.2535l32.803 24.089v-4.254z" fill="url(#linearGradient37083-9)"/>
<path d="m88.253 44.369v10.422l80.378 59.026v-10.424z" fill="url(#linearGradient37280-7)"/>
<path d="m24.674 52.804v10.423l22.314 16.387v-3.544zm26.553 26.379v3.544l8.7302 6.411v-3.544zm10.842 7.9618v3.544l9.1679 6.7329v-3.5445zm15.598 11.455v3.544l11.541 8.4754v-3.5445zm14.963 10.988v3.5445l7.0879 5.2048v-3.5445zm9.9064 7.2745v3.5445l2.5141 1.8464v-3.5445z" fill="url(#linearGradient37849-3)"/>
<g transform="matrix(.81398 0 0 .8146 70.012 46.025)" fill="none" stroke="#235dc6" stroke-width=".64985">
<path d="m116.37 53.187v6.7346" stop-color="#000000" style="font-variation-settings:normal"/>
<path d="m122.49 57.678v8.7187"/>
<path d="m128.48 62.077v4.1961"/>
<circle cx="116.42" cy="61.028" r="1.21" stop-color="#000000" style="font-variation-settings:normal;paint-order:stroke fill markers"/>
<circle cx="122.45" cy="66.901" r=".64061" stop-color="#000000" style="font-variation-settings:normal;paint-order:stroke fill markers"/>
<circle cx="128.5" cy="67.357" r="1.21" stop-color="#000000" style="font-variation-settings:normal;paint-order:stroke fill markers"/>
<path d="m110.31 48.673v8.379"/>
<circle cx="110.3" cy="58.084" r="1.21" stop-color="#000000" style="font-variation-settings:normal;paint-order:stroke fill markers"/>
</g>
<path d="m-21.656-48.175 202.37 148.61 202.37-148.61v1.7412l-202.37 148.61-202.37-148.61z" fill="url(#linearGradient69576-6)" stop-color="#000000" style="-inkscape-stroke:none;font-variation-settings:normal;paint-order:stroke fill markers"/>
<path d="m247.07 66.5v15.771l-8.7085 6.395v-15.771zm-11.284 8.2863v15.771l-17.517 12.864v-15.771zm-22.861 16.788-0.14624 15.878-10.986 8.0677-0.0191-15.757zm-15.192 11.156 0.20568 15.62-3.3166 2.4355v-15.771z" fill="url(#linearGradient53643-1)" stop-color="#000000" style="-inkscape-stroke:none;font-variation-settings:normal"/>
<path d="m334.42-14.269v10.423l-22.314 16.387v-3.544zm-26.553 26.379v3.544l-8.7302 6.411v-3.544zm-10.842 7.9618v3.544l-9.1679 6.7329v-3.5445zm-15.598 11.455v3.544l-11.541 8.4754v-3.5445zm-14.963 10.988v3.5445l-7.0879 5.2048v-3.5445zm-9.9064 7.2745v3.5445l-2.5141 1.8464v-3.5445z" fill="url(#linearGradient53697-2)"/>
<path d="m317.1 14.93v10.422l-80.378 59.026v-10.424z" fill="url(#linearGradient53804-9)"/>
<path d="m242.6 83.97v7.3727l-61.887 45.609v-7.3727zm0 8.9602v2.8463l-61.887 45.609v-2.8463z" fill="url(#linearGradient5163-3)"/>
</svg>
