<?xml version="1.0" encoding="UTF-8"?>
<!-- Created with Inkscape (http://www.inkscape.org/) -->
<svg width="1440" height="900" version="1.1" viewBox="0 0 381 238.13" xmlns="http://www.w3.org/2000/svg" xmlns:xlink="http://www.w3.org/1999/xlink">
 <defs>
  <linearGradient id="linearGradient16905">
   <stop stop-color="#1b668f" offset="0"/>
   <stop stop-color="#121c94" offset=".5"/>
   <stop stop-color="#382279" offset="1"/>
  </linearGradient>
  <linearGradient id="linearGradient78639">
   <stop stop-color="#2936ea" offset="0"/>
   <stop stop-color="#164593" offset="1"/>
  </linearGradient>
  <linearGradient id="linearGradient75480" x1="-21.655" x2="1378.4" y1="110.14" y2="110.14" gradientTransform="matrix(.27984 0 0 .27984 -.63296 29.704)" gradientUnits="userSpaceOnUse" xlink:href="#linearGradient16905"/>
  <linearGradient id="linearGradient3595" x1="-21.656" x2="383.08" y1="81.035" y2="81.035" gradientTransform="matrix(1.0577 0 0 1.0577 -.63296 18.096)" gradientUnits="userSpaceOnUse">
   <stop stop-color="#51d677" stop-opacity=".47843" offset="0"/>
   <stop stop-color="#eded84" stop-opacity=".32941" offset=".26488"/>
   <stop stop-color="#a9ebf6" stop-opacity=".19951" offset=".49538"/>
   <stop stop-color="#e9bf9d" stop-opacity=".35686" offset=".74191"/>
   <stop stop-color="#5138aa" stop-opacity=".52157" offset="1"/>
  </linearGradient>
  <linearGradient id="linearGradient21995" x1="-21.655" x2="383.08" y1="92.147" y2="92.147" gradientTransform="translate(0 -155.84)" gradientUnits="userSpaceOnUse">
   <stop stop-color="#445feb" offset="0"/>
   <stop stop-color="#252fb5" offset=".5"/>
   <stop stop-color="#9b53c1" offset="1"/>
  </linearGradient>
  <linearGradient id="linearGradient21997" x1="-21.655" x2="383.08" y1="99.556" y2="99.556" gradientTransform="translate(0 -189.92)" gradientUnits="userSpaceOnUse">
   <stop stop-color="#3410ab" stop-opacity=".67526" offset="0"/>
   <stop stop-color="#169bd6" offset=".5"/>
   <stop stop-color="#0940a2" stop-opacity=".56984" offset="1"/>
  </linearGradient>
  <linearGradient id="linearGradient21999" x1="-24.528" x2="386.16" y1="-24.045" y2="-24.045" gradientTransform="translate(0 -138.44)" gradientUnits="userSpaceOnUse">
   <stop stop-color="#6a5e19" offset="0"/>
   <stop stop-color="#85751e" stop-opacity=".98824" offset=".14669"/>
   <stop stop-color="#8c7b20" stop-opacity=".96863" offset=".30531"/>
   <stop stop-color="#bda62c" stop-opacity=".95686" offset=".51079"/>
   <stop stop-color="#82721e" stop-opacity=".94902" offset=".6231"/>
   <stop stop-color="#968623" stop-opacity=".99608" offset=".83541"/>
   <stop stop-color="#4e4412" stop-opacity=".92157" offset="1"/>
  </linearGradient>
  <linearGradient id="linearGradient22001" x1="-21.655" x2="1378.4" y1="110.14" y2="110.14" gradientTransform="matrix(.26458 0 0 .26458 0 -4.9003)" gradientUnits="userSpaceOnUse" xlink:href="#linearGradient16905"/>
  <linearGradient id="linearGradient22003" x1="181.04" x2="361.42" y1="110.14" y2="110.14" gradientTransform="translate(0 -18.521)" gradientUnits="userSpaceOnUse" xlink:href="#linearGradient78639"/>
  <linearGradient id="linearGradient22005" x1="-21.655" x2="183.99" y1="110.14" y2="110.14" gradientTransform="translate(0 -18.521)" gradientUnits="userSpaceOnUse">
   <stop stop-color="#2f38a6" offset="0"/>
   <stop stop-color="#3d33eb" offset="1"/>
  </linearGradient>
  <linearGradient id="linearGradient22007" x1="-82.44" x2="1448.4" y1="345.52" y2="345.52" gradientTransform="scale(.26458)" gradientUnits="userSpaceOnUse" xlink:href="#linearGradient1294"/>
  <linearGradient id="linearGradient1294">
   <stop stop-color="#6a5e19" offset="0"/>
   <stop stop-color="#d1b832" stop-opacity=".98824" offset=".14669"/>
   <stop stop-color="#8c7b20" stop-opacity=".96863" offset=".30531"/>
   <stop stop-color="#dbc865" stop-opacity=".95686" offset=".51079"/>
   <stop stop-color="#82721e" stop-opacity=".94902" offset=".6231"/>
   <stop stop-color="#968623" stop-opacity=".99608" offset=".83541"/>
   <stop stop-color="#cfb530" stop-opacity=".92157" offset="1"/>
  </linearGradient>
  <linearGradient id="linearGradient22009" x1="-21.655" x2="383.08" y1="92.147" y2="92.147" gradientTransform="translate(0 -18.521)" gradientUnits="userSpaceOnUse">
   <stop stop-color="#445feb" offset="0"/>
   <stop stop-color="#4a55ed" offset=".5"/>
   <stop stop-color="#9b53c1" offset="1"/>
  </linearGradient>
  <linearGradient id="linearGradient22011" x1="-24.528" x2="386.16" y1="-24.045" y2="-24.045" gradientTransform="translate(0 -2.3527)" gradientUnits="userSpaceOnUse" xlink:href="#linearGradient1056"/>
  <linearGradient id="linearGradient1056">
   <stop stop-color="#6a5e19" offset="0"/>
   <stop stop-color="#85751e" stop-opacity=".98824" offset=".14669"/>
   <stop stop-color="#a38f26" stop-opacity=".96863" offset=".30531"/>
   <stop stop-color="#f5d737" stop-opacity=".95686" offset=".51079"/>
   <stop stop-color="#968623" stop-opacity=".99608" offset=".83541"/>
   <stop stop-color="#4e4412" stop-opacity=".92157" offset="1"/>
  </linearGradient>
  <linearGradient id="linearGradient22013" x1="-21.655" x2="383.08" y1="99.556" y2="99.556" gradientTransform="translate(0 -59.037)" gradientUnits="userSpaceOnUse">
   <stop stop-color="#3410ab" stop-opacity=".67526" offset="0"/>
   <stop stop-color="#2936e9" offset=".5"/>
   <stop stop-color="#0940a2" stop-opacity=".56984" offset="1"/>
  </linearGradient>
  <linearGradient id="linearGradient22015" x1="-24.528" x2="386.16" y1="-24.045" y2="-24.045" gradientTransform="translate(0 -44.553)" gradientUnits="userSpaceOnUse" xlink:href="#linearGradient17531"/>
  <linearGradient id="linearGradient17531">
   <stop stop-color="#6a5e19" offset="0"/>
   <stop stop-color="#85751e" stop-opacity=".98824" offset=".14669"/>
   <stop stop-color="#8c7b20" stop-opacity=".96863" offset=".30531"/>
   <stop stop-color="#d1b637" stop-opacity=".95686" offset=".51079"/>
   <stop stop-color="#82721e" stop-opacity=".94902" offset=".6231"/>
   <stop stop-color="#968623" stop-opacity=".99608" offset=".83541"/>
   <stop stop-color="#4e4412" stop-opacity=".92157" offset="1"/>
  </linearGradient>
  <linearGradient id="linearGradient22017" x1="253.56" x2="239.42" y1="147.01" y2="130.45" gradientTransform="translate(0 -18.521)" gradientUnits="userSpaceOnUse">
   <stop stop-color="#28ead8" stop-opacity=".58819" offset="0"/>
   <stop stop-color="#164593" stop-opacity=".023098" offset="1"/>
  </linearGradient>
  <linearGradient id="linearGradient22019" x1="251.13" x2="241.25" y1="138.13" y2="126.04" gradientTransform="matrix(-1 0 0 1 361.42 -18.521)" gradientUnits="userSpaceOnUse">
   <stop stop-color="#dc29ea" stop-opacity=".68736" offset="0"/>
   <stop stop-color="#164593" stop-opacity=".023098" offset="1"/>
  </linearGradient>
  <linearGradient id="linearGradient24593" x1="181.04" x2="361.42" y1="110.14" y2="110.14" gradientTransform="matrix(1.0577 0 0 1.0577 -.63296 15.298)" gradientUnits="userSpaceOnUse" xlink:href="#linearGradient78639"/>
  <linearGradient id="linearGradient78325" x1="-21.655" x2="183.99" y1="110.14" y2="110.14" gradientTransform="matrix(1.0577 0 0 1.0577 -.63296 15.298)" gradientUnits="userSpaceOnUse">
   <stop stop-color="#2e3476" offset="0"/>
   <stop stop-color="#3d33eb" offset="1"/>
  </linearGradient>
  <linearGradient id="linearGradient87990" x1="-82.44" x2="1448.4" y1="345.52" y2="345.52" gradientTransform="matrix(.27984 0 0 .27984 -.63296 34.887)" gradientUnits="userSpaceOnUse" xlink:href="#linearGradient1294"/>
  <linearGradient id="linearGradient25753" x1="-21.655" x2="383.08" y1="92.147" y2="92.147" gradientTransform="matrix(1.0577 0 0 1.0577 -.63296 15.298)" gradientUnits="userSpaceOnUse">
   <stop stop-color="#4465eb" offset="0"/>
   <stop stop-color="#46a7e1" offset=".5"/>
   <stop stop-color="#6b50c1" offset="1"/>
  </linearGradient>
  <linearGradient id="linearGradient25219" x1="-24.528" x2="386.16" y1="-24.045" y2="-24.045" gradientTransform="matrix(1.0577 0 0 1.0577 -.63296 32.398)" gradientUnits="userSpaceOnUse" xlink:href="#linearGradient1056"/>
  <linearGradient id="linearGradient14910" x1="253.56" x2="239.42" y1="147.01" y2="130.45" gradientTransform="matrix(1.0577 0 0 1.0577 -.63296 15.298)" gradientUnits="userSpaceOnUse">
   <stop stop-color="#e06fea" stop-opacity=".39011" offset="0"/>
   <stop stop-color="#164593" stop-opacity=".023098" offset="1"/>
  </linearGradient>
  <linearGradient id="linearGradient15720" x1="251.13" x2="241.25" y1="138.13" y2="126.04" gradientTransform="matrix(-1.0577 0 0 1.0577 381.63 15.298)" gradientUnits="userSpaceOnUse">
   <stop stop-color="#dc29ea" stop-opacity=".18321" offset="0"/>
   <stop stop-color="#164593" stop-opacity=".023098" offset="1"/>
  </linearGradient>
  <linearGradient id="linearGradient35006" x1="542.26" x2="409.86" y1="531.52" y2="437.69" gradientTransform="matrix(.27984 0 0 .27984 -.63296 18.096)" gradientUnits="userSpaceOnUse">
   <stop stop-color="#9e80dc" stop-opacity=".08" offset="0"/>
   <stop stop-color="#9e80dc" stop-opacity="0" offset="1"/>
  </linearGradient>
  <linearGradient id="linearGradient35006-3" x1="542.26" x2="409.86" y1="531.52" y2="437.69" gradientTransform="matrix(-.27984 0 0 .27984 482.5 -54.398)" gradientUnits="userSpaceOnUse">
   <stop stop-color="#9e80dc" stop-opacity=".12323" offset="0"/>
   <stop stop-color="#9e80dc" stop-opacity="0" offset="1"/>
  </linearGradient>
  <linearGradient id="linearGradient26562" x1="-21.655" x2="383.08" y1="99.556" y2="99.556" gradientTransform="matrix(1.0577 0 0 1.0577 -.63296 -27.555)" gradientUnits="userSpaceOnUse">
   <stop stop-color="#0031b6" offset="0"/>
   <stop stop-color="#255cc7" offset=".5"/>
   <stop stop-color="#3d3dd3" offset="1"/>
  </linearGradient>
  <linearGradient id="linearGradient34063" x1="79.735" x2="21.187" y1="42.158" y2="1.0037" gradientTransform="matrix(1.0577 0 0 1.0577 -.63296 18.096)" gradientUnits="userSpaceOnUse">
   <stop stop-color="#9e7fdc" stop-opacity=".1" offset="0"/>
   <stop stop-color="#9e7fdc" stop-opacity="0" offset="1"/>
  </linearGradient>
  <linearGradient id="linearGradient53858" x1="79.735" x2="21.187" y1="42.158" y2="1.0037" gradientTransform="matrix(-1.0577 0 0 1.0577 290.12 140.25)" gradientUnits="userSpaceOnUse">
   <stop stop-color="#7fdcdb" stop-opacity=".07" offset="0"/>
   <stop stop-color="#9e7fdc" stop-opacity="0" offset="1"/>
  </linearGradient>
  <linearGradient id="linearGradient35392" x1="654.09" x2="409.86" y1="615.36" y2="437.69" gradientTransform="matrix(.27984 0 0 .27984 7.4825 -12.163)" gradientUnits="userSpaceOnUse">
   <stop stop-color="#b1cdef" stop-opacity=".26275" offset="0"/>
   <stop stop-color="#9e80dc" stop-opacity="0" offset="1"/>
  </linearGradient>
  <linearGradient id="linearGradient37083" x1="32.688" x2="-4.3074" y1="61.359" y2="35.59" gradientTransform="matrix(1.0577 0 0 1.0577 -.63296 18.096)" gradientUnits="userSpaceOnUse">
   <stop stop-color="#a9e3ed" stop-opacity=".05" offset="0"/>
   <stop stop-color="#a9e3ed" stop-opacity="0" offset="1"/>
  </linearGradient>
  <linearGradient id="linearGradient37280" x1="32.688" x2="-4.3074" y1="61.359" y2="35.59" gradientTransform="matrix(2.5917 0 0 2.5917 92.801 -28.152)" gradientUnits="userSpaceOnUse">
   <stop stop-color="#60cbde" stop-opacity=".059582" offset="0"/>
   <stop stop-color="#a9e3ed" stop-opacity="0" offset="1"/>
  </linearGradient>
  <linearGradient id="linearGradient37849" x1="32.688" x2="-4.3074" y1="61.359" y2="35.59" gradientTransform="matrix(2.5917 0 0 2.5917 25.555 -19.23)" gradientUnits="userSpaceOnUse">
   <stop stop-color="#84b0b8" stop-opacity=".05" offset="0"/>
   <stop stop-color="#a9e3ed" stop-opacity="0" offset="1"/>
  </linearGradient>
  <linearGradient id="linearGradient69576" x1="-24.528" x2="386.16" y1="-24.045" y2="-24.045" gradientTransform="matrix(1.0577 0 0 1.0577 -.63296 -12.236)" gradientUnits="userSpaceOnUse" xlink:href="#linearGradient17531"/>
  <linearGradient id="linearGradient53643" x1="79.735" x2="21.187" y1="42.158" y2="1.0037" gradientTransform="matrix(-1.0577 0 0 1.0577 290.45 92.507)" gradientUnits="userSpaceOnUse">
   <stop stop-color="#dc7fdc" stop-opacity=".08" offset="0"/>
   <stop stop-color="#9e7fdc" stop-opacity="0" offset="1"/>
  </linearGradient>
  <linearGradient id="linearGradient53697" x1="32.688" x2="-4.3074" y1="61.359" y2="35.59" gradientTransform="matrix(-2.5917 0 0 2.5917 352.99 -90.172)" gradientUnits="userSpaceOnUse">
   <stop stop-color="#a9e3ed" stop-opacity=".06" offset="0"/>
   <stop stop-color="#a9e3ed" stop-opacity="0" offset="1"/>
  </linearGradient>
  <linearGradient id="linearGradient53804" x1="32.688" x2="-4.3074" y1="61.359" y2="35.59" gradientTransform="matrix(-2.5917 0 0 2.5917 334.67 -59.289)" gradientUnits="userSpaceOnUse">
   <stop stop-color="#dd83f2" stop-opacity=".12549" offset="0"/>
   <stop stop-color="#a9e3ed" stop-opacity="0" offset="1"/>
  </linearGradient>
  <linearGradient id="linearGradient5163" x1="654.09" x2="409.86" y1="615.36" y2="437.69" gradientTransform="matrix(-.27984 0 0 .27984 373.52 -12.163)" gradientUnits="userSpaceOnUse">
   <stop stop-color="#b1cdef" stop-opacity=".14678" offset="0"/>
   <stop stop-color="#9e80dc" stop-opacity="0" offset="1"/>
  </linearGradient>
 </defs>
 <rect width="381" height="238.12" fill="#1b1e20" stop-color="#000000" style="-inkscape-stroke:none;font-variation-settings:normal;paint-order:stroke fill markers"/>
 <path d="m-23.537 11.197v22.126l202.42 148.65 11.615 24.515 11.615-24.515 202.42-148.65v-22.126l-214.04 157.18z" fill="url(#linearGradient75480)" stop-color="#000000" style="-inkscape-stroke:none;font-variation-settings:normal"/>
 <path d="m-44.373 34.851s11.462 23.839 53.506 21.764c6.0063-0.29647 12.637-1.1218 19.947-2.6211 43.862-8.9955 59.687 23.489 71.148 53.864 3.8202 10.125 7.1556 20.016 10.883 28.059 10.709 23.106 37.395 51.592 66.703 64.622 17.585 7.8177 36.113 10.071 52.699 2.2599 14.132-6.6555 16.887-14.726 16.315-22.239-0.57241-7.5136-4.4725-14.471-3.6513-18.9 2.1242-11.456 10.381-12.879 18.668-12.109 13.813 1.283 27.715 8.6556 13.462-14.187-4.4273-7.0955-6.6261-13.478-7.3607-19.11-2.2037-16.897 8.7708-27.04 12.288-29.416 4.6275-3.1269 10.05-5.4762 16.052-7.2373 42.014-12.328 112.44 4.166 137.59-15.48m-476.73-30.034c1.0152 0.31764 12.322 24.73 53.125 23.658 5.8243-0.09127 12.286-0.72949 19.434-2.0517 42.888-7.9334 59.424 23.424 71.446 52.551 3.9641 9.729 7.5056 19.318 11.438 27.173 11.184 22.555 37.966 50.735 66.759 63.901 17.276 7.9 35.347 10.445 51.386 3.1864 13.624-6.0233 15.931-13.456 14.692-20.554-1.2385-7.099-5.5664-14.71-4.679-19.881 2.132-11.787 10.577-13.83 19.607-13.316 14.555 0.97664 29.6 7.8078 16.609-14.631-3.958-6.9907-5.8556-13.271-6.5044-18.795-1.7341-16.724 8.2821-27.187 11.849-29.764 4.5235-3.0844 9.8419-5.4036 15.755-7.1385 42.017-12.167 110.15 2.4011 134.6-16.7m-474-28.405c2.0305 0.63529 13.181 25.62 52.744 25.552 5.6423 0.11393 11.935-0.33718 18.921-1.4824 41.913-6.8713 59.161 23.358 71.743 51.238 4.108 9.3327 7.8557 18.62 11.994 26.287 11.659 22.003 38.537 49.877 66.815 63.181 16.967 7.9824 34.581 10.819 50.073 4.1128 13.116-5.3911 14.974-12.185 13.07-18.87s-6.6603-14.949-5.7067-20.863c2.1397-12.118 10.774-14.781 20.546-14.522 15.296 0.67024 31.486 6.96 19.757-15.075-3.4886-6.8859-5.085-13.065-5.6481-18.479-1.2646-16.551 7.7935-27.334 11.41-30.111 4.4195-3.042 9.6341-5.3309 15.458-7.0397 42.02-12.007 107.86 0.6361 131.61-17.919m-471.27-26.777c3.0457 0.95293 14.041 26.511 52.363 27.446 5.4603 0.31913 11.585 0.05513 18.408-0.91306 40.939-5.8091 58.898 23.293 72.041 49.925 4.2519 8.9364 8.2057 17.921 12.55 25.401 12.134 21.451 39.108 49.02 66.871 62.461 16.658 8.0647 33.815 11.193 48.759 5.0393 12.608-4.759 14.018-10.915 11.447-17.185s-7.7542-15.188-6.7344-21.844c2.1474-12.449 10.971-15.732 21.485-15.729 16.038 0.36384 33.372 6.1122 22.905-15.519-3.0192-6.7811-4.3145-12.858-4.7918-18.163-0.79504-16.378 7.3048-27.482 10.971-30.459 4.3156-2.9995 9.4264-5.2582 15.161-6.9409 42.022-11.847 105.57-1.1289 128.62-19.138m-468.54-25.148c4.0609 1.2706 14.9 27.401 51.982 29.34 5.2783 0.52434 11.234 0.44744 17.895-0.34372 39.965-4.747 58.636 23.228 72.339 48.611 4.3958 8.5402 8.5557 17.223 13.105 24.516 12.61 20.899 39.679 48.162 66.927 61.741 16.349 8.1471 33.049 11.567 47.446 5.9658 12.1-4.1268 13.061-9.6449 9.8247-15.5-3.2367-5.8549-8.848-15.426-7.7621-22.826 2.1552-12.78 11.168-16.684 22.424-16.935 16.779 0.0574 35.257 5.2644 26.052-15.963-2.5498-6.6763-3.5439-12.651-3.9356-17.847-0.3255-16.205 6.8161-27.629 10.532-30.806 4.2116-2.957 9.2186-5.1856 14.865-6.8421 42.025-11.686 103.28-2.8938 125.63-20.357m-465.81-23.52c5.0762 1.5882 15.76 28.292 51.601 31.234 5.0963 0.72954 10.883 0.83976 17.382 0.22561 38.99-3.6849 58.373 23.163 72.637 47.298 4.5397 8.1439 8.9058 16.525 13.661 23.63 13.085 20.347 40.25 47.305 66.983 61.02 16.04 8.2294 32.283 11.941 46.133 6.8923 11.592-3.4946 12.105-8.3747 8.2021-13.815-3.9028-5.4402-9.9419-15.665-8.7898-23.807 2.1629-13.111 11.364-17.635 23.362-18.142 17.52-0.24896 37.143 4.4165 29.2-16.407-2.0804-6.5715-2.7734-12.444-3.0793-17.532 0.14406-16.032 6.3275-27.776 10.093-31.154 4.1076-2.9145 9.0108-5.1129 14.568-6.7433 42.027-11.526 100.99-4.6588 122.64-21.577m-463.08-21.891c6.0914 1.9059 16.619 29.182 51.219 33.128 4.9143 0.93474 10.533 1.2321 16.869 0.79494 38.016-2.6228 58.11 23.098 72.935 45.985 4.6835 7.7476 9.2558 15.826 14.216 22.744 13.56 19.796 40.821 46.447 67.039 60.3 15.731 8.3118 31.518 12.315 44.82 7.8188 11.084-2.8624 11.148-7.1045 6.5796-12.13-4.5688-5.0255-11.036-15.904-9.8175-24.789 2.1707-13.442 11.561-18.586 24.301-19.348 18.262-0.55536 39.029 3.5687 32.347-16.851-1.611-6.4667-2.0028-12.238-2.223-17.216 0.6136-15.859 5.8388-27.923 9.6541-31.501 4.0037-2.8721 8.8031-5.0402 14.271-6.6445 42.03-11.365 98.695-6.4237 119.65-22.796m-460.35-20.262c7.1066 2.2235 17.479 30.073 50.838 35.023 4.7323 1.1399 10.182 1.6244 16.356 1.3643 37.042-1.5606 57.847 23.033 73.233 44.671 4.8274 7.3513 9.6058 15.128 14.772 21.859 14.035 19.244 41.392 45.59 67.095 59.58 15.422 8.3941 30.752 12.689 43.507 8.7453 10.576-2.2303 10.192-5.8343 4.957-10.445-5.2349-4.6108-12.13-16.143-10.845-25.77 2.1784-13.773 11.758-19.537 25.24-20.555 19.003-0.86177 40.914 2.7209 35.495-17.295-1.1416-6.3619-1.2322-12.031-1.3667-16.9 1.0832-15.686 5.3501-28.07 9.2152-31.849 3.8997-2.8296 8.5953-4.9676 13.974-6.5457 42.033-11.205 96.404-8.1887 116.66-24.015m-457.62-18.634c8.1218 2.5412 18.338 30.964 50.457 36.917 4.5503 1.3451 9.8312 2.0167 15.842 1.9336 36.068-0.4985 57.584 22.968 73.53 43.358 4.9713 6.9551 9.9559 14.43 15.327 20.973 14.511 18.692 41.963 44.732 67.151 58.86 15.113 8.4765 29.986 13.063 42.194 9.6718 10.068-1.5981 9.2354-4.5642 3.3345-8.7603s-13.224-16.382-11.873-26.752c2.1861-14.104 11.955-20.488 26.179-21.761 19.745-1.1682 42.8 1.8731 38.643-17.739-0.67227-6.2571-0.4617-11.824-0.51044-16.584 1.5527-15.513 4.8614-28.218 8.7763-32.196 3.7957-2.7871 8.3875-4.8949 13.677-6.4468 42.035-11.044 94.113-9.9536 113.67-25.234m-454.88-17.005c9.1371 2.8588 19.198 31.854 50.076 38.811 4.3683 1.5503 9.4805 2.409 15.329 2.5029 35.093 0.56362 57.322 22.903 73.828 42.045 5.1152 6.5588 10.306 13.732 15.883 20.087 14.986 18.14 42.533 43.875 67.207 58.14 14.804 8.5588 29.22 13.437 40.881 10.598 9.5603-0.96594 8.2789-3.294 1.7119-7.0754s-14.317-16.621-12.901-27.733c2.1939-14.435 12.152-21.439 27.118-22.968 20.486-1.4746 44.686 1.0252 41.79-18.183-0.20288-6.1523 0.30886-11.617 0.34585-16.268 2.0222-15.34 4.3728-28.365 8.3374-32.544 3.6918-2.7447 8.1798-4.8222 13.381-6.348 42.038-10.884 91.821-11.719 110.68-26.453m-452.15-15.377c10.152 3.1764 20.057 32.745 49.695 40.705 4.1863 1.7555 9.1298 2.8013 14.816 3.0723 34.119 1.6258 57.059 22.837 74.126 40.731 5.2591 6.1625 10.656 13.033 16.439 19.202 15.461 17.588 43.104 43.017 67.263 57.419 14.495 8.6412 28.454 13.811 39.568 11.525 9.0523-0.33377 7.3224-2.0238 0.0893-5.3905-7.2331-3.3668-15.411-16.86-13.928-28.715 2.2016-14.766 12.348-22.391 28.056-24.174 21.227-1.781 46.572 0.17744 44.938-18.627 0.26649-6.0475 1.0794-11.411 1.2021-15.953 2.4918-15.167 3.8841-28.512 7.8985-32.891 3.5878-2.7022 7.972-4.7496 13.084-6.2492 42.04-10.724 89.53-13.484 107.69-27.673m-449.42-13.748c11.168 3.4941 20.917 33.635 49.313 42.599 4.0043 1.9607 8.7791 3.1936 14.303 3.6416 33.145 2.6879 56.796 22.772 74.424 39.418 5.403 5.7663 11.006 12.335 16.994 18.316 15.936 17.037 43.675 42.16 67.319 56.699 14.186 8.7235 27.688 14.186 38.255 12.451 8.5444 0.2984 6.366-0.75355-1.5332-3.7056-7.8992-2.9521-16.505-17.099-14.956-29.696 2.2094-15.097 12.545-23.342 28.995-25.381 21.969-2.0874 48.457-0.67038 48.085-19.071 0.73588-5.9427 1.85-11.204 2.0584-15.637 2.9613-14.995 3.3954-28.659 7.4595-33.239 3.4838-2.6597 7.7643-4.6769 12.787-6.1504 42.043-10.563 87.239-15.249 104.7-28.892m-446.69-12.119c12.183 3.8117 21.777 34.526 48.932 44.493 3.8222 2.1659 8.4284 3.5859 13.79 4.2109 32.17 3.75 56.533 22.707 74.722 38.105 5.5468 5.37 11.356 11.637 17.55 17.43 16.412 16.485 44.246 41.302 67.375 55.979 13.878 8.8058 26.923 14.56 36.941 13.378 8.0364 0.93057 5.4095 0.51664-3.1558-2.0207-8.5652-2.5374-17.599-17.338-15.984-30.678 2.2171-15.428 12.742-24.293 29.934-26.587 22.71-2.3938 50.343-1.5182 51.233-19.516 1.2053-5.8379 2.6205-10.997 2.9147-15.321 3.4309-14.822 2.9068-28.806 7.0206-33.586 3.3799-2.6172 7.5565-4.6042 12.49-6.0516 42.046-10.403 84.947-17.013 101.71-30.111m-443.96-10.491c13.198 4.1294 22.636 35.416 48.551 46.387 3.6402 2.3711 8.0777 3.9783 13.277 4.7803 31.196 4.8121 56.27 22.642 75.02 36.792 5.6907 4.9737 11.706 10.938 18.105 16.545 16.887 15.933 44.817 40.445 67.431 55.259 13.569 8.8882 26.157 14.934 35.628 14.304 7.5284 1.5627 4.453 1.7868-4.7783-0.33585-9.2313-2.1227-18.693-17.577-17.011-31.659 2.2248-15.759 12.939-25.244 30.873-27.794 23.452-2.7002 52.229-2.366 54.381-19.96 1.6746-5.7331 3.3911-10.791 3.771-15.005 3.9004-14.649 2.4181-28.954 6.5817-33.934 3.2759-2.5748 7.3487-4.5316 12.193-5.9528 42.048-10.242 82.656-18.778 98.724-31.33m-441.23-8.8621c14.213 4.447 23.496 36.307 48.17 48.281 3.4582 2.5763 7.727 4.3706 12.764 5.3496 30.222 5.8743 56.007 22.577 75.318 35.478 5.8346 4.5774 12.056 10.24 18.661 15.659 17.362 15.381 45.388 39.588 67.487 54.538 13.26 8.9705 25.391 15.308 34.315 15.231 7.0204 2.1949 3.4965 3.057-6.4009 1.349s-19.787-17.816-18.039-32.641c2.2326-16.09 13.135-26.195 31.812-29 24.193-3.0066 54.114-3.2138 57.528-20.404 2.144-5.6283 4.1616-10.584 4.6273-14.69 4.37-14.476 1.9294-29.101 6.1428-34.281 3.1719-2.5323 7.141-4.4589 11.897-5.854 42.051-10.082 80.365-20.543 95.734-32.55m-438.5-7.2335c15.228 4.7647 24.355 37.198 47.789 50.176 3.2762 2.7815 7.3763 4.7629 12.251 5.9189 29.247 6.9364 55.745 22.512 75.615 34.165 5.9785 4.1812 12.406 9.5418 19.217 14.773 17.837 14.829 45.959 38.73 67.543 53.818 12.951 9.0529 24.625 15.682 33.002 16.157 6.5125 2.8271 2.54 4.3272-8.0234 3.0339-10.563-1.2933-20.881-18.055-19.067-33.622 2.2403-16.421 13.332-27.147 32.75-30.207 24.934-3.313 56-4.0617 60.676-20.848 2.6134-5.5235 4.9322-10.377 5.4835-14.374 4.8395-14.303 1.4408-29.248 5.7039-34.629 3.068-2.4898 6.9332-4.3862 11.6-5.7552 42.053-9.9215 78.074-22.308 92.744-33.769m-435.77-5.6049c16.244 5.0823 25.215 38.088 47.407 52.07 3.0942 2.9868 7.0256 5.1552 11.738 6.4883 28.273 7.9985 55.482 22.447 75.913 32.852 6.1224 3.7849 12.756 8.8435 19.772 13.888 18.312 14.278 46.53 37.873 67.599 53.098 12.642 9.1352 23.859 16.056 31.689 17.084 6.0045 3.4592 1.5835 5.5974-9.646 4.7188-11.23-0.87862-21.975-18.294-20.094-34.604 2.248-16.752 13.529-28.098 33.689-31.414 25.676-3.6194 57.886-4.9095 63.823-21.292 3.0828-5.4187 5.7027-10.17 6.3398-14.058 5.3091-14.13 0.9521-29.395 5.265-34.977 2.964-2.4473 6.7254-4.3136 11.303-5.6563 42.056-9.7611 75.782-24.073 89.754-34.988m-433.04-3.9763c17.259 5.3999 26.074 38.979 47.026 53.964 2.9122 3.192 6.6749 5.5475 11.225 7.0576 27.299 9.0606 55.219 22.382 76.211 31.538 6.2662 3.3886 13.106 8.1452 20.328 13.002 18.788 13.726 47.1 37.015 67.655 52.378 12.333 9.2176 23.094 16.43 30.376 18.01 5.4965 4.0914 0.62704 6.8676-11.269 6.4037-11.896-0.46392-23.068-18.533-21.122-35.585 2.2558-17.083 13.726-29.049 34.628-32.62 26.417-3.9258 59.771-5.7573 66.971-21.736 3.5522-5.3139 6.4733-9.9635 7.1961-13.742 5.7786-13.957 0.46342-29.542 4.8261-35.324 2.86-2.4049 6.5177-4.2409 11.006-5.5575 42.058-9.6007 73.491-25.838 86.764-36.207m-430.3-2.3477c18.274 5.7176 26.934 39.869 46.645 55.858 2.7302 3.3972 6.3242 5.9398 10.712 7.627 26.325 10.123 54.956 22.317 76.509 30.225 6.4101 2.9924 13.456 7.4469 20.883 12.116 19.263 13.174 47.671 36.158 67.711 51.658 12.024 9.2999 22.328 16.804 29.063 18.937 4.9886 4.7236-0.32945 8.1378-12.891 8.0886-12.562-0.0492-24.162-18.772-22.15-36.567 2.2635-17.414 13.923-30 35.567-33.827 27.159-4.2322 61.657-6.6051 70.119-22.18 4.0216-5.2091 7.2438-9.7568 8.0524-13.426 6.2482-13.784-0.0252-29.69 4.3872-35.672 2.7561-2.3624 6.3099-4.1682 10.709-5.4587 42.061-9.4403 71.2-27.603 83.775-37.426m-427.57-0.71906c19.289 6.0352 27.793 40.76 46.264 57.752 2.5482 3.6024 5.9735 6.3321 10.199 8.1963 25.35 11.185 54.693 22.251 76.807 28.912 6.554 2.5961 13.806 6.7486 21.439 11.231 19.738 12.622 48.242 35.3 67.767 50.937 11.715 9.3823 21.562 17.178 27.75 19.863 4.4806 5.3558-1.2859 9.408-14.514 9.7735s-25.256-19.011-23.178-37.548c2.2712-17.745 14.119-30.951 36.506-35.033 27.9-4.5386 63.543-7.4529 73.266-22.624 4.4909-5.1043 8.0144-9.55 8.9087-13.111 6.7177-13.611-0.51392-29.837 3.9483-36.019 2.6521-2.3199 6.1021-4.0956 10.413-5.3599 42.064-9.2799 68.908-29.368 80.785-38.646m-424.84 0.90954c20.305 6.3529 28.653 41.65 45.883 59.646 2.3662 3.8076 5.6228 6.7244 9.6855 8.7656 24.376 12.247 54.431 22.186 77.105 27.599 6.6979 2.1998 14.156 6.0503 21.994 10.345 20.213 12.07 48.813 34.443 67.823 50.217 11.406 9.4646 20.796 17.552 26.436 20.79 3.9726 5.9879-2.2424 10.678-16.136 11.458-13.894 0.78014-26.35-19.25-24.205-38.53 2.279-18.076 14.316-31.902 37.444-36.24 28.642-4.845 65.428-8.3008 76.414-23.068 4.9603-4.9995 8.785-9.3433 9.765-12.795 7.1873-13.438-1.0026-29.984 3.5093-36.367 2.5481-2.2775 5.8944-4.0229 10.116-5.2611 42.066-9.1194 66.617-31.133 77.795-39.865m-422.11 2.5382c21.32 6.6705 29.512 42.541 45.502 61.54 2.1842 4.0128 5.2721 7.1168 9.1724 9.335 23.402 13.309 54.168 22.121 77.403 26.285 6.8418 1.8036 14.506 5.352 22.55 9.4593 20.689 11.518 49.384 33.585 67.879 49.497 11.097 9.547 20.03 17.926 25.123 21.716 3.4647 6.6201-3.1989 11.948-17.759 13.143-14.56 1.1948-27.444-19.489-25.233-39.512 2.2867-18.407 14.513-32.854 38.383-37.446 29.383-5.1514 67.314-9.1486 79.562-23.512 5.4297-4.8947 9.5555-9.1365 10.621-12.479 7.6568-13.265-1.4913-30.131 3.0704-36.714 2.4442-2.235 5.6866-3.9502 9.8189-5.1623 42.069-8.959 64.326-32.898 74.805-41.084m-419.38 4.1668c22.335 6.9882 30.372 43.432 45.12 63.434 2.0022 4.218 4.9214 7.5091 8.6593 9.9043 22.427 14.371 53.905 22.056 77.7 24.972 6.9857 1.4073 14.856 4.6537 23.106 8.5736 21.164 10.967 49.955 32.728 67.935 48.777 10.788 9.6293 19.264 18.3 23.81 22.643 2.9567 7.2523-4.1554 13.219-19.381 14.828-15.226 1.6095-28.538-19.727-26.261-40.493 2.2944-18.738 14.71-33.805 39.322-38.653 30.124-5.4578 69.2-9.9964 82.709-23.956 5.8991-4.7899 10.326-8.9298 11.478-12.163 8.1264-13.092-1.9799-30.278 2.6315-37.062 2.3402-2.1925 5.4789-3.8776 9.5221-5.0635 42.071-8.7986 62.034-34.663 71.815-42.303m-416.65 5.7954c23.35 7.3058 31.231 44.322 44.739 65.328 1.8202 4.4232 4.5707 7.9014 8.1462 10.474 21.453 15.433 53.642 21.991 77.998 23.659 7.1295 1.011 15.206 3.9554 23.661 7.6879 21.639 10.415 50.526 31.87 67.991 48.056 10.479 9.7116 18.499 18.674 22.497 23.569 2.4487 7.8844-5.1119 14.489-21.004 16.513s-29.632-19.966-27.288-41.475c2.3022-19.069 14.906-34.756 40.261-39.859 30.866-5.7642 71.086-10.844 85.857-24.4 6.3685-4.6851 11.097-8.7231 12.334-11.848 8.5959-12.919-2.4686-30.426 2.1926-37.409 2.2362-2.15 5.2711-3.8049 9.2253-4.9647 42.074-8.6382 59.743-36.428 68.825-43.523m-413.92 7.424c24.366 7.6235 32.091 45.213 44.358 67.223 1.6382 4.6284 4.22 8.2937 7.6331 11.043 20.479 16.496 53.379 21.926 78.296 22.345 7.2734 0.61474 15.556 3.2571 24.217 6.8022 22.114 9.863 51.097 31.013 68.047 47.336 10.17 9.794 17.733 19.048 21.184 24.495 1.9408 8.5166-6.0684 15.759-22.626 18.198s-30.726-20.205-28.316-42.456c2.3099-19.4 15.103-35.707 41.2-41.066 31.607-6.0706 72.971-11.692 89.004-24.844 6.8379-4.5803 11.867-8.5163 13.19-11.532 9.0655-12.746-2.9573-30.573 1.7537-37.757 2.1323-2.1076 5.0633-3.7322 8.9285-4.8659 42.077-8.4778 57.452-38.193 65.835-44.742m-411.19 9.0526c25.381 7.9411 32.951 46.103 43.977 69.117 1.4561 4.8336 3.8693 8.686 7.12 11.612 19.504 17.558 53.116 21.861 78.594 21.032 7.4173 0.21846 15.906 2.5588 24.772 5.9166 22.59 9.3112 51.668 30.155 68.104 46.616 9.8616 9.8763 16.967 19.422 19.871 25.422 1.4328 9.1488-7.0249 17.029-24.249 19.883-17.224 2.8536-31.82-20.444-29.344-43.438 2.3177-19.731 15.3-36.658 42.138-42.272 32.349-6.377 74.857-12.54 92.152-25.288 7.3072-4.4755 12.638-8.3096 14.046-11.216 9.535-12.574-3.4459-30.72 1.3148-38.104 2.0283-2.0651 4.8556-3.6596 8.6317-4.767 42.079-8.3174 55.16-39.958 62.845-45.961m-408.46 10.681c26.396 8.2587 33.81 46.994 43.596 71.011 1.2741 5.0388 3.5186 9.0783 6.607 12.182 18.53 18.62 52.854 21.796 78.892 19.719 7.5612-0.1778 16.257 1.8605 25.328 5.0309 23.065 8.7594 52.238 29.298 68.16 45.896 9.5527 9.9587 16.201 19.796 18.558 26.348 0.92481 9.7809-7.9813 18.299-25.872 21.568-17.89 3.2683-32.913-20.683-30.371-44.419 2.3254-20.062 15.497-37.609 43.077-43.479 33.09-6.6834 76.743-13.388 95.3-25.732 7.7766-4.3707 13.408-8.1028 14.903-10.9 10.005-12.401-3.9346-30.867 0.87588-38.452 1.9243-2.0226 4.6478-3.5869 8.3349-4.6682 42.082-8.1569 52.869-41.723 59.855-47.18m-405.72 12.31c27.411 8.5764 34.67 47.884 43.214 72.905 1.0921 5.244 3.1679 9.4706 6.0939 12.751 17.556 19.682 52.591 21.73 79.19 18.406 7.7051-0.57407 16.607 1.1622 25.884 4.1452 23.54 8.2076 52.809 28.44 68.216 45.175 9.2438 10.041 15.435 20.17 17.245 27.275 0.41684 10.413-8.9378 19.57-27.494 23.253-18.556 3.683-34.007-20.922-31.399-45.401 2.3331-20.392 15.694-38.561 44.016-44.685 33.831-6.9898 78.628-14.235 98.447-26.176 8.246-4.2659 14.179-7.8961 15.759-10.584 10.474-12.228-4.4233-31.015 0.43697-38.799 1.8204-1.9801 4.44-3.5142 8.0381-4.5694 42.084-7.9965 50.578-43.488 56.865-48.399m-402.99 13.938c28.426 8.894 35.529 48.775 42.833 74.799 0.91012 5.4492 2.8172 9.8629 5.5808 13.32 16.582 20.744 52.328 21.665 79.487 17.092 7.8489-0.97035 16.957 0.46393 26.439 3.2595 24.015 7.6558 53.38 27.583 68.272 44.455 8.9348 10.123 14.669 20.544 15.932 28.201-0.0911 11.045-9.8943 20.84-29.117 24.937-19.222 4.0977-35.101-21.161-32.427-46.382 2.3409-20.723 15.89-39.512 44.955-45.892 34.573-7.2962 80.514-15.083 101.59-26.62 8.7154-4.161 14.949-7.6893 16.615-10.269 10.944-12.055-4.9119-31.162-2e-3 -39.147 1.7164-1.9377 4.2323-3.4416 7.7413-4.4706 42.087-7.8361 48.286-45.253 53.875-49.619m-400.26 15.567c29.442 9.2117 36.389 49.666 42.452 76.693 0.72812 5.6544 2.4665 10.255 5.0677 13.89 15.607 21.806 52.065 21.6 79.785 15.779 7.9928-1.3666 17.307-0.23436 26.995 2.3739 24.491 7.104 53.951 26.725 68.328 43.735 8.6259 10.206 13.904 20.918 14.618 29.128-0.5991 11.677-10.851 22.11-30.739 26.622-19.888 4.5124-36.195-21.4-33.455-47.364 2.3486-21.054 16.087-40.463 45.894-47.099 35.314-7.6026 82.4-15.931 104.74-27.064 9.1848-4.0562 15.72-7.4826 17.471-9.9529 11.413-11.882-5.4006-31.309-0.44085-39.494 1.6124-1.8952 4.0245-3.3689 7.4445-4.3718 42.09-7.6757 45.995-47.018 50.885-50.838m-397.53 17.196c30.457 9.5293 37.248 50.556 42.071 78.587 0.54611 5.8596 2.1158 10.648 4.5546 14.459 14.633 22.868 51.802 21.535 80.083 14.466 8.1367-1.7629 17.657-0.93266 27.55 1.4882 24.966 6.5522 54.522 25.868 68.384 43.015 8.317 10.288 13.138 21.292 13.305 30.054-1.1071 12.31-11.807 23.38-32.362 28.307-20.554 4.927-37.289-21.639-34.482-48.345 2.3564-21.385 16.284-41.414 46.832-48.305 36.056-7.909 84.285-16.779 107.89-27.508 9.6542-3.9514 16.491-7.2758 18.328-9.6372 11.883-11.709-5.8893-31.456-0.87976-39.842 1.5085-1.8527 3.8168-3.2962 7.1477-4.273 42.092-7.5153 43.704-48.783 47.895-52.057m-394.8 18.824c31.472 9.847 38.108 51.447 41.69 80.481 0.3641 6.0648 1.7651 11.04 4.0415 15.028 13.659 23.93 51.539 21.47 80.381 13.152 8.2806-2.1592 18.007-1.631 28.106 0.60251 25.441 6.0004 55.093 25.011 68.44 42.295 8.0081 10.37 12.372 21.666 11.992 30.981-1.615 12.942-12.764 24.65-33.984 29.992s-38.383-21.878-35.51-49.327c2.3641-21.716 16.481-42.365 47.771-49.512 36.797-8.2154 86.171-17.627 111.04-27.952 10.124-3.8466 17.261-7.0691 19.184-9.3214 12.352-11.536-6.378-31.603-1.3187-40.189 1.4045-1.8103 3.609-3.2236 6.8509-4.1742 42.095-7.3548 41.412-50.548 44.906-53.276m-392.07 20.453c32.487 10.165 38.967 52.337 41.308 82.376 0.18209 6.27 1.4144 11.432 3.5285 15.598 12.684 24.993 51.277 21.405 80.679 11.839 8.4245-2.5554 18.357-2.3292 28.662-0.28317 25.916 5.4486 55.664 24.153 68.496 41.574 7.6992 10.453 11.606 22.04 10.679 31.907-2.123 13.574-13.72 25.921-35.607 31.677-21.887 5.7564-39.477-22.117-36.538-50.308 2.3718-22.047 16.677-43.317 48.71-50.718 37.538-8.5218 88.057-18.475 114.19-28.396 10.593-3.7418 18.032-6.8623 20.04-9.0056 12.822-11.363-6.8666-31.751-1.7576-40.537 1.3006-1.7678 3.4012-3.1509 6.5541-4.0754 42.097-7.1944 39.121-52.313 41.916-54.496m-389.34 22.081c33.503 10.482 39.827 53.228 40.927 84.27 8.6e-5 6.4752 1.0637 11.825 3.0154 16.167 11.71 26.055 51.014 21.34 80.977 10.526 8.5684-2.9517 18.707-3.0276 29.217-1.1688 26.392 4.8968 56.235 23.296 68.552 40.854 7.3902 10.535 10.84 22.414 9.366 32.834-2.631 14.206-14.677 27.191-37.229 33.362-22.553 6.1711-40.571-22.356-37.565-51.29 2.3796-22.378 16.874-44.268 49.649-51.925 38.28-8.8282 89.942-19.322 117.33-28.84 11.062-3.637 18.802-6.6556 20.897-8.6898 13.291-11.19-7.3553-31.898-2.1965-40.884 1.1966-1.7253 3.1935-3.0782 6.2573-3.9766 42.1-7.034 36.83-54.078 38.926-55.715m-386.61 23.71c34.518 10.8 40.686 54.118 40.546 86.164-0.18192 6.6804 0.713 12.217 2.5023 16.736 10.736 27.117 50.751 21.275 81.275 9.2125 8.7122-3.348 19.057-3.7258 29.773-2.0545 26.867 4.345 56.805 22.438 68.608 40.134 7.0813 10.617 10.074 22.788 8.0529 33.76-3.139 14.838-15.633 28.461-38.852 35.047s-41.664-22.595-38.593-52.271c2.3873-22.709 17.071-45.219 50.587-53.131 39.021-9.1346 91.828-20.17 120.48-29.284 11.532-3.5322 19.573-6.4488 21.753-8.3741 13.761-11.017-7.844-32.045-2.6354-41.232 1.0926-1.6828 2.9857-3.0055 5.9605-3.8777 42.102-6.8736 34.539-55.843 35.936-56.934m-383.87 25.339c35.533 11.118 41.546 55.009 40.165 88.058-0.36393 6.8856 0.3623 12.609 1.9892 17.306 9.7614 28.179 50.488 21.21 81.572 7.8992 8.8561-3.7442 19.407-4.4241 30.328-2.9402 27.342 3.7932 57.376 21.581 68.664 39.414 6.7724 10.7 9.3086 23.162 6.7398 34.687-3.6469 15.47-16.59 29.731-40.475 36.732s-42.758-22.834-39.621-53.253c2.395-23.04 17.268-46.17 51.526-54.338 39.763-9.4411 93.714-21.018 123.63-29.728 12.001-3.4274 20.343-6.2421 22.609-8.0583 14.23-10.844-8.3326-32.192-3.0743-41.579 0.98864-1.6404 2.7779-2.9329 5.6637-3.7789 42.105-6.7132 32.247-57.608 32.946-58.153m-381.14 26.967c36.548 11.435 42.405 55.9 39.784 89.952-0.54594 7.0908 0.0116 13.001 1.4761 17.875 8.7871 29.241 50.225 21.144 81.87 6.5859 9-4.1405 19.757-5.1224 30.884-3.8259 27.817 3.2414 57.947 20.723 68.72 38.693 6.4635 10.782 8.5428 23.536 5.4266 35.613-4.1549 16.103-17.546 31.001-42.097 38.417s-43.852-23.073-40.648-54.234c2.4028-23.371 17.465-47.121 52.465-55.544 40.504-9.7475 95.6-21.866 126.78-30.172 12.47-3.3226 21.114-6.0354 23.465-7.7425 14.7-10.671-8.8213-32.339-3.5132-41.927 0.88467-1.5979 2.5702-2.8602 5.3669-3.6801 42.108-6.5527 29.956-59.372 29.956-59.372" fill="none" stroke="url(#linearGradient3595)" stroke-width=".27984px"/>
 <path d="m406.62 47.536v207.89h-433.1l3e-6 -208.72 216.98 159.54z" fill="#1b1e20" stop-color="#000000" style="-inkscape-stroke:none;font-variation-settings:normal"/>
 <g transform="matrix(1.5364 0 0 1.5364 -87.148 101.3)" opacity=".02" stroke-width=".6884">
  <g transform="translate(0 77.637)" opacity=".075" stroke-width=".6884">
   <path d="m-21.655-173.61 202.37 148.61 202.37-148.61v16.181l-202.37 148.61-202.37-148.61z" fill="url(#linearGradient21995)" stop-color="#000000" style="-inkscape-stroke:none;font-variation-settings:normal"/>
   <path d="m-21.655-193.8 202.37 148.61 202.37-148.61v22.391l-202.37 148.61-202.37-148.61z" fill="url(#linearGradient21997)"/>
   <path d="m-21.655-157.94 202.37 148.61 202.37-148.61v1.7412l-202.37 148.61-202.37-148.61z" fill="url(#linearGradient21999)" stop-color="#000000" style="-inkscape-stroke:none;font-variation-settings:normal;paint-order:stroke fill markers"/>
  </g>
  <path d="m-21.656-22.398v20.919l191.38 140.54 10.981 23.178 10.981-23.178 191.38-140.54v-20.919l-202.37 148.61z" fill="url(#linearGradient22001)" stop-color="#000000" style="-inkscape-stroke:none;font-variation-settings:normal"/>
  <path d="m191.22 138.75-10.513 23.491 202.37-148.61v-15.771z" fill="url(#linearGradient22003)"/>
  <path d="m-21.656-2.1353v15.771l202.37 148.61-10.513-23.491z" fill="url(#linearGradient22005)"/>
  <path d="m-21.656-2.1353v1.3126l190.92 140.2 11.449 22.866 11.449-22.866 190.92-140.2v-1.3126l-191.85 140.89-10.513 21.102-10.513-21.102-191.54-140.66z" color="#000000" fill="url(#linearGradient22007)" stroke-linecap="square" stroke-width=".18214" style="-inkscape-stroke:none"/>
  <path d="m-21.655-41.581 202.37 148.61 202.37-148.61v21.473l-202.37 148.61-202.37-148.61z" fill="url(#linearGradient22009)" stop-color="#000000" style="-inkscape-stroke:none;font-variation-settings:normal"/>
  <path d="m-21.655-23.098 202.37 148.61 202.37-148.61v2.9889l-202.37 148.61-202.37-148.61z" fill="url(#linearGradient22011)" stop-color="#000000" style="-inkscape-stroke:none;font-variation-settings:normal;paint-order:stroke fill markers"/>
  <path d="m-21.655-62.914 202.37 148.61 202.37-148.61v22.391l-202.37 148.61-202.37-148.61z" fill="url(#linearGradient22013)"/>
  <path d="m-21.655-64.05 202.37 148.61 202.37-148.61v1.7412l-202.37 148.61-202.37-148.61z" fill="url(#linearGradient22015)" stop-color="#000000" style="-inkscape-stroke:none;font-variation-settings:normal;paint-order:stroke fill markers"/>
  <path d="m191.22 138.75-10.513 23.491 202.37-148.61v-15.771z" fill="url(#linearGradient22017)"/>
  <path d="m170.2 138.75 10.513 23.491-202.37-148.61-2e-6 -15.771z" fill="url(#linearGradient22019)"/>
 </g>
 <g transform="matrix(1.0577 0 0 1.0577 -.63296 117)" opacity=".02">
  <path d="m-21.655-173.61 202.37 148.61 202.37-148.61v16.181l-202.37 148.61-202.37-148.61z" fill="url(#linearGradient21995)" stop-color="#000000" style="-inkscape-stroke:none;font-variation-settings:normal"/>
  <path d="m-21.655-193.8 202.37 148.61 202.37-148.61v22.391l-202.37 148.61-202.37-148.61z" fill="url(#linearGradient21997)"/>
  <path d="m-21.655-157.94 202.37 148.61 202.37-148.61v1.7412l-202.37 148.61-202.37-148.61z" fill="url(#linearGradient21999)" stop-color="#000000" style="-inkscape-stroke:none;font-variation-settings:normal;paint-order:stroke fill markers"/>
 </g>
 <path d="m201.62 181.64-11.119 24.846 214.04-157.18v-16.68z" fill="url(#linearGradient24593)"/>
 <path d="m-23.537 32.628v16.68l214.04 157.18-11.119-24.846z" fill="url(#linearGradient78325)"/>
 <path d="m-23.537 32.628v1.3883l201.93 148.29 12.11 24.185 12.11-24.185 201.93-148.29v-1.3883l-202.92 149.01-11.119 22.319-11.119-22.319-202.59-148.77z" color="#000000" fill="url(#linearGradient87990)" stroke-linecap="square" stroke-width=".27984" style="-inkscape-stroke:none"/>
 <path d="m-23.537-9.093 214.04 157.18 214.04-157.18v22.711l-214.04 157.18-214.04-157.18z" fill="url(#linearGradient25753)" stop-color="#000000" style="-inkscape-stroke:none;font-variation-settings:normal"/>
 <path d="m-23.537 10.457 214.04 157.18 214.04-157.18v3.1613l-214.04 157.18-214.04-157.18z" fill="url(#linearGradient25219)" stop-color="#000000" style="-inkscape-stroke:none;font-variation-settings:normal;paint-order:stroke fill markers"/>
 <path d="m201.62 181.64-11.119 24.846 214.04-157.18v-16.68z" fill="url(#linearGradient14910)"/>
 <path d="m179.38 181.64 11.119 24.846-214.04-157.18-2e-6 -16.68z" fill="url(#linearGradient15720)"/>
 <path d="m116.93 137.17v3.3204l35.944 26.396v-3.3204zm0 4.9995v5.2492l35.944 26.396v-5.2492zm35.944 33.254-35.944-26.396v2.2388l35.944 26.396z" fill="url(#linearGradient35006)"/>
 <path d="m364.94 64.674v3.3204l-35.944 26.396v-3.3204zm0 4.9995v5.2492l-35.944 26.396v-5.2492zm-35.944 33.254 35.944-26.396v2.2388l-35.944 26.396z" fill="url(#linearGradient35006-3)"/>
 <path d="m190.5 149.21 214.22-156.59-0.182-1.7043z" fill="#d0b2e4"/>
 <path d="m190.5 149.21-214.22-156.59 0.182-1.7043z" fill="#b2e3e4"/>
 <path d="m-23.537-31.656 214.04 157.18 214.04-157.18v23.682l-214.04 157.18-214.04-157.18z" fill="url(#linearGradient26562)"/>
 <g transform="matrix(.86092 0 0 .86158 46.313 46.453)" fill="none" stop-color="#000000" stroke="#235dc6" stroke-width=".64985" style="-inkscape-stroke:none;font-variation-settings:normal;paint-order:stroke fill markers">
  <path d="m116.37 53.187v6.7346" stop-color="#000000" style="-inkscape-stroke:none;font-variation-settings:normal;paint-order:stroke fill markers"/>
  <path d="m122.49 57.678v8.7187" stop-color="#000000" style="-inkscape-stroke:none;font-variation-settings:normal;paint-order:stroke fill markers"/>
  <path d="m133.56 65.81v8.379" stop-color="#000000" style="-inkscape-stroke:none;font-variation-settings:normal;paint-order:stroke fill markers"/>
  <path d="m128.48 62.077v4.1961" stop-color="#000000" style="-inkscape-stroke:none;font-variation-settings:normal;paint-order:stroke fill markers"/>
  <circle cx="116.42" cy="61.028" r="1.21" stop-color="#000000" style="-inkscape-stroke:none;font-variation-settings:normal;paint-order:stroke fill markers"/>
  <circle cx="122.45" cy="66.901" r=".64061" stop-color="#000000" style="-inkscape-stroke:none;font-variation-settings:normal;paint-order:stroke fill markers"/>
  <circle cx="128.5" cy="67.357" r="1.21" stop-color="#000000" style="-inkscape-stroke:none;font-variation-settings:normal;paint-order:stroke fill markers"/>
  <circle cx="133.55" cy="75.222" r="1.21" stop-color="#000000" style="-inkscape-stroke:none;font-variation-settings:normal;paint-order:stroke fill markers"/>
 </g>
 <path d="m29.127 14.02v16.68l9.2108 6.7638v-16.68zm11.935 8.7642v16.68l18.527 13.606v-16.681zm24.18 17.756 0.15468 16.794 11.62 8.533 0.02023-16.665zm16.068 11.8-0.21754 16.521 3.5079 2.576v-16.681z" fill="url(#linearGradient34063)" stop-color="#000000" style="-inkscape-stroke:none;font-variation-settings:normal"/>
 <path d="m260.36 145.13v7.7252l-9.2108 6.7638v-7.7252zm-11.935 8.7642v7.7252l-18.527 13.606v-7.7258zm-24.18 17.756-0.15467 7.8389-11.62 8.533-0.0202-7.7104zm-16.068 11.8 0.21754 7.5656-3.5079 2.576v-7.7258z" fill="url(#linearGradient53858)" stop-color="#000000" style="-inkscape-stroke:none;font-variation-settings:normal"/>
 <g transform="matrix(1.0577 0 0 1.0577 -.63296 59.285)" opacity=".02">
  <path d="m-21.655-173.61 202.37 148.61 202.37-148.61v16.181l-202.37 148.61-202.37-148.61z" fill="url(#linearGradient21995)" stop-color="#000000" style="-inkscape-stroke:none;font-variation-settings:normal"/>
  <path d="m-21.655-193.8 202.37 148.61 202.37-148.61v22.391l-202.37 148.61-202.37-148.61z" fill="url(#linearGradient21997)"/>
  <path d="m-21.655-157.94 202.37 148.61 202.37-148.61v1.7412l-202.37 148.61-202.37-148.61z" fill="url(#linearGradient21999)" stop-color="#000000" style="-inkscape-stroke:none;font-variation-settings:normal;paint-order:stroke fill markers"/>
 </g>
 <path d="m106.26 66.749v18.411l26.535 19.486v-18.412z" fill="#7777e1" fill-opacity=".095564"/>
 <path d="m125.04 106.91v7.7979l65.456 48.239v-7.7979zm0 9.477v3.0105l65.456 48.239v-3.0105z" fill="url(#linearGradient35392)"/>
 <path d="m-0.66995 56.122v4.4988l34.695 25.478v-4.4993z" fill="url(#linearGradient37083)"/>
 <path d="m92.711 65.024v11.024l85.014 62.431v-11.025z" fill="url(#linearGradient37280)"/>
 <path d="m25.464 73.946v11.024l23.601 17.332v-3.7484zm28.085 27.9v3.7484l9.2337 6.7807v-3.7484zm11.468 8.421v3.7484l9.6967 7.1212v-3.7489zm16.498 12.115v3.7484l12.207 8.9643v-3.7489zm15.826 11.622v3.7489l7.4967 5.505v-3.7489zm10.478 7.694v3.7489l2.6591 1.9529v-3.7489z" fill="url(#linearGradient37849)"/>
 <g transform="matrix(.86092 0 0 .86158 73.417 66.775)" fill="none" stroke="#235dc6" stroke-width=".64985">
  <path d="m116.37 53.187v6.7346" stop-color="#000000" style="font-variation-settings:normal"/>
  <path d="m122.49 57.678v8.7187"/>
  <path d="m128.48 62.077v4.1961"/>
  <circle cx="116.42" cy="61.028" r="1.21" stop-color="#000000" style="font-variation-settings:normal;paint-order:stroke fill markers"/>
  <circle cx="122.45" cy="66.901" r=".64061" stop-color="#000000" style="font-variation-settings:normal;paint-order:stroke fill markers"/>
  <circle cx="128.5" cy="67.357" r="1.21" stop-color="#000000" style="font-variation-settings:normal;paint-order:stroke fill markers"/>
  <path d="m110.31 48.673v8.379"/>
  <circle cx="110.3" cy="58.084" r="1.21" stop-color="#000000" style="font-variation-settings:normal;paint-order:stroke fill markers"/>
 </g>
 <path d="m-23.537-32.857 214.04 157.18 214.04-157.18v1.8416l-214.04 157.18-214.04-157.18z" fill="url(#linearGradient69576)" stop-color="#000000" style="-inkscape-stroke:none;font-variation-settings:normal;paint-order:stroke fill markers"/>
 <path d="m260.69 88.431v16.68l-9.2108 6.7638v-16.68zm-11.935 8.7642v16.68l-18.527 13.606v-16.681zm-24.18 17.756-0.15468 16.794-11.62 8.533-0.0202-16.665zm-16.068 11.8 0.21754 16.521-3.5079 2.576v-16.681z" fill="url(#linearGradient53643)" stop-color="#000000" style="-inkscape-stroke:none;font-variation-settings:normal"/>
 <path d="m353.08 3.0041v11.024l-23.601 17.332v-3.7484zm-28.085 27.9v3.7484l-9.2337 6.7807v-3.7484zm-11.468 8.421v3.7484l-9.6967 7.1212v-3.7489zm-16.498 12.115v3.7484l-12.207 8.9643v-3.7489zm-15.826 11.622v3.7489l-7.4967 5.505v-3.7489zm-10.478 7.694v3.7489l-2.6591 1.9529v-3.7489z" fill="url(#linearGradient53697)"/>
 <path d="m334.76 33.887v11.024l-85.014 62.431v-11.025z" fill="url(#linearGradient53804)"/>
 <path d="m255.96 106.91v7.7979l-65.456 48.239v-7.7979zm0 9.477v3.0105l-65.456 48.239v-3.0105z" fill="url(#linearGradient5163)"/>
</svg>
