<?xml version="1.0" encoding="UTF-8"?>
<svg width="1680" height="1200" version="1.1" viewBox="0 0 444.5 317.5" xmlns="http://www.w3.org/2000/svg" xmlns:xlink="http://www.w3.org/1999/xlink">
<defs>
<linearGradient id="linearGradient16905">
<stop stop-color="#1b668f" offset="0"/>
<stop stop-color="#121c94" offset=".5"/>
<stop stop-color="#382279" offset="1"/>
</linearGradient>
<linearGradient id="linearGradient78639">
<stop stop-color="#2936ea" offset="0"/>
<stop stop-color="#164593" offset="1"/>
</linearGradient>
<linearGradient id="linearGradient75480" x1="-21.655" x2="1378.4" y1="110.14" y2="110.14" gradientTransform="matrix(.34175 0 0 .34175 -11.164 59.064)" gradientUnits="userSpaceOnUse" xlink:href="#linearGradient16905"/>
<linearGradient id="linearGradient3595" x1="-21.656" x2="383.08" y1="81.035" y2="81.035" gradientTransform="matrix(1.2916 0 0 1.2916 -11.164 44.889)" gradientUnits="userSpaceOnUse">
<stop stop-color="#51d677" stop-opacity=".47843" offset="0"/>
<stop stop-color="#eded84" stop-opacity=".32941" offset=".26488"/>
<stop stop-color="#a9ebf6" stop-opacity=".19951" offset=".49538"/>
<stop stop-color="#e9bf9d" stop-opacity=".35686" offset=".74191"/>
<stop stop-color="#5138aa" stop-opacity=".52157" offset="1"/>
</linearGradient>
<linearGradient id="linearGradient21995" x1="-21.655" x2="383.08" y1="92.147" y2="92.147" gradientTransform="translate(0 -155.84)" gradientUnits="userSpaceOnUse">
<stop stop-color="#445feb" offset="0"/>
<stop stop-color="#252fb5" offset=".5"/>
<stop stop-color="#9b53c1" offset="1"/>
</linearGradient>
<linearGradient id="linearGradient21997" x1="-21.655" x2="383.08" y1="99.556" y2="99.556" gradientTransform="translate(0 -189.92)" gradientUnits="userSpaceOnUse">
<stop stop-color="#3410ab" stop-opacity=".67526" offset="0"/>
<stop stop-color="#169bd6" offset=".5"/>
<stop stop-color="#0940a2" stop-opacity=".56984" offset="1"/>
</linearGradient>
<linearGradient id="linearGradient21999" x1="-24.528" x2="386.16" y1="-24.045" y2="-24.045" gradientTransform="translate(0 -138.44)" gradientUnits="userSpaceOnUse">
<stop stop-color="#6a5e19" offset="0"/>
<stop stop-color="#85751e" stop-opacity=".98824" offset=".14669"/>
<stop stop-color="#8c7b20" stop-opacity=".96863" offset=".30531"/>
<stop stop-color="#bda62c" stop-opacity=".95686" offset=".51079"/>
<stop stop-color="#82721e" stop-opacity=".94902" offset=".6231"/>
<stop stop-color="#968623" stop-opacity=".99608" offset=".83541"/>
<stop stop-color="#4e4412" stop-opacity=".92157" offset="1"/>
</linearGradient>
<linearGradient id="linearGradient22001" x1="-21.655" x2="1378.4" y1="110.14" y2="110.14" gradientTransform="matrix(.26458 0 0 .26458 0 -4.9003)" gradientUnits="userSpaceOnUse" xlink:href="#linearGradient16905"/>
<linearGradient id="linearGradient22003" x1="181.04" x2="361.42" y1="110.14" y2="110.14" gradientTransform="translate(0 -18.521)" gradientUnits="userSpaceOnUse" xlink:href="#linearGradient78639"/>
<linearGradient id="linearGradient22005" x1="-21.655" x2="183.99" y1="110.14" y2="110.14" gradientTransform="translate(0 -18.521)" gradientUnits="userSpaceOnUse">
<stop stop-color="#2f38a6" offset="0"/>
<stop stop-color="#3d33eb" offset="1"/>
</linearGradient>
<linearGradient id="linearGradient22007" x1="-82.44" x2="1448.4" y1="345.52" y2="345.52" gradientTransform="scale(.26458)" gradientUnits="userSpaceOnUse" xlink:href="#linearGradient1294"/>
<linearGradient id="linearGradient1294">
<stop stop-color="#6a5e19" offset="0"/>
<stop stop-color="#d1b832" stop-opacity=".98824" offset=".14669"/>
<stop stop-color="#8c7b20" stop-opacity=".96863" offset=".30531"/>
<stop stop-color="#dbc865" stop-opacity=".95686" offset=".51079"/>
<stop stop-color="#82721e" stop-opacity=".94902" offset=".6231"/>
<stop stop-color="#968623" stop-opacity=".99608" offset=".83541"/>
<stop stop-color="#cfb530" stop-opacity=".92157" offset="1"/>
</linearGradient>
<linearGradient id="linearGradient22009" x1="-21.655" x2="383.08" y1="92.147" y2="92.147" gradientTransform="translate(0 -18.521)" gradientUnits="userSpaceOnUse">
<stop stop-color="#445feb" offset="0"/>
<stop stop-color="#4a55ed" offset=".5"/>
<stop stop-color="#9b53c1" offset="1"/>
</linearGradient>
<linearGradient id="linearGradient22011" x1="-24.528" x2="386.16" y1="-24.045" y2="-24.045" gradientTransform="translate(0 -2.3527)" gradientUnits="userSpaceOnUse" xlink:href="#linearGradient1056"/>
<linearGradient id="linearGradient1056">
<stop stop-color="#6a5e19" offset="0"/>
<stop stop-color="#85751e" stop-opacity=".98824" offset=".14669"/>
<stop stop-color="#a38f26" stop-opacity=".96863" offset=".30531"/>
<stop stop-color="#f5d737" stop-opacity=".95686" offset=".51079"/>
<stop stop-color="#968623" stop-opacity=".99608" offset=".83541"/>
<stop stop-color="#4e4412" stop-opacity=".92157" offset="1"/>
</linearGradient>
<linearGradient id="linearGradient22013" x1="-21.655" x2="383.08" y1="99.556" y2="99.556" gradientTransform="translate(0 -59.037)" gradientUnits="userSpaceOnUse">
<stop stop-color="#3410ab" stop-opacity=".67526" offset="0"/>
<stop stop-color="#2936e9" offset=".5"/>
<stop stop-color="#0940a2" stop-opacity=".56984" offset="1"/>
</linearGradient>
<linearGradient id="linearGradient22015" x1="-24.528" x2="386.16" y1="-24.045" y2="-24.045" gradientTransform="translate(0 -44.553)" gradientUnits="userSpaceOnUse" xlink:href="#linearGradient17531"/>
<linearGradient id="linearGradient17531">
<stop stop-color="#6a5e19" offset="0"/>
<stop stop-color="#85751e" stop-opacity=".98824" offset=".14669"/>
<stop stop-color="#8c7b20" stop-opacity=".96863" offset=".30531"/>
<stop stop-color="#d1b637" stop-opacity=".95686" offset=".51079"/>
<stop stop-color="#82721e" stop-opacity=".94902" offset=".6231"/>
<stop stop-color="#968623" stop-opacity=".99608" offset=".83541"/>
<stop stop-color="#4e4412" stop-opacity=".92157" offset="1"/>
</linearGradient>
<linearGradient id="linearGradient22017" x1="253.56" x2="239.42" y1="147.01" y2="130.45" gradientTransform="translate(0 -18.521)" gradientUnits="userSpaceOnUse">
<stop stop-color="#28ead8" stop-opacity=".58819" offset="0"/>
<stop stop-color="#164593" stop-opacity=".023098" offset="1"/>
</linearGradient>
<linearGradient id="linearGradient22019" x1="251.13" x2="241.25" y1="138.13" y2="126.04" gradientTransform="matrix(-1 0 0 1 361.42 -18.521)" gradientUnits="userSpaceOnUse">
<stop stop-color="#dc29ea" stop-opacity=".68736" offset="0"/>
<stop stop-color="#164593" stop-opacity=".023098" offset="1"/>
</linearGradient>
<linearGradient id="linearGradient24593" x1="181.04" x2="361.42" y1="110.14" y2="110.14" gradientTransform="matrix(1.2916 0 0 1.2916 -11.164 41.471)" gradientUnits="userSpaceOnUse" xlink:href="#linearGradient78639"/>
<linearGradient id="linearGradient78325" x1="-21.655" x2="183.99" y1="110.14" y2="110.14" gradientTransform="matrix(1.2916 0 0 1.2916 -11.164 41.471)" gradientUnits="userSpaceOnUse">
<stop stop-color="#2e3476" offset="0"/>
<stop stop-color="#3d33eb" offset="1"/>
</linearGradient>
<linearGradient id="linearGradient87990" x1="-82.44" x2="1448.4" y1="345.52" y2="345.52" gradientTransform="matrix(.34175 0 0 .34175 -11.164 65.394)" gradientUnits="userSpaceOnUse" xlink:href="#linearGradient1294"/>
<linearGradient id="linearGradient25753" x1="-21.655" x2="383.08" y1="92.147" y2="92.147" gradientTransform="matrix(1.2916 0 0 1.2916 -11.164 41.471)" gradientUnits="userSpaceOnUse">
<stop stop-color="#4465eb" offset="0"/>
<stop stop-color="#46a7e1" offset=".5"/>
<stop stop-color="#6b50c1" offset="1"/>
</linearGradient>
<linearGradient id="linearGradient25219" x1="-24.528" x2="386.16" y1="-24.045" y2="-24.045" gradientTransform="matrix(1.2916 0 0 1.2916 -11.164 62.355)" gradientUnits="userSpaceOnUse" xlink:href="#linearGradient1056"/>
<linearGradient id="linearGradient14910" x1="253.56" x2="239.42" y1="147.01" y2="130.45" gradientTransform="matrix(1.2916 0 0 1.2916 -11.164 41.471)" gradientUnits="userSpaceOnUse">
<stop stop-color="#e06fea" stop-opacity=".39011" offset="0"/>
<stop stop-color="#164593" stop-opacity=".023098" offset="1"/>
</linearGradient>
<linearGradient id="linearGradient15720" x1="251.13" x2="241.25" y1="138.13" y2="126.04" gradientTransform="matrix(-1.2916 0 0 1.2916 455.66 41.471)" gradientUnits="userSpaceOnUse">
<stop stop-color="#dc29ea" stop-opacity=".18321" offset="0"/>
<stop stop-color="#164593" stop-opacity=".023098" offset="1"/>
</linearGradient>
<linearGradient id="linearGradient35006" x1="542.26" x2="409.86" y1="531.52" y2="437.69" gradientTransform="matrix(.34175 0 0 .34175 -11.164 44.889)" gradientUnits="userSpaceOnUse">
<stop stop-color="#9e80dc" stop-opacity=".08" offset="0"/>
<stop stop-color="#9e80dc" stop-opacity="0" offset="1"/>
</linearGradient>
<linearGradient id="linearGradient35006-3" x1="542.26" x2="409.86" y1="531.52" y2="437.69" gradientTransform="matrix(-.34175 0 0 .34175 578.84 -43.641)" gradientUnits="userSpaceOnUse">
<stop stop-color="#9e80dc" stop-opacity=".12323" offset="0"/>
<stop stop-color="#9e80dc" stop-opacity="0" offset="1"/>
</linearGradient>
<linearGradient id="linearGradient26562" x1="-21.655" x2="383.08" y1="99.556" y2="99.556" gradientTransform="matrix(1.2916 0 0 1.2916 -11.164 -10.861)" gradientUnits="userSpaceOnUse">
<stop stop-color="#0031b6" offset="0"/>
<stop stop-color="#255cc7" offset=".5"/>
<stop stop-color="#3d3dd3" offset="1"/>
</linearGradient>
<linearGradient id="linearGradient34063" x1="79.735" x2="21.187" y1="42.158" y2="1.0037" gradientTransform="matrix(1.2916 0 0 1.2916 -11.164 44.889)" gradientUnits="userSpaceOnUse">
<stop stop-color="#9e7fdc" stop-opacity=".1" offset="0"/>
<stop stop-color="#9e7fdc" stop-opacity="0" offset="1"/>
</linearGradient>
<linearGradient id="linearGradient53858" x1="79.735" x2="21.187" y1="42.158" y2="1.0037" gradientTransform="matrix(-1.2916 0 0 1.2916 343.9 194.07)" gradientUnits="userSpaceOnUse">
<stop stop-color="#7fdcdb" stop-opacity=".07" offset="0"/>
<stop stop-color="#9e7fdc" stop-opacity="0" offset="1"/>
</linearGradient>
<linearGradient id="linearGradient35392" x1="654.09" x2="409.86" y1="615.36" y2="437.69" gradientTransform="matrix(.34175 0 0 .34175 -1.253 7.9366)" gradientUnits="userSpaceOnUse">
<stop stop-color="#b1cdef" stop-opacity=".26275" offset="0"/>
<stop stop-color="#9e80dc" stop-opacity="0" offset="1"/>
</linearGradient>
<linearGradient id="linearGradient37083" x1="32.688" x2="-4.3074" y1="61.359" y2="35.59" gradientTransform="matrix(1.2916 0 0 1.2916 -11.164 44.889)" gradientUnits="userSpaceOnUse">
<stop stop-color="#a9e3ed" stop-opacity=".05" offset="0"/>
<stop stop-color="#a9e3ed" stop-opacity="0" offset="1"/>
</linearGradient>
<linearGradient id="linearGradient37280" x1="32.688" x2="-4.3074" y1="61.359" y2="35.59" gradientTransform="matrix(3.165 0 0 3.165 102.94 -11.59)" gradientUnits="userSpaceOnUse">
<stop stop-color="#60cbde" stop-opacity=".059582" offset="0"/>
<stop stop-color="#a9e3ed" stop-opacity="0" offset="1"/>
</linearGradient>
<linearGradient id="linearGradient37849" x1="32.688" x2="-4.3074" y1="61.359" y2="35.59" gradientTransform="matrix(3.165 0 0 3.165 20.817 -.69402)" gradientUnits="userSpaceOnUse">
<stop stop-color="#84b0b8" stop-opacity=".05" offset="0"/>
<stop stop-color="#a9e3ed" stop-opacity="0" offset="1"/>
</linearGradient>
<linearGradient id="linearGradient69576" x1="-24.528" x2="386.16" y1="-24.045" y2="-24.045" gradientTransform="matrix(1.2916 0 0 1.2916 -11.164 7.8474)" gradientUnits="userSpaceOnUse" xlink:href="#linearGradient17531"/>
<linearGradient id="linearGradient53643" x1="79.735" x2="21.187" y1="42.158" y2="1.0037" gradientTransform="matrix(-1.2916 0 0 1.2916 344.31 135.76)" gradientUnits="userSpaceOnUse">
<stop stop-color="#dc7fdc" stop-opacity=".08" offset="0"/>
<stop stop-color="#9e7fdc" stop-opacity="0" offset="1"/>
</linearGradient>
<linearGradient id="linearGradient53697" x1="32.688" x2="-4.3074" y1="61.359" y2="35.59" gradientTransform="matrix(-3.165 0 0 3.165 420.68 -87.329)" gradientUnits="userSpaceOnUse">
<stop stop-color="#a9e3ed" stop-opacity=".06" offset="0"/>
<stop stop-color="#a9e3ed" stop-opacity="0" offset="1"/>
</linearGradient>
<linearGradient id="linearGradient53804" x1="32.688" x2="-4.3074" y1="61.359" y2="35.59" gradientTransform="matrix(-3.165 0 0 3.165 398.31 -49.615)" gradientUnits="userSpaceOnUse">
<stop stop-color="#dd83f2" stop-opacity=".12549" offset="0"/>
<stop stop-color="#a9e3ed" stop-opacity="0" offset="1"/>
</linearGradient>
<linearGradient id="linearGradient5163" x1="654.09" x2="409.86" y1="615.36" y2="437.69" gradientTransform="matrix(-.34175 0 0 .34175 445.75 7.9366)" gradientUnits="userSpaceOnUse">
<stop stop-color="#b1cdef" stop-opacity=".14678" offset="0"/>
<stop stop-color="#9e80dc" stop-opacity="0" offset="1"/>
</linearGradient>
</defs>
<rect y="3.5527e-15" width="444.5" height="317.5" fill="#1b1e20" stop-color="#000000" style="-inkscape-stroke:none;font-variation-settings:normal;paint-order:stroke fill markers"/>
<path d="m-39.135 36.463v27.02l247.2 181.53 14.184 29.938 14.184-29.938 247.2-181.53v-27.02l-261.38 191.95z" fill="url(#linearGradient75480)" stop-color="#000000" style="-inkscape-stroke:none;font-variation-settings:normal"/>
<path d="m-64.579 65.351s13.998 29.113 65.343 26.578c7.335-0.36205 15.432-1.37 24.36-3.2009 53.565-10.985 72.89 28.685 86.886 65.78 4.6653 12.365 8.7385 24.444 13.29 34.265 13.077 28.218 45.668 63.005 81.458 78.917 21.474 9.547 44.101 12.299 64.356 2.7598 17.258-8.1277 20.623-17.983 19.924-27.159-0.69903-9.1758-5.4619-17.672-4.459-23.081 2.5942-13.991 12.677-15.728 22.798-14.788 16.869 1.5669 33.845 10.57 16.44-17.325-5.4067-8.6652-8.0919-16.46-8.989-23.338-2.6912-20.635 10.711-33.021 15.006-35.923 5.6511-3.8186 12.273-6.6876 19.603-8.8383 51.309-15.055 137.32 5.0876 168.03-18.905m-582.19-36.678c1.2398 0.38791 15.047 30.2 64.877 28.891 7.1127-0.11146 15.004-0.89087 23.733-2.5056 52.375-9.6883 72.569 28.605 87.25 64.176 4.841 11.881 9.1659 23.591 13.969 33.184 13.658 27.544 46.365 61.958 81.527 78.037 21.097 9.6476 43.166 12.756 62.753 3.8912 16.638-7.3557 19.455-16.432 17.942-25.101-1.5124-8.6693-6.7978-17.964-5.714-24.279 2.6036-14.395 12.917-16.889 23.945-16.261 17.774 1.1927 36.148 9.535 20.283-17.868-4.8335-8.5372-7.1509-16.207-7.9433-22.952-2.1178-20.423 10.114-33.201 14.47-36.348 5.5241-3.7667 12.019-6.5989 19.24-8.7176 51.312-14.859 134.52 2.9322 164.38-20.394m-578.86-34.689c2.4796 0.77582 16.097 31.288 64.412 31.204 6.8905 0.13913 14.576-0.41177 23.106-1.8103 51.185-8.3913 72.248 28.526 87.614 62.572 5.0168 11.397 9.5934 22.738 14.647 32.102 14.238 26.87 47.062 60.911 81.595 77.158 20.72 9.7482 42.231 13.213 61.149 5.0226 16.018-6.5837 18.287-14.881 15.961-23.044-2.3258-8.1629-8.1336-18.255-6.9691-25.478 2.613-14.799 13.157-18.051 25.091-17.735 18.68 0.81851 38.451 8.4996 24.127-18.41-4.2603-8.4092-6.2099-15.955-6.8976-22.567-1.5443-20.212 9.5174-33.381 13.934-36.772 5.3972-3.7149 11.765-6.5101 18.878-8.597 51.315-14.663 131.72 0.77681 160.73-21.883m-575.52-32.7c3.7194 1.1637 17.147 32.375 63.946 33.518 6.6682 0.38973 14.147 0.06733 22.48-1.115 49.995-7.0942 71.927 28.446 87.978 60.968 5.1924 10.913 10.021 21.886 15.326 31.021 14.819 26.196 47.759 59.863 81.664 76.278 20.343 9.8487 41.295 13.669 59.546 6.1541 15.397-5.8117 17.119-13.33 13.98-20.986-3.1393-7.6565-9.4695-18.547-8.2241-26.676 2.6225-15.203 13.398-19.213 26.238-19.208 19.585 0.44432 40.754 7.4642 27.971-18.952-3.6871-8.2812-5.2689-15.702-5.8519-22.181-0.97091-20.001 8.9207-33.561 13.398-37.197 5.2702-3.663 11.512-6.4214 18.515-8.4763 51.318-14.467 128.92-1.3786 157.08-23.372m-572.19-30.711c4.9592 1.5516 18.196 33.463 63.481 35.831 6.4459 0.64032 13.719 0.54642 21.853-0.41976 48.805-5.7971 71.607 28.367 88.341 59.365 5.3682 10.429 10.448 21.033 16.004 29.939 15.399 25.522 48.456 58.816 81.732 75.398 19.965 9.9493 40.36 14.126 57.942 7.2855 14.777-5.0397 15.951-11.778 11.998-18.929s-10.805-18.839-9.4792-27.875c2.632-15.607 13.638-20.374 27.384-20.681 20.491 0.0701 43.057 6.4289 31.815-19.494-3.1138-8.1532-4.3279-15.45-4.8062-21.795-0.3975-19.79 8.3239-33.74 12.862-37.621 5.1432-3.6111 11.258-6.3326 18.153-8.3556 51.321-14.271 126.12-3.534 153.42-24.861m-568.85-28.722c6.1991 1.9396 19.246 34.55 63.015 38.144 6.2237 0.89092 13.291 1.0255 21.227 0.27552 47.616-4.5 71.286 28.287 88.705 57.761 5.5439 9.9454 10.876 20.18 16.683 28.857 15.979 24.848 49.154 57.769 81.8 74.519 19.588 10.05 39.425 14.583 56.338 8.4169 14.157-4.2676 14.783-10.227 10.017-16.871-4.7661-6.6436-12.141-19.131-10.734-29.074 2.6414-16.012 13.878-21.536 28.53-22.155 21.396-0.30404 45.36 5.3935 35.659-20.037-2.5406-8.0252-3.3869-15.197-3.7605-21.41 0.17592-19.579 7.7272-33.92 12.326-38.045 5.0163-3.5593 11.004-6.2439 17.79-8.235 51.324-14.075 123.33-5.6893 149.77-26.35m-565.52-26.734c7.4389 2.3275 20.296 35.638 62.55 40.457 6.0014 1.1415 12.863 1.5046 20.6 0.9708 46.426-3.2029 70.965 28.207 89.069 56.157 5.7196 9.4615 11.303 19.327 17.361 27.776 16.56 24.175 49.851 56.722 81.869 73.639 19.211 10.15 38.49 15.04 54.735 9.5484 13.536-3.4956 13.615-8.6761 8.035-14.813-5.5795-6.1372-13.477-19.423-11.989-30.272 2.6508-16.416 14.119-22.697 29.677-23.628 22.301-0.67822 47.662 4.3582 39.503-20.579-1.9674-7.8972-2.4458-14.945-2.7148-21.024 0.74934-19.367 7.1304-34.1 11.79-38.47 4.8893-3.5074 10.75-6.1552 17.428-8.1143 51.328-13.879 120.53-7.8447 146.12-27.838m-562.18-24.745c8.6787 2.7154 21.345 36.726 62.084 42.77 5.7791 1.3921 12.434 1.9837 19.974 1.6661 45.236-1.9059 70.644 28.128 89.432 54.553 5.8953 8.9775 11.731 18.475 18.04 26.694 17.14 23.501 50.548 55.675 81.937 72.76 18.834 10.251 37.554 15.496 53.131 10.68 12.916-2.7236 12.446-7.125 6.0536-12.756-6.3929-5.6308-14.813-19.714-13.244-31.471 2.6603-16.82 14.359-23.859 30.823-25.102 23.207-1.0524 49.965 3.3228 43.347-21.121-1.3942-7.7692-1.5048-14.692-1.6691-20.638 1.3228-19.156 6.5336-34.28 11.254-38.894 4.7624-3.4555 10.497-6.0664 17.065-7.9936 51.331-13.684 117.73-10 142.47-29.327m-558.84-22.756c9.9185 3.1033 22.395 37.813 61.619 45.083 5.5568 1.6427 12.006 2.4628 19.347 2.3614 44.046-0.60878 70.323 28.048 89.796 52.949 6.071 8.4936 12.158 17.622 18.718 25.613 17.72 22.827 51.245 54.628 82.006 71.88 18.456 10.352 36.619 15.953 51.528 11.811 12.295-1.9516 11.278-5.5738 4.0721-10.698-7.2063-5.1244-16.149-20.006-14.499-32.67 2.6697-17.224 14.599-25.021 31.97-26.575 24.112-1.4266 52.268 2.2874 47.191-21.663-0.82099-7.6412-0.56384-14.44-0.62336-20.253 1.8962-18.945 5.9368-34.46 10.718-39.319 4.6354-3.4037 10.243-5.9777 16.703-7.873 51.334-13.488 114.93-12.155 138.82-30.816m-555.51-20.767c11.158 3.4912 23.445 38.901 61.153 47.396 5.3346 1.8933 11.578 2.9419 18.72 3.0566 42.856 0.6883 70.002 27.969 90.16 51.346 6.2467 8.0097 12.586 16.769 19.397 24.531 18.301 22.153 51.942 53.58 82.074 71.001 18.079 10.452 35.684 16.41 49.924 12.943 11.675-1.1796 10.11-4.0226 2.0906-8.6405-8.0197-4.6179-17.485-20.298-15.754-33.868 2.6792-17.628 14.84-26.182 33.116-28.049 25.018-1.8008 54.571 1.252 51.035-22.206-0.24776-7.5133 0.37718-14.187 0.42235-19.867 2.4696-18.734 5.3401-34.639 10.182-39.743 4.5084-3.3518 9.9892-5.8889 16.34-7.7523 51.337-13.292 112.13-14.311 135.17-32.305m-552.17-18.778c12.398 3.8791 24.494 39.988 60.688 49.709 5.1123 2.1439 11.149 3.421 18.094 3.7519 41.666 1.9854 69.681 27.889 90.524 49.742 6.4224 7.5258 13.013 15.916 20.075 23.449 18.881 21.479 52.639 52.533 82.143 70.121 17.702 10.553 34.749 16.867 48.32 14.074 11.055-0.4076 8.9423-2.4714 0.10911-6.583-8.8331-4.1115-18.82-20.59-17.009-35.067 2.6886-18.033 15.08-27.344 34.263-29.522 25.923-2.175 56.874 0.21668 54.879-22.748 0.32545-7.3853 1.3182-13.935 1.468-19.482 3.043-18.523 4.7433-34.819 9.6457-40.167 4.3815-3.2999 9.7355-5.8002 15.978-7.6316 51.34-13.096 109.34-16.466 131.52-33.794m-548.84-16.789c13.638 4.267 25.544 41.076 60.222 52.022 4.89 2.3945 10.721 3.9001 17.467 4.4472 40.477 3.2825 69.36 27.81 90.887 48.138 6.5981 7.0418 13.441 15.064 20.754 22.368 19.462 20.805 53.337 51.486 82.211 69.242 17.325 10.653 33.813 17.323 46.717 15.206 10.434 0.36441 7.7742-0.92025-1.8724-4.5253-9.6466-3.6051-20.156-20.882-18.264-36.266 2.6981-18.437 15.32-28.505 35.409-30.995 26.829-2.5491 59.176-0.81868 58.722-23.29 0.89867-7.2573 2.2592-13.682 2.5138-19.096 3.6164-18.311 4.1465-34.999 9.1097-40.592 4.2545-3.2481 9.4818-5.7115 15.616-7.5109 51.343-12.9 106.54-18.622 127.87-35.283m-545.5-14.8c14.878 4.6549 26.594 42.163 59.757 54.336 4.6678 2.6451 10.293 4.3792 16.841 5.1424 39.287 4.5796 69.039 27.73 91.251 46.534 6.7738 6.5579 13.868 14.211 21.432 21.286 20.042 20.131 54.034 50.439 82.279 68.362 16.947 10.754 32.878 17.78 45.113 16.337 9.8141 1.1364 6.6061 0.63093-3.8538-2.4677s-21.492-21.173-19.519-37.464c2.7075-18.841 15.561-29.667 36.556-32.469 27.734-2.9233 61.479-1.854 62.566-23.833 1.4719-7.1293 3.2002-13.43 3.5595-18.71 4.1898-18.1 3.5498-35.179 8.5737-41.016 4.1275-3.1962 9.2281-5.6227 15.253-7.3903 51.346-12.704 103.74-20.777 124.21-36.772m-542.17-12.811c16.118 5.0428 27.643 43.251 59.291 56.649 4.4455 2.8957 9.8646 4.8583 16.214 5.8377 38.097 5.8766 68.718 27.651 91.615 44.93 6.9496 6.074 14.296 13.358 22.11 20.205 20.622 19.457 54.731 49.392 82.348 67.482 16.57 10.854 31.943 18.237 43.51 17.468 9.1938 1.9084 5.438 2.1821-5.8353-0.41015-11.273-2.5922-22.828-21.465-20.774-38.663 2.717-19.245 15.801-30.828 37.702-33.942 28.639-3.2975 63.782-2.8894 66.41-24.375 2.0451-7.0013 4.1412-13.177 4.6052-18.325 4.7632-17.889 2.953-35.358 8.0377-41.441 4.0006-3.1443 8.9743-5.534 14.891-7.2696 51.35-12.508 100.94-22.932 120.56-38.261m-538.83-10.823c17.357 5.4307 28.693 44.339 58.826 58.962 4.2232 3.1463 9.4363 5.3374 15.587 6.533 36.907 7.1737 68.397 27.571 91.979 43.326 7.1253 5.59 14.723 12.505 22.789 19.123 21.203 18.784 55.428 48.345 82.416 66.603 16.193 10.955 31.008 18.694 41.906 18.6 8.5735 2.6804 4.27 3.7333-7.8168 1.6475s-24.164-21.757-22.03-39.861c2.7264-19.649 16.041-31.99 38.849-35.416 29.545-3.6717 66.085-3.9248 70.254-24.917 2.6183-6.8733 5.0822-12.925 5.6509-17.939 5.3367-17.678 2.3562-35.538 7.5017-41.865 3.8736-3.0924 8.7206-5.4452 14.528-7.1489 51.353-12.312 98.142-25.088 116.91-39.75m-535.5-8.8336c18.597 5.8187 29.743 45.426 58.36 61.275 4.001 3.3969 9.008 5.8165 14.961 7.2283 35.717 8.4708 68.076 27.492 92.342 41.723 7.301 5.1061 15.15 11.653 23.467 18.041 21.783 18.11 56.125 47.298 82.485 65.723 15.816 11.055 30.072 19.151 40.302 19.731 7.9531 3.4525 3.1019 5.2845-9.7983 3.7051s-25.5-22.049-23.285-41.06c2.7359-20.053 16.281-33.152 39.995-36.889 30.45-4.0459 68.388-4.9602 74.098-25.459 3.1915-6.7454 6.0232-12.673 6.6966-17.553 5.9101-17.467 1.7595-35.718 6.9656-42.289 3.7466-3.0406 8.4669-5.3565 14.166-7.0283 51.356-12.116 95.344-27.243 113.26-41.239m-532.16-6.8448c19.837 6.2066 30.792 46.514 57.894 63.588 3.7787 3.6474 8.5797 6.2956 14.334 7.9236 34.527 9.7679 67.755 27.412 92.706 40.119 7.4767 4.6222 15.578 10.8 24.146 16.96 22.363 17.436 56.822 46.25 82.553 64.844 15.438 11.156 29.137 19.607 38.699 20.863 7.3328 4.2245 1.9338 6.8356-11.78 5.7626-13.714-1.073-26.836-22.341-24.54-42.259 2.7453-20.458 16.522-34.313 41.142-38.363 31.356-4.42 70.691-5.9955 77.942-26.002 3.7647-6.6174 6.9642-12.42 7.7423-17.168 6.4835-17.256 1.1627-35.898 6.4296-42.714 3.6197-2.9887 8.2132-5.2678 13.803-6.9076 51.359-11.92 92.546-29.399 109.61-42.728m-528.83-4.8559c21.077 6.5945 31.842 47.601 57.429 65.901 3.5564 3.898 8.1515 6.7747 13.708 8.6188 33.338 11.065 67.434 27.333 93.07 38.515 7.6524 4.1382 16.005 9.947 24.824 15.878 22.944 16.762 57.52 45.203 82.621 63.964 15.061 11.257 28.202 20.064 37.095 21.994 6.7124 4.9965 0.76575 8.3868-13.761 7.8203-14.527-0.56655-28.171-22.632-25.795-43.457 2.7548-20.862 16.762-35.475 42.288-39.836 32.261-4.7942 72.993-7.0309 81.786-26.544 4.338-6.4894 7.9053-12.168 8.788-16.782 7.0569-17.044 0.56593-36.078 5.8936-43.138 3.4927-2.9369 7.9594-5.179 13.441-6.7869 51.362-11.724 89.748-31.554 105.96-44.217m-525.49-2.867c22.317 6.9824 32.892 48.689 56.963 68.214 3.3341 4.1486 7.7232 7.2538 13.081 9.3141 32.148 12.362 67.113 27.253 93.434 36.911 7.8281 3.6543 16.433 9.0942 25.503 14.797 23.524 16.088 58.217 44.156 82.69 63.085 14.684 11.357 27.267 20.521 35.492 23.126 6.0921 5.7685-0.40232 9.938-15.743 9.8779-15.34-0.0601-29.507-22.924-27.05-44.656 2.7642-21.266 17.002-36.636 43.435-41.309 33.167-5.1684 75.296-8.0662 85.63-27.086 4.9112-6.3614 8.8463-11.915 9.8337-16.397 7.6303-16.833-0.0308-36.257 5.3576-43.562 3.3657-2.885 7.7057-5.0903 13.078-6.6662 51.365-11.529 86.95-33.709 102.31-45.706m-522.16-0.87813c23.556 7.3703 33.942 49.776 56.498 70.527 3.1119 4.3992 7.2949 7.7329 12.455 10.009 30.958 13.659 66.792 27.174 93.797 35.307 8.0038 3.1704 16.86 8.2414 26.181 13.715 24.105 15.414 58.914 43.109 82.758 62.205 14.307 11.458 26.332 20.978 33.888 24.257 5.4718 6.5405-1.5704 11.489-17.724 11.935-16.154 0.4463-30.843-23.216-28.305-45.855 2.7737-21.67 17.243-37.798 44.581-42.783 34.072-5.5426 77.599-9.1016 89.474-27.628 5.4844-6.2334 9.7873-11.663 10.879-16.011 8.2038-16.622-0.62761-36.437 4.8216-43.987 3.2388-2.8331 7.452-5.0015 12.716-6.5456 51.369-11.333 84.152-35.865 98.655-47.195m-518.82 1.1107c24.796 7.7582 34.991 50.864 56.032 72.84 2.8896 4.6498 6.8666 8.212 11.828 10.705 29.768 14.956 66.471 27.094 94.161 33.704 8.1795 2.6864 17.288 7.3887 26.86 12.633 24.685 14.74 59.611 42.062 82.827 61.326 13.929 11.558 25.396 21.434 32.285 25.388 4.8514 7.3125-2.7385 13.04-19.706 13.993-16.967 0.95272-32.179-23.508-29.56-47.053 2.7831-22.074 17.483-38.96 45.727-44.256 34.977-5.9168 79.902-10.137 93.317-28.171 6.0576-6.1054 10.728-11.41 11.925-15.625 8.7772-16.411-1.2244-36.617 4.2856-44.411 3.1118-2.7813 7.1983-4.9128 12.353-6.4249 51.372-11.137 81.353-38.02 95.004-48.683m-515.49 3.0996c26.036 8.1461 36.041 51.952 55.567 75.154 2.6673 4.9004 6.4383 8.6911 11.201 11.4 28.578 16.253 66.15 27.015 94.525 32.1 8.3552 2.2025 17.715 6.5359 27.538 11.552 25.265 14.066 60.308 41.015 82.895 60.446 13.552 11.659 24.461 21.891 30.681 26.52 4.2311 8.0845-3.9065 14.592-21.687 16.051s-33.515-23.8-30.815-48.252c2.7926-22.478 17.723-40.121 46.874-45.73 35.883-6.291 82.205-11.172 97.161-28.713 6.6308-5.9774 11.669-11.158 12.971-15.24 9.3506-16.2-1.8211-36.797 3.7496-44.836 2.9848-2.7294 6.9446-4.824 11.991-6.3042 51.375-10.941 78.555-40.176 91.352-50.172m-512.15 5.0885c27.276 8.534 37.091 53.039 55.101 77.467 2.4451 5.151 6.0101 9.1702 10.575 12.095 27.389 17.55 65.829 26.935 94.888 30.496 8.531 1.7186 18.143 5.6832 28.217 10.47 25.846 13.393 61.005 39.967 82.963 59.567 13.175 11.759 23.526 22.348 29.077 27.651 3.6108 8.8565-5.0746 16.143-23.669 18.108-18.594 1.9656-34.851-24.091-32.07-49.451 2.802-22.883 17.964-41.283 48.02-47.203 36.788-6.6651 84.508-12.208 101.01-29.255 7.204-5.8494 12.61-10.905 14.016-14.854 9.924-15.988-2.4179-36.976 3.2136-45.26 2.8579-2.6775 6.6908-4.7353 11.628-6.1836 51.378-10.745 75.757-42.331 87.701-51.661m-508.82 7.0774c28.516 8.9219 38.14 54.127 54.636 79.78 2.2228 5.4016 5.5818 9.6492 9.9482 12.79 26.199 18.847 65.508 26.856 95.252 28.892 8.7067 1.2346 18.57 4.8304 28.895 9.3886 26.426 12.719 61.703 38.92 83.032 58.687 12.798 11.86 22.591 22.805 27.474 28.783 2.9904 9.6286-6.2427 17.694-25.65 20.166s-36.187-24.383-33.325-50.649c2.8115-23.287 18.204-42.444 49.167-48.677 37.694-7.0393 86.81-13.243 104.85-29.797 7.7772-5.7214 13.551-10.653 15.062-14.468 10.497-15.777-3.0147-37.156 2.6776-45.684 2.7309-2.6256 6.4371-4.6466 11.266-6.0629 51.381-10.549 72.959-44.486 84.05-53.15m-505.48 9.0662c29.755 9.3098 39.19 55.214 54.17 82.093 2.0005 5.6522 5.1535 10.128 9.3217 13.486 25.009 20.145 65.187 26.776 95.616 27.288 8.8824 0.75073 18.998 3.9776 29.574 8.307 27.006 12.045 62.4 37.873 83.1 57.807 12.42 11.961 21.655 23.262 25.87 29.914 2.3701 10.401-7.4108 19.245-27.632 22.223-20.221 2.9784-37.522-24.675-34.58-51.848 2.8209-23.691 18.444-43.606 50.313-50.15 38.599-7.4135 89.113-14.278 108.69-30.34 8.3505-5.5935 14.492-10.4 16.108-14.083 11.071-15.566-3.6114-37.336 2.1416-46.109 2.604-2.5738 6.1834-4.5578 10.904-5.9422 51.384-10.353 70.161-46.642 80.398-54.639m-502.14 11.055c30.995 9.6978 40.24 56.302 53.705 84.406 1.7783 5.9028 4.7252 10.607 8.6951 14.181 23.819 21.442 64.866 26.696 95.98 25.685 9.0581 0.2668 19.425 3.1249 30.252 7.2254 27.587 11.371 63.097 36.826 83.169 56.928 12.043 12.061 20.72 23.718 24.267 31.046 1.7497 11.173-8.5788 20.796-29.613 24.281-21.034 3.4848-38.858-24.967-35.835-53.046 2.8304-24.095 18.685-44.768 51.46-51.623 39.504-7.7877 91.416-15.314 112.54-30.882 8.9237-5.4655 15.433-10.148 17.154-13.697 11.644-15.355-4.2082-37.516 1.6056-46.533 2.477-2.5219 5.9297-4.4691 10.541-5.8216 51.388-10.157 67.362-48.797 76.747-56.128m-498.81 13.044c32.235 10.086 41.289 57.389 53.239 86.719 1.556 6.1534 4.297 11.087 8.0685 14.876 22.629 22.739 64.545 26.617 96.343 24.081 9.2338-0.21714 19.853 2.2721 30.931 6.1438 28.167 10.697 63.794 35.779 83.237 56.048 11.666 12.162 19.785 24.175 22.663 32.177 1.1294 11.945-9.7469 22.347-31.595 26.339-21.848 3.9913-40.194-25.259-37.09-54.245 2.8398-24.499 18.925-45.929 52.606-53.097 40.41-8.1619 93.719-16.349 116.38-31.424 9.4969-5.3375 16.374-9.8952 18.199-13.312 12.218-15.144-4.805-37.696 1.0696-46.958 2.35-2.47 5.6759-4.3803 10.179-5.7009 51.391-9.9613 64.564-50.952 73.096-57.617m-495.47 15.033c33.475 10.474 42.339 58.477 52.774 89.032 1.3337 6.404 3.8687 11.566 7.4419 15.572 21.439 24.036 64.224 26.537 96.707 22.477 9.4095-0.70106 20.28 1.4193 31.609 5.0622 28.747 10.023 64.491 34.732 83.306 55.169 11.289 12.262 18.85 24.632 21.059 33.308 0.50905 12.717-10.915 23.899-33.576 28.396-22.661 4.4977-41.53-25.55-38.345-55.444 2.8493-24.904 19.165-47.091 53.753-54.57 41.315-8.5361 96.022-17.385 120.22-31.966 10.07-5.2095 17.315-9.6428 19.245-12.926 12.791-14.933-5.4018-37.875 0.53363-47.382 2.2231-2.4182 5.4222-4.2916 9.8162-5.5802 51.394-9.7654 61.766-53.108 69.444-59.106m-492.14 17.022c34.715 10.861 43.389 59.565 52.308 91.345 1.1115 6.6546 3.4404 12.045 6.8153 16.267 20.25 25.333 63.903 26.458 97.071 20.873 9.5852-1.185 20.708 0.56656 32.288 3.9806 29.328 9.3494 65.188 33.685 83.374 54.289 10.911 12.363 17.914 25.089 19.456 34.44-0.11129 13.489-12.083 25.45-35.558 30.454-23.475 5.0041-42.866-25.842-39.6-56.642 2.8587-25.308 19.405-48.252 54.899-56.044 42.221-8.9102 98.325-18.42 124.07-32.509 10.643-5.0815 18.256-9.3903 20.291-12.54 13.364-14.721-5.9985-38.055-2e-3 -47.806 2.0961-2.3663 5.1685-4.2029 9.4538-5.4596 51.397-9.5695 58.968-55.263 65.793-60.595m-488.8 19.011c35.955 11.249 44.438 60.652 51.843 93.659 0.88918 6.9052 3.0121 12.524 6.1887 16.962 19.06 26.63 63.582 26.378 97.435 19.269 9.7609-1.6689 21.135-0.28621 32.966 2.899 29.908 8.6755 65.886 32.637 83.442 53.41 10.534 12.463 16.979 25.545 17.852 35.571-0.73162 14.261-13.251 27.001-37.539 32.511-24.288 5.5105-44.202-26.134-40.855-57.841 2.8682-25.712 19.646-49.414 56.046-57.517 43.126-9.2844 100.63-19.455 127.91-33.051 11.217-4.9535 19.197-9.1378 21.336-12.155 13.938-14.51-6.5953-38.235-0.53838-48.231 1.9691-2.3144 4.9148-4.1141 9.0913-5.3389 51.4-9.3736 56.17-57.419 62.142-62.084m-485.47 20.999c37.194 11.637 45.488 61.74 51.377 95.972 0.66691 7.1558 2.5838 13.003 5.5622 17.657 17.87 27.927 63.261 26.299 97.798 17.666 9.9366-2.1528 21.563-1.139 33.645 1.8174 30.489 8.0016 66.583 31.59 83.511 52.53 10.157 12.564 16.044 26.002 16.249 36.703-1.352 15.033-14.419 28.552-39.521 34.569s-45.538-26.426-42.11-59.04c2.8776-26.116 19.886-50.575 57.192-58.991 44.032-9.6586 102.93-20.491 131.76-33.593 11.79-4.8256 20.138-8.8853 22.382-11.769 14.511-14.299-7.1921-38.415-1.0744-48.655 1.8422-2.2626 4.6611-4.0254 8.7288-5.2182 51.403-9.1777 53.372-59.574 58.49-63.573m-482.13 22.988c38.434 12.025 46.538 62.827 50.912 98.285 0.44464 7.4064 2.1556 13.482 4.9356 18.353 16.68 29.224 62.941 26.219 98.162 16.062 10.112-2.6368 21.99-1.9917 34.323 0.73579 31.069 7.3278 67.28 30.543 83.579 51.651 9.7796 12.664 15.109 26.459 14.645 37.834-1.9723 15.805-15.587 30.103-41.502 36.627s-46.873-26.718-43.365-60.238c2.887-26.52 20.126-51.737 58.339-60.464 44.937-10.033 105.23-21.526 135.6-34.136 12.363-4.6976 21.079-8.6328 23.428-11.383 15.085-14.088-7.7888-38.594-1.6104-49.08 1.7152-2.2107 4.4073-3.9366 8.3664-5.0975 51.406-8.9818 50.573-61.729 54.839-65.062m-478.8 24.977c39.674 12.413 47.587 63.915 50.446 100.6 0.22237 7.657 1.7273 13.961 4.309 19.048 15.49 30.521 62.62 26.14 98.526 14.458 10.288-3.1207 22.417-2.8445 35.002-0.34581 31.649 6.6539 67.977 29.496 83.648 50.771 9.4023 12.765 14.174 26.916 13.041 38.966-2.5926 16.577-16.755 31.654-43.484 38.684-26.728 7.0298-48.209-27.009-44.62-61.437 2.8965-26.924 20.367-52.899 59.485-61.938 45.842-10.407 107.54-22.561 139.44-34.678 12.936-4.5696 22.02-8.3804 24.473-10.998 15.658-13.877-8.3856-38.774-2.1464-49.504 1.5882-2.1588 4.1536-3.8479 8.0039-4.9769 51.41-8.7859 47.775-63.885 51.188-66.551m-475.46 26.966c40.914 12.801 48.637 65.002 49.981 102.91 1.05e-4 7.9076 1.299 14.44 3.6824 19.743 14.3 31.818 62.299 26.06 98.89 12.854 10.464-3.6046 22.845-3.6973 35.68-1.4274 32.23 5.98 68.674 28.449 83.716 49.891 9.025 12.866 13.238 27.372 11.438 40.097-3.213 17.349-17.923 33.206-45.465 40.742-27.542 7.5362-49.545-27.301-45.875-62.635 2.9059-27.329 20.607-54.06 60.631-63.411 46.748-10.781 109.84-23.597 143.29-35.22 13.509-4.4416 22.961-8.1279 25.519-10.612 16.232-13.665-8.9824-38.954-2.6824-49.928 1.4613-2.107 3.8999-3.7592 7.6415-4.8562 51.413-8.59 44.977-66.04 47.536-68.04m-472.13 28.955c42.154 13.189 49.687 66.09 49.515 105.22-0.22216 8.1581 0.87073 14.919 3.0558 20.439 13.111 33.115 61.978 25.981 99.253 11.25 10.639-4.0886 23.272-4.55 36.359-2.509 32.81 5.3061 69.371 27.402 83.784 49.012 8.6478 12.966 12.303 27.829 9.8343 41.228-3.8333 18.121-19.091 34.757-47.447 42.799-28.355 8.0426-50.881-27.593-47.13-63.834 2.9154-27.733 20.847-55.222 61.778-64.884 47.653-11.155 112.14-24.632 147.13-35.762 14.083-4.3136 23.902-7.8754 26.565-10.226 16.805-13.454-9.5791-39.134-3.2184-50.353 1.3343-2.0551 3.6462-3.6704 7.279-4.7355 51.416-8.3941 42.179-68.196 43.885-69.528m-468.79 30.944c43.393 13.577 50.736 67.178 49.05 107.54-0.44444 8.4087 0.44245 15.398 2.4292 21.134 11.921 34.412 61.657 25.901 99.617 9.6466 10.815-4.5725 23.7-5.4028 37.037-3.5906 33.39 4.6323 70.069 26.354 83.853 48.132 8.2705 13.067 11.368 28.286 8.2307 42.36-4.4537 18.893-20.26 36.308-49.428 44.857-29.168 8.5491-52.217-27.885-48.385-65.033 2.9248-28.137 21.088-56.383 62.924-66.358 48.559-11.53 114.44-25.667 150.98-36.305 14.656-4.1856 24.843-7.6229 27.611-9.8408 17.378-13.243-10.176-39.313-3.7544-50.777 1.2073-2.0032 3.3924-3.5817 6.9166-4.6149 51.419-8.1982 39.381-70.351 40.234-71.017m-465.46 32.933c44.633 13.965 51.786 68.265 48.584 109.85-0.6667 8.6593 0.01417 15.878 1.8027 21.829 10.731 35.71 61.336 25.822 99.981 8.0428 10.991-5.0564 24.127-6.2556 37.716-4.6722 33.971 3.9584 70.766 25.307 83.921 47.253 7.8933 13.167 10.433 28.743 6.6271 43.491-5.074 19.665-21.428 37.859-51.409 46.915-29.982 9.0555-53.553-28.177-49.64-66.231 2.9343-28.541 21.328-57.545 64.071-67.831 49.464-11.904 116.75-26.703 154.82-36.847 15.229-4.0576 25.784-7.3704 28.656-9.4552 17.952-13.032-10.773-39.493-4.2904-51.201 1.0804-1.9514 3.1387-3.4929 6.5541-4.4942 51.422-8.0023 36.582-72.506 36.582-72.506" fill="none" stroke="url(#linearGradient3595)" stroke-width=".34175px"/>
<path d="m486.18 80.841v253.87h-528.91l4e-6 -254.89 264.98 194.83z" fill="#1b1e20" stop-color="#000000" style="-inkscape-stroke:none;font-variation-settings:normal"/>
<g transform="matrix(1.8763 0 0 1.8763 -116.82 146.5)" opacity=".02" stroke-width=".6884">
<g transform="translate(0 77.637)" opacity=".075" stroke-width=".6884">
<path d="m-21.655-173.61 202.37 148.61 202.37-148.61v16.181l-202.37 148.61-202.37-148.61z" fill="url(#linearGradient21995)" stop-color="#000000" style="-inkscape-stroke:none;font-variation-settings:normal"/>
<path d="m-21.655-193.8 202.37 148.61 202.37-148.61v22.391l-202.37 148.61-202.37-148.61z" fill="url(#linearGradient21997)"/>
<path d="m-21.655-157.94 202.37 148.61 202.37-148.61v1.7412l-202.37 148.61-202.37-148.61z" fill="url(#linearGradient21999)" stop-color="#000000" style="-inkscape-stroke:none;font-variation-settings:normal;paint-order:stroke fill markers"/>
</g>
<path d="m-21.656-22.398v20.919l191.38 140.54 10.981 23.178 10.981-23.178 191.38-140.54v-20.919l-202.37 148.61z" fill="url(#linearGradient22001)" stop-color="#000000" style="-inkscape-stroke:none;font-variation-settings:normal"/>
<path d="m191.22 138.75-10.513 23.491 202.37-148.61v-15.771z" fill="url(#linearGradient22003)"/>
<path d="m-21.656-2.1353v15.771l202.37 148.61-10.513-23.491z" fill="url(#linearGradient22005)"/>
<path d="m-21.656-2.1353v1.3126l190.92 140.2 11.449 22.866 11.449-22.866 190.92-140.2v-1.3126l-191.85 140.89-10.513 21.102-10.513-21.102-191.54-140.66z" color="#000000" fill="url(#linearGradient22007)" stroke-linecap="square" stroke-width=".18214" style="-inkscape-stroke:none"/>
<path d="m-21.655-41.581 202.37 148.61 202.37-148.61v21.473l-202.37 148.61-202.37-148.61z" fill="url(#linearGradient22009)" stop-color="#000000" style="-inkscape-stroke:none;font-variation-settings:normal"/>
<path d="m-21.655-23.098 202.37 148.61 202.37-148.61v2.9889l-202.37 148.61-202.37-148.61z" fill="url(#linearGradient22011)" stop-color="#000000" style="-inkscape-stroke:none;font-variation-settings:normal;paint-order:stroke fill markers"/>
<path d="m-21.655-62.914 202.37 148.61 202.37-148.61v22.391l-202.37 148.61-202.37-148.61z" fill="url(#linearGradient22013)"/>
<path d="m-21.655-64.05 202.37 148.61 202.37-148.61v1.7412l-202.37 148.61-202.37-148.61z" fill="url(#linearGradient22015)" stop-color="#000000" style="-inkscape-stroke:none;font-variation-settings:normal;paint-order:stroke fill markers"/>
<path d="m191.22 138.75-10.513 23.491 202.37-148.61v-15.771z" fill="url(#linearGradient22017)"/>
<path d="m170.2 138.75 10.513 23.491-202.37-148.61-2e-6 -15.771z" fill="url(#linearGradient22019)"/>
</g>
<g transform="matrix(1.2916,0,0,1.2916,-11.164,165.67)" opacity=".02">
<path d="m-21.655-173.61 202.37 148.61 202.37-148.61v16.181l-202.37 148.61-202.37-148.61z" fill="url(#linearGradient21995)" stop-color="#000000" style="-inkscape-stroke:none;font-variation-settings:normal"/>
<path d="m-21.655-193.8 202.37 148.61 202.37-148.61v22.391l-202.37 148.61-202.37-148.61z" fill="url(#linearGradient21997)"/>
<path d="m-21.655-157.94 202.37 148.61 202.37-148.61v1.7412l-202.37 148.61-202.37-148.61z" fill="url(#linearGradient21999)" stop-color="#000000" style="-inkscape-stroke:none;font-variation-settings:normal;paint-order:stroke fill markers"/>
</g>
<path d="m235.83 244.61-13.579 30.342 261.38-191.95v-20.37z" fill="url(#linearGradient24593)"/>
<path d="m-39.135 62.636v20.37l261.38 191.95-13.579-30.342z" fill="url(#linearGradient78325)"/>
<path d="m-39.135 62.636v1.6954l246.6 181.09 14.789 29.534 14.789-29.534 246.6-181.09v-1.6954l-247.81 181.98-13.579 27.256-13.579-27.256-247.4-181.68z" color="#000000" fill="url(#linearGradient87990)" stroke-linecap="square" stroke-width=".34175" style="-inkscape-stroke:none"/>
<path d="m-39.135 11.685 261.38 191.95 261.38-191.95v27.735l-261.38 191.95-261.38-191.95z" fill="url(#linearGradient25753)" stop-color="#000000" style="-inkscape-stroke:none;font-variation-settings:normal"/>
<path d="m-39.135 35.56 261.38 191.95 261.38-191.95v3.8606l-261.38 191.95-261.38-191.95z" fill="url(#linearGradient25219)" stop-color="#000000" style="-inkscape-stroke:none;font-variation-settings:normal;paint-order:stroke fill markers"/>
<path d="m235.83 244.61-13.579 30.342 261.38-191.95v-20.37z" fill="url(#linearGradient14910)"/>
<path d="m208.67 244.61 13.579 30.342-261.38-191.95-2e-6 -20.37z" fill="url(#linearGradient15720)"/>
<path d="m132.4 190.3v4.0549l43.895 32.235v-4.0549zm0 6.1054v6.4104l43.895 32.235v-6.4104zm43.895 40.611-43.895-32.235v2.734l43.895 32.235z" fill="url(#linearGradient35006)"/>
<path d="m435.27 101.77v4.0549l-43.895 32.235v-4.0549zm0 6.1054v6.4104l-43.895 32.235v-6.4104zm-43.895 40.611 43.895-32.235v2.734l-43.895 32.235z" fill="url(#linearGradient35006-3)"/>
<path d="m222.25 205 261.61-191.23-0.22226-2.0813z" fill="#d0b2e4"/>
<path d="m222.25 205-261.61-191.23 0.22227-2.0813z" fill="#b2e3e4"/>
<path d="m-39.135-15.869 261.38 191.95 261.38-191.95v28.921l-261.38 191.95-261.38-191.95z" fill="url(#linearGradient26562)"/>
<g transform="matrix(1.0514 0 0 1.0522 46.167 79.518)" fill="none" stop-color="#000000" stroke="#235dc6" stroke-width=".64985" style="-inkscape-stroke:none;font-variation-settings:normal;paint-order:stroke fill markers">
<path d="m116.37 53.187v6.7346" stop-color="#000000" style="-inkscape-stroke:none;font-variation-settings:normal;paint-order:stroke fill markers"/>
<path d="m122.49 57.678v8.7187" stop-color="#000000" style="-inkscape-stroke:none;font-variation-settings:normal;paint-order:stroke fill markers"/>
<path d="m133.56 65.81v8.379" stop-color="#000000" style="-inkscape-stroke:none;font-variation-settings:normal;paint-order:stroke fill markers"/>
<path d="m128.48 62.077v4.1961" stop-color="#000000" style="-inkscape-stroke:none;font-variation-settings:normal;paint-order:stroke fill markers"/>
<circle cx="116.42" cy="61.028" r="1.21" stop-color="#000000" style="-inkscape-stroke:none;font-variation-settings:normal;paint-order:stroke fill markers"/>
<circle cx="122.45" cy="66.901" r=".64061" stop-color="#000000" style="-inkscape-stroke:none;font-variation-settings:normal;paint-order:stroke fill markers"/>
<circle cx="128.5" cy="67.357" r="1.21" stop-color="#000000" style="-inkscape-stroke:none;font-variation-settings:normal;paint-order:stroke fill markers"/>
<circle cx="133.55" cy="75.222" r="1.21" stop-color="#000000" style="-inkscape-stroke:none;font-variation-settings:normal;paint-order:stroke fill markers"/>
</g>
<path d="m25.179 39.911v20.37l11.248 8.26v-20.37zm14.575 10.703v20.37l22.625 16.615v-20.371zm29.528 21.684 0.18889 20.509 14.191 10.421 0.02471-20.352zm19.622 14.41-0.26566 20.175 4.2839 3.1458v-20.371z" fill="url(#linearGradient34063)" stop-color="#000000" style="-inkscape-stroke:none;font-variation-settings:normal"/>
<path d="m307.56 200.03v9.4341l-11.248 8.26v-9.4341zm-14.575 10.703v9.4341l-22.625 16.615v-9.4348zm-29.528 21.684-0.18889 9.5729-14.191 10.421-0.0247-9.4161zm-19.622 14.41 0.26566 9.2392-4.2839 3.1458v-9.4348z" fill="url(#linearGradient53858)" stop-color="#000000" style="-inkscape-stroke:none;font-variation-settings:normal"/>
<g transform="matrix(1.2916,0,0,1.2916,-11.164,95.189)" opacity=".02">
<path d="m-21.655-173.61 202.37 148.61 202.37-148.61v16.181l-202.37 148.61-202.37-148.61z" fill="url(#linearGradient21995)" stop-color="#000000" style="-inkscape-stroke:none;font-variation-settings:normal"/>
<path d="m-21.655-193.8 202.37 148.61 202.37-148.61v22.391l-202.37 148.61-202.37-148.61z" fill="url(#linearGradient21997)"/>
<path d="m-21.655-157.94 202.37 148.61 202.37-148.61v1.7412l-202.37 148.61-202.37-148.61z" fill="url(#linearGradient21999)" stop-color="#000000" style="-inkscape-stroke:none;font-variation-settings:normal;paint-order:stroke fill markers"/>
</g>
<path d="m119.37 104.3v22.484l32.405 23.797v-22.485z" fill="#7777e1" fill-opacity=".095564"/>
<path d="m142.31 153.35v9.5229l79.936 58.91v-9.5229zm0 11.573v3.6765l79.936 58.91v-3.6765z" fill="url(#linearGradient35392)"/>
<path d="m-11.209 91.326v5.494l42.369 31.114v-5.4946z" fill="url(#linearGradient37083)"/>
<path d="m102.83 102.2v13.462l103.82 76.241v-13.464z" fill="url(#linearGradient37280)"/>
<path d="m20.706 113.09v13.462l28.822 21.166v-4.5776zm34.298 34.072v4.5776l11.276 8.2807v-4.5776zm14.004 10.284v4.5776l11.842 8.6965v-4.5782zm20.147 14.795v4.5776l14.907 10.947v-4.5782zm19.327 14.193v4.5782l9.1551 6.7228v-4.5782zm12.796 9.3961v4.5782l3.2473 2.3849v-4.5782z" fill="url(#linearGradient37849)"/>
<g transform="matrix(1.0514 0 0 1.0522 79.267 104.34)" fill="none" stroke="#235dc6" stroke-width=".64985">
<path d="m116.37 53.187v6.7346" stop-color="#000000" style="font-variation-settings:normal"/>
<path d="m122.49 57.678v8.7187"/>
<path d="m128.48 62.077v4.1961"/>
<circle cx="116.42" cy="61.028" r="1.21" stop-color="#000000" style="font-variation-settings:normal;paint-order:stroke fill markers"/>
<circle cx="122.45" cy="66.901" r=".64061" stop-color="#000000" style="font-variation-settings:normal;paint-order:stroke fill markers"/>
<circle cx="128.5" cy="67.357" r="1.21" stop-color="#000000" style="font-variation-settings:normal;paint-order:stroke fill markers"/>
<path d="m110.31 48.673v8.379"/>
<circle cx="110.3" cy="58.084" r="1.21" stop-color="#000000" style="font-variation-settings:normal;paint-order:stroke fill markers"/>
</g>
<path d="m-39.135-17.336 261.38 191.95 261.38-191.95v2.249l-261.38 191.95-261.38-191.95z" fill="url(#linearGradient69576)" stop-color="#000000" style="-inkscape-stroke:none;font-variation-settings:normal;paint-order:stroke fill markers"/>
<path d="m307.96 130.78v20.37l-11.248 8.26v-20.37zm-14.575 10.703v20.37l-22.625 16.615v-20.371zm-29.528 21.684-0.18889 20.509-14.191 10.421-0.0247-20.352zm-19.622 14.41 0.26567 20.175-4.2839 3.1458v-20.371z" fill="url(#linearGradient53643)" stop-color="#000000" style="-inkscape-stroke:none;font-variation-settings:normal"/>
<path d="m420.79 26.458v13.462l-28.822 21.166v-4.5776zm-34.298 34.072v4.5775l-11.276 8.2807v-4.5775zm-14.004 10.284v4.5775l-11.842 8.6965v-4.5782zm-20.147 14.795v4.5776l-14.907 10.947v-4.5782zm-19.327 14.193v4.5782l-9.1551 6.7228v-4.5782zm-12.796 9.3961v4.5782l-3.2473 2.3849v-4.5782z" fill="url(#linearGradient53697)"/>
<path d="m398.42 64.173v13.462l-103.82 76.241v-13.464z" fill="url(#linearGradient53804)"/>
<path d="m302.19 153.35v9.5229l-79.936 58.91v-9.5229zm0 11.573v3.6765l-79.936 58.91v-3.6765z" fill="url(#linearGradient5163)"/>
</svg>
