<?xml version="1.0" encoding="UTF-8"?>
<!-- Created with Inkscape (http://www.inkscape.org/) -->
<svg width="1680" height="1050" version="1.1" viewBox="0 0 444.5 277.81" xmlns="http://www.w3.org/2000/svg" xmlns:xlink="http://www.w3.org/1999/xlink">
 <defs>
  <linearGradient id="linearGradient16905">
   <stop stop-color="#1b668f" offset="0"/>
   <stop stop-color="#121c94" offset=".5"/>
   <stop stop-color="#382279" offset="1"/>
  </linearGradient>
  <linearGradient id="linearGradient78639">
   <stop stop-color="#2936ea" offset="0"/>
   <stop stop-color="#164593" offset="1"/>
  </linearGradient>
  <linearGradient id="linearGradient75480" x1="-21.655" x2="1378.4" y1="110.14" y2="110.14" gradientTransform="matrix(.32723 0 0 .32723 -1.2481 35.318)" gradientUnits="userSpaceOnUse" xlink:href="#linearGradient16905"/>
  <linearGradient id="linearGradient3595" x1="-21.656" x2="383.08" y1="81.035" y2="81.035" gradientTransform="matrix(1.2368 0 0 1.2368 -1.2481 21.745)" gradientUnits="userSpaceOnUse">
   <stop stop-color="#51d677" stop-opacity=".47843" offset="0"/>
   <stop stop-color="#eded84" stop-opacity=".32941" offset=".26488"/>
   <stop stop-color="#a9ebf6" stop-opacity=".19951" offset=".49538"/>
   <stop stop-color="#e9bf9d" stop-opacity=".35686" offset=".74191"/>
   <stop stop-color="#5138aa" stop-opacity=".52157" offset="1"/>
  </linearGradient>
  <linearGradient id="linearGradient21995" x1="-21.655" x2="383.08" y1="92.147" y2="92.147" gradientTransform="translate(0 -155.84)" gradientUnits="userSpaceOnUse">
   <stop stop-color="#445feb" offset="0"/>
   <stop stop-color="#252fb5" offset=".5"/>
   <stop stop-color="#9b53c1" offset="1"/>
  </linearGradient>
  <linearGradient id="linearGradient21997" x1="-21.655" x2="383.08" y1="99.556" y2="99.556" gradientTransform="translate(0 -189.92)" gradientUnits="userSpaceOnUse">
   <stop stop-color="#3410ab" stop-opacity=".67526" offset="0"/>
   <stop stop-color="#169bd6" offset=".5"/>
   <stop stop-color="#0940a2" stop-opacity=".56984" offset="1"/>
  </linearGradient>
  <linearGradient id="linearGradient21999" x1="-24.528" x2="386.16" y1="-24.045" y2="-24.045" gradientTransform="translate(0 -138.44)" gradientUnits="userSpaceOnUse">
   <stop stop-color="#6a5e19" offset="0"/>
   <stop stop-color="#85751e" stop-opacity=".98824" offset=".14669"/>
   <stop stop-color="#8c7b20" stop-opacity=".96863" offset=".30531"/>
   <stop stop-color="#bda62c" stop-opacity=".95686" offset=".51079"/>
   <stop stop-color="#82721e" stop-opacity=".94902" offset=".6231"/>
   <stop stop-color="#968623" stop-opacity=".99608" offset=".83541"/>
   <stop stop-color="#4e4412" stop-opacity=".92157" offset="1"/>
  </linearGradient>
  <linearGradient id="linearGradient22001" x1="-21.655" x2="1378.4" y1="110.14" y2="110.14" gradientTransform="matrix(.26458 0 0 .26458 0 -4.9003)" gradientUnits="userSpaceOnUse" xlink:href="#linearGradient16905"/>
  <linearGradient id="linearGradient22003" x1="181.04" x2="361.42" y1="110.14" y2="110.14" gradientTransform="translate(0 -18.521)" gradientUnits="userSpaceOnUse" xlink:href="#linearGradient78639"/>
  <linearGradient id="linearGradient22005" x1="-21.655" x2="183.99" y1="110.14" y2="110.14" gradientTransform="translate(0 -18.521)" gradientUnits="userSpaceOnUse">
   <stop stop-color="#2f38a6" offset="0"/>
   <stop stop-color="#3d33eb" offset="1"/>
  </linearGradient>
  <linearGradient id="linearGradient22007" x1="-82.44" x2="1448.4" y1="345.52" y2="345.52" gradientTransform="scale(.26458)" gradientUnits="userSpaceOnUse" xlink:href="#linearGradient1294"/>
  <linearGradient id="linearGradient1294">
   <stop stop-color="#6a5e19" offset="0"/>
   <stop stop-color="#d1b832" stop-opacity=".98824" offset=".14669"/>
   <stop stop-color="#8c7b20" stop-opacity=".96863" offset=".30531"/>
   <stop stop-color="#dbc865" stop-opacity=".95686" offset=".51079"/>
   <stop stop-color="#82721e" stop-opacity=".94902" offset=".6231"/>
   <stop stop-color="#968623" stop-opacity=".99608" offset=".83541"/>
   <stop stop-color="#cfb530" stop-opacity=".92157" offset="1"/>
  </linearGradient>
  <linearGradient id="linearGradient22009" x1="-21.655" x2="383.08" y1="92.147" y2="92.147" gradientTransform="translate(0 -18.521)" gradientUnits="userSpaceOnUse">
   <stop stop-color="#445feb" offset="0"/>
   <stop stop-color="#4a55ed" offset=".5"/>
   <stop stop-color="#9b53c1" offset="1"/>
  </linearGradient>
  <linearGradient id="linearGradient22011" x1="-24.528" x2="386.16" y1="-24.045" y2="-24.045" gradientTransform="translate(0 -2.3527)" gradientUnits="userSpaceOnUse" xlink:href="#linearGradient1056"/>
  <linearGradient id="linearGradient1056">
   <stop stop-color="#6a5e19" offset="0"/>
   <stop stop-color="#85751e" stop-opacity=".98824" offset=".14669"/>
   <stop stop-color="#a38f26" stop-opacity=".96863" offset=".30531"/>
   <stop stop-color="#f5d737" stop-opacity=".95686" offset=".51079"/>
   <stop stop-color="#968623" stop-opacity=".99608" offset=".83541"/>
   <stop stop-color="#4e4412" stop-opacity=".92157" offset="1"/>
  </linearGradient>
  <linearGradient id="linearGradient22013" x1="-21.655" x2="383.08" y1="99.556" y2="99.556" gradientTransform="translate(0 -59.037)" gradientUnits="userSpaceOnUse">
   <stop stop-color="#3410ab" stop-opacity=".67526" offset="0"/>
   <stop stop-color="#2936e9" offset=".5"/>
   <stop stop-color="#0940a2" stop-opacity=".56984" offset="1"/>
  </linearGradient>
  <linearGradient id="linearGradient22015" x1="-24.528" x2="386.16" y1="-24.045" y2="-24.045" gradientTransform="translate(0 -44.553)" gradientUnits="userSpaceOnUse" xlink:href="#linearGradient17531"/>
  <linearGradient id="linearGradient17531">
   <stop stop-color="#6a5e19" offset="0"/>
   <stop stop-color="#85751e" stop-opacity=".98824" offset=".14669"/>
   <stop stop-color="#8c7b20" stop-opacity=".96863" offset=".30531"/>
   <stop stop-color="#d1b637" stop-opacity=".95686" offset=".51079"/>
   <stop stop-color="#82721e" stop-opacity=".94902" offset=".6231"/>
   <stop stop-color="#968623" stop-opacity=".99608" offset=".83541"/>
   <stop stop-color="#4e4412" stop-opacity=".92157" offset="1"/>
  </linearGradient>
  <linearGradient id="linearGradient22017" x1="253.56" x2="239.42" y1="147.01" y2="130.45" gradientTransform="translate(0 -18.521)" gradientUnits="userSpaceOnUse">
   <stop stop-color="#28ead8" stop-opacity=".58819" offset="0"/>
   <stop stop-color="#164593" stop-opacity=".023098" offset="1"/>
  </linearGradient>
  <linearGradient id="linearGradient22019" x1="251.13" x2="241.25" y1="138.13" y2="126.04" gradientTransform="matrix(-1 0 0 1 361.42 -18.521)" gradientUnits="userSpaceOnUse">
   <stop stop-color="#dc29ea" stop-opacity=".68736" offset="0"/>
   <stop stop-color="#164593" stop-opacity=".023098" offset="1"/>
  </linearGradient>
  <linearGradient id="linearGradient24593" x1="181.04" x2="361.42" y1="110.14" y2="110.14" gradientTransform="matrix(1.2368 0 0 1.2368 -1.2481 18.472)" gradientUnits="userSpaceOnUse" xlink:href="#linearGradient78639"/>
  <linearGradient id="linearGradient78325" x1="-21.655" x2="183.99" y1="110.14" y2="110.14" gradientTransform="matrix(1.2368 0 0 1.2368 -1.2481 18.472)" gradientUnits="userSpaceOnUse">
   <stop stop-color="#2e3476" offset="0"/>
   <stop stop-color="#3d33eb" offset="1"/>
  </linearGradient>
  <linearGradient id="linearGradient87990" x1="-82.44" x2="1448.4" y1="345.52" y2="345.52" gradientTransform="matrix(.32723 0 0 .32723 -1.2481 41.379)" gradientUnits="userSpaceOnUse" xlink:href="#linearGradient1294"/>
  <linearGradient id="linearGradient25753" x1="-21.655" x2="383.08" y1="92.147" y2="92.147" gradientTransform="matrix(1.2368 0 0 1.2368 -1.2481 18.472)" gradientUnits="userSpaceOnUse">
   <stop stop-color="#4465eb" offset="0"/>
   <stop stop-color="#46a7e1" offset=".5"/>
   <stop stop-color="#6b50c1" offset="1"/>
  </linearGradient>
  <linearGradient id="linearGradient25219" x1="-24.528" x2="386.16" y1="-24.045" y2="-24.045" gradientTransform="matrix(1.2368 0 0 1.2368 -1.2481 38.469)" gradientUnits="userSpaceOnUse" xlink:href="#linearGradient1056"/>
  <linearGradient id="linearGradient14910" x1="253.56" x2="239.42" y1="147.01" y2="130.45" gradientTransform="matrix(1.2368 0 0 1.2368 -1.2481 18.472)" gradientUnits="userSpaceOnUse">
   <stop stop-color="#e06fea" stop-opacity=".39011" offset="0"/>
   <stop stop-color="#164593" stop-opacity=".023098" offset="1"/>
  </linearGradient>
  <linearGradient id="linearGradient15720" x1="251.13" x2="241.25" y1="138.13" y2="126.04" gradientTransform="matrix(-1.2368 0 0 1.2368 445.75 18.472)" gradientUnits="userSpaceOnUse">
   <stop stop-color="#dc29ea" stop-opacity=".18321" offset="0"/>
   <stop stop-color="#164593" stop-opacity=".023098" offset="1"/>
  </linearGradient>
  <linearGradient id="linearGradient35006" x1="542.26" x2="409.86" y1="531.52" y2="437.69" gradientTransform="matrix(.32723 0 0 .32723 -1.2481 21.745)" gradientUnits="userSpaceOnUse">
   <stop stop-color="#9e80dc" stop-opacity=".08" offset="0"/>
   <stop stop-color="#9e80dc" stop-opacity="0" offset="1"/>
  </linearGradient>
  <linearGradient id="linearGradient35006-3" x1="542.26" x2="409.86" y1="531.52" y2="437.69" gradientTransform="matrix(-.32723 0 0 .32723 563.69 -63.025)" gradientUnits="userSpaceOnUse">
   <stop stop-color="#9e80dc" stop-opacity=".12323" offset="0"/>
   <stop stop-color="#9e80dc" stop-opacity="0" offset="1"/>
  </linearGradient>
  <linearGradient id="linearGradient26562" x1="-21.655" x2="383.08" y1="99.556" y2="99.556" gradientTransform="matrix(1.2368 0 0 1.2368 -1.2481 -31.637)" gradientUnits="userSpaceOnUse">
   <stop stop-color="#0031b6" offset="0"/>
   <stop stop-color="#255cc7" offset=".5"/>
   <stop stop-color="#3d3dd3" offset="1"/>
  </linearGradient>
  <linearGradient id="linearGradient34063" x1="79.735" x2="21.187" y1="42.158" y2="1.0037" gradientTransform="matrix(1.2368 0 0 1.2368 -1.2481 21.745)" gradientUnits="userSpaceOnUse">
   <stop stop-color="#9e7fdc" stop-opacity=".1" offset="0"/>
   <stop stop-color="#9e7fdc" stop-opacity="0" offset="1"/>
  </linearGradient>
  <linearGradient id="linearGradient53858" x1="79.735" x2="21.187" y1="42.158" y2="1.0037" gradientTransform="matrix(-1.2368 0 0 1.2368 338.74 164.59)" gradientUnits="userSpaceOnUse">
   <stop stop-color="#7fdcdb" stop-opacity=".07" offset="0"/>
   <stop stop-color="#9e7fdc" stop-opacity="0" offset="1"/>
  </linearGradient>
  <linearGradient id="linearGradient35392" x1="654.09" x2="409.86" y1="615.36" y2="437.69" gradientTransform="matrix(.32723 0 0 .32723 8.2415 -13.638)" gradientUnits="userSpaceOnUse">
   <stop stop-color="#b1cdef" stop-opacity=".26275" offset="0"/>
   <stop stop-color="#9e80dc" stop-opacity="0" offset="1"/>
  </linearGradient>
  <linearGradient id="linearGradient37083" x1="32.688" x2="-4.3074" y1="61.359" y2="35.59" gradientTransform="matrix(1.2368 0 0 1.2368 -1.2481 21.745)" gradientUnits="userSpaceOnUse">
   <stop stop-color="#a9e3ed" stop-opacity=".05" offset="0"/>
   <stop stop-color="#a9e3ed" stop-opacity="0" offset="1"/>
  </linearGradient>
  <linearGradient id="linearGradient37280" x1="32.688" x2="-4.3074" y1="61.359" y2="35.59" gradientTransform="matrix(3.0305 0 0 3.0305 108.01 -32.335)" gradientUnits="userSpaceOnUse">
   <stop stop-color="#60cbde" stop-opacity=".059582" offset="0"/>
   <stop stop-color="#a9e3ed" stop-opacity="0" offset="1"/>
  </linearGradient>
  <linearGradient id="linearGradient37849" x1="32.688" x2="-4.3074" y1="61.359" y2="35.59" gradientTransform="matrix(3.0305 0 0 3.0305 29.374 -21.902)" gradientUnits="userSpaceOnUse">
   <stop stop-color="#84b0b8" stop-opacity=".05" offset="0"/>
   <stop stop-color="#a9e3ed" stop-opacity="0" offset="1"/>
  </linearGradient>
  <linearGradient id="linearGradient69576" x1="-24.528" x2="386.16" y1="-24.045" y2="-24.045" gradientTransform="matrix(1.2368 0 0 1.2368 -1.2481 -13.723)" gradientUnits="userSpaceOnUse" xlink:href="#linearGradient17531"/>
  <linearGradient id="linearGradient53643" x1="79.735" x2="21.187" y1="42.158" y2="1.0037" gradientTransform="matrix(-1.2368 0 0 1.2368 339.12 108.76)" gradientUnits="userSpaceOnUse">
   <stop stop-color="#dc7fdc" stop-opacity=".08" offset="0"/>
   <stop stop-color="#9e7fdc" stop-opacity="0" offset="1"/>
  </linearGradient>
  <linearGradient id="linearGradient53697" x1="32.688" x2="-4.3074" y1="61.359" y2="35.59" gradientTransform="matrix(-3.0305 0 0 3.0305 412.25 -104.86)" gradientUnits="userSpaceOnUse">
   <stop stop-color="#a9e3ed" stop-opacity=".06" offset="0"/>
   <stop stop-color="#a9e3ed" stop-opacity="0" offset="1"/>
  </linearGradient>
  <linearGradient id="linearGradient53804" x1="32.688" x2="-4.3074" y1="61.359" y2="35.59" gradientTransform="matrix(-3.0305 0 0 3.0305 390.83 -68.744)" gradientUnits="userSpaceOnUse">
   <stop stop-color="#dd83f2" stop-opacity=".12549" offset="0"/>
   <stop stop-color="#a9e3ed" stop-opacity="0" offset="1"/>
  </linearGradient>
  <linearGradient id="linearGradient5163" x1="654.09" x2="409.86" y1="615.36" y2="437.69" gradientTransform="matrix(-.32723 0 0 .32723 436.26 -13.638)" gradientUnits="userSpaceOnUse">
   <stop stop-color="#b1cdef" stop-opacity=".14678" offset="0"/>
   <stop stop-color="#9e80dc" stop-opacity="0" offset="1"/>
  </linearGradient>
 </defs>
 <rect width="444.5" height="277.81" fill="#1b1e20" stop-color="#000000" style="-inkscape-stroke:none;font-variation-settings:normal;paint-order:stroke fill markers"/>
 <path d="m-28.031 13.677v25.872l236.7 173.82 13.581 28.666 13.581-28.666 236.7-173.82v-25.872l-250.28 183.79z" fill="url(#linearGradient75480)" stop-color="#000000" style="-inkscape-stroke:none;font-variation-settings:normal"/>
 <path d="m-52.394 41.337s13.403 27.876 62.567 25.449c7.0234-0.34667 14.777-1.3118 23.325-3.0649 51.289-10.519 69.794 27.466 83.195 62.985 4.4671 11.84 8.3673 23.406 12.726 32.81 12.522 27.019 43.728 60.328 77.998 75.564 20.562 9.1415 42.228 11.777 61.622 2.6426 16.525-7.7824 19.747-17.219 19.078-26.005s-5.2299-16.921-4.2696-22.1c2.484-13.396 12.138-15.06 21.83-14.159 16.152 1.5003 32.408 10.121 15.741-16.589-5.177-8.297-7.7482-15.761-8.6071-22.346-2.5768-19.758 10.256-31.619 14.368-34.397 5.411-3.6564 11.751-6.4035 18.77-8.4629 49.129-14.415 131.48 4.8715 160.89-18.102m-557.46-35.12c1.1871 0.37143 14.408 28.917 62.121 27.664 6.8106-0.10672 14.367-0.85302 22.725-2.3992 50.15-9.2768 69.487 27.39 83.544 61.45 4.6354 11.376 8.7766 22.589 13.375 31.774 13.078 26.374 44.395 59.326 78.064 74.722 20.201 9.2378 41.332 12.214 60.087 3.7259 15.931-7.0432 18.628-15.734 17.18-24.035s-6.509-17.2-5.4713-23.248c2.493-13.783 12.368-16.172 22.927-15.57 17.019 1.142 34.613 9.1299 19.422-17.109-4.6282-8.1745-6.8471-15.519-7.6058-21.977-2.0278-19.556 9.6846-31.791 13.855-34.804 5.2895-3.6067 11.508-6.3185 18.423-8.3473 49.132-14.228 128.8 2.8076 157.4-19.528m-554.27-33.215c2.3743 0.74286 15.413 29.959 61.675 29.879 6.5978 0.13322 13.956-0.39428 22.125-1.7334 49.011-8.0348 69.179 27.314 83.892 59.914 4.8036 10.913 9.1859 21.773 14.025 30.738 13.633 25.729 45.063 58.323 78.129 73.88 19.84 9.3341 40.437 12.651 58.552 4.8093 15.337-6.304 17.51-14.249 15.283-22.065-2.227-7.8161-7.7881-17.48-6.673-24.396 2.502-14.17 12.598-17.284 24.025-16.981 17.886 0.78374 36.818 8.1386 23.102-17.628-4.0793-8.052-5.9461-15.277-6.6045-21.608-1.4787-19.354 9.1132-31.963 13.342-35.21 5.1679-3.5571 11.266-6.2336 18.076-8.2318 49.135-14.04 126.13 0.74382 153.9-20.953m-551.07-31.311c3.5614 1.1143 16.418 31 61.23 32.094 6.3849 0.37317 13.546 0.06447 21.525-1.0677 47.871-6.7928 68.872 27.238 84.24 58.378 4.9719 10.45 9.5952 20.956 14.675 29.703 14.189 25.083 45.73 57.32 78.195 73.038 19.478 9.4304 39.541 13.089 57.016 5.8926 14.743-5.5648 16.392-12.763 13.386-20.095-3.0059-7.3312-9.0672-17.759-7.8747-25.543 2.5111-14.557 12.829-18.396 25.123-18.392 18.753 0.42545 39.023 7.1472 26.783-18.147-3.5304-7.9294-5.045-15.035-5.6033-21.239-0.92966-19.151 8.5417-32.135 12.829-35.617 5.0463-3.5074 11.023-6.1486 17.729-8.1162 49.138-13.853 123.45-1.32 150.4-22.379m-547.88-29.407c4.7486 1.4857 17.423 32.041 60.784 34.309 6.1721 0.61312 13.136 0.52321 20.925-0.40193 46.732-5.5508 68.565 27.162 84.589 56.843 5.1401 9.9863 10.004 20.139 15.324 28.667 14.745 24.438 46.398 56.318 78.26 72.195 19.117 9.5266 38.646 13.526 55.481 6.976 14.149-4.8256 15.273-11.278 11.488-18.124s-10.346-18.039-9.0765-26.691c2.5201-14.944 13.059-19.509 26.221-19.803 19.62 0.0672 41.228 6.1558 30.464-18.666-2.9816-7.8068-4.144-14.793-4.602-20.87-0.38061-18.949 7.9703-32.307 12.315-36.023 4.9248-3.4577 10.78-6.0636 17.382-8.0007 49.141-13.665 120.77-3.3838 146.91-23.805m-544.69-27.502c5.9357 1.8572 18.428 33.083 60.338 36.523 5.9593 0.85307 12.726 0.98196 20.325 0.26381 45.593-4.3089 68.257 27.085 84.937 55.307 5.3084 9.5229 10.414 19.323 15.974 27.631 15.301 23.793 47.066 55.315 78.326 71.353 18.756 9.6229 37.75 13.963 53.945 8.0594 13.555-4.0864 14.155-9.7929 9.591-16.154-4.5636-6.3614-11.625-18.318-10.278-27.839 2.5292-15.331 13.289-20.621 27.319-21.214 20.487-0.29113 43.433 5.1644 34.144-19.186-2.4327-7.6843-3.243-14.552-3.6007-20.5 0.16845-18.747 7.3989-32.479 11.802-36.429 4.8032-3.4081 10.537-5.9787 17.035-7.8851 49.144-13.477 118.09-5.4477 143.41-25.23m-541.49-25.598c7.1229 2.2286 19.434 34.124 59.892 38.738 5.7464 1.093 12.316 1.4407 19.725 0.92955 44.454-3.0669 67.95 27.009 85.285 53.771 5.4766 9.0596 10.823 18.506 16.624 26.596 15.856 23.148 47.733 54.312 78.391 70.511 18.395 9.7192 36.855 14.401 52.41 9.1428 12.961-3.3472 13.036-8.3076 7.6937-14.184-5.3425-5.8765-12.905-18.598-11.48-28.986 2.5382-15.718 13.519-21.733 28.416-22.625 21.354-0.64941 45.638 4.173 37.825-19.705-1.8838-7.5618-2.342-14.31-2.5994-20.131 0.71751-18.545 6.8275-32.651 11.289-36.836 4.6816-3.3584 10.294-5.8937 16.687-7.7696 49.147-13.29 115.41-7.5115 139.91-26.656m-538.3-23.693c8.31 2.6 20.439 35.165 59.447 40.953 5.5336 1.333 11.906 1.8994 19.125 1.5953 43.314-1.8249 67.643 26.933 85.633 52.236 5.6449 8.5962 11.232 17.69 17.273 25.56 16.412 22.502 48.401 53.31 78.457 69.669 18.034 9.8155 35.959 14.838 50.874 10.226 12.367-2.6079 11.918-6.8223 5.7964-12.214-6.1213-5.3916-14.184-18.877-12.682-30.134 2.5473-16.105 13.749-22.845 29.514-24.035 22.221-1.0077 47.843 3.1816 41.505-20.224-1.335-7.4392-1.4409-14.068-1.5981-19.762 1.2666-18.342 6.2561-32.824 10.776-37.242 4.56-3.3087 10.051-5.8087 16.34-7.654 49.15-13.102 112.73-9.5753 136.42-28.082m-535.11-21.789c9.4971 2.9715 21.444 36.207 59.001 43.168 5.3208 1.5729 11.496 2.3582 18.525 2.261 42.175-0.58292 67.335 26.857 85.982 50.7 5.8131 8.1328 11.642 16.873 17.923 24.525 16.968 21.857 49.068 52.307 78.522 68.827 17.672 9.9118 35.064 15.275 49.339 11.31 11.773-1.8687 10.799-5.337 3.8991-10.244s-15.463-19.156-13.883-31.282c2.5563-16.492 13.979-23.958 30.612-25.446 23.088-1.366 50.048 2.1902 45.186-20.743-0.78611-7.3166-0.53988-13.826-0.59687-19.392 1.8156-18.14 5.6846-32.996 10.262-37.648 4.4385-3.2591 9.8078-5.7237 15.993-7.5385 49.153-12.915 110.05-11.639 132.92-29.507m-531.91-19.885c10.684 3.3429 22.449 37.248 58.555 45.383 5.108 1.8129 11.086 2.8169 17.925 2.9268 41.036 0.65906 67.028 26.781 86.33 49.164 5.9814 7.6694 12.051 16.057 18.573 23.489 17.523 21.212 49.736 51.304 78.588 67.985 17.311 10.008 34.168 15.713 47.803 12.393 11.179-1.1295 9.6808-3.8517 2.0018-8.2735s-16.742-19.436-15.085-32.43c2.5654-16.879 14.209-25.07 31.71-26.857 23.955-1.7243 52.253 1.1989 48.867-21.262-0.23724-7.1941 0.36115-13.585 0.40441-19.023 2.3647-17.938 5.1132-33.168 9.7492-38.055 4.3169-3.2094 9.5649-5.6388 15.646-7.423 49.156-12.727 107.37-13.703 129.43-30.933m-528.72-17.98c11.871 3.7143 23.454 38.29 58.11 47.598 4.8951 2.0528 10.676 3.2757 17.325 3.5925 39.896 1.901 66.721 26.705 86.678 47.629 6.1496 7.206 12.46 15.24 19.222 22.453 18.079 20.567 50.403 50.302 78.653 67.142 16.95 10.104 33.273 16.15 46.268 13.476 10.585-0.39028 8.5624-2.3664 0.10448-6.3033-8.4579-3.9368-18.021-19.715-16.287-33.577 2.5744-17.266 14.439-26.182 32.807-28.268 24.822-2.0826 54.458 0.20748 52.547-21.782 0.31163-7.0716 1.2622-13.343 1.4057-18.654 2.9137-17.736 4.5418-33.34 9.2359-38.461 4.1953-3.1597 9.3219-5.5538 15.299-7.3074 49.159-12.539 104.69-15.767 125.93-32.359m-525.52-16.076c13.059 4.0857 24.459 39.331 57.664 49.813 4.6823 2.2928 10.266 3.7344 16.725 4.2583 38.757 3.143 66.413 26.628 87.027 46.093 6.3178 6.7427 12.87 14.424 19.872 21.418 18.635 19.921 51.071 49.299 78.719 66.3 16.589 10.201 32.377 16.588 44.732 14.56 9.9912 0.34893 7.444-0.88116-1.7928-4.3331-9.2368-3.4519-19.3-19.995-17.489-34.725 2.5835-17.654 14.669-27.294 33.905-29.679 25.689-2.4408 56.663-0.7839 56.228-22.301 0.86049-6.949 2.1632-13.101 2.407-18.285 3.4628-17.534 3.9704-33.512 8.7227-38.867 4.0738-3.1101 9.079-5.4688 14.952-7.1919 49.162-12.352 102.01-17.831 122.43-33.784m-522.33-14.172c14.246 4.4572 25.464 40.372 57.218 52.027 4.4695 2.5327 9.8556 4.1932 16.125 4.924 37.618 4.385 66.106 26.552 87.375 44.557 6.4861 6.2793 13.279 13.607 20.522 20.382 19.191 19.276 51.738 48.296 78.784 65.458 16.227 10.297 31.482 17.025 43.197 15.643 9.3972 1.0881 6.3255 0.60412-3.6901-2.3629-10.016-2.967-20.579-20.274-18.69-35.873 2.5925-18.04 14.9-28.407 35.003-31.09 26.556-2.7991 58.868-1.7753 59.908-22.82 1.4094-6.8264 3.0643-12.859 3.4082-17.916 4.0119-17.331 3.399-33.684 8.2095-39.274 3.9522-3.0604 8.836-5.3839 14.605-7.0763 49.165-12.164 99.332-19.894 118.94-35.21m-519.14-12.267c15.433 4.8286 26.469 41.414 56.772 54.242 4.2566 2.7727 9.4455 4.6519 15.525 5.5897 36.479 5.627 65.799 26.476 87.723 43.022 6.6543 5.8159 13.688 12.791 21.171 19.346 19.746 18.631 52.406 47.294 78.85 64.616 15.866 10.393 30.586 17.462 41.661 16.726 8.8032 1.8274 5.207 2.0894-5.5874-0.39272-10.794-2.4821-21.858-20.553-19.892-37.02 2.6016-18.428 15.13-29.519 36.101-32.5 27.423-3.1574 61.073-2.7667 63.589-23.339 1.9582-6.7039 3.9653-12.618 4.4095-17.546 4.5609-17.129 2.8276-33.856 7.6962-39.68 3.8306-3.0108 8.5931-5.2989 14.258-6.9608 49.168-11.977 96.653-21.958 115.44-36.636m-515.94-10.363c16.62 5.2 27.474 42.455 56.327 56.457 4.0438 3.0126 9.0354 5.1107 14.925 6.2555 35.339 6.869 65.491 26.4 88.071 41.486 6.8226 5.3526 14.098 11.974 21.821 18.311 20.302 17.986 53.073 46.291 78.915 63.774 15.505 10.49 29.691 17.9 40.126 17.81 8.2093 2.5666 4.0886 3.5747-7.4848 1.5775-11.573-1.9972-23.137-20.833-21.094-38.168 2.6106-18.815 15.36-30.631 37.198-33.911 28.29-3.5157 63.278-3.758 67.27-23.859 2.5071-6.5814 4.8663-12.376 5.4108-17.177 5.11-16.927 2.2561-34.029 7.183-40.086 3.709-2.9611 8.3502-5.2139 13.911-6.8452 49.171-11.789 93.973-24.022 111.95-38.061m-512.75-8.4584c17.807 5.5715 28.479 43.496 55.881 58.672 3.831 3.2526 8.6254 5.5694 14.325 6.9212 34.2 8.1109 65.184 26.324 88.42 39.95 6.9908 4.8892 14.507 11.158 22.471 17.275 20.858 17.34 53.741 45.288 78.981 62.931 15.144 10.586 28.795 18.337 38.59 18.893 7.6153 3.3058 2.9701 5.06-9.3821 3.5477-12.352-1.5123-24.417-21.112-22.295-39.316 2.6197-19.202 15.59-31.743 38.296-35.322 29.157-3.874 65.483-4.7494 70.95-24.378 3.056-6.4588 5.7674-12.134 6.4121-16.808 5.659-16.725 1.6847-34.201 6.6698-40.493 3.5875-2.9114 8.1072-5.1289 13.564-6.7297 49.174-11.602 91.294-26.086 108.45-39.487m-509.56-6.554c18.994 5.9429 29.484 44.538 55.435 60.887 3.6182 3.4925 8.2153 6.0281 13.725 7.587 33.061 9.3529 64.877 26.248 88.768 38.415 7.1591 4.4258 14.916 10.341 23.12 16.239 21.413 16.695 54.409 44.286 79.046 62.089 14.783 10.682 27.899 18.774 37.055 19.976 7.0213 4.045 1.8517 6.5453-11.279 5.5179-13.131-1.0274-25.696-21.392-23.497-40.464 2.6287-19.589 15.82-32.856 39.394-36.733 30.024-4.2323 67.688-5.7408 74.631-24.897 3.6048-6.3362 6.6684-11.892 7.4134-16.439 6.2081-16.523 1.1133-34.373 6.1565-40.899 3.4659-2.8618 7.8643-5.044 13.217-6.6142 49.177-11.414 88.615-28.15 104.95-40.913m-506.36-4.6496c20.181 6.3143 30.49 45.579 54.989 63.102 3.4053 3.7325 7.8052 6.4869 13.125 8.2527 31.921 10.595 64.569 26.172 89.116 36.879 7.3273 3.9624 15.326 9.5244 23.77 15.204 21.969 16.05 55.076 43.283 79.112 61.247 14.421 10.778 27.004 19.212 35.519 21.06 6.4273 4.7842 0.73323 8.0305-13.177 7.4881-13.91-0.54249-26.975-21.671-24.699-41.611 2.6378-19.976 16.05-33.968 40.492-38.144 30.891-4.5906 69.893-6.7322 78.312-25.416 4.1537-6.2137 7.5694-11.651 8.4146-16.069 6.7571-16.32 0.5419-34.545 5.6433-41.306 3.3443-2.8121 7.6213-4.959 12.87-6.4986 49.18-11.226 85.935-30.214 101.46-42.338m-503.17-2.7452c21.369 6.6858 31.495 46.621 54.544 65.316 3.1925 3.9724 7.3951 6.9456 12.525 8.9184 30.782 11.837 64.262 26.095 89.464 35.343 7.4956 3.4991 15.735 8.7079 24.42 14.168 22.525 15.405 55.744 42.28 79.177 60.405 14.06 10.875 26.108 19.649 33.984 22.143 5.8333 5.5234-0.38523 9.5158-15.074 9.4582-14.689-0.0576-28.254-21.95-25.901-42.759 2.6468-20.363 16.28-35.08 41.589-39.555 31.758-4.9489 72.098-7.7236 81.992-25.935 4.7026-6.0912 8.4705-11.409 9.4159-15.7 7.3062-16.118-0.0295-34.717 5.13-41.712 3.2228-2.7624 7.3784-4.874 12.523-6.3831 49.183-11.039 83.256-32.277 97.96-43.764m-499.98-0.84083c22.556 7.0572 32.5 47.662 54.098 67.531 2.9797 4.2124 6.985 7.4044 11.925 9.5842 29.643 13.079 63.955 26.019 89.813 33.808 7.6638 3.0357 16.144 7.8914 25.069 13.132 23.081 14.759 56.411 41.278 79.243 59.563 13.699 10.971 25.213 20.087 32.449 23.227 5.2393 6.2627-1.5037 11.001-16.971 11.428-15.468 0.42733-29.533-22.23-27.102-43.907 2.6558-20.75 16.51-36.192 42.687-40.965 32.625-5.3071 74.303-8.715 85.673-26.455 5.2514-5.9686 9.3715-11.167 10.417-15.331 7.8553-15.916-0.60094-34.889 4.6168-42.118 3.1012-2.7128 7.1354-4.7891 12.176-6.2675 49.186-10.851 80.577-34.341 94.464-45.19m-496.78 1.0636c23.743 7.4286 33.505 48.703 53.652 69.746 2.7669 4.4523 6.5749 7.8631 11.326 10.25 28.504 14.321 63.647 25.943 90.161 32.272 7.8321 2.5723 16.553 7.0748 25.719 12.097 23.636 14.114 57.079 40.275 79.308 58.72 13.338 11.067 24.317 20.524 30.913 24.31 4.6453 7.0019-2.6221 12.486-18.869 13.399-16.246 0.91224-30.812-22.509-28.304-45.054 2.6649-21.137 16.74-37.305 43.785-42.376 33.492-5.6654 76.508-9.7064 89.353-26.974 5.8003-5.846 10.273-10.925 11.418-14.962 8.4043-15.714-1.1724-35.061 4.1036-42.525 2.9796-2.6631 6.8925-4.7041 11.829-6.152 49.189-10.664 77.897-36.405 90.968-46.615m-493.59 2.9679c24.93 7.8001 34.51 49.745 53.206 71.961 2.554 4.6922 6.1648 8.3219 10.726 10.916 27.364 15.563 63.34 25.867 90.509 30.736 8.0003 2.109 16.963 6.2583 26.369 11.061 24.192 13.469 57.746 39.272 79.374 57.878 12.976 11.164 23.422 20.961 29.378 25.393 4.0514 7.7411-3.7406 13.972-20.766 15.369-17.025 1.3972-32.091-22.789-29.506-46.202 2.6739-21.524 16.97-38.417 44.883-43.787 34.358-6.0237 78.713-10.698 93.034-27.493 6.3491-5.7235 11.174-10.684 12.42-14.592 8.9534-15.511-1.7438-35.234 3.5904-42.931 2.858-2.6134 6.6496-4.6191 11.482-6.0364 49.192-10.476 75.218-38.469 87.472-48.041m-490.39 4.8723c26.117 8.1715 35.515 50.786 52.761 74.176 2.3412 4.9322 5.7548 8.7806 10.126 11.581 26.225 16.805 63.033 25.791 90.858 29.201 8.1686 1.6456 17.372 5.4417 27.018 10.025 24.748 12.824 58.414 38.27 79.439 57.036 12.615 11.26 22.526 21.399 27.842 26.477 3.4574 8.4803-4.859 15.457-22.663 17.339-17.804 1.8821-33.37-23.068-30.707-47.35 2.683-21.911 17.201-39.529 45.98-45.198 35.225-6.382 80.918-11.689 96.715-28.012 6.898-5.601 12.075-10.442 13.421-14.223 9.5024-15.309-2.3152-35.406 3.0771-43.337 2.7365-2.5638 6.4066-4.5341 11.135-5.9209 49.195-10.289 72.539-40.533 83.976-49.467m-487.2 6.7767c27.304 8.5429 36.52 51.827 52.315 76.391 2.1284 5.1721 5.3447 9.2393 9.5256 12.247 25.086 18.047 62.725 25.715 91.206 27.665 8.3368 1.1822 17.781 4.6252 27.668 8.9898 25.303 12.178 59.081 37.267 79.505 56.194 12.254 11.356 21.631 21.836 26.307 27.56 2.8634 9.2195-5.9775 16.942-24.561 19.309s-34.649-23.347-31.909-48.498c2.692-22.298 17.431-40.641 47.078-46.609 36.092-6.7403 83.123-12.68 100.4-28.532 7.4469-5.4784 12.976-10.2 14.422-13.854 10.051-15.107-2.8866-35.578 2.5639-43.744 2.6149-2.5141 6.1637-4.4492 10.787-5.8054 49.199-10.101 69.86-42.596 80.479-50.892m-484.01 8.6811c28.491 8.9144 37.525 52.869 51.869 78.606 1.9155 5.4121 4.9346 9.6981 8.9257 12.913 23.946 19.289 62.418 25.639 91.554 26.129 8.505 0.71884 18.191 3.8087 28.318 7.9541 25.859 11.533 59.749 36.264 79.57 55.352 11.893 11.452 20.735 22.273 24.771 28.643 2.2694 9.9587-7.0959 18.428-26.458 21.279-19.362 2.8519-35.928-23.627-33.111-49.645 2.7011-22.685 17.661-41.754 48.176-48.02 36.959-7.0986 85.328-13.672 104.08-29.051 7.9957-5.3558 13.877-9.9584 15.424-13.485 10.601-14.905-3.458-35.75 2.0507-44.15 2.4933-2.4644 5.9207-4.3642 10.44-5.6898 49.202-9.9133 67.18-44.66 76.983-52.318m-480.81 10.585c29.679 9.2858 38.53 53.91 51.424 80.82 1.7027 5.652 4.5245 10.157 8.3257 13.579 22.807 20.531 62.111 25.562 91.902 24.594 8.6733 0.25546 18.6 2.9921 28.967 6.9184 26.415 10.888 60.417 35.262 79.636 54.51 11.531 11.549 19.84 22.711 23.236 29.727 1.6754 10.698-8.2144 19.913-28.355 23.25-20.141 3.3368-37.208-23.906-34.313-50.793 2.7101-23.072 17.891-42.866 49.274-49.43 37.826-7.4569 87.533-14.663 107.76-29.57 8.5446-5.2333 14.778-9.7166 16.425-13.115 11.15-14.703-4.0294-35.922 1.5374-44.556 2.3718-2.4148 5.6778-4.2792 10.093-5.5743 49.205-9.7258 64.501-46.724 73.487-53.744m-477.62 12.49c30.866 9.6572 39.535 54.952 50.978 83.035 1.4899 5.892 4.1144 10.616 7.7257 14.244 21.668 21.773 61.803 25.486 92.251 23.058 8.8415-0.20791 19.009 2.1756 29.617 5.8828 26.971 10.243 61.084 34.259 79.701 53.667 11.17 11.645 18.944 23.148 21.7 30.81 1.0814 11.437-9.3328 21.398-30.252 25.22-20.92 3.8217-38.487-24.186-35.514-51.941 2.7192-23.459 18.121-43.978 50.372-50.841 38.693-7.8152 89.738-15.655 111.44-30.089 9.0935-5.1108 15.679-9.4749 17.426-12.746 11.699-14.5-4.6009-36.094 1.0242-44.963 2.2502-2.3651 5.4348-4.1943 9.7463-5.4587 49.208-9.5382 61.822-48.788 69.991-55.169m-474.43 14.394c32.053 10.029 40.54 55.993 50.532 85.25 1.2771 6.1319 3.7043 11.074 7.1258 14.91 20.529 23.015 61.496 25.41 92.599 21.522 9.0098-0.67128 19.419 1.359 30.267 4.8472 27.526 9.5975 61.752 33.256 79.767 52.825 10.809 11.741 18.049 23.585 20.165 31.893 0.48743 12.176-10.451 22.883-32.15 27.19-21.698 4.3066-39.766-24.465-36.716-53.088 2.7282-23.846 18.351-45.09 51.469-52.252 39.56-8.1734 91.943-16.646 115.12-30.609 9.6423-4.9882 16.58-9.2331 18.427-12.377 12.248-14.298-5.1723-36.266 0.51096-45.369 2.1286-2.3155 5.1919-4.1093 9.3992-5.3432 49.211-9.3506 59.142-50.852 66.494-56.595m-471.23 16.299c33.24 10.4 41.545 57.034 50.086 87.465 1.0642 6.3719 3.2942 11.533 6.5258 15.576 19.389 24.257 61.189 25.334 92.947 19.987 9.178-1.1346 19.828 0.5425 30.916 3.8115 28.082 8.9522 62.419 32.254 79.832 51.983 10.448 11.838 17.153 24.023 18.629 32.977-0.10657 12.916-11.57 24.369-34.047 29.16-22.477 4.7915-41.045-24.744-37.918-54.236 2.7373-24.233 18.581-46.203 52.567-53.663 40.427-8.5317 94.148-17.637 118.8-31.128 10.191-4.8656 17.481-8.9914 19.429-12.008 12.797-14.096-5.7437-36.438-2e-3 -45.776 2.007-2.2658 4.9489-4.0243 9.0522-5.2276 49.214-9.163 56.463-52.916 62.998-58.021m-468.04 18.203c34.427 10.772 42.551 58.076 49.641 89.68 0.85141 6.6118 2.8842 11.992 5.9258 16.242 18.25 25.499 60.881 25.258 93.296 18.451 9.3463-1.598 20.237-0.27405 31.566 2.7758 28.638 8.307 63.087 31.251 79.898 51.141 10.087 11.934 16.258 24.46 17.094 34.06-0.70055 13.655-12.688 25.854-35.944 31.13-23.256 5.2764-42.324-25.024-39.12-55.384 2.7463-24.62 18.811-47.315 53.665-55.074 41.294-8.89 96.353-18.629 122.48-31.647 10.74-4.7431 18.382-8.7496 20.43-11.638 13.346-13.894-6.3151-36.611-0.5155-46.182 1.8855-2.2161 4.706-3.9393 8.7051-5.1121 49.217-8.9754 53.784-54.979 59.502-59.446m-464.85 20.107c35.614 11.143 43.556 59.117 49.195 91.895 0.63858 6.8518 2.4741 12.451 5.3259 16.907 17.111 26.741 60.574 25.182 93.644 16.915 9.5145-2.0614 20.647-1.0906 32.216 1.7402 29.193 7.6617 63.754 30.248 79.963 50.299 9.7253 12.03 15.362 24.898 15.558 35.144-1.2945 14.394-13.807 27.339-37.842 33.101-24.035 5.7614-43.603-25.303-40.321-56.532 2.7554-25.007 19.041-48.427 54.763-56.485 42.161-9.2483 98.558-19.62 126.16-32.166 11.289-4.6206 19.283-8.5079 21.431-11.269 13.895-13.692-6.8865-36.783-1.0287-46.588 1.7639-2.1665 4.4631-3.8544 8.358-4.9965 49.22-8.7878 51.104-57.043 56.006-60.872m-461.65 22.012c36.801 11.514 44.561 60.158 48.749 94.11 0.42576 7.0917 2.064 12.909 4.7259 17.573 15.971 27.983 60.267 25.106 93.992 15.38 9.6828-2.5248 21.056-1.9071 32.865 0.70454 29.749 7.0165 64.422 29.246 80.029 49.456 9.3641 12.126 14.467 25.335 14.023 36.227-1.8885 15.133-14.925 28.824-39.739 35.071-24.814 6.2463-44.882-25.583-41.523-57.679 2.7644-25.394 19.271-49.539 55.86-57.896 43.028-9.6066 100.76-20.612 129.84-32.685 11.838-4.498 20.184-8.2661 22.433-10.9 14.444-13.489-7.458-36.955-1.542-46.995 1.6423-2.1168 4.2201-3.7694 8.011-4.881 49.223-8.6003 48.425-59.107 52.51-62.298m-458.46 23.916c37.989 11.886 45.566 61.2 48.303 96.324 0.21293 7.3317 1.6539 13.368 4.1259 18.239 14.832 29.225 59.959 25.029 94.34 13.844 9.851-2.9882 21.465-2.7237 33.515-0.33112 30.305 6.3712 65.089 28.243 80.094 48.614 9.0029 12.223 13.571 25.772 12.487 37.31-2.4825 15.872-16.044 30.31-41.636 37.041-25.593 6.7312-46.161-25.862-42.725-58.827 2.7734-25.781 19.502-50.652 56.958-59.306 43.895-9.9649 102.97-21.603 133.52-33.205 12.387-4.3754 21.085-8.0244 23.434-10.531 14.993-13.287-8.0294-37.127-2.0552-47.401 1.5208-2.0671 3.9772-3.6844 7.6639-4.7655 49.226-8.4127 45.746-61.171 49.013-63.724m-455.26 25.821c39.176 12.257 46.571 62.241 47.858 98.539 1.01e-4 7.5716 1.2438 13.827 3.526 18.905 13.693 30.467 59.652 24.953 94.689 12.308 10.019-3.4515 21.874-3.5402 34.164-1.3668 30.861 5.726 65.757 27.24 80.16 47.772 8.6417 12.319 12.676 26.21 10.952 38.394-3.0765 16.612-17.162 31.795-43.534 39.011-26.372 7.2161-47.44-26.141-43.926-59.975 2.7825-26.168 19.732-51.764 58.056-60.717 44.762-10.323 105.17-22.594 137.2-33.724 12.936-4.2529 21.986-7.7826 24.435-10.161 15.542-13.085-8.6008-37.299-2.5684-47.807 1.3992-2.0175 3.7342-3.5995 7.3169-4.6499 49.229-8.2251 43.066-63.235 45.517-65.149m-452.07 27.725c40.363 12.629 47.576 63.283 47.412 100.75-0.21273 7.8116 0.83374 14.286 2.926 19.57 12.554 31.709 59.345 24.877 95.037 10.772 10.188-3.9149 22.284-4.3568 34.814-2.4024 31.416 5.0807 66.425 26.238 80.225 46.93 8.2804 12.415 11.78 26.647 9.4165 39.477-3.6705 17.351-18.28 33.28-45.431 40.981-27.15 7.701-48.72-26.421-45.128-61.122 2.7916-26.555 19.962-52.876 59.154-62.128 45.629-10.681 107.38-23.586 140.88-34.243 13.484-4.1304 22.887-7.5409 25.436-9.7921 16.091-12.883-9.1722-37.471-3.0817-48.214 1.2776-1.9678 3.4913-3.5145 6.9698-4.5344 49.232-8.0375 40.387-65.299 42.021-66.575m-448.88 29.629c41.55 13 48.581 64.324 46.966 102.97-0.42556 8.0515 0.42365 14.744 2.326 20.236 11.414 32.951 59.037 24.801 95.385 9.2368 10.356-4.3783 22.693-5.1733 35.464-3.4381 31.972 4.4355 67.092 25.235 80.291 46.088 7.9192 12.512 10.885 27.084 7.881 40.56-4.2645 18.09-19.399 34.766-47.328 42.952-27.929 8.1859-49.999-26.7-46.33-62.27 2.8006-26.942 20.192-53.988 60.251-63.539 46.496-11.04 109.58-24.577 144.56-34.762 14.033-4.0078 23.788-7.2991 26.438-9.4228 16.64-12.681-9.7436-37.643-3.5949-48.62 1.156-1.9181 3.2483-3.4295 6.6228-4.4188 49.235-7.8499 37.708-67.362 38.525-68.001m-445.68 31.534c42.737 13.372 49.586 65.365 46.52 105.18-0.63838 8.2915 0.01357 15.203 1.7261 20.902 10.275 34.193 58.73 24.725 95.734 7.7012 10.524-4.8416 23.102-5.9898 36.113-4.4737 32.528 3.7902 67.76 24.232 80.356 45.246 7.558 12.608 9.9894 27.522 6.3456 41.644-4.8585 18.829-20.517 36.251-49.226 44.922-28.708 8.6708-51.278-26.98-47.532-63.418 2.8096-27.329 20.422-55.1 61.349-64.95 47.363-11.398 111.79-25.568 148.24-35.282 14.582-3.8853 24.689-7.0574 27.439-9.0536 17.189-12.478-10.315-37.816-4.1081-49.026 1.0345-1.8685 3.0054-3.3445 6.2757-4.3033 49.238-7.6623 35.028-69.426 35.028-69.426" fill="none" stroke="url(#linearGradient3595)" stroke-width=".32723px"/>
 <path d="m474.97 56.17v243.09h-506.44l4e-6 -244.06 253.72 186.55z" fill="#1b1e20" stop-color="#000000" style="-inkscape-stroke:none;font-variation-settings:normal"/>
 <g transform="matrix(1.7966 0 0 1.7966 -102.41 119.04)" opacity=".02" stroke-width=".6884">
  <g transform="translate(0 77.637)" opacity=".075" stroke-width=".6884">
   <path d="m-21.655-173.61 202.37 148.61 202.37-148.61v16.181l-202.37 148.61-202.37-148.61z" fill="url(#linearGradient21995)" stop-color="#000000" style="-inkscape-stroke:none;font-variation-settings:normal"/>
   <path d="m-21.655-193.8 202.37 148.61 202.37-148.61v22.391l-202.37 148.61-202.37-148.61z" fill="url(#linearGradient21997)"/>
   <path d="m-21.655-157.94 202.37 148.61 202.37-148.61v1.7412l-202.37 148.61-202.37-148.61z" fill="url(#linearGradient21999)" stop-color="#000000" style="-inkscape-stroke:none;font-variation-settings:normal;paint-order:stroke fill markers"/>
  </g>
  <path d="m-21.656-22.398v20.919l191.38 140.54 10.981 23.178 10.981-23.178 191.38-140.54v-20.919l-202.37 148.61z" fill="url(#linearGradient22001)" stop-color="#000000" style="-inkscape-stroke:none;font-variation-settings:normal"/>
  <path d="m191.22 138.75-10.513 23.491 202.37-148.61v-15.771z" fill="url(#linearGradient22003)"/>
  <path d="m-21.656-2.1353v15.771l202.37 148.61-10.513-23.491z" fill="url(#linearGradient22005)"/>
  <path d="m-21.656-2.1353v1.3126l190.92 140.2 11.449 22.866 11.449-22.866 190.92-140.2v-1.3126l-191.85 140.89-10.513 21.102-10.513-21.102-191.54-140.66z" color="#000000" fill="url(#linearGradient22007)" stroke-linecap="square" stroke-width=".18214" style="-inkscape-stroke:none"/>
  <path d="m-21.655-41.581 202.37 148.61 202.37-148.61v21.473l-202.37 148.61-202.37-148.61z" fill="url(#linearGradient22009)" stop-color="#000000" style="-inkscape-stroke:none;font-variation-settings:normal"/>
  <path d="m-21.655-23.098 202.37 148.61 202.37-148.61v2.9889l-202.37 148.61-202.37-148.61z" fill="url(#linearGradient22011)" stop-color="#000000" style="-inkscape-stroke:none;font-variation-settings:normal;paint-order:stroke fill markers"/>
  <path d="m-21.655-62.914 202.37 148.61 202.37-148.61v22.391l-202.37 148.61-202.37-148.61z" fill="url(#linearGradient22013)"/>
  <path d="m-21.655-64.05 202.37 148.61 202.37-148.61v1.7412l-202.37 148.61-202.37-148.61z" fill="url(#linearGradient22015)" stop-color="#000000" style="-inkscape-stroke:none;font-variation-settings:normal;paint-order:stroke fill markers"/>
  <path d="m191.22 138.75-10.513 23.491 202.37-148.61v-15.771z" fill="url(#linearGradient22017)"/>
  <path d="m170.2 138.75 10.513 23.491-202.37-148.61-2e-6 -15.771z" fill="url(#linearGradient22019)"/>
 </g>
 <g transform="matrix(1.2368,0,0,1.2368,-1.2481,137.4)" opacity=".02">
  <path d="m-21.655-173.61 202.37 148.61 202.37-148.61v16.181l-202.37 148.61-202.37-148.61z" fill="url(#linearGradient21995)" stop-color="#000000" style="-inkscape-stroke:none;font-variation-settings:normal"/>
  <path d="m-21.655-193.8 202.37 148.61 202.37-148.61v22.391l-202.37 148.61-202.37-148.61z" fill="url(#linearGradient21997)"/>
  <path d="m-21.655-157.94 202.37 148.61 202.37-148.61v1.7412l-202.37 148.61-202.37-148.61z" fill="url(#linearGradient21999)" stop-color="#000000" style="-inkscape-stroke:none;font-variation-settings:normal;paint-order:stroke fill markers"/>
 </g>
 <path d="m235.25 212.98-13.002 29.053 250.28-183.79v-19.505z" fill="url(#linearGradient24593)"/>
 <path d="m-28.031 38.738v19.505l250.28 183.79-13.002-29.053z" fill="url(#linearGradient78325)"/>
 <path d="m-28.031 38.738v1.6234l236.12 173.4 14.16 28.28 14.16-28.28 236.12-173.4v-1.6234l-237.28 174.25-13.002 26.098-13.002-26.098-236.89-173.96z" color="#000000" fill="url(#linearGradient87990)" stroke-linecap="square" stroke-width=".32723" style="-inkscape-stroke:none"/>
 <path d="m-28.031-10.048 250.28 183.79 250.28-183.79v26.557l-250.28 183.79-250.28-183.79z" fill="url(#linearGradient25753)" stop-color="#000000" style="-inkscape-stroke:none;font-variation-settings:normal"/>
 <path d="m-28.031 12.812 250.28 183.79 250.28-183.79v3.6966l-250.28 183.79-250.28-183.79z" fill="url(#linearGradient25219)" stop-color="#000000" style="-inkscape-stroke:none;font-variation-settings:normal;paint-order:stroke fill markers"/>
 <path d="m235.25 212.98-13.002 29.053 250.28-183.79v-19.505z" fill="url(#linearGradient14910)"/>
 <path d="m209.25 212.98 13.002 29.053-250.28-183.79-2e-6 -19.505z" fill="url(#linearGradient15720)"/>
 <path d="m136.22 160.98v3.8827l42.031 30.866v-3.8827zm0 5.846v6.1381l42.031 30.866v-6.1381zm42.031 38.885-42.031-30.866v2.6178l42.031 30.866z" fill="url(#linearGradient35006)"/>
 <path d="m426.22 76.21v3.8827l-42.031 30.866v-3.8827zm0 5.846v6.1381l-42.031 30.866v-6.1381zm-42.031 38.885 42.031-30.866v2.6178l-42.031 30.866z" fill="url(#linearGradient35006-3)"/>
 <path d="m222.25 175.05 250.49-183.11-0.21282-1.9929z" fill="#d0b2e4"/>
 <path d="m222.25 175.05-250.49-183.11 0.21282-1.9929z" fill="#b2e3e4"/>
 <path d="m-28.031-36.432 250.28 183.79 250.28-183.79v27.693l-250.28 183.79-250.28-183.79z" fill="url(#linearGradient26562)"/>
 <g transform="matrix(1.0067 0 0 1.0075 53.647 54.903)" fill="none" stop-color="#000000" stroke="#235dc6" stroke-width=".64985" style="-inkscape-stroke:none;font-variation-settings:normal;paint-order:stroke fill markers">
  <path d="m116.37 53.187v6.7346" stop-color="#000000" style="-inkscape-stroke:none;font-variation-settings:normal;paint-order:stroke fill markers"/>
  <path d="m122.49 57.678v8.7187" stop-color="#000000" style="-inkscape-stroke:none;font-variation-settings:normal;paint-order:stroke fill markers"/>
  <path d="m133.56 65.81v8.379" stop-color="#000000" style="-inkscape-stroke:none;font-variation-settings:normal;paint-order:stroke fill markers"/>
  <path d="m128.48 62.077v4.1961" stop-color="#000000" style="-inkscape-stroke:none;font-variation-settings:normal;paint-order:stroke fill markers"/>
  <circle cx="116.42" cy="61.028" r="1.21" stop-color="#000000" style="-inkscape-stroke:none;font-variation-settings:normal;paint-order:stroke fill markers"/>
  <circle cx="122.45" cy="66.901" r=".64061" stop-color="#000000" style="-inkscape-stroke:none;font-variation-settings:normal;paint-order:stroke fill markers"/>
  <circle cx="128.5" cy="67.357" r="1.21" stop-color="#000000" style="-inkscape-stroke:none;font-variation-settings:normal;paint-order:stroke fill markers"/>
  <circle cx="133.55" cy="75.222" r="1.21" stop-color="#000000" style="-inkscape-stroke:none;font-variation-settings:normal;paint-order:stroke fill markers"/>
 </g>
 <path d="m33.551 16.979v19.505l10.77 7.9091v-19.505zm13.956 10.248v19.505l21.664 15.91v-19.505zm28.274 20.763 0.18087 19.638 13.588 9.978 0.02366-19.487zm18.789 13.798-0.25437 19.318 4.1019 3.0122v-19.505z" fill="url(#linearGradient34063)" stop-color="#000000" style="-inkscape-stroke:none;font-variation-settings:normal"/>
 <path d="m303.94 170.29v9.0333l-10.77 7.9091v-9.0333zm-13.956 10.248v9.0333l-21.664 15.91v-9.034zm-28.274 20.763-0.18087 9.1663-13.588 9.978-0.0236-9.0161zm-18.789 13.798 0.25438 8.8467-4.1019 3.0122v-9.034z" fill="url(#linearGradient53858)" stop-color="#000000" style="-inkscape-stroke:none;font-variation-settings:normal"/>
 <g transform="matrix(1.2368,0,0,1.2368,-1.2481,69.908)" opacity=".02">
  <path d="m-21.655-173.61 202.37 148.61 202.37-148.61v16.181l-202.37 148.61-202.37-148.61z" fill="url(#linearGradient21995)" stop-color="#000000" style="-inkscape-stroke:none;font-variation-settings:normal"/>
  <path d="m-21.655-193.8 202.37 148.61 202.37-148.61v22.391l-202.37 148.61-202.37-148.61z" fill="url(#linearGradient21997)"/>
  <path d="m-21.655-157.94 202.37 148.61 202.37-148.61v1.7412l-202.37 148.61-202.37-148.61z" fill="url(#linearGradient21999)" stop-color="#000000" style="-inkscape-stroke:none;font-variation-settings:normal;paint-order:stroke fill markers"/>
 </g>
 <path d="m123.74 78.636v21.529l31.028 22.786v-21.529z" fill="#7777e1" fill-opacity=".095564"/>
 <path d="m145.71 125.6v9.1183l76.54 56.408v-9.1184zm0 11.082v3.5203l76.54 56.408v-3.5203z" fill="url(#linearGradient35392)"/>
 <path d="m-1.2914 66.209v5.2606l40.569 29.793v-5.2612z" fill="url(#linearGradient37083)"/>
 <path d="m107.9 76.619v12.89l99.409 73.002v-12.892z" fill="url(#linearGradient37280)"/>
 <path d="m29.268 87.052v12.89l27.598 20.267v-4.3831zm32.841 32.625v4.3831l10.797 7.9289v-4.3831zm13.409 9.8469v4.3831l11.339 8.3271v-4.3837zm19.291 14.167v4.3831l14.273 10.482v-4.3837zm18.506 13.59v4.3837l8.7662 6.4372v-4.3837zm12.252 8.9969v4.3837l3.1093 2.2836v-4.3837z" fill="url(#linearGradient37849)"/>
 <g transform="matrix(1.0067 0 0 1.0075 85.341 78.667)" fill="none" stroke="#235dc6" stroke-width=".64985">
  <path d="m116.37 53.187v6.7346" stop-color="#000000" style="font-variation-settings:normal"/>
  <path d="m122.49 57.678v8.7187"/>
  <path d="m128.48 62.077v4.1961"/>
  <circle cx="116.42" cy="61.028" r="1.21" stop-color="#000000" style="font-variation-settings:normal;paint-order:stroke fill markers"/>
  <circle cx="122.45" cy="66.901" r=".64061" stop-color="#000000" style="font-variation-settings:normal;paint-order:stroke fill markers"/>
  <circle cx="128.5" cy="67.357" r="1.21" stop-color="#000000" style="font-variation-settings:normal;paint-order:stroke fill markers"/>
  <path d="m110.31 48.673v8.379"/>
  <circle cx="110.3" cy="58.084" r="1.21" stop-color="#000000" style="font-variation-settings:normal;paint-order:stroke fill markers"/>
 </g>
 <path d="m-28.031-37.837 250.28 183.79 250.28-183.79v2.1534l-250.28 183.79-250.28-183.79z" fill="url(#linearGradient69576)" stop-color="#000000" style="-inkscape-stroke:none;font-variation-settings:normal;paint-order:stroke fill markers"/>
 <path d="m304.32 103.99v19.505l-10.77 7.9091v-19.505zm-13.956 10.248v19.505l-21.664 15.91v-19.505zm-28.274 20.763-0.18087 19.638-13.588 9.978-0.0236-19.487zm-18.789 13.798 0.25438 19.318-4.1019 3.0122v-19.505z" fill="url(#linearGradient53643)" stop-color="#000000" style="-inkscape-stroke:none;font-variation-settings:normal"/>
 <path d="m412.36 4.0971v12.89l-27.598 20.267v-4.3831zm-32.841 32.625v4.3831l-10.797 7.9289v-4.3831zm-13.409 9.8469v4.3831l-11.339 8.3271v-4.3837zm-19.291 14.167v4.3831l-14.273 10.482v-4.3837zm-18.506 13.59v4.3837l-8.7662 6.4372v-4.3837zm-12.252 8.9969v4.3837l-3.1093 2.2836v-4.3837z" fill="url(#linearGradient53697)"/>
 <path d="m390.94 40.21v12.89l-99.409 73.002v-12.892z" fill="url(#linearGradient53804)"/>
 <path d="m298.79 125.6v9.1183l-76.54 56.408v-9.1184zm0 11.082v3.5203l-76.54 56.408v-3.5203z" fill="url(#linearGradient5163)"/>
</svg>
