<?xml version="1.0" encoding="UTF-8"?>
<svg width="3200" height="1800" version="1.1" viewBox="0 0 846.67 476.25" xmlns="http://www.w3.org/2000/svg" xmlns:xlink="http://www.w3.org/1999/xlink">
<defs>
<linearGradient id="linearGradient16905">
<stop stop-color="#1b668f" offset="0"/>
<stop stop-color="#121c94" offset=".5"/>
<stop stop-color="#382279" offset="1"/>
</linearGradient>
<linearGradient id="linearGradient78639">
<stop stop-color="#2936ea" offset="0"/>
<stop stop-color="#164593" offset="1"/>
</linearGradient>
<linearGradient id="linearGradient75480-3" x1="-21.655" x2="1378.4" y1="110.14" y2="110.14" gradientTransform="matrix(.61982 0 0 .61982 8.6778e-6 25.825)" gradientUnits="userSpaceOnUse" xlink:href="#linearGradient16905"/>
<linearGradient id="linearGradient3595-6" x1="-21.656" x2="383.08" y1="81.035" y2="81.035" gradientTransform="matrix(2.3426 0 0 2.3426 8.6778e-6 .11523)" gradientUnits="userSpaceOnUse">
<stop stop-color="#51d677" stop-opacity=".47843" offset="0"/>
<stop stop-color="#eded84" stop-opacity=".32941" offset=".26488"/>
<stop stop-color="#a9ebf6" stop-opacity=".19951" offset=".49538"/>
<stop stop-color="#e9bf9d" stop-opacity=".35686" offset=".74191"/>
<stop stop-color="#5138aa" stop-opacity=".52157" offset="1"/>
</linearGradient>
<linearGradient id="linearGradient21995-7" x1="-21.655" x2="383.08" y1="92.147" y2="92.147" gradientTransform="translate(0 -155.84)" gradientUnits="userSpaceOnUse">
<stop stop-color="#445feb" offset="0"/>
<stop stop-color="#252fb5" offset=".5"/>
<stop stop-color="#9b53c1" offset="1"/>
</linearGradient>
<linearGradient id="linearGradient21997-5" x1="-21.655" x2="383.08" y1="99.556" y2="99.556" gradientTransform="translate(0 -189.92)" gradientUnits="userSpaceOnUse">
<stop stop-color="#3410ab" stop-opacity=".67526" offset="0"/>
<stop stop-color="#169bd6" offset=".5"/>
<stop stop-color="#0940a2" stop-opacity=".56984" offset="1"/>
</linearGradient>
<linearGradient id="linearGradient21999-5" x1="-24.528" x2="386.16" y1="-24.045" y2="-24.045" gradientTransform="translate(0 -138.44)" gradientUnits="userSpaceOnUse">
<stop stop-color="#6a5e19" offset="0"/>
<stop stop-color="#85751e" stop-opacity=".98824" offset=".14669"/>
<stop stop-color="#8c7b20" stop-opacity=".96863" offset=".30531"/>
<stop stop-color="#bda62c" stop-opacity=".95686" offset=".51079"/>
<stop stop-color="#82721e" stop-opacity=".94902" offset=".6231"/>
<stop stop-color="#968623" stop-opacity=".99608" offset=".83541"/>
<stop stop-color="#4e4412" stop-opacity=".92157" offset="1"/>
</linearGradient>
<linearGradient id="linearGradient22001-2" x1="-21.655" x2="1378.4" y1="110.14" y2="110.14" gradientTransform="matrix(.26458 0 0 .26458 0 -4.9003)" gradientUnits="userSpaceOnUse" xlink:href="#linearGradient16905"/>
<linearGradient id="linearGradient22003-9" x1="181.04" x2="361.42" y1="110.14" y2="110.14" gradientTransform="translate(0 -18.521)" gradientUnits="userSpaceOnUse" xlink:href="#linearGradient78639"/>
<linearGradient id="linearGradient22005-1" x1="-21.655" x2="183.99" y1="110.14" y2="110.14" gradientTransform="translate(0 -18.521)" gradientUnits="userSpaceOnUse">
<stop stop-color="#2f38a6" offset="0"/>
<stop stop-color="#3d33eb" offset="1"/>
</linearGradient>
<linearGradient id="linearGradient22007-2" x1="-82.44" x2="1448.4" y1="345.52" y2="345.52" gradientTransform="scale(.26458)" gradientUnits="userSpaceOnUse" xlink:href="#linearGradient1294-7"/>
<linearGradient id="linearGradient1294-7">
<stop stop-color="#6a5e19" offset="0"/>
<stop stop-color="#d1b832" stop-opacity=".98824" offset=".14669"/>
<stop stop-color="#8c7b20" stop-opacity=".96863" offset=".30531"/>
<stop stop-color="#dbc865" stop-opacity=".95686" offset=".51079"/>
<stop stop-color="#82721e" stop-opacity=".94902" offset=".6231"/>
<stop stop-color="#968623" stop-opacity=".99608" offset=".83541"/>
<stop stop-color="#cfb530" stop-opacity=".92157" offset="1"/>
</linearGradient>
<linearGradient id="linearGradient22009-0" x1="-21.655" x2="383.08" y1="92.147" y2="92.147" gradientTransform="translate(0 -18.521)" gradientUnits="userSpaceOnUse">
<stop stop-color="#445feb" offset="0"/>
<stop stop-color="#4a55ed" offset=".5"/>
<stop stop-color="#9b53c1" offset="1"/>
</linearGradient>
<linearGradient id="linearGradient22011-9" x1="-24.528" x2="386.16" y1="-24.045" y2="-24.045" gradientTransform="translate(0 -2.3527)" gradientUnits="userSpaceOnUse" xlink:href="#linearGradient1056-3"/>
<linearGradient id="linearGradient1056-3">
<stop stop-color="#6a5e19" offset="0"/>
<stop stop-color="#85751e" stop-opacity=".98824" offset=".14669"/>
<stop stop-color="#a38f26" stop-opacity=".96863" offset=".30531"/>
<stop stop-color="#f5d737" stop-opacity=".95686" offset=".51079"/>
<stop stop-color="#968623" stop-opacity=".99608" offset=".83541"/>
<stop stop-color="#4e4412" stop-opacity=".92157" offset="1"/>
</linearGradient>
<linearGradient id="linearGradient22013-6" x1="-21.655" x2="383.08" y1="99.556" y2="99.556" gradientTransform="translate(0 -59.037)" gradientUnits="userSpaceOnUse">
<stop stop-color="#3410ab" stop-opacity=".67526" offset="0"/>
<stop stop-color="#2936e9" offset=".5"/>
<stop stop-color="#0940a2" stop-opacity=".56984" offset="1"/>
</linearGradient>
<linearGradient id="linearGradient22015-0" x1="-24.528" x2="386.16" y1="-24.045" y2="-24.045" gradientTransform="translate(0 -44.553)" gradientUnits="userSpaceOnUse" xlink:href="#linearGradient17531-6"/>
<linearGradient id="linearGradient17531-6">
<stop stop-color="#6a5e19" offset="0"/>
<stop stop-color="#85751e" stop-opacity=".98824" offset=".14669"/>
<stop stop-color="#8c7b20" stop-opacity=".96863" offset=".30531"/>
<stop stop-color="#d1b637" stop-opacity=".95686" offset=".51079"/>
<stop stop-color="#82721e" stop-opacity=".94902" offset=".6231"/>
<stop stop-color="#968623" stop-opacity=".99608" offset=".83541"/>
<stop stop-color="#4e4412" stop-opacity=".92157" offset="1"/>
</linearGradient>
<linearGradient id="linearGradient22017-2" x1="253.56" x2="239.42" y1="147.01" y2="130.45" gradientTransform="translate(0 -18.521)" gradientUnits="userSpaceOnUse">
<stop stop-color="#28ead8" stop-opacity=".58819" offset="0"/>
<stop stop-color="#164593" stop-opacity=".023098" offset="1"/>
</linearGradient>
<linearGradient id="linearGradient22019-6" x1="251.13" x2="241.25" y1="138.13" y2="126.04" gradientTransform="matrix(-1 0 0 1 361.42 -18.521)" gradientUnits="userSpaceOnUse">
<stop stop-color="#dc29ea" stop-opacity=".68736" offset="0"/>
<stop stop-color="#164593" stop-opacity=".023098" offset="1"/>
</linearGradient>
<linearGradient id="linearGradient24593-1" x1="181.04" x2="361.42" y1="110.14" y2="110.14" gradientTransform="matrix(2.3426 0 0 2.3426 8.6778e-6 -6.0829)" gradientUnits="userSpaceOnUse" xlink:href="#linearGradient78639"/>
<linearGradient id="linearGradient78325-8" x1="-21.655" x2="183.99" y1="110.14" y2="110.14" gradientTransform="matrix(2.3426 0 0 2.3426 8.6778e-6 -6.0829)" gradientUnits="userSpaceOnUse">
<stop stop-color="#2e3476" offset="0"/>
<stop stop-color="#3d33eb" offset="1"/>
</linearGradient>
<linearGradient id="linearGradient87990-7" x1="-82.44" x2="1448.4" y1="345.52" y2="345.52" gradientTransform="matrix(.61982 0 0 .61982 8.6778e-6 37.304)" gradientUnits="userSpaceOnUse" xlink:href="#linearGradient1294-7"/>
<linearGradient id="linearGradient25753-9" x1="-21.655" x2="383.08" y1="92.147" y2="92.147" gradientTransform="matrix(2.3426 0 0 2.3426 8.6778e-6 -6.0829)" gradientUnits="userSpaceOnUse">
<stop stop-color="#4465eb" offset="0"/>
<stop stop-color="#46a7e1" offset=".5"/>
<stop stop-color="#6b50c1" offset="1"/>
</linearGradient>
<linearGradient id="linearGradient25219-2" x1="-24.528" x2="386.16" y1="-24.045" y2="-24.045" gradientTransform="matrix(2.3426 0 0 2.3426 8.6778e-6 31.793)" gradientUnits="userSpaceOnUse" xlink:href="#linearGradient1056-3"/>
<linearGradient id="linearGradient14910-0" x1="253.56" x2="239.42" y1="147.01" y2="130.45" gradientTransform="matrix(2.3426 0 0 2.3426 8.6778e-6 -6.0829)" gradientUnits="userSpaceOnUse">
<stop stop-color="#e06fea" stop-opacity=".39011" offset="0"/>
<stop stop-color="#164593" stop-opacity=".023098" offset="1"/>
</linearGradient>
<linearGradient id="linearGradient15720-2" x1="251.13" x2="241.25" y1="138.13" y2="126.04" gradientTransform="matrix(-2.3426 0 0 2.3426 846.67 -6.0829)" gradientUnits="userSpaceOnUse">
<stop stop-color="#dc29ea" stop-opacity=".18321" offset="0"/>
<stop stop-color="#164593" stop-opacity=".023098" offset="1"/>
</linearGradient>
<linearGradient id="linearGradient35006-37" x1="542.26" x2="409.86" y1="531.52" y2="437.69" gradientTransform="matrix(.61982 0 0 .61982 8.6778e-6 .11523)" gradientUnits="userSpaceOnUse">
<stop stop-color="#9e80dc" stop-opacity=".08" offset="0"/>
<stop stop-color="#9e80dc" stop-opacity="0" offset="1"/>
</linearGradient>
<linearGradient id="linearGradient35006-3-5" x1="542.26" x2="409.86" y1="531.52" y2="437.69" gradientTransform="matrix(-.61982 0 0 .61982 1070.1 -160.45)" gradientUnits="userSpaceOnUse">
<stop stop-color="#9e80dc" stop-opacity=".12323" offset="0"/>
<stop stop-color="#9e80dc" stop-opacity="0" offset="1"/>
</linearGradient>
<linearGradient id="linearGradient26562-9" x1="-21.655" x2="383.08" y1="99.556" y2="99.556" gradientTransform="matrix(2.3426 0 0 2.3426 8.6778e-6 -101)" gradientUnits="userSpaceOnUse">
<stop stop-color="#0031b6" offset="0"/>
<stop stop-color="#255cc7" offset=".5"/>
<stop stop-color="#3d3dd3" offset="1"/>
</linearGradient>
<linearGradient id="linearGradient34063-2" x1="79.735" x2="21.187" y1="42.158" y2="1.0037" gradientTransform="matrix(2.3426 0 0 2.3426 8.6778e-6 .11523)" gradientUnits="userSpaceOnUse">
<stop stop-color="#9e7fdc" stop-opacity=".1" offset="0"/>
<stop stop-color="#9e7fdc" stop-opacity="0" offset="1"/>
</linearGradient>
<linearGradient id="linearGradient53858-2" x1="79.735" x2="21.187" y1="42.158" y2="1.0037" gradientTransform="matrix(-2.3426 0 0 2.3426 643.98 270.68)" gradientUnits="userSpaceOnUse">
<stop stop-color="#7fdcdb" stop-opacity=".07" offset="0"/>
<stop stop-color="#9e7fdc" stop-opacity="0" offset="1"/>
</linearGradient>
<linearGradient id="linearGradient35392-8" x1="654.09" x2="409.86" y1="615.36" y2="437.69" gradientTransform="matrix(.61982 0 0 .61982 17.975 -66.904)" gradientUnits="userSpaceOnUse">
<stop stop-color="#b1cdef" stop-opacity=".26275" offset="0"/>
<stop stop-color="#9e80dc" stop-opacity="0" offset="1"/>
</linearGradient>
<linearGradient id="linearGradient37083-9" x1="32.688" x2="-4.3074" y1="61.359" y2="35.59" gradientTransform="matrix(2.3426 0 0 2.3426 8.6778e-6 .11523)" gradientUnits="userSpaceOnUse">
<stop stop-color="#a9e3ed" stop-opacity=".05" offset="0"/>
<stop stop-color="#a9e3ed" stop-opacity="0" offset="1"/>
</linearGradient>
<linearGradient id="linearGradient37280-7" x1="32.688" x2="-4.3074" y1="61.359" y2="35.59" gradientTransform="matrix(5.7402 0 0 5.7402 206.95 -102.32)" gradientUnits="userSpaceOnUse">
<stop stop-color="#60cbde" stop-opacity=".059582" offset="0"/>
<stop stop-color="#a9e3ed" stop-opacity="0" offset="1"/>
</linearGradient>
<linearGradient id="linearGradient37849-3" x1="32.688" x2="-4.3074" y1="61.359" y2="35.59" gradientTransform="matrix(5.7402 0 0 5.7402 58.002 -82.557)" gradientUnits="userSpaceOnUse">
<stop stop-color="#84b0b8" stop-opacity=".05" offset="0"/>
<stop stop-color="#a9e3ed" stop-opacity="0" offset="1"/>
</linearGradient>
<linearGradient id="linearGradient69576-6" x1="-24.528" x2="386.16" y1="-24.045" y2="-24.045" gradientTransform="matrix(2.3426 0 0 2.3426 8.6778e-6 -67.066)" gradientUnits="userSpaceOnUse" xlink:href="#linearGradient17531-6"/>
<linearGradient id="linearGradient53643-1" x1="79.735" x2="21.187" y1="42.158" y2="1.0037" gradientTransform="matrix(-2.3426 0 0 2.3426 644.7 164.93)" gradientUnits="userSpaceOnUse">
<stop stop-color="#dc7fdc" stop-opacity=".08" offset="0"/>
<stop stop-color="#9e7fdc" stop-opacity="0" offset="1"/>
</linearGradient>
<linearGradient id="linearGradient53697-2" x1="32.688" x2="-4.3074" y1="61.359" y2="35.59" gradientTransform="matrix(-5.7402 0 0 5.7402 783.22 -239.68)" gradientUnits="userSpaceOnUse">
<stop stop-color="#a9e3ed" stop-opacity=".06" offset="0"/>
<stop stop-color="#a9e3ed" stop-opacity="0" offset="1"/>
</linearGradient>
<linearGradient id="linearGradient53804-9" x1="32.688" x2="-4.3074" y1="61.359" y2="35.59" gradientTransform="matrix(-5.7402 0 0 5.7402 742.65 -171.28)" gradientUnits="userSpaceOnUse">
<stop stop-color="#dd83f2" stop-opacity=".12549" offset="0"/>
<stop stop-color="#a9e3ed" stop-opacity="0" offset="1"/>
</linearGradient>
<linearGradient id="linearGradient5163-3" x1="654.09" x2="409.86" y1="615.36" y2="437.69" gradientTransform="matrix(-.61982 0 0 .61982 828.7 -66.904)" gradientUnits="userSpaceOnUse">
<stop stop-color="#b1cdef" stop-opacity=".14678" offset="0"/>
<stop stop-color="#9e80dc" stop-opacity="0" offset="1"/>
</linearGradient>
</defs>
<rect x="-1.9141e-6" y="-2.7734e-6" width="846.67" height="476.25" fill="#1b1e20" stop-color="#000000" style="-inkscape-stroke:none;font-variation-settings:normal;paint-order:stroke fill markers"/>
<path d="m-50.731-15.166v49.005l448.34 329.24 25.725 54.298 25.725-54.298 448.34-329.24v-49.005l-474.07 348.13z" fill="url(#linearGradient75480-3)" stop-color="#000000" style="-inkscape-stroke:none;font-variation-settings:normal"/>
<path d="m-96.878 37.226s25.387 52.8 118.51 48.204c13.303-0.65664 27.989-2.4847 44.18-5.8053 97.149-19.924 132.2 52.024 157.58 119.3 8.4614 22.426 15.849 44.333 24.104 62.146 23.718 51.178 82.826 114.27 147.74 143.13 38.947 17.315 79.985 22.306 116.72 5.0053 31.301-14.741 37.403-32.616 36.135-49.257-1.2678-16.642-9.9061-32.051-8.0872-41.861 4.7049-25.375 22.992-28.525 41.348-26.82 30.595 2.8418 61.384 19.171 29.816-31.422-9.806-15.716-14.676-29.852-16.303-42.327-4.8809-37.424 19.426-59.89 27.215-65.153 10.249-6.9257 22.259-12.129 35.552-16.03 93.057-27.305 249.05 9.2272 304.75-34.287m-1055.9-66.522c2.2486 0.70354 27.291 54.773 117.67 52.399 12.9-0.20215 27.212-1.6157 43.044-4.5443 94.991-17.571 131.62 51.88 158.24 116.39 8.78 21.548 16.624 42.787 25.335 60.184 24.771 49.956 84.091 112.37 147.86 141.53 38.263 17.498 78.288 23.135 113.81 7.0574 30.176-13.341 35.285-29.802 32.542-45.526-2.7431-15.723-12.329-32.58-10.363-44.034 4.7221-26.108 23.427-30.632 43.428-29.492 32.237 2.1632 65.561 17.293 36.788-32.406-8.7664-15.484-12.969-29.395-14.406-41.628-3.8409-37.041 18.344-60.216 26.243-65.923 10.019-6.8316 21.799-11.968 34.895-15.811 93.062-26.949 243.97 5.318 298.13-36.988m-1049.9-62.914c4.4972 1.4071 29.195 56.745 116.82 56.594 12.497 0.25234 26.435-0.74681 41.908-3.2833 92.833-15.219 131.03 51.736 158.9 113.49 9.0987 20.671 17.399 41.24 26.565 58.223 25.823 48.733 85.355 110.47 147.99 139.94 37.579 17.68 76.592 23.963 110.9 9.1094 29.05-11.941 33.166-26.989 28.948-41.794-4.2183-14.805-14.752-33.109-12.64-46.208 4.7392-26.841 23.863-32.738 45.507-32.165 33.879 1.4845 69.737 15.415 43.759-33.389-7.7267-15.251-11.263-28.937-12.51-40.928-2.8009-36.658 17.262-60.542 25.271-66.693 9.7887-6.7376 21.338-11.807 34.238-15.592 93.068-26.594 238.9 1.4089 291.51-39.688m-1043.8-59.307c6.7458 2.1106 31.098 58.718 115.98 60.79 12.094 0.70684 25.659 0.12211 40.771-2.0223 90.675-12.867 130.45 51.592 159.56 110.58 9.4174 19.793 18.175 39.693 27.796 56.261 26.876 47.511 86.619 108.57 148.11 138.34 36.895 17.862 74.896 24.792 108 11.161 27.925-10.54 31.048-24.176 25.354-38.062-5.6936-13.886-17.174-33.638-14.916-48.382 4.7563-27.574 24.299-34.845 47.586-34.837 35.521 0.80586 73.914 13.538 50.731-34.373-6.6871-15.019-9.556-28.479-10.613-40.229-1.7609-36.275 16.179-60.868 24.299-67.462 9.5584-6.6435 20.878-11.646 33.58-15.373 93.074-26.239 233.82-2.5003 284.88-42.389m-1037.8-55.7c8.9944 2.8142 33.002 60.69 115.13 64.985 11.691 1.1613 24.882 0.99103 39.635-0.7613 88.517-10.514 129.87 51.447 160.22 107.67 9.7361 18.915 18.95 38.147 29.026 54.299 27.929 46.289 87.884 106.67 148.23 136.75 36.211 18.045 73.2 25.62 105.09 13.214 26.8-9.1403 28.929-21.362 21.76-34.33-7.1688-12.968-19.597-34.168-17.192-50.556 4.7735-28.307 24.735-36.952 49.666-37.509 37.163 0.12721 78.091 11.66 57.702-35.356-5.6475-14.787-7.8493-28.021-8.7168-39.53-0.72092-35.892 15.097-61.194 23.327-68.232 9.3281-6.5494 20.418-11.485 32.923-15.154 93.08-25.883 228.75-6.4094 278.26-45.089m-1031.7-52.093c11.243 3.5177 34.906 62.663 114.29 69.18 11.288 1.6158 24.105 1.86 38.498 0.4997 86.359-8.1616 129.29 51.303 160.88 104.76 10.055 18.038 19.725 36.6 30.257 52.338 28.981 45.067 89.148 104.77 148.36 135.15 35.526 18.227 71.504 26.448 102.18 15.266 25.675-7.7401 26.811-18.549 18.167-30.598-8.6441-12.049-22.02-34.697-19.468-52.73 4.7906-29.04 25.171-39.059 51.745-40.182 38.805-0.55143 82.267 9.782 64.674-36.34-4.6079-14.555-6.1426-27.563-6.8202-38.83 0.31906-35.509 14.014-61.52 22.355-69.002 9.0979-6.4553 19.958-11.324 32.266-14.935 93.085-25.528 223.67-10.319 271.64-47.789m-1025.7-48.486c13.492 4.2212 36.81 64.635 113.44 73.375 10.885 2.0703 23.328 2.7289 37.362 1.7607 84.201-5.8091 128.71 51.159 161.54 101.85 10.373 17.16 20.5 35.054 31.487 50.376 30.034 43.845 90.413 102.87 148.48 133.56 34.842 18.41 69.807 27.277 99.271 17.318 24.55-6.34 24.692-15.736 14.573-26.866s-24.443-35.226-21.744-54.904c4.8078-29.773 25.607-41.165 53.824-42.854 40.447-1.2301 86.444 7.9042 71.645-37.323-3.5682-14.323-4.436-27.105-4.9237-38.131 1.359-35.126 12.932-61.846 21.383-69.771 8.8676-6.3613 19.498-11.163 31.608-14.717 93.091-25.173 218.6-14.228 265.02-50.49m-1019.6-44.879c15.74 4.9248 38.713 66.608 112.6 77.571 10.481 2.5248 22.552 3.5978 36.225 3.0217 82.043-3.4566 128.12 51.015 162.2 98.941 10.692 16.282 21.276 33.507 32.718 48.414 31.086 42.622 91.677 100.98 148.61 131.96 34.158 18.592 68.111 28.105 96.362 19.37 23.425-4.9398 22.574-12.922 10.979-23.135-11.595-10.212-26.866-35.755-24.021-57.078 4.8249-30.506 26.042-43.272 55.903-45.526 42.09-1.9087 90.62 6.0264 78.617-38.307-2.5286-14.091-2.7293-26.647-3.0271-37.431 2.399-34.743 11.85-62.172 20.41-70.541 8.6373-6.2672 19.038-11.002 30.951-14.498 93.097-24.817 213.52-18.137 258.4-53.19m-1013.6-41.271c17.989 5.6283 40.617 68.58 111.76 81.766 10.078 2.9793 21.775 4.4667 35.089 4.2827 79.885-1.1041 127.54 50.871 162.86 96.033 11.011 15.405 22.051 31.96 33.948 46.453 32.139 41.4 92.942 99.076 148.73 130.37 33.474 18.774 66.415 28.934 93.454 21.422 22.3-3.5396 20.455-10.109 7.3854-19.403-13.07-9.2939-29.288-36.285-26.297-59.252 4.842-31.239 26.478-45.379 57.983-48.198 43.732-2.5874 94.797 4.1486 85.588-39.29-1.489-13.859-1.0226-26.189-1.1306-36.732 3.439-34.36 10.767-62.498 19.438-71.311 8.407-6.1731 18.577-10.842 30.294-14.279 93.103-24.462 208.45-22.046 251.77-55.891m-1007.5-37.664c20.237 6.3319 42.521 70.553 110.91 85.961 9.6752 3.4338 20.998 5.3356 33.953 5.5437 77.727 1.2484 126.96 50.726 163.52 93.124 11.329 14.527 22.826 30.414 35.179 44.491 33.192 40.178 94.206 97.177 148.86 128.77 32.79 18.957 64.719 29.762 90.546 23.474 21.175-2.1394 18.337-7.2957 3.7916-15.671-14.545-8.3754-31.711-36.814-28.573-61.426 4.8592-31.972 26.914-47.486 60.062-50.871 45.374-3.266 98.973 2.2708 92.56-40.274-0.44937-13.627 0.68408-25.731 0.766-36.033 4.479-33.977 9.6851-62.824 18.466-72.081 8.1768-6.079 18.117-10.681 29.636-14.06 93.108-24.107 203.37-25.955 245.15-58.591m-1001.5-34.057c22.486 7.0354 44.425 72.525 110.07 90.156 9.272 3.8883 20.221 6.2046 32.816 6.8047 75.569 3.6008 126.38 50.582 164.18 90.215 11.648 13.649 23.602 28.867 36.409 42.529 34.244 38.956 95.47 95.278 148.98 127.18 32.105 19.139 63.023 30.591 87.637 25.526 20.05-0.73925 16.218-4.4824 0.1979-11.939s-34.134-37.343-30.849-63.6c4.8763-32.705 27.35-49.592 62.141-53.543 47.016-3.9446 103.15 0.39299 99.531-41.257 0.59025-13.394 2.3908-25.273 2.6626-35.333 5.519-33.594 8.6028-63.15 17.494-72.85 7.9465-5.985 17.657-10.52 28.979-13.841 93.114-23.751 198.3-29.864 238.53-61.291m-995.41-30.45c24.735 7.7389 46.329 74.498 109.22 94.351 8.8689 4.3428 19.445 7.0735 31.68 8.0657 73.411 5.9533 125.8 50.438 164.84 87.306 11.967 12.772 24.377 27.32 37.64 40.568 35.297 37.734 96.735 93.379 149.1 125.58 31.421 19.321 61.326 31.419 84.729 27.578 18.925 0.66092 14.1-1.669-3.3959-8.2075-17.496-6.5384-36.557-37.872-33.126-65.774 4.8934-33.438 27.786-51.699 64.221-56.215 48.658-4.6233 107.33-1.4848 106.5-42.241 1.6299-13.162 4.0974-24.815 4.5591-34.634 6.559-33.211 7.5205-63.476 16.522-73.62 7.7162-5.8909 17.197-10.359 28.321-13.622 93.12-23.396 193.22-33.774 231.91-63.992m-989.36-26.843c26.983 8.4425 48.232 76.47 108.38 98.547 8.4658 4.7973 18.668 7.9424 30.543 9.3267 71.253 8.3058 125.21 50.294 165.5 84.397 12.286 11.894 25.152 25.774 38.871 38.606 36.349 36.512 97.999 91.48 149.23 123.99 30.737 19.504 59.63 32.248 81.82 29.63 17.8 2.0611 11.981 1.1443-6.9896-4.4757s-38.98-38.401-35.402-67.948c4.9106-34.171 28.222-53.806 66.3-58.888 50.3-5.3019 111.5-3.3626 113.47-43.224 2.6695-12.93 5.8041-24.358 6.4557-33.934 7.599-32.828 6.4381-63.802 15.55-74.39 7.486-5.7968 16.737-10.198 27.664-13.404 93.125-23.041 188.15-37.683 225.28-66.692m-983.31-23.236c29.232 9.146 50.136 78.443 107.53 102.74 8.0627 5.2518 17.891 8.8113 29.407 10.588 69.095 10.658 124.63 50.149 166.16 81.489 12.604 11.016 25.927 24.227 40.101 36.644 37.402 35.289 99.264 89.58 149.35 122.39 30.053 19.686 57.934 33.076 78.912 31.682 16.674 3.4613 9.8628 3.9576-10.583-0.74386-20.446-4.7015-41.402-38.931-37.678-70.122 4.9277-34.904 28.657-55.913 68.379-61.56 51.942-5.9806 115.68-5.2404 120.45-44.208 3.7091-12.698 7.5108-23.9 8.3522-33.235 8.639-32.445 5.3558-64.129 14.578-75.159 7.2557-5.7028 16.276-10.037 27.007-13.185 93.131-22.686 183.07-41.592 218.66-69.393m-977.27-19.628c31.48 9.8496 52.04 80.416 106.69 106.94 7.6595 5.7063 17.114 9.6802 28.271 11.849 66.937 13.011 124.05 50.005 166.82 78.58 12.923 10.138 26.703 22.68 41.332 34.683 38.455 34.067 100.53 87.681 149.48 120.8 29.368 19.869 56.238 33.904 76.004 33.734 15.549 4.8614 7.7443 6.7709-14.177 2.9879-21.921-3.783-43.825-39.46-39.954-72.295 4.9448-35.637 29.093-58.019 70.459-64.232 53.585-6.6592 119.86-7.1182 127.42-45.191 4.7488-12.466 9.2175-23.442 10.249-32.536 9.679-32.062 4.2734-64.455 13.606-75.929 7.0254-5.6087 15.816-9.8759 26.349-12.966 93.137-22.33 178-45.501 212.04-72.093m-971.22-16.021c33.729 10.553 53.944 82.388 105.85 111.13 7.2564 6.1608 16.338 10.549 27.134 13.11 64.779 15.363 123.47 49.861 167.48 75.671 13.242 9.2608 27.478 21.134 42.562 32.721 39.507 32.845 101.79 85.782 149.6 119.2 28.684 20.051 54.542 34.733 73.095 35.786 14.424 6.2616 5.6258 9.5843-17.771 6.7198-23.397-2.8645-46.248-39.989-42.23-74.469 4.962-36.37 29.529-60.126 72.538-66.905 55.227-7.3379 124.03-8.9961 134.39-46.175 5.7884-12.234 10.924-22.984 12.145-31.836 10.719-31.679 3.1911-64.781 12.633-76.699 6.7952-5.5146 15.356-9.7149 25.692-12.747 93.143-21.975 172.92-49.41 205.42-74.794m-965.17-12.414c35.978 11.257 55.847 84.361 105 115.33 6.8533 6.6153 15.561 11.418 25.998 14.371 62.621 17.716 122.89 49.717 168.14 72.762 13.56 8.3831 28.253 19.587 43.793 30.759 40.56 31.623 103.06 83.883 149.72 117.61 28 20.233 52.845 35.561 70.187 37.838 13.299 7.6618 3.5073 12.398-21.365 10.452-24.872-1.946-48.671-40.518-44.507-76.643 4.9791-37.103 29.965-62.233 74.617-69.577 56.869-8.0165 128.21-10.874 141.36-47.158 6.828-12.002 12.631-22.526 14.042-31.137 11.759-31.296 2.1088-65.107 11.661-77.468 6.5649-5.4206 14.896-9.554 25.034-12.528 93.148-21.62 167.85-53.319 198.79-77.494m-959.12-8.807c38.226 11.96 57.751 86.333 104.16 119.52 6.4502 7.0698 14.784 12.287 24.861 15.632 60.463 20.068 122.3 49.572 168.8 69.854 13.879 7.5054 29.029 18.041 45.023 28.798 41.612 30.401 104.32 81.984 149.85 116.01 27.316 20.416 51.149 36.39 67.279 39.89 12.174 9.062 1.3888 15.211-24.958 14.183-26.347-1.0275-51.094-41.048-46.783-78.817 4.9962-37.836 30.401-64.34 76.697-72.249 58.511-8.6952 132.39-12.752 148.33-48.142 7.8676-11.77 14.338-22.068 15.938-30.437 12.799-30.913 1.0264-65.433 10.689-78.238 6.3346-5.3265 14.436-9.393 24.377-12.309 93.154-21.264 162.77-57.228 192.17-80.194m-953.07-5.1998c40.475 12.664 59.655 88.306 103.31 123.72 6.047 7.5243 14.007 13.156 23.725 16.893 58.305 22.421 121.72 49.428 169.46 66.945 14.198 6.6277 29.804 16.494 46.254 26.836 42.665 29.178 105.59 80.085 149.97 114.41 26.632 20.598 49.453 37.218 64.37 41.942 11.049 10.462-0.72968 18.024-28.552 17.915-27.822-0.10906-53.517-41.577-49.059-80.991 5.0134-38.569 30.837-66.446 78.776-74.922 60.153-9.3738 136.56-14.629 155.3-49.125 8.9072-11.537 16.044-21.61 17.835-29.738 13.839-30.53-0.0559-65.759 9.717-79.008 6.1043-5.2324 13.976-9.2321 23.72-12.09 93.16-20.909 157.7-61.138 185.55-82.895m-947.02-1.5926c42.724 13.367 61.559 90.278 102.47 127.91 5.6439 7.9788 13.231 14.025 22.588 18.154 56.148 24.773 121.14 49.284 170.12 64.036 14.516 5.75 30.579 14.947 47.484 24.874 43.718 27.956 106.85 78.185 150.1 112.82 25.947 20.781 47.757 38.047 61.462 43.994 9.924 11.862-2.8482 20.838-32.146 21.647-29.298 0.80943-55.939-42.106-51.335-83.165 5.0305-39.302 31.273-68.553 80.855-77.594 61.795-10.052 140.74-16.507 162.28-50.109 9.9469-11.305 17.751-21.152 19.732-29.039 14.879-30.147-1.1383-66.085 8.7449-79.778 5.8741-5.1383 13.515-9.0711 23.062-11.872 93.166-20.554 152.62-65.047 178.93-85.595m-940.97 2.0145c44.972 14.071 63.462 92.251 101.62 132.11 5.2408 8.4332 12.454 14.894 21.452 19.415 53.99 27.126 120.56 49.14 170.78 61.127 14.835 4.8723 31.354 13.401 48.715 22.913 44.77 26.734 108.11 76.286 150.22 111.22 25.263 20.963 46.061 38.875 58.553 46.046 8.7989 13.262-4.9667 23.651-35.74 25.379-30.773 1.7279-58.362-42.635-53.612-85.339 5.0476-40.035 31.708-70.66 82.934-80.266 63.437-10.731 144.92-18.385 169.25-51.092 10.986-11.073 19.458-20.694 21.628-28.339 15.919-29.764-2.2206-66.411 7.7728-80.547 5.6438-5.0443 13.055-8.9102 22.405-11.653 93.171-20.198 147.55-68.956 172.31-88.296m-934.92 5.6217c47.221 14.774 65.366 94.223 100.78 136.3 4.8377 8.8877 11.677 15.763 20.316 20.676 51.832 29.478 119.97 48.996 171.44 58.219 15.154 3.9946 32.13 11.854 49.945 20.951 45.823 25.512 109.38 74.387 150.34 109.63 24.579 21.145 44.364 39.703 55.645 48.098 7.6738 14.663-7.0852 26.464-39.333 29.111-32.248 2.6464-60.785-43.165-55.888-87.513 5.0648-40.768 32.144-72.767 85.014-82.939 65.079-11.41 149.09-20.263 176.22-52.076 12.026-10.841 21.164-20.236 23.525-27.64 16.959-29.381-3.3029-66.737 6.8006-81.317 5.4135-4.9502 12.595-8.7492 21.748-11.434 93.177-19.843 142.47-72.865 165.68-90.996m-928.87 9.2288c49.469 15.478 67.27 96.196 99.936 140.5 4.4345 9.3422 10.9 16.632 19.179 21.937 49.674 31.831 119.39 48.851 172.1 55.31 15.472 3.1169 32.905 10.307 51.176 18.989 46.875 24.29 110.64 72.488 150.47 108.03 23.895 21.328 42.668 40.532 52.737 50.15 6.5487 16.063-9.2037 29.278-42.927 32.842-33.724 3.5649-63.208-43.694-58.164-89.687 5.0819-41.502 32.58-74.873 87.093-85.611 66.722-12.088 153.27-22.141 183.19-53.059 13.066-10.609 22.871-19.778 25.421-26.94 17.999-28.998-4.3853-67.063 5.8285-82.087 5.1832-4.8561 12.135-8.5883 21.09-11.215 93.183-19.488 137.4-76.774 159.06-93.697m-922.82 12.836c51.718 16.181 69.174 98.168 99.091 144.69 4.0314 9.7967 10.124 17.501 18.043 23.198 47.516 34.183 118.81 48.707 172.76 52.401 15.791 2.2392 33.68 8.7607 52.407 17.028 47.928 23.068 111.91 70.589 150.59 106.44 23.211 21.51 40.972 41.36 49.828 52.202 5.4236 17.463-11.322 32.091-46.521 36.574-35.199 4.4834-65.631-44.223-60.44-91.861 5.0991-42.235 33.016-76.98 89.172-88.283 68.364-12.767 157.45-24.019 190.16-54.043 14.105-10.377 24.578-19.32 27.318-26.241 19.039-28.615-5.4676-67.389 4.8564-82.856 4.953-4.7621 11.675-8.4273 20.433-10.996 93.188-19.132 132.32-80.683 152.44-96.397m-916.77 16.443c53.967 16.885 71.078 100.14 98.247 148.89 3.6283 10.251 9.3468 18.369 16.906 24.459 45.358 36.536 118.23 48.563 173.42 49.492 16.11 1.3616 34.456 7.2141 53.637 15.066 48.981 21.845 113.17 68.689 150.72 104.84 22.526 21.692 39.276 42.189 46.92 54.254 4.2985 18.863-13.441 34.904-50.115 40.306-36.674 5.4018-68.053-44.752-62.716-94.035 5.1162-42.968 33.452-79.087 91.252-90.956 70.006-13.446 161.62-25.896 197.13-55.026 15.145-10.145 26.284-18.863 29.214-25.541 20.079-28.232-6.55-67.715 3.8842-83.626 4.7227-4.668 11.215-8.2664 19.776-10.777 93.194-18.777 127.25-84.593 145.82-99.097m-910.72 20.05c56.215 17.589 72.981 102.11 97.403 153.08 3.2252 10.706 8.57 19.238 15.77 25.72 43.2 38.888 117.65 48.419 174.08 46.583 16.428 0.48387 35.231 5.6674 54.868 13.104 50.033 20.623 114.44 66.79 150.84 103.25 21.842 21.875 37.58 43.017 44.012 56.306 3.1734 20.263-15.559 37.717-53.708 44.038s-70.476-45.281-64.993-96.209c5.1333-43.701 33.888-81.193 93.331-93.628 71.648-14.124 165.8-27.774 204.1-56.01 16.185-9.9126 27.991-18.405 31.111-24.842 21.119-27.849-7.6323-68.041 2.9121-84.396 4.4924-4.5739 10.754-8.1054 19.118-10.558 93.2-18.422 122.17-88.502 139.19-101.8m-904.68 23.657c58.464 18.292 74.885 104.09 96.559 157.28 2.8221 11.16 7.7933 20.107 14.634 26.981 41.042 41.24 117.06 48.274 174.74 43.675 16.747-0.39381 36.006 4.1208 56.098 11.143 51.086 19.401 115.7 64.891 150.96 101.65 21.158 22.057 35.883 43.846 41.103 58.358 2.0483 21.664-17.678 40.531-57.302 47.77-39.625 7.2388-72.899-45.811-67.269-98.383 5.1505-44.434 34.323-83.3 95.41-96.3 73.29-14.803 169.98-29.652 211.08-56.993 17.224-9.6804 29.698-17.947 33.007-24.143 22.159-27.466-8.7146-68.367 1.94-85.165 4.2622-4.4798 10.294-7.9445 18.461-10.34 93.206-18.067 117.1-92.411 132.57-104.5m-898.63 27.265c60.712 18.996 76.789 106.06 95.714 161.48 2.4189 11.615 7.0165 20.976 13.497 28.242 38.884 43.593 116.48 48.13 175.39 40.766 17.066-1.2715 36.781 2.5742 57.329 9.1811 52.138 18.179 116.97 62.992 151.09 100.06 20.474 22.24 34.187 44.674 38.195 60.41 0.92325 23.064-19.796 43.344-60.896 51.501-41.1 8.1573-75.322-46.34-69.545-100.56 5.1676-45.167 34.759-85.407 97.49-98.973 74.932-15.482 174.15-31.53 218.05-57.977 18.264-9.4483 31.404-17.489 34.904-23.443 23.199-27.083-9.797-68.693 0.96784-85.935 4.0319-4.3858 9.8341-7.7835 17.803-10.121 93.211-17.711 112.02-96.32 125.95-107.2m-892.58 30.872c62.961 19.699 78.693 108.03 94.87 165.67 2.0158 12.069 6.2397 21.845 12.361 29.503 36.726 45.945 115.9 47.986 176.05 37.857 17.384-2.1492 37.557 1.0276 58.559 7.2195 53.191 16.957 118.23 61.093 151.21 98.463 19.79 22.422 32.491 45.502 35.286 62.463-0.20184 24.464-21.915 46.157-64.49 55.233-42.575 9.0758-77.745-46.869-71.821-102.73 5.1847-45.9 35.195-87.514 99.569-101.64 76.574-16.16 178.33-33.408 225.02-58.96 19.303-9.2162 33.111-17.031 36.801-22.744 24.239-26.7-10.879-69.019-4e-3 -86.705 3.8016-4.2917 9.374-7.6226 17.146-9.9018 93.217-17.356 106.95-100.23 119.33-109.9m-886.53 34.479c65.21 20.403 80.596 110 94.026 169.87 1.6127 12.524 5.463 22.714 11.224 30.764 34.568 48.298 115.32 47.842 176.71 34.948 17.703-3.0269 38.332-0.51908 59.79 5.2578 54.244 15.734 119.49 59.193 151.34 96.867 19.105 22.604 30.795 46.331 32.378 64.515-1.3269 25.864-24.033 48.971-68.083 58.965-44.05 9.9943-80.167-47.398-74.098-104.9 5.2019-46.633 35.631-89.62 101.65-104.32 78.217-16.839 182.5-35.285 231.99-59.944 20.343-8.9841 34.818-16.573 38.697-22.044 25.279-26.317-11.962-69.345-0.97643-87.475 3.5714-4.1976 8.9138-7.4616 16.489-9.683 93.223-17.001 101.87-104.14 112.7-112.6m-880.48 38.086c67.458 21.106 82.5 111.98 93.182 174.06 1.2096 12.978 4.6862 23.583 10.088 32.025 32.41 50.65 114.74 47.697 177.37 32.04 18.022-3.9046 39.107-2.0657 61.02 3.2961 55.296 14.512 120.76 57.294 151.46 95.272 18.421 22.787 29.098 47.159 29.47 66.567-2.452 27.264-26.152 51.784-71.677 62.697-45.526 10.913-82.59-47.928-76.374-107.08 5.219-47.366 36.067-91.727 103.73-106.99 79.859-17.518 186.68-37.163 238.96-60.927 21.383-8.7519 36.524-16.115 40.594-21.345 26.319-25.934-13.044-69.671-1.9486-88.244 3.3411-4.1036 8.4536-7.3007 15.831-9.4641 93.229-16.645 96.798-108.05 106.08-115.3m-874.43 41.693c69.707 21.81 84.404 113.95 92.337 178.26 0.80643 13.433 3.9095 24.452 8.9515 33.286 30.252 53.003 114.15 47.553 178.03 29.131 18.34-4.7823 39.883-3.6124 62.251 1.3345 56.349 13.29 122.02 55.395 151.59 93.677 17.737 22.969 27.402 47.988 26.561 68.619-3.5771 28.664-28.27 54.597-75.271 66.429-47.001 11.831-85.013-48.457-78.65-109.25 5.2362-48.099 36.503-93.834 105.81-109.66 81.501-18.196 190.86-39.041 245.93-61.911 22.422-8.5198 38.231-15.657 42.49-20.646 27.359-25.551-14.126-69.997-2.9207-89.014 3.1108-4.0095 7.9934-7.1397 15.174-9.2453 93.234-16.29 91.723-111.96 99.46-118m-868.38 45.3c71.955 22.513 86.308 115.92 91.493 182.45 0.40331 13.887 3.1327 25.321 7.8151 34.547 28.094 55.355 113.57 47.409 178.69 26.222 18.659-5.6599 40.658-5.159 63.482-0.62719 57.401 12.068 123.29 53.496 151.71 92.082 17.053 23.152 25.706 48.816 23.653 70.671-4.7022 30.065-30.389 57.411-78.865 70.16-48.476 12.75-87.436-48.986-80.926-111.43 5.2533-48.832 36.938-95.941 107.89-112.33 83.143-18.875 195.03-40.919 252.91-62.894 23.462-8.2877 39.938-15.199 44.387-19.946 28.399-25.168-15.209-70.323-3.8928-89.784 2.8805-3.9154 7.5333-6.9788 14.517-9.0264 93.24-15.935 86.648-115.87 92.838-120.7m-862.33 48.908c74.204 23.217 88.211 117.89 90.649 186.65 1.9e-4 14.342 2.356 26.19 6.6787 35.808 25.936 57.708 112.99 47.265 179.35 23.313 18.978-6.5376 41.433-6.7056 64.712-2.5888 58.454 10.846 124.55 51.597 151.83 90.487 16.368 23.334 24.01 49.645 20.744 72.723-5.8273 31.465-32.507 60.224-82.459 73.892-49.951 13.668-89.859-49.515-83.203-113.6 5.2704-49.565 37.374-98.047 109.97-115.01 84.785-19.553 199.21-42.797 259.88-63.878 24.502-8.0556 41.644-14.741 46.283-19.247 29.439-24.785-16.291-70.65-4.865-90.553 2.6503-3.8213 7.0731-6.8179 13.859-8.8076 93.246-15.579 81.573-119.77 86.215-123.4m-856.28 52.515c76.453 23.92 90.115 119.87 89.804 190.84-0.40293 14.796 1.5792 27.059 5.5422 37.069 23.778 60.06 112.41 47.121 180.01 20.405 19.296-7.4153 42.208-8.2523 65.943-4.5505 59.507 9.6236 125.82 49.698 151.96 88.891 15.684 23.516 22.314 50.473 17.836 74.775-6.9524 32.865-34.626 63.037-86.052 77.624-51.427 14.587-92.281-50.045-85.479-115.77 5.2876-50.298 37.81-100.15 112.04-117.68 86.427-20.232 203.39-44.674 266.85-64.861 25.541-7.8234 43.351-14.283 48.18-18.547 30.479-24.402-17.373-70.976-5.8371-91.323 2.42-3.7273 6.6129-6.6569 13.202-8.5887 93.252-15.224 76.498-123.68 79.593-126.1m-850.23 56.122c78.701 24.624 92.019 121.84 88.96 195.04-0.80606 15.251 0.80245 27.928 4.4058 38.33 21.62 62.413 111.82 46.976 180.67 17.496 19.615-8.293 42.984-9.7989 67.173-6.5122 60.559 8.4014 127.08 47.798 152.08 87.296 15 23.699 20.617 51.301 14.928 76.827-8.0775 34.265-36.744 65.851-89.646 81.356s-94.704-50.574-87.755-117.95c5.3047-51.031 38.246-102.26 114.12-120.35 88.069-20.911 207.56-46.552 273.82-65.845 26.581-7.5913 45.058-13.825 50.076-17.848 31.519-24.019-18.456-71.302-6.8092-92.093 2.1897-3.6332 6.1528-6.496 12.544-8.3698 93.257-14.869 71.424-127.59 72.971-128.8m-844.18 59.729c80.95 25.327 93.923 123.81 88.116 199.23-1.2092 15.705 0.0257 28.797 3.2694 39.591 19.462 64.765 111.24 46.832 181.33 14.587 19.934-9.1707 43.759-11.346 68.404-8.4738 61.612 7.1792 128.35 45.899 152.21 85.701 14.316 23.881 18.921 52.13 12.019 78.879-9.2026 35.665-38.863 68.664-93.24 85.088s-97.127-51.103-90.031-120.12c5.3218-51.764 38.682-104.37 116.2-123.02 89.712-21.589 211.74-48.43 280.79-66.828 27.62-7.3592 46.764-13.368 51.973-17.149 32.559-23.636-19.538-71.628-7.7813-92.862 1.9594-3.5391 5.6926-6.335 11.887-8.151 93.263-14.513 66.349-131.5 66.349-131.5" fill="none" stroke="url(#linearGradient3595-6)" stroke-width=".61982px"/>
<path d="m902.02 65.321v460.44h-959.27l7e-6 -462.28 480.59 353.35z" fill="#1b1e20" stop-color="#000000" style="-inkscape-stroke:none;font-variation-settings:normal"/>
<g transform="matrix(3.403 0 0 3.403 -191.62 184.4)" opacity=".02" stroke-width=".6884">
<g transform="translate(0 77.637)" opacity=".075" stroke-width=".6884">
<path d="m-21.655-173.61 202.37 148.61 202.37-148.61v16.181l-202.37 148.61-202.37-148.61z" fill="url(#linearGradient21995-7)" stop-color="#000000" style="-inkscape-stroke:none;font-variation-settings:normal"/>
<path d="m-21.655-193.8 202.37 148.61 202.37-148.61v22.391l-202.37 148.61-202.37-148.61z" fill="url(#linearGradient21997-5)"/>
<path d="m-21.655-157.94 202.37 148.61 202.37-148.61v1.7412l-202.37 148.61-202.37-148.61z" fill="url(#linearGradient21999-5)" stop-color="#000000" style="-inkscape-stroke:none;font-variation-settings:normal;paint-order:stroke fill markers"/>
</g>
<path d="m-21.656-22.398v20.919l191.38 140.54 10.981 23.178 10.981-23.178 191.38-140.54v-20.919l-202.37 148.61z" fill="url(#linearGradient22001-2)" stop-color="#000000" style="-inkscape-stroke:none;font-variation-settings:normal"/>
<path d="m191.22 138.75-10.513 23.491 202.37-148.61v-15.771z" fill="url(#linearGradient22003-9)"/>
<path d="m-21.656-2.1353v15.771l202.37 148.61-10.513-23.491z" fill="url(#linearGradient22005-1)"/>
<path d="m-21.656-2.1353v1.3126l190.92 140.2 11.449 22.866 11.449-22.866 190.92-140.2v-1.3126l-191.85 140.89-10.513 21.102-10.513-21.102-191.54-140.66z" color="#000000" fill="url(#linearGradient22007-2)" stroke-linecap="square" stroke-width=".18214" style="-inkscape-stroke:none"/>
<path d="m-21.655-41.581 202.37 148.61 202.37-148.61v21.473l-202.37 148.61-202.37-148.61z" fill="url(#linearGradient22009-0)" stop-color="#000000" style="-inkscape-stroke:none;font-variation-settings:normal"/>
<path d="m-21.655-23.098 202.37 148.61 202.37-148.61v2.9889l-202.37 148.61-202.37-148.61z" fill="url(#linearGradient22011-9)" stop-color="#000000" style="-inkscape-stroke:none;font-variation-settings:normal;paint-order:stroke fill markers"/>
<path d="m-21.655-62.914 202.37 148.61 202.37-148.61v22.391l-202.37 148.61-202.37-148.61z" fill="url(#linearGradient22013-6)"/>
<path d="m-21.655-64.05 202.37 148.61 202.37-148.61v1.7412l-202.37 148.61-202.37-148.61z" fill="url(#linearGradient22015-0)" stop-color="#000000" style="-inkscape-stroke:none;font-variation-settings:normal;paint-order:stroke fill markers"/>
<path d="m191.22 138.75-10.513 23.491 202.37-148.61v-15.771z" fill="url(#linearGradient22017-2)"/>
<path d="m170.2 138.75 10.513 23.491-202.37-148.61-2e-6 -15.771z" fill="url(#linearGradient22019-6)"/>
</g>
<g transform="matrix(2.3426,0,0,2.3426,8.6778e-6,219.18)" opacity=".02">
<path d="m-21.655-173.61 202.37 148.61 202.37-148.61v16.181l-202.37 148.61-202.37-148.61z" fill="url(#linearGradient21995-7)" stop-color="#000000" style="-inkscape-stroke:none;font-variation-settings:normal"/>
<path d="m-21.655-193.8 202.37 148.61 202.37-148.61v22.391l-202.37 148.61-202.37-148.61z" fill="url(#linearGradient21997-5)"/>
<path d="m-21.655-157.94 202.37 148.61 202.37-148.61v1.7412l-202.37 148.61-202.37-148.61z" fill="url(#linearGradient21999-5)" stop-color="#000000" style="-inkscape-stroke:none;font-variation-settings:normal;paint-order:stroke fill markers"/>
</g>
<path d="m447.96 362.35-24.628 55.031 474.07-348.13v-36.944z" fill="url(#linearGradient24593-1)"/>
<path d="m-50.731 32.302v36.944l474.07 348.13-24.628-55.031z" fill="url(#linearGradient78325-8)"/>
<path d="m-50.731 32.302v3.0749l447.24 328.43 26.822 53.566 26.822-53.566 447.24-328.43v-3.0749l-449.44 330.04-24.628 49.433-24.628-49.433-448.7-329.51z" color="#000000" fill="url(#linearGradient87990-7)" stroke-linecap="square" stroke-width=".61982" style="-inkscape-stroke:none"/>
<path d="m-50.73-60.105 474.07 348.13 474.07-348.13v50.303l-474.07 348.13-474.07-348.13z" fill="url(#linearGradient25753-9)" stop-color="#000000" style="-inkscape-stroke:none;font-variation-settings:normal"/>
<path d="m-50.73-16.804 474.07 348.13 474.07-348.13v7.0018l-474.07 348.13-474.07-348.13z" fill="url(#linearGradient25219-2)" stop-color="#000000" style="-inkscape-stroke:none;font-variation-settings:normal;paint-order:stroke fill markers"/>
<path d="m447.96 362.35-24.628 55.031 474.07-348.13v-36.944z" fill="url(#linearGradient14910-0)"/>
<path d="m398.71 362.35 24.628 55.031-474.07-348.13-5e-6 -36.944z" fill="url(#linearGradient15720-2)"/>
<path d="m260.38 263.84v7.3543l79.611 58.464v-7.3543zm0 11.073v11.626l79.611 58.464v-11.626zm79.611 73.654-79.611-58.464v4.9586l79.611 58.464z" fill="url(#linearGradient35006-37)"/>
<path d="m809.69 103.28v7.3543l-79.611 58.464v-7.3543zm0 11.073v11.626l-79.611 58.464v-11.626zm-79.611 73.654 79.611-58.464v4.9585l-79.611 58.464z" fill="url(#linearGradient35006-3-5)"/>
<path d="m423.33 290.5 474.47-346.84-0.40312-3.7749z" fill="#d0b2e4"/>
<path d="m423.33 290.5-474.47-346.84 0.40312-3.7749z" fill="#b2e3e4"/>
<path d="m-50.73-110.08 474.07 348.13 474.07-348.13v52.454l-474.07 348.13-474.07-348.13z" fill="url(#linearGradient26562-9)"/>
<g transform="matrix(1.9068 0 0 1.9083 103.98 62.921)" fill="none" stop-color="#000000" stroke="#235dc6" stroke-width=".64985" style="-inkscape-stroke:none;font-variation-settings:normal;paint-order:stroke fill markers">
<path d="m116.37 53.187v6.7346" stop-color="#000000" style="-inkscape-stroke:none;font-variation-settings:normal;paint-order:stroke fill markers"/>
<path d="m122.49 57.678v8.7187" stop-color="#000000" style="-inkscape-stroke:none;font-variation-settings:normal;paint-order:stroke fill markers"/>
<path d="m133.56 65.81v8.379" stop-color="#000000" style="-inkscape-stroke:none;font-variation-settings:normal;paint-order:stroke fill markers"/>
<path d="m128.48 62.077v4.1961" stop-color="#000000" style="-inkscape-stroke:none;font-variation-settings:normal;paint-order:stroke fill markers"/>
<circle cx="116.42" cy="61.028" r="1.21" stop-color="#000000" style="-inkscape-stroke:none;font-variation-settings:normal;paint-order:stroke fill markers"/>
<circle cx="122.45" cy="66.901" r=".64061" stop-color="#000000" style="-inkscape-stroke:none;font-variation-settings:normal;paint-order:stroke fill markers"/>
<circle cx="128.5" cy="67.357" r="1.21" stop-color="#000000" style="-inkscape-stroke:none;font-variation-settings:normal;paint-order:stroke fill markers"/>
<circle cx="133.55" cy="75.222" r="1.21" stop-color="#000000" style="-inkscape-stroke:none;font-variation-settings:normal;paint-order:stroke fill markers"/>
</g>
<path d="m65.914-8.9123v36.944l20.401 14.981v-36.944zm26.434 19.412v36.944l41.035 30.135v-36.946zm53.555 39.328 0.34259 37.196 25.737 18.9 0.0448-36.912zm35.589 26.135-0.48182 36.591 7.7695 5.7055v-36.946z" fill="url(#linearGradient34063-2)" stop-color="#000000" style="-inkscape-stroke:none;font-variation-settings:normal"/>
<path d="m578.06 281.48v17.11l-20.401 14.981v-17.11zm-26.434 19.412v17.11l-41.035 30.135v-17.112zm-53.555 39.328-0.34258 17.362-25.737 18.9-0.0447-17.078zm-35.589 26.135 0.48183 16.757-7.7695 5.7055v-17.112z" fill="url(#linearGradient53858-2)" stop-color="#000000" style="-inkscape-stroke:none;font-variation-settings:normal"/>
<g transform="matrix(2.3426,0,0,2.3426,8.6778e-6,91.343)" opacity=".02">
<path d="m-21.655-173.61 202.37 148.61 202.37-148.61v16.181l-202.37 148.61-202.37-148.61z" fill="url(#linearGradient21995-7)" stop-color="#000000" style="-inkscape-stroke:none;font-variation-settings:normal"/>
<path d="m-21.655-193.8 202.37 148.61 202.37-148.61v22.391l-202.37 148.61-202.37-148.61z" fill="url(#linearGradient21997-5)"/>
<path d="m-21.655-157.94 202.37 148.61 202.37-148.61v1.7412l-202.37 148.61-202.37-148.61z" fill="url(#linearGradient21999-5)" stop-color="#000000" style="-inkscape-stroke:none;font-variation-settings:normal;paint-order:stroke fill markers"/>
</g>
<path d="m236.75 107.87v40.778l58.771 43.16v-40.78z" fill="#7777e1" fill-opacity=".095564"/>
<path d="m278.36 196.82v17.271l144.98 106.84v-17.271zm0 20.99v6.6679l144.98 106.84v-6.6679z" fill="url(#linearGradient35392-8)"/>
<path d="m-0.081924 84.337v9.9642l76.844 56.431v-9.9654z" fill="url(#linearGradient37083-9)"/>
<path d="m206.74 104.05v24.416l188.29 138.28v-24.419z" fill="url(#linearGradient37280-7)"/>
<path d="m57.802 123.82v24.416l52.274 38.389v-8.3022zm62.204 61.795v8.3022l20.452 15.018v-8.3022zm25.399 18.651v8.3022l21.477 15.773v-8.3034zm36.54 26.834v8.3022l27.036 19.855v-8.3034zm35.054 25.742v8.3034l16.604 12.193v-8.3034zm23.207 17.041v8.3034l5.8895 4.3254v-8.3034z" fill="url(#linearGradient37849-3)"/>
<g transform="matrix(1.9068 0 0 1.9083 164.01 107.93)" fill="none" stroke="#235dc6" stroke-width=".64985">
<path d="m116.37 53.187v6.7346" stop-color="#000000" style="font-variation-settings:normal"/>
<path d="m122.49 57.678v8.7187"/>
<path d="m128.48 62.077v4.1961"/>
<circle cx="116.42" cy="61.028" r="1.21" stop-color="#000000" style="font-variation-settings:normal;paint-order:stroke fill markers"/>
<circle cx="122.45" cy="66.901" r=".64061" stop-color="#000000" style="font-variation-settings:normal;paint-order:stroke fill markers"/>
<circle cx="128.5" cy="67.357" r="1.21" stop-color="#000000" style="font-variation-settings:normal;paint-order:stroke fill markers"/>
<path d="m110.31 48.673v8.379"/>
<circle cx="110.3" cy="58.084" r="1.21" stop-color="#000000" style="font-variation-settings:normal;paint-order:stroke fill markers"/>
</g>
<path d="m-50.73-112.74 474.07 348.13 474.07-348.13v4.0789l-474.07 348.13-474.07-348.13z" fill="url(#linearGradient69576-6)" stop-color="#000000" style="-inkscape-stroke:none;font-variation-settings:normal;paint-order:stroke fill markers"/>
<path d="m578.79 155.9v36.944l-20.401 14.981v-36.944zm-26.434 19.412v36.944l-41.035 30.135v-36.946zm-53.555 39.328-0.34259 37.196-25.737 18.9-0.0447-36.912zm-35.589 26.135 0.48183 36.591-7.7695 5.7054v-36.946z" fill="url(#linearGradient53643-1)" stop-color="#000000" style="-inkscape-stroke:none;font-variation-settings:normal"/>
<path d="m783.42-33.312v24.416l-52.274 38.389v-8.3022zm-62.204 61.795v8.3022l-20.452 15.018v-8.3022zm-25.399 18.651v8.3022l-21.477 15.773v-8.3034zm-36.54 26.834v8.3022l-27.036 19.855v-8.3034zm-35.054 25.742v8.3034l-16.604 12.193v-8.3034zm-23.207 17.041v8.3034l-5.8895 4.3254v-8.3034z" fill="url(#linearGradient53697-2)"/>
<path d="m742.85 35.09v24.416l-188.29 138.28v-24.419z" fill="url(#linearGradient53804-9)"/>
<path d="m568.31 196.82v17.271l-144.98 106.84v-17.271zm0 20.99v6.6679l-144.98 106.84v-6.6679z" fill="url(#linearGradient5163-3)"/>
</svg>
