<?xml version="1.0" encoding="UTF-8"?>
<svg width="720" height="1440" version="1.1" viewBox="0 0 190.5 381" xmlns="http://www.w3.org/2000/svg" xmlns:xlink="http://www.w3.org/1999/xlink">
<defs>
<linearGradient id="linearGradient16905">
<stop stop-color="#1b668f" offset="0"/>
<stop stop-color="#121c94" offset=".5"/>
<stop stop-color="#382279" offset="1"/>
</linearGradient>
<linearGradient id="linearGradient78639">
<stop stop-color="#2936ea" offset="0"/>
<stop stop-color="#164593" offset="1"/>
</linearGradient>
<linearGradient id="linearGradient75480-3" x1="-21.655" x2="1378.4" y1="110.14" y2="110.14" gradientTransform="matrix(.49609 0 0 .49609 -243.58 -42.276)" gradientUnits="userSpaceOnUse" xlink:href="#linearGradient16905"/>
<linearGradient id="linearGradient3595-6" x1="-21.656" x2="383.08" y1="81.035" y2="81.035" gradientTransform="matrix(1.875 0 0 1.875 -243.58 -62.853)" gradientUnits="userSpaceOnUse">
<stop stop-color="#51d677" stop-opacity=".47843" offset="0"/>
<stop stop-color="#eded84" stop-opacity=".32941" offset=".26488"/>
<stop stop-color="#a9ebf6" stop-opacity=".19951" offset=".49538"/>
<stop stop-color="#e9bf9d" stop-opacity=".35686" offset=".74191"/>
<stop stop-color="#5138aa" stop-opacity=".52157" offset="1"/>
</linearGradient>
<linearGradient id="linearGradient21995-7" x1="-21.655" x2="383.08" y1="92.147" y2="92.147" gradientTransform="translate(0 -155.84)" gradientUnits="userSpaceOnUse">
<stop stop-color="#445feb" offset="0"/>
<stop stop-color="#252fb5" offset=".5"/>
<stop stop-color="#9b53c1" offset="1"/>
</linearGradient>
<linearGradient id="linearGradient21997-5" x1="-21.655" x2="383.08" y1="99.556" y2="99.556" gradientTransform="translate(0 -189.92)" gradientUnits="userSpaceOnUse">
<stop stop-color="#3410ab" stop-opacity=".67526" offset="0"/>
<stop stop-color="#169bd6" offset=".5"/>
<stop stop-color="#0940a2" stop-opacity=".56984" offset="1"/>
</linearGradient>
<linearGradient id="linearGradient21999-5" x1="-24.528" x2="386.16" y1="-24.045" y2="-24.045" gradientTransform="translate(0 -138.44)" gradientUnits="userSpaceOnUse">
<stop stop-color="#6a5e19" offset="0"/>
<stop stop-color="#85751e" stop-opacity=".98824" offset=".14669"/>
<stop stop-color="#8c7b20" stop-opacity=".96863" offset=".30531"/>
<stop stop-color="#bda62c" stop-opacity=".95686" offset=".51079"/>
<stop stop-color="#82721e" stop-opacity=".94902" offset=".6231"/>
<stop stop-color="#968623" stop-opacity=".99608" offset=".83541"/>
<stop stop-color="#4e4412" stop-opacity=".92157" offset="1"/>
</linearGradient>
<linearGradient id="linearGradient22001-2" x1="-21.655" x2="1378.4" y1="110.14" y2="110.14" gradientTransform="matrix(.26458 0 0 .26458 0 -4.9003)" gradientUnits="userSpaceOnUse" xlink:href="#linearGradient16905"/>
<linearGradient id="linearGradient22003-9" x1="181.04" x2="361.42" y1="110.14" y2="110.14" gradientTransform="translate(0 -18.521)" gradientUnits="userSpaceOnUse" xlink:href="#linearGradient78639"/>
<linearGradient id="linearGradient22005-1" x1="-21.655" x2="183.99" y1="110.14" y2="110.14" gradientTransform="translate(0 -18.521)" gradientUnits="userSpaceOnUse">
<stop stop-color="#2f38a6" offset="0"/>
<stop stop-color="#3d33eb" offset="1"/>
</linearGradient>
<linearGradient id="linearGradient22007-2" x1="-82.44" x2="1448.4" y1="345.52" y2="345.52" gradientTransform="scale(.26458)" gradientUnits="userSpaceOnUse" xlink:href="#linearGradient1294-7"/>
<linearGradient id="linearGradient1294-7">
<stop stop-color="#6a5e19" offset="0"/>
<stop stop-color="#d1b832" stop-opacity=".98824" offset=".14669"/>
<stop stop-color="#8c7b20" stop-opacity=".96863" offset=".30531"/>
<stop stop-color="#dbc865" stop-opacity=".95686" offset=".51079"/>
<stop stop-color="#82721e" stop-opacity=".94902" offset=".6231"/>
<stop stop-color="#968623" stop-opacity=".99608" offset=".83541"/>
<stop stop-color="#cfb530" stop-opacity=".92157" offset="1"/>
</linearGradient>
<linearGradient id="linearGradient22009-0" x1="-21.655" x2="383.08" y1="92.147" y2="92.147" gradientTransform="translate(0 -18.521)" gradientUnits="userSpaceOnUse">
<stop stop-color="#445feb" offset="0"/>
<stop stop-color="#4a55ed" offset=".5"/>
<stop stop-color="#9b53c1" offset="1"/>
</linearGradient>
<linearGradient id="linearGradient22011-9" x1="-24.528" x2="386.16" y1="-24.045" y2="-24.045" gradientTransform="translate(0 -2.3527)" gradientUnits="userSpaceOnUse" xlink:href="#linearGradient1056-3"/>
<linearGradient id="linearGradient1056-3">
<stop stop-color="#6a5e19" offset="0"/>
<stop stop-color="#85751e" stop-opacity=".98824" offset=".14669"/>
<stop stop-color="#a38f26" stop-opacity=".96863" offset=".30531"/>
<stop stop-color="#f5d737" stop-opacity=".95686" offset=".51079"/>
<stop stop-color="#968623" stop-opacity=".99608" offset=".83541"/>
<stop stop-color="#4e4412" stop-opacity=".92157" offset="1"/>
</linearGradient>
<linearGradient id="linearGradient22013-6" x1="-21.655" x2="383.08" y1="99.556" y2="99.556" gradientTransform="translate(0 -59.037)" gradientUnits="userSpaceOnUse">
<stop stop-color="#3410ab" stop-opacity=".67526" offset="0"/>
<stop stop-color="#2936e9" offset=".5"/>
<stop stop-color="#0940a2" stop-opacity=".56984" offset="1"/>
</linearGradient>
<linearGradient id="linearGradient22015-0" x1="-24.528" x2="386.16" y1="-24.045" y2="-24.045" gradientTransform="translate(0 -44.553)" gradientUnits="userSpaceOnUse" xlink:href="#linearGradient17531-6"/>
<linearGradient id="linearGradient17531-6">
<stop stop-color="#6a5e19" offset="0"/>
<stop stop-color="#85751e" stop-opacity=".98824" offset=".14669"/>
<stop stop-color="#8c7b20" stop-opacity=".96863" offset=".30531"/>
<stop stop-color="#d1b637" stop-opacity=".95686" offset=".51079"/>
<stop stop-color="#82721e" stop-opacity=".94902" offset=".6231"/>
<stop stop-color="#968623" stop-opacity=".99608" offset=".83541"/>
<stop stop-color="#4e4412" stop-opacity=".92157" offset="1"/>
</linearGradient>
<linearGradient id="linearGradient22017-2" x1="253.56" x2="239.42" y1="147.01" y2="130.45" gradientTransform="translate(0 -18.521)" gradientUnits="userSpaceOnUse">
<stop stop-color="#28ead8" stop-opacity=".58819" offset="0"/>
<stop stop-color="#164593" stop-opacity=".023098" offset="1"/>
</linearGradient>
<linearGradient id="linearGradient22019-6" x1="251.13" x2="241.25" y1="138.13" y2="126.04" gradientTransform="matrix(-1 0 0 1 361.42 -18.521)" gradientUnits="userSpaceOnUse">
<stop stop-color="#dc29ea" stop-opacity=".68736" offset="0"/>
<stop stop-color="#164593" stop-opacity=".023098" offset="1"/>
</linearGradient>
<linearGradient id="linearGradient24593-1" x1="181.04" x2="361.42" y1="110.14" y2="110.14" gradientTransform="matrix(1.875 0 0 1.875 -243.58 -67.814)" gradientUnits="userSpaceOnUse" xlink:href="#linearGradient78639"/>
<linearGradient id="linearGradient78325-8" x1="-21.655" x2="183.99" y1="110.14" y2="110.14" gradientTransform="matrix(1.875 0 0 1.875 -243.58 -67.814)" gradientUnits="userSpaceOnUse">
<stop stop-color="#2e3476" offset="0"/>
<stop stop-color="#3d33eb" offset="1"/>
</linearGradient>
<linearGradient id="linearGradient87990-7" x1="-82.44" x2="1448.4" y1="345.52" y2="345.52" gradientTransform="matrix(.49609 0 0 .49609 -243.58 -33.088)" gradientUnits="userSpaceOnUse" xlink:href="#linearGradient1294-7"/>
<linearGradient id="linearGradient25753-9" x1="-21.655" x2="383.08" y1="92.147" y2="92.147" gradientTransform="matrix(1.875 0 0 1.875 -243.58 -67.814)" gradientUnits="userSpaceOnUse">
<stop stop-color="#4465eb" offset="0"/>
<stop stop-color="#46a7e1" offset=".5"/>
<stop stop-color="#6b50c1" offset="1"/>
</linearGradient>
<linearGradient id="linearGradient25219-2" x1="-24.528" x2="386.16" y1="-24.045" y2="-24.045" gradientTransform="matrix(1.875 0 0 1.875 -243.58 -37.499)" gradientUnits="userSpaceOnUse" xlink:href="#linearGradient1056-3"/>
<linearGradient id="linearGradient14910-0" x1="253.56" x2="239.42" y1="147.01" y2="130.45" gradientTransform="matrix(1.875 0 0 1.875 -243.58 -67.814)" gradientUnits="userSpaceOnUse">
<stop stop-color="#e06fea" stop-opacity=".39011" offset="0"/>
<stop stop-color="#164593" stop-opacity=".023098" offset="1"/>
</linearGradient>
<linearGradient id="linearGradient15720-2" x1="251.13" x2="241.25" y1="138.13" y2="126.04" gradientTransform="matrix(-1.875 0 0 1.875 434.08 -67.814)" gradientUnits="userSpaceOnUse">
<stop stop-color="#dc29ea" stop-opacity=".18321" offset="0"/>
<stop stop-color="#164593" stop-opacity=".023098" offset="1"/>
</linearGradient>
<linearGradient id="linearGradient35006-37" x1="542.26" x2="409.86" y1="531.52" y2="437.69" gradientTransform="matrix(.49609 0 0 .49609 -243.58 -62.853)" gradientUnits="userSpaceOnUse">
<stop stop-color="#9e80dc" stop-opacity=".08" offset="0"/>
<stop stop-color="#9e80dc" stop-opacity="0" offset="1"/>
</linearGradient>
<linearGradient id="linearGradient35006-3-5" x1="542.26" x2="409.86" y1="531.52" y2="437.69" gradientTransform="matrix(-.49609 0 0 .49609 612.89 -191.37)" gradientUnits="userSpaceOnUse">
<stop stop-color="#9e80dc" stop-opacity=".12323" offset="0"/>
<stop stop-color="#9e80dc" stop-opacity="0" offset="1"/>
</linearGradient>
<linearGradient id="linearGradient26562-9" x1="-21.655" x2="383.08" y1="99.556" y2="99.556" gradientTransform="matrix(1.875 0 0 1.875 -243.58 -143.78)" gradientUnits="userSpaceOnUse">
<stop stop-color="#0031b6" offset="0"/>
<stop stop-color="#255cc7" offset=".5"/>
<stop stop-color="#3d3dd3" offset="1"/>
</linearGradient>
<linearGradient id="linearGradient34063-2" x1="79.735" x2="21.187" y1="42.158" y2="1.0037" gradientTransform="matrix(1.875 0 0 1.875 -243.58 -62.853)" gradientUnits="userSpaceOnUse">
<stop stop-color="#9e7fdc" stop-opacity=".1" offset="0"/>
<stop stop-color="#9e7fdc" stop-opacity="0" offset="1"/>
</linearGradient>
<linearGradient id="linearGradient53858-2" x1="79.735" x2="21.187" y1="42.158" y2="1.0037" gradientTransform="matrix(-1.875 0 0 1.875 271.85 153.7)" gradientUnits="userSpaceOnUse">
<stop stop-color="#7fdcdb" stop-opacity=".07" offset="0"/>
<stop stop-color="#9e7fdc" stop-opacity="0" offset="1"/>
</linearGradient>
<linearGradient id="linearGradient35392-8" x1="654.09" x2="409.86" y1="615.36" y2="437.69" gradientTransform="matrix(.49609 0 0 .49609 -229.2 -116.49)" gradientUnits="userSpaceOnUse">
<stop stop-color="#b1cdef" stop-opacity=".26275" offset="0"/>
<stop stop-color="#9e80dc" stop-opacity="0" offset="1"/>
</linearGradient>
<linearGradient id="linearGradient37083-9" x1="32.688" x2="-4.3074" y1="61.359" y2="35.59" gradientTransform="matrix(1.875 0 0 1.875 -243.58 -62.853)" gradientUnits="userSpaceOnUse">
<stop stop-color="#a9e3ed" stop-opacity=".05" offset="0"/>
<stop stop-color="#a9e3ed" stop-opacity="0" offset="1"/>
</linearGradient>
<linearGradient id="linearGradient37280-7" x1="32.688" x2="-4.3074" y1="61.359" y2="35.59" gradientTransform="matrix(4.5944 0 0 4.5944 -77.946 -144.84)" gradientUnits="userSpaceOnUse">
<stop stop-color="#60cbde" stop-opacity=".059582" offset="0"/>
<stop stop-color="#a9e3ed" stop-opacity="0" offset="1"/>
</linearGradient>
<linearGradient id="linearGradient37849-3" x1="32.688" x2="-4.3074" y1="61.359" y2="35.59" gradientTransform="matrix(4.5944 0 0 4.5944 -197.16 -129.02)" gradientUnits="userSpaceOnUse">
<stop stop-color="#84b0b8" stop-opacity=".05" offset="0"/>
<stop stop-color="#a9e3ed" stop-opacity="0" offset="1"/>
</linearGradient>
<linearGradient id="linearGradient69576-6" x1="-24.528" x2="386.16" y1="-24.045" y2="-24.045" gradientTransform="matrix(1.875 0 0 1.875 -243.58 -116.62)" gradientUnits="userSpaceOnUse" xlink:href="#linearGradient17531-6"/>
<linearGradient id="linearGradient53643-1" x1="79.735" x2="21.187" y1="42.158" y2="1.0037" gradientTransform="matrix(-1.875 0 0 1.875 272.43 69.059)" gradientUnits="userSpaceOnUse">
<stop stop-color="#dc7fdc" stop-opacity=".08" offset="0"/>
<stop stop-color="#9e7fdc" stop-opacity="0" offset="1"/>
</linearGradient>
<linearGradient id="linearGradient53697-2" x1="32.688" x2="-4.3074" y1="61.359" y2="35.59" gradientTransform="matrix(-4.5944 0 0 4.5944 383.3 -254.79)" gradientUnits="userSpaceOnUse">
<stop stop-color="#a9e3ed" stop-opacity=".06" offset="0"/>
<stop stop-color="#a9e3ed" stop-opacity="0" offset="1"/>
</linearGradient>
<linearGradient id="linearGradient53804-9" x1="32.688" x2="-4.3074" y1="61.359" y2="35.59" gradientTransform="matrix(-4.5944 0 0 4.5944 350.83 -200.04)" gradientUnits="userSpaceOnUse">
<stop stop-color="#dd83f2" stop-opacity=".12549" offset="0"/>
<stop stop-color="#a9e3ed" stop-opacity="0" offset="1"/>
</linearGradient>
<linearGradient id="linearGradient5163-3" x1="654.09" x2="409.86" y1="615.36" y2="437.69" gradientTransform="matrix(-.49609 0 0 .49609 419.7 -116.49)" gradientUnits="userSpaceOnUse">
<stop stop-color="#b1cdef" stop-opacity=".14678" offset="0"/>
<stop stop-color="#9e80dc" stop-opacity="0" offset="1"/>
</linearGradient>
</defs>
<rect width="190.5" height="381" fill="#1b1e20" stop-color="#000000" style="-inkscape-stroke:none;font-variation-settings:normal;paint-order:stroke fill markers"/>
<path d="m-284.19-75.084v39.223l358.85 263.52 20.59 43.46 20.59-43.46 358.85-263.52v-39.223l-379.44 278.64z" fill="url(#linearGradient75480-3)" stop-color="#000000" style="-inkscape-stroke:none;font-variation-settings:normal"/>
<path d="m-321.12-33.15s20.32 42.261 94.854 38.582c10.648-0.52557 22.402-1.9887 35.361-4.6465 77.757-15.947 105.81 41.64 126.13 95.488 6.7724 17.95 12.685 35.484 19.293 49.741 18.984 40.962 66.293 91.46 118.25 114.56 31.173 13.859 64.019 17.854 93.422 4.0062 25.053-11.799 29.937-26.105 28.922-39.425-1.0148-13.32-7.9287-25.653-6.4729-33.505 3.7658-20.31 18.402-22.831 33.095-21.466 24.488 2.2745 49.131 15.344 23.864-25.15-7.8486-12.579-11.747-23.894-13.049-33.878-3.9066-29.954 15.548-47.935 21.783-52.148 8.2034-5.5432 17.816-9.708 28.456-12.83 74.481-21.854 199.33 7.3853 243.92-27.443m-845.13-53.243c1.7998 0.5631 21.843 43.84 94.178 41.94 10.325-0.1618 21.78-1.2932 34.452-3.6372 76.029-14.064 105.34 41.524 126.66 93.16 7.0274 17.247 13.306 34.246 20.277 48.171 19.826 39.984 67.305 89.94 118.35 113.28 30.625 14.005 62.661 18.517 91.094 5.6486 24.152-10.678 28.242-23.853 26.046-36.438-2.1955-12.585-9.8679-26.077-8.2947-35.245 3.7795-20.896 18.751-24.517 34.759-23.605 25.802 1.7314 52.474 13.841 29.444-25.937-7.0165-12.393-10.381-23.527-11.531-33.318-3.0742-29.647 14.682-48.196 21.005-52.764 8.019-5.4679 17.447-9.5792 27.93-12.655 74.486-21.57 195.27 4.2565 238.62-29.604m-840.29-50.356c3.5995 1.1262 23.367 45.418 93.502 45.297 10.002 0.20197 21.159-0.59774 33.542-2.6279 74.302-12.181 104.88 41.409 127.18 90.832 7.2825 16.545 13.926 33.008 21.262 46.601 20.669 39.006 68.317 88.42 118.45 112 30.078 14.151 61.303 19.18 88.766 7.2911 23.252-9.5571 26.546-21.602 23.17-33.451s-11.807-26.5-10.117-36.985c3.7932-21.483 19.1-26.203 36.423-25.744 27.116 1.1882 55.817 12.338 35.024-26.724-6.1844-12.207-9.0145-23.161-10.013-32.759-2.2418-29.341 13.816-48.457 20.227-53.38 7.8347-5.3926 17.079-9.4504 27.403-12.48 74.491-21.285 191.21 1.1277 233.32-31.766m-835.45-47.469c5.3993 1.6893 24.891 46.997 92.827 48.655 9.6798 0.56574 20.537 0.09774 32.633-1.6186 72.575-10.298 104.41 41.293 127.71 88.504 7.5376 15.842 14.547 31.77 22.247 45.031 21.511 38.027 69.329 86.9 118.55 110.73 29.53 14.297 59.946 19.843 86.439 8.9335 22.351-8.4365 24.85-19.35 20.293-30.464s-13.746-26.924-11.938-38.725c3.8069-22.07 19.449-27.89 38.087-27.883 28.431 0.645 59.16 10.835 40.604-27.512-5.3523-12.021-7.6485-22.794-8.4948-32.199-1.4094-29.034 12.95-48.718 19.449-53.996 7.6504-5.3174 16.711-9.3215 26.877-12.305 74.495-21.001 187.15-2.0012 228.02-33.927m-830.61-44.582c7.199 2.2524 26.415 48.576 92.151 52.013 9.3571 0.92952 19.915 0.79321 31.723-0.60934 70.848-8.4153 103.95 41.178 128.24 86.176 7.7926 15.14 15.167 30.532 23.232 43.461 22.354 37.049 70.341 85.38 118.65 109.45 28.983 14.443 58.588 20.506 84.111 10.576 21.451-7.3158 23.155-17.098 17.417-27.477-5.7379-10.379-15.685-27.347-13.76-40.465 3.8206-22.656 19.798-29.576 39.752-30.022 29.745 0.10183 62.503 9.3324 46.184-28.299-4.5202-11.835-6.2825-22.428-6.9768-31.639-0.57702-28.728 12.083-48.979 18.671-54.612 7.4661-5.2421 16.342-9.1927 26.351-12.129 74.5-20.717 183.09-5.13 222.72-36.089m-825.77-41.695c8.9988 2.8155 27.938 50.155 91.475 55.371 9.0345 1.2933 19.293 1.4887 30.814 0.39995 69.121-6.5324 103.48 41.062 128.77 83.848 8.0477 14.437 15.788 29.294 24.217 41.89 23.196 36.071 71.353 83.86 118.74 108.17 28.435 14.589 57.231 21.169 81.783 12.218 20.55-6.1951 21.459-14.846 14.54-24.491-6.9186-9.6442-17.625-27.771-15.582-42.205 3.8343-23.243 20.146-31.262 41.416-32.161 31.059-0.44136 65.846 7.8294 51.764-29.086-3.6881-11.65-4.9165-22.061-5.4588-31.079 0.25538-28.421 11.217-49.24 17.892-55.228 7.2818-5.1668 15.974-9.0639 25.825-11.954 74.504-20.432 179.02-8.2589 217.42-38.25m-820.92-38.807c10.799 3.3786 29.462 51.733 90.799 58.729 8.7118 1.6571 18.672 2.1842 29.904 1.4092 67.393-4.6495 103.01 40.947 129.3 81.52 8.3028 13.735 16.408 28.056 25.202 40.32 24.039 35.093 72.365 82.34 118.84 106.9 27.887 14.735 55.873 21.832 79.455 13.861 19.65-5.0744 19.763-12.595 11.664-21.504-8.0994-8.909-19.564-28.195-17.404-43.945 3.8481-23.83 20.495-32.948 43.08-34.3 32.374-0.98453 69.188 6.3265 57.344-29.873-2.856-11.464-3.5505-21.694-3.9408-30.519 1.0878-28.114 10.351-49.501 17.114-55.844 7.0975-5.0915 15.606-8.9351 25.299-11.779 74.509-20.148 174.96-11.388 212.12-40.411m-816.08-35.92c12.598 3.9417 30.986 53.312 90.124 62.087 8.3892 2.0208 18.05 2.8796 28.994 2.4185 65.666-2.7666 102.55 40.832 129.82 79.191 8.5578 13.032 17.029 26.818 26.187 38.75 24.881 34.115 73.377 80.82 118.94 105.62 27.34 14.881 54.515 22.495 77.127 15.503 18.749-3.9537 18.068-10.343 8.7876-18.517-9.2802-8.1739-21.503-28.618-19.226-45.685 3.8618-24.417 20.844-34.635 44.744-36.439 33.688-1.5277 72.531 4.8235 62.924-30.66-2.0239-11.278-2.1845-21.328-2.4229-29.96 1.9202-27.808 9.4844-49.762 16.336-56.46 6.9132-5.0162 15.237-8.8063 24.773-11.604 74.514-19.864 170.9-14.517 206.82-42.573m-811.24-33.033c14.398 4.5048 32.51 54.891 89.448 65.444 8.0665 2.3846 17.428 3.5751 28.085 3.4278 63.939-0.88372 102.08 40.716 130.35 76.863 8.8129 12.33 17.649 25.581 27.172 37.18 25.724 33.136 74.389 79.3 119.04 104.34 26.792 15.027 53.158 23.158 74.799 17.146 17.849-2.8331 16.372-8.0911 5.9112-15.53s-23.442-29.042-21.048-47.425c3.8755-25.003 21.193-36.321 46.409-38.577 35.002-2.0709 75.874 3.3205 68.504-31.448-1.1918-11.092-0.81848-20.961-0.90488-29.4 2.7526-27.501 8.6182-50.023 15.558-57.076 6.7289-4.9409 14.869-8.6774 24.247-11.429 74.518-19.579 166.84-17.645 201.52-44.734m-806.4-30.146c16.198 5.0679 34.033 56.47 88.772 68.802 7.7439 2.7484 16.807 4.2706 27.175 4.4371 62.212 0.99917 101.62 40.601 130.88 74.535 9.068 11.627 18.27 24.343 28.157 35.61 26.566 32.158 75.401 77.779 119.14 103.07 26.244 15.173 51.8 23.821 72.472 18.788 16.948-1.7124 14.677-5.8394 3.0348-12.543-11.642-6.7036-25.381-29.465-22.87-49.164 3.8892-25.59 21.542-38.007 48.073-40.716 36.317-2.6141 79.217 1.8175 74.084-32.235-0.35967-10.907 0.54753-20.595 0.6131-28.84 3.585-27.195 7.7519-50.284 14.78-57.692 6.5446-4.8656 14.501-8.5486 23.72-11.254 74.523-19.295 162.78-20.774 196.22-46.896m-801.56-27.259c17.998 5.6311 35.557 58.049 88.096 72.16 7.4212 3.1121 16.185 4.9661 26.266 5.4464 60.485 2.8821 101.15 40.485 131.41 72.207 9.323 10.925 18.89 23.105 29.142 34.04 27.409 31.18 76.413 76.259 119.24 101.79 25.697 15.319 50.442 24.484 70.144 20.431 16.048-0.59169 12.981-3.5876 0.15839-9.5561-12.823-5.9684-27.32-29.889-24.691-50.904 3.9029-26.177 21.891-39.693 49.737-42.855 37.631-3.1572 82.56 0.31455 79.664-33.022 0.47243-10.721 1.9135-20.228 2.1311-28.28 4.4173-26.888 6.8856-50.545 14.002-58.308 6.3603-4.7903 14.132-8.4198 23.194-11.078 74.527-19.01 158.72-23.903 190.92-49.057m-796.72-24.372c19.797 6.1942 37.081 59.627 87.421 75.518 7.0986 3.4759 15.563 5.6615 25.356 6.4557 58.757 4.765 100.69 40.37 131.94 69.879 9.5781 10.222 19.511 21.867 30.127 32.47 28.251 30.202 77.425 74.739 119.34 100.51 25.149 15.465 49.085 25.147 67.816 22.073 15.147 0.52899 11.285-1.3359-2.718-6.5692s-29.26-30.312-26.513-52.644c3.9166-26.763 22.239-41.379 51.401-44.994 38.945-3.7004 85.903-1.1884 85.244-33.809 1.3045-10.535 3.2795-19.862 3.6491-27.72 5.2497-26.582 6.0193-50.806 13.224-58.925 6.176-4.715 13.764-8.291 22.668-10.903 74.532-18.726 154.65-27.032 185.61-51.218m-791.87-21.485c21.597 6.7573 38.605 61.206 86.745 78.876 6.7759 3.8397 14.941 6.357 24.447 7.465 57.03 6.6478 100.22 40.254 132.46 67.551 9.8332 9.5197 20.131 20.629 31.112 30.9 29.094 29.223 78.437 73.219 119.44 99.237 24.601 15.611 47.727 25.81 65.488 23.715 14.247 1.6497 9.5897 0.91587-5.5944-3.5823-15.184-4.4982-31.199-30.736-28.335-54.384 3.9304-27.35 22.588-43.066 53.066-47.133 40.26-4.2436 89.246-2.6914 90.824-34.596 2.1366-10.349 4.6455-19.495 5.167-27.161 6.0821-26.275 5.153-51.067 12.446-59.541 5.9917-4.6397 13.396-8.1622 22.142-10.728 74.536-18.442 150.59-30.161 180.31-53.38m-787.03-18.597c23.397 7.3204 40.128 62.785 86.069 82.233 6.4532 4.2035 14.32 7.0525 23.537 8.4743 55.303 8.5307 99.753 40.139 132.99 65.223 10.088 8.8172 20.752 19.391 32.096 29.33 29.936 28.245 79.449 71.699 119.54 97.96 24.054 15.757 46.37 26.474 63.16 25.358 13.346 2.7704 7.8941 3.1676-8.4708-0.59538-16.365-3.763-33.138-31.16-30.157-56.124 3.9441-27.937 22.937-44.752 54.73-49.272 41.574-4.7868 92.589-4.1944 96.404-35.383 2.9687-10.163 6.0116-19.129 6.685-26.601 6.9145-25.969 4.2867-51.328 11.668-60.157 5.8074-4.5644 13.027-8.0333 21.616-10.553 74.541-18.157 146.53-33.29 175.01-55.541m-782.19-15.71c25.197 7.8835 41.652 64.364 85.393 85.591 6.1306 4.5672 13.698 7.748 22.627 9.4836 53.576 10.414 99.288 40.024 133.52 62.894 10.343 8.1147 21.373 18.153 33.081 27.76 30.779 27.267 80.461 70.179 119.64 96.683 23.506 15.903 45.012 27.137 60.832 27 12.446 3.891 6.1984 5.4194-11.347 2.3915-17.546-3.0279-35.077-31.583-31.979-57.864 3.9578-28.524 23.286-46.438 56.394-51.411 42.888-5.33 95.931-5.6974 101.98-36.171 3.8008-9.9776 7.3776-18.762 8.203-26.041 7.7469-25.662 3.4204-51.589 10.89-60.773 5.6231-4.4891 12.659-7.9045 21.09-10.378 74.546-17.873 142.47-36.418 169.71-57.702m-777.35-12.823c26.996 8.4466 43.176 65.942 84.718 88.949 5.8079 4.931 13.076 8.4434 21.718 10.493 51.849 12.297 98.822 39.908 134.05 60.566 10.598 7.4122 21.993 16.915 34.066 26.19 31.621 26.289 81.474 68.659 119.74 95.407 22.959 16.049 43.654 27.8 58.505 28.643 11.545 5.0117 4.5028 7.6711-14.224 5.3784-18.726-2.2927-37.016-32.007-33.801-59.604 3.9715-29.11 23.635-48.124 58.058-53.55 44.203-5.8731 99.274-7.2003 107.56-36.958 4.6329-9.7918 8.7436-18.396 9.721-25.481 8.5793-25.355 2.5541-51.85 10.112-61.389 5.4388-4.4138 12.291-7.7757 20.563-10.202 74.55-17.588 138.41-39.547 164.41-59.864m-772.51-9.9361c28.796 9.0097 44.7 67.521 84.042 92.307 5.4853 5.2948 12.455 9.1389 20.808 11.502 50.121 14.179 98.356 39.793 134.58 58.238 10.853 6.7097 22.614 15.677 35.051 24.619 32.464 25.311 82.486 67.139 119.84 94.13 22.411 16.195 42.297 28.463 56.177 30.285 10.645 6.1324 2.8072 9.9229-17.1 8.3653-19.907-1.5576-38.956-32.43-35.623-61.344 3.9852-29.697 23.984-49.81 59.723-55.689 45.517-6.4163 102.62-8.7033 113.14-37.745 5.465-9.606 10.11-18.029 11.239-24.921 9.4117-25.049 1.6878-52.111 9.3335-62.005 5.2544-4.3385 11.923-7.6469 20.037-10.027 74.555-17.304 134.34-42.676 159.11-62.025m-767.67-7.049c30.596 9.5728 46.223 69.1 83.366 95.665 5.1626 5.6586 11.833 9.8344 19.899 12.511 48.394 16.062 97.89 39.677 135.1 55.91 11.109 6.0072 23.234 14.439 36.036 23.049 33.306 24.332 83.498 65.619 119.94 92.853 21.863 16.341 40.939 29.126 53.849 31.928 9.744 7.2531 1.1116 12.175-19.976 11.352s-40.895-32.854-37.444-63.084c3.9989-30.284 24.332-51.497 61.387-57.827 46.831-6.9595 105.96-10.206 118.72-38.532 6.2971-9.4202 11.476-17.663 12.757-24.362 10.244-24.742 0.82154-52.372 8.5555-62.621 5.0702-4.2633 11.554-7.518 19.511-9.8522 74.559-17.02 130.28-45.805 153.81-64.187m-762.82-4.1619c32.396 10.136 47.747 70.679 82.69 99.022 4.84 6.0223 11.211 10.53 18.989 13.521 46.667 17.945 97.424 39.562 135.63 53.582 11.364 5.3047 23.855 13.202 37.021 21.479 34.149 23.354 84.51 64.099 120.04 91.576 21.316 16.486 39.582 29.789 51.521 33.57 8.8435 8.3738-0.58402 14.426-22.853 14.339-22.269-0.0873-42.834-33.278-39.266-64.824 4.0126-30.87 24.681-53.183 63.051-59.966 48.146-7.5027 109.3-11.709 124.3-39.319 7.1292-9.2344 12.842-17.296 14.275-23.802 11.076-24.436-0.0448-52.633 7.7774-63.237 4.8858-4.188 11.186-7.3892 18.985-9.677 74.564-16.735 126.22-48.934 148.51-66.348m-757.98-1.2747c34.195 10.699 49.271 72.257 82.015 102.38 4.5173 6.3861 10.59 11.225 18.08 14.53 44.94 19.828 96.958 39.446 136.16 51.254 11.619 4.6022 24.475 11.964 38.006 19.909 34.991 22.376 85.522 62.579 120.14 90.299 20.768 16.632 38.224 30.452 49.193 35.212 7.943 9.4944-2.2796 16.678-25.729 17.326-23.45 0.64786-44.773-33.701-41.088-66.564 4.0264-31.457 25.03-54.869 64.715-62.105 49.46-8.0458 112.65-13.212 129.88-40.106 7.9613-9.0486 14.208-16.93 15.793-23.242 11.909-24.129-0.91105-52.893 6.9993-63.853 4.7015-4.1127 10.818-7.2604 18.459-9.5018 74.569-16.451 122.16-52.063 143.21-68.509m-753.14 1.6124c35.995 11.262 50.795 73.836 81.339 105.74 4.1947 6.7499 9.9678 11.921 17.17 15.539 43.213 21.711 96.492 39.331 136.69 48.926 11.874 3.8998 25.096 10.726 38.991 18.339 35.834 21.398 86.534 61.058 120.23 89.023 20.22 16.778 36.866 31.115 46.865 36.855 7.0425 10.615-3.9753 18.93-28.606 20.313-24.63 1.383-46.712-34.125-42.91-68.304 4.0401-32.044 25.379-56.555 66.38-64.244 50.774-8.589 115.99-14.715 135.46-40.894 8.7934-8.8628 15.574-16.563 17.311-22.682 12.741-23.823-1.7773-53.154 6.2212-64.469 4.5172-4.0374 10.449-7.1316 17.933-9.3267 74.573-16.167 118.1-55.191 137.91-70.671m-748.3 4.4995c37.795 11.825 52.318 75.415 80.663 109.1 3.872 7.1136 9.3462 12.616 16.26 16.549 41.485 23.594 96.026 39.215 137.22 46.597 12.129 3.1972 25.716 9.4878 39.976 16.769 36.676 20.419 87.546 59.538 120.33 87.746 19.673 16.924 35.509 31.778 44.538 38.497 6.142 11.736-5.6709 21.182-31.482 23.3-25.811 2.1182-48.651-34.548-44.732-70.044 4.0538-32.631 25.728-58.241 68.044-66.383 52.089-9.1322 119.33-16.218 141.04-41.681 9.6256-8.6771 16.94-16.197 18.829-22.122 13.574-23.516-2.6436-53.415 5.4431-65.085 4.3329-3.9621 10.081-7.0028 17.407-9.1515 74.578-15.882 114.03-58.32 132.61-72.832m-743.46 7.3867c39.595 12.388 53.842 76.994 79.987 112.45 3.5494 7.4774 8.7244 13.312 15.351 17.558 39.758 25.477 95.56 39.1 137.74 44.269 12.384 2.4948 26.337 8.2499 40.961 15.199 37.518 19.441 88.558 58.018 120.43 86.469 19.125 17.07 34.151 32.441 42.21 40.14 5.2415 12.856-7.3665 23.433-34.358 26.287-26.992 2.8533-50.591-34.972-46.554-71.784 4.0675-33.217 26.077-59.928 69.708-68.522 53.403-9.6754 122.67-17.721 146.62-42.468 10.458-8.4913 18.306-15.83 20.347-21.563 14.406-23.209-3.5099-53.676 4.665-65.701 4.1486-3.8868 9.7127-6.8739 16.88-8.9763 74.582-15.598 109.97-61.449 127.31-74.994m-738.62 10.274c41.394 12.951 55.366 78.572 79.312 115.81 3.2267 7.8412 8.1027 14.007 14.441 18.567 38.031 27.36 95.094 38.985 138.27 41.941 12.639 1.7923 26.957 7.012 41.946 13.629 38.361 18.463 89.57 56.498 120.53 85.192 18.577 17.216 32.793 33.104 39.882 41.782 4.341 13.977-9.0621 25.685-37.235 29.274-28.173 3.5884-52.53-35.396-48.376-73.524 4.0812-33.804 26.426-61.614 71.372-70.661 54.718-10.219 126.02-19.224 152.2-43.255 11.29-8.3055 19.672-15.464 21.865-21.003 15.238-22.903-4.3762-53.937 3.887-66.317 3.9643-3.8115 9.3444-6.7451 16.354-8.8011 74.587-15.313 105.91-64.578 122.01-77.155m-733.77 13.161c43.194 13.515 56.89 80.151 78.636 119.17 2.904 8.205 7.481 14.703 13.532 19.576 36.304 29.243 94.628 38.869 138.8 39.613 12.894 1.0898 27.578 5.7741 42.93 12.059 39.203 17.485 90.582 54.978 120.63 83.915 18.03 17.362 31.436 33.767 37.554 43.425 3.4405 15.098-10.758 27.937-40.111 32.26s-54.469-35.819-50.198-75.264c4.0949-34.391 26.774-63.3 73.037-72.8 56.032-10.762 129.36-20.727 157.78-44.042 12.122-8.1197 21.038-15.097 23.383-20.443 16.071-22.596-5.2425-54.198 3.1089-66.933 3.78-3.7362 8.976-6.6163 15.828-8.626 74.591-15.029 101.85-67.707 116.71-79.316m-728.93 16.048c44.994 14.078 58.413 81.73 77.96 122.53 2.5814 8.5687 6.8593 15.398 12.622 20.586 34.577 31.125 94.162 38.754 139.33 37.285 13.149 0.38729 28.198 4.5362 43.915 10.489 40.046 16.507 91.594 53.458 120.73 82.639 17.482 17.508 30.078 34.43 35.226 45.067 2.54 16.219-12.453 30.189-42.988 35.247-30.534 5.0587-56.408-36.243-52.019-77.004 4.1087-34.977 27.123-64.986 74.701-74.939 57.346-11.305 132.7-22.23 163.36-44.829 12.954-7.9339 22.404-14.731 24.901-19.883 16.903-22.29-6.1088-54.459 2.3308-67.549 3.5957-3.6609 8.6077-6.4875 15.302-8.4508 74.596-14.745 97.786-70.836 111.41-81.478m-724.09 18.935c46.794 14.641 59.937 83.309 77.284 125.88 2.2587 8.9325 6.2376 16.094 11.713 21.595 32.849 33.008 93.696 38.638 139.86 34.957 13.404-0.3152 28.819 3.2982 44.9 8.9185 40.888 15.528 92.606 51.938 120.83 81.362 16.935 17.654 28.721 35.093 32.898 46.709 1.6395 17.339-14.149 32.44-45.864 38.234-31.715 5.7939-58.347-36.666-53.841-78.744 4.1224-35.564 27.472-66.672 76.365-77.078 58.661-11.848 136.05-23.733 168.94-45.617 13.786-7.7481 23.77-14.364 26.419-19.324 17.736-21.983-6.9751-54.72 1.5527-68.165 3.4114-3.5856 8.2394-6.3587 14.776-8.2756 74.601-14.46 93.724-73.964 106.11-83.639m-719.25 21.822c48.593 15.204 61.461 84.888 76.609 129.24 1.9361 9.2963 5.6159 16.789 10.803 22.604 31.122 34.891 93.231 38.523 140.38 32.629 13.659-1.0177 29.439 2.0604 45.885 7.3485 41.731 14.55 93.618 50.418 120.93 80.085 16.387 17.8 27.363 35.757 30.571 48.352 0.73896 18.46-15.845 34.692-48.74 41.221-32.896 6.529-60.287-37.09-55.663-80.484 4.1361-36.151 27.821-68.359 78.029-79.216 59.975-12.391 139.39-25.236 174.52-46.404 14.618-7.5623 25.136-13.998 27.937-18.764 18.568-21.677-7.8414-54.981 0.77465-68.781 3.2271-3.5103 7.8711-6.2298 14.25-8.1005 74.605-14.176 89.662-77.093 100.81-85.8m-714.41 24.709c50.393 15.767 62.985 86.466 75.933 132.6 1.6134 9.66 4.9942 17.485 9.8934 23.614 29.395 36.774 92.765 38.407 140.91 30.3 13.914-1.7202 30.06 0.82243 46.87 5.7784 42.573 13.572 94.63 48.898 121.03 78.808 15.839 17.946 26.005 36.42 28.243 49.994-0.16155 19.581-17.54 36.944-51.617 44.208-34.077 7.2642-62.226-37.513-57.485-82.224 4.1498-36.738 28.17-70.045 79.694-81.355 61.289-12.934 142.73-26.739 180.1-47.191 15.45-7.3765 26.502-13.631 29.455-18.204 19.4-21.37-8.7077-55.242-3e-3 -69.398 3.0428-3.435 7.5028-6.101 13.723-7.9253 74.61-13.891 85.6-80.222 95.508-87.962m-709.57 27.597c52.193 16.33 64.508 88.045 75.257 135.96 1.2908 10.024 4.3725 18.18 8.9838 24.623 27.668 38.657 92.299 38.292 141.44 27.972 14.169-2.4227 30.68-0.41547 47.855 4.2083 43.416 12.594 95.642 47.378 121.13 77.531 15.292 18.092 24.648 37.083 25.915 51.637-1.0621 20.701-19.236 39.196-54.493 47.195-35.257 7.9993-64.165-37.937-59.307-83.964 4.1635-37.324 28.519-71.731 81.358-83.494 62.604-13.478 146.07-28.242 185.68-47.978 16.282-7.1907 27.868-13.265 30.973-17.644 20.233-21.064-9.574-55.503-0.78151-70.014 2.8585-3.3597 7.1345-5.9722 13.197-7.7501 74.614-13.607 81.538-83.351 90.207-90.123m-704.72 30.484c53.993 16.893 66.032 89.624 74.581 139.32 0.96811 10.388 3.7508 18.876 8.0742 25.632 25.941 40.54 91.833 38.176 141.97 25.644 14.424-3.1252 31.301-1.6534 48.84 2.6382 44.258 11.615 96.654 45.858 121.23 76.255 14.744 18.238 23.29 37.746 23.587 53.279-1.9626 21.822-20.931 41.447-57.37 50.182-36.438 8.7344-66.104-38.361-61.129-85.704 4.1772-37.911 28.867-73.417 83.022-85.633 63.918-14.021 149.42-29.745 191.26-48.765 17.114-7.0049 29.234-12.898 32.491-17.084 21.065-20.757-10.44-55.764-1.5596-70.63 2.6742-3.2844 6.7662-5.8434 12.671-7.575 74.619-13.323 77.476-86.48 84.907-92.285m-699.88 33.371c55.792 17.456 67.556 91.203 73.906 142.67 0.64546 10.751 3.1291 19.571 7.1647 26.641 24.213 42.423 91.367 38.061 142.5 23.316 14.679-3.8277 31.922-2.8913 49.825 1.0681 45.101 10.637 97.666 44.338 121.33 74.978 14.196 18.384 21.932 38.409 21.259 54.922-2.8631 22.943-22.627 43.699-60.246 53.169-37.619 9.4696-68.043-38.784-62.951-87.444 4.191-38.498 29.216-75.104 84.686-87.772 65.232-14.564 152.76-31.248 196.84-49.552 17.947-6.8192 30.6-12.532 34.009-16.525 21.898-20.45-11.307-56.025-2.3377-71.246 2.4898-3.2091 6.3978-5.7146 12.145-7.3998 74.624-13.038 73.414-89.609 79.607-94.446m-695.04 36.258c57.592 18.019 69.08 92.781 73.23 146.03 0.3228 11.115 2.5074 20.266 6.2551 27.651 22.486 44.306 90.901 37.946 143.02 20.988 14.935-4.5302 32.542-4.1292 50.81-0.50199 45.943 9.659 98.678 42.817 121.43 73.701 13.649 18.53 20.575 39.072 18.931 56.564-3.7636 24.063-24.323 45.951-63.122 56.156-38.8 10.205-69.982-39.208-64.772-89.184 4.2047-39.084 29.565-76.79 86.351-89.911 66.547-15.107 156.1-32.751 202.42-50.34 18.779-6.6334 31.966-12.165 35.527-15.965 22.73-20.144-12.173-56.286-3.1158-71.862 2.3056-3.1339 6.0295-5.5857 11.619-7.2246 74.628-12.754 69.352-92.738 74.306-96.607m-690.2 39.145c59.392 18.582 70.603 94.36 72.554 149.39 1.5e-4 11.479 1.8857 20.962 5.3455 28.66 20.759 46.189 90.435 37.83 143.55 18.66 15.19-5.2326 33.163-5.3671 51.795-2.0721 46.786 8.6808 99.69 41.297 121.53 72.424 13.101 18.676 19.217 39.735 16.604 58.206-4.6641 25.184-26.018 48.203-65.999 59.142-39.98 10.94-71.922-39.631-66.594-90.924 4.2184-39.671 29.914-78.476 88.015-92.05 67.861-15.65 159.45-34.254 208-51.127 19.611-6.4476 33.332-11.799 37.045-15.405 23.562-19.837-13.039-56.547-3.8938-72.478 2.1212-3.0586 5.6612-5.4569 11.093-7.0495 74.633-12.47 65.29-95.866 69.006-98.769m-685.36 42.032c61.192 19.146 72.127 95.939 71.878 152.75-0.3225 11.843 1.264 21.657 4.436 29.669 19.032 48.072 89.969 37.715 144.08 16.332 15.445-5.9351 33.783-6.605 52.78-3.6422 47.628 7.7026 100.7 39.777 121.62 71.148 12.553 18.822 17.86 40.398 14.276 59.849-5.5646 26.305-27.714 50.454-68.875 62.129s-73.861-40.055-68.416-92.664c4.2321-40.258 30.263-80.162 89.679-94.189 69.175-16.194 162.79-35.757 213.58-51.914 20.443-6.2618 34.698-11.432 38.563-14.845 24.395-19.531-13.905-56.808-4.6719-73.094 1.9369-2.9833 5.2929-5.3281 10.567-6.8743 74.637-12.185 61.228-98.995 63.705-100.93m-680.52 44.919c62.991 19.709 73.651 97.518 71.203 156.11-0.64515 12.206 0.64228 22.353 3.5264 30.679 17.305 49.954 89.503 37.599 144.61 14.003 15.7-6.6376 34.404-7.8429 53.765-5.2123 48.471 6.7244 101.71 38.257 121.72 69.871 12.006 18.968 16.502 41.061 11.948 61.491-6.4651 27.425-29.41 52.706-71.752 65.116s-75.8-40.479-70.238-94.404c4.2458-40.845 30.612-81.848 91.343-96.328 70.49-16.737 166.13-37.26 219.16-52.701 21.275-6.076 36.064-11.066 40.081-14.285 25.227-19.224-14.772-57.069-5.45-73.71 1.7526-2.908 4.9246-5.1993 10.04-6.6991 74.642-11.901 57.166-102.12 58.405-103.09m-675.67 47.806c64.791 20.272 75.175 99.096 70.527 159.46-0.96781 12.57 0.0206 23.048 2.6168 31.688 15.577 51.837 89.037 37.484 145.14 11.675 15.955-7.3401 35.024-9.0808 54.749-6.7824 49.313 5.7462 102.73 36.737 121.82 68.594 11.458 19.114 15.144 41.724 9.6201 63.134-7.3656 28.546-31.105 54.958-74.628 68.103s-77.739-40.902-72.06-96.144c4.2595-41.431 30.96-83.535 93.008-98.466 71.804-17.28 169.47-38.763 224.74-53.488 22.107-5.8902 37.43-10.699 41.599-13.726 26.06-18.918-15.638-57.33-6.2281-74.326 1.5683-2.8327 4.5563-5.0705 9.5142-6.524 74.646-11.616 53.105-105.25 53.105-105.25" fill="none" stroke="url(#linearGradient3595-6)" stroke-width=".49609px"/>
<path d="m478.38-10.663v368.53h-767.79l1e-5 -370 384.66 282.82z" fill="#1b1e20" stop-color="#000000" style="-inkscape-stroke:none;font-variation-settings:normal"/>
<g transform="matrix(2.7237 0 0 2.7237 -396.95 84.646)" opacity=".02" stroke-width=".6884">
<g transform="translate(0 77.637)" opacity=".075" stroke-width=".6884">
<path d="m-21.655-173.61 202.37 148.61 202.37-148.61v16.181l-202.37 148.61-202.37-148.61z" fill="url(#linearGradient21995-7)" stop-color="#000000" style="-inkscape-stroke:none;font-variation-settings:normal"/>
<path d="m-21.655-193.8 202.37 148.61 202.37-148.61v22.391l-202.37 148.61-202.37-148.61z" fill="url(#linearGradient21997-5)"/>
<path d="m-21.655-157.94 202.37 148.61 202.37-148.61v1.7412l-202.37 148.61-202.37-148.61z" fill="url(#linearGradient21999-5)" stop-color="#000000" style="-inkscape-stroke:none;font-variation-settings:normal;paint-order:stroke fill markers"/>
</g>
<path d="m-21.656-22.398v20.919l191.38 140.54 10.981 23.178 10.981-23.178 191.38-140.54v-20.919l-202.37 148.61z" fill="url(#linearGradient22001-2)" stop-color="#000000" style="-inkscape-stroke:none;font-variation-settings:normal"/>
<path d="m191.22 138.75-10.513 23.491 202.37-148.61v-15.771z" fill="url(#linearGradient22003-9)"/>
<path d="m-21.656-2.1353v15.771l202.37 148.61-10.513-23.491z" fill="url(#linearGradient22005-1)"/>
<path d="m-21.656-2.1353v1.3126l190.92 140.2 11.449 22.866 11.449-22.866 190.92-140.2v-1.3126l-191.85 140.89-10.513 21.102-10.513-21.102-191.54-140.66z" color="#000000" fill="url(#linearGradient22007-2)" stroke-linecap="square" stroke-width=".18214" style="-inkscape-stroke:none"/>
<path d="m-21.655-41.581 202.37 148.61 202.37-148.61v21.473l-202.37 148.61-202.37-148.61z" fill="url(#linearGradient22009-0)" stop-color="#000000" style="-inkscape-stroke:none;font-variation-settings:normal"/>
<path d="m-21.655-23.098 202.37 148.61 202.37-148.61v2.9889l-202.37 148.61-202.37-148.61z" fill="url(#linearGradient22011-9)" stop-color="#000000" style="-inkscape-stroke:none;font-variation-settings:normal;paint-order:stroke fill markers"/>
<path d="m-21.655-62.914 202.37 148.61 202.37-148.61v22.391l-202.37 148.61-202.37-148.61z" fill="url(#linearGradient22013-6)"/>
<path d="m-21.655-64.05 202.37 148.61 202.37-148.61v1.7412l-202.37 148.61-202.37-148.61z" fill="url(#linearGradient22015-0)" stop-color="#000000" style="-inkscape-stroke:none;font-variation-settings:normal;paint-order:stroke fill markers"/>
<path d="m191.22 138.75-10.513 23.491 202.37-148.61v-15.771z" fill="url(#linearGradient22017-2)"/>
<path d="m170.2 138.75 10.513 23.491-202.37-148.61-2e-6 -15.771z" fill="url(#linearGradient22019-6)"/>
</g>
<g transform="matrix(1.875,0,0,1.875,-243.58,112.48)" opacity=".02">
<path d="m-21.655-173.61 202.37 148.61 202.37-148.61v16.181l-202.37 148.61-202.37-148.61z" fill="url(#linearGradient21995-7)" stop-color="#000000" style="-inkscape-stroke:none;font-variation-settings:normal"/>
<path d="m-21.655-193.8 202.37 148.61 202.37-148.61v22.391l-202.37 148.61-202.37-148.61z" fill="url(#linearGradient21997-5)"/>
<path d="m-21.655-157.94 202.37 148.61 202.37-148.61v1.7412l-202.37 148.61-202.37-148.61z" fill="url(#linearGradient21999-5)" stop-color="#000000" style="-inkscape-stroke:none;font-variation-settings:normal;paint-order:stroke fill markers"/>
</g>
<path d="m114.96 227.07-19.712 44.046 379.44-278.64v-29.57z" fill="url(#linearGradient24593-1)"/>
<path d="m-284.19-37.091v29.57l379.44 278.64-19.712-44.046z" fill="url(#linearGradient78325-8)"/>
<path d="m-284.19-37.091v2.4611l357.97 262.87 21.468 42.873 21.468-42.873 357.97-262.87v-2.4611l-359.72 264.16-19.712 39.566-19.712-39.566-359.14-263.73z" color="#000000" fill="url(#linearGradient87990-7)" stroke-linecap="square" stroke-width=".49609" style="-inkscape-stroke:none"/>
<path d="m-284.19-111.05 379.44 278.64 379.44-278.64v40.262l-379.44 278.64-379.44-278.64z" fill="url(#linearGradient25753-9)" stop-color="#000000" style="-inkscape-stroke:none;font-variation-settings:normal"/>
<path d="m-284.19-76.395 379.44 278.64 379.44-278.64v5.6042l-379.44 278.64-379.44-278.64z" fill="url(#linearGradient25219-2)" stop-color="#000000" style="-inkscape-stroke:none;font-variation-settings:normal;paint-order:stroke fill markers"/>
<path d="m114.96 227.07-19.712 44.046 379.44-278.64v-29.57z" fill="url(#linearGradient14910-0)"/>
<path d="m75.538 227.07 19.712 44.046-379.44-278.64v-29.57z" fill="url(#linearGradient15720-2)"/>
<path d="m-35.174 148.23v5.8863l63.72 46.794v-5.8863zm0 8.8628v9.3056l63.72 46.794v-9.3056zm63.72 58.952-63.72-46.794v3.9688l63.72 46.794z" fill="url(#linearGradient35006-37)"/>
<path d="m404.48 19.718v5.8863l-63.72 46.794v-5.8863zm0 8.8628v9.3056l-63.72 46.794v-9.3056zm-63.72 58.952 63.72-46.794v3.9688l-63.72 46.794z" fill="url(#linearGradient35006-3-5)"/>
<path d="m95.25 169.57 379.76-277.6-0.32265-3.0214z" fill="#d0b2e4"/>
<path d="m95.25 169.57-379.76-277.6 0.32265-3.0214z" fill="#b2e3e4"/>
<path d="m-284.19-151.05 379.44 278.64 379.44-278.64v41.983l-379.44 278.64-379.44-278.64z" fill="url(#linearGradient26562-9)"/>
<g transform="matrix(1.5262 0 0 1.5274 -160.36 -12.584)" fill="none" stop-color="#000000" stroke="#235dc6" stroke-width=".64985" style="-inkscape-stroke:none;font-variation-settings:normal;paint-order:stroke fill markers">
<path d="m116.37 53.187v6.7346" stop-color="#000000" style="-inkscape-stroke:none;font-variation-settings:normal;paint-order:stroke fill markers"/>
<path d="m122.49 57.678v8.7187" stop-color="#000000" style="-inkscape-stroke:none;font-variation-settings:normal;paint-order:stroke fill markers"/>
<path d="m133.56 65.81v8.379" stop-color="#000000" style="-inkscape-stroke:none;font-variation-settings:normal;paint-order:stroke fill markers"/>
<path d="m128.48 62.077v4.1961" stop-color="#000000" style="-inkscape-stroke:none;font-variation-settings:normal;paint-order:stroke fill markers"/>
<circle cx="116.42" cy="61.028" r="1.21" stop-color="#000000" style="-inkscape-stroke:none;font-variation-settings:normal;paint-order:stroke fill markers"/>
<circle cx="122.45" cy="66.901" r=".64061" stop-color="#000000" style="-inkscape-stroke:none;font-variation-settings:normal;paint-order:stroke fill markers"/>
<circle cx="128.5" cy="67.357" r="1.21" stop-color="#000000" style="-inkscape-stroke:none;font-variation-settings:normal;paint-order:stroke fill markers"/>
<circle cx="133.55" cy="75.222" r="1.21" stop-color="#000000" style="-inkscape-stroke:none;font-variation-settings:normal;paint-order:stroke fill markers"/>
</g>
<path d="m-190.83-70.079v29.57l16.328 11.991v-29.57zm21.158 15.537v29.57l32.844 24.12v-29.571zm42.865 31.478 0.27421 29.771 20.6 15.127 0.0359-29.544zm28.485 20.918-0.38564 29.287 6.2186 4.5666v-29.571z" fill="url(#linearGradient34063-2)" stop-color="#000000" style="-inkscape-stroke:none;font-variation-settings:normal"/>
<path d="m219.09 162.35v13.695l-16.328 11.991v-13.695zm-21.158 15.537v13.695l-32.844 24.12v-13.696zm-42.865 31.478-0.2742 13.896-20.6 15.127-0.0358-13.669zm-28.485 20.918 0.38565 13.412-6.2186 4.5666v-13.696z" fill="url(#linearGradient53858-2)" stop-color="#000000" style="-inkscape-stroke:none;font-variation-settings:normal"/>
<g transform="matrix(1.875,0,0,1.875,-243.58,10.164)" opacity=".02">
<path d="m-21.655-173.61 202.37 148.61 202.37-148.61v16.181l-202.37 148.61-202.37-148.61z" fill="url(#linearGradient21995-7)" stop-color="#000000" style="-inkscape-stroke:none;font-variation-settings:normal"/>
<path d="m-21.655-193.8 202.37 148.61 202.37-148.61v22.391l-202.37 148.61-202.37-148.61z" fill="url(#linearGradient21997-5)"/>
<path d="m-21.655-157.94 202.37 148.61 202.37-148.61v1.7412l-202.37 148.61-202.37-148.61z" fill="url(#linearGradient21999-5)" stop-color="#000000" style="-inkscape-stroke:none;font-variation-settings:normal;paint-order:stroke fill markers"/>
</g>
<path d="m-54.089 23.396v32.639l47.04 34.544v-32.639z" fill="#7777e1" fill-opacity=".095564"/>
<path d="m-20.788 94.59v13.824l116.04 85.516v-13.824zm0 16.8v5.3369l116.04 85.516v-5.3369z" fill="url(#linearGradient35392-8)"/>
<path d="m-243.65 4.557v7.9752l61.505 45.167v-7.9762z" fill="url(#linearGradient37083-9)"/>
<path d="m-78.106 20.338v19.542l150.71 110.67v-19.544z" fill="url(#linearGradient37280-7)"/>
<path d="m-197.32 36.155v19.542l41.84 30.726v-6.6449zm49.788 49.46v6.6449l16.369 12.021v-6.6449zm20.329 14.928v6.6449l17.19 12.624v-6.6459zm29.246 21.477v6.645l21.639 15.891v-6.6459zm28.056 20.603v6.6459l13.29 9.7591v-6.6459zm18.574 13.64v6.6459l4.7139 3.462v-6.6459z" fill="url(#linearGradient37849-3)"/>
<g transform="matrix(1.5262 0 0 1.5274 -112.31 23.443)" fill="none" stroke="#235dc6" stroke-width=".64985">
<path d="m116.37 53.187v6.7346" stop-color="#000000" style="font-variation-settings:normal"/>
<path d="m122.49 57.678v8.7187"/>
<path d="m128.48 62.077v4.1961"/>
<circle cx="116.42" cy="61.028" r="1.21" stop-color="#000000" style="font-variation-settings:normal;paint-order:stroke fill markers"/>
<circle cx="122.45" cy="66.901" r=".64061" stop-color="#000000" style="font-variation-settings:normal;paint-order:stroke fill markers"/>
<circle cx="128.5" cy="67.357" r="1.21" stop-color="#000000" style="font-variation-settings:normal;paint-order:stroke fill markers"/>
<path d="m110.31 48.673v8.379"/>
<circle cx="110.3" cy="58.084" r="1.21" stop-color="#000000" style="font-variation-settings:normal;paint-order:stroke fill markers"/>
</g>
<path d="m-284.19-153.18 379.44 278.64 379.44-278.64v3.2647l-379.44 278.64-379.44-278.64z" fill="url(#linearGradient69576-6)" stop-color="#000000" style="-inkscape-stroke:none;font-variation-settings:normal;paint-order:stroke fill markers"/>
<path d="m219.67 61.833v29.57l-16.328 11.991v-29.57zm-21.158 15.537v29.57l-32.844 24.12v-29.571zm-42.865 31.478-0.2742 29.771-20.6 15.127-0.0358-29.544zm-28.485 20.918 0.38565 29.287-6.2186 4.5666v-29.571z" fill="url(#linearGradient53643-1)" stop-color="#000000" style="-inkscape-stroke:none;font-variation-settings:normal"/>
<path d="m383.46-89.608v19.542l-41.84 30.726v-6.6449zm-49.788 49.46v6.6449l-16.369 12.021v-6.6449zm-20.329 14.928v6.6449l-17.19 12.624v-6.6459zm-29.246 21.477v6.6449l-21.639 15.891v-6.6459zm-28.056 20.603v6.6459l-13.29 9.7591v-6.6459zm-18.574 13.64v6.6459l-4.7139 3.462v-6.6459z" fill="url(#linearGradient53697-2)"/>
<path d="m350.99-34.86v19.542l-150.71 110.67v-19.544z" fill="url(#linearGradient53804-9)"/>
<path d="m211.29 94.59v13.824l-116.04 85.516v-13.824zm0 16.8v5.3369l-116.04 85.516v-5.3369z" fill="url(#linearGradient5163-3)"/>
</svg>
