<?xml version="1.0" encoding="UTF-8" standalone="no"?>
<!-- Created with Inkscape (http://www.inkscape.org/) -->

<svg
   width="1024"
   height="768"
   viewBox="0 0 270.93332 203.20004"
   version="1.1"
   id="svg1140"
   xmlns:xlink="http://www.w3.org/1999/xlink"
   xmlns="http://www.w3.org/2000/svg"
   xmlns:svg="http://www.w3.org/2000/svg">
  <defs
     id="defs1137">
    <linearGradient
       xlink:href="#linearGradient29544"
       id="linearGradient29546-2"
       x1="132.10901"
       y1="575.51141"
       x2="1068.3112"
       y2="320.25305"
       gradientUnits="userSpaceOnUse"
       gradientTransform="matrix(0.19572878,0.02077714,-0.02077714,0.19572878,15.116333,41.926913)" />
    <linearGradient
       id="linearGradient29544">
      <stop
         style="stop-color:#1c52f2;stop-opacity:1"
         offset="0"
         id="stop29540" />
      <stop
         style="stop-color:#d62bc3;stop-opacity:0.42363399"
         offset="1"
         id="stop29542" />
    </linearGradient>
    <linearGradient
       xlink:href="#linearGradient4549"
       id="linearGradient4551-1"
       x1="1218.4554"
       y1="30.736158"
       x2="-51.688805"
       y2="481.46146"
       gradientUnits="userSpaceOnUse"
       gradientTransform="matrix(0.19572878,0.02077714,-0.02077714,0.19572878,15.116333,41.926913)" />
    <linearGradient
       id="linearGradient4549">
      <stop
         style="stop-color:#4886f2;stop-opacity:1;"
         offset="0"
         id="stop4545" />
      <stop
         style="stop-color:#8f4bcd;stop-opacity:1"
         offset="1"
         id="stop4547" />
    </linearGradient>
    <linearGradient
       xlink:href="#linearGradient10986"
       id="linearGradient12309-5"
       gradientUnits="userSpaceOnUse"
       x1="1343.8644"
       y1="191.42802"
       x2="861.3941"
       y2="436.60165"
       gradientTransform="matrix(0.19682845,0,0,0.19682845,-1.8538931,35.372178)" />
    <linearGradient
       id="linearGradient10986">
      <stop
         style="stop-color:#6659f2;stop-opacity:1"
         offset="0"
         id="stop10982" />
      <stop
         style="stop-color:#628af5;stop-opacity:1"
         offset="1"
         id="stop10984" />
    </linearGradient>
    <linearGradient
       xlink:href="#linearGradient1509"
       id="linearGradient1511-9"
       x1="466.89359"
       y1="475.49548"
       x2="1404.4065"
       y2="195.51314"
       gradientUnits="userSpaceOnUse"
       gradientTransform="matrix(0.19682845,0,0,0.19682845,-1.8538931,35.372178)" />
    <linearGradient
       id="linearGradient1509">
      <stop
         style="stop-color:#3e2fdd;stop-opacity:1"
         offset="0"
         id="stop1505" />
      <stop
         style="stop-color:#a4007e;stop-opacity:1"
         offset="1"
         id="stop1507" />
    </linearGradient>
    <linearGradient
       xlink:href="#linearGradient4477"
       id="linearGradient4479-5"
       x1="1327.1652"
       y1="150.93445"
       x2="-27.439623"
       y2="614.6449"
       gradientUnits="userSpaceOnUse"
       gradientTransform="matrix(0.19572878,0.02077714,-0.02077714,0.19572878,15.116333,41.926913)" />
    <linearGradient
       id="linearGradient4477">
      <stop
         style="stop-color:#578bf2;stop-opacity:1"
         offset="0"
         id="stop4473" />
      <stop
         style="stop-color:#5a74fa;stop-opacity:1"
         offset="1"
         id="stop4475" />
    </linearGradient>
    <linearGradient
       xlink:href="#linearGradient4685-3"
       id="linearGradient4687-8"
       x1="1284.0638"
       y1="231.57774"
       x2="-19.021584"
       y2="636.71533"
       gradientUnits="userSpaceOnUse"
       gradientTransform="matrix(0.19572878,0.02077714,-0.02077714,0.19572878,15.116333,41.926913)" />
    <linearGradient
       id="linearGradient4685-3">
      <stop
         style="stop-color:#542ef2;stop-opacity:1"
         offset="0"
         id="stop4681-8" />
      <stop
         style="stop-color:#4a98e4;stop-opacity:1"
         offset="0.47512516"
         id="stop26809" />
      <stop
         style="stop-color:#5393f2;stop-opacity:1"
         offset="1"
         id="stop4683-5" />
    </linearGradient>
    <linearGradient
       xlink:href="#linearGradient31045"
       id="linearGradient30817"
       x1="-757.29144"
       y1="414.48566"
       x2="687.20605"
       y2="74.068878"
       gradientUnits="userSpaceOnUse"
       gradientTransform="matrix(0.19682845,0,0,0.19682845,136.6865,79.09809)" />
    <linearGradient
       id="linearGradient31045">
      <stop
         style="stop-color:#94a642;stop-opacity:1"
         offset="0"
         id="stop31041" />
      <stop
         style="stop-color:#83aa61;stop-opacity:1"
         offset="0.31171572"
         id="stop31403" />
      <stop
         style="stop-color:#dc8cd1;stop-opacity:1"
         offset="0.59436423"
         id="stop31273" />
      <stop
         style="stop-color:#6cdddb;stop-opacity:1"
         offset="1"
         id="stop31043" />
    </linearGradient>
    <linearGradient
       xlink:href="#linearGradient25627"
       id="linearGradient25349"
       x1="-19.32687"
       y1="174.87611"
       x2="365.09894"
       y2="71.86953"
       gradientUnits="userSpaceOnUse"
       gradientTransform="matrix(1.0436282,0,0,1.0436282,-111.94933,-10.732884)" />
    <linearGradient
       id="linearGradient25627">
      <stop
         style="stop-color:#bda62c;stop-opacity:1;"
         offset="0"
         id="stop25607" />
      <stop
         style="stop-color:#ae9a28;stop-opacity:0.98823529"
         offset="0.14668909"
         id="stop25609" />
      <stop
         style="stop-color:#8c7b20;stop-opacity:0.96862745"
         offset="0.30530512"
         id="stop25613" />
      <stop
         style="stop-color:#bda62c;stop-opacity:0.95686275;"
         offset="0.51079261"
         id="stop25617" />
      <stop
         style="stop-color:#82721e;stop-opacity:0.94901961"
         offset="0.62310421"
         id="stop25619" />
      <stop
         style="stop-color:#c0ab2c;stop-opacity:0.99607843"
         offset="0.83540899"
         id="stop25623" />
      <stop
         style="stop-color:#7f6f1e;stop-opacity:0.92156863"
         offset="1"
         id="stop25625" />
    </linearGradient>
    <linearGradient
       xlink:href="#linearGradient14653"
       id="linearGradient14655"
       x1="-46.183235"
       y1="706.05402"
       x2="1721.9431"
       y2="445.6926"
       gradientUnits="userSpaceOnUse"
       gradientTransform="matrix(0.27612665,0,0,0.27612665,-111.94933,-10.732884)" />
    <linearGradient
       id="linearGradient14653">
      <stop
         style="stop-color:#bda62c;stop-opacity:1;"
         offset="0"
         id="stop14649" />
      <stop
         style="stop-color:#615516;stop-opacity:0.98823529"
         offset="0.09857609"
         id="stop16599" />
      <stop
         style="stop-color:#cab12f;stop-opacity:0.97647059"
         offset="0.25338677"
         id="stop16339" />
      <stop
         style="stop-color:#8c7b20;stop-opacity:0.96862745"
         offset="0.33815062"
         id="stop16405" />
      <stop
         style="stop-color:#87771f;stop-opacity:0.96470588"
         offset="0.4215126"
         id="stop15309" />
      <stop
         style="stop-color:#bda62c;stop-opacity:0.95686275;"
         offset="0.53338844"
         id="stop15113" />
      <stop
         style="stop-color:#82721e;stop-opacity:0.94901961"
         offset="0.62310421"
         id="stop15179" />
      <stop
         style="stop-color:#80711e;stop-opacity:0.93725497"
         offset="0.73470789"
         id="stop15823" />
      <stop
         style="stop-color:#d7be31;stop-opacity:0.92941177"
         offset="0.83540899"
         id="stop15889" />
      <stop
         style="stop-color:#bda62c;stop-opacity:0.9217537"
         offset="1"
         id="stop14651" />
    </linearGradient>
    <linearGradient
       xlink:href="#linearGradient4685-3"
       id="linearGradient4687-8-6"
       x1="1284.0638"
       y1="231.57774"
       x2="-19.021584"
       y2="636.71533"
       gradientUnits="userSpaceOnUse"
       gradientTransform="matrix(0.33644125,0.03571412,-0.03571412,0.33644125,-89.424144,-27.415752)" />
    <linearGradient
       xlink:href="#linearGradient4477"
       id="linearGradient4479-5-1"
       x1="1327.1652"
       y1="150.93445"
       x2="-27.439623"
       y2="614.6449"
       gradientUnits="userSpaceOnUse"
       gradientTransform="matrix(0.33644125,0.03571412,-0.03571412,0.33644125,-89.424144,-27.415752)" />
    <linearGradient
       xlink:href="#linearGradient1509"
       id="linearGradient6948"
       gradientUnits="userSpaceOnUse"
       gradientTransform="matrix(0.33833152,0,0,0.33833152,-118.59453,-39.765121)"
       x1="466.89359"
       y1="475.49548"
       x2="1404.4065"
       y2="195.51314" />
    <linearGradient
       xlink:href="#linearGradient10986"
       id="linearGradient12309-5-4"
       gradientUnits="userSpaceOnUse"
       x1="1343.8644"
       y1="191.42802"
       x2="861.3941"
       y2="436.60165"
       gradientTransform="matrix(0.33833152,0,0,0.33833152,-118.59453,-38.682787)" />
    <linearGradient
       xlink:href="#linearGradient4549"
       id="linearGradient4551-1-8"
       x1="1218.4554"
       y1="30.736158"
       x2="-51.688805"
       y2="481.46146"
       gradientUnits="userSpaceOnUse"
       gradientTransform="matrix(0.33644125,0.03571412,-0.03571412,0.33644125,-89.424144,-27.415752)" />
    <linearGradient
       xlink:href="#linearGradient29544"
       id="linearGradient24274"
       gradientUnits="userSpaceOnUse"
       gradientTransform="matrix(0.33644125,0.03571417,-0.03571417,0.33644125,-89.424144,-27.415752)"
       x1="132.10901"
       y1="575.51141"
       x2="1068.3112"
       y2="320.25305" />
    <linearGradient
       xlink:href="#linearGradient29544"
       id="linearGradient1273"
       gradientUnits="userSpaceOnUse"
       gradientTransform="matrix(0.33644125,0.03571417,-0.03571417,0.33644125,-89.424144,-27.415752)"
       x1="132.10901"
       y1="575.51141"
       x2="1068.3112"
       y2="320.25305" />
    <linearGradient
       xlink:href="#linearGradient29544"
       id="linearGradient1275"
       gradientUnits="userSpaceOnUse"
       gradientTransform="matrix(0.33644125,0.03571417,-0.03571417,0.33644125,-89.424144,-27.415752)"
       x1="132.10901"
       y1="575.51141"
       x2="1068.3112"
       y2="320.25305" />
    <linearGradient
       xlink:href="#linearGradient29544"
       id="linearGradient1277"
       gradientUnits="userSpaceOnUse"
       gradientTransform="matrix(0.33644125,0.03571417,-0.03571417,0.33644125,-89.424144,-27.415752)"
       x1="132.10901"
       y1="575.51141"
       x2="1068.3112"
       y2="320.25305" />
    <linearGradient
       xlink:href="#linearGradient29544"
       id="linearGradient1279"
       gradientUnits="userSpaceOnUse"
       gradientTransform="matrix(0.33644125,0.03571417,-0.03571417,0.33644125,-89.424144,-27.415752)"
       x1="132.10901"
       y1="575.51141"
       x2="1068.3112"
       y2="320.25305" />
    <linearGradient
       xlink:href="#linearGradient29544"
       id="linearGradient1281"
       gradientUnits="userSpaceOnUse"
       gradientTransform="matrix(0.33644125,0.03571417,-0.03571417,0.33644125,-89.424144,-27.415752)"
       x1="132.10901"
       y1="575.51141"
       x2="1068.3112"
       y2="320.25305" />
    <linearGradient
       xlink:href="#linearGradient29544"
       id="linearGradient1283"
       gradientUnits="userSpaceOnUse"
       gradientTransform="matrix(0.33644125,0.03571417,-0.03571417,0.33644125,-89.424144,-27.415752)"
       x1="132.10901"
       y1="575.51141"
       x2="1068.3112"
       y2="320.25305" />
    <linearGradient
       xlink:href="#linearGradient29544"
       id="linearGradient1285"
       gradientUnits="userSpaceOnUse"
       gradientTransform="matrix(0.33644125,0.03571417,-0.03571417,0.33644125,-89.424144,-27.415752)"
       x1="132.10901"
       y1="575.51141"
       x2="1068.3112"
       y2="320.25305" />
    <linearGradient
       xlink:href="#linearGradient29544"
       id="linearGradient1287"
       gradientUnits="userSpaceOnUse"
       gradientTransform="matrix(0.33644125,0.03571417,-0.03571417,0.33644125,-89.424144,-27.415752)"
       x1="132.10901"
       y1="575.51141"
       x2="1068.3112"
       y2="320.25305" />
    <linearGradient
       xlink:href="#linearGradient29544"
       id="linearGradient1289"
       gradientUnits="userSpaceOnUse"
       gradientTransform="matrix(0.33644125,0.03571417,-0.03571417,0.33644125,-89.424144,-27.415752)"
       x1="132.10901"
       y1="575.51141"
       x2="1068.3112"
       y2="320.25305" />
    <linearGradient
       xlink:href="#linearGradient29544"
       id="linearGradient1291"
       gradientUnits="userSpaceOnUse"
       gradientTransform="matrix(0.33644125,0.03571417,-0.03571417,0.33644125,-89.424144,-27.415752)"
       x1="132.10901"
       y1="575.51141"
       x2="1068.3112"
       y2="320.25305" />
    <linearGradient
       xlink:href="#linearGradient29544"
       id="linearGradient1293"
       gradientUnits="userSpaceOnUse"
       gradientTransform="matrix(0.33644125,0.03571417,-0.03571417,0.33644125,-89.424144,-27.415752)"
       x1="132.10901"
       y1="575.51141"
       x2="1068.3112"
       y2="320.25305" />
    <linearGradient
       xlink:href="#linearGradient29544"
       id="linearGradient1295"
       gradientUnits="userSpaceOnUse"
       gradientTransform="matrix(0.33644125,0.03571417,-0.03571417,0.33644125,-89.424144,-27.415752)"
       x1="132.10901"
       y1="575.51141"
       x2="1068.3112"
       y2="320.25305" />
    <linearGradient
       xlink:href="#linearGradient29544"
       id="linearGradient1297"
       gradientUnits="userSpaceOnUse"
       gradientTransform="matrix(0.33644125,0.03571417,-0.03571417,0.33644125,-89.424144,-27.415752)"
       x1="132.10901"
       y1="575.51141"
       x2="1068.3112"
       y2="320.25305" />
    <linearGradient
       xlink:href="#linearGradient29544"
       id="linearGradient1299"
       gradientUnits="userSpaceOnUse"
       gradientTransform="matrix(0.33644125,0.03571417,-0.03571417,0.33644125,-89.424144,-27.415752)"
       x1="132.10901"
       y1="575.51141"
       x2="1068.3112"
       y2="320.25305" />
    <linearGradient
       xlink:href="#linearGradient29544"
       id="linearGradient1301"
       gradientUnits="userSpaceOnUse"
       gradientTransform="matrix(0.33644125,0.03571417,-0.03571417,0.33644125,-89.424144,-27.415752)"
       x1="132.10901"
       y1="575.51141"
       x2="1068.3112"
       y2="320.25305" />
    <linearGradient
       xlink:href="#linearGradient29544"
       id="linearGradient1303"
       gradientUnits="userSpaceOnUse"
       gradientTransform="matrix(0.33644125,0.03571417,-0.03571417,0.33644125,-89.424144,-27.415752)"
       x1="132.10901"
       y1="575.51141"
       x2="1068.3112"
       y2="320.25305" />
    <linearGradient
       xlink:href="#linearGradient29544"
       id="linearGradient1305"
       gradientUnits="userSpaceOnUse"
       gradientTransform="matrix(0.33644125,0.03571417,-0.03571417,0.33644125,-89.424144,-27.415752)"
       x1="132.10901"
       y1="575.51141"
       x2="1068.3112"
       y2="320.25305" />
    <linearGradient
       xlink:href="#linearGradient29544"
       id="linearGradient1307"
       gradientUnits="userSpaceOnUse"
       gradientTransform="matrix(0.33644125,0.03571417,-0.03571417,0.33644125,-89.424144,-27.415752)"
       x1="132.10901"
       y1="575.51141"
       x2="1068.3112"
       y2="320.25305" />
    <linearGradient
       xlink:href="#linearGradient29544"
       id="linearGradient1309"
       gradientUnits="userSpaceOnUse"
       gradientTransform="matrix(0.33644125,0.03571417,-0.03571417,0.33644125,-89.424144,-27.415752)"
       x1="132.10901"
       y1="575.51141"
       x2="1068.3112"
       y2="320.25305" />
    <linearGradient
       xlink:href="#linearGradient29544"
       id="linearGradient1311"
       gradientUnits="userSpaceOnUse"
       gradientTransform="matrix(0.33644125,0.03571417,-0.03571417,0.33644125,-89.424144,-27.415752)"
       x1="132.10901"
       y1="575.51141"
       x2="1068.3112"
       y2="320.25305" />
    <linearGradient
       xlink:href="#linearGradient29544"
       id="linearGradient1313"
       gradientUnits="userSpaceOnUse"
       gradientTransform="matrix(0.33644125,0.03571417,-0.03571417,0.33644125,-89.424144,-27.415752)"
       x1="132.10901"
       y1="575.51141"
       x2="1068.3112"
       y2="320.25305" />
    <linearGradient
       xlink:href="#linearGradient29544"
       id="linearGradient1315"
       gradientUnits="userSpaceOnUse"
       gradientTransform="matrix(0.33644125,0.03571417,-0.03571417,0.33644125,-89.424144,-27.415752)"
       x1="132.10901"
       y1="575.51141"
       x2="1068.3112"
       y2="320.25305" />
    <linearGradient
       xlink:href="#linearGradient29544"
       id="linearGradient1317"
       gradientUnits="userSpaceOnUse"
       gradientTransform="matrix(0.33644125,0.03571417,-0.03571417,0.33644125,-89.424144,-27.415752)"
       x1="132.10901"
       y1="575.51141"
       x2="1068.3112"
       y2="320.25305" />
    <linearGradient
       xlink:href="#linearGradient29544"
       id="linearGradient1319"
       gradientUnits="userSpaceOnUse"
       gradientTransform="matrix(0.33644125,0.03571417,-0.03571417,0.33644125,-89.424144,-27.415752)"
       x1="132.10901"
       y1="575.51141"
       x2="1068.3112"
       y2="320.25305" />
    <linearGradient
       xlink:href="#linearGradient29544"
       id="linearGradient1321"
       gradientUnits="userSpaceOnUse"
       gradientTransform="matrix(0.33644125,0.03571417,-0.03571417,0.33644125,-89.424144,-27.415752)"
       x1="132.10901"
       y1="575.51141"
       x2="1068.3112"
       y2="320.25305" />
    <linearGradient
       xlink:href="#linearGradient29544"
       id="linearGradient1323"
       gradientUnits="userSpaceOnUse"
       gradientTransform="matrix(0.33644125,0.03571417,-0.03571417,0.33644125,-89.424144,-27.415752)"
       x1="132.10901"
       y1="575.51141"
       x2="1068.3112"
       y2="320.25305" />
    <linearGradient
       xlink:href="#linearGradient29544"
       id="linearGradient1325"
       gradientUnits="userSpaceOnUse"
       gradientTransform="matrix(0.33644125,0.03571417,-0.03571417,0.33644125,-89.424144,-27.415752)"
       x1="132.10901"
       y1="575.51141"
       x2="1068.3112"
       y2="320.25305" />
    <linearGradient
       xlink:href="#linearGradient29544"
       id="linearGradient1327"
       gradientUnits="userSpaceOnUse"
       gradientTransform="matrix(0.33644125,0.03571417,-0.03571417,0.33644125,-89.424144,-27.415752)"
       x1="132.10901"
       y1="575.51141"
       x2="1068.3112"
       y2="320.25305" />
    <linearGradient
       xlink:href="#linearGradient29544"
       id="linearGradient1329"
       gradientUnits="userSpaceOnUse"
       gradientTransform="matrix(0.33644125,0.03571417,-0.03571417,0.33644125,-89.424144,-27.415752)"
       x1="132.10901"
       y1="575.51141"
       x2="1068.3112"
       y2="320.25305" />
    <linearGradient
       xlink:href="#linearGradient29544"
       id="linearGradient1331"
       gradientUnits="userSpaceOnUse"
       gradientTransform="matrix(0.33644125,0.03571417,-0.03571417,0.33644125,-89.424144,-27.415752)"
       x1="132.10901"
       y1="575.51141"
       x2="1068.3112"
       y2="320.25305" />
    <linearGradient
       xlink:href="#linearGradient29544"
       id="linearGradient1333"
       gradientUnits="userSpaceOnUse"
       gradientTransform="matrix(0.33644125,0.03571417,-0.03571417,0.33644125,-89.424144,-27.415752)"
       x1="132.10901"
       y1="575.51141"
       x2="1068.3112"
       y2="320.25305" />
    <linearGradient
       xlink:href="#linearGradient29544"
       id="linearGradient1335"
       gradientUnits="userSpaceOnUse"
       gradientTransform="matrix(0.33644125,0.03571417,-0.03571417,0.33644125,-89.424144,-27.415752)"
       x1="132.10901"
       y1="575.51141"
       x2="1068.3112"
       y2="320.25305" />
    <linearGradient
       xlink:href="#linearGradient29544"
       id="linearGradient1337"
       gradientUnits="userSpaceOnUse"
       gradientTransform="matrix(0.33644125,0.03571417,-0.03571417,0.33644125,-89.424144,-27.415752)"
       x1="132.10901"
       y1="575.51141"
       x2="1068.3112"
       y2="320.25305" />
    <linearGradient
       xlink:href="#linearGradient29544"
       id="linearGradient1339"
       gradientUnits="userSpaceOnUse"
       gradientTransform="matrix(0.33644125,0.03571417,-0.03571417,0.33644125,-89.424144,-27.415752)"
       x1="132.10901"
       y1="575.51141"
       x2="1068.3112"
       y2="320.25305" />
    <linearGradient
       xlink:href="#linearGradient29544"
       id="linearGradient1341"
       gradientUnits="userSpaceOnUse"
       gradientTransform="matrix(0.33644125,0.03571417,-0.03571417,0.33644125,-89.424144,-27.415752)"
       x1="132.10901"
       y1="575.51141"
       x2="1068.3112"
       y2="320.25305" />
    <linearGradient
       xlink:href="#linearGradient29544"
       id="linearGradient1343"
       gradientUnits="userSpaceOnUse"
       gradientTransform="matrix(0.33644125,0.03571417,-0.03571417,0.33644125,-89.424144,-27.415752)"
       x1="132.10901"
       y1="575.51141"
       x2="1068.3112"
       y2="320.25305" />
    <linearGradient
       xlink:href="#linearGradient29544"
       id="linearGradient1345"
       gradientUnits="userSpaceOnUse"
       gradientTransform="matrix(0.33644125,0.03571417,-0.03571417,0.33644125,-89.424144,-27.415752)"
       x1="132.10901"
       y1="575.51141"
       x2="1068.3112"
       y2="320.25305" />
    <linearGradient
       xlink:href="#linearGradient29544"
       id="linearGradient1347"
       gradientUnits="userSpaceOnUse"
       gradientTransform="matrix(0.33644125,0.03571417,-0.03571417,0.33644125,-89.424144,-27.415752)"
       x1="132.10901"
       y1="575.51141"
       x2="1068.3112"
       y2="320.25305" />
    <linearGradient
       xlink:href="#linearGradient29544"
       id="linearGradient1349"
       gradientUnits="userSpaceOnUse"
       gradientTransform="matrix(0.33644125,0.03571417,-0.03571417,0.33644125,-89.424144,-27.415752)"
       x1="132.10901"
       y1="575.51141"
       x2="1068.3112"
       y2="320.25305" />
    <linearGradient
       xlink:href="#linearGradient25627"
       id="linearGradient25349-4"
       x1="-19.32687"
       y1="174.87611"
       x2="365.09894"
       y2="71.86953"
       gradientUnits="userSpaceOnUse"
       gradientTransform="matrix(1.0436285,0,0,1.0436285,-111.9494,-8.8893202)" />
    <linearGradient
       xlink:href="#linearGradient14653"
       id="linearGradient14655-6"
       x1="-46.183235"
       y1="706.05402"
       x2="1721.9431"
       y2="445.6926"
       gradientUnits="userSpaceOnUse"
       gradientTransform="matrix(0.27612676,0,0,0.27612676,-111.9494,-8.8893202)" />
    <linearGradient
       xlink:href="#linearGradient4549-4"
       id="linearGradient4687-8-8"
       x1="1155.105"
       y1="262.50851"
       x2="93.583733"
       y2="615.88306"
       gradientUnits="userSpaceOnUse"
       gradientTransform="matrix(0.33644138,0.03571415,-0.03571415,0.33644138,-89.424208,-25.572194)" />
    <linearGradient
       id="linearGradient4549-4">
      <stop
         style="stop-color:#8b5cf6;stop-opacity:1"
         offset="0"
         id="stop4545-4" />
      <stop
         style="stop-color:#6d28d9;stop-opacity:1"
         offset="0.2124767"
         id="stop3695" />
      <stop
         style="stop-color:#6f5cf6;stop-opacity:1"
         offset="0.42963988"
         id="stop3369" />
      <stop
         style="stop-color:#7c3aed;stop-opacity:1"
         offset="0.59961361"
         id="stop3629" />
      <stop
         style="stop-color:#6376f6;stop-opacity:1"
         offset="0.80968213"
         id="stop3499" />
      <stop
         style="stop-color:#6d28d9;stop-opacity:1"
         offset="1"
         id="stop4547-7" />
    </linearGradient>
    <linearGradient
       xlink:href="#linearGradient120453"
       id="linearGradient4479-5-0"
       x1="1143.1901"
       y1="196.74675"
       x2="120.85666"
       y2="539.48602"
       gradientUnits="userSpaceOnUse"
       gradientTransform="matrix(0.33644138,0.03571415,-0.03571415,0.33644138,-89.424208,-25.572194)" />
    <linearGradient
       id="linearGradient120453">
      <stop
         style="stop-color:#8b5cf6;stop-opacity:1"
         offset="0"
         id="stop120441" />
      <stop
         style="stop-color:#5151dc;stop-opacity:1"
         offset="0.25152168"
         id="stop120443" />
      <stop
         style="stop-color:#3b82f6;stop-opacity:1"
         offset="0.44539982"
         id="stop120445" />
      <stop
         style="stop-color:#8b69f6;stop-opacity:1"
         offset="0.63944036"
         id="stop120447" />
      <stop
         style="stop-color:#60a5fa;stop-opacity:1"
         offset="0.83593452"
         id="stop120449" />
      <stop
         style="stop-color:#60a5fa;stop-opacity:1"
         offset="1"
         id="stop120451" />
    </linearGradient>
    <linearGradient
       xlink:href="#linearGradient1509"
       id="linearGradient6948-1"
       gradientUnits="userSpaceOnUse"
       gradientTransform="matrix(0.33833165,0,0,0.33833165,-118.59461,-37.921569)"
       x1="466.89359"
       y1="475.49548"
       x2="1404.4065"
       y2="195.51314" />
    <linearGradient
       xlink:href="#linearGradient10986-7"
       id="linearGradient12309-5-40"
       gradientUnits="userSpaceOnUse"
       x1="1181.7125"
       y1="252.36546"
       x2="861.3941"
       y2="436.60165"
       gradientTransform="matrix(0.33833165,0,0,0.33833165,-118.59461,-36.839232)" />
    <linearGradient
       id="linearGradient10986-7">
      <stop
         style="stop-color:#7e5af0;stop-opacity:1"
         offset="0"
         id="stop10982-6" />
      <stop
         style="stop-color:#7c61ee;stop-opacity:1"
         offset="0.49538255"
         id="stop136405" />
      <stop
         style="stop-color:#4c6fe2;stop-opacity:1"
         offset="1"
         id="stop10984-6" />
    </linearGradient>
    <linearGradient
       xlink:href="#linearGradient4685-3-5"
       id="linearGradient4551-1-5"
       x1="1112.811"
       y1="69.067085"
       x2="89.147026"
       y2="487.89313"
       gradientUnits="userSpaceOnUse"
       gradientTransform="matrix(0.33644138,0.03571415,-0.03571415,0.33644138,-89.424208,-25.572194)" />
    <linearGradient
       id="linearGradient4685-3-5">
      <stop
         style="stop-color:#60a5fa;stop-opacity:1"
         offset="0"
         id="stop4681-8-8" />
      <stop
         style="stop-color:#365fd8;stop-opacity:1"
         offset="0.23215981"
         id="stop17498" />
      <stop
         style="stop-color:#3b82f6;stop-opacity:1"
         offset="0.43870947"
         id="stop26809-2" />
      <stop
         style="stop-color:#4d4eeb;stop-opacity:1"
         offset="0.65562975"
         id="stop12917" />
      <stop
         style="stop-color:#60a5fa;stop-opacity:1"
         offset="1"
         id="stop4683-5-8" />
    </linearGradient>
    <linearGradient
       xlink:href="#linearGradient29544"
       id="linearGradient24274-8"
       gradientUnits="userSpaceOnUse"
       gradientTransform="matrix(0.33644138,0.03571416,-0.03571416,0.33644138,-89.424208,-25.572194)"
       x1="132.10901"
       y1="575.51141"
       x2="1068.3112"
       y2="320.25305" />
    <linearGradient
       xlink:href="#linearGradient4477-3"
       id="linearGradient118139"
       x1="100.59962"
       y1="115.7887"
       x2="345.10434"
       y2="-9.8373604"
       gradientUnits="userSpaceOnUse"
       gradientTransform="matrix(0.92069057,0,0,0.92069057,-60.200429,8.7661534)" />
    <linearGradient
       id="linearGradient4477-3">
      <stop
         style="stop-color:#8b5cf6;stop-opacity:1"
         offset="0"
         id="stop4473-4" />
      <stop
         style="stop-color:#5151dc;stop-opacity:1"
         offset="0.25152168"
         id="stop55155" />
      <stop
         style="stop-color:#3b82f6;stop-opacity:1"
         offset="0.44539982"
         id="stop41682" />
      <stop
         style="stop-color:#8b5cf6;stop-opacity:1"
         offset="0.63944036"
         id="stop94918" />
      <stop
         style="stop-color:#60a5fa;stop-opacity:1"
         offset="0.83593452"
         id="stop98531" />
      <stop
         style="stop-color:#60a5fa;stop-opacity:1"
         offset="1"
         id="stop4475-3" />
    </linearGradient>
    <linearGradient
       xlink:href="#linearGradient25627"
       id="linearGradient161031"
       x1="-12.419965"
       y1="169.75165"
       x2="373.66388"
       y2="-5.8339572"
       gradientUnits="userSpaceOnUse"
       gradientTransform="matrix(0.92069057,0,0,0.92069057,-60.200429,2.9283123)" />
  </defs>
  <rect
     style="fill:#1b1e20;fill-opacity:1;stroke:none;stroke-width:0.122206;stroke-linecap:round;stroke-linejoin:round;paint-order:stroke fill markers;stop-color:#000000"
     id="rect3074-7"
     width="270.93335"
     height="203.20001"
     x="0"
     y="0" />
  <path
     id="path145852"
     style="fill:url(#linearGradient161031);fill-opacity:1;stroke:none;stroke-width:0.0895167px;stroke-linecap:butt;stroke-linejoin:miter;stroke-opacity:1"
     d="m 276.84549,-6.9211415 c -49.98674,6.28588411 -46.40058,71.1224975 -92.37318,78.5347845 -30.56103,1.716305 -40.26232,-7.82193 -63.51615,-1.967231 -27.698778,6.973826 -44.227024,32.189988 -67.894765,34.466828 -25.350543,2.43868 -54.1820696,-10.302098 -81.676689,2.78688 -17.070882,8.1267 -25.031458,28.89489 -35.01884,43.74554 v 18.99177 c 22.400491,-12.84303 41.843929,-32.4864 58.0094872,-37.60708 16.4761628,-5.21907 33.3961258,-2.15562 50.6334608,-1.73898 15.180981,0.36692 30.956618,-10.16225 46.613606,-11.20177 31.30226,-2.07836 65.13357,5.9529 95.81116,0.94205 29.77516,-4.86343 50.8886,-28.951801 78.95001,-36.061281 3.40403,-0.86242 6.90197,-1.362521 10.4619,-1.623831 z" />
  <path
     id="path3392-8"
     style="fill:none;stroke:url(#linearGradient118139);stroke-width:0.0895168px;stroke-linecap:butt;stroke-linejoin:miter;stroke-opacity:1"
     d="m 30.694,127.3485 c 0,0 25.956182,-4.22736 38.953976,-6.21501 18.646866,-2.85151 37.519864,-4.38267 55.994754,-8.19257 18.46641,-3.80815 37.12024,-7.65874 54.64251,-14.621533 22.65076,-9.00069 41.99837,-25.000533 64.34346,-34.735326 10.38701,-4.525176 32.19177,-10.908425 32.19177,-10.908425 M 30.140499,126.84365 c 0,0 26.180997,-4.17404 39.263724,-6.30902 18.643818,-3.0425 37.434357,-5.32238 55.908967,-9.26412 18.50416,-3.94806 37.36731,-7.29379 54.90912,-14.384344 22.50623,-9.097224 41.43027,-25.540067 63.48539,-35.682146 10.68453,-4.913302 33.14153,-12.096962 33.14153,-12.096962 M 29.586998,126.33879 c 0,0 26.406768,-4.11862 39.572616,-6.40187 18.645798,-3.23362 37.343776,-6.25874 55.823896,-10.33392 18.54166,-4.08876 37.61628,-6.92701 55.17584,-14.150055 22.36102,-9.198104 40.8434,-26.097913 62.60525,-36.635539 10.9742,-5.313977 34.07145,-13.310856 34.07145,-13.310856 M 29.033488,125.83388 c 0,0 26.633516,-4.0612 39.880688,-6.49357 18.652814,-3.42493 37.248274,-7.19184 55.739664,-11.40205 18.57885,-4.23013 37.86839,-6.55545 55.44256,-13.918581 22.23926,-9.317674 40.27182,-26.722271 61.76148,-37.658362 11.28493,-5.7429 35.07697,-14.580157 35.07697,-14.580157 M 28.479997,125.32904 c 0,0 26.861221,-4.002 40.187922,-6.58423 18.664792,-3.61655 37.147881,-8.12181 55.656231,-12.4686 18.61573,-4.37202 38.12113,-6.18541 55.70932,-13.689752 22.09206,-9.426021 39.64482,-27.308483 60.8349,-38.617307 11.55527,-6.166868 35.96058,-15.837563 35.96058,-15.837563 M 27.926496,124.82418 c 0,0 27.089865,-3.94113 40.494356,-6.67384 18.681677,-3.80853 37.042708,-9.04877 55.573648,-13.5337 18.65229,-4.5143 38.37692,-5.81112 55.97602,-13.463439 21.967,-9.55152 39.02975,-27.953667 59.94057,-39.637773 11.8428,-6.61727 36.91127,-17.144041 36.91127,-17.144041 M 27.372995,124.31928 c 0,0 27.31944,-3.87874 40.799989,-6.76245 18.703423,-4.00099 36.932806,-9.97288 55.491886,-14.59747 18.68852,-4.656831 38.63494,-5.43464 56.2427,-13.239371 21.84937,-9.684845 38.40515,-28.624417 59.04272,-40.677683 12.12828,-7.083462 37.86872,-18.476898 37.86872,-18.476898 M 26.819504,123.81442 c 0,0 27.549907,-3.81502 41.10481,-6.8502 18.729958,-4.19398 36.818226,-10.89435 55.410936,-15.6601 18.72445,-4.799516 38.89515,-5.056278 56.50939,-13.017388 21.73921,-9.825481 37.77086,-29.317973 58.14167,-41.734232 12.41075,-7.564495 38.83175,-19.832512 38.83175,-19.832512 M 26.265994,123.30958 c 0,0 27.78123,-3.75012 41.408822,-6.93715 18.761198,-4.38762 36.698974,-11.81341 55.330724,-16.721799 18.76009,-4.942193 39.15744,-4.676297 56.77616,-12.797092 21.63587,-9.972368 37.12606,-30.029796 57.23634,-42.802251 12.68841,-8.058676 39.79645,-21.205796 39.79645,-21.205796 M 25.712484,122.80469 c 0,0 28.013382,-3.68418 41.711978,-7.02338 18.797086,-4.58201 36.575078,-12.73037 55.251198,-17.782849 18.79549,-5.084771 39.42173,-4.294892 57.04309,-12.578152 21.54046,-10.125497 36.47255,-30.759066 56.33017,-43.881263 12.96181,-8.56535 40.76643,-22.593452 40.76643,-22.593452 M 25.159001,122.29983 c 0,0 28.246318,-3.61735 42.014324,-7.1089 18.837514,-4.77718 36.446655,-13.64518 55.172415,-18.843193 18.8306,-5.227119 39.67709,-3.934967 57.31007,-12.360667 21.17718,-10.119236 35.45313,-30.923133 54.79047,-44.224966 12.91406,-8.883357 40.66673,-23.609315 40.66673,-23.609315 l 0.85487,-0.574363 0.85486,-0.574373 M 24.605501,121.79495 c 0,0 28.480071,-3.54961 42.315951,-7.19354 18.882498,-4.97302 36.313988,-14.55738 55.094588,-19.90239 18.86543,-5.369164 39.95627,-3.528391 57.57683,-12.14518 21.3726,-10.451605 35.13571,-32.26642 54.50878,-46.076153 13.4925,-9.617874 42.71684,-25.421058 42.71684,-25.421058 M 24.051982,121.2901 c 0,0 28.71446,-3.48148 42.616566,-7.27803 C 85.600321,108.84196 102.84494,98.543105 121.68545,93.049759 140.58569,87.539002 161.9114,89.905527 179.52992,81.120592 200.82931,70.500307 213.98554,48.08975 233.12906,33.94832 246.87664,23.79291 276.82215,7.1142228 276.82215,7.1142228 M 23.498481,120.78522 c 0,0 28.94943,-3.41303 42.916168,-7.36232 18.985293,-5.36836 36.033981,-16.379765 54.939461,-22.022752 18.93501,-5.651797 40.49686,-2.759926 58.11287,-11.712767 21.23174,-10.790448 33.76784,-33.79427 52.68969,-48.257462 C 246.15044,20.733575 276.82083,3.194355 276.82083,3.194355 M 22.944998,120.28036 c 0,0 29.184925,-3.34438 43.214712,-7.44651 19.042956,-5.56791 35.88669,-17.290088 54.86211,-23.084003 18.96982,-5.792221 40.7689,-2.375648 58.38221,-11.495696 21.17022,-10.961797 33.07451,-34.555331 51.78355,-49.330674 14.23179,-11.239459 45.63294,-29.62191218 45.63294,-29.62191218 M 22.39147,119.77549 c 0,0 29.420907,-3.2757 43.512186,-7.5307 19.104679,-5.76883 35.734514,-18.20017 54.784764,-24.146302 19.00476,-5.931927 41.04192,-1.991537 58.65266,-11.277576 21.1144,-11.133506 32.37664,-35.310905 50.88169,-50.388576 14.46142,-11.78297 46.59871,-30.9886856 46.59871,-30.9886856 M 21.837988,119.27063 c 0,0 29.657294,-3.20711 43.80851,-7.61494 19.170371,-5.97121 35.577402,-19.110249 54.707302,-25.209814 19.0399,-6.070878 41.31571,-1.607793 58.92433,-11.058175 21.06301,-11.304322 31.6742,-36.05648 49.98311,-51.426001 14.68162,-12.324576 47.55761,-32.330783 47.55761,-32.330783 M 21.284478,118.76575 c 0,0 29.894058,-3.13871 44.103693,-7.69933 19.239919,-6.1751 35.415279,-20.020544 54.629619,-26.274786 19.07533,-6.20899 41.59015,-1.224463 59.19741,-10.837191 21.01686,-11.474217 30.96982,-36.791974 49.09159,-52.443428 14.89382,-12.8635294 48.51408,-33.645943 48.51408,-33.645943 M 20.730986,118.26089 c 0,0 30.131118,-3.07066 44.397661,-7.78393 19.313261,-6.38057 35.248123,-20.931202 54.551603,-27.341308 19.11113,-6.346218 41.86512,-0.841667 59.47201,-10.61442 20.97412,-11.641755 30.26279,-37.512405 48.2048,-53.434984 15.09659,-13.39742 49.46234,-34.92933 49.46234,-34.92933 M 20.177495,117.75601 c 0,0 30.368416,-3.00304 44.690375,-7.8688 19.390305,-6.58768 35.075926,-21.842445 54.4732,-28.409583 19.14734,-6.482527 42.14045,-0.459425 59.74825,-10.389653 20.93509,-11.806696 29.55506,-38.217193 47.32524,-54.400411 15.29096,-13.9254169 50.40504,-36.178839 50.40504,-36.178839 M 19.623994,117.25115 c 0,0 30.605909,-2.93595 44.981838,-7.95399 19.47094,-6.79648 34.898611,-22.754391 54.394238,-29.479713 19.1841,-6.617869 42.41607,-0.07771 60.02629,-10.162703 20.89882,-11.96825 28.84701,-38.903743 46.45254,-55.336808 15.47669,-14.44599416 51.34012,-37.391532 51.34012,-37.391532 M 19.070493,116.7463 c 0,0 30.84353,-2.86952 45.271994,-8.03954 19.5551,-7.00702 34.716203,-23.667175 54.314723,-30.551823 19.22146,-6.752197 42.69188,0.303395 60.3062,-9.933413 20.86495,-12.125955 28.13956,-39.57071 45.58737,-56.242805 15.65413,-14.9581651 52.26756,-38.565371 52.26756,-38.565371 M 18.516992,116.24142 c 0,0 31.081225,-2.80378 45.560815,-8.12548 19.642722,-7.21932 34.528705,-24.580929 54.234583,-31.626007 19.2595,-6.885486 42.9678,0.684073 60.5881,-9.70163 20.83305,-12.27936 27.43361,-40.216961 44.73034,-57.1173225 15.82366,-15.4610463 53.1874,-39.6987605 53.1874,-39.6987605 M 17.963473,115.73655 c 0,0 31.318975,-2.73883 45.84831,-8.21186 19.733676,-7.43342 34.336059,-25.495735 54.153697,-32.70234 19.29824,-7.017733 43.24378,1.064328 60.87206,-9.467277 20.80262,-12.428042 26.72969,-40.84129 43.88152,-57.9591189 15.98551,-15.9538211 54.09896,-40.7903181 54.09896,-40.7903181 M 17.409982,115.23168 c 0,0 31.556678,-2.67477 46.134423,-8.29867 19.827928,-7.649366 34.138295,-26.411686 54.072035,-33.780884 19.33781,-7.148905 43.5198,1.44425 61.15815,-9.230292 20.77309,-12.571661 26.02825,-41.442786 43.04083,-58.7673379 16.13987,-16.4358301 55.00159,-41.8391491 55.00159,-41.8391491 M 16.856481,114.72682 c 0,0 31.794309,-2.61163 46.419156,-8.38597 19.925364,-7.867156 33.93543,-27.328842 53.989563,-34.861702 19.37824,-7.27897 43.7958,1.823989 61.44646,-8.990543 C 199.45615,49.778481 204.042,20.467007 220.92104,2.9461829 237.20859,-13.960652 276.81768,-39.898809 276.81768,-39.898809 M 16.302971,114.22192 c 0,0 32.031819,-2.54946 46.702489,-8.47371 20.025941,-8.086804 33.727511,-28.247239 53.90628,-35.944783 19.41958,-7.407941 44.0718,2.203654 61.73696,-8.748052 20.71577,-12.84298 24.63538,-42.576258 41.38543,-60.28279523 16.4281,-17.36620277 56.7813,-43.80742077 56.7813,-43.80742077 M 15.74947,113.71707 c 0,0 32.269174,-2.48838 46.984405,-8.56199 20.129564,-8.308347 33.5145,-29.16697 53.822065,-37.030229 19.46192,-7.535806 44.34777,2.583338 62.02979,-8.502724 C 199.27358,46.651512 202.53126,16.513424 219.15784,-1.3689925 235.72109,-19.1833 276.81813,-46.096055 276.81813,-46.096055 M 15.195988,113.21221 c 0,0 32.506315,-2.42836 47.264912,-8.65073 20.236161,-8.531768 33.296516,-30.087979 53.737,-38.117938 19.50526,-7.662558 44.62377,2.963224 62.3249,-8.254636 20.65925,-13.092514 23.25925,-43.61708 39.76617,-61.66535 16.69196,-18.25059 58.52877,-45.604101 58.52877,-45.604101" />
  <path
     id="path22726-9"
     style="font-variation-settings:normal;vector-effect:none;fill:none;fill-opacity:1;stroke:url(#linearGradient24274-8);stroke-width:0.268549;stroke-linecap:butt;stroke-linejoin:miter;stroke-miterlimit:4;stroke-dasharray:none;stroke-dashoffset:0;stroke-opacity:1;stop-color:#000000"
     d="m -62.023892,179.81444 c 18.392105,-4.75381 38.100667,-32.75423 58.2608539,-35.76634 23.7869521,-3.55398 43.1562561,16.82263 67.8091461,17.29309 40.834932,0.77933 60.396242,-40.91506 110.319472,-12.18811 21.73937,12.50932 58.75648,1.50933 78.98758,-22.91353 m -315.576134,53.14974 c 18.201388,-4.88025 37.699524,-33.32123 58.0625935,-36.24015 23.6986485,-3.4513 43.4327495,16.72609 68.3341325,16.96621 40.287778,0.63539 60.060858,-40.24366 109.289698,-12.30083 21.90226,12.13019 58.18975,1.37997 78.69583,-22.35772 m -314.581339,53.50735 c 18.010662,-5.00667 37.298374,-33.88829 57.8643361,-36.71399 23.6103819,-3.3486 43.7092689,16.62962 68.8591009,16.63929 39.740662,0.49149 59.725512,-39.57222 108.259942,-12.4135 22.0651,11.75104 57.62301,1.25059 78.40408,-21.8019 M -62.62114,178.539 c 17.81995,-5.13311 36.897229,-34.45534 57.6660654,-37.18781 23.5221246,-3.24586 43.9857616,16.53314 69.3840886,16.31241 39.193526,0.34754 59.390146,-38.90084 107.230166,-12.52616 22.22796,11.37186 57.05634,1.12114 78.11237,-21.24614 m -312.591777,54.22255 c 17.629224,-5.25951 36.49609,-35.02236 57.4678008,-37.66163 23.4338672,-3.14315 44.2622912,16.43664 69.9090752,15.98556 38.646411,0.20357 59.054781,-38.22947 106.200421,-12.63886 22.39082,10.99267 56.48959,0.99173 77.82057,-20.6904 M -63.019306,177.6887 c 17.438501,-5.38592 36.094943,-35.5894 57.2695281,-38.13549 23.3456009,-3.04045 44.5387749,16.34021 70.4340719,15.65869 38.099246,0.0596 58.719416,-37.55804 105.170636,-12.75155 22.55365,10.61353 55.92288,0.86236 77.52878,-20.13456 m -310.602101,54.93777 c 17.247779,-5.51232 35.693793,-36.15643 57.0712799,-38.60929 23.2573341,-2.9378 44.8152671,16.24365 70.9590401,15.33176 37.552131,-0.0842 58.384061,-36.88663 104.140881,-12.86424 22.71652,10.23437 55.35617,0.73299 77.23704,-19.57878 M -63.417473,176.8384 c 17.05706,-5.63875 35.292649,-36.72346 56.8730103,-39.08312 23.1690587,-2.83506 45.0917877,16.14719 71.4840087,15.00488 37.005014,-0.22817 58.048704,-36.21522 103.111134,-12.97688 22.87939,9.85516 54.78944,0.60356 76.94525,-19.023 m -308.612485,55.65297 c 16.866338,-5.76518 34.891506,-37.29048 56.6747406,-39.55693 23.0807924,-2.73234 45.3682894,16.05066 72.0089864,14.678 36.457868,-0.37214 57.713318,-35.54385 102.081368,-13.08958 23.04225,9.476 54.22272,0.47417 76.65351,-18.46724 m -307.43644,55.94555 c 16.623478,-6.05769 34.388745,-37.80032 56.2952424,-39.9657 22.9925346,-2.62965 45.6447816,15.95416 72.5339276,14.3511 35.91075,-0.51609 57.378,-34.87244 101.05164,-13.20228 23.20509,9.09686 53.65599,0.34479 76.36172,-17.9114 m -306.242549,56.22477 c 16.37547,-6.37095 33.879447,-38.29716 55.8979098,-40.36115 22.9042682,-2.52693 45.9213022,15.85768 73.0589142,14.02419 35.363605,-0.65998 57.042655,-34.20102 100.021865,-13.31493 23.36795,8.71768 53.0893,0.21539 76.07,-17.35566 m -305.048652,56.49635 c 16.127473,-6.68872 33.373841,-38.78565 55.5005304,-40.74894 22.8159826,-2.42424 46.1978036,15.76119 73.5838916,13.69733 34.8165,-0.80392 56.7073,-33.52962 98.99207,-13.42764 23.53082,8.33851 52.5226,0.0861 75.77828,-16.79987 m -303.854302,56.75965 c 15.879415,-7.01124 32.871852,-39.26534 55.1027087,-41.12843 22.7277163,-2.32152 46.4743243,15.66469 74.1088793,13.37043 34.269364,-0.94786 56.371934,-32.8582 97.962314,-13.5403 23.69369,7.95933 51.95584,-0.0436 75.4865,-16.24408 m -302.660669,57.01468 c 15.631698,-7.33731 32.374274,-39.73615 54.7056149,-41.49972 22.6394681,-2.21883 46.7508441,15.56819 74.6338841,13.04356 33.722198,-1.09177 56.03654,-32.18682 96.93258,-13.65299 23.8565,7.58016 51.38911,-0.17281 75.19468,-15.68827 m -301.466854,57.26064 c 15.384112,-7.66767 31.880713,-40.19725 54.3083859,-41.8619 22.5511831,-2.11614 47.0273271,15.4717 75.1588441,12.71664 33.175059,-1.23568 55.701184,-31.51538 95.902784,-13.76568 24.01938,7.20105 50.82241,-0.30213 74.90296,-15.13249 M -63.634265,172.778 c 15.136741,-8.00203 31.391377,-40.64808 53.911026,-42.21449 22.462926,-2.01342 47.303866,15.37523 75.68384,12.38977 32.62793,-1.37964 55.365829,-30.844 94.873029,-13.87834 24.18225,6.82183 50.25572,-0.43162 74.6112,-14.57675 m -299.079181,57.72345 c 14.889714,-8.34016 30.906526,-41.08827 53.51377,-42.55711 22.374659,-1.9107 47.580358,15.27874 76.208808,12.06289 32.080782,-1.52358 55.030463,-30.17257 93.843273,-13.99102 24.34509,6.44266 49.68897,-0.561 74.31941,-14.02094 m -297.885382,57.93919 c 14.643077,-8.68181 30.426267,-41.51708 53.116539,-42.88909 22.286411,-1.80801 47.85687,15.18224 76.733786,11.736 31.533689,-1.6675 54.695127,-29.50119 92.813497,-14.10369 24.50796,6.06348 49.12229,-0.6904 74.02767,-13.46519 m -296.691463,58.14369 c 14.396851,-9.02698 29.950701,-41.9339 52.719158,-43.20977 22.198135,-1.70534 48.133381,15.08574 77.258764,11.4091 30.986523,-1.81143 54.359761,-28.82981 91.783751,-14.2164 24.67077,5.68437 48.55553,-0.81978 73.73591,-12.90935 m -295.497382,58.33614 c 14.151139,-9.37544 29.479972,-42.33796 52.321606,-43.51845 22.10985,-1.60264 48.409882,14.98921 77.783741,11.08219 30.439412,-1.95537 54.024415,-28.15837 90.753995,-14.32906 24.83367,5.30516 47.98885,-0.94918 73.44413,-12.35359 m -294.303517,58.51625 c 13.906125,-9.72651 29.014452,-42.72884 51.924317,-43.8148 22.021602,-1.49989 48.686385,14.89278 78.308692,10.75538 29.892301,-2.09934 53.689058,-27.487 89.724258,-14.44179 24.99652,4.92601 47.4221,-1.07858 73.1524,-11.79779 m -293.109592,58.68302 c 13.661815,-10.08025 28.554188,-43.1056 51.526891,-44.09778 21.9333167,-1.39719 48.962895,14.79627 78.833706,10.42847 29.345143,-2.24324 53.353665,-26.81559 88.694465,-14.55443 25.15937,4.54683 46.85539,-1.20801 72.8606,-11.24205 m -291.915949,58.83612 c 13.418444,-10.43593 28.099553,-43.46779 51.129826,-44.3671 21.8450504,-1.29448 49.239407,14.6998 79.358666,10.1016 28.79805,-2.38719 53.018347,-26.14417 87.664737,-14.66711 25.32222,4.16764 46.28865,-1.33739 72.56883,-10.68624 m -290.721947,58.97411 c 13.175916,-10.79382 27.650429,-43.81403 50.732372,-44.62133 21.7568018,-1.19178 49.515908,14.60329 79.883643,9.77466 28.250884,-2.53108 52.682972,-25.47271 86.634962,-14.77977 25.48511,3.78854 45.72194,-1.46678 72.2771,-10.13046 m -289.527773,59.0964 c 12.934405,-11.15328 27.207126,-44.14359 50.334716,-44.8598 21.6685263,-1.08906 49.792438,14.5068 80.408622,9.44778 27.703772,-2.67501 52.347625,-24.80136 85.605195,-14.89246 25.64793,3.40934 45.15528,-1.59617 71.98536,-9.57467 m -288.334202,59.20274 c 12.694265,-11.51328 26.770189,-44.45626 49.937673,-45.08237 21.5802693,-0.98635 50.068931,14.41034 80.933609,9.12093 27.156606,-2.81899 52.01223,-24.12996 84.57543,-15.00516 25.8108,3.03015 44.58852,-1.72559 71.69358,-9.01889 m -287.140521,59.29167 c 12.455439,-11.87389 26.339535,-44.75054 49.540569,-45.28753 21.4920025,-0.88366 50.345441,14.31383 81.458577,8.79402 26.609495,-2.96288 51.676875,-23.45853 83.545655,-15.11782 25.97366,2.65103 44.02181,-1.85497 71.40184,-8.4631 m -285.946049,59.36151 c 12.217889,-12.23514 25.915149,-45.02466 49.142626,-45.47357 21.4037352,-0.78095 50.621915,14.21734 81.983564,8.46712 26.062374,-3.10681 51.341529,-22.78712 82.515899,-15.23052 26.13651,2.27189 43.45509,-1.98435 71.11006,-7.9073 m -284.752625,59.41313 c 11.982258,-12.59499 25.497963,-45.27949 48.745759,-45.64139 21.3154508,-0.67825 50.898436,14.12081 82.508533,8.14025 25.515226,-3.25078 51.006173,-22.11575 81.486173,-15.34323 26.29938,1.8927 42.88834,-2.11373 70.81825,-7.35151 m -283.558655,59.44385 c 11.748309,-12.95407 25.087625,-45.5123 48.348348,-45.78834 21.227202,-0.57556 51.174946,14.02435 83.033537,7.81333 24.968088,-3.39467 50.6708,-21.44432 80.45636,-15.45587 26.46223,1.51353 42.32167,-2.24315 70.52653,-6.79571 m -282.364765,59.45319 c 11.516365,-13.31119 24.684601,-45.72257 47.950986,-45.91392 21.1389265,-0.47286 51.451476,13.92783 83.558506,7.48647 24.420949,-3.53858 50.335453,-20.77293 79.426613,-15.5686 26.62507,1.1344 41.75494,-2.37249 70.23476,-6.23991 m -281.170778,59.43991 c 11.286593,-13.66575 24.289114,-45.90897 47.553556,-46.01685 21.0506697,-0.37013 51.72796,13.83139 84.083475,7.15957 23.873838,-3.68253 50.000097,-20.1015 78.396857,-15.68123 26.78794,0.75521 41.18824,-2.50193 69.94303,-5.68416 m -279.976908,59.40299 c 11.05922,-14.0168 23.901457,-46.07046 47.156204,-46.09613 20.962375,-0.26743 52.00448,13.73487 84.608453,6.83267 23.32669,-3.82648 49.664711,-19.43009 77.367091,-15.79392 26.9508,0.37605 40.62154,-2.63133 69.65126,-5.12835 m -278.783037,59.34122 c 10.834465,-14.36355 23.521894,-46.20575 46.758891,-46.1506 20.8741356,-0.16473 52.280972,13.63838 85.133403,6.50582 22.779578,-3.97041 49.329393,-18.75871 76.337373,-15.90662 27.11363,-9.2e-4 40.05477,-2.76071 69.35946,-4.57259 m -277.589285,59.25348 c 10.612561,-14.70499 23.150701,-46.31372 46.361697,-46.17906 20.785851,-0.0619 52.557511,13.54189 85.658381,6.17891 22.232449,-4.1143 48.994057,-18.08729 75.307587,-16.0193 27.27651,-0.38229 39.4881,-2.8901 69.06774,-4.016783 M -63.634637,158.76412 c 10.393712,-15.04027 22.788107,-46.39277 45.964457,-46.18009 20.6976031,0.0407 52.833994,13.44537 86.183368,5.85202 21.685347,-4.25827 48.658702,-17.4159 74.277822,-16.13195 27.43935,-0.76148 38.92138,-3.019535 68.77597,-3.461025 M -63.634369,157.83691 c 10.178092,-15.36845 22.4343,-46.44107 45.566847,-46.15183 20.6093269,0.14342 53.110514,13.34889 86.708373,5.52511 21.138162,-4.40222 48.323289,-16.74447 73.248029,-16.24464 27.60223,-1.140641 38.35465,-3.148943 68.48421,-2.905227 M -63.635959,156.88262 c 9.966406,-15.68736 22.090058,-46.46077 45.171085,-46.09653 20.5210699,0.2461 53.387016,13.25238 87.233342,5.19824 20.591033,-4.54612 47.987932,-16.07306 72.218312,-16.357323 27.76507,-1.519812 37.78791,-3.278313 68.19246,-2.349455 M -63.63654,155.89556 c 9.758347,-15.99724 21.754938,-46.44605 44.774324,-46.00846 20.4327844,0.3488 53.663518,13.15597 87.758301,4.87137 20.043931,-4.69006 47.652595,-15.401668 71.188545,-16.470028 27.92794,-1.898961 37.22122,-3.407697 67.90068,-1.793634 M -63.635224,154.8728 c 9.554068,-16.29713 21.429068,-46.39392 44.375656,-45.88466 20.344555,0.45151 53.940048,13.05942 88.283288,4.54446 19.496792,-4.83396 47.31723,-14.730284 70.15879,-16.582695 28.09076,-2.278129 36.65449,-3.537099 67.60892,-1.237886" />
  <path
     id="path2997-1-1"
     style="fill:url(#linearGradient4551-1-5);fill-opacity:1;stroke:none;stroke-width:0.0895167px;stroke-linecap:butt;stroke-linejoin:miter;stroke-opacity:1"
     d="M 276.84549,-5.2774621 C 226.85875,1.0084147 230.44491,64.762959 184.47231,72.175245 153.91128,73.891542 144.20999,65.470804 120.95616,71.325503 93.257382,78.299329 76.729136,102.39801 53.061395,104.67485 c -25.350543,2.43868 -54.1820696,-9.818484 -81.676689,3.27051 -17.070882,8.1267 -25.031458,28.82406 -35.01884,43.67471 v 20.23017 c 22.400491,-12.84304 41.843929,-32.4864 58.0094872,-37.60708 16.4761628,-5.21907 33.3961258,-2.15562 50.6334608,-1.73898 15.180981,0.36692 30.956618,-10.16225 46.613606,-11.20177 31.30226,-2.07837 65.13357,5.9529 95.81116,0.94205 29.77516,-4.86344 50.8886,-28.951814 78.95001,-36.061294 3.40403,-0.86243 6.90197,-1.36253 10.4619,-1.623841 z" />
  <path
     id="path6969-8-7"
     style="fill:url(#linearGradient12309-5-40);fill-opacity:1;stroke:none;stroke-width:0.0895168px;stroke-linecap:butt;stroke-linejoin:miter;stroke-opacity:1"
     d="m 276.84567,38.401701 c -31.12248,4.135751 -46.82662,16.729435 -66.06331,43.089791 -22.83285,31.288178 -65.36221,19.085668 -65.36221,19.085668 l 50.18981,17.70609 81.23571,-14.78842 z" />
  <path
     id="path3305-1"
     style="fill:none;fill-opacity:1;stroke:url(#linearGradient6948-1);stroke-width:0.0895168px;stroke-linecap:butt;stroke-linejoin:miter;stroke-opacity:1"
     d="m 37.913356,118.42717 c 7.410205,0.6818 26.588807,-0.36647 33.853838,-2.84602 C 108.71435,97.595807 122.52302,77.135678 164.64455,89.35814 211.87432,103.06289 228.14872,38.730728 276.91463,31.608312 M 37.646981,132.90712 c 0,0 17.128123,-0.84593 41.115693,-2.28455 42.362466,-2.98462 55.357006,-2.19595 101.686236,10.38088 31.85089,8.64645 65.93957,-32.85867 96.47648,-38.34992 m -239.26922,29.7543 c 0.255538,0.0235 17.45435,-0.82943 40.865265,-2.30393 42.156885,-3.55308 55.313575,-3.45527 101.382535,9.11865 32.1643,8.77882 66.20774,-32.79595 97.02394,-38.62562 M 37.665358,131.9085 c 0.511066,0.0473 17.78057,-0.81288 40.614865,-2.32324 41.950467,-4.12014 55.265617,-4.72047 101.078727,7.8564 32.48239,8.91726 66.4765,-32.75974 97.5668,-38.940603 M 37.674547,131.40918 c 0.766567,0.0704 18.106807,-0.7963 40.364474,-2.34263 41.708019,-4.68651 55.268169,-5.97639 100.774969,6.59428 32.80572,9.06215 66.74553,-32.75288 98.10473,-39.296373 M 37.683735,130.90989 c 1.022068,0.094 18.433036,-0.77981 40.114037,-2.36199 41.511918,-5.25299 55.204688,-7.25564 100.471218,5.33201 33.13921,9.2153 67.02438,-32.78023 98.65159,-39.697223 M 37.692896,130.41058 c 1.277652,0.11761 18.759292,-0.76329 39.863646,-2.38134 41.324438,-5.81836 55.127688,-8.54403 100.167518,4.06981 33.48261,9.37714 67.31062,-32.845439 99.20402,-40.144195 M 37.702112,129.91126 c 1.533134,0.14103 19.085502,-0.74671 39.6132,-2.40068 41.118418,-6.36895 55.028738,-9.84422 99.863748,2.80764 33.83466,9.5477 67.59919,-32.951472 99.75516,-40.636927 M 37.711292,129.41194 c 1.788662,0.16459 19.41172,-0.73017 39.362836,-2.42004 40.909572,-6.92491 54.957962,-11.14259 99.559982,1.54545 34.19422,9.72731 67.88513,-33.101925 100.29832,-41.174568 M 37.720462,128.91264 c 2.044209,0.18809 19.737985,-0.71366 39.112417,-2.43939 40.700901,-7.47766 54.879411,-12.43822 99.256251,0.28318 34.58614,9.91474 68.14998,-33.296936 100.83486,-41.757641 M 37.729659,128.41333 c 2.29971,0.21157 20.064168,-0.6971 38.862009,-2.45876 40.492672,-8.02684 54.797152,-13.74642 98.952432,-0.97898 35.06048,10.13768 68.3485,-33.529739 101.36628,-42.386404 M 37.738857,127.91401 c 2.555248,0.23512 20.390405,-0.68058 38.611581,-2.47813 40.285152,-8.57239 54.711232,-15.0673 98.648712,-2.24117 35.48901,10.35986 68.62076,-33.844286 101.91458,-43.066061 M 37.748018,127.41472 c 2.810795,0.25861 20.71667,-0.66407 38.361199,-2.4975 40.078733,-9.11398 54.620233,-16.39784 98.344923,-3.50339 35.9351,10.59729 68.88955,-34.227388 102.45775,-43.789192 M 37.757197,126.9154 c 3.066305,0.28212 21.04288,-0.64752 38.110789,-2.51685 39.873764,-9.65129 54.524494,-17.73888 98.041204,-4.76561 36.40165,10.85212 69.16092,-34.688582 103.00194,-44.554969 M 37.766404,126.41609 c 3.321815,0.30562 21.369109,-0.63098 37.860362,-2.53622 39.670564,-10.18413 54.423804,-19.09104 97.737434,-6.02778 36.88869,11.12551 69.43689,-35.236324 103.54577,-45.359335 M 37.775593,125.91679 c 3.577352,0.32914 21.695318,-0.61447 37.609952,-2.5556 39.469605,-10.71224 54.318255,-20.45528 97.433685,-7.28996 37.39583,11.41885 69.72262,-35.879965 104.08921,-46.197297 M 37.784754,125.41746 c 3.832871,0.35267 22.021601,-0.59791 37.35957,-2.57493 39.271196,-11.23565 54.207806,-21.8319 97.129946,-8.5522 37.92182,11.73265 70.02569,-36.628588 104.63248,-47.062489 M 37.793951,124.91815 c 4.08841,0.37616 22.347803,-0.5814 37.109143,-2.59428 39.075806,-11.75387 54.092246,-23.221123 96.826196,-9.8144 38.46463,12.06733 70.3572,-37.491141 105.177,-47.947664 M 37.80314,124.41887 c 4.343928,0.39969 22.674031,-0.56489 36.858733,-2.61367 38.883737,-12.26689 53.989517,-24.679562 96.522377,-11.07659 38.56151,12.33283 70.88389,-38.518802 105.71797,-48.842192 M 37.812347,123.91955 c 4.599429,0.4232 23.000249,-0.54834 36.608314,-2.63303 38.695419,-12.77459 53.864629,-26.096505 96.218669,-12.33879 39.10125,12.70111 71.2389,-39.602789 106.26848,-49.739454 M 37.821507,123.42024 c 4.854977,0.44668 23.326497,-0.53178 36.357915,-2.65238 38.511158,-13.27683 53.732468,-27.520328 95.914878,-13.601 39.66133,13.08741 71.61917,-40.794074 106.81256,-50.623523 M 37.830687,122.92092 c 5.110514,0.47024 23.652743,-0.51526 36.107523,-2.67172 38.33127,-13.77367 53.59145,-28.946415 95.61114,-14.86319 40.24631,13.48883 72.03844,-42.086802 107.35673,-51.484585 M 37.839884,122.42162 c 5.366034,0.49374 23.978981,-0.49871 35.857077,-2.6911 38.156089,-14.2647 53.439319,-30.368679 95.307399,-16.12539 40.86023,13.90039 72.50491,-43.46668 107.90124,-52.310778 M 37.849064,121.92232 c 5.621552,0.51721 24.3052,-0.48218 35.606704,-2.71048 37.985832,-14.7502 53.268972,-31.767282 95.003642,-17.38756 41.23479,14.20748 72.4259,-44.562519 107.66461,-52.918596 0.26579,-0.06058 0.5309,-0.120564 0.79539,-0.17982 M 37.858243,121.42299 c 5.877072,0.54073 24.631437,-0.46565 35.356295,-2.72983 37.820762,-15.22992 52.835702,-32.420448 94.699892,-18.64977 45.90234,15.09896 65.7999,-44.688056 109.00923,-53.855768 M 37.867422,120.92369 c 6.132619,0.56428 24.957657,-0.44911 35.105886,-2.7492 37.661042,-15.7038 52.531132,-33.483147 94.396142,-19.911993 46.15154,14.960683 65.47321,-45.751932 109.55443,-54.5807 M 37.876629,120.42438 c 6.388101,0.58776 25.283857,-0.43257 34.855476,-2.76853 C 110.23894,101.48393 124.94187,83.130948 166.8245,96.481624 213.22586,111.27273 231.91994,49.697257 276.91977,41.208067 M 37.885781,119.92507 c 6.643666,0.61127 25.610122,-0.41608 34.605066,-2.78791 37.358283,-16.63413 51.870773,-35.541749 93.788623,-22.43641 46.64139,14.58214 64.7011,-47.791565 110.64666,-55.937605 M 37.894988,119.42576 c 6.899185,0.6348 25.936332,-0.39952 34.354648,-2.80725 C 109.46508,99.528042 123.76528,80.082247 165.73448,92.919877 212.59239,107.2529 230.0292,44.15331 276.91653,36.350899 M 37.904167,118.92643 c 7.154705,0.65829 26.262588,-0.38295 34.104248,-2.8266 37.078415,-17.540834 51.143185,-37.502363 93.181105,-24.960808 47.057,14.038958 63.90085,-49.716453 111.737,-57.174838" />
  <path
     id="path2985-6-0"
     style="fill:url(#linearGradient4479-5-0);fill-opacity:1;stroke:none;stroke-width:0.0895167px;stroke-linecap:butt;stroke-linejoin:miter;stroke-opacity:1"
     d="m 276.84549,64.485214 c -3.42032,0.495138 -7.02053,1.144437 -10.93817,2.005412 -40.22072,8.839218 -47.37221,41.923544 -77.614,38.879334 -14.69524,-1.47926 -46.83365,-10.537993 -61.27714,-7.826587 -24.60881,4.619687 -35.21023,20.402167 -60.41789,22.716127 -29.580011,2.7153 -48.305716,-12.03806 -77.632841,-7.64719 -24.641639,3.68934 -38.382588,31.80698 -49.874314,45.86803 -0.878232,1.07459 -1.78876,2.07473 -2.725269,3.01835 v 10.3387 c 8.889261,-4.38247 16.427459,-8.80528 20.689297,-11.57382 61.192647,-52.07733 51.684381,-8.6348 98.714369,-11.64567 15.90145,-1.01802 56.103408,-31.42251 72.079258,-34.74575 32.99572,-6.86358 39.56865,16.17482 72.44324,10.84779 27.17504,-4.40352 51.29597,-19.70107 76.55346,-29.136791 z" />
  <path
     id="path2974-6-6"
     style="fill:url(#linearGradient4687-8-8);fill-opacity:1;stroke:none;stroke-width:0.0895167px;stroke-linecap:butt;stroke-linejoin:miter;stroke-opacity:1"
     d="m 276.84549,86.611361 c -0.52496,0.08654 -1.04771,0.161397 -1.57577,0.264063 -19.61555,3.813657 -33.81442,17.023776 -57.9053,31.127926 -26.80412,15.69266 -65.44283,-19.092816 -92.07581,-12.41929 -27.058532,6.78015 -39.013027,30.08843 -65.852713,33.84605 -27.152196,3.80135 -43.528777,-29.65552 -79.285894,-15.37865 -21.457616,8.56745 -28.442069,30.12302 -38.805098,40.74914 -1.642358,1.68406 -3.2989,3.19662 -4.979039,4.56844 v 12.10528 c 2.737457,-1.13656 5.5237,-2.49851 8.371826,-4.13168 21.911534,-12.56439 30.762326,-39.89581 57.1992284,-41.58175 14.4284086,-0.92016 31.1349196,16.91204 53.2673906,19.65114 29.604805,3.66393 50.297449,-24.4891 67.315739,-27.5115 35.05666,-6.22588 47.44575,19.45888 73.50185,22.35452 34.05658,3.78474 55.44522,-23.41021 80.82359,-37.66132 z" />
  <path
     id="path1152-9"
     style="opacity:0.239939;fill:#e9ebed;fill-opacity:0.491332;stroke:none;stroke-width:0.0895167px;stroke-linecap:butt;stroke-linejoin:miter;stroke-opacity:1"
     d="m 276.85313,91.821631 c -24.35373,17.204859 -45.0428,58.652519 -76.76521,58.639919 31.70179,1.2733 52.41394,-24.2037 76.76521,-37.85402 z M 136.86434,112.10083 c -30.49281,0.50163 -47.465959,41.94161 -78.640725,43.57716 27.989398,1.46973 47.867615,-24.85975 64.296435,-27.77746 35.05666,-6.22588 47.44577,19.45888 73.50185,22.35452 -24.4276,-2.71465 -30.32008,-38.62863 -59.15756,-38.15422 z M 0.7646051,128.17077 C -25.240245,127.85912 -43.977935,170.99097 -63.63461,178.4731 v 2.5754 c 2.68614,-1.20755 5.388896,-2.54293 8.076843,-4.01892 21.911534,-12.5644 31.057785,-39.58275 57.4946874,-41.26869 C 16.365329,134.84073 33.07184,152.75763 55.204311,155.49672 33.07184,152.75763 24.674111,128.45733 0.7646051,128.17077 Z" />
  <path
     id="path4167-6"
     style="fill:url(#linearGradient14655-6);fill-opacity:1;stroke:none;stroke-width:0.0895169px;stroke-linecap:butt;stroke-linejoin:miter;stroke-opacity:1"
     d="m 276.84549,110.31094 c -23.5666,14.22884 -44.91246,39.20091 -75.05287,40.10778 -0.56513,0.0263 -1.13251,0.0435 -1.7047,0.0433 0.99069,0.0399 1.97064,0.0536 2.94031,0.0423 3.8781,-0.0451 7.59183,-0.49012 11.1694,-1.25797 0.64156,-0.13769 1.27349,-0.29724 1.90645,-0.45532 0.24955,-0.0622 0.50348,-0.11398 0.75176,-0.17937 0,-1.2e-4 0,-2.4e-4 0.003,-4.8e-4 0.42143,-0.11102 0.83543,-0.24049 1.2532,-0.36017 0.45263,-0.12966 0.90894,-0.25064 1.35741,-0.39014 0.86158,-0.26804 1.71523,-0.55383 2.56205,-0.8564 0,-2.5e-4 0,-7.4e-4 0.003,-9.2e-4 0.84668,-0.30253 1.68641,-0.62162 2.51923,-0.95632 0,-2.4e-4 0.003,-7.3e-4 0.003,-9.2e-4 0.0968,-0.0389 0.19122,-0.0825 0.28784,-0.1218 0.73548,-0.29934 1.46795,-0.60616 2.19334,-0.92872 0.81981,-0.36456 1.63304,-0.74319 2.44074,-1.13521 0,-4.9e-4 0.003,-9.2e-4 0.003,-0.002 0.76259,-0.37013 1.51972,-0.75405 2.27232,-1.14663 0.0454,-0.0238 0.0917,-0.0453 0.13702,-0.069 0.79621,-0.41703 1.58679,-0.84578 2.37271,-1.28556 0,-7.3e-4 0.003,-9.2e-4 0.004,-0.002 0.78595,-0.43981 1.56715,-0.89054 2.3437,-1.35075 0,-7.2e-4 0.003,-9.2e-4 0.004,-0.002 0.77647,-0.46019 1.54861,-0.92959 2.31659,-1.40784 0,-7.2e-4 0.003,-0.002 0.004,-0.003 0.76795,-0.47827 1.53149,-0.96477 2.29183,-1.45874 0,-7.3e-4 0.003,-0.002 0.004,-0.003 1.52169,-0.98865 3.02904,-2.0066 4.52564,-3.04404 0,-9.2e-4 0.003,-0.002 0.004,-0.003 0.69667,-0.48295 1.3844,-0.98151 2.07678,-1.47206 0.79628,-0.56417 1.59728,-1.12132 2.38888,-1.69283 2.95806,-2.1356 5.88683,-4.3126 8.81574,-6.45538 0,-7.3e-4 0.003,-9.2e-4 0.003,-0.002 0.0952,-0.0697 0.19029,-0.13741 0.28547,-0.20698 1.37102,-1.00194 2.74217,-1.99775 4.11644,-2.976 1.46661,-1.04403 2.93662,-2.07038 4.4138,-3.06925 v -4.9e-4 c 1.19312,-0.80679 2.39555,-1.58026 3.59974,-2.34654 0.28908,-0.18393 0.57424,-0.38208 0.86403,-0.56333 0.74801,-0.46776 1.49859,-0.92582 2.25234,-1.37406 0.43646,-0.25955 0.87645,-0.50791 1.31505,-0.76029 0.31936,-0.18374 0.63669,-0.37358 0.95727,-0.55333 z M 134.30798,125.4593 v 4.9e-4 c -29.6591,-0.76954 -42.372553,31.02565 -76.084365,30.21821 27.989416,1.46973 47.867615,-24.85976 64.296435,-27.77746 1.06517,-0.18917 2.10771,-0.34635 3.13206,-0.47816 0.33849,-0.0436 0.66401,-0.0686 0.99819,-0.1061 0.6791,-0.0762 1.35887,-0.15308 2.02063,-0.20506 0.38447,-0.0302 0.75597,-0.043 1.13475,-0.0652 0.5925,-0.0349 1.18665,-0.0721 1.76561,-0.088 0.39423,-0.0109 0.77753,-0.006 1.16566,-0.009 0.55029,-0.004 1.10163,-0.007 1.64002,0.005 0.37487,0.008 0.7412,0.0307 1.11047,0.0476 0.54083,0.0247 1.08037,0.0503 1.60956,0.0909 0.35121,0.027 0.6962,0.0628 1.04244,0.0966 0.52707,0.0515 1.05174,0.10602 1.56769,0.17271 0.33749,0.0437 0.67007,0.0942 1.00295,0.14416 0.51737,0.0775 1.03153,0.15956 1.5382,0.25168 0.30748,0.056 0.6122,0.11586 0.91587,0.177 0.52567,0.10568 1.04632,0.21781 1.56103,0.33828 0.27557,0.0646 0.5501,0.13074 0.82263,0.19935 0.53167,0.13371 1.05749,0.27504 1.57816,0.42345 0.24158,0.0689 0.48293,0.13786 0.72223,0.20981 0.56013,0.16821 1.11363,0.34523 1.6619,0.52907 0.18862,0.0633 0.37796,0.12571 0.56523,0.19078 0.59865,0.20779 1.1899,0.4248 1.77561,0.64945 0.13014,0.0499 0.26154,0.0982 0.39109,0.14891 0.667,0.26107 1.32599,0.53271 1.97782,0.81311 0.0422,0.0181 0.0849,0.0355 0.12704,0.0538 2.78054,1.20275 5.42403,2.57501 8.00737,4.01082 0.22812,0.1269 0.45608,0.25319 0.68322,0.3811 4.24057,2.38626 8.32552,4.92468 12.51254,7.21806 0.13984,0.0766 0.28144,0.14946 0.42155,0.22552 4.89966,2.65795 9.96514,4.95005 15.65031,6.18895 -21.04942,-4.78321 -30.36339,-23.35571 -57.3139,-24.05497 z M 3.183471,134.8512 c -0.4556498,-0.009 -0.9088965,7.3e-4 -1.3597863,0.0295 -26.4369027,1.68595 -37.3482917,29.83659 -59.2236727,42.46384 -2.114454,1.22055 -4.199923,2.26969 -6.234146,3.19249 v 0.92302 c 0.849065,-0.35415 1.698763,-0.71109 2.557794,-1.11 0.692147,-0.32358 1.389101,-0.65759 2.096762,-1.01483 0.270565,-0.13621 0.541949,-0.2759 0.813584,-0.41679 0.957188,-0.4973 1.922137,-1.01322 2.90321,-1.57578 21.911531,-12.56437 30.762802,-39.89579 57.1997044,-41.58172 10.8213086,-0.69013 22.9238606,9.21561 37.6361086,15.36723 1.226019,0.51262 2.469937,0.99941 3.732977,1.45159 2.315951,0.82916 4.704112,1.52193 7.151924,2.06869 C 31.307253,150.26957 16.247168,135.09959 3.183471,134.8512 Z m 47.274459,19.7972 c 0.372401,0.0852 0.74494,0.16919 1.120462,0.24599 -0.376185,-0.0754 -0.747462,-0.16266 -1.120462,-0.24599 z m 1.120462,0.24599 c 0.4964,0.0995 0.992413,0.19956 1.494419,0.28452 -0.501261,-0.0861 -0.998645,-0.18313 -1.494419,-0.28452 z m 1.494419,0.28452 c 0.07476,0.0128 0.149244,0.026 0.224096,0.0386 -0.07494,-0.0123 -0.149308,-0.0259 -0.224096,-0.0386 z m 0.224096,0.0386 c 0.631861,0.10393 1.26653,0.19997 1.907404,0.27928 -0.640478,-0.0793 -1.275755,-0.17399 -1.907404,-0.27928 z m 138.324973,-5.7027 c 0.70318,0.15979 1.4206,0.30242 2.15338,0.4263 0.73861,0.12209 1.48561,0.22944 2.24664,0.31401 -1.51368,-0.16822 -2.97146,-0.429 -4.40002,-0.74031 z" />
  <path
     id="path16839-2"
     style="fill:url(#linearGradient25349-4);fill-opacity:1;stroke:none;stroke-width:0.895167;stroke-linecap:butt;stroke-linejoin:miter;stroke-miterlimit:4;stroke-dasharray:none;stroke-opacity:1"
     d="m 276.84549,63.130667 c 0,0 -6.64392,1.189099 -10.1831,2.233788 -42.13936,12.438622 -45.3855,37.840585 -73.08031,40.290025 -11.88971,1.05158 -46.12282,-10.984149 -65.16378,-8.333297 -24.58672,3.422937 -37.33151,19.456647 -58.831522,22.471497 -26.475323,3.71251 -53.822466,-13.15836 -83.675075,-7.22256 -23.276872,4.6283 -32.603153,28.96947 -49.545837,47.67061 v 1.12928 c 14.281998,-14.29382 25.827945,-42.82456 49.545837,-48.19042 28.923052,-6.54345 59.987612,13.07511 84.274923,7.479 26.182221,-6.03272 33.839064,-18.89733 58.238804,-22.733167 21.64432,-3.40266 51.22631,11.015567 65.29797,9.293897 25.80832,-3.15763 35.27387,-29.284336 75.16707,-40.820994 2.68293,-0.775884 7.95502,-1.238457 7.95502,-1.238457 z" />
</svg>
