<?xml version="1.0" encoding="UTF-8"?>
<!-- Created with Inkscape (http://www.inkscape.org/) -->
<svg width="1024" height="768" version="1.1" viewBox="0 0 270.93 203.2" xmlns="http://www.w3.org/2000/svg" xmlns:xlink="http://www.w3.org/1999/xlink">
 <defs>
  <linearGradient id="linearGradient16905">
   <stop stop-color="#1b668f" offset="0"/>
   <stop stop-color="#121c94" offset=".5"/>
   <stop stop-color="#382279" offset="1"/>
  </linearGradient>
  <linearGradient id="linearGradient12915">
   <stop stop-color="#445feb" offset="0"/>
   <stop stop-color="#252fb5" offset=".5"/>
   <stop stop-color="#9b53c1" offset="1"/>
  </linearGradient>
  <linearGradient id="linearGradient78639">
   <stop stop-color="#2936ea" offset="0"/>
   <stop stop-color="#164593" offset="1"/>
  </linearGradient>
  <linearGradient id="linearGradient75480" x1="-21.655" x2="1378.4" y1="110.14" y2="110.14" gradientTransform="matrix(.23746 0 0 .23746 -26.72 29.884)" gradientUnits="userSpaceOnUse" xlink:href="#linearGradient16905"/>
  <linearGradient id="linearGradient3595" x1="-21.656" x2="383.08" y1="81.035" y2="81.035" gradientTransform="matrix(.89748 0 0 .89748 -26.72 20.034)" gradientUnits="userSpaceOnUse">
   <stop stop-color="#51d677" stop-opacity=".47843" offset="0"/>
   <stop stop-color="#eded84" stop-opacity=".32941" offset=".26488"/>
   <stop stop-color="#a9ebf6" stop-opacity=".19951" offset=".49538"/>
   <stop stop-color="#e9bf9d" stop-opacity=".35686" offset=".74191"/>
   <stop stop-color="#5138aa" stop-opacity=".52157" offset="1"/>
  </linearGradient>
  <linearGradient id="linearGradient21995" x1="-21.655" x2="383.08" y1="92.147" y2="92.147" gradientTransform="translate(0 -155.84)" gradientUnits="userSpaceOnUse" xlink:href="#linearGradient12915"/>
  <linearGradient id="linearGradient21997" x1="-21.655" x2="383.08" y1="99.556" y2="99.556" gradientTransform="translate(0 -189.92)" gradientUnits="userSpaceOnUse" xlink:href="#linearGradient12843"/>
  <linearGradient id="linearGradient12843">
   <stop stop-color="#3410ab" stop-opacity=".67526" offset="0"/>
   <stop stop-color="#169bd6" offset=".5"/>
   <stop stop-color="#0940a2" stop-opacity=".56984" offset="1"/>
  </linearGradient>
  <linearGradient id="linearGradient21999" x1="-24.528" x2="386.16" y1="-24.045" y2="-24.045" gradientTransform="translate(0 -138.44)" gradientUnits="userSpaceOnUse" xlink:href="#linearGradient26557"/>
  <linearGradient id="linearGradient26557">
   <stop stop-color="#6a5e19" offset="0"/>
   <stop stop-color="#85751e" stop-opacity=".98824" offset=".14669"/>
   <stop stop-color="#8c7b20" stop-opacity=".96863" offset=".30531"/>
   <stop stop-color="#bda62c" stop-opacity=".95686" offset=".51079"/>
   <stop stop-color="#82721e" stop-opacity=".94902" offset=".6231"/>
   <stop stop-color="#968623" stop-opacity=".99608" offset=".83541"/>
   <stop stop-color="#4e4412" stop-opacity=".92157" offset="1"/>
  </linearGradient>
  <linearGradient id="linearGradient22001" x1="-21.655" x2="1378.4" y1="110.14" y2="110.14" gradientTransform="matrix(.26458 0 0 .26458 0 -4.9003)" gradientUnits="userSpaceOnUse" xlink:href="#linearGradient16905"/>
  <linearGradient id="linearGradient22003" x1="181.04" x2="361.42" y1="110.14" y2="110.14" gradientTransform="translate(0 -18.521)" gradientUnits="userSpaceOnUse" xlink:href="#linearGradient78639"/>
  <linearGradient id="linearGradient22005" x1="-21.655" x2="183.99" y1="110.14" y2="110.14" gradientTransform="translate(0 -18.521)" gradientUnits="userSpaceOnUse">
   <stop stop-color="#2f38a6" offset="0"/>
   <stop stop-color="#3d33eb" offset="1"/>
  </linearGradient>
  <linearGradient id="linearGradient22007" x1="-82.44" x2="1448.4" y1="345.52" y2="345.52" gradientTransform="scale(.26458)" gradientUnits="userSpaceOnUse" xlink:href="#linearGradient1294"/>
  <linearGradient id="linearGradient1294">
   <stop stop-color="#6a5e19" offset="0"/>
   <stop stop-color="#d1b832" stop-opacity=".98824" offset=".14669"/>
   <stop stop-color="#8c7b20" stop-opacity=".96863" offset=".30531"/>
   <stop stop-color="#dbc865" stop-opacity=".95686" offset=".51079"/>
   <stop stop-color="#82721e" stop-opacity=".94902" offset=".6231"/>
   <stop stop-color="#968623" stop-opacity=".99608" offset=".83541"/>
   <stop stop-color="#cfb530" stop-opacity=".92157" offset="1"/>
  </linearGradient>
  <linearGradient id="linearGradient22009" x1="-21.655" x2="383.08" y1="92.147" y2="92.147" gradientTransform="translate(0 -18.521)" gradientUnits="userSpaceOnUse">
   <stop stop-color="#445feb" offset="0"/>
   <stop stop-color="#4a55ed" offset=".5"/>
   <stop stop-color="#9b53c1" offset="1"/>
  </linearGradient>
  <linearGradient id="linearGradient22011" x1="-24.528" x2="386.16" y1="-24.045" y2="-24.045" gradientTransform="translate(0 -2.3527)" gradientUnits="userSpaceOnUse" xlink:href="#linearGradient1056"/>
  <linearGradient id="linearGradient1056">
   <stop stop-color="#6a5e19" offset="0"/>
   <stop stop-color="#85751e" stop-opacity=".98824" offset=".14669"/>
   <stop stop-color="#a38f26" stop-opacity=".96863" offset=".30531"/>
   <stop stop-color="#f5d737" stop-opacity=".95686" offset=".51079"/>
   <stop stop-color="#968623" stop-opacity=".99608" offset=".83541"/>
   <stop stop-color="#4e4412" stop-opacity=".92157" offset="1"/>
  </linearGradient>
  <linearGradient id="linearGradient22013" x1="-21.655" x2="383.08" y1="99.556" y2="99.556" gradientTransform="translate(0 -59.037)" gradientUnits="userSpaceOnUse">
   <stop stop-color="#3410ab" stop-opacity=".67526" offset="0"/>
   <stop stop-color="#2936e9" offset=".5"/>
   <stop stop-color="#0940a2" stop-opacity=".56984" offset="1"/>
  </linearGradient>
  <linearGradient id="linearGradient22015" x1="-24.528" x2="386.16" y1="-24.045" y2="-24.045" gradientTransform="translate(0 -44.553)" gradientUnits="userSpaceOnUse" xlink:href="#linearGradient17531"/>
  <linearGradient id="linearGradient17531">
   <stop stop-color="#6a5e19" offset="0"/>
   <stop stop-color="#85751e" stop-opacity=".98824" offset=".14669"/>
   <stop stop-color="#8c7b20" stop-opacity=".96863" offset=".30531"/>
   <stop stop-color="#d1b637" stop-opacity=".95686" offset=".51079"/>
   <stop stop-color="#82721e" stop-opacity=".94902" offset=".6231"/>
   <stop stop-color="#968623" stop-opacity=".99608" offset=".83541"/>
   <stop stop-color="#4e4412" stop-opacity=".92157" offset="1"/>
  </linearGradient>
  <linearGradient id="linearGradient22017" x1="253.56" x2="239.42" y1="147.01" y2="130.45" gradientTransform="translate(0 -18.521)" gradientUnits="userSpaceOnUse">
   <stop stop-color="#28ead8" stop-opacity=".58819" offset="0"/>
   <stop stop-color="#164593" stop-opacity=".023098" offset="1"/>
  </linearGradient>
  <linearGradient id="linearGradient22019" x1="251.13" x2="241.25" y1="138.13" y2="126.04" gradientTransform="matrix(-1 0 0 1 361.42 -18.521)" gradientUnits="userSpaceOnUse">
   <stop stop-color="#dc29ea" stop-opacity=".68736" offset="0"/>
   <stop stop-color="#164593" stop-opacity=".023098" offset="1"/>
  </linearGradient>
  <linearGradient id="linearGradient24593" x1="181.04" x2="361.42" y1="110.14" y2="110.14" gradientTransform="matrix(.89748 0 0 .89748 -26.72 17.66)" gradientUnits="userSpaceOnUse" xlink:href="#linearGradient78639"/>
  <linearGradient id="linearGradient78325" x1="-21.655" x2="183.99" y1="110.14" y2="110.14" gradientTransform="matrix(.89748 0 0 .89748 -26.72 17.66)" gradientUnits="userSpaceOnUse">
   <stop stop-color="#2e3476" offset="0"/>
   <stop stop-color="#3d33eb" offset="1"/>
  </linearGradient>
  <linearGradient id="linearGradient87990" x1="-82.44" x2="1448.4" y1="345.52" y2="345.52" gradientTransform="matrix(.23746 0 0 .23746 -26.72 34.282)" gradientUnits="userSpaceOnUse" xlink:href="#linearGradient1294"/>
  <linearGradient id="linearGradient25753" x1="-21.655" x2="383.08" y1="92.147" y2="92.147" gradientTransform="matrix(.89748 0 0 .89748 -26.72 17.66)" gradientUnits="userSpaceOnUse">
   <stop stop-color="#4465eb" offset="0"/>
   <stop stop-color="#46a7e1" offset=".5"/>
   <stop stop-color="#6b50c1" offset="1"/>
  </linearGradient>
  <linearGradient id="linearGradient25219" x1="-24.528" x2="386.16" y1="-24.045" y2="-24.045" gradientTransform="matrix(.89748 0 0 .89748 -26.72 32.17)" gradientUnits="userSpaceOnUse" xlink:href="#linearGradient1056"/>
  <linearGradient id="linearGradient14910" x1="253.56" x2="239.42" y1="147.01" y2="130.45" gradientTransform="matrix(.89748 0 0 .89748 -26.72 17.66)" gradientUnits="userSpaceOnUse">
   <stop stop-color="#e06fea" stop-opacity=".39011" offset="0"/>
   <stop stop-color="#164593" stop-opacity=".023098" offset="1"/>
  </linearGradient>
  <linearGradient id="linearGradient15720" x1="251.13" x2="241.25" y1="138.13" y2="126.04" gradientTransform="matrix(-.89748 0 0 .89748 297.65 17.66)" gradientUnits="userSpaceOnUse">
   <stop stop-color="#dc29ea" stop-opacity=".18321" offset="0"/>
   <stop stop-color="#164593" stop-opacity=".023098" offset="1"/>
  </linearGradient>
  <linearGradient id="linearGradient35006" x1="542.26" x2="409.86" y1="531.52" y2="437.69" gradientTransform="matrix(.23746 0 0 .23746 -26.72 20.034)" gradientUnits="userSpaceOnUse">
   <stop stop-color="#9e80dc" stop-opacity=".08" offset="0"/>
   <stop stop-color="#9e80dc" stop-opacity="0" offset="1"/>
  </linearGradient>
  <linearGradient id="linearGradient35006-3" x1="542.26" x2="409.86" y1="531.52" y2="437.69" gradientTransform="matrix(-.23746 0 0 .23746 383.24 -41.48)" gradientUnits="userSpaceOnUse">
   <stop stop-color="#9e80dc" stop-opacity=".12323" offset="0"/>
   <stop stop-color="#9e80dc" stop-opacity="0" offset="1"/>
  </linearGradient>
  <linearGradient id="linearGradient26562" x1="-21.655" x2="383.08" y1="99.556" y2="99.556" gradientTransform="matrix(.89748 0 0 .89748 -26.72 -18.703)" gradientUnits="userSpaceOnUse">
   <stop stop-color="#0031b6" offset="0"/>
   <stop stop-color="#255cc7" offset=".5"/>
   <stop stop-color="#3d3dd3" offset="1"/>
  </linearGradient>
  <linearGradient id="linearGradient34063" x1="79.735" x2="21.187" y1="42.158" y2="1.0037" gradientTransform="matrix(.89748 0 0 .89748 -26.72 20.034)" gradientUnits="userSpaceOnUse">
   <stop stop-color="#9e7fdc" stop-opacity=".1" offset="0"/>
   <stop stop-color="#9e7fdc" stop-opacity="0" offset="1"/>
  </linearGradient>
  <linearGradient id="linearGradient53858" x1="79.735" x2="21.187" y1="42.158" y2="1.0037" gradientTransform="matrix(-.89748 0 0 .89748 220 123.69)" gradientUnits="userSpaceOnUse">
   <stop stop-color="#7fdcdb" stop-opacity=".07" offset="0"/>
   <stop stop-color="#9e7fdc" stop-opacity="0" offset="1"/>
  </linearGradient>
  <linearGradient id="linearGradient35392" x1="654.09" x2="409.86" y1="615.36" y2="437.69" gradientTransform="matrix(.23746 0 0 .23746 -19.834 -5.6416)" gradientUnits="userSpaceOnUse">
   <stop stop-color="#b1cdef" stop-opacity=".26275" offset="0"/>
   <stop stop-color="#9e80dc" stop-opacity="0" offset="1"/>
  </linearGradient>
  <linearGradient id="linearGradient37083" x1="32.688" x2="-4.3074" y1="61.359" y2="35.59" gradientTransform="matrix(.89748 0 0 .89748 -26.72 20.034)" gradientUnits="userSpaceOnUse">
   <stop stop-color="#a9e3ed" stop-opacity=".05" offset="0"/>
   <stop stop-color="#a9e3ed" stop-opacity="0" offset="1"/>
  </linearGradient>
  <linearGradient id="linearGradient37280" x1="32.688" x2="-4.3074" y1="61.359" y2="35.59" gradientTransform="matrix(2.1991 0 0 2.1991 52.563 -19.209)" gradientUnits="userSpaceOnUse">
   <stop stop-color="#60cbde" stop-opacity=".059582" offset="0"/>
   <stop stop-color="#a9e3ed" stop-opacity="0" offset="1"/>
  </linearGradient>
  <linearGradient id="linearGradient37849" x1="32.688" x2="-4.3074" y1="61.359" y2="35.59" gradientTransform="matrix(2.1991 0 0 2.1991 -4.4984 -11.639)" gradientUnits="userSpaceOnUse">
   <stop stop-color="#84b0b8" stop-opacity=".05" offset="0"/>
   <stop stop-color="#a9e3ed" stop-opacity="0" offset="1"/>
  </linearGradient>
  <linearGradient id="linearGradient69576" x1="-24.528" x2="386.16" y1="-24.045" y2="-24.045" gradientTransform="matrix(.89748 0 0 .89748 -26.72 -5.7036)" gradientUnits="userSpaceOnUse" xlink:href="#linearGradient17531"/>
  <linearGradient id="linearGradient53643" x1="79.735" x2="21.187" y1="42.158" y2="1.0037" gradientTransform="matrix(-.89748 0 0 .89748 220.27 83.175)" gradientUnits="userSpaceOnUse">
   <stop stop-color="#dc7fdc" stop-opacity=".08" offset="0"/>
   <stop stop-color="#9e7fdc" stop-opacity="0" offset="1"/>
  </linearGradient>
  <linearGradient id="linearGradient53697" x1="32.688" x2="-4.3074" y1="61.359" y2="35.59" gradientTransform="matrix(-2.1991 0 0 2.1991 273.34 -71.836)" gradientUnits="userSpaceOnUse">
   <stop stop-color="#a9e3ed" stop-opacity=".06" offset="0"/>
   <stop stop-color="#a9e3ed" stop-opacity="0" offset="1"/>
  </linearGradient>
  <linearGradient id="linearGradient53804" x1="32.688" x2="-4.3074" y1="61.359" y2="35.59" gradientTransform="matrix(-2.1991 0 0 2.1991 257.8 -45.63)" gradientUnits="userSpaceOnUse">
   <stop stop-color="#dd83f2" stop-opacity=".12549" offset="0"/>
   <stop stop-color="#a9e3ed" stop-opacity="0" offset="1"/>
  </linearGradient>
  <linearGradient id="linearGradient5163" x1="654.09" x2="409.86" y1="615.36" y2="437.69" gradientTransform="matrix(-.23746 0 0 .23746 290.76 -5.6416)" gradientUnits="userSpaceOnUse">
   <stop stop-color="#b1cdef" stop-opacity=".14678" offset="0"/>
   <stop stop-color="#9e80dc" stop-opacity="0" offset="1"/>
  </linearGradient>
 </defs>
 <rect width="270.93" height="203.2" fill="#1b1e20" stop-color="#000000" style="paint-order:stroke fill markers"/>
 <path d="m-46.155 14.18v18.775l171.76 126.14 9.8555 20.802 9.8555-20.802 171.76-126.14v-18.775l-181.62 133.37z" fill="url(#linearGradient75480)" stop-color="#000000" style="-inkscape-stroke:none;font-variation-settings:normal"/>
 <path d="m-63.835 34.252s9.7261 20.229 45.403 18.468c5.0966-0.25157 10.723-0.9519 16.926-2.2241 37.219-7.6331 50.647 19.931 60.372 45.706 3.2417 8.5917 6.0718 16.985 9.2345 23.809 9.0867 19.607 31.732 43.778 56.6 54.834 14.921 6.6337 30.643 8.5458 44.717 1.9176 11.992-5.6475 14.33-12.495 13.844-18.871-0.48572-6.3757-3.7951-12.279-3.0983-16.037 1.8025-9.7213 8.8083-10.928 15.841-10.275 11.721 1.0887 23.517 7.3447 11.423-12.038-3.7568-6.0209-5.6226-11.437-6.2459-16.216-1.8699-14.338 7.4424-22.945 10.427-24.961 3.9266-2.6533 8.5276-4.6468 13.621-6.1412 35.651-10.461 95.413 3.5351 116.75-13.136m-404.53-25.485c0.86147 0.26954 10.455 20.984 45.079 20.075 4.9422-0.07745 10.425-0.61901 16.491-1.741 36.392-6.7318 50.424 19.876 60.625 44.592 3.3637 8.2555 6.3689 16.392 9.706 23.057 9.49 19.139 32.216 43.051 56.648 54.223 14.659 6.7035 29.993 8.8632 43.603 2.7038 11.561-5.111 13.518-11.418 12.467-17.441-1.0509-6.0238-4.7233-12.482-3.9703-16.87 1.8091-10.002 8.9753-11.735 16.638-11.299 12.35 0.82873 25.117 6.6253 14.094-12.415-3.3585-5.932-4.9687-11.261-5.5193-15.948-1.4715-14.191 7.0278-23.069 10.054-25.256 3.8384-2.6173 8.3513-4.5852 13.369-6.0574 35.653-10.325 93.469 2.0374 114.22-14.17m-402.21-24.103c1.7229 0.53907 11.185 21.74 44.756 21.682 4.7878 0.09668 10.128-0.28611 16.055-1.2579 35.565-5.8306 50.201 19.821 60.877 43.478 3.4858 7.9192 6.6659 15.8 10.177 22.306 9.8933 18.67 32.701 42.323 56.696 53.612 14.397 6.7734 29.343 9.1806 42.489 3.4899 11.13-4.5746 12.706-10.34 11.09-16.012-1.6161-5.6719-5.6516-12.685-4.8424-17.703 1.8156-10.283 9.1423-12.543 17.434-12.323 12.979 0.56873 26.717 5.9058 16.765-12.792-2.9602-5.843-4.3149-11.086-4.7927-15.68-1.073-14.044 6.6131-23.194 9.6817-25.551 3.7502-2.5812 8.175-4.5235 13.117-5.9735 35.656-10.188 91.525 0.53976 111.68-15.205m-399.89-22.721c2.5844 0.80861 11.914 22.496 44.432 23.289 4.6333 0.2708 9.8301 0.04678 15.62-0.77477 34.739-4.9293 49.978 19.765 61.13 42.363 3.6079 7.583 6.9629 15.207 10.649 21.554 10.297 18.202 33.185 41.595 56.743 53.001 14.135 6.8433 28.694 9.498 41.375 4.2761 10.699-4.0382 11.895-9.262 9.7135-14.582-2.1813-5.32-6.5798-12.887-5.7144-18.536 1.8222-10.564 9.3093-13.35 18.231-13.346 13.609 0.30873 28.317 5.1864 19.436-13.169-2.5619-5.7541-3.661-10.911-4.0661-15.412-0.67463-13.897 6.1984-23.319 9.3092-25.846 3.662-2.5452 7.9987-4.4618 12.865-5.8897 35.658-10.052 89.58-0.95788 109.14-16.24m-397.58-21.339c3.4459 1.0781 12.644 23.251 44.109 24.897 4.4789 0.44492 9.5325 0.37968 15.185-0.29166 33.912-4.0281 49.755 19.71 61.383 41.249 3.73 7.2467 7.2599 14.615 11.12 20.803 10.7 17.734 33.669 40.868 56.791 52.39 13.873 6.9132 28.044 9.8154 40.26 5.0623 10.268-3.5018 11.083-8.1842 8.3367-13.152-2.7465-4.9681-7.508-13.09-6.5865-19.369 1.8288-10.845 9.4762-14.157 19.027-14.37 14.238 0.0487 29.917 4.467 22.106-13.545-2.1636-5.6652-3.0072-10.735-3.3395-15.144-0.2762-13.751 5.7838-23.444 8.9368-26.141 3.5737-2.5092 7.8224-4.4002 12.613-5.8058 35.66-9.9162 87.636-2.4555 106.61-17.274m-395.26-19.957c4.3073 1.3477 13.373 24.007 43.785 26.504 4.3244 0.61904 9.235 0.71257 14.749 0.19144 33.085-3.1268 49.532 19.655 61.636 40.134 3.8521 6.9104 7.5569 14.022 11.592 20.051 11.103 17.266 34.154 40.14 56.838 51.779 13.611 6.983 27.394 10.133 39.146 5.8484 9.8365-2.9653 10.272-7.1063 6.9599-11.723-3.3117-4.6163-8.4362-13.293-7.4585-20.202 1.8353-11.126 9.6432-14.964 19.824-15.394 14.867-0.21126 31.518 3.7476 24.777-13.922-1.7653-5.5762-2.3533-10.56-2.6129-14.876 0.12224-13.604 5.3691-23.569 8.5644-26.435 3.4855-2.4731 7.6461-4.3385 12.361-5.722 35.662-9.7801 85.692-3.9532 104.07-18.309m-392.94-18.575c5.1688 1.6172 14.102 24.763 43.462 28.111 4.17 0.79317 8.9374 1.0455 14.314 0.67455 32.258-2.2255 49.309 19.6 61.888 39.02 3.9742 6.5742 7.854 13.429 12.063 19.3 11.506 16.797 34.638 39.413 56.886 51.167 13.348 7.0529 26.744 10.45 38.032 6.6346 9.4054-2.4289 9.4599-6.0285 5.5831-10.293-3.8769-4.2644-9.3644-13.496-8.3306-21.034 1.8419-11.406 9.8102-15.771 20.621-16.418 15.496-0.47126 33.118 3.0282 27.448-14.299-1.367-5.4873-1.6995-10.384-1.8863-14.608 0.52067-13.457 4.9545-23.694 8.1919-26.73 3.3973-2.4371 7.4698-4.2768 12.11-5.6381 35.664-9.644 83.747-5.4508 101.53-19.343m-390.62-17.194c6.0303 1.8867 14.832 25.518 43.138 29.718 4.0156 0.96729 8.6398 1.3784 13.878 1.1577 31.432-1.3243 49.086 19.544 62.141 37.906 4.0963 6.2379 8.151 12.837 12.535 18.548 11.91 16.329 35.123 38.685 56.933 50.556 13.086 7.1228 26.094 10.767 36.918 7.4207 8.9744-1.8925 8.6483-4.9507 4.2062-8.8632-4.442-3.9125-10.293-13.698-9.2026-21.867 1.8485-11.687 9.9772-16.578 21.417-17.442 16.125-0.73126 34.718 2.3088 30.119-14.676-0.96875-5.3984-1.0456-10.209-1.1597-14.34 0.91911-13.31 4.5398-23.819 7.8195-27.025 3.3091-2.401 7.2935-4.2152 11.858-5.5543 35.667-9.5078 81.803-6.9485 98.994-20.378m-388.31-15.812c6.8917 2.1563 15.561 26.274 42.815 31.325 3.8611 1.1414 8.3422 1.7113 13.443 1.6408 30.605-0.423 48.863 19.489 62.394 36.791 4.2184 5.9017 8.448 12.244 13.006 17.797 12.313 15.861 35.607 37.957 56.981 49.945 12.824 7.1927 25.444 11.085 35.803 8.2069 8.5434-1.3561 7.8367-3.8729 2.8294-7.4335s-11.221-13.901-10.075-22.7c1.855-11.968 10.144-17.385 22.214-18.465 16.754-0.99125 36.318 1.5894 32.79-15.053-0.57045-5.3094-0.39177-10.033-0.43313-14.072 1.3175-13.164 4.1252-23.944 7.4471-27.32 3.2208-2.365 7.1172-4.1535 11.606-5.4704 35.669-9.3717 79.859-8.4461 96.457-21.412m-385.99-14.43c7.7532 2.4258 16.29 27.03 42.492 32.933 3.7067 1.3155 8.0446 2.0442 13.008 2.1239 29.778 0.47826 48.64 19.434 62.647 35.677 4.3405 5.5654 8.745 11.652 13.477 17.045 12.716 15.393 36.091 37.23 57.028 49.334 12.562 7.2625 24.795 11.402 34.689 8.9931 8.1123-0.81964 7.025-2.7951 1.4526-6.0038s-12.149-14.104-10.947-23.533c1.8616-12.249 10.311-18.192 23.011-19.489 17.383-1.2512 37.918 0.86997 35.461-15.429-0.17216-5.2205 0.26208-9.858 0.29347-13.805 1.716-13.017 3.7105-24.069 7.0746-27.615 3.1326-2.329 6.9409-4.0919 11.354-5.3866 35.671-9.2356 77.915-9.9438 93.92-22.447m-383.67-13.048c8.6147 2.6954 17.02 27.785 42.168 34.54 3.5522 1.4897 7.747 2.377 12.572 2.607 28.951 1.3795 48.417 19.379 62.899 34.562 4.4626 5.2292 9.042 11.059 13.949 16.294 13.119 14.924 36.576 36.502 57.076 48.723 12.3 7.3324 24.145 11.72 33.575 9.7792 7.6813-0.28322 6.2134-1.7172 0.0758-4.5741-6.1376-2.8568-13.077-14.307-11.819-24.366 1.8682-12.53 10.478-18.999 23.807-20.513 18.012-1.5112 39.518 0.15055 38.132-15.806 0.22614-5.1316 0.91593-9.6825 1.0201-13.537 2.1144-12.87 3.2958-24.194 6.7022-27.91 3.0444-2.2929 6.7646-4.0302 11.102-5.3027 35.673-9.0995 75.97-11.441 91.383-23.482m-381.35-11.666c9.4762 2.9649 17.749 28.541 41.845 36.147 3.3978 1.6638 7.4495 2.7099 12.137 3.0901 28.125 2.2808 48.194 19.323 63.152 33.448 4.5846 4.8929 9.3391 10.467 14.42 15.542 13.523 14.456 37.06 35.775 57.123 48.112 12.038 7.4023 23.495 12.037 32.461 10.565 7.2503 0.25321 5.4018-0.63942-1.301-3.1444s-14.005-14.509-12.691-25.199c1.8747-12.811 10.645-19.807 24.604-21.537 18.642-1.7712 41.118-0.56886 40.803-16.183 0.62442-5.0426 1.5698-9.5071 1.7466-13.269 2.5128-12.724 2.8812-24.319 6.3298-28.205 2.9562-2.2569 6.5883-3.9685 10.85-5.2189 35.675-8.9634 74.026-12.939 88.846-24.516m-379.04-10.284c10.338 3.2344 18.478 29.297 41.521 37.754 3.2433 1.8379 7.1519 3.0428 11.702 3.5732 27.298 3.1821 47.971 19.268 63.405 32.334 4.7067 4.5567 9.6361 9.8742 14.892 14.79 13.926 13.988 37.545 35.047 57.171 47.501 11.776 7.4721 22.845 12.354 31.346 11.352 6.8192 0.78963 4.5902 0.43839-2.6778-1.7147-7.268-2.1531-14.934-14.712-13.563-26.032 1.8813-13.091 10.812-20.614 25.4-22.561 19.271-2.0312 42.718-1.2883 43.474-16.56 1.0227-4.9537 2.2236-9.3317 2.4732-13.001 2.9113-12.577 2.4665-24.444 5.9573-28.5 2.868-2.2208 6.412-3.9069 10.598-5.135 35.678-8.8272 72.082-14.437 86.309-25.551m-376.72-8.9018c11.199 3.504 19.208 30.052 41.198 39.362 3.0889 2.012 6.8543 3.3757 11.266 4.0563 26.471 4.0833 47.748 19.213 63.658 31.219 4.8288 4.2204 9.9331 9.2817 15.363 14.039 14.329 13.52 38.029 34.319 57.218 46.889 11.514 7.542 22.195 12.672 30.232 12.138 6.3882 1.326 3.7786 1.5162-4.0546-0.28499-7.8332-1.8012-15.862-14.915-14.435-26.864 1.8879-13.372 10.979-21.421 26.197-23.584 19.9-2.2912 44.318-2.0077 46.144-16.937 1.421-4.8648 2.8775-9.1562 3.1998-12.733 3.3097-12.43 2.0519-24.568 5.5849-28.794 2.7798-2.1848 6.2357-3.8452 10.347-5.0512 35.68-8.6911 70.137-15.934 83.772-26.585m-374.4-7.5199c12.061 3.7735 19.937 30.808 40.874 40.969 2.9345 2.1861 6.5567 3.7086 10.831 4.5394 25.645 4.9846 47.525 19.158 63.91 30.105 4.9509 3.8842 10.23 8.6892 15.835 13.287 14.732 13.052 38.514 33.592 57.266 46.278 11.251 7.6119 21.545 12.989 29.118 12.924 5.9572 1.8625 2.9669 2.594-5.4314 1.1447s-16.79-15.118-15.307-27.697c1.8944-13.653 11.146-22.228 26.994-24.608 20.529-2.5512 45.918-2.7271 48.815-17.313 1.8193-4.7759 3.5313-8.9808 3.9264-12.465 3.7081-12.283 1.6372-24.693 5.2124-29.089 2.6915-2.1488 6.0594-3.7836 10.095-4.9674 35.682-8.555 68.193-17.432 81.235-27.62m-372.08-6.1379c12.922 4.043 20.666 31.564 40.551 42.576 2.78 2.3603 6.2591 4.0415 10.395 5.0225 24.818 5.8858 47.302 19.102 64.163 28.991 5.073 3.5479 10.527 8.0966 16.306 12.536 15.136 12.583 38.998 32.864 57.313 45.667 10.989 7.6818 20.896 13.307 28.004 13.71 5.5261 2.3989 2.1553 3.6718-6.8082 2.5744s-17.718-15.32-16.179-28.53c1.901-13.934 11.313-23.035 27.79-25.632 21.158-2.8112 47.518-3.4465 51.486-17.69 2.2176-4.6869 4.1852-8.8054 4.653-12.197 4.1066-12.137 1.2226-24.818 4.84-29.384 2.6033-2.1127 5.8831-3.7219 9.8429-4.8835 35.684-8.4189 66.249-18.93 78.698-28.654m-369.77-4.756c13.783 4.3126 21.396 32.32 40.227 44.183 2.6256 2.5344 5.9615 4.3744 9.96 5.5056 23.991 6.7871 47.079 19.047 64.416 27.876 5.1951 3.2116 10.824 7.5041 16.778 11.784 15.539 12.115 39.482 32.137 57.361 45.056 10.727 7.7516 20.246 13.624 26.889 14.496 5.0951 2.9353 1.3437 4.7497-8.1851 4.0041-9.5287-0.74555-18.646-15.523-17.051-29.363 1.9076-14.215 11.48-23.842 28.587-26.656 21.787-3.0712 49.119-4.1659 54.157-18.067 2.6159-4.598 4.839-8.6299 5.3796-11.929 4.505-11.99 0.80789-24.943 4.4676-29.679 2.5151-2.0767 5.7068-3.6602 9.591-4.7997 35.686-8.2827 64.305-20.427 76.161-29.689m-367.45-3.3741c14.645 4.5821 22.125 33.075 39.904 45.791 2.4711 2.7085 5.6639 4.7073 9.5247 5.9887 23.164 7.6884 46.856 18.992 64.669 26.762 5.3172 2.8754 11.121 6.9116 17.249 11.033 15.942 11.647 39.967 31.409 57.409 44.445 10.465 7.8215 19.596 13.941 25.775 15.282 4.6641 3.4717 0.53207 5.8275-9.5619 5.4338-10.094-0.39366-19.575-15.726-17.923-30.196 1.9141-14.496 11.647-24.649 29.383-27.68 22.416-3.3312 50.719-4.8853 56.828-18.444 3.0142-4.5091 5.4929-8.4545 6.1062-11.661 4.9034-11.843 0.39324-25.068 4.0952-29.974 2.4269-2.0406 5.5305-3.5986 9.3392-4.7158 35.688-8.1466 62.36-21.925 73.624-30.723m-365.13-1.9921c15.506 4.8516 22.855 33.831 39.58 47.398 2.3167 2.8826 5.3664 5.0402 9.0893 6.4718 22.338 8.5896 46.633 18.937 64.921 25.647 5.4393 2.5392 11.418 6.319 17.72 10.281 16.345 11.179 40.451 30.681 57.456 43.834 10.203 7.8914 18.946 14.259 24.661 16.069 4.233 4.0082-0.27955 6.9053-10.939 6.8635-10.659-0.0418-20.503-15.929-18.795-31.029 1.9207-14.776 11.814-25.456 30.18-28.703 23.045-3.5912 52.319-5.6048 59.499-18.82 3.4125-4.4201 6.1467-8.2791 6.8328-11.393 5.3019-11.696-0.0214-25.193 3.7227-30.269 2.3386-2.0046 5.3542-3.5369 9.0873-4.632 35.691-8.0105 60.416-23.423 71.086-31.758m-362.81-0.61016c16.368 5.1212 23.584 34.587 39.257 49.005 2.1623 3.0568 5.0688 5.3731 8.6539 6.9549 21.511 9.4909 46.41 18.881 65.174 24.533 5.5614 2.2029 11.715 5.7265 18.192 9.5297 16.749 10.71 40.936 29.954 57.504 43.223 9.9408 7.9613 18.296 14.576 23.547 16.855 3.802 4.5446-1.0912 7.9831-12.316 8.2932-11.224 0.3101-21.431-16.131-19.667-31.862 1.9272-15.057 11.981-26.264 30.977-29.727 23.675-3.8512 53.919-6.3242 62.17-19.197 3.8108-4.3312 6.8006-8.1036 7.5594-11.125 5.7003-11.55-0.43608-25.318 3.3503-30.564 2.2504-1.9686 5.1779-3.4753 8.8355-4.5481 35.693-7.8744 58.472-24.92 68.549-32.793m-360.5 0.77179c17.229 5.3907 24.313 35.342 38.934 50.612 2.0078 3.2309 4.7712 5.706 8.2185 7.438 20.684 10.392 46.187 18.826 65.427 23.419 5.6835 1.8666 12.012 5.134 18.663 8.7782 17.152 10.242 41.42 29.226 57.551 42.611 9.6786 8.0311 17.646 14.893 22.433 17.641 3.371 5.081-1.9028 9.0609-13.692 9.7229-11.79 0.66198-22.359-16.334-20.539-32.694 1.9338-15.338 12.148-27.071 31.773-30.751 24.304-4.1112 55.519-7.0436 64.841-19.574 4.209-4.2423 7.4544-7.9282 8.286-10.857 6.0987-11.403-0.85074-25.443 2.9778-30.859 2.1622-1.9325 5.0016-3.4136 8.5836-4.4643 35.695-7.7383 56.527-26.418 66.012-33.827m-358.18 2.1537c18.091 5.6602 25.043 36.098 38.61 52.22 1.8534 3.405 4.4736 6.0389 7.7832 7.9211 19.857 11.293 45.964 18.771 65.679 22.304 5.8055 1.5304 12.309 4.5414 19.135 8.0266 17.555 9.7739 41.905 28.499 57.599 42 9.4165 8.101 16.997 15.211 21.318 18.427 2.9399 5.6174-2.7144 10.139-15.069 11.153s-23.287-16.537-21.411-33.527c1.9404-15.619 12.315-27.878 32.57-31.775 24.933-4.3712 57.119-7.763 67.511-19.951 4.6074-4.1533 8.1083-7.7528 9.0126-10.589 6.4972-11.256-1.2654-25.568 2.6054-31.154 2.074-1.8965 4.8254-3.3519 8.3318-4.3804 35.697-7.6021 54.583-27.916 63.475-34.862m-355.86 3.5357c18.952 5.9298 25.772 36.854 38.287 53.827 1.6989 3.5791 4.176 6.3718 7.3478 8.4042 19.031 12.195 45.741 18.716 65.932 21.19 5.9276 1.1941 12.606 3.9489 19.606 7.2751 17.959 9.3057 42.389 27.771 57.646 41.389 9.1544 8.1709 16.347 15.528 20.204 19.213 2.5089 6.1539-3.526 11.217-16.446 12.582-12.92 1.3658-24.216-16.74-22.283-34.36 1.947-15.9 12.482-28.685 33.366-32.799 25.562-4.6312 58.719-8.4824 70.182-20.328 5.0056-4.0644 8.7621-7.5773 9.7392-10.321 6.8956-11.109-1.6801-25.693 2.233-31.448 1.9858-1.8604 4.649-3.2903 8.0799-4.2966 35.699-7.466 52.639-29.413 60.938-35.896m-353.54 4.9176c19.814 6.1993 26.501 37.609 37.963 55.434 1.5445 3.7532 3.8784 6.7047 6.9124 8.8873 18.204 13.096 45.518 18.66 66.185 20.075 6.0497 0.85788 12.903 3.3563 20.078 6.5235 18.362 8.8375 42.873 27.043 57.694 40.778 8.8922 8.2408 15.697 15.846 19.09 19.999 2.0778 6.6903-4.3377 12.294-17.823 14.012-13.485 1.7176-25.144-16.942-23.155-35.193 1.9535-16.181 12.649-29.492 34.163-33.822 26.191-4.8912 60.319-9.2018 72.853-20.704 5.4039-3.9755 9.416-7.4019 10.466-10.053 7.294-10.963-2.0947-25.818 1.8605-31.743 1.8976-1.8244 4.4728-3.2286 7.8281-4.2127 35.702-7.3299 50.695-30.911 58.401-36.931m-351.23 6.2996c20.675 6.4688 27.231 38.365 37.64 57.041 1.39 3.9274 3.5809 7.0376 6.477 9.3704 17.377 13.997 45.295 18.605 66.438 18.961 6.1718 0.52163 13.2 2.7638 20.549 5.772 18.765 8.3692 43.358 26.316 57.741 40.167 8.6301 8.3106 15.047 16.163 17.976 20.786 1.6468 7.2267-5.1493 13.372-19.2 15.442-14.05 2.0695-26.072-17.145-24.027-36.026 1.9601-16.461 12.816-30.299 34.96-34.846 26.82-5.1512 61.919-9.9212 75.524-21.081 5.8022-3.8866 10.07-7.2265 11.192-9.7853 7.6924-10.816-2.5094-25.942 1.4881-32.038 1.8093-1.7884 4.2965-3.167 7.5762-4.1289 35.704-7.1938 48.75-32.408 55.864-37.965m-348.91 7.6815c21.537 6.7384 27.96 39.121 37.316 58.649 1.2356 4.1015 3.2833 7.3705 6.0417 9.8535 16.55 14.898 45.072 18.55 66.69 17.847 6.2939 0.18538 13.497 2.1713 21.02 5.0205 19.168 7.901 43.842 25.588 57.789 39.556 8.368 8.3805 14.397 16.48 16.861 21.572 1.2158 7.7631-5.9609 14.45-20.576 16.871-14.615 2.4214-27-17.348-24.9-36.859 1.9666-16.742 12.983-31.106 35.756-35.87 27.449-5.4112 63.519-10.641 78.195-21.458 6.2005-3.7976 10.724-7.051 11.919-9.5173 8.0909-10.669-2.924-26.067 1.1157-32.333 1.7211-1.7523 4.1202-3.1053 7.3244-4.045 35.706-7.0576 46.806-33.906 53.327-39m-346.59 9.0635c22.398 7.0079 28.689 39.876 36.993 60.256 1.0812 4.2756 2.9857 7.7034 5.6063 10.337 15.724 15.8 44.849 18.495 66.943 16.732 6.416-0.15088 13.794 1.5787 21.492 4.2689 19.572 7.4328 44.327 24.861 57.836 38.945 8.1059 8.4504 13.747 16.798 15.747 22.358 0.78474 8.2996-6.7725 15.528-21.953 18.301-15.181 2.7733-27.928-17.551-25.772-37.692 1.9732-17.023 13.15-31.913 36.553-36.894 28.078-5.6712 65.12-11.36 80.866-21.835 6.5988-3.7087 11.378-6.8756 12.646-9.2494 8.4893-10.522-3.3387-26.192 0.74322-32.628 1.6329-1.7163 3.9439-3.0436 7.0725-3.9612 35.708-6.9215 44.862-35.404 50.79-40.035m-344.27 10.445c23.26 7.2774 29.419 40.632 36.669 61.863 0.92672 4.4497 2.6881 8.0363 5.1709 10.82 14.897 16.701 44.626 18.439 67.196 15.618 6.5381-0.48713 14.091 0.9862 21.963 3.5174 19.975 6.9646 44.811 24.133 57.884 38.333 7.8437 8.5203 13.097 17.115 14.633 23.144 0.35371 8.836-7.5841 16.606-23.33 19.731-15.746 3.1252-28.857-17.753-26.644-38.524 1.9798-17.304 13.317-32.72 37.349-37.918 28.707-5.9312 66.72-12.079 83.537-22.212 6.9971-3.6198 12.031-6.7002 13.372-8.9814 8.8877-10.376-3.7534-26.317 0.37078-32.923 1.5447-1.6802 3.7676-2.982 6.8207-3.8774 35.71-6.7854 42.917-36.901 48.253-41.069m-341.96 11.827c24.121 7.547 30.148 41.388 36.346 63.47 0.77228 4.6239 2.3905 8.3692 4.7355 11.303 14.07 17.602 44.403 18.384 67.449 14.504 6.6602-0.82338 14.388 0.39367 22.435 2.7659 20.378 6.4963 45.295 23.405 57.931 37.722 7.5816 8.5901 12.448 17.433 13.519 23.93-0.0773 9.3724-8.3958 17.683-24.707 21.161-16.311 3.477-29.785-17.956-27.516-39.357 1.9863-17.585 13.484-33.528 38.146-38.941 29.337-6.1912 68.32-12.799 86.208-22.588 7.3954-3.5308 12.685-6.5247 14.099-8.7135 9.2862-10.229-4.168-26.442-2e-3 -33.218 1.4564-1.6442 3.5913-2.9203 6.5688-3.7935 35.713-6.6493 40.973-38.399 45.716-42.104m-339.64 13.209c24.983 7.8165 30.877 42.144 36.022 65.078 0.61784 4.798 2.0929 8.702 4.3002 11.786 13.243 18.504 44.18 18.329 67.701 13.389 6.7823-1.1596 14.685-0.19887 22.906 2.0143 20.781 6.0281 45.78 22.678 57.979 37.111 7.3195 8.66 11.798 17.75 12.404 24.716-0.50836 9.9088-9.2074 18.761-26.084 22.59-16.876 3.8289-30.713-18.159-28.388-40.19 1.9929-17.866 13.651-34.335 38.943-39.965 29.966-6.4512 69.92-13.518 88.879-22.965 7.7937-3.4419 13.339-6.3493 14.825-8.4455 9.6846-10.082-4.5827-26.567-0.37408-33.513 1.3682-1.6082 3.415-2.8586 6.317-3.7097 35.715-6.5132 39.029-39.897 43.179-43.138m-337.32 14.591c25.844 8.0861 31.607 42.899 35.699 66.685 0.4634 4.9721 1.7954 9.0349 3.8648 12.269 12.417 19.405 43.957 18.273 67.954 12.275 6.9044-1.4959 14.982-0.79141 23.378 1.2628 21.185 5.5598 46.264 21.95 58.027 36.5 7.0573 8.7299 11.148 18.067 11.29 25.502-0.9394 10.445-10.019 19.839-27.46 24.02s-31.641-18.362-29.26-41.023c1.9995-18.146 13.818-35.142 39.739-40.989 30.595-6.7112 71.52-14.238 91.549-23.342 8.192-3.353 13.993-6.1739 15.552-8.1776 10.083-9.9355-4.9973-26.692-0.74651-33.807 1.28-1.5721 3.2387-2.797 6.0651-3.6258 35.717-6.377 37.085-41.394 40.641-44.173m-335 15.973c26.706 8.3556 32.336 43.655 35.376 68.292 0.30896 5.1462 1.4978 9.3678 3.4294 12.752 11.59 20.306 43.734 18.218 68.207 11.16 7.0264-1.8321 15.28-1.3839 23.849 0.51125 21.588 5.0916 46.749 21.223 58.074 35.889 6.7952 8.7998 10.498 18.385 10.176 26.289-1.3704 10.982-10.831 20.917-28.837 25.45-18.007 4.5327-32.57-18.564-30.132-41.856 2.006-18.427 13.985-35.949 40.536-42.013 31.224-6.9712 73.12-14.957 94.22-23.719 8.5903-3.264 14.647-5.9984 16.279-7.9096 10.481-9.7888-5.412-26.817-1.119-34.102 1.1918-1.5361 3.0624-2.7353 5.8133-3.542 35.719-6.2409 35.14-42.892 38.104-45.207m-332.69 17.355c27.567 8.6251 33.066 44.411 35.052 69.899 0.15451 5.3204 1.2002 9.7007 2.9941 13.235 10.763 21.207 43.511 18.163 68.46 10.046 7.1485-2.1684 15.577-1.9765 24.321-0.24029 21.991 4.6234 47.233 20.495 58.122 35.278 6.5331 8.8696 9.8483 18.702 9.0617 27.075-1.8015 11.518-11.642 21.995-30.214 26.879-18.572 4.8846-33.498-18.767-31.004-42.689 2.0126-18.708 14.152-36.756 41.332-43.037 31.853-7.2312 74.72-15.677 96.891-24.096 8.9886-3.1751 15.301-5.823 17.005-7.6417 10.88-9.642-5.8266-26.942-1.4914-34.397 1.1036-1.5 2.8861-2.6737 5.5614-3.4581 35.721-6.1048 33.196-44.39 35.567-46.242m-330.37 18.737c28.428 8.8947 33.795 45.166 34.729 71.507 7.2e-5 5.4945 0.9026 10.034 2.5587 13.718 9.9365 22.109 43.287 18.108 68.712 8.9316 7.2706-2.5046 15.874-2.569 24.792-0.99183 22.394 4.1552 47.718 19.767 58.169 34.667 6.271 8.9395 9.1985 19.019 7.9475 27.861-2.2325 12.055-12.454 23.073-31.591 28.309s-34.426-18.97-31.876-43.522c2.0192-18.989 14.319-37.563 42.129-44.06 32.482-7.4912 76.32-16.396 99.562-24.472 9.3869-3.0862 15.954-5.6476 17.732-7.3737 11.278-9.4953-6.2413-27.067-1.8638-34.692 1.0154-1.464 2.7098-2.612 5.3096-3.3743 35.724-5.9687 31.252-45.887 33.03-47.276m-328.05 20.119c29.29 9.1642 34.524 45.922 34.405 73.114-0.15437 5.6686 0.60502 10.367 2.1233 14.201 9.1097 23.01 43.064 18.052 68.965 7.8172 7.3927-2.8409 16.171-3.1616 25.263-1.7434 22.798 3.6869 48.202 19.04 58.217 34.055 6.0088 9.0094 8.5486 19.337 6.8332 28.647-2.6635 12.591-13.266 24.15-32.968 29.739-19.702 5.5884-35.354-19.173-32.748-44.354 2.0257-19.27 14.486-38.37 42.926-45.084 33.111-7.7512 77.92-17.115 102.23-24.849 9.7852-2.9973 16.608-5.4721 18.458-7.1058 11.677-9.3485-6.656-27.192-2.2363-34.987 0.92713-1.428 2.5335-2.5503 5.0578-3.2904 35.726-5.8325 29.308-47.385 30.493-48.311m-325.73 21.501c30.151 9.4337 35.254 46.678 34.082 74.721-0.30881 5.8427 0.30743 10.699 1.6879 14.685 8.283 23.911 42.841 17.997 69.218 6.7028 7.5148-3.1772 16.468-3.7541 25.735-2.4949 23.201 3.2187 48.686 18.312 58.264 33.444 5.7467 9.0793 7.8988 19.654 5.719 29.433-3.0946 13.127-14.077 25.228-34.344 31.168-20.267 5.9402-36.282-19.375-33.62-45.187 2.0323-19.551 14.653-39.177 43.722-46.108 33.74-8.0112 79.52-17.835 104.9-25.226 10.183-2.9083 17.262-5.2967 19.185-6.8378 12.075-9.2018-7.0706-27.317-2.6087-35.282 0.83891-1.3919 2.3572-2.4887 4.8059-3.2066 35.728-5.6964 27.363-48.883 27.956-49.346m-323.42 22.883c31.013 9.7033 35.983 47.433 33.758 76.328-0.46325 6.0168 0.0098 11.032 1.2526 15.168 7.4562 24.812 42.618 17.942 69.471 5.5885 7.6369-3.5134 16.765-4.3466 26.206-3.2464 23.604 2.7504 49.171 17.585 58.312 32.833 5.4846 9.1491 7.249 19.972 4.6048 30.219-3.5256 13.664-14.889 26.306-35.721 32.598s-37.211-19.578-34.492-46.02c2.0389-19.831 14.819-39.985 44.519-47.132 34.37-8.2712 81.12-18.554 107.57-25.603 10.582-2.8194 17.916-5.1213 19.912-6.5699 12.474-9.0551-7.4853-27.441-2.9811-35.577 0.75069-1.3559 2.1809-2.427 4.5541-3.1227 35.73-5.5603 25.419-50.38 25.419-50.38" fill="none" stroke="url(#linearGradient3595)" stroke-width=".23746px"/>
 <path d="m318.85 45.016v176.4h-367.51l2e-6 -177.1 184.12 135.37z" fill="#1b1e20"/>
 <g transform="matrix(1.3037 0 0 1.3037 -100.13 90.636)" opacity=".02" stroke-width=".6884">
  <g transform="translate(0 77.637)" opacity=".075" stroke-width=".6884">
   <path d="m-21.655-173.61 202.37 148.61 202.37-148.61v16.181l-202.37 148.61-202.37-148.61z" fill="url(#linearGradient21995)" stop-color="#000000" style="-inkscape-stroke:none;font-variation-settings:normal"/>
   <path d="m-21.655-193.8 202.37 148.61 202.37-148.61v22.391l-202.37 148.61-202.37-148.61z" fill="url(#linearGradient21997)"/>
   <path d="m-21.655-157.94 202.37 148.61 202.37-148.61v1.7412l-202.37 148.61-202.37-148.61z" fill="url(#linearGradient21999)" stop-color="#000000" style="-inkscape-stroke:none;font-variation-settings:normal;paint-order:stroke fill markers"/>
  </g>
  <g>
   <path d="m-21.656-22.398v20.919l191.38 140.54 10.981 23.178 10.981-23.178 191.38-140.54v-20.919l-202.37 148.61z" fill="url(#linearGradient22001)" stop-color="#000000" style="-inkscape-stroke:none;font-variation-settings:normal"/>
   <path d="m191.22 138.75-10.513 23.491 202.37-148.61v-15.771z" fill="url(#linearGradient22003)"/>
   <path d="m-21.656-2.1353v15.771l202.37 148.61-10.513-23.491z" fill="url(#linearGradient22005)"/>
  </g>
  <path d="m-21.656-2.1353v1.3126l190.92 140.2 11.449 22.866 11.449-22.866 190.92-140.2v-1.3126l-191.85 140.89-10.513 21.102-10.513-21.102-191.54-140.66z" color="#000000" fill="url(#linearGradient22007)" stroke-linecap="square" stroke-width=".18214" style="-inkscape-stroke:none"/>
  <g>
   <path d="m-21.655-41.581 202.37 148.61 202.37-148.61v21.473l-202.37 148.61-202.37-148.61z" fill="url(#linearGradient22009)" stop-color="#000000" style="-inkscape-stroke:none;font-variation-settings:normal"/>
   <path d="m-21.655-23.098 202.37 148.61 202.37-148.61v2.9889l-202.37 148.61-202.37-148.61z" fill="url(#linearGradient22011)" stop-color="#000000" style="-inkscape-stroke:none;font-variation-settings:normal;paint-order:stroke fill markers"/>
   <path d="m-21.655-62.914 202.37 148.61 202.37-148.61v22.391l-202.37 148.61-202.37-148.61z" fill="url(#linearGradient22013)"/>
   <path d="m-21.655-64.05 202.37 148.61 202.37-148.61v1.7412l-202.37 148.61-202.37-148.61z" fill="url(#linearGradient22015)" stop-color="#000000" style="-inkscape-stroke:none;font-variation-settings:normal;paint-order:stroke fill markers"/>
   <path d="m191.22 138.75-10.513 23.491 202.37-148.61v-15.771z" fill="url(#linearGradient22017)"/>
   <path d="m170.2 138.75 10.513 23.491-202.37-148.61-2e-6 -15.771z" fill="url(#linearGradient22019)"/>
  </g>
 </g>
 <g transform="matrix(.89748 0 0 .89748 -26.72 103.96)" opacity=".03">
  <path d="m-21.655-173.61 202.37 148.61 202.37-148.61v16.181l-202.37 148.61-202.37-148.61z" fill="url(#linearGradient21995)" stop-color="#000000" style="-inkscape-stroke:none;font-variation-settings:normal"/>
  <path d="m-21.655-193.8 202.37 148.61 202.37-148.61v22.391l-202.37 148.61-202.37-148.61z" fill="url(#linearGradient21997)"/>
  <path d="m-21.655-157.94 202.37 148.61 202.37-148.61v1.7412l-202.37 148.61-202.37-148.61z" fill="url(#linearGradient21999)" stop-color="#000000" style="-inkscape-stroke:none;font-variation-settings:normal;paint-order:stroke fill markers"/>
 </g>
 <path d="m144.9 158.81-9.4353 21.083 181.62-133.37v-14.154z" fill="url(#linearGradient24593)"/>
 <path d="m-46.155 32.365v14.154l181.62 133.37-9.4353-21.083z" fill="url(#linearGradient78325)"/>
 <path d="m-46.155 32.365v1.178l171.34 125.83 10.276 20.522 10.276-20.522 171.34-125.83v-1.178l-172.18 126.44-9.4353 18.938-9.4353-18.938-171.9-126.24z" color="#000000" fill="url(#linearGradient87990)" stroke-linecap="square" stroke-width=".23746" style="-inkscape-stroke:none"/>
 <g>
  <path d="m-46.155-3.0369 181.62 133.37 181.62-133.37v19.272l-181.62 133.37-181.62-133.37z" fill="url(#linearGradient25753)" stop-color="#000000" style="-inkscape-stroke:none;font-variation-settings:normal"/>
  <path d="m-46.155 13.552 181.62 133.37 181.62-133.37v2.6825l-181.62 133.37-181.62-133.37z" fill="url(#linearGradient25219)" stop-color="#000000" style="-inkscape-stroke:none;font-variation-settings:normal;paint-order:stroke fill markers"/>
  <path d="m144.9 158.81-9.4353 21.083 181.62-133.37v-14.154z" fill="url(#linearGradient14910)"/>
  <path d="m126.03 158.81 9.4353 21.083-181.62-133.37-2e-6 -14.154z" fill="url(#linearGradient15720)"/>
  <path d="m73.036 121.07v2.8175l30.5 22.398v-2.8175zm0 4.2423v4.4542l30.5 22.398v-4.4542zm30.5 28.218-30.5-22.398v1.8997l30.5 22.398z" fill="url(#linearGradient35006)"/>
  <path d="m283.48 59.558v2.8175l-30.5 22.398v-2.8175zm0 4.2423v4.4542l-30.5 22.398v-4.4542zm-30.5 28.218 30.5-22.398v1.8997l-30.5 22.398z" fill="url(#linearGradient35006-3)"/>
  <path d="m135.46 131.29 181.77-132.88-0.15444-1.4462z" fill="#d0b2e4"/>
  <path d="m135.46 131.29-181.77-132.88 0.15444-1.4462z" fill="#b2e3e4"/>
  <path d="m-46.155-22.183 181.62 133.37 181.62-133.37v20.096l-181.62 133.37-181.62-133.37z" fill="url(#linearGradient26562)"/>
 </g>
 <g transform="matrix(.73053 0 0 .73109 13.116 44.096)" fill="none" stop-color="#000000" stroke="#235dc6" stroke-width=".64985" style="-inkscape-stroke:none;font-variation-settings:normal;paint-order:stroke fill markers">
  <path d="m116.37 53.187v6.7346" stop-color="#000000" style="-inkscape-stroke:none;font-variation-settings:normal;paint-order:stroke fill markers"/>
  <path d="m122.49 57.678v8.7187" stop-color="#000000" style="-inkscape-stroke:none;font-variation-settings:normal;paint-order:stroke fill markers"/>
  <path d="m133.56 65.81v8.379" stop-color="#000000" style="-inkscape-stroke:none;font-variation-settings:normal;paint-order:stroke fill markers"/>
  <path d="m128.48 62.077v4.1961" stop-color="#000000" style="-inkscape-stroke:none;font-variation-settings:normal;paint-order:stroke fill markers"/>
  <circle cx="116.42" cy="61.028" r="1.21" stop-color="#000000" style="-inkscape-stroke:none;font-variation-settings:normal;paint-order:stroke fill markers"/>
  <circle cx="122.45" cy="66.901" r=".64061" stop-color="#000000" style="-inkscape-stroke:none;font-variation-settings:normal;paint-order:stroke fill markers"/>
  <circle cx="128.5" cy="67.357" r="1.21" stop-color="#000000" style="-inkscape-stroke:none;font-variation-settings:normal;paint-order:stroke fill markers"/>
  <circle cx="133.55" cy="75.222" r="1.21" stop-color="#000000" style="-inkscape-stroke:none;font-variation-settings:normal;paint-order:stroke fill markers"/>
 </g>
 <path d="m-1.4673 16.576v14.154l7.8158 5.7394v-14.154zm10.127 7.4368v14.154l15.721 11.545v-14.154zm20.518 15.067 0.13125 14.25 9.8601 7.2407 0.01717-14.141zm13.634 10.013-0.18459 14.018 2.9766 2.1858v-14.154z" fill="url(#linearGradient34063)" stop-color="#000000" style="-inkscape-stroke:none;font-variation-settings:normal"/>
 <path d="m194.74 127.83v6.5552l-7.8158 5.7394v-6.5552zm-10.127 7.4368v6.5552l-15.721 11.545v-6.5556zm-20.518 15.067-0.13124 6.6516-9.8601 7.2407-0.0171-6.5426zm-13.634 10.013 0.1846 6.4198-2.9766 2.1858v-6.5556z" fill="url(#linearGradient53858)" stop-color="#000000" style="-inkscape-stroke:none;font-variation-settings:normal"/>
 <g transform="matrix(.89748 0 0 .89748 -26.72 54.985)" opacity=".03">
  <path d="m-21.655-173.61 202.37 148.61 202.37-148.61v16.181l-202.37 148.61-202.37-148.61z" fill="url(#linearGradient21995)" stop-color="#000000" style="-inkscape-stroke:none;font-variation-settings:normal"/>
  <path d="m-21.655-193.8 202.37 148.61 202.37-148.61v22.391l-202.37 148.61-202.37-148.61z" fill="url(#linearGradient21997)"/>
  <path d="m-21.655-157.94 202.37 148.61 202.37-148.61v1.7412l-202.37 148.61-202.37-148.61z" fill="url(#linearGradient21999)" stop-color="#000000" style="-inkscape-stroke:none;font-variation-settings:normal;paint-order:stroke fill markers"/>
 </g>
 <path d="m63.982 61.318v15.623l22.516 16.535v-15.623z" fill="#7777e1" fill-opacity=".095564"/>
 <g>
  <path d="m79.923 95.396v6.6169l55.542 40.933v-6.6169zm0 8.0416v2.5545l55.542 40.933v-2.5546z" fill="url(#linearGradient35392)"/>
  <path d="m-26.751 52.301v3.8174l29.44 21.619v-3.8179z" fill="url(#linearGradient37083)"/>
  <path d="m52.487 59.854v9.354l72.138 52.975v-9.3551z" fill="url(#linearGradient37280)"/>
  <path d="m-4.5752 67.425v9.3541l20.027 14.707v-3.1807zm23.831 23.675v3.1807l7.8352 5.7538v-3.1807zm9.7307 7.1456v3.1807l8.2281 6.0427v-3.1811zm13.999 10.28v3.1807l10.358 7.6066v-3.1811zm13.429 9.862v3.1811l6.3613 4.6713v-3.1811zm8.8908 6.5287v3.1811l2.2563 1.6571v-3.1811z" fill="url(#linearGradient37849)"/>
 </g>
 <g transform="matrix(.73053 0 0 .73109 36.115 61.341)" fill="none" stroke="#235dc6" stroke-width=".64985">
  <path d="m116.37 53.187v6.7346" stop-color="#000000" style="font-variation-settings:normal"/>
  <path d="m122.49 57.678v8.7187"/>
  <path d="m128.48 62.077v4.1961"/>
  <circle cx="116.42" cy="61.028" r="1.21" stop-color="#000000" style="font-variation-settings:normal;paint-order:stroke fill markers"/>
  <circle cx="122.45" cy="66.901" r=".64061" stop-color="#000000" style="font-variation-settings:normal;paint-order:stroke fill markers"/>
  <circle cx="128.5" cy="67.357" r="1.21" stop-color="#000000" style="font-variation-settings:normal;paint-order:stroke fill markers"/>
  <path d="m110.31 48.673v8.379"/>
  <circle cx="110.3" cy="58.084" r="1.21" stop-color="#000000" style="font-variation-settings:normal;paint-order:stroke fill markers"/>
 </g>
 <g>
  <path d="m-46.155-23.202 181.62 133.37 181.62-133.37v1.5627l-181.62 133.37-181.62-133.37z" fill="url(#linearGradient69576)" stop-color="#000000" style="-inkscape-stroke:none;font-variation-settings:normal;paint-order:stroke fill markers"/>
  <path d="m195.02 79.717v14.154l-7.8158 5.7394v-14.154zm-10.127 7.4368v14.154l-15.721 11.545v-14.154zm-20.518 15.067-0.13125 14.25-9.8601 7.2407-0.0171-14.141zm-13.634 10.013 0.1846 14.018-2.9766 2.1858v-14.154z" fill="url(#linearGradient53643)" stop-color="#000000" style="-inkscape-stroke:none;font-variation-settings:normal"/>
  <path d="m273.42 7.228v9.3541l-20.027 14.707v-3.1807zm-23.831 23.675v3.1807l-7.8352 5.7538v-3.1807zm-9.7307 7.1456v3.1807l-8.228 6.0427v-3.1811zm-13.999 10.28v3.1807l-10.358 7.6066v-3.1811zm-13.429 9.862v3.1811l-6.3613 4.6713v-3.1811zm-8.8908 6.5287v3.1811l-2.2563 1.6571v-3.1811z" fill="url(#linearGradient53697)"/>
  <path d="m257.88 33.434v9.354l-72.138 52.975v-9.3551z" fill="url(#linearGradient53804)"/>
  <path d="m191.01 95.396v6.6169l-55.542 40.933v-6.6169zm0 8.0416v2.5545l-55.542 40.933v-2.5546z" fill="url(#linearGradient5163)"/>
 </g>
</svg>
