<?xml version="1.0" encoding="UTF-8" standalone="no"?>
<!-- Created with Inkscape (http://www.inkscape.org/) -->

<svg
   width="1080"
   height="1023.9999"
   viewBox="0 0 285.74999 270.93335"
   version="1.1"
   id="svg1140"
   xmlns:xlink="http://www.w3.org/1999/xlink"
   xmlns="http://www.w3.org/2000/svg"
   xmlns:svg="http://www.w3.org/2000/svg">
  <defs
     id="defs1137">
    <linearGradient
       xlink:href="#linearGradient29544"
       id="linearGradient29546-2"
       x1="132.10901"
       y1="575.51141"
       x2="1068.3112"
       y2="320.25305"
       gradientUnits="userSpaceOnUse"
       gradientTransform="matrix(0.26511971,0.02814317,-0.02814317,0.26511971,-20.110193,54.637905)" />
    <linearGradient
       id="linearGradient29544">
      <stop
         style="stop-color:#1c52f2;stop-opacity:1"
         offset="0"
         id="stop29540" />
      <stop
         style="stop-color:#d62bc3;stop-opacity:0.42363399"
         offset="1"
         id="stop29542" />
    </linearGradient>
    <linearGradient
       xlink:href="#linearGradient4549"
       id="linearGradient4551-1"
       x1="1218.4554"
       y1="30.736158"
       x2="-51.688805"
       y2="481.46146"
       gradientUnits="userSpaceOnUse"
       gradientTransform="matrix(0.26511971,0.02814317,-0.02814317,0.26511971,-20.110193,54.637905)" />
    <linearGradient
       id="linearGradient4549">
      <stop
         style="stop-color:#4886f2;stop-opacity:1;"
         offset="0"
         id="stop4545" />
      <stop
         style="stop-color:#8f4bcd;stop-opacity:1"
         offset="1"
         id="stop4547" />
    </linearGradient>
    <linearGradient
       xlink:href="#linearGradient10986"
       id="linearGradient12309-5"
       gradientUnits="userSpaceOnUse"
       x1="1343.8644"
       y1="191.42802"
       x2="861.3941"
       y2="436.60165"
       gradientTransform="matrix(0.26660925,0,0,0.26660925,-43.096806,45.759346)" />
    <linearGradient
       id="linearGradient10986">
      <stop
         style="stop-color:#6659f2;stop-opacity:1"
         offset="0"
         id="stop10982" />
      <stop
         style="stop-color:#628af5;stop-opacity:1"
         offset="1"
         id="stop10984" />
    </linearGradient>
    <linearGradient
       xlink:href="#linearGradient1509"
       id="linearGradient1511-9"
       x1="466.89359"
       y1="475.49548"
       x2="1404.4065"
       y2="195.51314"
       gradientUnits="userSpaceOnUse"
       gradientTransform="matrix(0.26660925,0,0,0.26660925,-43.096806,45.759346)" />
    <linearGradient
       id="linearGradient1509">
      <stop
         style="stop-color:#3e2fdd;stop-opacity:1"
         offset="0"
         id="stop1505" />
      <stop
         style="stop-color:#a4007e;stop-opacity:1"
         offset="1"
         id="stop1507" />
    </linearGradient>
    <linearGradient
       xlink:href="#linearGradient4477"
       id="linearGradient4479-5"
       x1="1327.1652"
       y1="150.93445"
       x2="-27.439623"
       y2="614.6449"
       gradientUnits="userSpaceOnUse"
       gradientTransform="matrix(0.26511971,0.02814317,-0.02814317,0.26511971,-20.110193,54.637905)" />
    <linearGradient
       id="linearGradient4477">
      <stop
         style="stop-color:#578bf2;stop-opacity:1"
         offset="0"
         id="stop4473" />
      <stop
         style="stop-color:#5a74fa;stop-opacity:1"
         offset="1"
         id="stop4475" />
    </linearGradient>
    <linearGradient
       xlink:href="#linearGradient4685-3"
       id="linearGradient4687-8"
       x1="1284.0638"
       y1="231.57774"
       x2="-19.021584"
       y2="636.71533"
       gradientUnits="userSpaceOnUse"
       gradientTransform="matrix(0.26511971,0.02814317,-0.02814317,0.26511971,-20.110193,54.637905)" />
    <linearGradient
       id="linearGradient4685-3">
      <stop
         style="stop-color:#542ef2;stop-opacity:1"
         offset="0"
         id="stop4681-8" />
      <stop
         style="stop-color:#4a98e4;stop-opacity:1"
         offset="0.47512516"
         id="stop26809" />
      <stop
         style="stop-color:#5393f2;stop-opacity:1"
         offset="1"
         id="stop4683-5" />
    </linearGradient>
    <linearGradient
       xlink:href="#linearGradient31045"
       id="linearGradient30817"
       x1="-757.29144"
       y1="414.48566"
       x2="687.20605"
       y2="74.068878"
       gradientUnits="userSpaceOnUse"
       gradientTransform="matrix(0.26660925,0,0,0.26660925,144.55976,104.98723)" />
    <linearGradient
       id="linearGradient31045">
      <stop
         style="stop-color:#94a642;stop-opacity:1"
         offset="0"
         id="stop31041" />
      <stop
         style="stop-color:#83aa61;stop-opacity:1"
         offset="0.31171572"
         id="stop31403" />
      <stop
         style="stop-color:#dc8cd1;stop-opacity:1"
         offset="0.59436423"
         id="stop31273" />
      <stop
         style="stop-color:#6cdddb;stop-opacity:1"
         offset="1"
         id="stop31043" />
    </linearGradient>
    <linearGradient
       xlink:href="#linearGradient25627"
       id="linearGradient25349"
       x1="-19.32687"
       y1="174.87611"
       x2="365.09894"
       y2="71.86953"
       gradientUnits="userSpaceOnUse"
       gradientTransform="matrix(1.1755965,0,0,1.1755965,-139.60616,10.134281)" />
    <linearGradient
       id="linearGradient25627">
      <stop
         style="stop-color:#bda62c;stop-opacity:1;"
         offset="0"
         id="stop25607" />
      <stop
         style="stop-color:#ae9a28;stop-opacity:0.98823529"
         offset="0.14668909"
         id="stop25609" />
      <stop
         style="stop-color:#8c7b20;stop-opacity:0.96862745"
         offset="0.30530512"
         id="stop25613" />
      <stop
         style="stop-color:#bda62c;stop-opacity:0.95686275;"
         offset="0.51079261"
         id="stop25617" />
      <stop
         style="stop-color:#82721e;stop-opacity:0.94901961"
         offset="0.62310421"
         id="stop25619" />
      <stop
         style="stop-color:#c0ab2c;stop-opacity:0.99607843"
         offset="0.83540899"
         id="stop25623" />
      <stop
         style="stop-color:#7f6f1e;stop-opacity:0.92156863"
         offset="1"
         id="stop25625" />
    </linearGradient>
    <linearGradient
       xlink:href="#linearGradient14653"
       id="linearGradient14655"
       x1="-46.183235"
       y1="706.05402"
       x2="1721.9431"
       y2="445.6926"
       gradientUnits="userSpaceOnUse"
       gradientTransform="matrix(0.31104327,0,0,0.31104327,-139.60616,10.134281)" />
    <linearGradient
       id="linearGradient14653">
      <stop
         style="stop-color:#bda62c;stop-opacity:1;"
         offset="0"
         id="stop14649" />
      <stop
         style="stop-color:#615516;stop-opacity:0.98823529"
         offset="0.09857609"
         id="stop16599" />
      <stop
         style="stop-color:#cab12f;stop-opacity:0.97647059"
         offset="0.25338677"
         id="stop16339" />
      <stop
         style="stop-color:#8c7b20;stop-opacity:0.96862745"
         offset="0.33815062"
         id="stop16405" />
      <stop
         style="stop-color:#87771f;stop-opacity:0.96470588"
         offset="0.4215126"
         id="stop15309" />
      <stop
         style="stop-color:#bda62c;stop-opacity:0.95686275;"
         offset="0.53338844"
         id="stop15113" />
      <stop
         style="stop-color:#82721e;stop-opacity:0.94901961"
         offset="0.62310421"
         id="stop15179" />
      <stop
         style="stop-color:#80711e;stop-opacity:0.93725497"
         offset="0.73470789"
         id="stop15823" />
      <stop
         style="stop-color:#d7be31;stop-opacity:0.92941177"
         offset="0.83540899"
         id="stop15889" />
      <stop
         style="stop-color:#bda62c;stop-opacity:0.9217537"
         offset="1"
         id="stop14651" />
    </linearGradient>
    <linearGradient
       xlink:href="#linearGradient4685-3"
       id="linearGradient4687-8-6"
       x1="1284.0638"
       y1="231.57774"
       x2="-19.021584"
       y2="636.71533"
       gradientUnits="userSpaceOnUse"
       gradientTransform="matrix(0.37898476,0.04023023,-0.04023023,0.37898476,-114.23263,-8.6581597)" />
    <linearGradient
       xlink:href="#linearGradient4477"
       id="linearGradient4479-5-1"
       x1="1327.1652"
       y1="150.93445"
       x2="-27.439623"
       y2="614.6449"
       gradientUnits="userSpaceOnUse"
       gradientTransform="matrix(0.37898476,0.04023023,-0.04023023,0.37898476,-114.23263,-8.6581597)" />
    <linearGradient
       xlink:href="#linearGradient1509"
       id="linearGradient6948"
       gradientUnits="userSpaceOnUse"
       gradientTransform="matrix(0.38111406,0,0,0.38111406,-147.09165,-22.569128)"
       x1="466.89359"
       y1="475.49548"
       x2="1404.4065"
       y2="195.51314" />
    <linearGradient
       xlink:href="#linearGradient10986"
       id="linearGradient12309-5-4"
       gradientUnits="userSpaceOnUse"
       x1="1343.8644"
       y1="191.42802"
       x2="861.3941"
       y2="436.60165"
       gradientTransform="matrix(0.38111406,0,0,0.38111406,-147.09165,-21.34993)" />
    <linearGradient
       xlink:href="#linearGradient4549"
       id="linearGradient4551-1-8"
       x1="1218.4554"
       y1="30.736158"
       x2="-51.688805"
       y2="481.46146"
       gradientUnits="userSpaceOnUse"
       gradientTransform="matrix(0.37898476,0.04023023,-0.04023023,0.37898476,-114.23263,-8.6581597)" />
    <linearGradient
       xlink:href="#linearGradient29544"
       id="linearGradient24274"
       gradientUnits="userSpaceOnUse"
       gradientTransform="matrix(0.37898476,0.04023027,-0.04023027,0.37898476,-114.23263,-8.6581597)"
       x1="132.10901"
       y1="575.51141"
       x2="1068.3112"
       y2="320.25305" />
    <linearGradient
       xlink:href="#linearGradient29544"
       id="linearGradient1273"
       gradientUnits="userSpaceOnUse"
       gradientTransform="matrix(0.37898476,0.04023027,-0.04023027,0.37898476,-114.23263,-8.6581597)"
       x1="132.10901"
       y1="575.51141"
       x2="1068.3112"
       y2="320.25305" />
    <linearGradient
       xlink:href="#linearGradient29544"
       id="linearGradient1275"
       gradientUnits="userSpaceOnUse"
       gradientTransform="matrix(0.37898476,0.04023027,-0.04023027,0.37898476,-114.23263,-8.6581597)"
       x1="132.10901"
       y1="575.51141"
       x2="1068.3112"
       y2="320.25305" />
    <linearGradient
       xlink:href="#linearGradient29544"
       id="linearGradient1277"
       gradientUnits="userSpaceOnUse"
       gradientTransform="matrix(0.37898476,0.04023027,-0.04023027,0.37898476,-114.23263,-8.6581597)"
       x1="132.10901"
       y1="575.51141"
       x2="1068.3112"
       y2="320.25305" />
    <linearGradient
       xlink:href="#linearGradient29544"
       id="linearGradient1279"
       gradientUnits="userSpaceOnUse"
       gradientTransform="matrix(0.37898476,0.04023027,-0.04023027,0.37898476,-114.23263,-8.6581597)"
       x1="132.10901"
       y1="575.51141"
       x2="1068.3112"
       y2="320.25305" />
    <linearGradient
       xlink:href="#linearGradient29544"
       id="linearGradient1281"
       gradientUnits="userSpaceOnUse"
       gradientTransform="matrix(0.37898476,0.04023027,-0.04023027,0.37898476,-114.23263,-8.6581597)"
       x1="132.10901"
       y1="575.51141"
       x2="1068.3112"
       y2="320.25305" />
    <linearGradient
       xlink:href="#linearGradient29544"
       id="linearGradient1283"
       gradientUnits="userSpaceOnUse"
       gradientTransform="matrix(0.37898476,0.04023027,-0.04023027,0.37898476,-114.23263,-8.6581597)"
       x1="132.10901"
       y1="575.51141"
       x2="1068.3112"
       y2="320.25305" />
    <linearGradient
       xlink:href="#linearGradient29544"
       id="linearGradient1285"
       gradientUnits="userSpaceOnUse"
       gradientTransform="matrix(0.37898476,0.04023027,-0.04023027,0.37898476,-114.23263,-8.6581597)"
       x1="132.10901"
       y1="575.51141"
       x2="1068.3112"
       y2="320.25305" />
    <linearGradient
       xlink:href="#linearGradient29544"
       id="linearGradient1287"
       gradientUnits="userSpaceOnUse"
       gradientTransform="matrix(0.37898476,0.04023027,-0.04023027,0.37898476,-114.23263,-8.6581597)"
       x1="132.10901"
       y1="575.51141"
       x2="1068.3112"
       y2="320.25305" />
    <linearGradient
       xlink:href="#linearGradient29544"
       id="linearGradient1289"
       gradientUnits="userSpaceOnUse"
       gradientTransform="matrix(0.37898476,0.04023027,-0.04023027,0.37898476,-114.23263,-8.6581597)"
       x1="132.10901"
       y1="575.51141"
       x2="1068.3112"
       y2="320.25305" />
    <linearGradient
       xlink:href="#linearGradient29544"
       id="linearGradient1291"
       gradientUnits="userSpaceOnUse"
       gradientTransform="matrix(0.37898476,0.04023027,-0.04023027,0.37898476,-114.23263,-8.6581597)"
       x1="132.10901"
       y1="575.51141"
       x2="1068.3112"
       y2="320.25305" />
    <linearGradient
       xlink:href="#linearGradient29544"
       id="linearGradient1293"
       gradientUnits="userSpaceOnUse"
       gradientTransform="matrix(0.37898476,0.04023027,-0.04023027,0.37898476,-114.23263,-8.6581597)"
       x1="132.10901"
       y1="575.51141"
       x2="1068.3112"
       y2="320.25305" />
    <linearGradient
       xlink:href="#linearGradient29544"
       id="linearGradient1295"
       gradientUnits="userSpaceOnUse"
       gradientTransform="matrix(0.37898476,0.04023027,-0.04023027,0.37898476,-114.23263,-8.6581597)"
       x1="132.10901"
       y1="575.51141"
       x2="1068.3112"
       y2="320.25305" />
    <linearGradient
       xlink:href="#linearGradient29544"
       id="linearGradient1297"
       gradientUnits="userSpaceOnUse"
       gradientTransform="matrix(0.37898476,0.04023027,-0.04023027,0.37898476,-114.23263,-8.6581597)"
       x1="132.10901"
       y1="575.51141"
       x2="1068.3112"
       y2="320.25305" />
    <linearGradient
       xlink:href="#linearGradient29544"
       id="linearGradient1299"
       gradientUnits="userSpaceOnUse"
       gradientTransform="matrix(0.37898476,0.04023027,-0.04023027,0.37898476,-114.23263,-8.6581597)"
       x1="132.10901"
       y1="575.51141"
       x2="1068.3112"
       y2="320.25305" />
    <linearGradient
       xlink:href="#linearGradient29544"
       id="linearGradient1301"
       gradientUnits="userSpaceOnUse"
       gradientTransform="matrix(0.37898476,0.04023027,-0.04023027,0.37898476,-114.23263,-8.6581597)"
       x1="132.10901"
       y1="575.51141"
       x2="1068.3112"
       y2="320.25305" />
    <linearGradient
       xlink:href="#linearGradient29544"
       id="linearGradient1303"
       gradientUnits="userSpaceOnUse"
       gradientTransform="matrix(0.37898476,0.04023027,-0.04023027,0.37898476,-114.23263,-8.6581597)"
       x1="132.10901"
       y1="575.51141"
       x2="1068.3112"
       y2="320.25305" />
    <linearGradient
       xlink:href="#linearGradient29544"
       id="linearGradient1305"
       gradientUnits="userSpaceOnUse"
       gradientTransform="matrix(0.37898476,0.04023027,-0.04023027,0.37898476,-114.23263,-8.6581597)"
       x1="132.10901"
       y1="575.51141"
       x2="1068.3112"
       y2="320.25305" />
    <linearGradient
       xlink:href="#linearGradient29544"
       id="linearGradient1307"
       gradientUnits="userSpaceOnUse"
       gradientTransform="matrix(0.37898476,0.04023027,-0.04023027,0.37898476,-114.23263,-8.6581597)"
       x1="132.10901"
       y1="575.51141"
       x2="1068.3112"
       y2="320.25305" />
    <linearGradient
       xlink:href="#linearGradient29544"
       id="linearGradient1309"
       gradientUnits="userSpaceOnUse"
       gradientTransform="matrix(0.37898476,0.04023027,-0.04023027,0.37898476,-114.23263,-8.6581597)"
       x1="132.10901"
       y1="575.51141"
       x2="1068.3112"
       y2="320.25305" />
    <linearGradient
       xlink:href="#linearGradient29544"
       id="linearGradient1311"
       gradientUnits="userSpaceOnUse"
       gradientTransform="matrix(0.37898476,0.04023027,-0.04023027,0.37898476,-114.23263,-8.6581597)"
       x1="132.10901"
       y1="575.51141"
       x2="1068.3112"
       y2="320.25305" />
    <linearGradient
       xlink:href="#linearGradient29544"
       id="linearGradient1313"
       gradientUnits="userSpaceOnUse"
       gradientTransform="matrix(0.37898476,0.04023027,-0.04023027,0.37898476,-114.23263,-8.6581597)"
       x1="132.10901"
       y1="575.51141"
       x2="1068.3112"
       y2="320.25305" />
    <linearGradient
       xlink:href="#linearGradient29544"
       id="linearGradient1315"
       gradientUnits="userSpaceOnUse"
       gradientTransform="matrix(0.37898476,0.04023027,-0.04023027,0.37898476,-114.23263,-8.6581597)"
       x1="132.10901"
       y1="575.51141"
       x2="1068.3112"
       y2="320.25305" />
    <linearGradient
       xlink:href="#linearGradient29544"
       id="linearGradient1317"
       gradientUnits="userSpaceOnUse"
       gradientTransform="matrix(0.37898476,0.04023027,-0.04023027,0.37898476,-114.23263,-8.6581597)"
       x1="132.10901"
       y1="575.51141"
       x2="1068.3112"
       y2="320.25305" />
    <linearGradient
       xlink:href="#linearGradient29544"
       id="linearGradient1319"
       gradientUnits="userSpaceOnUse"
       gradientTransform="matrix(0.37898476,0.04023027,-0.04023027,0.37898476,-114.23263,-8.6581597)"
       x1="132.10901"
       y1="575.51141"
       x2="1068.3112"
       y2="320.25305" />
    <linearGradient
       xlink:href="#linearGradient29544"
       id="linearGradient1321"
       gradientUnits="userSpaceOnUse"
       gradientTransform="matrix(0.37898476,0.04023027,-0.04023027,0.37898476,-114.23263,-8.6581597)"
       x1="132.10901"
       y1="575.51141"
       x2="1068.3112"
       y2="320.25305" />
    <linearGradient
       xlink:href="#linearGradient29544"
       id="linearGradient1323"
       gradientUnits="userSpaceOnUse"
       gradientTransform="matrix(0.37898476,0.04023027,-0.04023027,0.37898476,-114.23263,-8.6581597)"
       x1="132.10901"
       y1="575.51141"
       x2="1068.3112"
       y2="320.25305" />
    <linearGradient
       xlink:href="#linearGradient29544"
       id="linearGradient1325"
       gradientUnits="userSpaceOnUse"
       gradientTransform="matrix(0.37898476,0.04023027,-0.04023027,0.37898476,-114.23263,-8.6581597)"
       x1="132.10901"
       y1="575.51141"
       x2="1068.3112"
       y2="320.25305" />
    <linearGradient
       xlink:href="#linearGradient29544"
       id="linearGradient1327"
       gradientUnits="userSpaceOnUse"
       gradientTransform="matrix(0.37898476,0.04023027,-0.04023027,0.37898476,-114.23263,-8.6581597)"
       x1="132.10901"
       y1="575.51141"
       x2="1068.3112"
       y2="320.25305" />
    <linearGradient
       xlink:href="#linearGradient29544"
       id="linearGradient1329"
       gradientUnits="userSpaceOnUse"
       gradientTransform="matrix(0.37898476,0.04023027,-0.04023027,0.37898476,-114.23263,-8.6581597)"
       x1="132.10901"
       y1="575.51141"
       x2="1068.3112"
       y2="320.25305" />
    <linearGradient
       xlink:href="#linearGradient29544"
       id="linearGradient1331"
       gradientUnits="userSpaceOnUse"
       gradientTransform="matrix(0.37898476,0.04023027,-0.04023027,0.37898476,-114.23263,-8.6581597)"
       x1="132.10901"
       y1="575.51141"
       x2="1068.3112"
       y2="320.25305" />
    <linearGradient
       xlink:href="#linearGradient29544"
       id="linearGradient1333"
       gradientUnits="userSpaceOnUse"
       gradientTransform="matrix(0.37898476,0.04023027,-0.04023027,0.37898476,-114.23263,-8.6581597)"
       x1="132.10901"
       y1="575.51141"
       x2="1068.3112"
       y2="320.25305" />
    <linearGradient
       xlink:href="#linearGradient29544"
       id="linearGradient1335"
       gradientUnits="userSpaceOnUse"
       gradientTransform="matrix(0.37898476,0.04023027,-0.04023027,0.37898476,-114.23263,-8.6581597)"
       x1="132.10901"
       y1="575.51141"
       x2="1068.3112"
       y2="320.25305" />
    <linearGradient
       xlink:href="#linearGradient29544"
       id="linearGradient1337"
       gradientUnits="userSpaceOnUse"
       gradientTransform="matrix(0.37898476,0.04023027,-0.04023027,0.37898476,-114.23263,-8.6581597)"
       x1="132.10901"
       y1="575.51141"
       x2="1068.3112"
       y2="320.25305" />
    <linearGradient
       xlink:href="#linearGradient29544"
       id="linearGradient1339"
       gradientUnits="userSpaceOnUse"
       gradientTransform="matrix(0.37898476,0.04023027,-0.04023027,0.37898476,-114.23263,-8.6581597)"
       x1="132.10901"
       y1="575.51141"
       x2="1068.3112"
       y2="320.25305" />
    <linearGradient
       xlink:href="#linearGradient29544"
       id="linearGradient1341"
       gradientUnits="userSpaceOnUse"
       gradientTransform="matrix(0.37898476,0.04023027,-0.04023027,0.37898476,-114.23263,-8.6581597)"
       x1="132.10901"
       y1="575.51141"
       x2="1068.3112"
       y2="320.25305" />
    <linearGradient
       xlink:href="#linearGradient29544"
       id="linearGradient1343"
       gradientUnits="userSpaceOnUse"
       gradientTransform="matrix(0.37898476,0.04023027,-0.04023027,0.37898476,-114.23263,-8.6581597)"
       x1="132.10901"
       y1="575.51141"
       x2="1068.3112"
       y2="320.25305" />
    <linearGradient
       xlink:href="#linearGradient29544"
       id="linearGradient1345"
       gradientUnits="userSpaceOnUse"
       gradientTransform="matrix(0.37898476,0.04023027,-0.04023027,0.37898476,-114.23263,-8.6581597)"
       x1="132.10901"
       y1="575.51141"
       x2="1068.3112"
       y2="320.25305" />
    <linearGradient
       xlink:href="#linearGradient29544"
       id="linearGradient1347"
       gradientUnits="userSpaceOnUse"
       gradientTransform="matrix(0.37898476,0.04023027,-0.04023027,0.37898476,-114.23263,-8.6581597)"
       x1="132.10901"
       y1="575.51141"
       x2="1068.3112"
       y2="320.25305" />
    <linearGradient
       xlink:href="#linearGradient29544"
       id="linearGradient1349"
       gradientUnits="userSpaceOnUse"
       gradientTransform="matrix(0.37898476,0.04023027,-0.04023027,0.37898476,-114.23263,-8.6581597)"
       x1="132.10901"
       y1="575.51141"
       x2="1068.3112"
       y2="320.25305" />
    <linearGradient
       xlink:href="#linearGradient25627"
       id="linearGradient25349-7"
       x1="-19.32687"
       y1="174.87611"
       x2="365.09894"
       y2="71.86953"
       gradientUnits="userSpaceOnUse"
       gradientTransform="matrix(1.1755965,0,0,1.1755965,-139.60617,11.493787)" />
    <linearGradient
       xlink:href="#linearGradient14653"
       id="linearGradient14655-2"
       x1="-46.183235"
       y1="706.05402"
       x2="1721.9431"
       y2="445.6926"
       gradientUnits="userSpaceOnUse"
       gradientTransform="matrix(0.31104329,0,0,0.31104329,-139.60617,11.493787)" />
    <linearGradient
       xlink:href="#linearGradient4549-1"
       id="linearGradient4687-8-0"
       x1="1155.105"
       y1="262.50851"
       x2="93.583733"
       y2="615.88306"
       gradientUnits="userSpaceOnUse"
       gradientTransform="matrix(0.37898476,0.04023024,-0.04023024,0.37898476,-114.23264,-7.2986572)" />
    <linearGradient
       id="linearGradient4549-1">
      <stop
         style="stop-color:#8b5cf6;stop-opacity:1"
         offset="0"
         id="stop4545-9" />
      <stop
         style="stop-color:#6d28d9;stop-opacity:1"
         offset="0.2124767"
         id="stop3695" />
      <stop
         style="stop-color:#6f5cf6;stop-opacity:1"
         offset="0.42963988"
         id="stop3369" />
      <stop
         style="stop-color:#7c3aed;stop-opacity:1"
         offset="0.59961361"
         id="stop3629" />
      <stop
         style="stop-color:#6376f6;stop-opacity:1"
         offset="0.80968213"
         id="stop3499" />
      <stop
         style="stop-color:#6d28d9;stop-opacity:1"
         offset="1"
         id="stop4547-2" />
    </linearGradient>
    <linearGradient
       xlink:href="#linearGradient120453"
       id="linearGradient4479-5-19"
       x1="1143.1901"
       y1="196.74675"
       x2="120.85666"
       y2="539.48602"
       gradientUnits="userSpaceOnUse"
       gradientTransform="matrix(0.37898476,0.04023024,-0.04023024,0.37898476,-114.23264,-7.2986572)" />
    <linearGradient
       id="linearGradient120453">
      <stop
         style="stop-color:#8b5cf6;stop-opacity:1"
         offset="0"
         id="stop120441" />
      <stop
         style="stop-color:#5151dc;stop-opacity:1"
         offset="0.25152168"
         id="stop120443" />
      <stop
         style="stop-color:#3b82f6;stop-opacity:1"
         offset="0.44539982"
         id="stop120445" />
      <stop
         style="stop-color:#8b69f6;stop-opacity:1"
         offset="0.63944036"
         id="stop120447" />
      <stop
         style="stop-color:#60a5fa;stop-opacity:1"
         offset="0.83593452"
         id="stop120449" />
      <stop
         style="stop-color:#60a5fa;stop-opacity:1"
         offset="1"
         id="stop120451" />
    </linearGradient>
    <linearGradient
       xlink:href="#linearGradient1509"
       id="linearGradient6948-2"
       gradientUnits="userSpaceOnUse"
       gradientTransform="matrix(0.38111406,0,0,0.38111406,-147.09167,-21.209618)"
       x1="466.89359"
       y1="475.49548"
       x2="1404.4065"
       y2="195.51314" />
    <linearGradient
       xlink:href="#linearGradient10986-8"
       id="linearGradient12309-5-3"
       gradientUnits="userSpaceOnUse"
       x1="1181.7125"
       y1="252.36546"
       x2="861.3941"
       y2="436.60165"
       gradientTransform="matrix(0.38111406,0,0,0.38111406,-147.09167,-19.99042)" />
    <linearGradient
       id="linearGradient10986-8">
      <stop
         style="stop-color:#7e5af0;stop-opacity:1"
         offset="0"
         id="stop10982-3" />
      <stop
         style="stop-color:#7c61ee;stop-opacity:1"
         offset="0.49538255"
         id="stop136405" />
      <stop
         style="stop-color:#4c6fe2;stop-opacity:1"
         offset="1"
         id="stop10984-0" />
    </linearGradient>
    <linearGradient
       xlink:href="#linearGradient4685-3-7"
       id="linearGradient4551-1-0"
       x1="1112.811"
       y1="69.067085"
       x2="89.147026"
       y2="487.89313"
       gradientUnits="userSpaceOnUse"
       gradientTransform="matrix(0.37898476,0.04023024,-0.04023024,0.37898476,-114.23264,-7.2986572)" />
    <linearGradient
       id="linearGradient4685-3-7">
      <stop
         style="stop-color:#60a5fa;stop-opacity:1"
         offset="0"
         id="stop4681-8-9" />
      <stop
         style="stop-color:#365fd8;stop-opacity:1"
         offset="0.23215981"
         id="stop17498" />
      <stop
         style="stop-color:#3b82f6;stop-opacity:1"
         offset="0.43870947"
         id="stop26809-5" />
      <stop
         style="stop-color:#4d4eeb;stop-opacity:1"
         offset="0.65562975"
         id="stop12917" />
      <stop
         style="stop-color:#60a5fa;stop-opacity:1"
         offset="1"
         id="stop4683-5-5" />
    </linearGradient>
    <linearGradient
       xlink:href="#linearGradient29544"
       id="linearGradient24274-5"
       gradientUnits="userSpaceOnUse"
       gradientTransform="matrix(0.37898476,0.04023025,-0.04023025,0.37898476,-114.23264,-7.2986572)"
       x1="132.10901"
       y1="575.51141"
       x2="1068.3112"
       y2="320.25305" />
    <linearGradient
       xlink:href="#linearGradient4477-4"
       id="linearGradient118139"
       x1="100.59962"
       y1="115.7887"
       x2="345.10434"
       y2="-9.8373604"
       gradientUnits="userSpaceOnUse"
       gradientTransform="matrix(1.0371129,0,0,1.0371129,-81.313484,31.381817)" />
    <linearGradient
       id="linearGradient4477-4">
      <stop
         style="stop-color:#8b5cf6;stop-opacity:1"
         offset="0"
         id="stop4473-7" />
      <stop
         style="stop-color:#5151dc;stop-opacity:1"
         offset="0.25152168"
         id="stop55155" />
      <stop
         style="stop-color:#3b82f6;stop-opacity:1"
         offset="0.44539982"
         id="stop41682" />
      <stop
         style="stop-color:#8b5cf6;stop-opacity:1"
         offset="0.63944036"
         id="stop94918" />
      <stop
         style="stop-color:#60a5fa;stop-opacity:1"
         offset="0.83593452"
         id="stop98531" />
      <stop
         style="stop-color:#60a5fa;stop-opacity:1"
         offset="1"
         id="stop4475-0" />
    </linearGradient>
    <linearGradient
       xlink:href="#linearGradient25627"
       id="linearGradient161031"
       x1="-12.419965"
       y1="169.75165"
       x2="373.66388"
       y2="-5.8339572"
       gradientUnits="userSpaceOnUse"
       gradientTransform="matrix(1.0371129,0,0,1.0371129,-81.313484,24.805774)" />
  </defs>
  <rect
     style="fill:#1b1e20;fill-opacity:1;stroke:none;stroke-width:0.144918;stroke-linecap:round;stroke-linejoin:round;paint-order:stroke fill markers;stop-color:#000000"
     id="rect3074-7"
     width="285.75003"
     height="270.93332"
     x="0"
     y="0" />
  <path
     id="path145852"
     style="fill:url(#linearGradient161031);fill-opacity:1;stroke:none;stroke-width:0.100836px;stroke-linecap:butt;stroke-linejoin:miter;stroke-opacity:1"
     d="m 298.35227,13.710844 c -56.30762,7.080743 -52.26799,80.116017 -104.05387,88.465596 -34.42551,1.93333 -45.35354,-8.811021 -71.54784,-2.215989 -31.201322,7.855669 -49.819583,36.260439 -76.480136,38.825189 -28.556147,2.74706 -61.033452,-11.6048 -92.004796,3.13929 -19.229514,9.15433 -28.196714,32.54868 -39.447014,49.27721 v 21.3933 c 25.233061,-14.46705 47.135143,-36.59434 65.344844,-42.36253 18.5596017,-5.87903 37.619113,-2.4282 57.036127,-1.95888 17.100633,0.41332 34.871117,-11.44728 52.507948,-12.61824 35.260467,-2.34118 73.369787,6.70565 107.926587,1.06117 33.54026,-5.47842 57.32352,-32.61279 88.93332,-40.62127 3.83448,-0.97148 7.77474,-1.53482 11.78483,-1.82917 z" />
  <path
     id="path3392-0"
     style="fill:none;stroke:url(#linearGradient118139);stroke-width:0.100836px;stroke-linecap:butt;stroke-linejoin:miter;stroke-opacity:1"
     d="m 21.074637,164.95903 c 0,0 29.23838,-4.76191 43.879759,-7.0009 21.004783,-3.21209 42.264294,-4.93687 63.075354,-9.22853 20.8015,-4.2897 41.81414,-8.6272 61.55212,-16.47045 25.51497,-10.13883 47.30911,-28.16187 72.47975,-39.127642 11.70046,-5.097389 36.26246,-12.287807 36.26246,-12.287807 M 20.451156,164.39034 c 0,0 29.491612,-4.70185 44.228665,-7.1068 21.001349,-3.42723 42.167969,-5.9954 62.978709,-10.43558 20.84404,-4.44729 42.09245,-8.2161 61.85245,-16.20326 25.35216,-10.24758 46.66917,-28.76964 71.51318,-40.194191 12.0356,-5.534594 37.33232,-13.626636 37.33232,-13.626636 M 19.827664,163.82164 c 0,0 29.745933,-4.63942 44.576616,-7.2114 21.00358,-3.6425 42.06594,-7.05016 62.88289,-11.64064 20.88628,-4.60579 42.3729,-7.80294 62.15288,-15.93935 25.1886,-10.36122 46.00809,-29.398025 70.52176,-41.268145 12.3619,-5.985935 38.37982,-14.994028 38.37982,-14.994028 M 19.204162,163.25289 c 0,0 30.001353,-4.57475 44.923645,-7.3147 21.011482,-3.85801 41.958363,-8.10125 62.788003,-12.84385 20.92817,-4.76503 42.65689,-7.38439 62.45334,-15.6786 25.05144,-10.4959 45.36423,-30.101327 69.57128,-42.420299 12.71193,-6.469096 39.51249,-16.423834 39.51249,-16.423834 M 18.580681,162.68421 c 0,0 30.257852,-4.50806 45.269729,-7.41682 21.024975,-4.07386 41.84528,-9.14882 62.69402,-14.04527 20.96971,-4.92486 42.94159,-6.96755 62.75383,-15.42083 24.88563,-10.61795 44.65795,-30.76167 68.52753,-43.500507 13.01646,-6.946676 40.50784,-17.84024 40.50784,-17.84024 M 17.95719,162.11551 c 0,0 30.515408,-4.43949 45.614911,-7.51775 21.043996,-4.29013 41.726799,-10.19301 62.600999,-15.24505 21.01089,-5.08515 43.22972,-6.54595 63.05425,-15.1659 C 213.9721,113.42748 233.19246,92.698358 256.74747,79.536784 270.0878,72.082752 298.3262,60.22486 298.3262,60.22486 M 17.333698,161.54677 c 0,0 30.774013,-4.36922 45.959191,-7.61758 21.068493,-4.50692 41.603001,-11.23396 62.508901,-16.44333 21.0517,-5.2457 43.52037,-6.12186 63.35464,-14.91351 24.61225,-10.9095 43.26153,-32.244002 66.50875,-45.821418 13.66191,-7.979173 42.65725,-20.813321 42.65725,-20.813321 M 16.710217,160.97807 c 0,0 31.033623,-4.29744 46.302559,-7.71643 21.098382,-4.7243 41.473924,-12.27194 62.417704,-17.64033 21.09218,-5.40642 43.81349,-5.69565 63.65507,-14.66345 24.48815,-11.06792 42.54703,-33.025264 65.49375,-47.011571 13.98009,-8.521034 43.74206,-22.340356 43.74206,-22.340356 M 16.086715,160.40939 c 0,0 31.294197,-4.22433 46.645013,-7.81437 21.133572,-4.94243 41.339602,-13.30723 62.327352,-18.83628 21.13233,-5.56714 44.10894,-5.26762 63.95557,-14.4153 24.37175,-11.23339 41.82069,-33.827099 64.47394,-48.214645 14.29288,-9.077704 44.82875,-23.887292 44.82875,-23.887292 M 15.463203,159.84065 c 0,0 31.555715,-4.15005 46.986514,-7.91149 21.173997,-5.16141 41.200033,-14.34015 62.237773,-20.03151 21.1722,-5.72775 44.40665,-4.83799 64.25625,-14.16868 24.26428,-11.40587 41.08455,-34.648579 63.45318,-49.430093 14.60085,-9.648448 45.92139,-25.450419 45.92139,-25.450419 M 14.839732,159.27195 c 0,0 31.818105,-4.07476 47.327091,-8.00783 21.219538,-5.38125 41.055377,-15.37062 62.149027,-21.22593 21.21175,-5.8881 44.6943,-4.43255 64.557,-13.92369 23.85504,-11.39882 39.93621,-34.833396 61.71878,-49.817261 14.54706,-10.006667 45.80908,-26.594738 45.80908,-26.594738 l 0.96297,-0.646993 0.96296,-0.647003 M 14.21624,158.70323 c 0,0 32.081418,-3.99846 47.66686,-8.10317 21.270211,-5.60187 40.90593,-16.39818 62.06135,-22.41907 21.251,-6.0481 45.0088,-3.97456 64.85749,-13.68095 24.0752,-11.77323 39.57866,-36.346547 61.40148,-51.902536 15.19864,-10.834065 48.11843,-28.635579 48.11843,-28.635579 M 13.592738,158.13454 c 0,0 32.345436,-3.92172 48.005478,-8.19835 21.325717,-5.82387 40.750934,-17.42503 61.973854,-23.61301 21.2902,-6.2076 45.31256,-3.54183 65.15896,-13.43763 23.99273,-11.96323 38.81257,-37.207625 60.37681,-53.137254 15.48598,-11.439573 49.21813,-30.227298 49.21813,-30.227298 M 12.969247,157.56582 c 0,0 32.610117,-3.84461 48.342964,-8.2933 21.386005,-6.04719 40.590519,-18.451 61.886619,-24.80755 21.32936,-6.36647 45.61774,-3.10892 65.4613,-13.19386 23.91652,-12.154911 38.03782,-38.067591 59.35237,-54.35967 15.76329,-12.048908 50.31198,-31.805982 50.31198,-31.805982 M 12.345776,156.99712 c 0,0 32.87539,-3.76728 48.679259,-8.38813 21.450958,-6.27198 40.424605,-19.47644 61.799485,-26.003 21.36857,-6.52466 45.92418,-2.67605 65.76471,-12.94934 C 212.43645,97.308719 225.84605,70.731757 246.92086,54.088055 262.95227,41.427354 298.32413,20.72042 298.32413,20.72042 M 11.722253,156.42841 c 0,0 33.141213,-3.68992 49.01435,-8.48296 21.520487,-6.49832 40.253187,-20.50161 61.712357,-27.19964 21.40794,-6.68202 46.23171,-2.24337 66.06935,-12.70364 23.78435,-12.541346 36.47071,-39.776003 57.31574,-56.760262 16.29008,-13.27294 52.49117,-34.907239 52.49117,-34.907239 M 11.098783,155.85971 c 0,0 33.407491,-3.61265 49.348144,-8.57786 21.594485,-6.72628 40.076203,-21.52676 61.625103,-28.39763 21.44752,-6.83854 46.54012,-1.8111 66.37537,-12.45649 23.72646,-12.733764 35.67944,-40.61586 56.30353,-57.928873 16.53813,-13.883032 53.57132,-36.419049 53.57132,-36.419049 M 10.475281,155.29098 c 0,0 33.674195,-3.5356 49.680653,-8.67291 21.672828,-6.95595 39.893576,-22.55217 61.537596,-29.59727 21.48742,-6.99412 46.84927,-1.3793 66.68298,-12.20756 C 212.05098,91.888093 223.2625,63.368878 243.67579,45.73828 260.45295,31.248143 298.32452,7.837767 298.32452,7.837767 M 9.8517996,154.72228 c 0,0 33.9412314,-3.45894 50.0117934,-8.76822 21.755444,-7.1874 39.705286,-23.57797 61.449717,-30.79864 21.52775,-7.14871 47.15901,-0.9481 66.99231,-11.95663 C 211.93194,90.084927 222.39517,60.942905 242.60597,43.006898 259.61154,27.91536 298.32288,3.6607119 298.32288,3.6607119 M 9.2283185,154.15356 c 0,0 34.2085365,-3.38278 50.3415225,-8.86382 21.84223,-7.4207 39.511315,-24.60444 61.361399,-32.002 21.56854,-7.30225 47.46915,-0.51752 67.30348,-11.70344 C 211.81707,88.284634 221.52705,58.534501 241.54428,40.304898 258.76881,24.618596 298.3231,-0.44879615 298.3231,-0.44879615 M 8.6048269,153.58486 c 0,0 34.4760601,-3.30721 50.6698411,-8.95978 21.933061,-7.6559 39.311578,-25.63171 61.272452,-33.20746 21.60995,-7.4547 47.77963,-0.0875 67.61667,-11.447783 23.5415,-13.481649 32.49475,-43.823164 52.32652,-62.334209 17.43374,-16.272706 57.83214,-42.1197267 57.83214,-42.1197267 M 7.981325,153.01617 c 0,0 34.743739,-3.23237 50.996698,-9.05615 22.027863,-7.89306 39.106105,-26.65991 61.182877,-34.41513 21.65204,-7.60602 48.09031,0.34176 67.93199,-11.189506 23.50334,-13.659296 31.69784,-44.57447 51.35194,-63.354769 17.63361,-16.849642 58.87685,-43.4420047 58.87685,-43.4420047 M 7.3578335,152.44745 c 0,0 35.0114895,-3.15832 51.3220405,-9.15296 22.126565,-8.13221 38.894896,-27.6892 61.092606,-35.62515 21.69488,-7.756161 48.40113,0.77058 68.24953,-10.928409 23.46742,-13.832099 30.90262,-45.30244 50.38654,-64.339871 17.82458,-17.416112 59.91301,-44.718711 59.91301,-44.718711 M 6.7343316,151.87874 c 0,0 35.2792934,-3.08516 51.6458784,-9.25026 22.229022,-8.37338 38.677892,-28.7197 61.00149,-36.83759 21.73853,-7.905132 48.71201,1.19892 68.5694,-10.664422 23.43313,-13.999583 30.10969,-46.005717 49.43039,-65.288114 18.00689,-17.971196 60.93983,-45.948302 60.93983,-45.948302 M 6.1108504,151.31003 c 0,0 35.5470546,-3.013 51.9681716,-9.34805 22.335191,-8.61664 38.45512,-29.75147 60.909508,-38.05251 21.78309,-8.052896 49.02292,1.62687 68.89166,-10.397476 23.39987,-14.161362 29.31955,-46.683273 48.48339,-66.198533 18.18078,-18.5141555 61.9566,-47.12976 61.9566,-47.12976 M 5.4873589,150.74133 c 0,0 35.8147341,-2.94188 52.2889091,-9.44639 22.444949,-8.86197 38.226602,-30.7846 60.816602,-39.27 21.82864,-8.199406 49.33383,2.05463 69.21643,-10.127409 23.36765,-14.317334 28.53339,-47.335275 47.5468,-67.071627 18.34713,-19.0447215 62.96484,-48.262785 62.96484,-48.262785 M 4.863857,150.17258 c 0,0 36.082278,-2.87185 52.60807,-9.54522 22.558243,-9.10939 37.992391,-31.81913 60.722783,-40.49004 21.87521,-8.344683 49.64473,2.48232 69.54367,-9.854253 23.3353,-14.466988 27.75055,-47.960072 46.61866,-67.90562 18.50545,-19.5621792 63.96137,-49.346921 63.96137,-49.346921 M 4.2403655,149.60389 c 0,0 36.3496455,-2.80303 52.9256345,-9.64466 22.67497,-9.35895 37.752444,-32.85517 60.62792,-41.712743 21.92291,-8.488717 49.9556,2.910003 69.87353,-9.577904 23.30384,-14.610763 26.97347,-48.559845 45.7025,-68.703513 18.65769,-20.06694152 64.95149,-50.382851 64.95149,-50.382851 M 3.6168947,149.03519 c 0,0 36.6167743,-2.73543 53.2416113,-9.74463 22.795047,-9.61061 37.506898,-33.89263 60.532104,-42.937986 21.97172,-8.631497 50.26649,3.337927 70.20595,-9.298444 23.27164,-14.748077 26.20041,-49.132508 44.79464,-69.463001 18.80268,-20.5583983 65.92981,-51.370794 65.92981,-51.370794" />
  <path
     id="path22726-4"
     style="font-variation-settings:normal;vector-effect:none;fill:none;fill-opacity:1;stroke:url(#linearGradient24274-5);stroke-width:0.302507;stroke-linecap:butt;stroke-linejoin:miter;stroke-miterlimit:4;stroke-dasharray:none;stroke-dashoffset:0;stroke-opacity:1;stop-color:#000000"
     d="m -83.367527,224.05935 c 20.717813,-5.35494 42.918542,-36.89604 65.628006,-40.28904 26.7948387,-4.00338 48.613412,18.94987 76.383687,19.47982 45.998554,0.87788 68.033414,-46.08881 124.269494,-13.72931 24.48833,14.09114 66.1863,1.70019 88.97564,-25.81097 m -355.481082,59.87059 c 20.502975,-5.49736 42.466662,-37.53474 65.404674,-40.82277 26.6953694,-3.88771 48.924868,18.84113 76.975059,19.11161 45.382219,0.71574 67.655619,-45.33251 123.109499,-13.85627 24.67183,13.66405 65.54791,1.55446 88.64701,-25.18489 m -354.360497,60.27341 c 20.288127,-5.63977 42.014792,-38.1735 65.181343,-41.3565 26.5959405,-3.77204 49.236354,18.73244 77.56641,18.74333 44.765914,0.55365 67.277864,-44.57617 121.949534,-13.98319 24.85525,13.23697 64.90949,1.40873 88.31835,-24.55877 m -353.239892,60.67622 c 20.073299,-5.78219 41.562922,-38.81224 64.95799,-41.89024 26.4965233,-3.65631 49.54782,18.62377 78.157793,18.37513 44.149589,0.39148 66.900099,-43.8199 120.789539,-14.11011 25.03871,12.80984 64.27118,1.26291 87.98976,-23.93274 m -352.119347,61.07906 c 19.858461,-5.92458 41.111062,-39.45098 64.734668,-42.42399 26.3971059,-3.54061 49.859307,18.51507 78.749155,18.00695 43.533294,0.22931 66.522314,-43.06363 119.629584,-14.23705 25.22216,12.3827 63.63276,1.11713 87.66106,-23.30673 m -350.998722,61.48191 c 19.643623,-6.06699 40.659181,-40.08972 64.511326,-42.95777 26.2976673,-3.42492 50.170751,18.40644 79.340537,17.63874 42.916939,0.0671 66.144549,-42.30729 118.469579,-14.36399 25.40559,11.95562 62.99439,0.97141 87.33238,-22.68059 m -349.878077,61.8847 c 19.428775,-6.20936 40.207311,-40.72845 64.287994,-43.49147 26.1982602,-3.30928 50.482217,18.29768 79.931899,17.27048 42.300644,-0.0949 65.766794,-41.55099 117.309614,-14.49094 25.58905,11.52852 62.35601,0.82568 87.00374,-22.05453 m -348.757502,62.28754 c 19.213937,-6.35177 39.755441,-41.36718 64.064662,-44.02522 26.0988116,-3.19355 50.793694,18.18902 80.52324,16.90226 41.68434,-0.25702 65.38902,-40.79467 116.14964,-14.61782 25.77252,11.10136 61.71764,0.67989 86.67507,-21.42848 m -347.636877,62.69036 c 18.999109,-6.4942 39.303571,-42.00591 63.84133,-44.55896 25.9993835,-3.07784 51.105159,18.08029 81.114602,16.53405 41.068005,-0.41919 65.011225,-40.03841 114.989665,-14.74477 25.95597,10.67426 61.07925,0.53414 86.34643,-20.80244 m -346.312116,63.01993 c 18.72554,-6.8237 38.737245,-42.58022 63.413843,-45.01942 25.8999654,-2.96217 51.416614,17.97159 81.705922,16.16583 40.451711,-0.58136 64.633511,-39.28211 113.829721,-14.87174 26.13941,10.24718 60.44086,0.3884 86.01775,-20.1763 m -344.967257,63.33445 c 18.446173,-7.17657 38.163535,-43.13988 62.966267,-45.46486 25.8005372,-2.84647 51.7281,17.8629 82.297294,15.79756 39.835371,-0.74343 64.255756,-38.52578 112.669736,-14.99862 26.32286,9.82004 59.8025,0.24263 85.68914,-19.55031 m -343.622396,63.64038 c 18.166817,-7.53451 37.594005,-43.69013 62.518628,-45.90168 25.7010996,-2.73079 52.039577,17.75421 82.888666,15.42937 39.219089,-0.90558 63.878002,-37.76948 111.509722,-15.12558 26.50632,9.39293 59.16414,0.097 85.36054,-18.92423 M -85.181127,217.9477 c 17.887387,-7.89781 37.02854,-44.23048 62.070513,-46.32916 25.60165,-2.61508 52.351053,17.6455 83.480027,15.06114 38.602763,-1.06773 63.500227,-37.01316 110.349757,-15.25248 26.68978,8.96578 58.52571,-0.0491 85.03185,-18.29817 m -340.932447,64.22425 c 17.608341,-8.26512 36.468042,-44.76083 61.623205,-46.74741 25.5022536,-2.4994 52.66254,17.53681 84.071421,14.69294 37.986407,-1.22983 63.122421,-36.25689 109.189811,-15.37943 26.87318,8.53868 57.88731,-0.19466 84.70313,-17.67207 m -339.587671,64.50131 c 17.329451,-8.63726 35.912056,-45.28023 61.175733,-47.15538 25.4028147,-2.38372 52.973994,17.42811 84.662772,14.32467 37.370081,-1.39193 62.744656,-35.50053 108.029796,-15.50636 27.05666,8.11162 57.24895,-0.34034 84.37452,-17.04602 m -338.242821,64.76761 c 17.0508,-9.01389 35.360852,-45.78808 60.728135,-47.55256 25.30337717,-2.26802 53.285492,17.31944 85.254145,13.95647 36.753767,-1.55409 62.366901,-34.74426 106.869831,-15.63327 27.24012,7.68446 56.61061,-0.48619 84.04586,-16.41999 m -336.898064,65.02264 c 16.772532,-9.39479 34.814677,-46.28393 60.280642,-47.93851 25.20395871,-2.15231 53.596947,17.21076 85.845495,13.58827 36.137432,-1.71625 61.989117,-33.98794 105.709857,-15.76021 27.42355,7.25734 55.9722,-0.63193 83.71718,-15.7939 m -335.55332,65.26566 c 16.494711,-9.77963 34.273709,-46.76696 59.83319,-48.31245 25.10455226,-2.03665 53.908424,17.10204 86.436858,13.22002 35.521158,-1.87836 61.611382,-33.23165 104.549872,-15.88712 27.60701,6.83022 55.33385,-0.7777 83.38854,-15.16788 m -334.208418,65.49603 c 16.217345,-10.16845 33.737988,-47.23649 59.385551,-48.67369 25.00511369,-1.92098 54.2199,16.99334 87.028219,12.85179 34.904803,-2.04049 61.233618,-32.47537 103.389908,-16.01408 27.79042,6.40316 54.69543,-0.92344 83.0599,-14.54176 m -332.86336,65.71281 c 15.94057,-10.56097 33.207743,-47.69163 58.937736,-49.0214 24.9056647,-1.80529 54.531365,16.88461 87.619581,12.48354 34.288508,-2.20262 60.855863,-31.71902 102.229943,-16.14098 27.97391,5.976 54.05709,-1.0692 82.73122,-13.91571 m -331.518532,65.91569 c 15.664574,-10.95644 32.683368,-48.13195 58.490201,-49.35523 24.806268,-1.68955 54.842841,16.77599 88.210922,12.11541 33.672214,-2.3648 60.478099,-30.96276 101.069989,-16.26797 28.15736,5.54891 53.41867,-1.21496 82.40259,-13.28963 m -330.173609,66.10355 c 15.389366,-11.35491 32.164885,-48.55635 58.042521,-49.67399 24.7068091,-1.57388 55.154307,16.66727 88.802315,11.74716 33.055869,-2.5269 60.100303,-30.20646 99.909983,-16.39486 28.3408,5.12178 52.7803,-1.36076 82.0739,-12.66362 m -328.82904,66.27602 c 15.115215,-11.75557 31.652758,-48.96434 57.595245,-49.97737 24.6073809,-1.45817 55.465783,16.5586 89.393656,11.37895 32.439595,-2.68905 59.722569,-29.45013 98.750039,-16.52178 28.52424,4.69465 52.1419,-1.5065 81.74524,-12.03752 m -327.484056,66.43145 c 14.842019,-12.15871 31.146855,-49.35437 57.147524,-50.26375 24.5079838,-1.34248 55.777259,16.4499 89.985028,11.01067 31.823239,-2.85113 59.344794,-28.69376 97.590044,-16.64868 28.70773,4.2676 51.50353,-1.65225 81.41662,-11.41147 m -326.138874,66.5692 c 14.569974,-12.56362 30.647485,-49.72559 56.699595,-50.53237 24.4085352,-1.22677 56.088746,16.34121 90.57638,10.64247 31.206945,-3.01327 58.967049,-27.93752 96.430059,-16.77563 28.89115,3.84046 50.86522,-1.798 81.08799,-10.7854 m -324.794376,66.689 c 14.299474,-12.96915 30.155312,-50.07781 56.25235,-50.7831 24.3091174,-1.11107 56.400201,16.23255 91.167752,10.27429 30.590588,-3.17546 58.589234,-27.18122 95.270084,-16.90258 29.07461,3.41332 50.22679,-1.94379 80.75932,-10.15934 M -85.181936,208.4556 c 14.030447,-13.37535 29.670203,-50.4093 55.805034,-51.01419 24.2096786,-0.9954 56.711677,16.12384 91.759103,9.90603 29.974294,-3.33753 58.211469,-26.42488 94.110089,-17.02948 29.25807,2.98626 49.58842,-2.08954 80.43069,-9.53327 m -322.104241,66.86784 c 13.762851,-13.78228 29.192145,-50.71807 55.356761,-51.22375 24.1102618,-0.8797 57.023112,16.01514 92.350476,9.5378 29.35799,-3.49968 57.833714,-25.66859 92.950124,-17.15644 29.4415,2.55917 48.95004,-2.23527 80.10201,-8.90718 m -320.759911,66.92598 c 13.497423,-14.18764 28.722199,-51.00514 54.909704,-51.4128 24.0108232,-0.76402 57.334609,15.9064 92.941837,9.1696 28.741655,-3.66184 57.45596,-24.91232 91.79019,-17.2834 29.62496,2.13204 48.31162,-2.38101 79.7733,-8.28112 m -319.414969,66.96059 c 13.233903,-14.59213 28.259979,-51.26738 54.462055,-51.57832 23.9113954,-0.64835 57.646075,15.79773 93.53322,8.80133 28.12533,-3.82393 57.078174,-24.15598 90.630154,-17.41028 29.80841,1.70492 47.67329,-2.5268 79.44468,-7.65504 m -318.070088,66.97111 c 12.972613,-14.9944 27.805993,-51.50424 54.014437,-51.71978 23.8119672,-0.53265 57.957572,15.68902 94.124571,8.43314 27.509005,-3.98603 56.70042,-23.39969 89.4702,-17.53726 29.99184,1.27784 47.03489,-2.6725 79.11602,-7.02896 M -85.181624,204.2139 c 12.71379,-15.39379 27.36049,-51.7142 53.566746,-51.83573 23.7125597,-0.41693 58.269027,15.58038 94.715933,8.06491 26.892711,-4.14819 56.322665,-22.64336 88.310225,-17.66414 30.17531,0.85071 46.39654,-2.8183 78.7874,-6.40294 m -315.380294,66.91457 c 12.457665,-15.78923 26.923824,-51.89611 53.11916,-51.92504 23.6130898,-0.30124 58.580502,15.47166 95.307284,7.69668 26.276375,-4.31035 55.94487,-21.88705 87.15025,-17.79108 30.35875,0.42359 45.75817,-2.96407 78.45873,-5.77684 m -314.035455,66.84498 c 12.204495,-16.17983 26.496264,-52.04852 52.671593,-51.98638 23.5136937,-0.18558 58.891969,15.36296 95.898626,7.32847 25.660081,-4.47246 55.567146,-21.13076 85.990316,-17.91802 30.54218,-0.001 45.11974,-3.1098 78.13004,-5.1508 m -312.690752,66.74615 c 11.954531,-16.56446 26.078132,-52.17014 52.224184,-52.01845 23.4142441,-0.0697 59.203465,15.25427 96.489976,6.96024 25.043767,-4.63457 55.189412,-20.37446 84.830322,-18.04497 30.72565,-0.43063 44.48141,-3.25555 77.80143,-4.5247 m -311.346036,66.61638 c 11.707999,-16.94213 25.669685,-52.25918 51.77671,-52.01961 23.314838,0.0458 59.514911,15.14555 97.081349,6.59201 24.427483,-4.79673 54.811647,-19.61816 83.670337,-18.17185 30.90909,-0.85777 43.84303,-3.40136 77.47276,-3.89868 m -310.000855,66.45368 c 11.465117,-17.31181 25.271133,-52.3136 51.328823,-51.98779 23.215388,0.16155 59.826396,15.03688 97.672741,6.22377 23.811106,-4.95888 54.433821,-18.86183 82.510321,-18.29879 31.09257,-1.28488 43.20464,-3.54713 77.14411,-3.2726 m -308.657789,66.26044 c 11.226664,-17.67105 24.883366,-52.33579 50.883019,-51.92548 23.115982,0.27722 60.137863,14.92816 98.264093,5.85556 23.194792,-5.12098 54.056057,-18.10552 81.350397,-18.42573 31.27599,-1.71199 42.56623,-3.69285 76.81547,-2.64654 M -85.184093,197.1159 c 10.992298,-18.02012 24.505868,-52.3192 50.436087,-51.82628 23.016532,0.39291 60.449328,14.81955 98.855434,5.48736 22.578507,-5.28312 53.678322,-17.34923 80.190412,-18.55268 31.45946,-2.13909 41.92789,-3.83861 76.48679,-2.02044 M -85.18261,195.9638 c 10.762193,-18.35791 24.138793,-52.26047 49.987006,-51.68682 22.917146,0.50861 60.760826,14.7108 99.446807,5.11912 21.962182,-5.44523 53.300537,-16.59295 79.030437,-18.6796 31.64288,-2.5662 41.2895,-3.98437 76.15815,-1.39442" />
  <path
     id="path2997-1-4"
     style="fill:url(#linearGradient4551-1-0);fill-opacity:1;stroke:none;stroke-width:0.100836px;stroke-linecap:butt;stroke-linejoin:miter;stroke-opacity:1"
     d="m 298.35227,15.562371 c -56.30762,7.080732 -52.26799,78.897109 -104.05387,87.246689 -34.42551,1.93332 -45.35354,-7.552227 -71.54784,-0.9572 -31.201322,7.85568 -49.819583,35.00166 -76.480136,37.56641 -28.556147,2.74705 -61.033452,-11.06004 -92.004796,3.68408 -19.229514,9.15432 -28.196714,32.46889 -39.447014,49.19742 v 22.78829 c 25.233061,-14.46705 47.135143,-36.59434 65.344844,-42.36253 18.5596017,-5.87903 37.619113,-2.42821 57.036127,-1.95888 17.100633,0.41332 34.871117,-11.44728 52.507948,-12.61824 35.260467,-2.34118 73.369787,6.70565 107.926587,1.06117 33.54026,-5.47842 57.32352,-32.6128 88.93332,-40.62129 3.83448,-0.97147 7.77474,-1.53482 11.78483,-1.82917 z" />
  <path
     id="path6969-8-0"
     style="fill:url(#linearGradient12309-5-3);fill-opacity:1;stroke:none;stroke-width:0.100836px;stroke-linecap:butt;stroke-linejoin:miter;stroke-opacity:1"
     d="m 298.35246,64.764811 c -35.05795,4.658722 -52.74789,18.844891 -74.41709,48.538539 -25.72008,35.24461 -73.62733,21.49907 -73.62733,21.49907 l 56.53638,19.94505 91.50804,-16.65843 z" />
  <path
     id="path3305-3"
     style="fill:none;fill-opacity:1;stroke:url(#linearGradient6948-2);stroke-width:0.100836px;stroke-linecap:butt;stroke-linejoin:miter;stroke-opacity:1"
     d="m 29.206898,154.90959 c 8.347235,0.76801 29.950991,-0.41282 38.134694,-3.20591 41.619168,-20.2596 57.173958,-43.30694 104.621798,-29.53893 53.20203,15.43772 71.53435,-57.029306 126.46675,-65.052359 M 28.906841,171.22054 c 0,0 19.293992,-0.9529 46.314817,-2.57343 47.719242,-3.36203 62.356962,-2.47363 114.544572,11.69355 35.87847,9.73981 74.2777,-37.01368 108.67604,-43.19931 M 28.917191,170.65811 c 0.287851,0.0265 19.661473,-0.9343 46.032723,-2.59526 47.487666,-4.00237 62.308036,-3.89219 114.202466,10.27171 36.23152,9.88892 74.57978,-36.94303 109.29273,-43.50987 M 28.927542,170.09565 c 0.575691,0.0533 20.028942,-0.91567 45.750659,-2.61702 47.255149,-4.64114 62.254019,-5.31737 113.860239,8.84986 36.58983,10.04485 74.88253,-36.90225 109.90423,-43.86469 M 28.937892,169.53319 c 0.8635,0.0793 20.396433,-0.897 45.468606,-2.63886 46.982042,-5.27912 62.256892,-6.73211 113.518072,7.42813 36.95405,10.20808 75.18557,-36.89451 110.51018,-44.26544 M 28.948242,168.97076 c 1.15131,0.10592 20.763913,-0.87841 45.186501,-2.66066 46.761147,-5.91724 62.185387,-8.17312 113.175907,6.00624 37.32971,10.38059 75.4997,-36.92532 111.12619,-44.71698 M 28.958562,168.40832 c 1.439212,0.13248 21.131424,-0.85981 44.904447,-2.68247 46.549961,-6.55409 62.098641,-9.62443 112.833811,4.58445 37.71653,10.56288 75.82212,-36.99879 111.74848,-45.22048 M 28.968943,167.84586 c 1.727001,0.15886 21.498884,-0.84114 44.622332,-2.70425 46.317885,-7.17431 61.987185,-11.08903 112.491625,3.16266 38.1131,10.75502 76.14718,-37.11822 112.36931,-45.77551 M 28.979283,167.28339 c 2.014841,0.1854 21.866354,-0.82249 44.34031,-2.72605 46.082627,-7.80057 61.907457,-12.55159 112.149447,1.74088 38.51812,10.95733 76.46928,-37.28771 112.98115,-46.38114 M 28.989613,166.72095 c 2.302702,0.21189 22.233875,-0.80389 44.058226,-2.74785 45.847581,-8.42321 61.818971,-14.01104 111.807311,0.319 38.9596,11.16846 76.76762,-37.50738 113.58554,-47.03795 M 28.999974,166.15851 c 2.590511,0.23832 22.601303,-0.78525 43.776151,-2.76968 45.613015,-9.04184 61.726315,-15.48466 111.465075,-1.10277 39.49392,11.4196 76.99124,-37.76961 114.18415,-47.74621 m -269.415016,51.0562 c 2.878362,0.26485 22.968795,-0.76665 43.494057,-2.79149 45.379259,-9.65638 61.629529,-16.97257 111.122959,-2.52458 39.97662,11.66989 77.29792,-38.12392 114.80178,-48.5118 M 29.020654,165.03362 c 3.166222,0.29132 23.336316,-0.74804 43.212014,-2.81331 45.146732,-10.26645 61.527022,-18.47137 110.780752,-3.94639 40.47913,11.93732 77.6007,-38.55548 115.41363,-49.32639 M 29.030994,164.47117 c 3.454042,0.31779 23.703775,-0.72941 42.92994,-2.83512 44.915846,-10.8717 61.419176,-19.98197 110.438626,-5.36822 41.00468,12.22438 77.90639,-39.07499 116.02664,-50.18899 M 29.041365,163.90872 c 3.741862,0.34427 24.071255,-0.71078 42.647845,-2.85694 44.68696,-11.47192 61.30576,-21.50511 110.09644,-6.79 41.55331,12.53235 78.21726,-39.69199 116.63925,-51.09506 M 29.051715,163.34628 c 4.029713,0.37076 24.438715,-0.69217 42.365772,-2.87875 44.460583,-12.06682 61.186863,-23.04188 109.754273,-8.21179 42.12458,12.86277 78.53913,-40.41703 117.25141,-52.039 M 29.062034,162.78381 c 4.317543,0.39726 24.806258,-0.67352 42.083729,-2.90053 44.237087,-12.65641 61.062437,-24.59257 109.412137,-9.63364 42.71707,13.21626 78.88051,-41.26031 117.86337,-53.013591 M 29.072395,162.22136 c 4.605393,0.42373 25.173707,-0.65492 41.801634,-2.92233 C 114.89101,146.05887 131.8063,133.14157 179.944,148.24359 223.27253,161.83685 259.19795,106.01165 298.42075,94.232891 M 29.082746,161.65895 c 4.893223,0.45022 25.541186,-0.63632 41.51956,-2.94418 43.800624,-13.81804 60.816554,-27.80032 108.727744,-12.47723 43.43765,13.89232 79.84723,-43.38955 119.08611,-55.018343 M 29.093117,161.09648 c 5.181032,0.47672 25.908656,-0.61767 41.237475,-2.96597 43.588498,-14.38996 60.675878,-29.39644 108.385618,-13.89905 44.04566,14.30718 80.24714,-44.610601 119.70625,-56.029059 M 29.103436,160.53404 c 5.468893,0.50316 26.276158,-0.59903 40.955412,-2.98778 43.380942,-14.9557 60.527002,-31.0003 108.043412,-15.32086 44.67655,14.74233 80.6755,-45.952529 120.31913,-57.024922 M 29.113776,159.97158 c 5.756744,0.5297 26.643659,-0.58041 40.673359,-3.00957 43.178295,-15.51536 60.368145,-32.60671 107.701275,-16.74265 45.3355,15.19451 81.14777,-47.408724 120.9321,-57.994867 M 29.124137,159.40914 c 6.044574,0.55617 27.011149,-0.56177 40.391243,-3.0314 42.98097,-16.06847 60.19678,-34.20882 107.35913,-18.16446 46.02705,15.65811 81.67323,-48.963084 121.54546,-58.925528 M 29.134477,158.8467 c 6.332404,0.58261 27.378619,-0.54315 40.109211,-3.05321 42.789182,-16.61538 60.004892,-35.7843 107.016952,-19.58624 46.44898,16.00403 81.58424,-50.197503 121.27892,-59.610215 0.2994,-0.06814 0.59804,-0.13581 0.89597,-0.202558 M 29.144817,158.28424 c 6.620234,0.6091 27.746109,-0.52453 39.827137,-3.07502 42.603236,-17.15577 59.516836,-36.52006 106.674796,-21.00806 51.70674,17.00824 74.12037,-50.33891 122.79357,-60.66589 M 29.155157,157.7218 c 6.908095,0.63563 28.113579,-0.5059 39.545063,-3.09684 42.42332,-17.68957 59.17375,-37.71713 106.33263,-22.42989 51.98746,16.85248 73.75238,-51.537313 123.40772,-61.482489 M 29.165528,157.15935 c 7.195883,0.66208 28.481028,-0.48727 39.262989,-3.11862 C 110.67813,135.82386 127.24026,115.15012 174.419,130.189 226.68786,146.85046 247.74582,77.488703 298.43593,67.926045 M 29.175837,156.5969 c 7.483765,0.68857 28.84855,-0.4687 38.980915,-3.14044 C 110.23903,134.71893 126.58663,113.42041 173.80505,128.18294 226.34429,144.609 246.68767,74.348077 298.4431,65.171961 M 29.186208,156.03445 c 7.771595,0.71508 29.21601,-0.45004 38.698831,-3.16223 C 109.80642,133.62064 125.9149,111.71591 173.19114,126.17687 225.97428,142.32232 245.616,71.243718 298.43228,62.454684 M 29.196548,155.47198 c 8.059425,0.74154 29.583521,-0.43138 38.416767,-3.18403 41.767025,-19.75889 57.610295,-42.24457 104.963955,-28.11713 53.00741,15.8142 71.98119,-56.003148 125.86627,-64.404654" />
  <path
     id="path2985-6-5"
     style="fill:url(#linearGradient4479-5-19);fill-opacity:1;stroke:none;stroke-width:0.100836px;stroke-linecap:butt;stroke-linejoin:miter;stroke-opacity:1"
     d="m 298.35227,94.146614 c -3.85284,0.557749 -7.90829,1.289152 -12.32132,2.258998 -45.30667,9.956948 -53.36248,47.224818 -87.42838,43.795668 -16.55346,-1.66632 -52.75582,-11.87053 -69.0257,-8.81627 -27.72062,5.20385 -39.662599,22.98205 -68.057796,25.58861 -33.320436,3.05865 -54.4140264,-13.56029 -87.449598,-8.61419 -27.757601,4.15587 -43.236107,35.82901 -56.180977,51.66809 -0.989281,1.21048 -2.014954,2.33709 -3.069885,3.40003 v 11.64604 c 10.013325,-4.93664 18.504728,-9.91872 23.305483,-13.03735 68.9305262,-58.66255 58.2199294,-9.72667 111.196911,-13.11827 17.912205,-1.14675 63.197752,-35.39592 81.193752,-39.13939 37.16808,-7.73149 44.57216,18.22015 81.60377,12.21951 30.61136,-4.96036 57.7824,-22.19229 86.23374,-32.82117 z" />
  <path
     id="path2974-6-8"
     style="fill:url(#linearGradient4687-8-0);fill-opacity:1;stroke:none;stroke-width:0.100836px;stroke-linecap:butt;stroke-linejoin:miter;stroke-opacity:1"
     d="m 298.35227,119.07064 c -0.59134,0.0975 -1.18021,0.1818 -1.77503,0.29745 -22.09596,4.2959 -38.0903,19.17646 -65.2275,35.06408 -30.19353,17.67702 -73.71814,-21.50712 -103.71889,-13.98972 -30.480113,7.63751 -43.946267,33.89315 -74.179861,38.12592 -30.585621,4.28203 -49.0330387,-33.40549 -89.311683,-17.32329 -24.170953,9.65081 -32.038606,33.9321 -43.712048,45.90191 -1.850033,1.89701 -3.716048,3.60084 -5.608644,5.14613 v 13.636 c 3.083617,-1.28028 6.22218,-2.81445 9.430457,-4.65414 24.682271,-14.15317 34.652255,-44.94067 64.432133,-46.8398 16.2528967,-1.03652 35.071964,19.05059 60.00311,22.13605 33.348366,4.12723 56.657616,-27.58578 75.827886,-30.99036 39.48961,-7.01316 53.44532,21.91947 82.79624,25.18127 38.36308,4.26333 62.45633,-26.37046 91.04383,-42.42364 z" />
  <path
     id="path1152-3"
     style="opacity:0.239939;fill:#e9ebed;fill-opacity:0.491332;stroke:none;stroke-width:0.100836px;stroke-linecap:butt;stroke-linejoin:miter;stroke-opacity:1"
     d="m 298.36087,124.93975 c -27.43329,19.38044 -50.73851,66.06919 -86.47226,66.055 35.71053,1.43431 59.04174,-27.26428 86.47226,-42.6407 z m -157.69052,22.84352 c -34.34866,0.56507 -53.468088,47.24518 -88.584938,49.08755 31.528688,1.65558 53.920528,-28.0033 72.426788,-31.28995 39.48961,-7.01316 53.44534,21.91947 82.79624,25.18127 -27.51649,-3.05792 -34.15409,-43.51326 -66.63809,-42.97887 z m -153.309702,18.10201 c -29.293202,-0.35106 -50.400285,48.23485 -72.542573,56.66311 v 2.90106 c 3.025808,-1.36024 6.070336,-2.86448 9.098176,-4.52711 24.682271,-14.15319 34.985075,-44.58803 64.764953,-46.48716 16.2528967,-1.03652 35.071964,19.14599 60.00311,22.23144 -24.931146,-3.08545 -34.390778,-30.45855 -61.323666,-30.78134 z" />
  <path
     id="path4167-8"
     style="fill:url(#linearGradient14655-2);fill-opacity:1;stroke:none;stroke-width:0.100836px;stroke-linecap:butt;stroke-linejoin:miter;stroke-opacity:1"
     d="m 298.35227,145.76705 c -26.54663,16.02809 -50.5917,44.15791 -84.54339,45.17946 -0.63659,0.0297 -1.27572,0.0491 -1.92027,0.0488 1.11597,0.0449 2.21984,0.0604 3.31212,0.0477 4.36849,-0.0508 8.55182,-0.55209 12.58178,-1.41704 0.72269,-0.1551 1.43453,-0.33483 2.14753,-0.51289 0.2811,-0.0701 0.56714,-0.12839 0.84681,-0.20205 0,-1.5e-4 0,-2.8e-4 0.003,-5.5e-4 0.47472,-0.12506 0.94107,-0.27089 1.41167,-0.40571 0.50987,-0.14605 1.02388,-0.28233 1.52906,-0.43947 0.97053,-0.30194 1.93212,-0.62387 2.88602,-0.9647 0,-2.8e-4 0,-8.3e-4 0.003,-10e-4 0.95373,-0.34079 1.89965,-0.70023 2.83778,-1.07725 0,-2.7e-4 0.003,-8.2e-4 0.003,-10e-4 0.10899,-0.0438 0.21539,-0.0929 0.32423,-0.1372 0.82848,-0.3372 1.65357,-0.6828 2.47069,-1.04616 0.92348,-0.41065 1.83954,-0.83716 2.74938,-1.27876 0,-5.5e-4 0.003,-0.001 0.003,-0.002 0.85902,-0.41693 1.71189,-0.8494 2.55966,-1.29162 0.0511,-0.0268 0.10329,-0.051 0.15435,-0.0777 0.89688,-0.46976 1.78743,-0.95273 2.67273,-1.44812 0,-8.2e-4 0.003,-0.001 0.004,-0.002 0.88534,-0.49541 1.76532,-1.00314 2.64007,-1.52154 0,-8.2e-4 0.003,-0.001 0.004,-0.002 0.87466,-0.51838 1.74444,-1.04714 2.60953,-1.58586 0,-8.2e-4 0.003,-0.002 0.004,-0.003 0.86506,-0.53875 1.72515,-1.08677 2.58164,-1.6432 0,-8.2e-4 0.003,-0.002 0.004,-0.003 1.7141,-1.11366 3.41206,-2.26034 5.0979,-3.42897 0,-0.001 0.003,-0.002 0.004,-0.003 0.78476,-0.54403 1.55946,-1.10562 2.3394,-1.65821 0.89696,-0.63551 1.79925,-1.26311 2.69095,-1.90688 3.33211,-2.40565 6.63122,-4.85793 9.9305,-7.27168 0,-8.2e-4 0.003,-0.001 0.003,-0.002 0.10724,-0.0785 0.21437,-0.15478 0.32157,-0.23315 1.5444,-1.12864 3.08893,-2.25037 4.63698,-3.35232 1.65206,-1.17604 3.30795,-2.33219 4.97192,-3.45736 v -5.5e-4 c 1.344,-0.90881 2.69848,-1.78009 4.05494,-2.64327 0.32563,-0.20718 0.64685,-0.43039 0.97328,-0.63456 0.8426,-0.52691 1.6881,-1.04289 2.53715,-1.5478 0.49165,-0.29238 0.98728,-0.57215 1.48134,-0.85644 0.35974,-0.20698 0.7172,-0.42082 1.07832,-0.6233 z m -160.56154,17.06389 v 5.5e-4 c -33.40952,-0.86685 -47.73061,34.94888 -85.705318,34.03934 31.528709,1.65558 53.920528,-28.0033 72.426788,-31.28995 1.19987,-0.2131 2.37423,-0.39015 3.52811,-0.53863 0.3813,-0.049 0.74798,-0.0773 1.12442,-0.11952 0.76497,-0.0859 1.5307,-0.17243 2.27614,-0.23098 0.43308,-0.034 0.85156,-0.0484 1.27823,-0.0734 0.66743,-0.0393 1.33671,-0.0812 1.98889,-0.0992 0.44408,-0.0122 0.87584,-0.007 1.31305,-0.0104 0.61988,-0.004 1.24093,-0.008 1.8474,0.005 0.42227,0.009 0.83493,0.0345 1.2509,0.0536 0.60922,0.0278 1.21697,0.0566 1.81309,0.10236 0.39561,0.0304 0.78423,0.0707 1.17425,0.10879 0.59372,0.058 1.18473,0.11943 1.76593,0.19455 0.38016,0.0493 0.7548,0.10614 1.12977,0.1624 0.58279,0.0873 1.16197,0.17973 1.7327,0.2835 0.34637,0.0631 0.68962,0.13051 1.03169,0.19938 0.59214,0.11905 1.17863,0.24536 1.75843,0.38105 0.31042,0.0728 0.61965,0.14728 0.92665,0.22457 0.5989,0.15062 1.1912,0.30981 1.77771,0.47699 0.27214,0.0776 0.54401,0.15529 0.81357,0.23634 0.63095,0.18948 1.25445,0.38888 1.87205,0.59597 0.21246,0.0713 0.42574,0.14161 0.6367,0.21491 0.67435,0.23407 1.34037,0.47851 2.00014,0.73157 0.14659,0.0562 0.29461,0.11057 0.44054,0.16774 0.75135,0.29409 1.49366,0.60008 2.22792,0.91593 0.0475,0.0204 0.0956,0.04 0.1431,0.0606 3.13214,1.35484 6.10991,2.90063 9.01991,4.51799 0.25697,0.14295 0.51376,0.28521 0.76961,0.42929 4.7768,2.688 9.37829,5.54741 14.09477,8.13079 0.15752,0.0863 0.31703,0.16836 0.47485,0.25404 5.51923,2.99406 11.22525,5.57599 17.62932,6.97155 -23.71115,-5.38805 -34.20288,-26.30907 -64.56131,-27.09674 z M -9.9146285,173.41046 c -0.5132565,-0.0104 -1.0238175,8.2e-4 -1.5317225,0.0332 -29.779888,1.89914 -42.071034,33.60946 -66.712567,47.83344 -2.381834,1.37488 -4.731019,2.5567 -7.022468,3.59618 v 1.03974 c 0.956436,-0.39894 1.913577,-0.801 2.881235,-1.25036 0.77967,-0.3645 1.564754,-0.74074 2.3619,-1.14316 0.304776,-0.15343 0.610475,-0.31078 0.916455,-0.46949 1.078224,-0.56019 2.165201,-1.14134 3.270328,-1.77504 24.682271,-14.15315 34.652794,-44.94065 64.432672,-46.83977 12.189675,-0.7774 25.822607,10.38093 42.395236,17.31043 1.38105,0.57744 2.782262,1.12578 4.205015,1.63515 2.608806,0.934 5.298952,1.71438 8.056293,2.33028 -21.572301,-4.93256 -38.5367504,-22.0208 -53.2523765,-22.3006 z m 53.2523765,22.30058 c 0.419492,0.0959 0.839139,0.19058 1.262146,0.27708 -0.423754,-0.0849 -0.84198,-0.18322 -1.262146,-0.27708 z m 1.262146,0.27708 c 0.55917,0.11207 1.117904,0.22481 1.68339,0.3205 -0.564646,-0.097 -1.124925,-0.20628 -1.68339,-0.3205 z m 1.68339,0.3205 c 0.08421,0.0144 0.168116,0.0294 0.252433,0.0435 -0.08442,-0.0139 -0.168189,-0.0291 -0.252433,-0.0435 z m 0.252433,0.0435 c 0.71176,0.11707 1.426684,0.22525 2.148597,0.31459 -0.721467,-0.0893 -1.437075,-0.19599 -2.148597,-0.31459 z M 202.35204,189.9283 c 0.79209,0.17999 1.60023,0.34066 2.42567,0.48021 0.83201,0.13753 1.67346,0.25845 2.53073,0.35371 -1.70509,-0.18949 -3.3472,-0.48324 -4.9564,-0.83392 z" />
  <path
     id="path16839-0"
     style="fill:url(#linearGradient25349-7);fill-opacity:1;stroke:none;stroke-width:1.00836;stroke-linecap:butt;stroke-linejoin:miter;stroke-miterlimit:4;stroke-dasharray:none;stroke-opacity:1"
     d="m 298.35227,92.620782 c 0,0 -7.48406,1.339463 -11.47077,2.516254 -47.46793,14.011494 -51.12454,42.625564 -82.3214,45.384744 -13.39317,1.18455 -51.95509,-12.37311 -73.40381,-9.38705 -27.69574,3.85576 -42.052118,21.91696 -66.270831,25.31304 -29.823156,4.18196 -60.6283753,-14.82225 -94.25588,-8.13586 -26.220257,5.21356 -36.725858,32.63269 -55.810965,53.6986 v 1.27209 c 16.087975,-16.10129 29.093921,-48.23978 55.810965,-54.28415 32.5804044,-7.37088 67.573112,14.72847 94.93158,8.42472 29.492992,-6.79556 38.118051,-21.28691 65.603171,-25.6078 24.38127,-3.83293 57.70393,12.4085 73.55496,10.46913 29.07182,-3.55692 39.73429,-32.98738 84.67203,-45.982859 3.02219,-0.873996 8.96095,-1.395062 8.96095,-1.395062 z" />
</svg>
