<?xml version="1.0" encoding="UTF-8"?>
<!-- Created with Inkscape (http://www.inkscape.org/) -->
<svg width="1280" height="1024" version="1.1" viewBox="0 0 338.67 270.93" xmlns="http://www.w3.org/2000/svg" xmlns:xlink="http://www.w3.org/1999/xlink">
 <defs>
  <linearGradient id="linearGradient16905">
   <stop stop-color="#1b668f" offset="0"/>
   <stop stop-color="#121c94" offset=".5"/>
   <stop stop-color="#382279" offset="1"/>
  </linearGradient>
  <linearGradient id="linearGradient12915">
   <stop stop-color="#445feb" offset="0"/>
   <stop stop-color="#252fb5" offset=".5"/>
   <stop stop-color="#9b53c1" offset="1"/>
  </linearGradient>
  <linearGradient id="linearGradient78639">
   <stop stop-color="#2936ea" offset="0"/>
   <stop stop-color="#164593" offset="1"/>
  </linearGradient>
  <linearGradient id="linearGradient75480" x1="-21.655" x2="1378.4" y1="110.14" y2="110.14" gradientTransform="matrix(.26459 0 0 .26459 -11.377 58.845)" gradientUnits="userSpaceOnUse" xlink:href="#linearGradient16905"/>
  <linearGradient id="linearGradient3595" x1="-21.656" x2="383.08" y1="81.035" y2="81.035" gradientTransform="matrix(1 0 0 1 -11.377 47.87)" gradientUnits="userSpaceOnUse">
   <stop stop-color="#51d677" stop-opacity=".47843" offset="0"/>
   <stop stop-color="#eded84" stop-opacity=".32941" offset=".26488"/>
   <stop stop-color="#a9ebf6" stop-opacity=".19951" offset=".49538"/>
   <stop stop-color="#e9bf9d" stop-opacity=".35686" offset=".74191"/>
   <stop stop-color="#5138aa" stop-opacity=".52157" offset="1"/>
  </linearGradient>
  <linearGradient id="linearGradient21995" x1="-21.655" x2="383.08" y1="92.147" y2="92.147" gradientTransform="translate(0 -155.84)" gradientUnits="userSpaceOnUse" xlink:href="#linearGradient12915"/>
  <linearGradient id="linearGradient21997" x1="-21.655" x2="383.08" y1="99.556" y2="99.556" gradientTransform="translate(0 -189.92)" gradientUnits="userSpaceOnUse" xlink:href="#linearGradient12843"/>
  <linearGradient id="linearGradient12843">
   <stop stop-color="#3410ab" stop-opacity=".67526" offset="0"/>
   <stop stop-color="#169bd6" offset=".5"/>
   <stop stop-color="#0940a2" stop-opacity=".56984" offset="1"/>
  </linearGradient>
  <linearGradient id="linearGradient21999" x1="-24.528" x2="386.16" y1="-24.045" y2="-24.045" gradientTransform="translate(0 -138.44)" gradientUnits="userSpaceOnUse" xlink:href="#linearGradient26557"/>
  <linearGradient id="linearGradient26557">
   <stop stop-color="#6a5e19" offset="0"/>
   <stop stop-color="#85751e" stop-opacity=".98824" offset=".14669"/>
   <stop stop-color="#8c7b20" stop-opacity=".96863" offset=".30531"/>
   <stop stop-color="#bda62c" stop-opacity=".95686" offset=".51079"/>
   <stop stop-color="#82721e" stop-opacity=".94902" offset=".6231"/>
   <stop stop-color="#968623" stop-opacity=".99608" offset=".83541"/>
   <stop stop-color="#4e4412" stop-opacity=".92157" offset="1"/>
  </linearGradient>
  <linearGradient id="linearGradient22001" x1="-21.655" x2="1378.4" y1="110.14" y2="110.14" gradientTransform="matrix(.26458 0 0 .26458 0 -4.9003)" gradientUnits="userSpaceOnUse" xlink:href="#linearGradient16905"/>
  <linearGradient id="linearGradient22003" x1="181.04" x2="361.42" y1="110.14" y2="110.14" gradientTransform="translate(0 -18.521)" gradientUnits="userSpaceOnUse" xlink:href="#linearGradient78639"/>
  <linearGradient id="linearGradient22005" x1="-21.655" x2="183.99" y1="110.14" y2="110.14" gradientTransform="translate(0 -18.521)" gradientUnits="userSpaceOnUse">
   <stop stop-color="#2f38a6" offset="0"/>
   <stop stop-color="#3d33eb" offset="1"/>
  </linearGradient>
  <linearGradient id="linearGradient22007" x1="-82.44" x2="1448.4" y1="345.52" y2="345.52" gradientTransform="scale(.26458)" gradientUnits="userSpaceOnUse" xlink:href="#linearGradient1294"/>
  <linearGradient id="linearGradient1294">
   <stop stop-color="#6a5e19" offset="0"/>
   <stop stop-color="#d1b832" stop-opacity=".98824" offset=".14669"/>
   <stop stop-color="#8c7b20" stop-opacity=".96863" offset=".30531"/>
   <stop stop-color="#dbc865" stop-opacity=".95686" offset=".51079"/>
   <stop stop-color="#82721e" stop-opacity=".94902" offset=".6231"/>
   <stop stop-color="#968623" stop-opacity=".99608" offset=".83541"/>
   <stop stop-color="#cfb530" stop-opacity=".92157" offset="1"/>
  </linearGradient>
  <linearGradient id="linearGradient22009" x1="-21.655" x2="383.08" y1="92.147" y2="92.147" gradientTransform="translate(0 -18.521)" gradientUnits="userSpaceOnUse">
   <stop stop-color="#445feb" offset="0"/>
   <stop stop-color="#4a55ed" offset=".5"/>
   <stop stop-color="#9b53c1" offset="1"/>
  </linearGradient>
  <linearGradient id="linearGradient22011" x1="-24.528" x2="386.16" y1="-24.045" y2="-24.045" gradientTransform="translate(0 -2.3527)" gradientUnits="userSpaceOnUse" xlink:href="#linearGradient1056"/>
  <linearGradient id="linearGradient1056">
   <stop stop-color="#6a5e19" offset="0"/>
   <stop stop-color="#85751e" stop-opacity=".98824" offset=".14669"/>
   <stop stop-color="#a38f26" stop-opacity=".96863" offset=".30531"/>
   <stop stop-color="#f5d737" stop-opacity=".95686" offset=".51079"/>
   <stop stop-color="#968623" stop-opacity=".99608" offset=".83541"/>
   <stop stop-color="#4e4412" stop-opacity=".92157" offset="1"/>
  </linearGradient>
  <linearGradient id="linearGradient22013" x1="-21.655" x2="383.08" y1="99.556" y2="99.556" gradientTransform="translate(0 -59.037)" gradientUnits="userSpaceOnUse">
   <stop stop-color="#3410ab" stop-opacity=".67526" offset="0"/>
   <stop stop-color="#2936e9" offset=".5"/>
   <stop stop-color="#0940a2" stop-opacity=".56984" offset="1"/>
  </linearGradient>
  <linearGradient id="linearGradient22015" x1="-24.528" x2="386.16" y1="-24.045" y2="-24.045" gradientTransform="translate(0 -44.553)" gradientUnits="userSpaceOnUse" xlink:href="#linearGradient17531"/>
  <linearGradient id="linearGradient17531">
   <stop stop-color="#6a5e19" offset="0"/>
   <stop stop-color="#85751e" stop-opacity=".98824" offset=".14669"/>
   <stop stop-color="#8c7b20" stop-opacity=".96863" offset=".30531"/>
   <stop stop-color="#d1b637" stop-opacity=".95686" offset=".51079"/>
   <stop stop-color="#82721e" stop-opacity=".94902" offset=".6231"/>
   <stop stop-color="#968623" stop-opacity=".99608" offset=".83541"/>
   <stop stop-color="#4e4412" stop-opacity=".92157" offset="1"/>
  </linearGradient>
  <linearGradient id="linearGradient22017" x1="253.56" x2="239.42" y1="147.01" y2="130.45" gradientTransform="translate(0 -18.521)" gradientUnits="userSpaceOnUse">
   <stop stop-color="#28ead8" stop-opacity=".58819" offset="0"/>
   <stop stop-color="#164593" stop-opacity=".023098" offset="1"/>
  </linearGradient>
  <linearGradient id="linearGradient22019" x1="251.13" x2="241.25" y1="138.13" y2="126.04" gradientTransform="matrix(-1 0 0 1 361.42 -18.521)" gradientUnits="userSpaceOnUse">
   <stop stop-color="#dc29ea" stop-opacity=".68736" offset="0"/>
   <stop stop-color="#164593" stop-opacity=".023098" offset="1"/>
  </linearGradient>
  <linearGradient id="linearGradient24593" x1="181.04" x2="361.42" y1="110.14" y2="110.14" gradientTransform="matrix(1 0 0 1 -11.377 45.224)" gradientUnits="userSpaceOnUse" xlink:href="#linearGradient78639"/>
  <linearGradient id="linearGradient78325" x1="-21.655" x2="183.99" y1="110.14" y2="110.14" gradientTransform="matrix(1 0 0 1 -11.377 45.224)" gradientUnits="userSpaceOnUse">
   <stop stop-color="#2e3476" offset="0"/>
   <stop stop-color="#3d33eb" offset="1"/>
  </linearGradient>
  <linearGradient id="linearGradient87990" x1="-82.44" x2="1448.4" y1="345.52" y2="345.52" gradientTransform="matrix(.26459 0 0 .26459 -11.377 63.745)" gradientUnits="userSpaceOnUse" xlink:href="#linearGradient1294"/>
  <linearGradient id="linearGradient25753" x1="-21.655" x2="383.08" y1="92.147" y2="92.147" gradientTransform="matrix(1 0 0 1 -11.377 45.224)" gradientUnits="userSpaceOnUse">
   <stop stop-color="#4465eb" offset="0"/>
   <stop stop-color="#46a7e1" offset=".5"/>
   <stop stop-color="#6b50c1" offset="1"/>
  </linearGradient>
  <linearGradient id="linearGradient25219" x1="-24.528" x2="386.16" y1="-24.045" y2="-24.045" gradientTransform="matrix(1 0 0 1 -11.377 61.393)" gradientUnits="userSpaceOnUse" xlink:href="#linearGradient1056"/>
  <linearGradient id="linearGradient14910" x1="253.56" x2="239.42" y1="147.01" y2="130.45" gradientTransform="matrix(1 0 0 1 -11.377 45.224)" gradientUnits="userSpaceOnUse">
   <stop stop-color="#e06fea" stop-opacity=".39011" offset="0"/>
   <stop stop-color="#164593" stop-opacity=".023098" offset="1"/>
  </linearGradient>
  <linearGradient id="linearGradient15720" x1="251.13" x2="241.25" y1="138.13" y2="126.04" gradientTransform="matrix(-1 0 0 1 350.05 45.224)" gradientUnits="userSpaceOnUse">
   <stop stop-color="#dc29ea" stop-opacity=".18321" offset="0"/>
   <stop stop-color="#164593" stop-opacity=".023098" offset="1"/>
  </linearGradient>
  <linearGradient id="linearGradient35006" x1="542.26" x2="409.86" y1="531.52" y2="437.69" gradientTransform="matrix(.26459 0 0 .26459 -11.377 47.87)" gradientUnits="userSpaceOnUse">
   <stop stop-color="#9e80dc" stop-opacity=".08" offset="0"/>
   <stop stop-color="#9e80dc" stop-opacity="0" offset="1"/>
  </linearGradient>
  <linearGradient id="linearGradient35006-3" x1="542.26" x2="409.86" y1="531.52" y2="437.69" gradientTransform="matrix(-.26459 0 0 .26459 445.41 -20.671)" gradientUnits="userSpaceOnUse">
   <stop stop-color="#9e80dc" stop-opacity=".12323" offset="0"/>
   <stop stop-color="#9e80dc" stop-opacity="0" offset="1"/>
  </linearGradient>
  <linearGradient id="linearGradient26562" x1="-21.655" x2="383.08" y1="99.556" y2="99.556" gradientTransform="matrix(1 0 0 1 -11.377 4.7077)" gradientUnits="userSpaceOnUse">
   <stop stop-color="#0031b6" offset="0"/>
   <stop stop-color="#255cc7" offset=".5"/>
   <stop stop-color="#3d3dd3" offset="1"/>
  </linearGradient>
  <linearGradient id="linearGradient34063" x1="79.735" x2="21.187" y1="42.158" y2="1.0037" gradientTransform="matrix(1 0 0 1 -11.377 47.87)" gradientUnits="userSpaceOnUse">
   <stop stop-color="#9e7fdc" stop-opacity=".1" offset="0"/>
   <stop stop-color="#9e7fdc" stop-opacity="0" offset="1"/>
  </linearGradient>
  <linearGradient id="linearGradient53858" x1="79.735" x2="21.187" y1="42.158" y2="1.0037" gradientTransform="matrix(-1 0 0 1 263.52 163.37)" gradientUnits="userSpaceOnUse">
   <stop stop-color="#7fdcdb" stop-opacity=".07" offset="0"/>
   <stop stop-color="#9e7fdc" stop-opacity="0" offset="1"/>
  </linearGradient>
  <linearGradient id="linearGradient35392" x1="654.09" x2="409.86" y1="615.36" y2="437.69" gradientTransform="matrix(.26459 0 0 .26459 -3.7042 19.261)" gradientUnits="userSpaceOnUse">
   <stop stop-color="#b1cdef" stop-opacity=".26275" offset="0"/>
   <stop stop-color="#9e80dc" stop-opacity="0" offset="1"/>
  </linearGradient>
  <linearGradient id="linearGradient37083" x1="32.688" x2="-4.3074" y1="61.359" y2="35.59" gradientTransform="matrix(1 0 0 1 -11.377 47.87)" gradientUnits="userSpaceOnUse">
   <stop stop-color="#a9e3ed" stop-opacity=".05" offset="0"/>
   <stop stop-color="#a9e3ed" stop-opacity="0" offset="1"/>
  </linearGradient>
  <linearGradient id="linearGradient37280" x1="32.688" x2="-4.3074" y1="61.359" y2="35.59" gradientTransform="matrix(2.4504 0 0 2.4504 76.963 4.1433)" gradientUnits="userSpaceOnUse">
   <stop stop-color="#60cbde" stop-opacity=".059582" offset="0"/>
   <stop stop-color="#a9e3ed" stop-opacity="0" offset="1"/>
  </linearGradient>
  <linearGradient id="linearGradient37849" x1="32.688" x2="-4.3074" y1="61.359" y2="35.59" gradientTransform="matrix(2.4504 0 0 2.4504 13.383 12.579)" gradientUnits="userSpaceOnUse">
   <stop stop-color="#84b0b8" stop-opacity=".05" offset="0"/>
   <stop stop-color="#a9e3ed" stop-opacity="0" offset="1"/>
  </linearGradient>
  <linearGradient id="linearGradient69576" x1="-24.528" x2="386.16" y1="-24.045" y2="-24.045" gradientTransform="matrix(1 0 0 1 -11.377 19.192)" gradientUnits="userSpaceOnUse" xlink:href="#linearGradient17531"/>
  <linearGradient id="linearGradient53643" x1="79.735" x2="21.187" y1="42.158" y2="1.0037" gradientTransform="matrix(-1 0 0 1 263.83 118.22)" gradientUnits="userSpaceOnUse">
   <stop stop-color="#dc7fdc" stop-opacity=".08" offset="0"/>
   <stop stop-color="#9e7fdc" stop-opacity="0" offset="1"/>
  </linearGradient>
  <linearGradient id="linearGradient53697" x1="32.688" x2="-4.3074" y1="61.359" y2="35.59" gradientTransform="matrix(-2.4504 0 0 2.4504 322.96 -54.495)" gradientUnits="userSpaceOnUse">
   <stop stop-color="#a9e3ed" stop-opacity=".06" offset="0"/>
   <stop stop-color="#a9e3ed" stop-opacity="0" offset="1"/>
  </linearGradient>
  <linearGradient id="linearGradient53804" x1="32.688" x2="-4.3074" y1="61.359" y2="35.59" gradientTransform="matrix(-2.4504 0 0 2.4504 305.64 -25.296)" gradientUnits="userSpaceOnUse">
   <stop stop-color="#dd83f2" stop-opacity=".12549" offset="0"/>
   <stop stop-color="#a9e3ed" stop-opacity="0" offset="1"/>
  </linearGradient>
  <linearGradient id="linearGradient5163" x1="654.09" x2="409.86" y1="615.36" y2="437.69" gradientTransform="matrix(-.26459 0 0 .26459 342.37 19.261)" gradientUnits="userSpaceOnUse">
   <stop stop-color="#b1cdef" stop-opacity=".14678" offset="0"/>
   <stop stop-color="#9e80dc" stop-opacity="0" offset="1"/>
  </linearGradient>
 </defs>
 <rect width="338.67" height="270.93" fill="#1b1e20" stop-color="#000000" style="paint-order:stroke fill markers"/>
 <path d="m-33.033 41.347v20.919l191.39 140.54 10.981 23.179 10.981-23.179 191.39-140.54v-20.919l-202.37 148.61z" fill="url(#linearGradient75480)" stop-color="#000000" style="-inkscape-stroke:none;font-variation-settings:normal"/>
 <path d="m-52.732 63.712s10.837 22.539 50.589 20.577c5.6789-0.28031 11.948-1.0606 18.86-2.4782 41.471-8.5051 56.433 22.208 67.269 50.928 3.612 9.5732 6.7655 18.925 10.289 26.529 10.125 21.847 35.357 48.779 63.066 61.098 16.626 7.3915 34.144 9.522 49.826 2.1367 13.362-6.2926 15.967-13.923 15.425-21.027-0.54121-7.104-4.2287-13.682-3.4522-17.869 2.0084-10.832 9.8146-12.177 17.651-11.449 13.06 1.2131 26.204 8.1837 12.728-13.414-4.186-6.7087-6.2649-12.743-6.9594-18.069-2.0835-15.976 8.2926-25.566 11.618-27.812 4.3752-2.9564 9.5017-5.1776 15.177-6.8428 39.724-11.656 106.31 3.9389 130.09-14.636m-450.74-28.397c0.95988 0.30033 11.65 23.381 50.229 22.368 5.5068-0.08629 11.616-0.68972 18.374-1.9399 40.549-7.5009 56.184 22.146 67.55 49.686 3.748 9.1985 7.0964 18.265 10.815 25.691 10.574 21.325 35.896 47.969 63.119 60.417 16.334 7.4693 33.42 9.8757 48.584 3.0126 12.881-5.6949 15.062-12.722 13.891-19.434s-5.2629-13.908-4.4239-18.797c2.0157-11.145 10.001-13.076 18.538-12.59 13.761 0.9234 27.986 7.3821 15.704-13.833-3.7422-6.6096-5.5363-12.548-6.1498-17.77-1.6396-15.812 7.8306-25.705 11.203-28.141 4.2769-2.9163 9.3053-5.1089 14.896-6.7493 39.726-11.504 104.15 2.2702 127.26-15.789m-448.16-26.857c1.9198 0.60065 12.463 24.223 49.868 24.159 5.3347 0.10772 11.285-0.3188 17.889-1.4016 39.628-6.4966 55.936 22.085 67.832 48.444 3.884 8.8239 7.4274 17.604 11.34 24.854 11.023 20.803 36.436 47.158 63.172 59.736 16.042 7.5472 32.695 10.229 47.343 3.8886 12.401-5.0972 14.158-11.521 12.357-17.841-1.8007-6.3198-6.2972-14.134-5.3956-19.725 2.0231-11.458 10.187-13.975 19.426-13.73 14.462 0.6337 29.769 6.5805 18.68-14.253-3.2984-6.5105-4.8078-12.352-5.3402-17.471-1.1956-15.649 7.3686-25.844 10.788-28.47 4.1786-2.8761 9.1089-5.0402 14.615-6.6559 39.729-11.352 101.98 0.60142 124.44-16.942m-445.58-25.317c2.8796 0.90098 13.275 25.065 49.508 25.95 5.1626 0.30173 10.953 0.05213 17.404-0.86328 38.707-5.4924 55.687 22.023 68.114 47.203 4.0201 8.4492 7.7583 16.944 11.865 24.017 11.473 20.281 36.976 46.347 63.225 59.056 15.75 7.625 31.971 10.583 46.101 4.7646 11.921-4.4995 13.254-10.32 10.823-16.248s-7.3314-14.359-6.3672-20.653c2.0304-11.771 10.373-14.875 20.314-14.871 15.163 0.34401 31.552 5.7789 21.656-14.673-2.8546-6.4114-4.0792-12.157-4.5306-17.173-0.75169-15.485 6.9065-25.983 10.373-28.798 4.0803-2.836 8.9124-4.9715 14.335-6.5625 39.731-11.201 99.814-1.0673 121.61-18.095m-442.99-23.777c3.8395 1.2013 14.088 25.907 49.148 27.741 4.9905 0.49575 10.622 0.42305 16.919-0.32498 37.786-4.4882 55.439 21.962 68.395 45.961 4.1561 8.0745 8.0893 16.284 12.391 23.179 11.922 19.76 37.516 45.536 63.278 58.375 15.458 7.7029 31.247 10.937 44.86 5.6405 11.44-3.9018 12.349-9.1191 9.289-14.655-3.0602-5.5357-8.3656-14.585-7.3389-21.581 2.0377-12.084 10.559-15.774 21.201-16.012 15.864 0.0543 33.335 4.9773 24.632-15.093-2.4108-6.3123-3.3507-11.961-3.721-16.874-0.30774-15.322 6.4445-26.122 9.9577-29.127 3.982-2.7958 8.716-4.9028 14.054-6.469 39.734-11.049 97.647-2.736 118.78-19.247m-440.41-22.237c4.7994 1.5016 14.901 26.749 48.787 29.531 4.8184 0.68976 10.29 0.79397 16.434 0.21331 36.865-3.484 55.19 21.9 68.677 44.719 4.2922 7.6999 8.4202 15.624 12.916 22.342 12.371 19.238 38.055 44.726 63.331 57.694 15.165 7.7808 30.523 11.29 43.618 6.5165 10.96-3.3041 11.445-7.9181 7.755-13.062s-9.3999-14.811-8.3106-22.509c2.045-12.396 10.745-16.673 22.089-17.153 16.565-0.23539 35.118 4.1757 27.608-15.513-1.967-6.2132-2.6222-11.766-2.9114-16.576 0.1362-15.158 5.9825-26.262 9.5427-29.455 3.8837-2.7556 8.5196-4.8341 13.773-6.3756 39.736-10.897 95.481-4.4048 115.96-20.4m-437.83-20.697c5.7593 1.802 15.713 27.591 48.427 31.322 4.6464 0.88377 9.9583 1.1649 15.949 0.7516 35.943-2.4798 54.942 21.839 68.958 43.478 4.4282 7.3252 8.7512 14.964 13.441 21.504 12.821 18.716 38.595 43.915 63.384 57.013 14.873 7.8586 29.799 11.644 42.376 7.3925 10.48-2.7064 10.541-6.7172 6.2208-11.469-4.3197-4.7515-10.434-15.037-9.2822-23.437 2.0523-12.709 10.931-17.573 22.976-18.293 17.266-0.52508 36.901 3.3742 30.584-15.932-1.5232-6.1142-1.8936-11.571-2.1018-16.277 0.58015-14.995 5.5204-26.401 9.1277-29.784 3.7854-2.7155 8.3231-4.7654 13.493-6.2822 39.739-10.746 93.314-6.0735 113.13-21.553m-435.25-19.158c6.7192 2.1023 16.526 28.433 48.066 33.113 4.4743 1.0778 9.6268 1.5358 15.464 1.2899 35.022-1.4755 54.693 21.777 69.24 42.236 4.5642 6.9505 9.0821 14.303 13.966 20.667 13.27 18.195 39.135 43.104 63.437 56.332 14.581 7.9365 29.075 11.998 41.135 8.2685 9.9996-2.1087 9.6362-5.5162 4.6868-9.8757-4.9495-4.3594-11.468-15.263-10.254-24.365 2.0596-13.022 11.117-18.472 23.864-19.434 17.967-0.81478 38.684 2.5726 33.56-16.352-1.0794-6.015-1.1651-11.375-1.2922-15.979 1.0241-14.831 5.0584-26.54 8.7128-30.112 3.6871-2.6753 8.1267-4.6967 13.212-6.1888 39.741-10.594 91.148-7.7422 110.3-22.706m-432.67-17.618c7.679 2.4026 17.339 29.275 47.706 34.904 4.3022 1.2718 9.2952 1.9067 14.979 1.8282 34.101-0.47132 54.445 21.715 69.522 40.994 4.7003 6.5759 9.4131 13.643 14.492 19.83 13.719 17.673 39.675 42.294 63.49 55.651 14.289 8.0143 28.351 12.351 39.893 9.1444 9.5193-1.511 8.7319-4.3153 3.1527-8.2826-5.5792-3.9674-12.503-15.489-11.226-25.293 2.067-13.335 11.303-19.371 24.752-20.575 18.668-1.1045 40.467 1.771 36.536-16.772-0.63562-5.916-0.43653-11.18-0.48261-15.68 1.468-14.668 4.5964-26.679 8.2978-30.441 3.5888-2.6352 7.9302-4.628 12.932-6.0954 39.743-10.442 88.982-9.411 107.48-23.858m-430.08-16.078c8.6389 2.7029 18.151 30.117 47.346 36.695 4.1301 1.4658 8.9636 2.2777 14.494 2.3665 33.18 0.5329 54.196 21.654 69.803 39.752 4.8363 6.2012 9.744 12.983 15.017 18.992 14.169 17.151 40.214 41.483 63.543 54.97 13.997 8.0922 27.627 12.705 38.652 10.02 9.0391-0.91328 7.8276-3.1144 1.6186-6.6896-6.209-3.5753-13.537-15.715-12.197-26.221 2.0743-13.648 11.489-20.271 25.639-21.716 19.369-1.3942 42.25 0.96935 39.512-17.192-0.19182-5.8169 0.29202-10.984 0.32699-15.381 1.912-14.504 4.1344-26.818 7.8828-30.77 3.4905-2.595 7.7338-4.5593 12.651-6.0019 39.746-10.291 86.815-11.08 104.65-25.011m-427.5-14.538c9.5988 3.0033 18.964 30.96 46.985 38.486 3.958 1.6598 8.632 2.6486 14.008 2.9048 32.259 1.5371 53.948 21.592 70.085 38.511 4.9723 5.8265 10.075 12.323 15.542 18.155 14.618 16.629 40.754 40.672 63.596 54.289 13.705 8.17 26.903 13.058 37.41 10.896 8.5588-0.31557 6.9232-1.9134 0.0845-5.0966-6.8388-3.1832-14.571-15.941-13.169-27.149 2.0816-13.961 11.675-21.17 26.527-22.856 20.07-1.6839 44.032 0.16776 42.488-17.612 0.25196-5.7178 1.0206-10.789 1.1366-15.083 2.3559-14.341 3.6723-26.957 7.4678-31.098 3.3922-2.5549 7.5374-4.4906 12.37-5.9085 39.748-10.139 84.649-12.748 101.82-26.164m-424.92-12.998c10.559 3.3036 19.777 31.802 46.625 40.277 3.7859 1.8538 8.3005 3.0195 13.523 3.4431 31.338 2.5413 53.699 21.531 70.366 37.269 5.1084 5.4519 10.406 11.662 16.068 17.317 15.067 16.108 41.294 39.861 63.649 53.608 13.413 8.2479 26.179 13.412 36.169 11.772 8.0785 0.28213 6.0189-0.71247-1.4496-3.5036-7.4685-2.7911-15.605-16.167-14.141-28.077 2.0889-14.274 11.861-22.069 27.414-23.997 20.771-1.9736 45.815-0.63383 45.464-18.032 0.69576-5.6187 1.7491-10.593 1.9462-14.784 2.7999-14.177 3.2103-27.097 7.0528-31.427 3.2939-2.5147 7.3409-4.4219 12.09-5.8151 39.751-9.9873 82.482-14.417 98.995-27.317m-422.34-11.459c11.519 3.6039 20.589 32.644 46.264 42.067 3.6139 2.0479 7.9689 3.3904 13.038 3.9814 30.416 3.5456 53.451 21.469 70.648 36.027 5.2444 5.0772 10.737 11.002 16.593 16.48 15.517 15.586 41.834 39.051 63.702 52.927 13.121 8.3257 25.455 13.766 34.927 12.648 7.5982 0.87984 5.1146 0.48848-2.9837-1.9106-8.0983-2.399-16.64-16.393-15.112-29.005 2.0962-14.587 12.047-22.969 28.302-25.138 21.472-2.2633 47.598-1.4354 48.44-18.451 1.1396-5.5196 2.4776-10.398 2.7558-14.486 3.2438-14.014 2.7483-27.236 6.6379-31.755 3.1956-2.4745 7.1445-4.3532 11.809-5.7217 39.753-9.8356 80.316-16.086 96.169-28.469m-419.75-9.9188c12.478 3.9042 21.402 33.486 45.904 43.858 3.4418 2.2419 7.6373 3.7614 12.553 4.5197 29.495 4.5498 53.202 21.408 70.93 34.786 5.3804 4.7026 11.068 10.342 17.118 15.643 15.966 15.064 42.373 38.24 63.755 52.246 12.829 8.4036 24.731 14.119 33.686 13.524 7.118 1.4775 4.2102 1.6894-4.5178-0.31754-8.728-2.007-17.674-16.619-16.084-29.933 2.1035-14.9 12.233-23.868 29.19-26.279 22.173-2.553 49.381-2.237 51.416-18.871 1.5833-5.4205 3.2062-10.202 3.5654-14.187 3.6878-13.85 2.2863-27.375 6.2229-32.084 3.0973-2.4344 6.9481-4.2845 11.529-5.6282 39.756-9.6839 78.15-17.755 93.342-29.622m-417.17-8.3789c13.438 4.2046 22.215 34.328 45.544 45.649 3.2697 2.4359 7.3057 4.1323 12.068 5.058 28.574 5.554 52.954 21.346 71.211 33.544 5.5165 4.3279 11.399 9.6818 17.644 14.805 16.415 14.543 42.913 37.429 63.808 51.565 12.537 8.4814 24.007 14.473 32.444 14.4 6.6377 2.0752 3.3059 2.8904-6.0519 1.2755s-18.708-16.845-17.056-30.861c2.1108-15.213 12.419-24.767 30.077-27.419 22.874-2.8427 51.164-3.0386 54.392-19.291 2.0271-5.3214 3.9347-10.007 4.375-13.889 4.1317-13.687 1.8242-27.514 5.8079-32.412 2.999-2.3942 6.7516-4.2158 11.248-5.5348 39.758-9.5323 75.983-19.423 90.515-30.775m-414.59-6.8391c14.398 4.5049 23.027 35.17 45.183 47.44 3.0976 2.6299 6.9741 4.5032 11.583 5.5962 27.653 6.5582 52.705 21.285 71.493 32.302 5.6525 3.9532 11.73 9.0215 18.169 13.968 16.865 14.021 43.453 36.618 63.861 50.884 12.245 8.5593 23.283 14.827 31.203 15.276 6.1574 2.6729 2.4015 4.0913-7.586 2.8685-9.9875-1.2228-19.742-17.07-18.027-31.789 2.1182-15.526 12.605-25.666 30.965-28.56 23.575-3.1324 52.947-3.8402 57.368-19.711 2.4709-5.2223 4.6633-9.8112 5.1846-13.59 4.5757-13.523 1.3622-27.653 5.3929-32.741 2.9007-2.3541 6.5552-4.1471 10.967-5.4414 39.761-9.3806 73.817-21.092 87.688-31.928m-412.01-5.2993c15.358 4.8052 23.84 36.012 44.823 49.231 2.9255 2.8239 6.6426 4.8741 11.098 6.1345 26.732 7.5624 52.457 21.223 71.774 31.061 5.7886 3.5786 12.061 8.3613 18.694 13.13 17.314 13.499 43.993 35.808 63.914 50.203 11.953 8.6372 22.558 15.18 29.961 16.152 5.6771 3.2706 1.4972 5.2922-9.1201 4.4615s-20.777-17.296-18.999-32.717c2.1255-15.839 12.791-26.566 31.852-29.701 24.276-3.4221 54.73-4.6418 60.344-20.131 2.9147-5.1232 5.3918-9.6158 5.9942-13.292 5.0196-13.36 0.90018-27.793 4.9779-33.07 2.8024-2.3139 6.3588-4.0784 10.687-5.348 39.763-9.2289 71.65-22.761 84.861-33.08m-409.43-3.7595c16.318 5.1055 24.653 36.854 44.462 51.022 2.7534 3.0179 6.311 5.245 10.613 6.6728 25.81 8.5666 52.208 21.161 72.056 29.819 5.9246 3.2039 12.392 7.7011 19.219 12.293 17.763 12.977 44.532 34.997 63.967 49.522 11.661 8.715 21.834 15.534 28.72 17.028 5.1969 3.8683 0.59286 6.4932-10.654 6.0546-11.247-0.43863-21.811-17.522-19.971-33.645 2.1328-16.151 12.977-27.465 32.74-30.842 24.977-3.7118 56.513-5.4434 63.32-20.551 3.3585-5.0242 6.1204-9.4203 6.8038-12.993 5.4636-13.196 0.43816-27.932 4.563-33.398 2.7041-2.2738 6.1623-4.0097 10.406-5.2545 39.765-9.0773 69.484-24.43 82.034-34.233m-406.84-2.2197c17.278 5.4059 25.465 37.696 44.102 52.812 2.5813 3.2119 5.9794 5.616 10.128 7.2111 24.889 9.5709 51.96 21.1 72.338 28.577 6.0606 2.8292 12.723 7.0409 19.745 11.456 18.213 12.456 45.072 34.186 64.02 48.841 11.368 8.7929 21.11 15.888 27.478 17.904 4.7166 4.466-0.31148 7.6941-12.188 7.6476-11.877-0.0466-22.845-17.748-20.942-34.573 2.1401-16.464 13.163-28.364 33.628-31.982 25.678-4.0015 58.295-6.245 66.296-20.97 3.8023-4.9251 6.8489-9.2248 7.6134-12.694 5.9075-13.033-0.0239-28.071 4.148-33.727 2.6058-2.2336 5.9659-3.941 10.125-5.1611 39.768-8.9256 67.318-26.098 79.207-35.386m-404.26-0.67986c18.238 5.7062 26.278 38.538 43.742 54.603 2.4093 3.406 5.6478 5.9869 9.6425 7.7494 23.968 10.575 51.711 21.038 72.619 27.336 6.1967 2.4546 13.054 6.3806 20.27 10.618 18.662 11.934 45.612 33.376 64.073 48.16 11.076 8.8707 20.386 16.241 26.237 18.78 4.2363 5.0638-1.2158 8.8951-13.722 9.2406-12.507 0.34552-23.879-17.974-21.914-35.501 2.1474-16.777 13.35-29.264 34.515-33.123 26.379-4.2912 60.078-7.0466 69.272-21.39 4.2461-4.826 7.5774-9.0294 8.423-12.396 6.3515-12.869-0.4859-28.21 3.733-34.055 2.5075-2.1934 5.7694-3.8723 9.8448-5.0677 39.77-8.7739 65.151-27.767 76.38-36.539m-401.68 0.85996c19.198 6.0065 27.091 39.38 43.381 56.394 2.2372 3.6 5.3162 6.3578 9.1574 8.2877 23.047 11.579 51.463 20.977 72.901 26.094 6.3327 2.0799 13.384 5.7204 20.795 9.7809 19.111 11.412 46.152 32.565 64.126 47.479 10.784 8.9486 19.662 16.595 24.995 19.656 3.756 5.6615-2.1202 10.096-15.256 10.834s-24.913-18.2-22.886-36.429c2.1547-17.09 13.536-30.163 35.403-34.264 27.08-4.5809 61.861-7.8482 72.248-21.81 4.6899-4.7269 8.306-8.8339 9.2326-12.097 6.7954-12.706-0.94793-28.349 3.318-34.384 2.4092-2.1533 5.573-3.8036 9.5642-4.9743 39.773-8.6222 62.985-29.436 73.553-37.691m-399.1 2.3998c20.157 6.3068 27.903 40.222 43.021 58.185 2.0651 3.794 4.9847 6.7288 8.6723 8.826 22.126 12.584 51.214 20.915 73.182 24.852 6.4688 1.7052 13.715 5.0602 21.321 8.9436 19.561 10.89 46.692 31.754 64.179 46.798 10.492 9.0264 18.938 16.948 23.754 20.532 3.2758 6.2592-3.0245 11.297-16.791 12.427-13.766 1.1297-25.948-18.426-23.857-37.357 2.162-17.403 13.722-31.062 36.29-35.405 27.781-4.8706 63.644-8.6498 75.224-22.23 5.1337-4.6278 9.0345-8.6384 10.042-11.799 7.2394-12.542-1.41-28.488 2.903-34.712 2.3109-2.1131 5.3766-3.7348 9.2836-4.8808 39.775-8.4706 60.819-31.104 70.726-38.844m-396.51 3.9396c21.117 6.6072 28.716 41.064 42.66 59.976 1.893 3.988 4.6531 7.0997 8.1872 9.3643 21.205 13.588 50.966 20.854 73.464 23.61 6.6048 1.3306 14.046 4.4 21.846 8.1062 20.01 10.369 47.231 30.943 64.232 46.117 10.2 9.1043 18.214 17.302 22.512 21.408 2.7955 6.8569-3.9288 12.498-18.325 14.02s-26.982-18.652-24.829-38.285c2.1694-17.716 13.908-31.962 37.178-36.545 28.482-5.1602 65.427-9.4514 78.2-22.65 5.5775-4.5287 9.7631-8.4429 10.852-11.5 7.6833-12.379-1.872-28.628 2.488-35.041 2.2126-2.073 5.1802-3.6661 9.003-4.7874 39.778-8.3189 58.652-32.773 67.899-39.997m-393.93 5.4794c22.077 6.9075 29.529 41.906 42.3 61.767 1.7209 4.182 4.3215 7.4706 7.7021 9.9026 20.283 14.592 50.717 20.792 73.746 22.369 6.7408 0.95589 14.377 3.7398 22.371 7.2688 20.459 9.847 47.771 30.133 64.285 45.436 9.9081 9.1822 17.49 17.656 21.271 22.284 2.3152 7.4546-4.8332 13.699-19.859 15.613-15.026 1.9138-28.016-18.878-25.801-39.213 2.1767-18.029 14.094-32.861 38.066-37.686 29.183-5.45 67.21-10.253 81.176-23.07 6.0213-4.4296 10.492-8.2475 11.661-11.202 8.1273-12.215-2.334-28.767 2.0731-35.37 2.1143-2.0328 4.9837-3.5974 8.7223-4.694 39.78-8.1672 56.486-34.442 65.073-41.15m-391.35 7.0192c23.037 7.2078 30.341 42.748 41.94 63.558 1.5488 4.376 3.9899 7.8415 7.217 10.441 19.362 15.596 50.469 20.73 74.027 21.127 6.8769 0.58123 14.708 3.0795 22.896 6.4314 20.909 9.3253 48.311 29.322 64.337 44.755 9.616 9.26 16.766 18.009 20.029 23.16 1.8349 8.0523-5.7375 14.9-21.393 17.206-15.655 2.3059-29.05-19.104-26.772-40.141 2.184-18.342 14.28-33.76 38.953-38.827 29.884-5.7396 68.993-11.055 84.152-23.489 6.465-4.3305 11.22-8.052 12.471-10.903 8.5712-12.052-2.796-28.906 1.6581-35.698 2.016-1.9927 4.7873-3.5287 8.4417-4.6006 39.783-8.0156 54.319-36.111 62.246-42.302m-388.77 8.559c23.997 7.5081 31.154 43.59 41.579 65.348 1.3768 4.57 3.6583 8.2124 6.7318 10.979 18.441 16.6 50.22 20.669 74.309 19.885 7.0129 0.20655 15.039 2.4193 23.422 5.594 21.358 8.8036 48.851 28.511 64.39 44.074 9.3239 9.3379 16.042 18.363 18.788 24.036 1.3547 8.65-6.6419 16.101-22.927 18.799s-30.085-19.33-27.744-41.069c2.1913-18.655 14.466-34.66 39.841-39.968 30.585-6.0293 70.776-11.856 87.128-23.909 6.9088-4.2314 11.949-7.8565 13.281-10.605 9.0152-11.888-3.258-29.045 1.2431-36.027 1.9177-1.9525 4.5908-3.46 8.1611-4.5071 39.785-7.8639 52.153-37.779 59.419-43.455m-386.19 10.099c24.957 7.8085 31.967 44.432 41.219 67.139 1.2047 4.764 3.3268 8.5834 6.2467 11.517 17.52 17.605 49.972 20.607 74.59 18.644 7.1489-0.16811 15.37 1.7591 23.947 4.7566 21.807 8.2819 49.39 27.701 64.443 43.393 9.0318 9.4157 15.318 18.717 17.546 24.912 0.87439 9.2477-7.5462 17.302-24.461 20.392-16.915 3.0901-31.119-19.556-28.716-41.997 2.1986-18.968 14.652-35.559 40.729-41.108 31.286-6.319 72.559-12.658 90.104-24.329 7.3526-4.1324 12.677-7.661 14.09-10.306 9.4591-11.724-3.7201-29.184 0.82813-36.355 1.8194-1.9123 4.3944-3.3913 7.8805-4.4137 39.787-7.7122 49.987-39.448 56.592-44.608m-383.6 11.639c25.917 8.1088 32.779 45.274 40.858 68.93 1.0326 4.9581 2.9952 8.9543 5.7616 12.056 16.599 18.609 49.723 20.546 74.872 17.402 7.285-0.54278 15.701 1.0989 24.472 3.9192 22.257 7.7602 49.93 26.89 64.496 42.712 8.7398 9.4936 14.594 19.07 16.304 25.788 0.39411 9.8454-8.4505 18.503-25.995 21.985s-32.153-19.781-29.687-42.925c2.2059-19.281 14.838-36.458 41.616-42.249 31.987-6.6087 74.341-13.459 93.08-24.749 7.7964-4.0333 13.406-7.4656 14.9-10.007 9.903-11.561-4.1821-29.324 0.41315-36.684 1.7211-1.8722 4.198-3.3226 7.5999-4.3203 39.79-7.5605 47.82-41.117 53.765-45.761m-381.02 13.178c26.877 8.4091 33.592 46.116 40.498 70.721 0.8605 5.1521 2.6636 9.3252 5.2765 12.594 15.677 19.613 49.475 20.484 75.154 16.16 7.421-0.91744 16.032 0.43864 24.998 3.0818 22.706 7.2384 50.47 26.079 64.549 42.032 8.4477 9.5714 13.87 19.424 15.063 26.664-0.0862 10.443-9.3549 19.704-27.529 23.578-18.174 3.8742-33.187-20.007-30.659-43.853 2.2132-19.594 15.024-37.358 42.504-43.39 32.688-6.8984 76.124-14.261 96.056-25.169 8.2402-3.9342 14.134-7.2701 15.709-9.7088 10.347-11.398-4.6441-29.463-2e-3 -37.012 1.6228-1.832 4.0015-3.2539 7.3192-4.2269 39.792-7.4089 45.654-42.786 50.938-46.913m-378.44 14.718c27.837 8.7094 34.405 46.958 40.137 72.512 0.68842 5.3461 2.332 9.6961 4.7914 13.132 14.756 20.617 49.226 20.423 75.435 14.919 7.557-1.2921 16.363-0.22158 25.523 2.2444 23.155 6.7167 51.01 25.268 64.602 41.351 8.1556 9.6493 13.146 19.778 13.821 27.54-0.56644 11.041-10.259 20.905-29.063 25.171-18.804 4.2663-34.222-20.233-31.631-44.781 2.2206-19.907 15.21-38.257 43.391-44.531 33.389-7.1881 77.907-15.063 99.032-25.589 8.684-3.8351 14.863-7.0746 16.519-9.4103 10.791-11.234-5.1062-29.602-0.41681-37.341 1.5245-1.7919 3.8051-3.1852 7.0386-4.1334 39.795-7.2572 43.487-44.454 48.111-48.066m-375.86 16.258c28.796 9.0098 35.217 47.8 39.777 74.303 0.51633 5.5401 2.0004 10.067 4.3063 13.671 13.835 21.622 48.978 20.361 75.717 13.677 7.6931-1.6668 16.694-0.88181 26.048 1.407 23.605 6.195 51.549 24.458 64.655 40.67 7.8636 9.7272 12.421 20.131 12.58 28.416-1.0467 11.638-11.164 22.105-30.597 26.764-19.434 4.6584-35.256-20.459-32.602-45.709 2.2279-20.219 15.396-39.156 44.279-45.671 34.09-7.4778 79.69-15.864 102.01-26.008 9.1278-3.736 15.591-6.8791 17.329-9.1117 11.235-11.07-5.5682-29.741-0.83179-37.67 1.4262-1.7517 3.6087-3.1165 6.758-4.04 39.797-7.1055 41.321-46.123 45.284-49.219m-373.27 17.798c29.756 9.3101 36.03 48.642 39.417 76.093 0.34425 5.7341 1.6689 10.438 3.8212 14.209 12.914 22.626 48.729 20.299 75.999 12.435 7.8291-2.0414 17.025-1.542 26.574 0.56966 24.054 5.6733 52.089 23.647 64.708 39.989 7.5715 9.805 11.697 20.485 11.338 29.292-1.527 12.236-12.068 23.306-32.131 28.357-20.064 5.0505-36.29-20.685-33.574-46.637 2.2352-20.532 15.582-40.056 45.167-46.812 34.791-7.7675 81.473-16.666 104.98-26.428 9.5716-3.6369 16.32-6.6837 18.138-8.8132 11.679-10.907-6.0302-29.88-1.2468-37.998 1.3279-1.7116 3.4122-3.0478 6.4774-3.9466 39.8-6.9538 39.155-47.792 42.457-50.372m-370.69 19.338c30.716 9.6104 36.843 49.484 39.056 77.884 0.17216 5.9281 1.3373 10.809 3.3361 14.747 11.993 23.63 48.481 20.238 76.28 11.194 7.9652-2.4161 17.356-2.2022 27.099-0.26773 24.503 5.1515 52.629 22.836 64.761 39.308 7.2794 9.8829 10.973 20.839 10.097 30.168-2.0073 12.834-12.972 24.507-33.666 29.95-20.693 5.4426-37.324-20.911-34.546-47.565 2.2425-20.845 15.768-40.955 46.054-47.953 35.492-8.0572 83.256-17.467 107.96-26.848 10.015-3.5378 17.049-6.4882 18.948-8.5146 12.123-10.743-6.4922-30.02-1.6618-38.327 1.2296-1.6714 3.2158-2.9791 6.1968-3.8532 39.802-6.8022 36.988-49.461 39.63-51.524m-368.11 20.878c31.676 9.9108 37.655 50.326 38.696 79.675 8.1e-5 6.1221 1.0057 11.18 2.851 15.286 11.072 24.634 48.232 20.176 76.562 9.9519 8.1012-2.7908 17.687-2.8625 27.624-1.1051 24.953 4.6298 53.169 22.025 64.814 38.627 6.9873 9.9607 10.249 21.192 8.8554 31.044-2.4875 13.432-13.877 25.708-35.2 31.543-21.323 5.8347-38.359-21.137-35.517-48.493 2.2498-21.158 15.954-41.854 46.942-49.094 36.193-8.3469 85.039-18.269 110.94-27.268 10.459-3.4387 17.777-6.2927 19.757-8.216 12.567-10.58-6.9543-30.159-2.0767-38.655 1.1313-1.6312 3.0194-2.9104 5.9162-3.7597 39.805-6.6505 34.822-51.129 36.803-52.677m-365.53 22.417c32.636 10.211 38.468 51.168 38.335 81.466-0.172 6.3162 0.67413 11.551 2.3659 15.824 10.15 25.638 47.984 20.115 76.843 8.7102 8.2372-3.1654 18.018-3.5227 28.149-1.9425 25.402 4.1081 53.708 21.215 64.867 37.946 6.6952 10.039 9.5252 21.546 7.6138 31.92-2.9678 14.029-14.781 26.909-36.734 33.136-21.953 6.2267-39.393-21.363-36.489-49.421 2.2571-21.471 16.14-42.754 47.829-50.234 36.894-8.6366 86.822-19.071 113.91-27.688 10.903-3.3396 18.506-6.0972 20.567-7.9175 13.011-10.416-7.4163-30.298-2.4917-38.984 1.033-1.5911 2.8229-2.8417 5.6355-3.6663 39.807-6.4988 32.655-52.798 33.977-53.83m-362.95 23.957c33.596 10.511 39.281 52.01 37.975 83.257-0.34409 6.5102 0.34255 11.922 1.8808 16.362 9.2292 26.643 47.736 20.053 77.125 7.4686 8.3733-3.5401 18.349-4.1829 28.675-2.7799 25.851 3.5864 54.248 20.404 64.92 37.265 6.4032 10.116 8.8011 21.899 6.3723 32.796-3.4481 14.627-15.685 28.11-38.268 34.729s-40.427-21.589-37.461-50.349c2.2645-21.784 16.326-43.653 48.717-51.375 37.595-8.9263 88.604-19.872 116.89-28.108 11.347-3.2406 19.234-5.9018 21.377-7.6189 13.455-10.253-7.8783-30.437-2.9067-39.312 0.93475-1.5509 2.6265-2.773 5.3549-3.5729 39.809-6.3472 30.489-54.467 31.15-54.983m-360.36 25.497c34.556 10.812 40.094 52.852 37.615 85.048-0.51617 6.7042 0.01097 12.293 1.3956 16.9 8.308 27.647 47.487 19.992 77.407 6.2269 8.5093-3.9148 18.68-4.8432 29.2-3.6173 26.301 3.0646 54.788 19.593 64.973 36.584 6.1111 10.194 8.0771 22.253 5.1308 33.672-3.9284 15.225-16.59 29.311-39.802 36.322-23.212 7.0109-41.461-21.815-38.432-51.277 2.2718-22.097 16.512-44.552 49.605-52.516 38.296-9.216 90.387-20.674 119.86-28.527 11.791-3.1415 19.963-5.7063 22.186-7.3204 13.899-10.089-8.3404-30.576-3.3217-39.641 0.83645-1.5108 2.43-2.7043 5.0743-3.4795 39.812-6.1955 28.323-56.135 28.323-56.135" fill="none" stroke="url(#linearGradient3595)" stroke-width=".26459px"/>
 <path d="m373.67 75.705v196.55h-409.49l3e-6 -197.34 205.15 150.84z" fill="#1b1e20"/>
 <g transform="matrix(1.4527 0 0 1.4527 -93.175 126.54)" opacity=".02" stroke-width=".6884">
  <g transform="translate(0 77.637)" opacity=".075" stroke-width=".6884">
   <path d="m-21.655-173.61 202.37 148.61 202.37-148.61v16.181l-202.37 148.61-202.37-148.61z" fill="url(#linearGradient21995)" stop-color="#000000" style="-inkscape-stroke:none;font-variation-settings:normal"/>
   <path d="m-21.655-193.8 202.37 148.61 202.37-148.61v22.391l-202.37 148.61-202.37-148.61z" fill="url(#linearGradient21997)"/>
   <path d="m-21.655-157.94 202.37 148.61 202.37-148.61v1.7412l-202.37 148.61-202.37-148.61z" fill="url(#linearGradient21999)" stop-color="#000000" style="-inkscape-stroke:none;font-variation-settings:normal;paint-order:stroke fill markers"/>
  </g>
  <g>
   <path d="m-21.656-22.398v20.919l191.38 140.54 10.981 23.178 10.981-23.178 191.38-140.54v-20.919l-202.37 148.61z" fill="url(#linearGradient22001)" stop-color="#000000" style="-inkscape-stroke:none;font-variation-settings:normal"/>
   <path d="m191.22 138.75-10.513 23.491 202.37-148.61v-15.771z" fill="url(#linearGradient22003)"/>
   <path d="m-21.656-2.1353v15.771l202.37 148.61-10.513-23.491z" fill="url(#linearGradient22005)"/>
  </g>
  <path d="m-21.656-2.1353v1.3126l190.92 140.2 11.449 22.866 11.449-22.866 190.92-140.2v-1.3126l-191.85 140.89-10.513 21.102-10.513-21.102-191.54-140.66z" color="#000000" fill="url(#linearGradient22007)" stroke-linecap="square" stroke-width=".18214" style="-inkscape-stroke:none"/>
  <g>
   <path d="m-21.655-41.581 202.37 148.61 202.37-148.61v21.473l-202.37 148.61-202.37-148.61z" fill="url(#linearGradient22009)" stop-color="#000000" style="-inkscape-stroke:none;font-variation-settings:normal"/>
   <path d="m-21.655-23.098 202.37 148.61 202.37-148.61v2.9889l-202.37 148.61-202.37-148.61z" fill="url(#linearGradient22011)" stop-color="#000000" style="-inkscape-stroke:none;font-variation-settings:normal;paint-order:stroke fill markers"/>
   <path d="m-21.655-62.914 202.37 148.61 202.37-148.61v22.391l-202.37 148.61-202.37-148.61z" fill="url(#linearGradient22013)"/>
   <path d="m-21.655-64.05 202.37 148.61 202.37-148.61v1.7412l-202.37 148.61-202.37-148.61z" fill="url(#linearGradient22015)" stop-color="#000000" style="-inkscape-stroke:none;font-variation-settings:normal;paint-order:stroke fill markers"/>
   <path d="m191.22 138.75-10.513 23.491 202.37-148.61v-15.771z" fill="url(#linearGradient22017)"/>
   <path d="m170.2 138.75 10.513 23.491-202.37-148.61-2e-6 -15.771z" fill="url(#linearGradient22019)"/>
  </g>
 </g>
 <g transform="matrix(1 0 0 1 -11.377 141.38)" opacity=".03">
  <path d="m-21.655-173.61 202.37 148.61 202.37-148.61v16.181l-202.37 148.61-202.37-148.61z" fill="url(#linearGradient21995)" stop-color="#000000" style="-inkscape-stroke:none;font-variation-settings:normal"/>
  <path d="m-21.655-193.8 202.37 148.61 202.37-148.61v22.391l-202.37 148.61-202.37-148.61z" fill="url(#linearGradient21997)"/>
  <path d="m-21.655-157.94 202.37 148.61 202.37-148.61v1.7412l-202.37 148.61-202.37-148.61z" fill="url(#linearGradient21999)" stop-color="#000000" style="-inkscape-stroke:none;font-variation-settings:normal;paint-order:stroke fill markers"/>
 </g>
 <path d="m179.85 202.5-10.513 23.491 202.37-148.61v-15.771z" fill="url(#linearGradient24593)"/>
 <path d="m-33.033 61.61v15.771l202.37 148.61-10.513-23.491z" fill="url(#linearGradient78325)"/>
 <path d="m-33.033 61.61v1.3126l190.92 140.2 11.45 22.866 11.45-22.866 190.92-140.2v-1.3126l-191.85 140.89-10.513 21.102-10.513-21.102-191.54-140.66z" color="#000000" fill="url(#linearGradient87990)" stroke-linecap="square" stroke-width=".26459" style="-inkscape-stroke:none"/>
 <g>
  <path d="m-33.033 22.163 202.37 148.61 202.37-148.61v21.473l-202.37 148.61-202.37-148.61z" fill="url(#linearGradient25753)" stop-color="#000000" style="-inkscape-stroke:none;font-variation-settings:normal"/>
  <path d="m-33.033 40.647 202.37 148.61 202.37-148.61v2.9889l-202.37 148.61-202.37-148.61z" fill="url(#linearGradient25219)" stop-color="#000000" style="-inkscape-stroke:none;font-variation-settings:normal;paint-order:stroke fill markers"/>
  <path d="m179.85 202.5-10.513 23.491 202.37-148.61v-15.771z" fill="url(#linearGradient14910)"/>
  <path d="m158.82 202.5 10.513 23.491-202.37-148.61-2e-6 -15.771z" fill="url(#linearGradient15720)"/>
  <path d="m99.775 160.45v3.1394l33.984 24.957v-3.1394zm0 4.7269v4.963l33.984 24.957v-4.9631zm33.984 31.441-33.984-24.957v2.1167l33.984 24.957z" fill="url(#linearGradient35006)"/>
  <path d="m334.26 91.909v3.1394l-33.984 24.957v-3.1394zm0 4.7269v4.9631l-33.984 24.957v-4.9631zm-33.984 31.441 33.984-24.957v2.1167l-33.984 24.957z" fill="url(#linearGradient35006-3)"/>
  <path d="m169.34 171.83 202.54-148.06-0.17208-1.6114z" fill="#d0b2e4"/>
  <path d="m169.34 171.83-202.54-148.06 0.17208-1.6114z" fill="#b2e3e4"/>
  <path d="m-33.033 0.83045 202.37 148.61 202.37-148.61v22.391l-202.37 148.61-202.37-148.61z" fill="url(#linearGradient26562)"/>
 </g>
 <g transform="matrix(.81398 0 0 .81461 33.009 74.681)" fill="none" stop-color="#000000" stroke="#235dc6" stroke-width=".64985" style="-inkscape-stroke:none;font-variation-settings:normal;paint-order:stroke fill markers">
  <path d="m116.37 53.187v6.7346" stop-color="#000000" style="-inkscape-stroke:none;font-variation-settings:normal;paint-order:stroke fill markers"/>
  <path d="m122.49 57.678v8.7187" stop-color="#000000" style="-inkscape-stroke:none;font-variation-settings:normal;paint-order:stroke fill markers"/>
  <path d="m133.56 65.81v8.379" stop-color="#000000" style="-inkscape-stroke:none;font-variation-settings:normal;paint-order:stroke fill markers"/>
  <path d="m128.48 62.077v4.1961" stop-color="#000000" style="-inkscape-stroke:none;font-variation-settings:normal;paint-order:stroke fill markers"/>
  <circle cx="116.42" cy="61.028" r="1.21" stop-color="#000000" style="-inkscape-stroke:none;font-variation-settings:normal;paint-order:stroke fill markers"/>
  <circle cx="122.45" cy="66.901" r=".64061" stop-color="#000000" style="-inkscape-stroke:none;font-variation-settings:normal;paint-order:stroke fill markers"/>
  <circle cx="128.5" cy="67.357" r="1.21" stop-color="#000000" style="-inkscape-stroke:none;font-variation-settings:normal;paint-order:stroke fill markers"/>
  <circle cx="133.55" cy="75.222" r="1.21" stop-color="#000000" style="-inkscape-stroke:none;font-variation-settings:normal;paint-order:stroke fill markers"/>
 </g>
 <path d="m16.76 44.016v15.771l8.7086 6.395v-15.771zm11.284 8.2864v15.771l17.517 12.864v-15.771zm22.861 16.788 0.14624 15.878 10.987 8.0678 0.01913-15.757zm15.192 11.157-0.20568 15.62 3.3166 2.4355v-15.771z" fill="url(#linearGradient34063)" stop-color="#000000" style="-inkscape-stroke:none;font-variation-settings:normal"/>
 <path d="m235.38 167.98v7.304l-8.7086 6.395v-7.304zm-11.284 8.2864v7.304l-17.517 12.864v-7.3045zm-22.861 16.788-0.14624 7.4115-10.987 8.0678-0.0191-7.2901zm-15.192 11.157 0.20568 7.1531-3.3166 2.4355v-7.3045z" fill="url(#linearGradient53858)" stop-color="#000000" style="-inkscape-stroke:none;font-variation-settings:normal"/>
 <g transform="matrix(1 0 0 1 -11.377 86.813)" opacity=".03">
  <path d="m-21.655-173.61 202.37 148.61 202.37-148.61v16.181l-202.37 148.61-202.37-148.61z" fill="url(#linearGradient21995)" stop-color="#000000" style="-inkscape-stroke:none;font-variation-settings:normal"/>
  <path d="m-21.655-193.8 202.37 148.61 202.37-148.61v22.391l-202.37 148.61-202.37-148.61z" fill="url(#linearGradient21997)"/>
  <path d="m-21.655-157.94 202.37 148.61 202.37-148.61v1.7412l-202.37 148.61-202.37-148.61z" fill="url(#linearGradient21999)" stop-color="#000000" style="-inkscape-stroke:none;font-variation-settings:normal;paint-order:stroke fill markers"/>
 </g>
 <path d="m89.686 93.87v17.407l25.088 18.424v-17.408z" fill="#7777e1" fill-opacity=".095564"/>
 <g>
  <path d="m107.45 131.84v7.3728l61.887 45.609v-7.3728zm0 8.9603v2.8464l61.887 45.609v-2.8464z" fill="url(#linearGradient35392)"/>
  <path d="m-11.412 83.823v4.2535l32.803 24.089v-4.254z" fill="url(#linearGradient37083)"/>
  <path d="m76.877 92.239v10.423l80.379 59.027v-10.424z" fill="url(#linearGradient37280)"/>
  <path d="m13.297 100.67v10.423l22.315 16.387v-3.544zm26.554 26.379v3.544l8.7303 6.411v-3.544zm10.842 7.9619v3.544l9.168 6.733v-3.5445zm15.598 11.455v3.544l11.541 8.4755v-3.5445zm14.964 10.989v3.5445l7.088 5.2049v-3.5445zm9.9065 7.2746v3.5445l2.5141 1.8464v-3.5445z" fill="url(#linearGradient37849)"/>
 </g>
 <g transform="matrix(.81398 0 0 .81461 58.635 93.895)" fill="none" stroke="#235dc6" stroke-width=".64985">
  <path d="m116.37 53.187v6.7346" stop-color="#000000" style="font-variation-settings:normal"/>
  <path d="m122.49 57.678v8.7187"/>
  <path d="m128.48 62.077v4.1961"/>
  <circle cx="116.42" cy="61.028" r="1.21" stop-color="#000000" style="font-variation-settings:normal;paint-order:stroke fill markers"/>
  <circle cx="122.45" cy="66.901" r=".64061" stop-color="#000000" style="font-variation-settings:normal;paint-order:stroke fill markers"/>
  <circle cx="128.5" cy="67.357" r="1.21" stop-color="#000000" style="font-variation-settings:normal;paint-order:stroke fill markers"/>
  <path d="m110.31 48.673v8.379"/>
  <circle cx="110.3" cy="58.084" r="1.21" stop-color="#000000" style="font-variation-settings:normal;paint-order:stroke fill markers"/>
 </g>
 <g>
  <path d="m-33.033-0.30532 202.37 148.61 202.37-148.61v1.7412l-202.37 148.61-202.37-148.61z" fill="url(#linearGradient69576)" stop-color="#000000" style="-inkscape-stroke:none;font-variation-settings:normal;paint-order:stroke fill markers"/>
  <path d="m235.69 114.37v15.771l-8.7086 6.395v-15.771zm-11.284 8.2864v15.771l-17.517 12.864v-15.771zm-22.861 16.788-0.14624 15.878-10.987 8.0678-0.0191-15.757zm-15.192 11.157 0.20568 15.62-3.3166 2.4355v-15.771z" fill="url(#linearGradient53643)" stop-color="#000000" style="-inkscape-stroke:none;font-variation-settings:normal"/>
  <path d="m323.05 33.601v10.423l-22.315 16.387v-3.544zm-26.554 26.379v3.544l-8.7303 6.411v-3.544zm-10.842 7.9619v3.544l-9.168 6.733v-3.5445zm-15.598 11.455v3.544l-11.541 8.4755v-3.5445zm-14.964 10.989v3.5445l-7.088 5.2049v-3.5445zm-9.9065 7.2746v3.5445l-2.5141 1.8464v-3.5445z" fill="url(#linearGradient53697)"/>
  <path d="m305.73 62.8v10.423l-80.379 59.027v-10.424z" fill="url(#linearGradient53804)"/>
  <path d="m231.22 131.84v7.3728l-61.887 45.609v-7.3728zm0 8.9603v2.8464l-61.887 45.609v-2.8464z" fill="url(#linearGradient5163)"/>
 </g>
</svg>
