<?xml version="1.0" encoding="UTF-8" standalone="no"?>
<!-- Created with Inkscape (http://www.inkscape.org/) -->

<svg
   width="1366"
   height="768"
   viewBox="0 0 361.42082 203.20004"
   version="1.1"
   id="svg1140"
   xmlns:xlink="http://www.w3.org/1999/xlink"
   xmlns="http://www.w3.org/2000/svg"
   xmlns:svg="http://www.w3.org/2000/svg">
  <defs
     id="defs1137">
    <linearGradient
       id="linearGradient120453">
      <stop
         style="stop-color:#8b5cf6;stop-opacity:1"
         offset="0"
         id="stop120441" />
      <stop
         style="stop-color:#5151dc;stop-opacity:1"
         offset="0.25152168"
         id="stop120443" />
      <stop
         style="stop-color:#3b82f6;stop-opacity:1"
         offset="0.44539982"
         id="stop120445" />
      <stop
         style="stop-color:#8b69f6;stop-opacity:1"
         offset="0.63944036"
         id="stop120447" />
      <stop
         style="stop-color:#60a5fa;stop-opacity:1"
         offset="0.83593452"
         id="stop120449" />
      <stop
         style="stop-color:#60a5fa;stop-opacity:1"
         offset="1"
         id="stop120451" />
    </linearGradient>
    <linearGradient
       id="linearGradient25627">
      <stop
         style="stop-color:#bda62c;stop-opacity:1;"
         offset="0"
         id="stop25607" />
      <stop
         style="stop-color:#ae9a28;stop-opacity:0.98823529"
         offset="0.14668909"
         id="stop25609" />
      <stop
         style="stop-color:#8c7b20;stop-opacity:0.96862745"
         offset="0.30530512"
         id="stop25613" />
      <stop
         style="stop-color:#bda62c;stop-opacity:0.95686275;"
         offset="0.51079261"
         id="stop25617" />
      <stop
         style="stop-color:#82721e;stop-opacity:0.94901961"
         offset="0.62310421"
         id="stop25619" />
      <stop
         style="stop-color:#c0ab2c;stop-opacity:0.99607843"
         offset="0.83540899"
         id="stop25623" />
      <stop
         style="stop-color:#7f6f1e;stop-opacity:0.92156863"
         offset="1"
         id="stop25625" />
    </linearGradient>
    <linearGradient
       id="linearGradient14653">
      <stop
         style="stop-color:#bda62c;stop-opacity:1;"
         offset="0"
         id="stop14649" />
      <stop
         style="stop-color:#615516;stop-opacity:0.98823529"
         offset="0.09857609"
         id="stop16599" />
      <stop
         style="stop-color:#cab12f;stop-opacity:0.97647059"
         offset="0.25338677"
         id="stop16339" />
      <stop
         style="stop-color:#8c7b20;stop-opacity:0.96862745"
         offset="0.33815062"
         id="stop16405" />
      <stop
         style="stop-color:#87771f;stop-opacity:0.96470588"
         offset="0.4215126"
         id="stop15309" />
      <stop
         style="stop-color:#bda62c;stop-opacity:0.95686275;"
         offset="0.53338844"
         id="stop15113" />
      <stop
         style="stop-color:#82721e;stop-opacity:0.94901961"
         offset="0.62310421"
         id="stop15179" />
      <stop
         style="stop-color:#80711e;stop-opacity:0.93725497"
         offset="0.73470789"
         id="stop15823" />
      <stop
         style="stop-color:#d7be31;stop-opacity:0.92941177"
         offset="0.83540899"
         id="stop15889" />
      <stop
         style="stop-color:#bda62c;stop-opacity:0.9217537"
         offset="1"
         id="stop14651" />
    </linearGradient>
    <linearGradient
       xlink:href="#linearGradient29544"
       id="linearGradient29546-2"
       x1="132.10901"
       y1="575.51141"
       x2="1068.3112"
       y2="320.25305"
       gradientUnits="userSpaceOnUse"
       gradientTransform="matrix(0.36542286,0.03879062,-0.03879062,0.36542286,-31.741152,-30.955575)" />
    <linearGradient
       id="linearGradient29544">
      <stop
         style="stop-color:#1c52f2;stop-opacity:1"
         offset="0"
         id="stop29540" />
      <stop
         style="stop-color:#d62bc3;stop-opacity:0.42363399"
         offset="1"
         id="stop29542" />
    </linearGradient>
    <linearGradient
       xlink:href="#linearGradient4685-3"
       id="linearGradient4551-1"
       x1="1112.811"
       y1="69.067085"
       x2="89.147026"
       y2="487.89313"
       gradientUnits="userSpaceOnUse"
       gradientTransform="matrix(0.36542286,0.03879061,-0.03879061,0.36542286,-31.741152,-37.296295)" />
    <linearGradient
       id="linearGradient4549">
      <stop
         style="stop-color:#8b5cf6;stop-opacity:1"
         offset="0"
         id="stop4545" />
      <stop
         style="stop-color:#6d28d9;stop-opacity:1"
         offset="0.2124767"
         id="stop3695" />
      <stop
         style="stop-color:#6f5cf6;stop-opacity:1"
         offset="0.42963988"
         id="stop3369" />
      <stop
         style="stop-color:#7c3aed;stop-opacity:1"
         offset="0.59961361"
         id="stop3629" />
      <stop
         style="stop-color:#6376f6;stop-opacity:1"
         offset="0.80968213"
         id="stop3499" />
      <stop
         style="stop-color:#6d28d9;stop-opacity:1"
         offset="1"
         id="stop4547" />
    </linearGradient>
    <linearGradient
       xlink:href="#linearGradient10986"
       id="linearGradient12309-5"
       gradientUnits="userSpaceOnUse"
       x1="1181.7125"
       y1="252.36546"
       x2="861.3941"
       y2="436.60165"
       gradientTransform="matrix(0.36747596,0,0,0.36747596,-63.424326,-49.53389)" />
    <linearGradient
       id="linearGradient10986">
      <stop
         style="stop-color:#7e5af0;stop-opacity:1"
         offset="0"
         id="stop10982" />
      <stop
         style="stop-color:#7c61ee;stop-opacity:1"
         offset="0.49538255"
         id="stop136405" />
      <stop
         style="stop-color:#4c6fe2;stop-opacity:1"
         offset="1"
         id="stop10984" />
    </linearGradient>
    <linearGradient
       id="linearGradient1509">
      <stop
         style="stop-color:#3e2fdd;stop-opacity:1"
         offset="0"
         id="stop1505" />
      <stop
         style="stop-color:#a4007e;stop-opacity:1"
         offset="1"
         id="stop1507" />
    </linearGradient>
    <linearGradient
       xlink:href="#linearGradient120453"
       id="linearGradient4479-5"
       x1="1143.1901"
       y1="196.74675"
       x2="120.85666"
       y2="539.48602"
       gradientUnits="userSpaceOnUse"
       gradientTransform="matrix(0.36542286,0.03879061,-0.03879061,0.36542286,-31.741152,-37.296295)" />
    <linearGradient
       id="linearGradient4477">
      <stop
         style="stop-color:#8b5cf6;stop-opacity:1"
         offset="0"
         id="stop4473" />
      <stop
         style="stop-color:#5151dc;stop-opacity:1"
         offset="0.25152168"
         id="stop55155" />
      <stop
         style="stop-color:#3b82f6;stop-opacity:1"
         offset="0.44539982"
         id="stop41682" />
      <stop
         style="stop-color:#8b5cf6;stop-opacity:1"
         offset="0.63944036"
         id="stop94918" />
      <stop
         style="stop-color:#60a5fa;stop-opacity:1"
         offset="0.83593452"
         id="stop98531" />
      <stop
         style="stop-color:#60a5fa;stop-opacity:1"
         offset="1"
         id="stop4475" />
    </linearGradient>
    <linearGradient
       xlink:href="#linearGradient4549"
       id="linearGradient4687-8"
       x1="1155.105"
       y1="262.50851"
       x2="93.583733"
       y2="615.88306"
       gradientUnits="userSpaceOnUse"
       gradientTransform="matrix(0.36542286,0.03879061,-0.03879061,0.36542286,-31.741152,-37.296295)" />
    <linearGradient
       id="linearGradient4685-3">
      <stop
         style="stop-color:#60a5fa;stop-opacity:1"
         offset="0"
         id="stop4681-8" />
      <stop
         style="stop-color:#365fd8;stop-opacity:1"
         offset="0.23215981"
         id="stop17498" />
      <stop
         style="stop-color:#3b82f6;stop-opacity:1"
         offset="0.43870947"
         id="stop26809" />
      <stop
         style="stop-color:#4d4eeb;stop-opacity:1"
         offset="0.65562975"
         id="stop12917" />
      <stop
         style="stop-color:#60a5fa;stop-opacity:1"
         offset="1"
         id="stop4683-5" />
    </linearGradient>
    <linearGradient
       xlink:href="#linearGradient14653"
       id="linearGradient14655"
       x1="-46.183235"
       y1="706.05402"
       x2="1721.9431"
       y2="445.6926"
       gradientUnits="userSpaceOnUse"
       gradientTransform="matrix(0.29991266,0,0,0.29991266,-56.20669,-19.176338)" />
    <linearGradient
       xlink:href="#linearGradient25627"
       id="linearGradient25349"
       x1="-19.32687"
       y1="174.87611"
       x2="365.09894"
       y2="71.86953"
       gradientUnits="userSpaceOnUse"
       gradientTransform="matrix(1.133528,0,0,1.133528,-56.206693,-19.176338)" />
    <linearGradient
       xlink:href="#linearGradient1509"
       id="linearGradient6948"
       gradientUnits="userSpaceOnUse"
       gradientTransform="matrix(0.36747596,0,0,0.36747596,-63.424326,-50.709461)"
       x1="466.89359"
       y1="475.49548"
       x2="1404.4065"
       y2="195.51314" />
    <linearGradient
       xlink:href="#linearGradient29544"
       id="linearGradient24274"
       gradientUnits="userSpaceOnUse"
       gradientTransform="matrix(0.36542286,0.03879062,-0.03879062,0.36542286,-31.741152,-37.296295)"
       x1="132.10901"
       y1="575.51141"
       x2="1068.3112"
       y2="320.25305" />
    <linearGradient
       xlink:href="#linearGradient29544"
       id="linearGradient24276"
       gradientUnits="userSpaceOnUse"
       gradientTransform="matrix(0.36542286,0.03879062,-0.03879062,0.36542286,-31.741152,-30.955575)"
       x1="132.10901"
       y1="575.51141"
       x2="1068.3112"
       y2="320.25305" />
    <linearGradient
       xlink:href="#linearGradient29544"
       id="linearGradient24278"
       gradientUnits="userSpaceOnUse"
       gradientTransform="matrix(0.36542286,0.03879062,-0.03879062,0.36542286,-31.741152,-30.955575)"
       x1="132.10901"
       y1="575.51141"
       x2="1068.3112"
       y2="320.25305" />
    <linearGradient
       xlink:href="#linearGradient29544"
       id="linearGradient24280"
       gradientUnits="userSpaceOnUse"
       gradientTransform="matrix(0.36542286,0.03879062,-0.03879062,0.36542286,-31.741152,-30.955575)"
       x1="132.10901"
       y1="575.51141"
       x2="1068.3112"
       y2="320.25305" />
    <linearGradient
       xlink:href="#linearGradient29544"
       id="linearGradient24282"
       gradientUnits="userSpaceOnUse"
       gradientTransform="matrix(0.36542286,0.03879062,-0.03879062,0.36542286,-31.741152,-30.955575)"
       x1="132.10901"
       y1="575.51141"
       x2="1068.3112"
       y2="320.25305" />
    <linearGradient
       xlink:href="#linearGradient29544"
       id="linearGradient24284"
       gradientUnits="userSpaceOnUse"
       gradientTransform="matrix(0.36542286,0.03879062,-0.03879062,0.36542286,-31.741152,-30.955575)"
       x1="132.10901"
       y1="575.51141"
       x2="1068.3112"
       y2="320.25305" />
    <linearGradient
       xlink:href="#linearGradient29544"
       id="linearGradient24286"
       gradientUnits="userSpaceOnUse"
       gradientTransform="matrix(0.36542286,0.03879062,-0.03879062,0.36542286,-31.741152,-30.955575)"
       x1="132.10901"
       y1="575.51141"
       x2="1068.3112"
       y2="320.25305" />
    <linearGradient
       xlink:href="#linearGradient29544"
       id="linearGradient24288"
       gradientUnits="userSpaceOnUse"
       gradientTransform="matrix(0.36542286,0.03879062,-0.03879062,0.36542286,-31.741152,-30.955575)"
       x1="132.10901"
       y1="575.51141"
       x2="1068.3112"
       y2="320.25305" />
    <linearGradient
       xlink:href="#linearGradient29544"
       id="linearGradient24290"
       gradientUnits="userSpaceOnUse"
       gradientTransform="matrix(0.36542286,0.03879062,-0.03879062,0.36542286,-31.741152,-30.955575)"
       x1="132.10901"
       y1="575.51141"
       x2="1068.3112"
       y2="320.25305" />
    <linearGradient
       xlink:href="#linearGradient29544"
       id="linearGradient24292"
       gradientUnits="userSpaceOnUse"
       gradientTransform="matrix(0.36542286,0.03879062,-0.03879062,0.36542286,-31.741152,-30.955575)"
       x1="132.10901"
       y1="575.51141"
       x2="1068.3112"
       y2="320.25305" />
    <linearGradient
       xlink:href="#linearGradient29544"
       id="linearGradient24294"
       gradientUnits="userSpaceOnUse"
       gradientTransform="matrix(0.36542286,0.03879062,-0.03879062,0.36542286,-31.741152,-30.955575)"
       x1="132.10901"
       y1="575.51141"
       x2="1068.3112"
       y2="320.25305" />
    <linearGradient
       xlink:href="#linearGradient29544"
       id="linearGradient24296"
       gradientUnits="userSpaceOnUse"
       gradientTransform="matrix(0.36542286,0.03879062,-0.03879062,0.36542286,-31.741152,-30.955575)"
       x1="132.10901"
       y1="575.51141"
       x2="1068.3112"
       y2="320.25305" />
    <linearGradient
       xlink:href="#linearGradient29544"
       id="linearGradient24298"
       gradientUnits="userSpaceOnUse"
       gradientTransform="matrix(0.36542286,0.03879062,-0.03879062,0.36542286,-31.741152,-30.955575)"
       x1="132.10901"
       y1="575.51141"
       x2="1068.3112"
       y2="320.25305" />
    <linearGradient
       xlink:href="#linearGradient29544"
       id="linearGradient24300"
       gradientUnits="userSpaceOnUse"
       gradientTransform="matrix(0.36542286,0.03879062,-0.03879062,0.36542286,-31.741152,-30.955575)"
       x1="132.10901"
       y1="575.51141"
       x2="1068.3112"
       y2="320.25305" />
    <linearGradient
       xlink:href="#linearGradient29544"
       id="linearGradient24302"
       gradientUnits="userSpaceOnUse"
       gradientTransform="matrix(0.36542286,0.03879062,-0.03879062,0.36542286,-31.741152,-30.955575)"
       x1="132.10901"
       y1="575.51141"
       x2="1068.3112"
       y2="320.25305" />
    <linearGradient
       xlink:href="#linearGradient29544"
       id="linearGradient24304"
       gradientUnits="userSpaceOnUse"
       gradientTransform="matrix(0.36542286,0.03879062,-0.03879062,0.36542286,-31.741152,-30.955575)"
       x1="132.10901"
       y1="575.51141"
       x2="1068.3112"
       y2="320.25305" />
    <linearGradient
       xlink:href="#linearGradient29544"
       id="linearGradient24306"
       gradientUnits="userSpaceOnUse"
       gradientTransform="matrix(0.36542286,0.03879062,-0.03879062,0.36542286,-31.741152,-30.955575)"
       x1="132.10901"
       y1="575.51141"
       x2="1068.3112"
       y2="320.25305" />
    <linearGradient
       xlink:href="#linearGradient29544"
       id="linearGradient24308"
       gradientUnits="userSpaceOnUse"
       gradientTransform="matrix(0.36542286,0.03879062,-0.03879062,0.36542286,-31.741152,-30.955575)"
       x1="132.10901"
       y1="575.51141"
       x2="1068.3112"
       y2="320.25305" />
    <linearGradient
       xlink:href="#linearGradient29544"
       id="linearGradient24310"
       gradientUnits="userSpaceOnUse"
       gradientTransform="matrix(0.36542286,0.03879062,-0.03879062,0.36542286,-31.741152,-30.955575)"
       x1="132.10901"
       y1="575.51141"
       x2="1068.3112"
       y2="320.25305" />
    <linearGradient
       xlink:href="#linearGradient29544"
       id="linearGradient24312"
       gradientUnits="userSpaceOnUse"
       gradientTransform="matrix(0.36542286,0.03879062,-0.03879062,0.36542286,-31.741152,-30.955575)"
       x1="132.10901"
       y1="575.51141"
       x2="1068.3112"
       y2="320.25305" />
    <linearGradient
       xlink:href="#linearGradient29544"
       id="linearGradient24314"
       gradientUnits="userSpaceOnUse"
       gradientTransform="matrix(0.36542286,0.03879062,-0.03879062,0.36542286,-31.741152,-30.955575)"
       x1="132.10901"
       y1="575.51141"
       x2="1068.3112"
       y2="320.25305" />
    <linearGradient
       xlink:href="#linearGradient29544"
       id="linearGradient24316"
       gradientUnits="userSpaceOnUse"
       gradientTransform="matrix(0.36542286,0.03879062,-0.03879062,0.36542286,-31.741152,-30.955575)"
       x1="132.10901"
       y1="575.51141"
       x2="1068.3112"
       y2="320.25305" />
    <linearGradient
       xlink:href="#linearGradient29544"
       id="linearGradient24318"
       gradientUnits="userSpaceOnUse"
       gradientTransform="matrix(0.36542286,0.03879062,-0.03879062,0.36542286,-31.741152,-30.955575)"
       x1="132.10901"
       y1="575.51141"
       x2="1068.3112"
       y2="320.25305" />
    <linearGradient
       xlink:href="#linearGradient29544"
       id="linearGradient24320"
       gradientUnits="userSpaceOnUse"
       gradientTransform="matrix(0.36542286,0.03879062,-0.03879062,0.36542286,-31.741152,-30.955575)"
       x1="132.10901"
       y1="575.51141"
       x2="1068.3112"
       y2="320.25305" />
    <linearGradient
       xlink:href="#linearGradient29544"
       id="linearGradient24322"
       gradientUnits="userSpaceOnUse"
       gradientTransform="matrix(0.36542286,0.03879062,-0.03879062,0.36542286,-31.741152,-30.955575)"
       x1="132.10901"
       y1="575.51141"
       x2="1068.3112"
       y2="320.25305" />
    <linearGradient
       xlink:href="#linearGradient29544"
       id="linearGradient24324"
       gradientUnits="userSpaceOnUse"
       gradientTransform="matrix(0.36542286,0.03879062,-0.03879062,0.36542286,-31.741152,-30.955575)"
       x1="132.10901"
       y1="575.51141"
       x2="1068.3112"
       y2="320.25305" />
    <linearGradient
       xlink:href="#linearGradient29544"
       id="linearGradient24326"
       gradientUnits="userSpaceOnUse"
       gradientTransform="matrix(0.36542286,0.03879062,-0.03879062,0.36542286,-31.741152,-30.955575)"
       x1="132.10901"
       y1="575.51141"
       x2="1068.3112"
       y2="320.25305" />
    <linearGradient
       xlink:href="#linearGradient29544"
       id="linearGradient24328"
       gradientUnits="userSpaceOnUse"
       gradientTransform="matrix(0.36542286,0.03879062,-0.03879062,0.36542286,-31.741152,-30.955575)"
       x1="132.10901"
       y1="575.51141"
       x2="1068.3112"
       y2="320.25305" />
    <linearGradient
       xlink:href="#linearGradient29544"
       id="linearGradient24330"
       gradientUnits="userSpaceOnUse"
       gradientTransform="matrix(0.36542286,0.03879062,-0.03879062,0.36542286,-31.741152,-30.955575)"
       x1="132.10901"
       y1="575.51141"
       x2="1068.3112"
       y2="320.25305" />
    <linearGradient
       xlink:href="#linearGradient29544"
       id="linearGradient24332"
       gradientUnits="userSpaceOnUse"
       gradientTransform="matrix(0.36542286,0.03879062,-0.03879062,0.36542286,-31.741152,-30.955575)"
       x1="132.10901"
       y1="575.51141"
       x2="1068.3112"
       y2="320.25305" />
    <linearGradient
       xlink:href="#linearGradient29544"
       id="linearGradient24334"
       gradientUnits="userSpaceOnUse"
       gradientTransform="matrix(0.36542286,0.03879062,-0.03879062,0.36542286,-31.741152,-30.955575)"
       x1="132.10901"
       y1="575.51141"
       x2="1068.3112"
       y2="320.25305" />
    <linearGradient
       xlink:href="#linearGradient29544"
       id="linearGradient24336"
       gradientUnits="userSpaceOnUse"
       gradientTransform="matrix(0.36542286,0.03879062,-0.03879062,0.36542286,-31.741152,-30.955575)"
       x1="132.10901"
       y1="575.51141"
       x2="1068.3112"
       y2="320.25305" />
    <linearGradient
       xlink:href="#linearGradient29544"
       id="linearGradient24338"
       gradientUnits="userSpaceOnUse"
       gradientTransform="matrix(0.36542286,0.03879062,-0.03879062,0.36542286,-31.741152,-30.955575)"
       x1="132.10901"
       y1="575.51141"
       x2="1068.3112"
       y2="320.25305" />
    <linearGradient
       xlink:href="#linearGradient29544"
       id="linearGradient24340"
       gradientUnits="userSpaceOnUse"
       gradientTransform="matrix(0.36542286,0.03879062,-0.03879062,0.36542286,-31.741152,-30.955575)"
       x1="132.10901"
       y1="575.51141"
       x2="1068.3112"
       y2="320.25305" />
    <linearGradient
       xlink:href="#linearGradient29544"
       id="linearGradient24342"
       gradientUnits="userSpaceOnUse"
       gradientTransform="matrix(0.36542286,0.03879062,-0.03879062,0.36542286,-31.741152,-30.955575)"
       x1="132.10901"
       y1="575.51141"
       x2="1068.3112"
       y2="320.25305" />
    <linearGradient
       xlink:href="#linearGradient29544"
       id="linearGradient24344"
       gradientUnits="userSpaceOnUse"
       gradientTransform="matrix(0.36542286,0.03879062,-0.03879062,0.36542286,-31.741152,-30.955575)"
       x1="132.10901"
       y1="575.51141"
       x2="1068.3112"
       y2="320.25305" />
    <linearGradient
       xlink:href="#linearGradient29544"
       id="linearGradient24346"
       gradientUnits="userSpaceOnUse"
       gradientTransform="matrix(0.36542286,0.03879062,-0.03879062,0.36542286,-31.741152,-30.955575)"
       x1="132.10901"
       y1="575.51141"
       x2="1068.3112"
       y2="320.25305" />
    <linearGradient
       xlink:href="#linearGradient29544"
       id="linearGradient24348"
       gradientUnits="userSpaceOnUse"
       gradientTransform="matrix(0.36542286,0.03879062,-0.03879062,0.36542286,-31.741152,-30.955575)"
       x1="132.10901"
       y1="575.51141"
       x2="1068.3112"
       y2="320.25305" />
    <linearGradient
       xlink:href="#linearGradient29544"
       id="linearGradient24350"
       gradientUnits="userSpaceOnUse"
       gradientTransform="matrix(0.36542286,0.03879062,-0.03879062,0.36542286,-31.741152,-30.955575)"
       x1="132.10901"
       y1="575.51141"
       x2="1068.3112"
       y2="320.25305" />
    <linearGradient
       xlink:href="#linearGradient4477"
       id="linearGradient118139"
       x1="100.59962"
       y1="115.7887"
       x2="345.10434"
       y2="-9.8373604"
       gradientUnits="userSpaceOnUse" />
    <linearGradient
       xlink:href="#linearGradient25627"
       id="linearGradient161031"
       x1="-12.419965"
       y1="169.75165"
       x2="373.66388"
       y2="-5.8339572"
       gradientUnits="userSpaceOnUse"
       gradientTransform="translate(0,-6.340717)" />
  </defs>
  <rect
     style="fill:#1b1e20;fill-opacity:1;stroke:none;stroke-width:0.141145;stroke-linecap:round;stroke-linejoin:round;paint-order:stroke fill markers;stop-color:#000000"
     id="rect3074-7"
     width="361.42087"
     height="203.20001"
     x="7.1054274e-15"
     y="0" />
  <path
     id="path145852"
     style="fill:url(#linearGradient161031);fill-opacity:1;stroke:none;stroke-width:0.0972278px;stroke-linecap:butt;stroke-linejoin:miter;stroke-opacity:1"
     d="m 366.07948,-17.038618 c -54.29266,6.82736 -50.39759,77.249082 -100.33032,85.299872 -33.1936,1.864143 -43.73057,-8.49572 -68.98751,-2.13669 -30.08479,7.574559 -48.0368,34.962866 -73.74331,37.435836 -27.534268,2.64875 -58.849379,-11.189528 -88.712421,3.02695 -18.54139,8.82674 -27.1877003,31.38393 -38.0354073,47.51383 v 20.62775 c 24.3300973,-13.94935 45.4484143,-35.28482 63.0064933,-40.8466 17.895444,-5.66865 36.272911,-2.34131 54.995095,-1.88878 16.48869,0.39853 33.62326,-11.03764 50.62896,-12.1667 33.99868,-2.2574 70.74426,6.46569 104.06445,1.0232 32.34003,-5.28238 55.27221,-31.445745 85.75086,-39.167645 3.69726,-0.936712 7.49652,-1.479897 11.36311,-1.763715 z" />
  <path
     id="path3392"
     style="fill:none;stroke:url(#linearGradient118139);stroke-width:0.0972279px;stroke-linecap:butt;stroke-linejoin:miter;stroke-opacity:1"
     d="m 98.724184,128.79718 c 0,0 28.192086,-4.59151 42.309526,-6.75038 20.25313,-3.09714 40.75187,-4.7602 60.81821,-8.89829 20.05713,-4.13619 40.31783,-8.31847 59.34949,-15.881048 24.60192,-9.776021 45.61616,-27.154108 69.88608,-37.727473 11.28176,-4.914977 34.96481,-11.848084 34.96481,-11.848084 M 98.123013,128.24884 c 0,0 28.436257,-4.5336 42.645947,-6.85249 20.24982,-3.30458 40.659,-5.78085 60.72503,-10.06214 20.09814,-4.28815 40.58618,-7.92209 59.63907,-15.623433 24.44494,-9.880863 44.99912,-27.740114 68.95409,-38.755848 11.60491,-5.336539 35.99639,-13.139013 35.99639,-13.139013 M 97.521832,127.70049 c 0,0 28.681478,-4.4734 42.981448,-6.95334 20.25197,-3.51216 40.56062,-6.79787 60.63264,-11.22409 20.13886,-4.44097 40.85659,-7.52371 59.92875,-15.368963 24.28723,-9.990438 44.3617,-28.34602 67.99815,-39.791367 11.91953,-5.771727 37.0064,-14.457474 37.0064,-14.457474 M 96.920641,127.15209 c 0,0 28.927759,-4.41104 43.316059,-7.05294 20.25959,-3.71996 40.45689,-7.81135 60.54115,-12.38424 20.17925,-4.59451 41.13042,-7.12014 60.21845,-15.117536 24.15498,-10.120312 43.74088,-29.024167 67.08169,-40.902301 12.25703,-6.237598 38.09854,-15.836108 38.09854,-15.836108 M 96.31947,126.60376 c 0,0 29.17508,-4.34674 43.64976,-7.15141 20.2726,-3.92808 40.34785,-8.82143 60.45053,-13.54266 20.21931,-4.74863 41.40493,-6.718219 60.50819,-14.869002 23.9951,-10.237985 43.05987,-29.660869 66.07529,-41.943847 12.55066,-6.698094 39.05827,-17.201835 39.05827,-17.201835 M 95.718289,126.05541 c 0,0 29.423421,-4.28062 43.982591,-7.24873 20.29094,-4.13661 40.23361,-9.82825 60.36083,-14.69951 20.25902,-4.903168 41.68276,-6.311697 60.79787,-14.623195 23.85926,-10.374308 42.39182,-30.361636 65.10392,-43.052224 12.86295,-7.187286 40.09085,-18.620846 40.09085,-18.620846 M 95.117108,125.50702 c 0,0 29.672772,-4.21286 44.314552,-7.34498 20.31456,-4.34564 40.11424,-10.83196 60.27203,-15.85491 20.29837,-5.057983 41.963,-5.902789 61.08751,-14.37983 23.7315,-10.519112 41.71342,-31.090157 64.12874,-44.181711 13.17302,-7.693637 41.13077,-20.068515 41.13077,-20.068515 M 94.515938,124.95867 c 0,0 29.923092,-4.14365 44.645632,-7.44029 20.34338,-4.55525 39.98979,-11.8328 60.1841,-17.00908 20.3374,-5.21295 42.24563,-5.491829 61.37718,-14.13872 23.61185,-10.671858 41.02449,-31.843462 63.15007,-45.329267 13.47982,-8.216111 42.17676,-21.540916 42.17676,-21.540916 M 93.914746,124.41034 c 0,0 30.174344,-4.07316 44.975834,-7.53473 20.37731,-4.76557 39.86027,-12.83103 60.09698,-18.16223 20.37611,-5.367924 42.53051,-5.079124 61.66693,-13.899447 C 284.1541,73.982531 300.97863,52.197326 322.82124,38.324637 336.60265,29.57178 366.0458,15.292154 366.0458,15.292154 M 93.313555,123.86196 c 0,0 30.426495,-4.00154 45.305105,-7.62838 20.41629,-4.97671 39.7257,-13.82699 60.01061,-19.31469 20.41455,-5.522775 42.81756,-4.664862 61.95685,-13.661647 C 283.9821,72.25952 300.20046,49.848551 321.76864,35.59599 335.847,26.292806 366.04674,11.056312 366.04674,11.056312 M 92.712395,123.31361 c 0,0 30.679495,-3.92895 45.633495,-7.72127 20.4602,-5.18869 39.58622,-14.82059 59.92503,-20.466368 20.4527,-5.677391 43.09493,-4.273936 62.24684,-13.425431 23.0014,-10.990922 38.5071,-33.586893 59.51019,-48.034556 14.02649,-9.648582 44.16981,-25.6430522 44.16981,-25.6430522 l 0.92851,-0.6238442 0.9285,-0.6238443 M 92.111214,122.76524 c 0,0 30.933386,-3.85538 45.961106,-7.8132 20.50906,-5.40141 39.44212,-15.811368 59.8405,-21.616812 20.49053,-5.831672 43.39816,-3.832325 62.53657,-13.191373 C 283.66306,68.791927 298.61174,45.097956 319.65363,30.098641 334.30839,19.652273 366.05015,2.4877772 366.05015,2.4877772 M 91.510023,122.2169 c 0,0 31.187957,-3.78138 46.287607,-7.90497 20.56258,-5.61547 39.29267,-16.801478 59.75613,-22.768026 20.52833,-5.98546 43.69106,-3.415081 62.82726,-12.956763 23.13415,-11.535132 37.42367,-35.876163 58.21624,-51.23575 14.93181,-11.030211 47.45686,-29.1456255 47.45686,-29.1456255 M 90.908842,121.66853 c 0,0 31.443168,-3.70703 46.613018,-7.99652 20.62071,-5.8308 39.13799,-17.790742 59.67202,-23.919821 20.56609,-6.138646 43.98531,-2.997667 63.11878,-12.721721 23.06067,-11.719947 36.67664,-36.70535 57.22845,-52.414422 15.19921,-11.617731 48.51158,-30.667809 48.51158,-30.667809 M 90.307682,121.12018 c 0,0 31.698948,-3.63247 46.937278,-8.08796 20.68334,-6.04754 38.97802,-18.779476 59.588,-25.072494 20.6039,-6.291162 44.28079,-2.580285 63.41133,-12.485946 22.99385,-11.906058 35.92359,-37.531969 56.24425,-53.580078 15.45773,-12.2076399 49.56381,-32.173587 49.56381,-32.173587 M 89.706469,120.57182 c 0,0 31.955261,-3.55787 47.260381,-8.1794 20.75038,-6.26577 38.81273,-19.767964 59.50399,-26.226298 20.64186,-6.442912 44.57732,-2.163089 63.70507,-12.249043 22.93323,-12.092558 35.16561,-38.352631 55.26471,-54.729106 15.70714,-12.7979692 50.61278,-33.658092 50.61278,-33.658092 M 89.105309,120.02347 c 0,0 32.212011,-3.48337 47.582231,-8.2709 20.82173,-6.48558 38.64208,-20.756426 59.41986,-27.381423 20.68002,-6.593826 44.87469,-1.746285 64.00014,-12.010737 22.87741,-12.278093 34.40266,-39.162425 54.28872,-55.855897 15.94631,-13.3862284 51.65428,-35.1158 51.65428,-35.1158 M 88.504118,119.4751 c 0,0 32.469172,-3.40908 47.902842,-8.36256 20.89727,-6.70703 38.46599,-21.74514 59.33548,-28.53813 20.7185,-6.743842 45.17278,-1.329938 64.29675,-11.770719 22.82728,-12.462623 33.6376,-39.961283 53.3204,-56.96097 16.17679,-13.97160844 52.69314,-36.544248 52.69314,-36.544248 M 87.902947,118.92675 c 0,0 32.726653,-3.33517 48.222133,-8.45445 20.97693,-6.9302 38.28444,-22.734241 59.25075,-29.696516 20.75738,-6.892896 45.47143,-0.914169 64.595,-11.528768 22.78086,-12.644588 32.86966,-40.743761 52.35722,-58.037936 16.39703,-14.5514931 53.72309,-37.938185 53.72309,-37.938185 M 87.301777,118.37838 c 0,0 32.984393,-3.26173 48.540063,-8.54663 21.06061,-7.15515 38.09741,-23.723976 59.16559,-30.856818 20.79672,-7.040942 45.77048,-0.499 64.89504,-11.28463 22.73846,-12.823746 32.10097,-41.509271 51.40189,-59.0865336 16.60815,-15.1249649 54.747,-39.2953284 54.747,-39.2953284 M 86.700596,117.83003 c 0,0 33.242344,-3.18886 48.856634,-8.63916 21.14819,-7.38193 37.90482,-24.714475 59.07983,-32.019133 20.83664,-7.187935 46.06984,-0.08444 65.19702,-11.038122 C 282.53315,53.134396 291.16601,23.878646 310.2881,6.0300223 327.09798,-9.6603742 366.05073,-34.582465 366.05073,-34.582465 M 86.099415,117.28169 c 0,0 33.500435,-3.1167 49.171785,-8.73208 21.2396,-7.61061 37.7067,-25.705889 58.99346,-33.183593 20.87722,-7.333837 46.36941,0.329532 65.50105,-10.789089 C 282.42799,51.406434 290.32925,21.597551 309.28003,3.4893022 326.28263,-12.757378 366.04999,-38.39814 366.04999,-38.39814 M 85.498234,116.73332 c 0,0 33.758606,-3.0453 49.485486,-8.82542 21.33477,-7.8412 37.50305,-26.698355 58.90642,-34.350309 20.91853,-7.478613 46.6691,0.742996 65.80723,-10.537342 C 282.32501,49.683131 289.49415,19.338947 308.28084,0.98276912 325.46757,-15.810113 366.04987,-42.135691 366.04987,-42.135691 M 84.897042,116.18496 c 0,0 34.016828,-2.97476 49.797738,-8.91924 21.43356,-8.073742 37.29381,-27.691968 58.81856,-35.519359 20.96062,-7.622247 46.96886,1.156009 66.11566,-10.282803 22.59458,-13.498611 29.03222,-44.359411 47.66153,-62.9517901 17.36252,-17.3281009 58.75911,-44.3040449 58.75911,-44.3040449 M 84.295872,115.6366 c 0,0 34.275008,-2.90518 50.108498,-9.01353 21.53593,-8.308285 37.07901,-28.686816 58.72987,-36.690814 21.00359,-7.764713 47.26865,1.568667 66.42639,-10.0254 22.56251,-13.654597 28.27035,-45.012717 46.74842,-63.829623 17.53018,-17.851636 59.73949,-45.443228 59.73949,-45.443228 M 83.694691,115.08825 c 0,0 34.533109,-2.8366 50.417759,-9.10835 21.64176,-8.544835 36.85867,-29.682978 58.64029,-37.864726 21.04751,-7.905992 47.56843,1.981108 66.73953,-9.765002 C 282.02372,44.54518 287.0046,12.708782 305.33762,-6.3213066 323.0282,-24.684521 366.04927,-52.857023 366.04927,-52.857023 M 83.0935,114.53986 c 0,0 34.79108,-2.76908 50.7255,-9.20365 21.751,-8.78341 36.63284,-30.680488 58.54983,-39.041111 21.09241,-8.046071 47.8682,2.393486 67.05506,-9.501623 22.50025,-13.949288 26.7575,-46.243828 44.95042,-65.4756254 17.84324,-18.8621496 61.67252,-47.5810466 61.67252,-47.5810466 M 82.492319,113.99152 c 0,0 35.048881,-2.70273 51.031701,-9.29953 21.86355,-9.024043 36.40148,-31.679452 58.45836,-40.220055 21.1384,-8.184955 48.16795,2.805867 67.37312,-9.235161 22.46992,-14.087919 26.00823,-46.8221442 44.06704,-66.24497 17.99003,-19.348858 62.62722,-48.579911 62.62722,-48.579911 M 81.891159,113.44317 c 0,0 35.306451,-2.63754 51.336371,-9.39592 21.97933,-9.266702 36.16472,-32.679791 58.36597,-41.401457 21.18547,-8.322625 48.46772,3.218476 67.69365,-8.965701 22.43886,-14.220322 25.26283,-47.3743154 43.19167,-66.97728 18.12983,-19.822721 63.57052,-49.532497 63.57052,-49.532497" />
  <path
     id="path22726"
     style="font-variation-settings:normal;vector-effect:none;fill:none;fill-opacity:1;stroke:url(#linearGradient24274);stroke-width:0.291682;stroke-linecap:butt;stroke-linejoin:miter;stroke-miterlimit:4;stroke-dasharray:none;stroke-dashoffset:0;stroke-opacity:1;stop-color:#000000"
     d="M -1.9805378,185.7826 C 17.995886,180.61929 39.40217,150.20688 61.298983,146.9353 c 25.835984,-3.86012 46.873787,18.27175 73.650307,18.78274 44.3525,0.84646 65.59885,-44.43953 119.82253,-13.23801 23.61202,13.58689 63.81784,1.63935 85.79167,-24.88733 M -2.1967692,185.32083 C 17.572509,180.02019 38.750234,149.12926 60.867408,145.9589 c 25.740081,-3.74859 47.174102,18.1669 74.220522,18.4277 43.75822,0.69013 65.23457,-43.71029 118.70405,-13.36043 23.78895,13.17509 63.20229,1.49884 85.47479,-24.28365 M -2.4130037,184.85906 C 17.149119,179.42111 38.098301,148.05159 60.43584,144.98249 c 25.644212,-3.63706 47.47444,18.06211 74.79071,18.07261 43.16397,0.53383 64.87034,-42.98102 117.58559,-13.48281 23.96581,12.76329 62.58672,1.35832 85.1579,-23.67994 M -2.6292341,184.39729 C 16.725749,178.82201 37.44637,146.97393 60.004255,144.00608 c 25.54835,-3.52547 47.774755,17.95732 75.360925,17.71758 42.5697,0.37747 64.50609,-42.25181 116.46711,-13.60518 24.1427,12.35144 61.97124,1.21771 84.84106,-23.07631 M -2.8454709,183.93552 c 19.1478279,-5.71257 39.6399079,-38.03923 62.4181479,-40.90585 25.452495,-3.41391 48.075103,17.85251 75.931133,17.36257 41.97546,0.22111 64.14183,-41.5226 115.34866,-13.72758 24.31959,11.93959 61.35567,1.07716 84.52413,-22.4727 M -3.0616979,183.47375 c 18.9406749,-5.84988 39.2042019,-38.65512 62.2027999,-41.42053 25.356612,-3.30236 48.375398,17.74777 76.501348,17.00754 41.38116,0.0647 63.77758,-40.79333 114.23017,-13.84998 24.49645,11.52779 60.74014,0.93665 84.2072,-21.86897 M -3.2779326,183.01198 C 15.455591,177.02482 35.49057,143.74099 58.709535,141.07684 c 25.260754,-3.19086 48.675715,17.6429 77.071545,16.65246 40.78692,-0.0915 63.41334,-40.06409 113.11171,-13.97238 24.67335,11.11597 60.12461,0.79613 83.89033,-21.26532 M -3.4941639,182.5502 c 18.5263759,-6.12448 38.3328009,-39.88687 61.7721229,-42.44979 25.164872,-3.07927 48.976051,17.53813 77.641731,16.29742 40.19267,-0.24783 63.04909,-39.33484 111.99325,-14.09473 24.85025,10.7041 59.50908,0.65556 83.57341,-20.66166 M -3.7103954,182.08843 C 14.60883,175.82663 34.186703,141.5857 57.846382,139.12401 c 25.068999,-2.9677 49.276368,17.43329 78.211928,15.94238 39.59839,-0.40419 62.68481,-38.60564 110.87478,-14.21713 25.02714,10.29228 58.89354,0.51502 83.25654,-20.05803 M -3.7297674,181.556 c 18.0554464,-6.57951 37.3510354,-41.05649 61.1445844,-43.4084 24.973139,-2.85617 49.576683,17.32848 78.782093,15.58733 39.00415,-0.56055 62.32061,-37.8764 109.75635,-14.33955 25.20401,9.88048 58.27799,0.3745 82.93962,-19.4543 M -3.7297865,181.00912 c 17.7860725,-6.91976 36.7978605,-41.59613 60.7130255,-43.83791 24.87727,-2.74461 49.877021,17.22368 79.352301,15.23225 38.40987,-0.71683 61.95638,-37.14714 108.63787,-14.4619 25.3809,9.46863 57.66248,0.23395 82.62277,-18.8507 M -3.7297465,180.45388 c 17.5167125,-7.26489 36.2487075,-42.12669 60.2814105,-44.2591 24.781387,-2.63307 50.177346,17.11888 79.922506,14.87723 37.81564,-0.87317 61.59214,-36.4179 107.51937,-14.58431 25.55779,9.0568 57.04696,0.0935 82.30592,-18.24703 M -3.7292359,179.88966 c 17.2472869,-7.61519 35.7034779,-42.6477 59.8493219,-44.67128 24.685508,-2.5215 50.477684,17.01406 80.492714,14.52218 37.22137,-1.02952 61.22788,-35.68865 106.40091,-14.70668 25.73469,8.64495 56.43138,-0.0473 81.989,-17.64337 m -328.7322359,61.926 c 16.9782309,-7.96936 35.1630329,-43.15907 59.4180239,-45.07456 24.58966,-2.40996 50.778022,16.90925 81.062942,14.16715 36.62707,-1.18582 60.8636,-34.95944 105.28247,-14.82908 25.91153,8.23313 55.81583,-0.18769 81.67205,-17.03968 M -3.7296299,178.73349 C 12.979689,170.40531 30.897324,135.0736 55.256944,133.26555 c 24.493777,-2.29842 51.078326,16.80445 81.633126,13.81207 36.0328,-1.34212 60.49935,-34.23015 104.16397,-14.95147 26.08844,7.82135 55.20031,-0.32816 81.35519,-16.43603 M -3.7296309,178.14003 c 16.4406389,-8.69133 34.0954699,-44.14956 58.5549869,-45.8509 24.397908,-2.18686 51.378684,16.69967 82.203344,13.45704 35.43854,-1.49848 60.13511,-33.50094 103.04551,-15.07384 26.26534,7.40948 54.58481,-0.46879 81.0383,-15.8324 M -3.7297243,177.53575 c 16.1723323,-9.0586 33.5688493,-44.62767 58.1235153,-46.22304 24.302036,-2.07529 51.678989,16.59487 82.773529,13.10201 34.84426,-1.65483 59.77085,-32.77168 101.92705,-15.19623 26.4422,6.99764 53.96924,-0.60932 80.72137,-15.22872 M -3.7298558,176.91991 C 12.174594,167.49024 29.31737,131.8265 53.962213,130.33631 c 24.206186,-1.96376 51.979317,16.49005 83.343727,12.74695 34.25004,-1.81114 59.40663,-32.04246 100.80857,-15.3186 26.6191,6.5858 53.35374,-0.74987 80.4045,-14.6251 M -3.7298241,176.29182 C 11.90719,166.48725 28.800863,130.74568 53.530628,129.35991 c 24.110314,-1.85224 52.279652,16.38524 83.913932,12.39189 33.65574,-1.96747 59.04238,-31.31324 99.69012,-15.44102 26.79594,6.17403 52.73816,-0.89039 80.08761,-14.02138 M -3.729606,175.65069 c 15.370136,-10.18305 32.019411,-45.985 56.828656,-47.26718 24.014423,-1.74069 52.57997,16.2804 84.48413,12.03682 33.0615,-2.1238 58.67815,-30.58396 98.57166,-15.56338 26.97287,5.76215 52.12267,-1.03094 79.7707,-13.41774 M -3.7296553,174.99612 C 11.374361,164.43175 27.784138,128.58656 52.667485,127.40706 c 23.918573,-1.62909 52.880295,16.17566 85.054305,11.68186 32.46726,-2.28018 58.3139,-29.85476 97.45322,-15.68582 27.14975,5.35034 51.50709,-1.17149 79.45383,-12.81407 M -3.729573,174.32708 c 14.838661,-10.94858 31.013876,-46.81877 55.965481,-47.89642 23.822682,-1.51755 53.180622,16.07084 85.624542,11.32679 31.87297,-2.43647 57.94962,-29.12552 96.33472,-15.80817 27.32663,4.9385 50.89157,-1.31206 79.1369,-12.21045 M -3.7298849,173.64317 c 14.5743259,-11.3349 30.5200789,-47.21216 55.5342169,-48.18894 23.726811,-1.40599 53.480948,15.96606 86.194718,10.97176 31.27875,-2.59282 57.58541,-28.39626 95.21629,-15.93055 27.5035,4.52665 50.27601,-1.45259 78.82,-11.60676 M -3.7297627,172.94289 C 10.581142,161.21928 26.30251,125.35466 51.372755,124.47782 c 23.630963,-1.29444 53.781275,15.86124 86.764925,10.61666 30.68445,-2.74911 57.22115,-27.66696 94.0978,-16.05291 27.68043,4.11488 49.66049,-1.59313 78.50314,-11.00312 M -3.729433,172.22549 c 14.048591,-12.11404 29.550778,-47.94617 54.670612,-48.72408 23.535078,-1.18287 54.081621,15.75644 87.335121,10.26163 30.09021,-2.90544 56.85692,-26.93778 92.97933,-16.17532 27.85728,3.70303 49.04501,-1.73366 78.18627,-10.39944 M -3.729769,171.49082 c 13.787765,-12.50505 29.076207,-48.28578 54.239371,-48.96583 23.439219,-1.07131 54.381928,15.65167 87.905328,9.90662 29.49591,-3.06182 56.49263,-26.20854 91.86086,-16.29772 28.03418,3.29117 48.42943,-1.87423 77.86936,-9.79579 M -3.7300175,170.73723 C 9.7983483,157.84051 24.878442,122.13182 50.078037,121.54857 c 23.343348,-0.95978 54.682263,15.54685 88.475523,9.55155 28.90167,-3.2181 56.12838,-25.47927 90.74238,-16.42009 28.21107,2.8794 47.8139,-2.01476 77.55249,-9.19212 M -3.729374,169.9629 c 13.2703528,-13.28909 28.147515,-48.90314 53.375833,-49.39072 23.247479,-0.84822 54.982551,15.44204 89.045731,9.19649 28.30742,-3.37444 55.76415,-24.75004 89.62392,-16.5425 28.38794,2.46759 47.19837,-2.15528 77.23557,-8.58844 M -3.7298915,169.16878 c 13.0144242,-13.67994 27.6943855,-49.17993 52.9447755,-49.573 23.151596,-0.73668 55.282896,15.33719 89.615926,8.84146 27.71314,-3.5308 55.39991,-24.02083 88.50549,-16.66491 28.56484,2.05574 46.5828,-2.29581 76.91863,-7.98478 M -3.7298259,168.35196 c 12.7603234,-14.06995 27.2486999,-49.43278 52.5131319,-49.7326 23.055738,-0.62514 55.583224,15.23242 90.186154,8.48638 27.11887,-3.68709 55.03564,-23.29156 87.38697,-16.78726 28.74172,1.64391 45.96731,-2.43637 76.60177,-7.3811 M -3.7298145,167.51194 c 12.5083988,-14.45783 26.8109595,-49.66117 52.0815455,-49.869 22.959856,-0.51359 55.883569,15.12759 90.756339,8.13136 26.5246,-3.84339 54.67141,-22.56233 86.26852,-16.90969 28.91859,1.23211 45.35176,-2.57686 76.28487,-6.77743 M -3.7297206,166.64732 C 8.5291131,151.80439 22.651684,116.7837 47.920154,116.66652 c 22.864007,-0.40201 56.183876,15.02284 91.326536,7.77631 25.93036,-3.99975 54.30717,-21.83307 85.15006,-17.03203 29.09549,0.82026 44.73625,-2.71745 75.96801,-6.17381 M -3.7297103,165.75703 C 8.282165,150.53281 22.230648,115.71801 47.488586,115.69012 c 22.768107,-0.29046 56.484214,14.91801 91.896734,7.42125 25.33608,-4.1561 53.94289,-21.10382 84.03159,-17.15443 29.27237,0.40844 44.12073,-2.858 75.6511,-5.57011 M -3.729742,164.83977 c 11.7677601,-15.60084 25.548098,-50.18597 50.786756,-50.12606 22.672261,-0.17893 56.784526,14.8132 92.466906,7.06623 24.74184,-4.31242 53.57869,-20.3746 82.91317,-17.27683 29.44923,-0.001 43.50514,-2.99852 75.33417,-4.966482 M -3.7299127,163.89428 C 7.7968266,147.92258 21.415022,113.59104 46.625436,113.7373 c 22.576371,-0.0672 57.084884,14.7084 93.037104,6.71117 24.14758,-4.46872 53.21447,-19.64536 81.79468,-17.39923 29.62614,-0.41522 42.88965,-3.139052 75.01732,-4.362786 M -3.7300349,162.91898 c 11.2890386,-16.33586 24.7511079,-50.3891 49.9238909,-50.1581 22.480525,0.0442 57.385184,14.60357 93.607314,6.35612 23.55335,-4.62508 52.85022,-18.91613 80.67621,-17.52158 29.80301,-0.82707 42.27411,-3.279636 74.70041,-3.759158 M -3.7297444,161.9119 C 7.3251025,145.21959 20.637075,111.47034 45.762289,111.78449 c 22.384635,0.15577 57.685521,14.49878 94.177541,6.00105 22.95903,-4.78143 52.48592,-18.186862 79.5577,-17.64397 29.97993,-1.238904 41.65857,-3.420202 74.38353,-3.15549 M -3.7314708,160.8754 c 10.824925,-17.03869 23.9929228,-50.46296 49.0621838,-50.06734 22.288774,0.2673 57.985837,14.39396 94.747727,5.64602 22.36477,-4.93772 52.12167,-17.457614 78.43929,-17.766356 30.15678,-1.650734 41.043,-3.56071 74.06664,-2.551848 M -3.7321019,159.80332 C 6.8668407,142.42805 19.896834,109.35635 44.899138,109.83163 c 22.192892,0.37885 58.286162,14.28924 95.317912,5.291 21.77054,-5.09407 51.75745,-16.728386 77.32081,-17.88878 30.33369,-2.062536 40.42751,-3.70124 73.74973,-1.948136 M -3.7306715,158.69245 C 6.6463951,140.99147 19.544322,108.30211 44.467558,108.85523 c 22.097057,0.49041 58.586512,14.18438 95.888122,4.93593 21.17627,-5.25037 51.39319,-15.999168 76.20235,-18.011154 30.51054,-2.474369 39.81196,-3.841788 73.43284,-1.344514" />
  <path
     id="path2997-1"
     style="fill:url(#linearGradient4551-1);fill-opacity:1;stroke:none;stroke-width:0.0972278px;stroke-linecap:butt;stroke-linejoin:miter;stroke-opacity:1"
     d="m 366.07948,-15.253354 c -54.29266,6.8273586 -50.39759,76.073794 -100.33032,84.124584 -33.1936,1.864143 -43.73057,-7.281971 -68.98751,-0.922941 -30.08479,7.574559 -48.0368,33.749131 -73.74331,36.222101 -27.534268,2.64875 -58.849379,-10.664259 -88.712421,3.55224 -18.54139,8.82674 -27.1877003,31.307 -38.0354073,47.4369 v 21.97282 C 20.600609,163.183 41.718926,141.84753 59.277005,136.28575 c 17.895444,-5.66865 36.272911,-2.34131 54.995095,-1.88878 16.48869,0.39853 33.62326,-11.03764 50.62896,-12.1667 33.99868,-2.2574 70.74426,6.46569 104.06445,1.0232 32.34003,-5.28238 55.27221,-31.445763 85.75086,-39.167663 3.69726,-0.936712 7.49652,-1.479897 11.36311,-1.763715 z" />
  <path
     id="path6969-8"
     style="fill:url(#linearGradient12309-5);fill-opacity:1;stroke:none;stroke-width:0.0972279px;stroke-linecap:butt;stroke-linejoin:miter;stroke-opacity:1"
     d="m 366.07967,32.188389 c -33.80341,4.492007 -50.86032,18.170532 -71.75409,46.801606 -24.79969,33.983375 -70.99259,20.729723 -70.99259,20.729723 l 54.51323,19.231322 88.23345,-16.06232 z" />
  <path
     id="path3305"
     style="fill:none;fill-opacity:1;stroke:url(#linearGradient6948);stroke-width:0.0972279px;stroke-linecap:butt;stroke-linejoin:miter;stroke-opacity:1"
     d="m 106.56543,119.10735 c 8.04853,0.74053 28.8792,-0.39804 36.77005,-3.09118 40.12983,-19.534622 55.128,-41.757214 100.87793,-28.481891 51.2982,14.885291 68.9745,-54.988514 121.94116,-62.724471 M 106.27611,134.83462 c 0,0 18.60356,-0.9188 44.65745,-2.48134 46.01162,-3.24172 60.12553,-2.38511 110.44561,11.2751 34.59457,9.39127 71.61969,-35.68915 104.78709,-41.65343 m -259.88017,32.31737 c 0.27755,0.0255 18.95789,-0.90087 44.38545,-2.50239 45.78833,-3.85915 60.07835,-3.75291 110.11575,9.90414 34.93498,9.53504 71.91096,-35.62103 105.38171,-41.952882 M 106.29607,133.74998 c 0.55509,0.0514 19.31221,-0.8829 44.11348,-2.52337 45.56413,-4.47505 60.02627,-5.12709 109.78577,8.53317 35.28047,9.6854 72.20287,-35.58171 105.97133,-42.294998 m -259.8606,35.742868 c 0.8326,0.0765 19.66655,-0.8649 43.84152,-2.54443 45.3008,-5.09021 60.02904,-6.4912 109.45585,7.16232 35.63165,9.84278 72.49507,-35.57425 106.55559,-42.681406 M 106.31603,132.66535 c 1.11011,0.10213 20.02088,-0.84698 43.56951,-2.56545 45.08781,-5.70549 59.96009,-7.88065 109.12593,5.79131 35.99387,10.00912 72.79795,-35.60396 107.14956,-43.116794 M 106.32598,132.12303 c 1.38771,0.12774 20.37524,-0.82904 43.29755,-2.58647 44.88418,-6.31956 59.87645,-9.28003 108.79607,4.42039 36.36685,10.18489 73.10884,-35.674786 107.74958,-43.602274 M 106.33599,131.5807 c 1.6652,0.15318 20.72955,-0.81104 43.02553,-2.60748 44.66041,-6.91758 59.76898,-10.69221 108.46613,3.04949 36.74923,10.37015 73.42227,-35.789952 108.3482,-44.137436 M 106.34596,131.03836 c 1.94274,0.17877 21.08387,-0.79306 42.7536,-2.6285 44.43357,-7.52143 59.69211,-12.10243 108.1362,1.67858 37.13975,10.56523 73.73284,-35.95337 108.93814,-44.721399 M 106.35592,130.49605 c 2.2203,0.2043 21.43824,-0.77513 42.48161,-2.64952 44.20693,-8.12179 59.60679,-13.50966 107.80631,0.30758 37.56543,10.7688 74.0205,-36.165179 109.5209,-45.354697 M 106.36591,129.95373 c 2.49781,0.2298 21.79252,-0.75715 42.20963,-2.67056 43.98076,-8.71828 59.51745,-14.93055 107.47632,-1.06331 38.08063,11.01095 74.23612,-36.418028 110.09809,-46.037623 M 106.3759,129.4114 c 2.77536,0.25537 22.14686,-0.73921 41.93763,-2.6916 43.75537,-9.31082 59.42413,-16.36521 107.14644,-2.43423 38.54607,11.25228 74.53183,-36.759674 110.69362,-46.775819 M 106.38585,128.8691 c 3.05292,0.28089 22.50123,-0.72127 41.66568,-2.71264 43.53116,-9.89907 59.32529,-17.81037 106.81648,-3.80517 39.03059,11.51015 74.82378,-37.17578 111.28358,-47.561246 M 106.39582,128.32677 c 3.33044,0.30642 22.85554,-0.7033 41.3937,-2.73366 43.30854,-10.48266 59.2213,-19.26692 106.4866,-5.17612 39.53733,11.78693 75.11852,-37.676703 111.87465,-48.392988 M 106.40582,127.78445 c 3.60796,0.33195 23.20987,-0.68534 41.1217,-2.7547 43.08784,-11.0614 59.11194,-20.73556 106.15666,-6.54702 40.06633,12.08388 75.41827,-38.27162 112.46533,-49.266644 M 106.4158,127.24214 c 3.88551,0.35749 23.56418,-0.6674 40.84972,-2.77574 42.86957,-11.63501 58.9973,-22.21733 105.82674,-7.91793 40.61716,12.40248 75.72862,-38.970714 113.05559,-50.176788 M 106.42575,126.6998 c 4.16304,0.38304 23.91857,-0.64942 40.57777,-2.79674 42.65407,-12.2035 58.87733,-23.71253 105.49684,-9.2889 41.18845,12.74332 76.05779,-39.783823 113.64565,-51.116511 M 106.43574,126.15747 c 4.44059,0.40857 24.27287,-0.63148 40.30577,-2.81775 42.44184,-12.76636 58.75182,-25.221416 105.16692,-10.65982 41.77803,13.10682 76.41786,-40.72068 114.23708,-52.077941 M 106.44572,125.61519 c 4.71812,0.43411 24.6272,-0.61355 40.03379,-2.83882 42.23323,-13.32357 58.64024,-26.805494 104.83694,-12.03074 41.88324,13.39519 76.98991,-41.836863 114.82464,-53.04952 m -259.68537,67.37674 c 4.99563,0.45966 24.98152,-0.59557 39.7618,-2.85984 42.02869,-13.87501 58.5046,-28.34449 104.50706,-13.40167 42.46949,13.7952 77.37551,-43.014215 115.42258,-54.024069 M 106.46567,124.53053 c 5.27319,0.48516 25.33587,-0.57759 39.48983,-2.88086 41.82856,-14.42051 58.36105,-29.890961 104.1771,-14.7726 43.07781,14.21477 77.78854,-44.308131 116.01353,-54.984301 M 106.47564,123.9882 c 5.55074,0.51075 25.69022,-0.55964 39.21787,-2.90187 41.63317,-14.96015 58.20788,-31.439887 103.8472,-16.14352 43.71318,14.65078 78.24392,-45.712209 116.60457,-55.919527 M 106.48563,123.44589 c 5.82827,0.53627 26.04456,-0.54167 38.94585,-2.92292 41.4429,-15.49347 58.04265,-32.984672 103.5173,-17.51445 44.37998,15.09779 78.75057,-47.210954 117.19598,-56.816886 M 106.4956,122.90358 c 6.1058,0.56176 26.39888,-0.52372 38.67391,-2.94396 41.25798,-16.0208 57.85763,-34.503762 103.18737,-18.88535 44.78681,15.43133 78.66476,-48.401191 116.93898,-57.477074 0.28868,-0.06575 0.57663,-0.130944 0.8639,-0.19531 M 106.50557,122.36124 c 6.38333,0.58731 26.75322,-0.50576 38.40193,-2.96498 41.07869,-16.54185 57.38704,-35.213194 102.85746,-20.256294 49.85642,16.399604 71.46798,-48.537538 118.39942,-58.494969 M 106.51554,121.81893 c 6.66089,0.61288 27.10754,-0.4878 38.12995,-2.98602 40.90521,-17.05655 57.05623,-36.367433 102.52754,-21.62724 50.12709,16.24942 71.11316,-49.693063 118.99159,-59.282346 M 106.52554,121.27661 c 6.93838,0.63838 27.46184,-0.46984 37.85797,-3.00702 40.73772,-17.56499 56.70718,-37.498917 102.19763,-22.998196 50.39843,16.065226 70.70284,-50.814436 119.57901,-60.03489 M 106.53548,120.73428 c 7.21596,0.66393 27.81621,-0.45192 37.58599,-3.02806 40.57637,-18.067012 56.33898,-38.603361 101.86769,-24.369111 50.65914,15.838261 70.27453,-51.908391 120.1779,-60.756138 M 106.54548,120.19196 c 7.49349,0.68949 28.17052,-0.43393 37.314,-3.04907 40.42123,-18.562656 55.95327,-39.683541 101.53774,-25.74006 50.89431,15.56769 69.83315,-52.967376 120.75941,-61.441899 M 106.55545,119.64962 c 7.77102,0.715 28.52488,-0.41594 37.04203,-3.07009 40.2724,-19.051818 55.54872,-40.73286 101.20784,-27.110963 51.11055,15.248293 69.40535,-53.999091 121.36217,-62.099946" />
  <path
     id="path2985-6"
     style="fill:url(#linearGradient4479-5);fill-opacity:1;stroke:none;stroke-width:0.0972278px;stroke-linecap:butt;stroke-linejoin:miter;stroke-opacity:1"
     d="m 366.07948,60.51877 c -3.71496,0.537787 -7.62529,1.243018 -11.8804,2.178161 -43.68538,9.600635 -51.45291,45.534889 -84.29977,42.228449 -15.9611,-1.60669 -50.86796,-11.445745 -66.55563,-8.500782 -26.72864,5.017632 -38.24328,22.159642 -65.62236,24.672922 -32.12807,2.9492 -52.466828,-13.07503 -84.320227,-8.30593 -26.764306,4.00715 -41.688917,34.54688 -54.17055511,49.81916 -0.95388249,1.16716 -1.94284559,2.25345 -2.96002619,3.27836 v 11.22929 c 9.6549938,-4.75999 17.8425403,-9.56378 22.4714983,-12.57081 66.463859,-56.56333 56.136538,-9.37861 107.21775,-12.64884 17.27122,-1.10571 60.93623,-34.12928 78.28825,-37.73879 35.83802,-7.45482 42.97715,17.56814 78.68359,11.78223 29.51594,-4.78285 55.71467,-21.39814 83.14788,-31.646668 z" />
  <path
     id="path2974-6"
     style="fill:url(#linearGradient4687-8);fill-opacity:1;stroke:none;stroke-width:0.0972278px;stroke-linecap:butt;stroke-linejoin:miter;stroke-opacity:1"
     d="m 366.07948,84.550895 c -0.57018,0.094 -1.13797,0.175297 -1.71151,0.286805 -21.30526,4.142173 -36.72724,18.49023 -62.89334,33.80932 -29.11306,17.04445 -71.08015,-20.737488 -100.00733,-13.4891 -29.38939,7.3642 -42.37366,32.68029 -71.52535,36.76159 -29.49112,4.1288 -47.278402,-32.21008 -86.115681,-16.70338 -23.306002,9.30546 -30.892105,32.71785 -42.1478184,44.25932 -1.78383221,1.82912 -3.5830707,3.47198 -5.4079389,4.96197 v 13.14804 c 2.97326449,-1.23446 5.999518,-2.71373 9.0929854,-4.48759 23.7990229,-13.6467 33.4122299,-43.33248 62.1264449,-45.16365 15.671285,-0.99942 33.816918,18.36887 57.855908,21.34392 32.155,3.97954 54.63013,-26.59863 73.1144,-29.88138 38.07648,-6.76219 51.53279,21.13509 79.83339,24.28017 36.99026,4.11076 60.22134,-25.4268 87.78584,-40.90552 z" />
  <path
     id="path1152"
     style="opacity:0.239939;fill:#e9ebed;fill-opacity:0.491332;stroke:none;stroke-width:0.0972278px;stroke-linecap:butt;stroke-linejoin:miter;stroke-opacity:1"
     d="m 366.08777,90.209983 c -26.45159,18.686907 -48.92284,63.704917 -83.37786,63.691227 34.43263,1.38299 56.92894,-26.28863 83.37786,-41.11481 z M 214.04018,112.23605 c -33.1195,0.54485 -51.55474,45.55452 -85.41494,47.33096 30.40044,1.59633 51.99099,-27.00121 69.83501,-30.17025 38.07648,-6.76219 51.53281,21.13509 79.83339,24.28017 -26.53182,-2.9485 -32.93189,-41.95615 -64.25346,-41.44088 z M 66.216635,129.69028 c -28.24494,-0.3385 -48.596715,46.50878 -69.94664,54.63543 v 2.79725 c 2.91752659,-1.31157 5.8531024,-2.76198 8.7725916,-4.36511 23.7990224,-13.64672 33.7331404,-42.99246 62.4473554,-44.82363 15.671285,-0.99942 33.816918,18.46086 57.855908,21.4359 -24.03899,-2.97504 -33.160114,-29.3686 -59.129215,-29.67984 z" />
  <path
     id="path4167"
     style="opacity:1;fill:url(#linearGradient14655);fill-opacity:1;stroke:none;stroke-width:0.097228px;stroke-linecap:butt;stroke-linejoin:miter;stroke-opacity:1"
     d="m 366.07948,110.29198 c -25.59666,15.45453 -48.78128,42.57773 -81.51802,43.56272 -0.61381,0.0286 -1.23007,0.0473 -1.85155,0.047 1.07603,0.0433 2.1404,0.0582 3.1936,0.046 4.21216,-0.049 8.24579,-0.53234 12.13154,-1.36633 0.69683,-0.14955 1.38319,-0.32285 2.07068,-0.49454 0.27104,-0.0676 0.54684,-0.1238 0.81651,-0.19482 0,-1.4e-4 0,-2.7e-4 0.003,-5.3e-4 0.45773,-0.12058 0.90739,-0.2612 1.36115,-0.39119 0.49162,-0.14083 0.98724,-0.27223 1.47434,-0.42375 0.9358,-0.29113 1.86298,-0.60154 2.78275,-0.93017 0,-2.7e-4 0,-8e-4 0.003,-10e-4 0.91961,-0.32859 1.83168,-0.67517 2.73624,-1.0387 0,-2.6e-4 0.003,-7.9e-4 0.003,-0.001 0.10509,-0.0422 0.20769,-0.0896 0.31263,-0.13229 0.79883,-0.32513 1.5944,-0.65837 2.38228,-1.00872 0.89043,-0.39596 1.77371,-0.80721 2.65099,-1.233 0,-5.3e-4 0.003,-0.001 0.003,-0.002 0.82828,-0.40201 1.65063,-0.819 2.46806,-1.2454 0.0493,-0.0258 0.0996,-0.0492 0.14883,-0.0749 0.86479,-0.45295 1.72347,-0.91864 2.57709,-1.3963 0,-7.9e-4 0.003,-0.001 0.004,-0.002 0.85366,-0.47769 1.70215,-0.96725 2.54559,-1.4671 0,-7.9e-4 0.003,-0.001 0.004,-0.002 0.84336,-0.49983 1.68201,-1.00967 2.51614,-1.52911 0,-7.9e-4 0.003,-0.002 0.004,-0.003 0.8341,-0.51947 1.66341,-1.04788 2.48925,-1.5844 0,-7.9e-4 0.003,-0.002 0.004,-0.003 1.65277,-1.07381 3.28996,-2.17945 4.91548,-3.30626 0,-10e-4 0.003,-0.002 0.004,-0.003 0.75668,-0.52456 1.50365,-1.06606 2.25568,-1.59887 0.86487,-0.61277 1.73487,-1.21791 2.59466,-1.83865 3.21287,-2.31956 6.39392,-4.68409 9.57514,-7.01146 0,-7.9e-4 0.003,-10e-4 0.003,-0.002 0.1034,-0.0757 0.20669,-0.14924 0.31006,-0.2248 1.48913,-1.08825 2.97839,-2.16984 4.47104,-3.23236 1.59295,-1.13396 3.18958,-2.24873 4.79401,-3.33364 v -5.3e-4 c 1.2959,-0.87629 2.60191,-1.71639 3.90983,-2.54868 0.31398,-0.19977 0.6237,-0.41499 0.93845,-0.61185 0.81245,-0.50806 1.62769,-1.00557 2.44636,-1.49242 0.47406,-0.28191 0.95195,-0.55167 1.42833,-0.82579 0.34687,-0.19957 0.69154,-0.40576 1.03973,-0.60099 z m -154.81587,16.45326 v 5.3e-4 c -32.21397,-0.83583 -46.02258,33.69824 -82.63837,32.82125 30.40046,1.59633 51.99099,-27.00121 69.83501,-30.17025 1.15693,-0.20547 2.28927,-0.37618 3.40186,-0.51935 0.36765,-0.0473 0.72121,-0.0745 1.08418,-0.11524 0.73759,-0.0828 1.47592,-0.16626 2.19469,-0.22272 0.41758,-0.0328 0.82108,-0.0467 1.23249,-0.0708 0.64354,-0.0379 1.28887,-0.0783 1.91771,-0.0956 0.42819,-0.0118 0.8445,-0.007 1.26607,-0.01 0.59769,-0.004 1.19652,-0.008 1.78129,0.005 0.40716,0.009 0.80505,0.0333 1.20613,0.0517 0.58742,0.0268 1.17343,0.0546 1.74821,0.0987 0.38146,0.0293 0.75617,0.0682 1.13223,0.1049 0.57248,0.0559 1.14234,0.11515 1.70274,0.18759 0.36656,0.0475 0.72779,0.10234 1.08934,0.15658 0.56194,0.0842 1.12039,0.1733 1.6707,0.27336 0.33397,0.0608 0.66494,0.12584 0.99477,0.19224 0.57095,0.11479 1.13645,0.23658 1.6955,0.36742 0.29931,0.0702 0.59748,0.14201 0.89349,0.21653 0.57747,0.14523 1.14858,0.29873 1.7141,0.45992 0.2624,0.0748 0.52454,0.14974 0.78445,0.22789 0.60838,0.1827 1.20956,0.37496 1.80506,0.57464 0.20486,0.0688 0.41051,0.13654 0.61392,0.20722 0.65022,0.22569 1.2924,0.46139 1.92856,0.70539 0.14135,0.0542 0.28407,0.10661 0.42478,0.16174 0.72446,0.28356 1.44021,0.5786 2.14819,0.88315 0.0458,0.0197 0.0922,0.0386 0.13798,0.0584 3.02006,1.30636 5.89127,2.79683 8.69714,4.35632 0.24777,0.13783 0.49537,0.275 0.74207,0.41393 4.60586,2.59181 9.04269,5.34889 13.59039,7.83983 0.15188,0.0832 0.30568,0.16233 0.45786,0.24495 5.32172,2.88691 10.82355,5.37645 16.99845,6.72207 -22.86265,-5.19524 -32.97893,-25.3676 -62.25099,-26.12709 z M 68.843865,136.94617 c -0.494898,-0.01 -0.987187,7.9e-4 -1.476915,0.032 -28.714215,1.83118 -40.565525,32.40675 -64.3252749,46.12173 -2.29659581,1.32568 -4.5617105,2.4652 -6.7711634,3.46749 v 1.00253 c 0.9222039,-0.38466 1.845096,-0.77234 2.77812509,-1.20562 0.7517695,-0.35145 1.5087604,-0.71423 2.27738061,-1.10225 0.2938703,-0.14794 0.5886329,-0.29966 0.883667,-0.45269 1.0396402,-0.54014 2.087712,-1.1005 3.153296,-1.71152 23.7990206,-13.64668 33.4127496,-43.33246 62.1269616,-45.16362 11.753464,-0.74958 24.89855,10.00945 40.878128,16.69098 1.33163,0.55678 2.6827,1.0855 4.05454,1.57664 2.51545,0.90058 5.10933,1.65303 7.768,2.24689 C 99.39027,153.6927 83.032888,137.21596 68.843865,136.94617 Z m 51.346745,21.50256 c 0.40448,0.0925 0.80911,0.18376 1.21698,0.26717 -0.40859,-0.0819 -0.81185,-0.17667 -1.21698,-0.26717 z m 1.21698,0.26717 c 0.53916,0.10806 1.0779,0.21676 1.62315,0.30903 -0.54444,-0.0935 -1.08467,-0.1989 -1.62315,-0.30903 z m 1.62315,0.30903 c 0.0812,0.0139 0.1621,0.0283 0.2434,0.0419 -0.0814,-0.0134 -0.16217,-0.0281 -0.2434,-0.0419 z m 0.2434,0.0419 c 0.68629,0.11288 1.37563,0.21719 2.07171,0.30333 -0.69565,-0.0861 -1.38565,-0.18897 -2.07171,-0.30333 z m 150.24046,-6.19394 c 0.76375,0.17355 1.54297,0.32847 2.33887,0.46302 0.80224,0.13261 1.61358,0.2492 2.44017,0.34106 -1.64407,-0.18271 -3.22742,-0.46595 -4.77904,-0.80408 z" />
  <path
     id="path16839"
     style="fill:url(#linearGradient25349);fill-opacity:1;stroke:none;stroke-width:0.972278;stroke-linecap:butt;stroke-linejoin:miter;stroke-miterlimit:4;stroke-dasharray:none;stroke-opacity:1"
     d="m 366.07948,59.047541 c 0,0 -7.21624,1.291527 -11.06029,2.426208 -45.7693,13.510097 -49.29506,41.100221 -79.37554,43.760661 -12.9139,1.14216 -50.09589,-11.930342 -70.77707,-9.051144 -26.70465,3.717792 -40.54729,21.132674 -63.89934,24.407224 -28.75594,4.03231 -58.4588,-14.29184 -90.882952,-7.84472 -25.281969,5.02699 -35.411629,31.46494 -53.8137763,51.77701 v 1.22656 c 15.5122663,-15.5251 28.0527963,-46.51352 53.8137763,-52.3416 31.414521,-7.10711 65.155022,14.20142 91.534472,8.12325 28.43759,-6.55239 36.754,-20.52517 63.25557,-24.69143 23.50879,-3.695771 55.63901,11.96446 70.92281,10.09449 28.03149,-3.42964 38.31241,-31.806927 81.64206,-44.337372 2.91404,-0.842722 8.64028,-1.345136 8.64028,-1.345136 z" />
</svg>
