<?xml version="1.0" encoding="UTF-8" standalone="no"?>
<!-- Created with Inkscape (http://www.inkscape.org/) -->

<svg
   width="1680"
   height="1050"
   viewBox="0 0 444.49998 277.81251"
   version="1.1"
   id="svg1140"
   xmlns:xlink="http://www.w3.org/1999/xlink"
   xmlns="http://www.w3.org/2000/svg"
   xmlns:svg="http://www.w3.org/2000/svg">
  <defs
     id="defs1137">
    <linearGradient
       xlink:href="#linearGradient29544"
       id="linearGradient29546-2"
       x1="132.10901"
       y1="575.51141"
       x2="1068.3112"
       y2="320.25305"
       gradientUnits="userSpaceOnUse"
       gradientTransform="matrix(0.32360947,0.034352,-0.034352,0.32360947,25.799779,33.424172)" />
    <linearGradient
       id="linearGradient29544">
      <stop
         style="stop-color:#1c52f2;stop-opacity:1"
         offset="0"
         id="stop29540" />
      <stop
         style="stop-color:#d62bc3;stop-opacity:0.42363399"
         offset="1"
         id="stop29542" />
    </linearGradient>
    <linearGradient
       xlink:href="#linearGradient4549"
       id="linearGradient4551-1"
       x1="1218.4554"
       y1="30.736158"
       x2="-51.688805"
       y2="481.46146"
       gradientUnits="userSpaceOnUse"
       gradientTransform="matrix(0.32360947,0.034352,-0.034352,0.32360947,25.799779,33.424172)" />
    <linearGradient
       id="linearGradient4549">
      <stop
         style="stop-color:#4886f2;stop-opacity:1;"
         offset="0"
         id="stop4545" />
      <stop
         style="stop-color:#8f4bcd;stop-opacity:1"
         offset="1"
         id="stop4547" />
    </linearGradient>
    <linearGradient
       xlink:href="#linearGradient10986"
       id="linearGradient12309-5"
       gradientUnits="userSpaceOnUse"
       x1="1343.8644"
       y1="191.42802"
       x2="861.3941"
       y2="436.60165"
       gradientTransform="matrix(0.32542765,0,0,0.32542765,-2.2580594,22.586858)" />
    <linearGradient
       id="linearGradient10986">
      <stop
         style="stop-color:#6659f2;stop-opacity:1"
         offset="0"
         id="stop10982" />
      <stop
         style="stop-color:#628af5;stop-opacity:1"
         offset="1"
         id="stop10984" />
    </linearGradient>
    <linearGradient
       xlink:href="#linearGradient1509"
       id="linearGradient1511-9"
       x1="466.89359"
       y1="475.49548"
       x2="1404.4065"
       y2="195.51314"
       gradientUnits="userSpaceOnUse"
       gradientTransform="matrix(0.32542765,0,0,0.32542765,-2.2580594,22.586858)" />
    <linearGradient
       id="linearGradient1509">
      <stop
         style="stop-color:#3e2fdd;stop-opacity:1"
         offset="0"
         id="stop1505" />
      <stop
         style="stop-color:#a4007e;stop-opacity:1"
         offset="1"
         id="stop1507" />
    </linearGradient>
    <linearGradient
       xlink:href="#linearGradient4477"
       id="linearGradient4479-5"
       x1="1327.1652"
       y1="150.93445"
       x2="-27.439623"
       y2="614.6449"
       gradientUnits="userSpaceOnUse"
       gradientTransform="matrix(0.32360947,0.034352,-0.034352,0.32360947,25.799779,33.424172)" />
    <linearGradient
       id="linearGradient4477">
      <stop
         style="stop-color:#578bf2;stop-opacity:1"
         offset="0"
         id="stop4473" />
      <stop
         style="stop-color:#5a74fa;stop-opacity:1"
         offset="1"
         id="stop4475" />
    </linearGradient>
    <linearGradient
       xlink:href="#linearGradient4685-3"
       id="linearGradient4687-8"
       x1="1284.0638"
       y1="231.57774"
       x2="-19.021584"
       y2="636.71533"
       gradientUnits="userSpaceOnUse"
       gradientTransform="matrix(0.32360947,0.034352,-0.034352,0.32360947,25.799779,33.424172)" />
    <linearGradient
       id="linearGradient4685-3">
      <stop
         style="stop-color:#542ef2;stop-opacity:1"
         offset="0"
         id="stop4681-8" />
      <stop
         style="stop-color:#4a98e4;stop-opacity:1"
         offset="0.47512516"
         id="stop26809" />
      <stop
         style="stop-color:#5393f2;stop-opacity:1"
         offset="1"
         id="stop4683-5" />
    </linearGradient>
    <linearGradient
       xlink:href="#linearGradient31045"
       id="linearGradient30817"
       x1="-757.29144"
       y1="414.48566"
       x2="687.20605"
       y2="74.068878"
       gradientUnits="userSpaceOnUse"
       gradientTransform="matrix(0.32542765,0,0,0.32542765,226.79864,94.881391)" />
    <linearGradient
       id="linearGradient31045">
      <stop
         style="stop-color:#94a642;stop-opacity:1"
         offset="0"
         id="stop31041" />
      <stop
         style="stop-color:#83aa61;stop-opacity:1"
         offset="0.31171572"
         id="stop31403" />
      <stop
         style="stop-color:#dc8cd1;stop-opacity:1"
         offset="0.59436423"
         id="stop31273" />
      <stop
         style="stop-color:#6cdddb;stop-opacity:1"
         offset="1"
         id="stop31043" />
    </linearGradient>
    <linearGradient
       xlink:href="#linearGradient25627"
       id="linearGradient25349"
       x1="-19.32687"
       y1="174.87611"
       x2="365.09894"
       y2="71.86953"
       gradientUnits="userSpaceOnUse"
       gradientTransform="matrix(1.4114555,0,0,1.4114555,-73.151045,-18.6134)" />
    <linearGradient
       id="linearGradient25627">
      <stop
         style="stop-color:#bda62c;stop-opacity:1;"
         offset="0"
         id="stop25607" />
      <stop
         style="stop-color:#ae9a28;stop-opacity:0.98823529"
         offset="0.14668909"
         id="stop25609" />
      <stop
         style="stop-color:#8c7b20;stop-opacity:0.96862745"
         offset="0.30530512"
         id="stop25613" />
      <stop
         style="stop-color:#bda62c;stop-opacity:0.95686275;"
         offset="0.51079261"
         id="stop25617" />
      <stop
         style="stop-color:#82721e;stop-opacity:0.94901961"
         offset="0.62310421"
         id="stop25619" />
      <stop
         style="stop-color:#c0ab2c;stop-opacity:0.99607843"
         offset="0.83540899"
         id="stop25623" />
      <stop
         style="stop-color:#7f6f1e;stop-opacity:0.92156863"
         offset="1"
         id="stop25625" />
    </linearGradient>
    <linearGradient
       xlink:href="#linearGradient14653"
       id="linearGradient14655"
       x1="-46.183235"
       y1="706.05402"
       x2="1721.9431"
       y2="445.6926"
       gradientUnits="userSpaceOnUse"
       gradientTransform="matrix(0.37344764,0,0,0.37344764,-73.151045,-18.6134)" />
    <linearGradient
       id="linearGradient14653">
      <stop
         style="stop-color:#bda62c;stop-opacity:1;"
         offset="0"
         id="stop14649" />
      <stop
         style="stop-color:#615516;stop-opacity:0.98823529"
         offset="0.09857609"
         id="stop16599" />
      <stop
         style="stop-color:#cab12f;stop-opacity:0.97647059"
         offset="0.25338677"
         id="stop16339" />
      <stop
         style="stop-color:#8c7b20;stop-opacity:0.96862745"
         offset="0.33815062"
         id="stop16405" />
      <stop
         style="stop-color:#87771f;stop-opacity:0.96470588"
         offset="0.4215126"
         id="stop15309" />
      <stop
         style="stop-color:#bda62c;stop-opacity:0.95686275;"
         offset="0.53338844"
         id="stop15113" />
      <stop
         style="stop-color:#82721e;stop-opacity:0.94901961"
         offset="0.62310421"
         id="stop15179" />
      <stop
         style="stop-color:#80711e;stop-opacity:0.93725497"
         offset="0.73470789"
         id="stop15823" />
      <stop
         style="stop-color:#d7be31;stop-opacity:0.92941177"
         offset="0.83540899"
         id="stop15889" />
      <stop
         style="stop-color:#bda62c;stop-opacity:0.9217537"
         offset="1"
         id="stop14651" />
    </linearGradient>
    <linearGradient
       xlink:href="#linearGradient4685-3"
       id="linearGradient4687-8-6"
       x1="1284.0638"
       y1="231.57774"
       x2="-19.021584"
       y2="636.71533"
       gradientUnits="userSpaceOnUse"
       gradientTransform="matrix(0.45502016,0.0483016,-0.0483016,0.45502016,-42.686846,-41.176155)" />
    <linearGradient
       xlink:href="#linearGradient4477"
       id="linearGradient4479-5-1"
       x1="1327.1652"
       y1="150.93445"
       x2="-27.439623"
       y2="614.6449"
       gradientUnits="userSpaceOnUse"
       gradientTransform="matrix(0.45502016,0.0483016,-0.0483016,0.45502016,-42.686846,-41.176155)" />
    <linearGradient
       xlink:href="#linearGradient1509"
       id="linearGradient6948"
       gradientUnits="userSpaceOnUse"
       gradientTransform="matrix(0.45757666,0,0,0.45757666,-82.138352,-57.878078)"
       x1="466.89359"
       y1="475.49548"
       x2="1404.4065"
       y2="195.51314" />
    <linearGradient
       xlink:href="#linearGradient10986"
       id="linearGradient12309-5-4"
       gradientUnits="userSpaceOnUse"
       x1="1343.8644"
       y1="191.42802"
       x2="861.3941"
       y2="436.60165"
       gradientTransform="matrix(0.45757666,0,0,0.45757666,-82.138352,-56.414263)" />
    <linearGradient
       xlink:href="#linearGradient4549"
       id="linearGradient4551-1-8"
       x1="1218.4554"
       y1="30.736158"
       x2="-51.688805"
       y2="481.46146"
       gradientUnits="userSpaceOnUse"
       gradientTransform="matrix(0.45502016,0.0483016,-0.0483016,0.45502016,-42.686846,-41.176155)" />
    <linearGradient
       xlink:href="#linearGradient29544"
       id="linearGradient24274"
       gradientUnits="userSpaceOnUse"
       gradientTransform="matrix(0.45502016,0.04830163,-0.04830163,0.45502016,-42.686846,-41.176155)"
       x1="132.10901"
       y1="575.51141"
       x2="1068.3112"
       y2="320.25305" />
    <linearGradient
       xlink:href="#linearGradient29544"
       id="linearGradient1273"
       gradientUnits="userSpaceOnUse"
       gradientTransform="matrix(0.45502016,0.04830163,-0.04830163,0.45502016,-42.686846,-41.176155)"
       x1="132.10901"
       y1="575.51141"
       x2="1068.3112"
       y2="320.25305" />
    <linearGradient
       xlink:href="#linearGradient29544"
       id="linearGradient1275"
       gradientUnits="userSpaceOnUse"
       gradientTransform="matrix(0.45502016,0.04830163,-0.04830163,0.45502016,-42.686846,-41.176155)"
       x1="132.10901"
       y1="575.51141"
       x2="1068.3112"
       y2="320.25305" />
    <linearGradient
       xlink:href="#linearGradient29544"
       id="linearGradient1277"
       gradientUnits="userSpaceOnUse"
       gradientTransform="matrix(0.45502016,0.04830163,-0.04830163,0.45502016,-42.686846,-41.176155)"
       x1="132.10901"
       y1="575.51141"
       x2="1068.3112"
       y2="320.25305" />
    <linearGradient
       xlink:href="#linearGradient29544"
       id="linearGradient1279"
       gradientUnits="userSpaceOnUse"
       gradientTransform="matrix(0.45502016,0.04830163,-0.04830163,0.45502016,-42.686846,-41.176155)"
       x1="132.10901"
       y1="575.51141"
       x2="1068.3112"
       y2="320.25305" />
    <linearGradient
       xlink:href="#linearGradient29544"
       id="linearGradient1281"
       gradientUnits="userSpaceOnUse"
       gradientTransform="matrix(0.45502016,0.04830163,-0.04830163,0.45502016,-42.686846,-41.176155)"
       x1="132.10901"
       y1="575.51141"
       x2="1068.3112"
       y2="320.25305" />
    <linearGradient
       xlink:href="#linearGradient29544"
       id="linearGradient1283"
       gradientUnits="userSpaceOnUse"
       gradientTransform="matrix(0.45502016,0.04830163,-0.04830163,0.45502016,-42.686846,-41.176155)"
       x1="132.10901"
       y1="575.51141"
       x2="1068.3112"
       y2="320.25305" />
    <linearGradient
       xlink:href="#linearGradient29544"
       id="linearGradient1285"
       gradientUnits="userSpaceOnUse"
       gradientTransform="matrix(0.45502016,0.04830163,-0.04830163,0.45502016,-42.686846,-41.176155)"
       x1="132.10901"
       y1="575.51141"
       x2="1068.3112"
       y2="320.25305" />
    <linearGradient
       xlink:href="#linearGradient29544"
       id="linearGradient1287"
       gradientUnits="userSpaceOnUse"
       gradientTransform="matrix(0.45502016,0.04830163,-0.04830163,0.45502016,-42.686846,-41.176155)"
       x1="132.10901"
       y1="575.51141"
       x2="1068.3112"
       y2="320.25305" />
    <linearGradient
       xlink:href="#linearGradient29544"
       id="linearGradient1289"
       gradientUnits="userSpaceOnUse"
       gradientTransform="matrix(0.45502016,0.04830163,-0.04830163,0.45502016,-42.686846,-41.176155)"
       x1="132.10901"
       y1="575.51141"
       x2="1068.3112"
       y2="320.25305" />
    <linearGradient
       xlink:href="#linearGradient29544"
       id="linearGradient1291"
       gradientUnits="userSpaceOnUse"
       gradientTransform="matrix(0.45502016,0.04830163,-0.04830163,0.45502016,-42.686846,-41.176155)"
       x1="132.10901"
       y1="575.51141"
       x2="1068.3112"
       y2="320.25305" />
    <linearGradient
       xlink:href="#linearGradient29544"
       id="linearGradient1293"
       gradientUnits="userSpaceOnUse"
       gradientTransform="matrix(0.45502016,0.04830163,-0.04830163,0.45502016,-42.686846,-41.176155)"
       x1="132.10901"
       y1="575.51141"
       x2="1068.3112"
       y2="320.25305" />
    <linearGradient
       xlink:href="#linearGradient29544"
       id="linearGradient1295"
       gradientUnits="userSpaceOnUse"
       gradientTransform="matrix(0.45502016,0.04830163,-0.04830163,0.45502016,-42.686846,-41.176155)"
       x1="132.10901"
       y1="575.51141"
       x2="1068.3112"
       y2="320.25305" />
    <linearGradient
       xlink:href="#linearGradient29544"
       id="linearGradient1297"
       gradientUnits="userSpaceOnUse"
       gradientTransform="matrix(0.45502016,0.04830163,-0.04830163,0.45502016,-42.686846,-41.176155)"
       x1="132.10901"
       y1="575.51141"
       x2="1068.3112"
       y2="320.25305" />
    <linearGradient
       xlink:href="#linearGradient29544"
       id="linearGradient1299"
       gradientUnits="userSpaceOnUse"
       gradientTransform="matrix(0.45502016,0.04830163,-0.04830163,0.45502016,-42.686846,-41.176155)"
       x1="132.10901"
       y1="575.51141"
       x2="1068.3112"
       y2="320.25305" />
    <linearGradient
       xlink:href="#linearGradient29544"
       id="linearGradient1301"
       gradientUnits="userSpaceOnUse"
       gradientTransform="matrix(0.45502016,0.04830163,-0.04830163,0.45502016,-42.686846,-41.176155)"
       x1="132.10901"
       y1="575.51141"
       x2="1068.3112"
       y2="320.25305" />
    <linearGradient
       xlink:href="#linearGradient29544"
       id="linearGradient1303"
       gradientUnits="userSpaceOnUse"
       gradientTransform="matrix(0.45502016,0.04830163,-0.04830163,0.45502016,-42.686846,-41.176155)"
       x1="132.10901"
       y1="575.51141"
       x2="1068.3112"
       y2="320.25305" />
    <linearGradient
       xlink:href="#linearGradient29544"
       id="linearGradient1305"
       gradientUnits="userSpaceOnUse"
       gradientTransform="matrix(0.45502016,0.04830163,-0.04830163,0.45502016,-42.686846,-41.176155)"
       x1="132.10901"
       y1="575.51141"
       x2="1068.3112"
       y2="320.25305" />
    <linearGradient
       xlink:href="#linearGradient29544"
       id="linearGradient1307"
       gradientUnits="userSpaceOnUse"
       gradientTransform="matrix(0.45502016,0.04830163,-0.04830163,0.45502016,-42.686846,-41.176155)"
       x1="132.10901"
       y1="575.51141"
       x2="1068.3112"
       y2="320.25305" />
    <linearGradient
       xlink:href="#linearGradient29544"
       id="linearGradient1309"
       gradientUnits="userSpaceOnUse"
       gradientTransform="matrix(0.45502016,0.04830163,-0.04830163,0.45502016,-42.686846,-41.176155)"
       x1="132.10901"
       y1="575.51141"
       x2="1068.3112"
       y2="320.25305" />
    <linearGradient
       xlink:href="#linearGradient29544"
       id="linearGradient1311"
       gradientUnits="userSpaceOnUse"
       gradientTransform="matrix(0.45502016,0.04830163,-0.04830163,0.45502016,-42.686846,-41.176155)"
       x1="132.10901"
       y1="575.51141"
       x2="1068.3112"
       y2="320.25305" />
    <linearGradient
       xlink:href="#linearGradient29544"
       id="linearGradient1313"
       gradientUnits="userSpaceOnUse"
       gradientTransform="matrix(0.45502016,0.04830163,-0.04830163,0.45502016,-42.686846,-41.176155)"
       x1="132.10901"
       y1="575.51141"
       x2="1068.3112"
       y2="320.25305" />
    <linearGradient
       xlink:href="#linearGradient29544"
       id="linearGradient1315"
       gradientUnits="userSpaceOnUse"
       gradientTransform="matrix(0.45502016,0.04830163,-0.04830163,0.45502016,-42.686846,-41.176155)"
       x1="132.10901"
       y1="575.51141"
       x2="1068.3112"
       y2="320.25305" />
    <linearGradient
       xlink:href="#linearGradient29544"
       id="linearGradient1317"
       gradientUnits="userSpaceOnUse"
       gradientTransform="matrix(0.45502016,0.04830163,-0.04830163,0.45502016,-42.686846,-41.176155)"
       x1="132.10901"
       y1="575.51141"
       x2="1068.3112"
       y2="320.25305" />
    <linearGradient
       xlink:href="#linearGradient29544"
       id="linearGradient1319"
       gradientUnits="userSpaceOnUse"
       gradientTransform="matrix(0.45502016,0.04830163,-0.04830163,0.45502016,-42.686846,-41.176155)"
       x1="132.10901"
       y1="575.51141"
       x2="1068.3112"
       y2="320.25305" />
    <linearGradient
       xlink:href="#linearGradient29544"
       id="linearGradient1321"
       gradientUnits="userSpaceOnUse"
       gradientTransform="matrix(0.45502016,0.04830163,-0.04830163,0.45502016,-42.686846,-41.176155)"
       x1="132.10901"
       y1="575.51141"
       x2="1068.3112"
       y2="320.25305" />
    <linearGradient
       xlink:href="#linearGradient29544"
       id="linearGradient1323"
       gradientUnits="userSpaceOnUse"
       gradientTransform="matrix(0.45502016,0.04830163,-0.04830163,0.45502016,-42.686846,-41.176155)"
       x1="132.10901"
       y1="575.51141"
       x2="1068.3112"
       y2="320.25305" />
    <linearGradient
       xlink:href="#linearGradient29544"
       id="linearGradient1325"
       gradientUnits="userSpaceOnUse"
       gradientTransform="matrix(0.45502016,0.04830163,-0.04830163,0.45502016,-42.686846,-41.176155)"
       x1="132.10901"
       y1="575.51141"
       x2="1068.3112"
       y2="320.25305" />
    <linearGradient
       xlink:href="#linearGradient29544"
       id="linearGradient1327"
       gradientUnits="userSpaceOnUse"
       gradientTransform="matrix(0.45502016,0.04830163,-0.04830163,0.45502016,-42.686846,-41.176155)"
       x1="132.10901"
       y1="575.51141"
       x2="1068.3112"
       y2="320.25305" />
    <linearGradient
       xlink:href="#linearGradient29544"
       id="linearGradient1329"
       gradientUnits="userSpaceOnUse"
       gradientTransform="matrix(0.45502016,0.04830163,-0.04830163,0.45502016,-42.686846,-41.176155)"
       x1="132.10901"
       y1="575.51141"
       x2="1068.3112"
       y2="320.25305" />
    <linearGradient
       xlink:href="#linearGradient29544"
       id="linearGradient1331"
       gradientUnits="userSpaceOnUse"
       gradientTransform="matrix(0.45502016,0.04830163,-0.04830163,0.45502016,-42.686846,-41.176155)"
       x1="132.10901"
       y1="575.51141"
       x2="1068.3112"
       y2="320.25305" />
    <linearGradient
       xlink:href="#linearGradient29544"
       id="linearGradient1333"
       gradientUnits="userSpaceOnUse"
       gradientTransform="matrix(0.45502016,0.04830163,-0.04830163,0.45502016,-42.686846,-41.176155)"
       x1="132.10901"
       y1="575.51141"
       x2="1068.3112"
       y2="320.25305" />
    <linearGradient
       xlink:href="#linearGradient29544"
       id="linearGradient1335"
       gradientUnits="userSpaceOnUse"
       gradientTransform="matrix(0.45502016,0.04830163,-0.04830163,0.45502016,-42.686846,-41.176155)"
       x1="132.10901"
       y1="575.51141"
       x2="1068.3112"
       y2="320.25305" />
    <linearGradient
       xlink:href="#linearGradient29544"
       id="linearGradient1337"
       gradientUnits="userSpaceOnUse"
       gradientTransform="matrix(0.45502016,0.04830163,-0.04830163,0.45502016,-42.686846,-41.176155)"
       x1="132.10901"
       y1="575.51141"
       x2="1068.3112"
       y2="320.25305" />
    <linearGradient
       xlink:href="#linearGradient29544"
       id="linearGradient1339"
       gradientUnits="userSpaceOnUse"
       gradientTransform="matrix(0.45502016,0.04830163,-0.04830163,0.45502016,-42.686846,-41.176155)"
       x1="132.10901"
       y1="575.51141"
       x2="1068.3112"
       y2="320.25305" />
    <linearGradient
       xlink:href="#linearGradient29544"
       id="linearGradient1341"
       gradientUnits="userSpaceOnUse"
       gradientTransform="matrix(0.45502016,0.04830163,-0.04830163,0.45502016,-42.686846,-41.176155)"
       x1="132.10901"
       y1="575.51141"
       x2="1068.3112"
       y2="320.25305" />
    <linearGradient
       xlink:href="#linearGradient29544"
       id="linearGradient1343"
       gradientUnits="userSpaceOnUse"
       gradientTransform="matrix(0.45502016,0.04830163,-0.04830163,0.45502016,-42.686846,-41.176155)"
       x1="132.10901"
       y1="575.51141"
       x2="1068.3112"
       y2="320.25305" />
    <linearGradient
       xlink:href="#linearGradient29544"
       id="linearGradient1345"
       gradientUnits="userSpaceOnUse"
       gradientTransform="matrix(0.45502016,0.04830163,-0.04830163,0.45502016,-42.686846,-41.176155)"
       x1="132.10901"
       y1="575.51141"
       x2="1068.3112"
       y2="320.25305" />
    <linearGradient
       xlink:href="#linearGradient29544"
       id="linearGradient1347"
       gradientUnits="userSpaceOnUse"
       gradientTransform="matrix(0.45502016,0.04830163,-0.04830163,0.45502016,-42.686846,-41.176155)"
       x1="132.10901"
       y1="575.51141"
       x2="1068.3112"
       y2="320.25305" />
    <linearGradient
       xlink:href="#linearGradient29544"
       id="linearGradient1349"
       gradientUnits="userSpaceOnUse"
       gradientTransform="matrix(0.45502016,0.04830163,-0.04830163,0.45502016,-42.686846,-41.176155)"
       x1="132.10901"
       y1="575.51141"
       x2="1068.3112"
       y2="320.25305" />
    <linearGradient
       xlink:href="#linearGradient25627"
       id="linearGradient25349-9"
       x1="-19.32687"
       y1="174.87611"
       x2="365.09894"
       y2="71.86953"
       gradientUnits="userSpaceOnUse"
       gradientTransform="matrix(1.3860315,0,0,1.3860315,-68.037922,-16.509933)" />
    <linearGradient
       xlink:href="#linearGradient14653"
       id="linearGradient14655-7"
       x1="-46.183235"
       y1="706.05402"
       x2="1721.9431"
       y2="445.6926"
       gradientUnits="userSpaceOnUse"
       gradientTransform="matrix(0.36672087,0,0,0.36672087,-68.037922,-16.509933)" />
    <linearGradient
       xlink:href="#linearGradient4549-4"
       id="linearGradient4687-8-9"
       x1="1155.105"
       y1="262.50851"
       x2="93.583733"
       y2="615.88306"
       gradientUnits="userSpaceOnUse"
       gradientTransform="matrix(0.44682405,0.04743156,-0.04743156,0.44682405,-38.122465,-38.666272)" />
    <linearGradient
       id="linearGradient4549-4">
      <stop
         style="stop-color:#8b5cf6;stop-opacity:1"
         offset="0"
         id="stop4545-0" />
      <stop
         style="stop-color:#6d28d9;stop-opacity:1"
         offset="0.2124767"
         id="stop3695" />
      <stop
         style="stop-color:#6f5cf6;stop-opacity:1"
         offset="0.42963988"
         id="stop3369" />
      <stop
         style="stop-color:#7c3aed;stop-opacity:1"
         offset="0.59961361"
         id="stop3629" />
      <stop
         style="stop-color:#6376f6;stop-opacity:1"
         offset="0.80968213"
         id="stop3499" />
      <stop
         style="stop-color:#6d28d9;stop-opacity:1"
         offset="1"
         id="stop4547-0" />
    </linearGradient>
    <linearGradient
       xlink:href="#linearGradient120453"
       id="linearGradient4479-5-2"
       x1="1143.1901"
       y1="196.74675"
       x2="120.85666"
       y2="539.48602"
       gradientUnits="userSpaceOnUse"
       gradientTransform="matrix(0.44682405,0.04743156,-0.04743156,0.44682405,-38.122465,-38.666272)" />
    <linearGradient
       id="linearGradient120453">
      <stop
         style="stop-color:#8b5cf6;stop-opacity:1"
         offset="0"
         id="stop120441" />
      <stop
         style="stop-color:#5151dc;stop-opacity:1"
         offset="0.25152168"
         id="stop120443" />
      <stop
         style="stop-color:#3b82f6;stop-opacity:1"
         offset="0.44539982"
         id="stop120445" />
      <stop
         style="stop-color:#8b69f6;stop-opacity:1"
         offset="0.63944036"
         id="stop120447" />
      <stop
         style="stop-color:#60a5fa;stop-opacity:1"
         offset="0.83593452"
         id="stop120449" />
      <stop
         style="stop-color:#60a5fa;stop-opacity:1"
         offset="1"
         id="stop120451" />
    </linearGradient>
    <linearGradient
       xlink:href="#linearGradient1509"
       id="linearGradient6948-4"
       gradientUnits="userSpaceOnUse"
       gradientTransform="matrix(0.4493345,0,0,0.4493345,-76.863355,-55.06734)"
       x1="466.89359"
       y1="475.49548"
       x2="1404.4065"
       y2="195.51314" />
    <linearGradient
       xlink:href="#linearGradient10986-1"
       id="linearGradient12309-5-42"
       gradientUnits="userSpaceOnUse"
       x1="1181.7125"
       y1="252.36546"
       x2="861.3941"
       y2="436.60165"
       gradientTransform="matrix(0.4493345,0,0,0.4493345,-76.863355,-53.6299)" />
    <linearGradient
       id="linearGradient10986-1">
      <stop
         style="stop-color:#7e5af0;stop-opacity:1"
         offset="0"
         id="stop10982-6" />
      <stop
         style="stop-color:#7c61ee;stop-opacity:1"
         offset="0.49538255"
         id="stop136405" />
      <stop
         style="stop-color:#4c6fe2;stop-opacity:1"
         offset="1"
         id="stop10984-1" />
    </linearGradient>
    <linearGradient
       xlink:href="#linearGradient4685-3-1"
       id="linearGradient4551-1-0"
       x1="1112.811"
       y1="69.067085"
       x2="89.147026"
       y2="487.89313"
       gradientUnits="userSpaceOnUse"
       gradientTransform="matrix(0.44682405,0.04743156,-0.04743156,0.44682405,-38.122465,-38.666272)" />
    <linearGradient
       id="linearGradient4685-3-1">
      <stop
         style="stop-color:#60a5fa;stop-opacity:1"
         offset="0"
         id="stop4681-8-7" />
      <stop
         style="stop-color:#365fd8;stop-opacity:1"
         offset="0.23215981"
         id="stop17498" />
      <stop
         style="stop-color:#3b82f6;stop-opacity:1"
         offset="0.43870947"
         id="stop26809-5" />
      <stop
         style="stop-color:#4d4eeb;stop-opacity:1"
         offset="0.65562975"
         id="stop12917" />
      <stop
         style="stop-color:#60a5fa;stop-opacity:1"
         offset="1"
         id="stop4683-5-7" />
    </linearGradient>
    <linearGradient
       xlink:href="#linearGradient29544"
       id="linearGradient24274-3"
       gradientUnits="userSpaceOnUse"
       gradientTransform="matrix(0.44682405,0.04743158,-0.04743158,0.44682405,-38.122465,-38.666272)"
       x1="132.10901"
       y1="575.51141"
       x2="1068.3112"
       y2="320.25305" />
    <linearGradient
       xlink:href="#linearGradient4477-1"
       id="linearGradient118139"
       x1="100.59962"
       y1="115.7887"
       x2="345.10434"
       y2="-9.8373604"
       gradientUnits="userSpaceOnUse"
       gradientTransform="matrix(1.2227589,0,0,1.2227589,0.6893088,6.9381047)" />
    <linearGradient
       id="linearGradient4477-1">
      <stop
         style="stop-color:#8b5cf6;stop-opacity:1"
         offset="0"
         id="stop4473-6" />
      <stop
         style="stop-color:#5151dc;stop-opacity:1"
         offset="0.25152168"
         id="stop55155" />
      <stop
         style="stop-color:#3b82f6;stop-opacity:1"
         offset="0.44539982"
         id="stop41682" />
      <stop
         style="stop-color:#8b5cf6;stop-opacity:1"
         offset="0.63944036"
         id="stop94918" />
      <stop
         style="stop-color:#60a5fa;stop-opacity:1"
         offset="0.83593452"
         id="stop98531" />
      <stop
         style="stop-color:#60a5fa;stop-opacity:1"
         offset="1"
         id="stop4475-4" />
    </linearGradient>
    <linearGradient
       xlink:href="#linearGradient25627"
       id="linearGradient161031"
       x1="-12.419965"
       y1="169.75165"
       x2="373.66388"
       y2="-5.8339572"
       gradientUnits="userSpaceOnUse"
       gradientTransform="matrix(1.2227589,0,0,1.2227589,0.6893088,-0.81506341)" />
  </defs>
  <rect
     style="fill:#1b1e20;fill-opacity:1;stroke:none;stroke-width:0.183025;stroke-linecap:round;stroke-linejoin:round;paint-order:stroke fill markers;stop-color:#000000"
     id="rect3074-7"
     width="444.5"
     height="277.8125"
     x="0"
     y="0" />
  <path
     id="path145852"
     style="fill:url(#linearGradient161031);fill-opacity:1;stroke:none;stroke-width:0.118886px;stroke-linecap:butt;stroke-linejoin:miter;stroke-opacity:1"
     d="m 448.31625,-13.896017 c -66.38683,8.3482151 -61.6241,94.456998 -122.67979,104.301173 -40.58777,2.279406 -53.47194,-10.388218 -84.35509,-2.612657 -36.78645,9.261861 -58.73743,42.751161 -90.17029,45.775011 -33.66777,3.23878 -71.958604,-13.6821 -108.473902,3.70123 -22.67165,10.79297 -33.2440023,38.37498 -46.5081363,58.09795 v 25.22277 C 25.878888,203.53277 51.701502,177.44463 73.170788,170.64392 c 21.881821,-6.9314 44.353032,-2.86286 67.245752,-2.30953 20.16169,0.48731 41.11314,-13.49637 61.90701,-14.87694 41.57219,-2.76025 86.50317,7.90598 127.24573,1.25113 39.54406,-6.45908 67.58459,-38.45057 104.85263,-47.89259 4.52085,-1.14537 9.16643,-1.80955 13.89434,-2.1566 z" />
  <path
     id="path3392-4"
     style="fill:none;stroke:url(#linearGradient118139);stroke-width:0.118886px;stroke-linecap:butt;stroke-linejoin:miter;stroke-opacity:1"
     d="m 121.40518,164.426 c 0,0 34.47213,-5.61431 51.73435,-8.25408 24.7647,-3.78706 49.82971,-5.82058 74.36601,-10.88047 24.52503,-5.05756 49.29899,-10.17148 72.57012,-19.41869 30.08221,-11.95372 55.77756,-33.202933 85.45382,-46.131603 C 419.32436,73.731322 448.28302,65.2538 448.28302,65.2538 m -327.61293,98.50172 c 0,0 34.77069,-5.5435 52.14572,-8.37895 24.76065,-4.0407 49.71615,-7.06858 74.25207,-12.30357 24.57518,-5.24337 49.62711,-9.68681 72.9242,-19.10369 29.89027,-12.08192 55.02308,-33.919476 84.31423,-47.389058 14.19001,-6.525301 44.01491,-16.065841 44.01491,-16.065841 M 119.93499,163.08502 c 0,0 35.07054,-5.46989 52.55595,-8.50226 24.76328,-4.29453 49.59586,-8.31216 74.13911,-13.72436 24.62497,-5.43023 49.95775,-9.19968 73.27841,-18.79253 29.69742,-12.2159 54.24366,-34.66035 83.14534,-48.655253 14.57471,-7.057435 45.24991,-17.678 45.24991,-17.678 M 119.19988,162.41445 c 0,0 35.37168,-5.39363 52.9651,-8.62404 24.7726,-4.54861 49.46902,-9.5514 74.02723,-15.14294 24.67436,-5.61798 50.29259,-8.70621 73.63265,-18.48511 29.53571,-12.3747 53.48455,-35.489547 82.02473,-50.013648 14.98739,-7.627081 46.58533,-19.363745 46.58533,-19.363745 M 118.4648,161.74398 c 0,0 35.67409,-5.31502 53.37313,-8.74445 24.7885,-4.8031 49.33569,-10.78648 73.91642,-16.55941 24.72335,-5.80643 50.62825,-8.21476 73.98693,-18.1812 29.34022,-12.51859 52.65184,-36.268094 80.79415,-51.287217 15.34643,-8.190149 47.75885,-21.033691 47.75885,-21.033691 M 117.7297,161.07348 c 0,0 35.97775,-5.23417 53.7801,-8.86345 24.81093,-5.05808 49.19601,-12.01758 73.80675,-17.97396 24.77189,-5.99539 50.96796,-7.71768 74.34113,-17.88063 29.17412,-12.68528 51.83498,-37.124968 79.6064,-52.6425 15.72829,-8.788323 49.02144,-22.76881 49.02144,-22.76881 M 116.9946,160.40293 c 0,0 36.28265,-5.15131 54.18601,-8.98114 24.83981,-5.31367 49.05005,-13.24487 73.69816,-19.38673 24.82002,-6.18469 51.31063,-7.21769 74.6953,-17.58307 29.0179,-12.86233 51.00546,-38.015766 78.41399,-54.023576 16.10742,-9.407467 50.29301,-24.538961 50.29301,-24.538961 M 116.25952,159.73243 c 0,0 36.58872,-5.06668 54.59084,-9.09768 24.87505,-5.56997 48.89787,-14.46866 73.59064,-20.798 24.86774,-6.37419 51.65622,-6.71519 75.04949,-17.28825 28.8716,-13.049112 50.16306,-38.936874 77.21731,-55.426768 16.48257,-10.046322 51.57201,-26.33934 51.57201,-26.33934 M 115.52441,159.06196 c 0,0 36.89594,-4.9805 54.99459,-9.21316 24.91654,-5.82715 48.7395,-15.68926 73.48412,-22.20803 24.91507,-6.56367 52.00456,-6.21054 75.40379,-16.99568 28.73435,-13.244188 49.3067,-39.882235 76.01494,-56.845191 16.85134,-10.702637 52.85322,-28.163182 52.85322,-28.163182 M 114.78929,158.39142 c 0,0 37.20427,-4.89292 55.39722,-9.32767 24.9642,-6.08532 48.57495,-16.90708 73.37851,-23.61721 24.96207,-6.75303 52.35555,-5.704 75.75829,-16.7049 28.60764,-13.447564 48.43878,-40.850777 74.81147,-58.278222 17.21444,-11.375546 54.14144,-30.006112 54.14144,-30.006112 M 114.05421,157.72092 c 0,0 37.51363,-4.80416 55.79877,-9.44125 25.01789,-6.34452 48.4044,-18.12201 73.27386,-25.02544 25.00872,-6.94208 52.69471,-5.22598 76.11288,-16.41606 28.12517,-13.439248 47.0849,-41.068672 72.76661,-58.734689 17.15102,-11.797887 54.00903,-31.355267 54.00903,-31.355267 l 1.13535,-0.762806 1.13533,-0.762818 m -334.96693,141.8278 c 0,0 37.82408,-4.7142 56.19936,-9.55366 25.07763,-6.60462 48.2282,-19.33349 73.1705,-26.43214 25.05498,-7.13073 53.06549,-4.68602 76.46715,-16.12988 C 347.54084,91.054049 365.81947,62.082037 391.54863,43.741485 409.46787,30.968093 448.28039,9.9800599 448.28039,9.9800599 M 112.584,156.37991 c 0,0 38.13536,-4.62372 56.59859,-9.66588 25.14307,-6.86636 48.04546,-20.54415 73.06734,-27.83981 25.1012,-7.31877 53.42363,-4.17582 76.82259,-15.84299 28.28749,-14.104683 45.76012,-43.867894 71.18442,-62.64897 18.25801,-13.487287 58.0283,-35.6380721 58.0283,-35.6380721 M 111.8489,155.70938 c 0,0 38.44742,-4.5328 56.99649,-9.77781 25.21415,-7.12967 47.85632,-21.75379 72.96449,-29.24818 25.14737,-7.50609 53.78343,-3.66542 77.17905,-15.55559 28.19764,-14.330676 44.84669,-44.881796 69.9766,-64.090201 18.58497,-14.205695 59.31796,-37.49934133 59.31796,-37.49934133 M 111.11383,155.03888 c 0,0 38.76017,-4.44163 57.39298,-9.88962 25.29073,-7.39469 47.66072,-22.96278 72.86175,-30.65761 25.1936,-7.69259 54.14473,-3.15508 77.53677,-15.267309 28.11594,-14.558241 43.92589,-45.89255 68.77316,-65.51552 18.90107,-14.927 60.60459,-39.3405371 60.60459,-39.3405371 M 110.37869,154.36837 c 0,0 39.07358,-4.35042 57.78805,-10.00143 25.37272,-7.66153 47.45861,-24.17145 72.75904,-32.06845 25.24002,-7.87812 54.50731,-2.64493 77.89594,-14.977618 28.04181,-14.786285 42.99906,-46.89602 67.57541,-66.920506 19.20605,-15.648832 61.88723,-41.155728 61.88723,-41.155728 M 109.64362,153.69787 c 0,0 39.38752,-4.25932 58.18159,-10.11332 25.45996,-7.9303 47.24995,-25.38011 72.65617,-33.48087 25.28668,-8.06267 54.87092,-2.13529 78.25674,-14.68624 27.97355,-15.013144 42.06616,-47.88621 66.38201,-68.298299 19.4985,-16.368132 63.16073,-42.938153 63.16073,-42.938153 M 108.90851,153.02735 c 0,0 39.70197,-4.16849 58.57362,-10.2254 25.55233,-8.20108 47.03463,-26.58906 72.55299,-34.89525 25.33373,-8.246091 55.23542,-1.6262 78.61942,-14.392753 27.91226,-15.23878 41.13068,-48.863011 65.198,-69.649533 19.78031,-17.0839107 64.431,-44.684803 64.431,-44.684803 M 108.17342,152.35685 c 0,0 40.01681,-4.07811 58.96404,-10.33776 25.64973,-8.47396 46.81264,-27.79849 72.44938,-36.31168 25.38127,-8.428344 55.6006,-1.11781 78.98411,-14.096895 27.8555,-15.461285 40.19167,-49.819808 64.02026,-70.966408 20.04962,-17.7929675 65.69039,-46.389253 65.69039,-46.389253 M 107.43834,151.68632 c 0,0 40.33195,-3.98831 59.35279,-10.45047 25.75205,-8.74902 46.58394,-29.0087 72.34525,-37.73045 25.42937,-8.609369 55.96626,-0.61015 79.35099,-13.798378 27.80365,-15.680343 39.25174,-50.75583 62.85212,-72.248581 20.30776,-18.4941879 66.94238,-48.048714 66.94238,-48.048714 M 106.70324,151.01582 c 0,0 40.64737,-3.8992 59.73988,-10.56361 25.85914,-9.02632 46.34845,-30.21985 72.24039,-39.15167 25.47818,-8.789121 56.3323,-0.1032 79.72023,-13.496975 27.75549,-15.8949 38.3114,-51.667628 61.6931,-73.4922 20.55444,-19.1855686 68.18426,-49.659277 68.18426,-49.659277 M 105.96813,150.34533 c 0,0 40.96296,-3.81097 60.12524,-10.67722 25.97091,-9.30594 46.10621,-31.43211 72.13478,-40.575534 25.52781,-8.967518 56.69861,0.402936 80.09199,-13.192455 27.71051,-16.104346 37.37184,-52.55342 60.54408,-74.695444 20.79008,-19.8657698 69.41597,-51.21824 69.41597,-51.21824 M 105.23303,149.67481 c 0,0 41.27864,-3.72367 60.50882,-10.79136 26.08728,-9.5879 45.85719,-32.64565 72.02835,-42.002147 25.57832,-9.144537 57.06506,0.908509 80.46638,-12.884627 27.66815,-16.308082 36.43428,-53.411698 59.40587,-75.8568805 21.01523,-20.5336475 70.6376,-52.7234815 70.6376,-52.7234815 M 104.49792,149.0043 c 0,0 41.59438,-3.63742 60.89063,-10.90608 26.20808,-9.87224 45.60134,-33.8606 71.92092,-43.431615 25.62978,-9.320174 57.43159,1.413521 80.84351,-12.573385 C 345.7807,65.587674 353.65238,27.852356 376.43154,5.1183558 397.66172,-16.069734 448.27976,-49.05481 448.27976,-49.05481 m -344.51693,197.3886 c 0,0 41.91008,-3.55234 61.27062,-11.02138 26.33325,-10.15903 45.33869,-35.07706 71.81247,-44.864012 25.68233,-9.49438 57.79816,1.918093 81.22346,-12.258647 C 345.65789,63.493467 352.6372,25.150047 375.23143,2.1415065 396.66661,-19.68674 448.27842,-53.424605 448.27842,-53.424605 M 103.02774,147.66329 c 0,0 42.22566,-3.46848 61.64876,-11.13732 26.46266,-10.44828 45.06927,-36.29513 71.70294,-46.299435 25.73603,-9.66712 58.16472,2.42242 81.60635,-11.940241 C 345.53632,61.40612 351.62674,22.477879 374.0436,-0.79132966 395.67492,-23.245113 448.27931,-57.693291 448.27931,-57.693291 M 102.29263,146.99274 c 0,0 42.5411,-3.38592 62.02505,-11.25385 26.59623,-10.73999 44.79313,-37.514839 71.59233,-47.737862 25.79093,-9.838403 58.53127,2.926661 81.99217,-11.61819 27.51238,-17.056619 32.71797,-56.545055 54.96353,-80.0609082 21.81798,-23.0638618 75.41062,-58.1801488 75.41062,-58.1801488 M 101.55753,146.32225 c 0,0 42.85633,-3.30479 62.39946,-11.37108 26.73385,-11.03423 44.51024,-38.736332 71.48048,-49.179439 25.84717,-10.008221 58.89779,3.430902 82.38108,-11.292374 27.4753,-17.22613 31.8018,-57.252189 53.88337,-81.0016219 21.99747,-23.6589881 76.57799,-59.4015181 76.57799,-59.4015181 M 100.82245,145.65175 c 0,0 43.17128,-3.22508 62.77201,-11.48894 26.87542,-11.33094 44.22073,-39.959508 71.36751,-50.624008 25.90472,-10.176558 59.26433,3.935425 82.77301,-10.962889 27.43731,-17.388023 30.89035,-57.92736 52.813,-81.8970632 22.16841,-24.2384088 77.73142,-60.5663018 77.73142,-60.5663018" />
  <path
     id="path22726-4"
     style="font-variation-settings:normal;vector-effect:none;fill:none;fill-opacity:1;stroke:url(#linearGradient24274-3);stroke-width:0.356657;stroke-linecap:butt;stroke-linejoin:miter;stroke-miterlimit:4;stroke-dasharray:none;stroke-dashoffset:0;stroke-opacity:1;stop-color:#000000"
     d="M -1.7324141,234.10543 C 22.693943,227.79195 48.868663,190.6049 75.643182,186.60455 c 31.591188,-4.72 57.315348,22.34195 90.056568,22.96676 54.23242,1.03502 80.21158,-54.33883 146.51407,-16.18689 28.87181,16.61349 78.03383,2.00453 104.90253,-30.43121 M -1.9968113,233.5408 c 24.1730633,-6.48141 50.0683083,-44.25357 77.1122873,-48.13015 31.473914,-4.58362 57.682554,22.21374 90.753804,22.53263 53.50575,0.84387 79.76615,-53.44714 145.14643,-16.33658 29.08815,16.10996 77.28116,1.83272 104.51506,-29.69305 M -2.2612084,232.97617 C 21.658548,226.32686 47.274344,187.9695 74.58777,184.21673 c 31.35669,-4.44724 58.04979,22.08561 91.45101,22.09845 52.77912,0.65274 79.32078,-52.55543 143.77882,-16.48623 29.30441,15.60643 76.52847,1.6609 104.12758,-28.95485 M -2.5256056,232.41153 c 23.6664736,-6.81722 49.0027966,-45.75974 76.5856576,-49.38871 31.239468,-4.3108 58.416998,21.95747 92.148238,21.66433 52.05248,0.46155 78.87539,-51.66378 142.41119,-16.63586 29.5207,15.10284 75.77589,1.48897 103.74016,-28.21676 M -2.790015,231.8469 c 23.41318,-6.9851 48.470053,-46.51281 76.322348,-50.01799 31.122257,-4.17439 58.784257,21.82931 92.845467,21.23023 51.32587,0.27037 78.42999,-50.77213 141.0436,-16.78552 29.73699,14.59924 75.02319,1.31711 103.35263,-27.47869 M -3.0544121,231.28227 c 23.1598851,-7.153 47.9372841,-47.2659 76.0590271,-50.64733 31.005025,-4.03799 59.151455,21.70125 93.542705,20.79612 50.59918,0.0791 77.98461,-49.8804 139.67596,-16.93518 29.95325,14.09571 74.27055,1.1453 102.9651,-26.74048 M -3.3188093,230.71763 c 22.9065783,-7.32085 47.4045283,-48.01895 75.7957303,-51.27656 30.887809,-3.90166 59.518659,21.57301 94.239909,20.36194 49.87257,-0.11188 77.53923,-48.98872 138.30835,-17.08485 30.16956,13.59215 73.5179,0.97347 102.57765,-26.00236 M -3.5832064,230.15299 c 22.6532834,-7.48877 46.8717724,-48.77203 75.5324094,-51.90586 30.770567,-3.76521 59.885897,21.4449 94.937117,19.92781 49.14594,-0.30303 77.09384,-48.09702 136.94074,-17.23445 30.38587,13.08853 72.76526,0.80159 102.19013,-25.26423 M -3.8476158,229.58835 C 18.552386,221.93168 42.4914,180.06328 71.421485,177.05323 c 30.653345,-3.62879 60.253115,21.31671 95.634335,19.49368 48.41928,-0.49422 76.64841,-47.20539 135.57312,-17.38412 30.60216,12.58498 72.0126,0.62975 101.80268,-24.52613 M -3.8713007,228.93732 c 22.0774627,-8.04515 45.6713167,-50.20219 74.7650917,-53.07801 30.536129,-3.49241 60.620329,21.18856 96.331499,19.05955 47.69267,-0.68542 76.20308,-46.31371 134.20556,-17.53381 30.81842,12.08144 71.25993,0.45792 101.41515,-23.78792 M -3.8713251,228.26862 c 21.7480871,-8.4612 44.9949111,-50.86204 74.2373981,-53.6032 30.418907,-3.35599 60.987567,21.06041 97.028727,18.62537 46.96601,-0.87651 75.75772,-45.42199 132.83793,-17.68342 31.03472,11.57786 70.50731,0.28607 101.02772,-23.04986 M -3.8712762,227.58969 c 21.4187252,-8.88321 44.3234332,-51.51078 73.7096302,-54.11821 30.301666,-3.21961 61.354806,20.93227 97.725956,18.19127 46.23942,-1.06768 75.31234,-44.53031 131.47027,-17.8331 31.25102,11.07429 69.75468,0.11433 100.6403,-22.31171 M -3.8706526,226.89979 c 21.0892776,-9.31154 43.6567476,-52.14786 73.1813006,-54.62221 30.184415,-3.08318 61.722032,20.8041 98.423182,17.75713 45.51276,-1.25886 74.86693,-43.63862 130.10266,-17.98273 31.46732,10.57069 69.00197,-0.0578 100.25277,-21.57358 M -3.8710072,226.19896 c 20.7602942,-9.7446 42.9959202,-52.77313 72.6539252,-55.11532 30.067225,-2.9468 62.089272,20.67594 99.120432,17.32301 44.78607,-1.44997 74.42151,-42.74696 128.73508,-18.13239 31.68355,10.06714 68.2493,-0.2295 99.86522,-20.83542 M -3.8711295,225.48607 C 16.56034,215.30271 38.469282,172.10055 68.255224,169.88974 c 29.949987,-2.81041 62.456486,20.54779 99.817636,16.88883 44.05943,-1.64109 73.97612,-41.85522 127.36742,-18.28204 31.89987,9.56363 67.49667,-0.40126 99.47778,-20.0973 M -3.8711295,224.76041 C 16.231809,214.13301 37.81941,170.77614 67.727506,168.69582 c 29.832749,-2.67401 62.823734,20.41967 100.514864,16.45471 43.33279,-1.83228 73.53074,-40.96357 125.99982,-18.43167 32.11617,9.06001 66.74406,-0.57322 99.0903,-19.35921 M -3.8712395,224.02152 C 15.903621,212.94504 37.175371,169.45264 67.1998,167.50189 c 29.715535,-2.53758 63.19094,20.29152 101.21207,16.0206 42.60613,-2.02346 73.08534,-40.07186 124.63221,-18.58133 32.33243,8.55643 65.99137,-0.74505 98.70277,-18.62105 M -3.8714107,223.2685 C 15.575897,211.73829 36.537384,168.13013 66.672081,166.30799 c 29.598335,-2.40121 63.558179,20.16335 101.909289,15.58644 41.87954,-2.21458 72.63998,-39.1802 123.26458,-18.73095 32.54874,8.05285 65.23876,-0.91691 98.31531,-17.88297 M -3.8713618,222.5005 C 15.248931,210.51187 35.905817,166.80855 66.144363,165.11409 c 29.481096,-2.26485 63.925407,20.03519 102.606507,15.15229 41.15285,-2.40574 72.19459,-38.28854 121.89698,-18.88064 32.76497,7.54935 64.48605,-1.08874 97.92784,-17.14477 M -3.871105,221.71655 c 18.793975,-12.45142 39.152019,-56.22857 69.48775,-57.79637 29.363846,-2.12844 64.292625,19.90701 103.303725,14.71813 40.42624,-2.59689 71.74923,-37.39681 120.52937,-19.03026 32.98132,7.04572 63.73346,-1.26059 97.54033,-16.40666 M -3.8711662,220.91617 c 18.4685752,-12.91768 38.5337792,-56.7477 68.9601172,-58.18995 29.246644,-1.99198 64.659849,19.77893 104.000899,14.2841 39.69963,-2.78811 71.30384,-36.50517 119.1618,-19.17998 33.19759,6.54218 62.98075,-1.43245 97.15287,-15.66851 M -3.8710561,220.09809 C 14.273047,206.71062 34.051429,162.85003 64.561233,161.53232 c 29.129394,-1.8556 65.027077,19.65076 104.698167,13.84993 38.97296,-2.97921 70.85841,-35.61349 117.79414,-19.32958 33.41388,6.0386 62.22812,-1.60433 96.76535,-14.93043 M -3.8714352,219.26184 C 13.949444,205.40199 33.447252,161.53275 64.033514,160.33838 c 29.012168,-1.71919 65.394306,19.52264 105.395366,13.41582 38.24637,-3.1704 70.41307,-34.72178 116.42656,-19.47922 33.63015,5.535 61.47544,-1.77617 96.37786,-14.19227 M -3.8712884,218.40556 C 13.627492,204.07041 32.850937,160.21663 63.505808,159.14447 c 28.894967,-1.58279 65.761522,19.39447 106.092582,12.98161 37.51968,-3.3615 69.96767,-33.83002 115.05892,-19.62884 33.84649,5.03151 60.7228,-1.94801 95.99041,-13.45416 M -3.8708849,217.52836 C 13.307154,202.71581 32.262594,158.90175 62.97809,157.95055 c 28.777729,-1.44636 66.12878,19.26633 106.7898,12.5475 36.79307,-3.55265 69.5223,-32.93841 113.6913,-19.77851 34.06274,4.52791 59.97022,-2.11985 95.60296,-12.71601 m -382.9334507,78.6265 c 16.8591187,-15.29066 35.5531947,-59.04187 66.3216727,-59.8734 28.660515,-1.30996 66.495988,19.13822 107.487028,12.1134 36.06638,-3.74386 69.07686,-32.04672 112.32368,-19.92818 34.27904,4.02431 59.21752,-2.29173 95.21545,-11.97789 M -3.8716064,215.70857 C 12.670328,199.93899 31.109643,156.27587 61.922678,155.5627 c 28.543289,-1.17358 66.863222,19.01005 108.184232,11.67924 35.33977,-3.93496 68.63147,-31.155 110.95605,-20.07781 34.49534,3.52081 58.46487,-2.46356 94.828,-11.23974 M -3.8708116,214.76175 C 12.355627,198.5124 30.546807,154.965 61.39496,154.36881 c 28.426063,-1.03717 67.2304,18.88189 108.88146,11.24509 34.61315,-4.12613 68.18611,-30.26333 109.58844,-20.22749 34.71161,3.01727 57.71223,-2.63539 94.44048,-10.50159 M -3.8714474,213.79074 C 12.04205,197.06347 29.992102,153.65554 60.867241,153.17491 c 28.308825,-0.90078 67.597659,18.75368 109.578679,10.81097 33.88649,-4.31731 67.74073,-29.37168 108.22087,-20.37716 34.92792,2.51367 56.95954,-2.80723 94.05294,-9.76346 m -376.591104,78.9467 c 15.602807,-17.20415 33.31859,-60.44437 64.210909,-60.81098 28.191599,-0.76439 67.964875,18.62558 110.275915,10.3768 33.15984,-4.50842 67.29532,-28.47996 106.8532,-20.52677 35.14419,2.0101 56.20694,-2.9791 93.66549,-9.02531 M -3.8713496,211.76482 C 11.423396,194.08638 28.91199,151.04118 59.811817,150.78706 c 28.074373,-0.628 68.332133,18.49739 110.973123,9.94269 32.43319,-4.69954 66.84995,-27.58829 105.4856,-20.67647 35.36046,1.50657 55.45427,-3.15088 93.278,-8.28717 M -3.8712395,210.7076 C 11.118354,192.55827 28.386852,149.73641 59.284099,149.59313 c 27.957171,-0.49156 68.699341,18.36931 111.670341,9.50855 31.70658,-4.89073 66.40457,-26.69658 104.11799,-20.82606 35.57677,1.00298 54.70165,-3.32279 92.89056,-7.54908 M -3.8712273,209.61899 C 10.816406,191.00344 27.872034,148.43333 58.756405,148.39923 c 27.839897,-0.35516 69.066575,18.24113 112.367545,9.0744 30.97992,-5.08191 65.95915,-25.80489 102.75037,-20.97573 35.79305,0.49942 53.94902,-3.49465 92.50306,-6.81091 M -3.871264,208.4974 c 14.389133,-19.07607 31.239167,-61.36534 62.099951,-61.29209 27.722707,-0.21878 69.433793,18.11298 113.064733,8.6403 30.25331,-5.27305 65.51382,-24.91322 101.38282,-21.1254 36.00931,-0.001 53.1963,-3.66646 92.11553,-6.07281 M -3.8714719,207.34129 C 10.222952,187.81176 26.874715,145.83256 57.700981,146.0114 c 27.605457,-0.0822 69.801049,17.98483 113.761939,8.20614 29.52667,-5.46416 65.06847,-24.02154 100.01518,-21.27506 36.22562,-0.50771 52.4437,-3.8383 91.72809,-5.33464 M -3.8716186,206.14874 C 9.9321433,186.17392 26.393009,144.53502 57.173262,144.81747 c 27.488256,0.0541 70.168238,17.85665 114.459168,7.77201 28.80007,-5.65536 64.62308,-23.12987 98.64756,-21.42467 36.44189,-1.01131 51.69104,-4.01021 91.34059,-4.59655 M -3.871264,204.91732 c 13.517404,-20.41067 29.794746,-61.67786 60.51682,-61.29374 27.371006,0.19047 70.535484,17.72852 115.156424,7.33784 28.07336,-5.84653 64.17763,-22.23814 97.27989,-21.57432 36.65822,-1.51488 50.93838,-4.18208 90.95312,-3.8584 M -3.8733794,203.64993 C 9.3628879,182.81572 25.464177,141.9459 56.117838,142.42965 c 27.253804,0.32684 70.902702,17.60034 115.853632,6.90372 27.34672,-6.03764 63.73223,-21.34645 95.91234,-21.72398 36.87447,-2.01844 50.18569,-4.35389 90.56564,-3.12028 M -3.8741497,202.33904 C 9.0857985,181.09327 25.018335,140.65455 55.590132,141.23571 c 27.136554,0.46324 71.269918,17.47229 116.550818,6.46962 26.62013,-6.22882 63.28689,-20.45479 94.54471,-21.87367 37.09079,-2.52199 49.4331,-4.52572 90.17814,-2.38211 M -3.8724011,200.98071 C 8.8162536,179.33668 24.5873,139.36547 55.062414,140.04181 c 27.019364,0.59965 71.637176,17.34407 117.248056,6.03545 25.89347,-6.41994 62.84148,-19.56313 93.1771,-22.0233 37.30703,-3.02555 48.68043,-4.69758 89.79066,-1.64402" />
  <path
     id="path2997-1-3"
     style="fill:url(#linearGradient4551-1-0);fill-opacity:1;stroke:none;stroke-width:0.118886px;stroke-linecap:butt;stroke-linejoin:miter;stroke-opacity:1"
     d="m 448.31625,-11.71307 c -66.38683,8.3482144 -61.6241,93.019909 -122.67979,102.864084 -40.58777,2.279394 -53.47194,-8.904093 -84.35509,-1.128533 -36.78645,9.261861 -58.73743,41.267049 -90.17029,44.290899 -33.66777,3.23878 -71.958604,-13.03982 -108.473902,4.34353 -22.67165,10.79297 -33.2440023,38.28091 -46.5081363,58.00389 v 26.86746 C 25.878888,206.47157 51.701502,180.38343 73.170788,173.58272 c 21.881821,-6.93139 44.353032,-2.86286 67.245752,-2.30952 20.16169,0.4873 41.11314,-13.49638 61.90701,-14.87694 41.57219,-2.76026 86.50317,7.90598 127.24573,1.25112 39.54406,-6.45908 67.58459,-38.45058 104.85263,-47.8926 4.52085,-1.14537 9.16643,-1.80956 13.89434,-2.15661 z" />
  <path
     id="path6969-8-1"
     style="fill:url(#linearGradient12309-5-42);fill-opacity:1;stroke:none;stroke-width:0.118886px;stroke-linecap:butt;stroke-linejoin:miter;stroke-opacity:1"
     d="m 448.31648,46.296745 c -41.33342,5.492645 -62.18991,22.218177 -87.73795,57.227075 -30.32404,41.55348 -86.80682,25.34746 -86.80682,25.34746 l 66.65654,23.51527 107.88823,-19.64035 z" />
  <path
     id="path3305-7"
     style="fill:none;fill-opacity:1;stroke:url(#linearGradient6948-4);stroke-width:0.118886px;stroke-linecap:butt;stroke-linejoin:miter;stroke-opacity:1"
     d="m 130.99314,152.57768 c 9.84141,0.90549 35.3123,-0.48671 44.9609,-3.77977 49.06911,-23.88613 67.40826,-51.059001 123.34939,-34.82649 62.72533,18.20113 84.33918,-67.237698 149.10464,-76.696899 M 130.63937,171.80834 c 0,0 22.74767,-1.12347 54.60529,-3.03408 56.26112,-3.96385 73.51903,-2.91642 135.04836,13.78672 42.30081,11.48326 87.57361,-43.63922 128.12934,-50.9321 m -317.77079,39.51635 c 0.33938,0.0312 23.18093,-1.10154 54.27271,-3.05982 55.98808,-4.71881 73.46133,-4.5889 134.64501,12.11038 42.71706,11.65905 87.92976,-43.55593 128.85642,-51.29826 m -317.76194,41.58455 c 0.67875,0.0628 23.61418,-1.07957 53.94015,-3.08547 55.71395,-5.47191 73.39766,-6.26919 134.24153,10.43401 43.13951,11.84291 88.2867,-43.50785 129.57739,-51.71659 m -317.74686,43.70491 c 1.01807,0.0935 24.04745,-1.05756 53.60761,-3.11122 55.39195,-6.2241 73.40104,-7.93717 133.83811,8.75779 43.56892,12.03535 88.64399,-43.49873 130.2918,-52.18907 m -317.72532,45.8794 c 1.3574,0.12488 24.48071,-1.03565 53.27501,-3.13692 55.13152,-6.97644 73.31673,-9.63614 133.4347,7.08137 44.01182,12.23874 89.01434,-43.53506 131.01808,-52.72144 m -317.71562,48.11387 c 1.69683,0.15619 24.914,-1.01372 52.94246,-3.16263 54.88253,-7.7273 73.21446,-11.34724 133.03136,5.40507 44.46789,12.45366 89.39449,-43.62167 131.75176,-53.31507 m -317.71334,50.40949 c 2.03614,0.1873 25.34724,-0.99171 52.60985,-3.18832 54.60891,-8.45854 73.08305,-13.074 132.62792,3.72879 44.93545,12.68019 89.77774,-43.76248 132.48373,-53.96945 m -317.70931,52.76583 c 2.3755,0.21859 25.78049,-0.96973 52.27734,-3.21403 54.33155,-9.19689 72.98906,-14.79835 132.2245,2.0525 45.41296,12.91873 90.15749,-43.9623 133.20508,-54.68349 m -317.69474,55.1819 c 2.71489,0.24981 26.2138,-0.9478 51.94476,-3.23972 54.05442,-9.93099 72.88474,-16.51906 131.82113,0.37609 45.93346,13.16765 90.50922,-44.22129 133.91765,-55.45786 m -317.67133,57.65836 c 3.05422,0.28099 26.647,-0.92581 51.6122,-3.26545 53.77787,-10.66035 72.77549,-18.25646 131.41763,-1.30017 46.56343,13.46374 90.77288,-44.53047 134.62342,-56.29291 m -317.64103,60.1954 c 3.39359,0.31225 27.08027,-0.90388 51.27961,-3.29118 53.50227,-11.38489 72.66138,-20.01071 131.01426,-2.97648 47.13255,13.75883 91.13446,-44.94821 135.35161,-57.19555 m -317.63332,62.8001 c 3.73299,0.34346 27.51358,-0.88194 50.94708,-3.3169 53.22812,-12.10418 72.54053,-21.77779 130.61081,-4.65281 47.725,14.07414 91.49144,-45.45701 136.07298,-58.155938 M 130.78574,163.8508 c 4.07233,0.37468 27.94682,-0.85996 50.61452,-3.3426 52.9559,-12.81777 72.41337,-23.5588 130.20744,-6.32915 48.34462,14.41257 91.85184,-46.06952 136.79572,-59.172958 M 130.79797,163.18768 c 4.41167,0.40589 28.38008,-0.83801 50.28193,-3.36834 52.68604,-13.52542 72.27965,-25.35459 129.804,-8.00542 48.99146,14.77567 92.21836,-46.79697 137.51798,-60.241225 m -317.5917,70.951865 c 4.75104,0.43713 28.81331,-0.81607 49.94935,-3.39406 52.41915,-14.22681 72.13948,-27.16643 129.40059,-9.68172 49.665,15.16525 92.59785,-47.65178 138.23973,-61.354113 M 130.82234,161.86141 c 5.0904,0.46837 29.24665,-0.79408 49.61683,-3.41974 52.15564,-14.92193 71.99278,-28.9947 128.9972,-11.35808 50.36355,15.58201 93.00034,-48.646021 138.96123,-62.503169 M 130.83456,161.19827 c 5.42977,0.49959 29.67986,-0.77214 49.28424,-3.44542 51.89613,-15.61019 71.83931,-30.83972 128.59378,-13.03439 51.08446,16.02648 93.44062,-49.791579 139.68441,-63.678769 M 130.84676,160.5352 c 5.76912,0.53081 30.11313,-0.75023 48.95167,-3.4712 51.64106,-16.29151 71.70288,-32.77665 128.1903,-14.71069 51.21311,16.37909 94.1401,-51.156393 140.40286,-64.866773 m -317.5326,82.385513 c 6.10845,0.56205 30.54637,-0.72824 48.61909,-3.4969 51.39096,-16.96579 71.53702,-34.65848 127.78694,-16.38701 51.92995,16.8682 94.61159,-52.596021 141.13399,-66.058413 M 130.87115,159.20892 c 6.44784,0.59323 30.97966,-0.70625 48.28655,-3.5226 51.14624,-17.63281 71.36149,-36.54944 127.38347,-18.06333 52.67378,17.38124 95.11663,-54.178157 141.85658,-67.232539 m -317.5144,88.155329 c 6.78721,0.62452 31.41294,-0.68431 47.95399,-3.54829 50.90733,-18.29265 71.17421,-38.4434 126.98009,-19.73963 53.45068,17.91437 95.67345,-55.895012 142.57928,-68.376103 M 130.89556,157.88267 c 7.12657,0.65572 31.84622,-0.66234 47.62139,-3.57403 50.67467,-18.94478 70.97216,-40.3323 126.5767,-21.41595 54.26601,18.46096 96.29296,-57.72761 143.30242,-69.473359 M 130.90775,157.21955 c 7.46592,0.6869 32.27947,-0.64038 47.28887,-3.59975 50.44856,-19.58958 70.74593,-42.18978 126.17327,-23.09223 54.76347,18.86879 96.18804,-59.182988 142.98818,-70.280601 0.35299,-0.08033 0.70508,-0.16012 1.05634,-0.238817 M 130.91994,156.5564 c 7.80528,0.71814 32.71274,-0.61842 46.9563,-3.62546 50.22934,-20.22669 70.17052,-43.05724 125.76988,-24.76855 60.96238,20.05275 87.38811,-59.349714 144.77394,-71.52525 m -317.48793,99.25615 c 8.14467,0.7494 33.14599,-0.59647 46.62374,-3.65119 50.01721,-20.85605 69.76601,-44.4686 125.36646,-26.4449 61.29335,19.86913 86.95425,-60.762629 145.49803,-72.488018 m -317.476,101.920978 c 8.48397,0.78058 33.57921,-0.5745 46.29117,-3.67686 49.81241,-21.47775 69.33921,-45.85214 124.96306,-28.12126 61.62513,19.64391 86.45253,-62.133792 146.2163,-73.408191 M 130.95652,154.56702 c 8.82337,0.81183 34.01251,-0.55259 45.9586,-3.70259 49.61512,-22.09159 68.88899,-47.2026 124.55962,-29.79754 61.94392,19.36637 85.92881,-63.471449 146.9486,-74.290114 M 130.96874,153.90389 c 9.16273,0.84308 34.44576,-0.53059 45.62603,-3.72827 49.42542,-22.69766 68.41736,-48.52341 124.15617,-31.47389 62.23147,19.03553 85.38911,-64.766337 147.65965,-75.128631 M 130.98093,153.24074 c 9.50209,0.87428 34.87905,-0.50859 45.29348,-3.75398 49.24343,-23.29578 67.92269,-49.806464 123.75278,-33.15017 62.49588,18.64499 84.86601,-66.027863 148.39668,-75.933262" />
  <path
     id="path2985-6-6"
     style="fill:url(#linearGradient4479-5-2);fill-opacity:1;stroke:none;stroke-width:0.118886px;stroke-linecap:butt;stroke-linejoin:miter;stroke-opacity:1"
     d="m 448.31625,80.937969 c -4.5425,0.657588 -9.32389,1.519914 -14.52686,2.663365 -53.41669,11.739268 -62.91451,55.678196 -103.0783,51.635216 -19.51657,-1.9646 -62.19925,-13.9954 -81.38149,-10.39441 -32.68268,6.13535 -46.76231,27.0959 -80.24032,30.16904 -39.28488,3.60616 -64.15428,-15.98761 -103.103313,-10.15615 -32.726286,4.89977 -50.975486,42.2425 -66.23752227,60.91682 -1.16636523,1.42715 -2.37563713,2.75542 -3.61940303,4.00864 V 223.5112 C 7.9347789,217.69088 17.946166,211.81701 23.606268,208.14013 104.87554,138.97682 92.247722,196.67236 154.70773,192.67365 c 21.11853,-1.35201 74.51031,-41.73188 95.72765,-46.14544 43.82126,-9.11545 52.55069,21.4816 96.21106,14.40683 36.09088,-5.84827 68.12561,-26.16477 101.66981,-38.69625 z" />
  <path
     id="path2974-6-6"
     style="fill:url(#linearGradient4687-8-9);fill-opacity:1;stroke:none;stroke-width:0.118886px;stroke-linecap:butt;stroke-linejoin:miter;stroke-opacity:1"
     d="m 448.31625,110.32346 c -0.69719,0.11494 -1.39146,0.21435 -2.09276,0.3507 -26.0512,5.06487 -44.90856,22.60909 -76.90339,41.34064 -35.59826,20.84126 -86.91389,-25.35695 -122.28486,-16.49391 -35.93614,9.00464 -51.81277,39.96011 -87.45826,44.95056 -36.06052,5.04853 -57.81008,-39.38516 -105.29871,-20.42421 -28.497618,11.37834 -37.773602,40.00604 -51.5366215,54.11848 -2.18119404,2.23657 -4.3812308,4.24539 -6.6126068,6.06729 v 16.07689 c 3.63559236,-1.50945 7.3359665,-3.31824 11.1185345,-5.48725 C 36.34804,214.13603 48.102678,177.83748 83.213234,175.5984 c 19.162206,-1.22205 41.349936,22.4607 70.743826,26.09847 39.31781,4.86602 66.79948,-32.52371 89.40129,-36.53773 46.55835,-8.26852 63.01217,25.84312 97.61698,29.6888 45.23017,5.02647 73.63618,-31.09085 107.34092,-50.01759 z" />
  <path
     id="path1152-6"
     style="opacity:0.239939;fill:#e9ebed;fill-opacity:0.491332;stroke:none;stroke-width:0.118886px;stroke-linecap:butt;stroke-linejoin:miter;stroke-opacity:1"
     d="m 448.32639,117.24316 c -32.34392,22.84959 -59.82084,77.89576 -101.95102,77.87902 42.1028,1.69106 69.61037,-32.14466 101.95102,-50.2735 z m -185.91755,26.93257 c -40.49716,0.66622 -63.03901,55.7022 -104.44187,57.87436 37.1724,1.95192 63.57244,-33.01597 85.39138,-36.89095 46.55835,-8.26852 63.0122,25.84312 97.61698,29.6888 -32.44202,-3.60531 -40.26776,-51.30226 -78.56649,-50.67221 z M 81.656282,165.51805 c -34.536739,-0.41391 -59.422059,56.86902 -85.5278639,66.80596 v 3.42036 c 3.56742355,-1.60373 7.1569301,-3.37724 10.7267625,-5.33748 29.1004634,-16.68665 41.2474974,-52.56941 76.3580534,-54.80849 19.162206,-1.22205 41.349936,22.57318 70.743826,26.21094 -29.39389,-3.63776 -40.54682,-35.91072 -72.300778,-36.29129 z" />
  <path
     id="path4167-3"
     style="fill:url(#linearGradient14655-7);fill-opacity:1;stroke:none;stroke-width:0.118886px;stroke-linecap:butt;stroke-linejoin:miter;stroke-opacity:1"
     d="m 448.31625,141.7986 c -31.29854,18.89717 -59.64774,52.0623 -99.67688,53.26671 -0.75055,0.035 -1.50408,0.0578 -2.264,0.0575 1.31572,0.0529 2.61719,0.0712 3.905,0.0563 5.15046,-0.0599 10.08261,-0.65093 14.83395,-1.6707 0.85205,-0.18286 1.69131,-0.39476 2.53194,-0.6047 0.33142,-0.0827 0.66865,-0.15138 0.9984,-0.23822 0,-1.7e-4 0,-3.3e-4 0.004,-6.5e-4 0.5597,-0.14744 1.10952,-0.31938 1.66436,-0.47833 0.60114,-0.1722 1.20716,-0.33287 1.80276,-0.51814 1.14426,-0.35598 2.27798,-0.73554 3.40264,-1.13738 0,-3.3e-4 0,-9.7e-4 0.004,-0.001 1.12446,-0.40178 2.2397,-0.82557 3.34576,-1.27008 0,-3.2e-4 0.004,-9.6e-4 0.004,-0.001 0.1285,-0.0516 0.25395,-0.10956 0.38227,-0.16176 0.97677,-0.39755 1.94956,-0.80503 2.91295,-1.23342 1.08878,-0.48416 2.16882,-0.98702 3.24152,-1.50766 0,-6.5e-4 0.004,-10e-4 0.004,-0.002 1.01279,-0.49156 2.01832,-1.00144 3.01784,-1.52282 0.0603,-0.0315 0.12179,-0.0602 0.18199,-0.0916 1.05743,-0.55384 2.10738,-1.12327 3.15116,-1.70733 0,-9.7e-4 0.004,-0.001 0.005,-0.002 1.04382,-0.5841 2.08132,-1.18271 3.11264,-1.79391 0,-9.7e-4 0.004,-0.001 0.005,-0.002 1.03123,-0.61117 2.05669,-1.23458 3.07663,-1.86973 0,-9.6e-4 0.004,-0.002 0.005,-0.004 1.01991,-0.63518 2.03395,-1.2813 3.04376,-1.93734 0,-9.6e-4 0.004,-0.002 0.005,-0.004 2.02094,-1.31301 4.02283,-2.66495 6.01044,-4.04276 0,-10e-4 0.004,-0.002 0.005,-0.004 0.92523,-0.64141 1.8386,-1.30354 2.75815,-1.95503 1.05753,-0.74927 2.12133,-1.48921 3.17264,-2.24823 3.92857,-2.83626 7.81823,-5.72751 11.70809,-8.57332 0,-9.7e-4 0.004,-0.001 0.004,-0.002 0.12643,-0.0926 0.25273,-0.18248 0.37913,-0.27488 1.82084,-1.33066 3.64185,-2.65319 5.467,-3.95239 1.94779,-1.38656 3.90009,-2.74966 5.86192,-4.07624 v -6.5e-4 c 1.58457,-1.07149 3.18151,-2.09873 4.78078,-3.11642 0.38392,-0.24427 0.76263,-0.50743 1.1475,-0.74814 0.99343,-0.62124 1.99027,-1.22957 2.99131,-1.82487 0.57966,-0.34471 1.164,-0.67456 1.7465,-1.00975 0.42414,-0.24402 0.84559,-0.49614 1.27134,-0.73486 z m -189.30248,20.11837 v 6.5e-4 c -39.38992,-1.02202 -56.27452,41.20483 -101.0468,40.13248 37.17243,1.95193 63.57244,-33.01597 85.39138,-36.89094 1.41464,-0.25124 2.79922,-0.45998 4.15965,-0.63504 0.44955,-0.0578 0.88187,-0.0911 1.32569,-0.14091 0.9019,-0.10125 1.8047,-0.2033 2.68358,-0.27234 0.5106,-0.0401 1.00398,-0.0571 1.50704,-0.0866 0.78689,-0.0463 1.57597,-0.0957 2.34489,-0.11689 0.52358,-0.0144 1.03262,-0.009 1.5481,-0.0122 0.73083,-0.005 1.46306,-0.01 2.17809,0.006 0.49786,0.011 0.98438,0.0407 1.47481,0.0632 0.71827,0.0328 1.43482,0.0668 2.13764,0.12069 0.46643,0.0358 0.92461,0.0834 1.38444,0.12826 0.7,0.0684 1.39681,0.1408 2.08204,0.22938 0.44821,0.0581 0.88991,0.12514 1.332,0.19146 0.68712,0.10296 1.36997,0.2119 2.04286,0.33425 0.40837,0.0744 0.81306,0.15388 1.21637,0.23507 0.69813,0.14036 1.3896,0.28928 2.07318,0.44926 0.36599,0.0858 0.73058,0.17365 1.09253,0.26477 0.7061,0.17758 1.40443,0.36527 2.09593,0.56237 0.32085,0.0915 0.64138,0.18309 0.95919,0.27865 0.7439,0.2234 1.479,0.45849 2.20716,0.70265 0.25049,0.0841 0.50195,0.16695 0.75067,0.25338 0.79506,0.27596 1.58029,0.56417 2.35817,0.86252 0.17283,0.0663 0.34734,0.13036 0.5194,0.19777 0.88584,0.34672 1.76103,0.70749 2.62672,1.07988 0.056,0.0241 0.11274,0.0472 0.16871,0.0714 3.69281,1.59736 7.20361,3.41985 10.63451,5.32673 0.30296,0.16853 0.60572,0.33626 0.90737,0.50613 5.63186,3.16916 11.05703,6.54041 16.61777,9.58623 0.18571,0.10173 0.37377,0.19849 0.55985,0.29951 6.50718,3.53 13.2346,6.5741 20.78501,8.21947 -27.95551,-6.35252 -40.32528,-31.01846 -76.11795,-31.94713 z M 84.868764,174.39025 c -0.605144,-0.0122 -1.207096,9.7e-4 -1.805918,0.0391 -35.110568,2.23909 -49.601862,39.62564 -78.6542959,56.39576 -2.8081881,1.62098 -5.5778837,3.01434 -8.2795084,4.2399 v 1.22585 c 1.1276405,-0.47034 2.2561125,-0.94438 3.39698319,-1.47418 0.91923346,-0.42974 1.84484971,-0.87333 2.78468671,-1.34778 0.3593321,-0.1809 0.7197525,-0.36642 1.0805031,-0.55354 1.271229,-0.66046 2.5527782,-1.34564 3.8557256,-2.09277 29.1004637,-16.6866 40.8557377,-52.98515 75.9662937,-55.22422 14.37166,-0.91656 30.444926,12.23914 49.984096,20.40904 1.62826,0.68081 3.2803,1.32731 4.95773,1.92785 3.07578,1.1012 6.24747,2.02126 9.49839,2.74741 -25.4338,-5.81548 -45.43494,-25.96256 -62.784686,-26.29245 z m 62.784686,26.29245 c 0.49458,0.1131 0.98934,0.22469 1.48807,0.32668 -0.49961,-0.10014 -0.9927,-0.21602 -1.48807,-0.32668 z m 1.48807,0.32668 c 0.65926,0.13214 1.31801,0.26505 1.98472,0.37787 -0.66572,-0.11432 -1.32629,-0.2432 -1.98472,-0.37787 z m 1.98472,0.37787 c 0.0993,0.017 0.19821,0.0346 0.29762,0.0512 -0.0995,-0.0164 -0.19829,-0.0344 -0.29762,-0.0512 z m 0.29762,0.0512 c 0.83917,0.13802 1.68206,0.26557 2.5332,0.3709 -0.85061,-0.10528 -1.69431,-0.23107 -2.5332,-0.3709 z m 183.70786,-7.5737 c 0.93388,0.21221 1.88668,0.40164 2.85987,0.56616 0.98095,0.16215 1.97302,0.30471 2.98374,0.41704 -2.0103,-0.22341 -3.94635,-0.56975 -5.84361,-0.9832 z" />
  <path
     id="path16839-6"
     style="fill:url(#linearGradient25349-9);fill-opacity:1;stroke:none;stroke-width:1.18886;stroke-linecap:butt;stroke-linejoin:miter;stroke-miterlimit:4;stroke-dasharray:none;stroke-opacity:1"
     d="m 448.31625,79.13901 c 0,0 -8.82372,1.57923 -13.52407,2.96667 -55.96482,16.519595 -60.27597,50.25566 -97.05714,53.50874 -15.79059,1.39658 -61.2552,-14.58793 -86.5433,-11.06737 -32.65335,4.54596 -49.57956,25.84016 -78.13348,29.84415 -35.16159,4.93054 -71.48102,-17.47547 -111.12794,-9.5922 -30.913754,6.1468 -43.299886,38.47403 -65.8012783,63.3108 v 1.49979 C 15.096808,190.62613 30.430853,152.73476 61.93032,145.60843 c 38.41238,-8.69028 79.66888,17.36491 111.92459,9.93277 34.77231,-8.01199 44.94128,-25.09733 77.34631,-30.19166 28.74558,-4.51904 68.03309,14.62965 86.7215,12.34313 34.27575,-4.19363 46.84684,-38.892211 99.82855,-54.213918 3.56317,-1.030443 10.56498,-1.644782 10.56498,-1.644782 z" />
</svg>
