<?xml version="1.0" encoding="UTF-8"?>
<!-- Created with Inkscape (http://www.inkscape.org/) -->
<svg width="1920" height="1080" version="1.1" viewBox="0 0 508 285.75" xmlns="http://www.w3.org/2000/svg" xmlns:xlink="http://www.w3.org/1999/xlink">
 <defs>
  <linearGradient id="linearGradient16905">
   <stop stop-color="#1b668f" offset="0"/>
   <stop stop-color="#121c94" offset=".5"/>
   <stop stop-color="#382279" offset="1"/>
  </linearGradient>
  <linearGradient id="linearGradient12915">
   <stop stop-color="#445feb" offset="0"/>
   <stop stop-color="#252fb5" offset=".5"/>
   <stop stop-color="#9b53c1" offset="1"/>
  </linearGradient>
  <linearGradient id="linearGradient78639">
   <stop stop-color="#2936ea" offset="0"/>
   <stop stop-color="#164593" offset="1"/>
  </linearGradient>
  <linearGradient id="linearGradient75480" x1="-21.655" x2="1378.4" y1="110.14" y2="110.14" gradientTransform="matrix(.37189 0 0 .37189 -8.1143e-6 15.495)" gradientUnits="userSpaceOnUse" xlink:href="#linearGradient16905"/>
  <linearGradient id="linearGradient3595" x1="-21.656" x2="383.08" y1="81.035" y2="81.035" gradientTransform="matrix(1.4056 0 0 1.4056 -8.1143e-6 .069691)" gradientUnits="userSpaceOnUse">
   <stop stop-color="#51d677" stop-opacity=".47843" offset="0"/>
   <stop stop-color="#eded84" stop-opacity=".32941" offset=".26488"/>
   <stop stop-color="#a9ebf6" stop-opacity=".19951" offset=".49538"/>
   <stop stop-color="#e9bf9d" stop-opacity=".35686" offset=".74191"/>
   <stop stop-color="#5138aa" stop-opacity=".52157" offset="1"/>
  </linearGradient>
  <linearGradient id="linearGradient21995" x1="-21.655" x2="383.08" y1="92.147" y2="92.147" gradientTransform="translate(0 -155.84)" gradientUnits="userSpaceOnUse" xlink:href="#linearGradient12915"/>
  <linearGradient id="linearGradient21997" x1="-21.655" x2="383.08" y1="99.556" y2="99.556" gradientTransform="translate(0 -189.92)" gradientUnits="userSpaceOnUse" xlink:href="#linearGradient12843"/>
  <linearGradient id="linearGradient12843">
   <stop stop-color="#3410ab" stop-opacity=".67526" offset="0"/>
   <stop stop-color="#169bd6" offset=".5"/>
   <stop stop-color="#0940a2" stop-opacity=".56984" offset="1"/>
  </linearGradient>
  <linearGradient id="linearGradient21999" x1="-24.528" x2="386.16" y1="-24.045" y2="-24.045" gradientTransform="translate(0 -138.44)" gradientUnits="userSpaceOnUse" xlink:href="#linearGradient26557"/>
  <linearGradient id="linearGradient26557">
   <stop stop-color="#6a5e19" offset="0"/>
   <stop stop-color="#85751e" stop-opacity=".98824" offset=".14669"/>
   <stop stop-color="#8c7b20" stop-opacity=".96863" offset=".30531"/>
   <stop stop-color="#bda62c" stop-opacity=".95686" offset=".51079"/>
   <stop stop-color="#82721e" stop-opacity=".94902" offset=".6231"/>
   <stop stop-color="#968623" stop-opacity=".99608" offset=".83541"/>
   <stop stop-color="#4e4412" stop-opacity=".92157" offset="1"/>
  </linearGradient>
  <linearGradient id="linearGradient22001" x1="-21.655" x2="1378.4" y1="110.14" y2="110.14" gradientTransform="matrix(.26458 0 0 .26458 0 -4.9003)" gradientUnits="userSpaceOnUse" xlink:href="#linearGradient16905"/>
  <linearGradient id="linearGradient22003" x1="181.04" x2="361.42" y1="110.14" y2="110.14" gradientTransform="translate(0 -18.521)" gradientUnits="userSpaceOnUse" xlink:href="#linearGradient78639"/>
  <linearGradient id="linearGradient22005" x1="-21.655" x2="183.99" y1="110.14" y2="110.14" gradientTransform="translate(0 -18.521)" gradientUnits="userSpaceOnUse">
   <stop stop-color="#2f38a6" offset="0"/>
   <stop stop-color="#3d33eb" offset="1"/>
  </linearGradient>
  <linearGradient id="linearGradient22007" x1="-82.44" x2="1448.4" y1="345.52" y2="345.52" gradientTransform="scale(.26458)" gradientUnits="userSpaceOnUse" xlink:href="#linearGradient1294"/>
  <linearGradient id="linearGradient1294">
   <stop stop-color="#6a5e19" offset="0"/>
   <stop stop-color="#d1b832" stop-opacity=".98824" offset=".14669"/>
   <stop stop-color="#8c7b20" stop-opacity=".96863" offset=".30531"/>
   <stop stop-color="#dbc865" stop-opacity=".95686" offset=".51079"/>
   <stop stop-color="#82721e" stop-opacity=".94902" offset=".6231"/>
   <stop stop-color="#968623" stop-opacity=".99608" offset=".83541"/>
   <stop stop-color="#cfb530" stop-opacity=".92157" offset="1"/>
  </linearGradient>
  <linearGradient id="linearGradient22009" x1="-21.655" x2="383.08" y1="92.147" y2="92.147" gradientTransform="translate(0 -18.521)" gradientUnits="userSpaceOnUse">
   <stop stop-color="#445feb" offset="0"/>
   <stop stop-color="#4a55ed" offset=".5"/>
   <stop stop-color="#9b53c1" offset="1"/>
  </linearGradient>
  <linearGradient id="linearGradient22011" x1="-24.528" x2="386.16" y1="-24.045" y2="-24.045" gradientTransform="translate(0 -2.3527)" gradientUnits="userSpaceOnUse" xlink:href="#linearGradient1056"/>
  <linearGradient id="linearGradient1056">
   <stop stop-color="#6a5e19" offset="0"/>
   <stop stop-color="#85751e" stop-opacity=".98824" offset=".14669"/>
   <stop stop-color="#a38f26" stop-opacity=".96863" offset=".30531"/>
   <stop stop-color="#f5d737" stop-opacity=".95686" offset=".51079"/>
   <stop stop-color="#968623" stop-opacity=".99608" offset=".83541"/>
   <stop stop-color="#4e4412" stop-opacity=".92157" offset="1"/>
  </linearGradient>
  <linearGradient id="linearGradient22013" x1="-21.655" x2="383.08" y1="99.556" y2="99.556" gradientTransform="translate(0 -59.037)" gradientUnits="userSpaceOnUse">
   <stop stop-color="#3410ab" stop-opacity=".67526" offset="0"/>
   <stop stop-color="#2936e9" offset=".5"/>
   <stop stop-color="#0940a2" stop-opacity=".56984" offset="1"/>
  </linearGradient>
  <linearGradient id="linearGradient22015" x1="-24.528" x2="386.16" y1="-24.045" y2="-24.045" gradientTransform="translate(0 -44.553)" gradientUnits="userSpaceOnUse" xlink:href="#linearGradient17531"/>
  <linearGradient id="linearGradient17531">
   <stop stop-color="#6a5e19" offset="0"/>
   <stop stop-color="#85751e" stop-opacity=".98824" offset=".14669"/>
   <stop stop-color="#8c7b20" stop-opacity=".96863" offset=".30531"/>
   <stop stop-color="#d1b637" stop-opacity=".95686" offset=".51079"/>
   <stop stop-color="#82721e" stop-opacity=".94902" offset=".6231"/>
   <stop stop-color="#968623" stop-opacity=".99608" offset=".83541"/>
   <stop stop-color="#4e4412" stop-opacity=".92157" offset="1"/>
  </linearGradient>
  <linearGradient id="linearGradient22017" x1="253.56" x2="239.42" y1="147.01" y2="130.45" gradientTransform="translate(0 -18.521)" gradientUnits="userSpaceOnUse">
   <stop stop-color="#28ead8" stop-opacity=".58819" offset="0"/>
   <stop stop-color="#164593" stop-opacity=".023098" offset="1"/>
  </linearGradient>
  <linearGradient id="linearGradient22019" x1="251.13" x2="241.25" y1="138.13" y2="126.04" gradientTransform="matrix(-1 0 0 1 361.42 -18.521)" gradientUnits="userSpaceOnUse">
   <stop stop-color="#dc29ea" stop-opacity=".68736" offset="0"/>
   <stop stop-color="#164593" stop-opacity=".023098" offset="1"/>
  </linearGradient>
  <linearGradient id="linearGradient24593" x1="181.04" x2="361.42" y1="110.14" y2="110.14" gradientTransform="matrix(1.4056 0 0 1.4056 -8.1143e-6 -3.6492)" gradientUnits="userSpaceOnUse" xlink:href="#linearGradient78639"/>
  <linearGradient id="linearGradient78325" x1="-21.655" x2="183.99" y1="110.14" y2="110.14" gradientTransform="matrix(1.4056 0 0 1.4056 -8.1143e-6 -3.6492)" gradientUnits="userSpaceOnUse">
   <stop stop-color="#2e3476" offset="0"/>
   <stop stop-color="#3d33eb" offset="1"/>
  </linearGradient>
  <linearGradient id="linearGradient87990" x1="-82.44" x2="1448.4" y1="345.52" y2="345.52" gradientTransform="matrix(.37189 0 0 .37189 -8.1143e-6 22.383)" gradientUnits="userSpaceOnUse" xlink:href="#linearGradient1294"/>
  <linearGradient id="linearGradient25753" x1="-21.655" x2="383.08" y1="92.147" y2="92.147" gradientTransform="matrix(1.4056 0 0 1.4056 -8.1143e-6 -3.6492)" gradientUnits="userSpaceOnUse">
   <stop stop-color="#4465eb" offset="0"/>
   <stop stop-color="#46a7e1" offset=".5"/>
   <stop stop-color="#6b50c1" offset="1"/>
  </linearGradient>
  <linearGradient id="linearGradient25219" x1="-24.528" x2="386.16" y1="-24.045" y2="-24.045" gradientTransform="matrix(1.4056 0 0 1.4056 -8.1143e-6 19.076)" gradientUnits="userSpaceOnUse" xlink:href="#linearGradient1056"/>
  <linearGradient id="linearGradient14910" x1="253.56" x2="239.42" y1="147.01" y2="130.45" gradientTransform="matrix(1.4056 0 0 1.4056 -8.1143e-6 -3.6492)" gradientUnits="userSpaceOnUse">
   <stop stop-color="#e06fea" stop-opacity=".39011" offset="0"/>
   <stop stop-color="#164593" stop-opacity=".023098" offset="1"/>
  </linearGradient>
  <linearGradient id="linearGradient15720" x1="251.13" x2="241.25" y1="138.13" y2="126.04" gradientTransform="matrix(-1.4056 0 0 1.4056 508 -3.6492)" gradientUnits="userSpaceOnUse">
   <stop stop-color="#dc29ea" stop-opacity=".18321" offset="0"/>
   <stop stop-color="#164593" stop-opacity=".023098" offset="1"/>
  </linearGradient>
  <linearGradient id="linearGradient35006" x1="542.26" x2="409.86" y1="531.52" y2="437.69" gradientTransform="matrix(.37189 0 0 .37189 -8.1143e-6 .069691)" gradientUnits="userSpaceOnUse">
   <stop stop-color="#9e80dc" stop-opacity=".08" offset="0"/>
   <stop stop-color="#9e80dc" stop-opacity="0" offset="1"/>
  </linearGradient>
  <linearGradient id="linearGradient35006-3" x1="542.26" x2="409.86" y1="531.52" y2="437.69" gradientTransform="matrix(-.37189 0 0 .37189 642.04 -96.269)" gradientUnits="userSpaceOnUse">
   <stop stop-color="#9e80dc" stop-opacity=".12323" offset="0"/>
   <stop stop-color="#9e80dc" stop-opacity="0" offset="1"/>
  </linearGradient>
  <linearGradient id="linearGradient26562" x1="-21.655" x2="383.08" y1="99.556" y2="99.556" gradientTransform="matrix(1.4056 0 0 1.4056 -8.1143e-6 -60.597)" gradientUnits="userSpaceOnUse">
   <stop stop-color="#0031b6" offset="0"/>
   <stop stop-color="#255cc7" offset=".5"/>
   <stop stop-color="#3d3dd3" offset="1"/>
  </linearGradient>
  <linearGradient id="linearGradient34063" x1="79.735" x2="21.187" y1="42.158" y2="1.0037" gradientTransform="matrix(1.4056 0 0 1.4056 -8.1143e-6 .069691)" gradientUnits="userSpaceOnUse">
   <stop stop-color="#9e7fdc" stop-opacity=".1" offset="0"/>
   <stop stop-color="#9e7fdc" stop-opacity="0" offset="1"/>
  </linearGradient>
  <linearGradient id="linearGradient53858" x1="79.735" x2="21.187" y1="42.158" y2="1.0037" gradientTransform="matrix(-1.4056 0 0 1.4056 386.38 162.41)" gradientUnits="userSpaceOnUse">
   <stop stop-color="#7fdcdb" stop-opacity=".07" offset="0"/>
   <stop stop-color="#9e7fdc" stop-opacity="0" offset="1"/>
  </linearGradient>
  <linearGradient id="linearGradient35392" x1="654.09" x2="409.86" y1="615.36" y2="437.69" gradientTransform="matrix(.37189 0 0 .37189 10.785 -40.142)" gradientUnits="userSpaceOnUse">
   <stop stop-color="#b1cdef" stop-opacity=".26275" offset="0"/>
   <stop stop-color="#9e80dc" stop-opacity="0" offset="1"/>
  </linearGradient>
  <linearGradient id="linearGradient37083" x1="32.688" x2="-4.3074" y1="61.359" y2="35.59" gradientTransform="matrix(1.4056 0 0 1.4056 -8.1143e-6 .069691)" gradientUnits="userSpaceOnUse">
   <stop stop-color="#a9e3ed" stop-opacity=".05" offset="0"/>
   <stop stop-color="#a9e3ed" stop-opacity="0" offset="1"/>
  </linearGradient>
  <linearGradient id="linearGradient37280" x1="32.688" x2="-4.3074" y1="61.359" y2="35.59" gradientTransform="matrix(3.4441 0 0 3.4441 124.17 -61.39)" gradientUnits="userSpaceOnUse">
   <stop stop-color="#60cbde" stop-opacity=".059582" offset="0"/>
   <stop stop-color="#a9e3ed" stop-opacity="0" offset="1"/>
  </linearGradient>
  <linearGradient id="linearGradient37849" x1="32.688" x2="-4.3074" y1="61.359" y2="35.59" gradientTransform="matrix(3.4441 0 0 3.4441 34.801 -49.534)" gradientUnits="userSpaceOnUse">
   <stop stop-color="#84b0b8" stop-opacity=".05" offset="0"/>
   <stop stop-color="#a9e3ed" stop-opacity="0" offset="1"/>
  </linearGradient>
  <linearGradient id="linearGradient69576" x1="-24.528" x2="386.16" y1="-24.045" y2="-24.045" gradientTransform="matrix(1.4056 0 0 1.4056 -8.1143e-6 -40.239)" gradientUnits="userSpaceOnUse" xlink:href="#linearGradient17531"/>
  <linearGradient id="linearGradient53643" x1="79.735" x2="21.187" y1="42.158" y2="1.0037" gradientTransform="matrix(-1.4056 0 0 1.4056 386.82 98.956)" gradientUnits="userSpaceOnUse">
   <stop stop-color="#dc7fdc" stop-opacity=".08" offset="0"/>
   <stop stop-color="#9e7fdc" stop-opacity="0" offset="1"/>
  </linearGradient>
  <linearGradient id="linearGradient53697" x1="32.688" x2="-4.3074" y1="61.359" y2="35.59" gradientTransform="matrix(-3.4441 0 0 3.4441 469.93 -143.81)" gradientUnits="userSpaceOnUse">
   <stop stop-color="#a9e3ed" stop-opacity=".06" offset="0"/>
   <stop stop-color="#a9e3ed" stop-opacity="0" offset="1"/>
  </linearGradient>
  <linearGradient id="linearGradient53804" x1="32.688" x2="-4.3074" y1="61.359" y2="35.59" gradientTransform="matrix(-3.4441 0 0 3.4441 445.59 -102.77)" gradientUnits="userSpaceOnUse">
   <stop stop-color="#dd83f2" stop-opacity=".12549" offset="0"/>
   <stop stop-color="#a9e3ed" stop-opacity="0" offset="1"/>
  </linearGradient>
  <linearGradient id="linearGradient5163" x1="654.09" x2="409.86" y1="615.36" y2="437.69" gradientTransform="matrix(-.37189 0 0 .37189 497.22 -40.142)" gradientUnits="userSpaceOnUse">
   <stop stop-color="#b1cdef" stop-opacity=".14678" offset="0"/>
   <stop stop-color="#9e80dc" stop-opacity="0" offset="1"/>
  </linearGradient>
 </defs>
 <rect x="2.3624e-6" y="9.8662e-8" width="508" height="285.75" fill="#1b1e20" stop-color="#000000" style="paint-order:stroke fill markers"/>
 <path d="m-30.438-9.099v29.403l269 197.54 15.435 32.579 15.435-32.579 269-197.54v-29.403l-284.44 208.88z" fill="url(#linearGradient75480)" stop-color="#000000" style="-inkscape-stroke:none;font-variation-settings:normal"/>
 <path d="m-58.127 22.336s15.232 31.68 71.106 28.922c7.9819-0.39398 16.793-1.4908 26.508-3.4832 58.289-11.954 79.319 31.215 94.549 71.581 5.0768 13.456 9.5092 26.6 14.462 37.287 14.231 30.707 49.695 68.562 88.643 85.877 23.368 10.389 47.991 13.384 70.032 3.0032 18.78-8.8446 22.442-19.569 21.681-29.554s-5.9436-19.23-4.8523-25.116c2.823-15.225 13.795-17.115 24.809-16.092 18.357 1.7051 36.83 11.503 17.89-18.853-5.8836-9.4294-8.8056-17.911-9.7818-25.396-2.9285-22.454 11.656-35.934 16.329-39.092 6.1495-4.1554 13.355-7.2774 21.331-9.6178 55.834-16.383 149.43 5.5363 182.85-20.572m-633.54-39.913c1.3492 0.42212 16.374 32.864 70.599 31.439 7.7401-0.12129 16.327-0.96944 25.826-2.7266 56.994-10.543 78.97 31.128 94.945 69.836 5.268 12.929 9.9744 25.672 15.201 36.11 14.862 29.973 50.454 67.422 88.717 84.92 22.958 10.498 46.973 13.881 68.287 4.2344 18.105-8.0045 21.171-17.881 19.525-27.315s-7.3973-19.548-6.218-26.421c2.8332-15.665 14.056-18.379 26.056-17.695 19.342 1.2979 39.336 10.376 22.072-19.443-5.2598-9.2901-7.7816-17.637-8.6438-24.977-2.3045-22.225 11.006-36.129 15.746-39.554 6.0113-4.099 13.079-7.1809 20.937-9.4865 55.837-16.169 146.38 3.1908 178.88-22.193m-629.91-37.748c2.6983 0.84425 17.517 34.047 70.093 33.957 7.4982 0.15141 15.861-0.44809 25.144-1.97 55.699-9.1314 78.621 31.041 95.341 68.091 5.4592 12.402 10.44 24.744 15.939 34.933 15.494 29.24 51.213 66.283 88.792 83.963 22.547 10.608 45.955 14.378 66.542 5.4656 17.43-7.1644 19.9-16.193 17.369-25.076s-8.851-19.865-7.5837-27.725c2.8435-16.104 14.318-19.643 27.304-19.299 20.327 0.8907 41.842 9.2492 26.255-20.034-4.636-9.1508-6.7576-17.362-7.5059-24.557-1.6805-21.995 10.357-36.325 15.163-40.015 5.8732-4.0425 12.803-7.0843 20.543-9.3552 55.841-15.956 143.34 0.84532 174.9-23.813m-626.28-35.584c4.0475 1.2664 18.659 35.231 69.586 36.474 7.2563 0.4241 15.395 0.07327 24.463-1.2134 54.405-7.7199 78.271 30.955 95.737 66.346 5.6504 11.876 10.905 23.816 16.677 33.756 16.126 28.507 51.971 65.143 88.866 83.005 22.137 10.717 44.937 14.875 64.797 6.6968 16.755-6.3243 18.629-14.505 15.212-22.837s-10.305-20.183-8.9495-29.029c2.8538-16.544 14.579-20.907 28.552-20.902 21.313 0.48351 44.348 8.1226 30.438-20.624-4.0122-9.0116-5.7336-17.087-6.368-24.137-1.0565-21.765 9.7075-36.521 14.579-40.477 5.735-3.9861 12.527-6.9877 20.148-9.2239 55.844-15.743 140.29-1.5002 170.93-25.433m-622.65-33.42c5.3966 1.6885 19.801 36.414 69.079 38.991 7.0144 0.6968 14.929 0.59462 23.781-0.45678 53.11-6.3084 77.922 30.868 96.133 64.6 5.8416 11.349 11.37 22.888 17.416 32.579 16.757 27.773 52.73 64.004 88.941 82.048 21.726 10.827 43.92 15.372 63.052 7.9281 16.08-5.4842 17.358-12.817 13.056-20.598-4.3013-7.7807-11.758-20.501-10.315-30.334 2.8641-16.984 14.841-22.171 29.799-22.505 22.298 0.0763 46.854 6.9959 34.621-21.214-3.3885-8.8723-4.7096-16.812-5.23-23.718-0.43255-21.535 9.0581-36.716 13.996-40.939 5.5969-3.9296 12.251-6.8912 19.754-9.0926 55.848-15.53 137.25-3.8456 166.96-27.053m-619.02-31.256c6.7458 2.1106 20.943 37.598 68.573 41.508 6.7726 0.96949 14.463 1.116 23.099 0.29982 51.815-4.8969 77.573 30.782 96.529 62.855 6.0328 10.823 11.835 21.96 18.154 31.402 17.389 27.04 53.489 62.864 89.015 81.091 21.316 10.936 42.902 15.869 61.307 9.1593 15.405-4.644 16.086-11.129 10.9-18.359-5.1864-7.2296-13.212-20.818-11.681-31.638 2.8744-17.424 15.102-23.435 31.047-24.109 23.283-0.33085 49.36 5.8692 38.804-21.804-2.7647-8.733-3.6856-16.538-4.0921-23.298 0.19143-21.305 8.4087-36.912 13.413-41.401 5.4587-3.8732 11.975-6.7946 19.359-8.9613 55.851-15.317 134.2-6.1911 162.98-28.674m-615.39-29.091c8.0949 2.5327 22.086 38.781 68.066 44.025 6.5307 1.2422 13.997 1.6373 22.417 1.0564 50.52-3.4854 77.223 30.695 96.924 61.11 6.224 10.296 12.3 21.032 18.892 30.225 18.02 26.307 54.247 61.725 89.089 80.134 20.905 11.046 41.884 16.366 59.562 10.391 14.73-3.804 14.815-9.4414 8.7437-16.12-6.0716-6.6785-14.666-21.136-13.047-32.942 2.8846-17.864 15.364-24.699 32.294-25.712 24.268-0.73804 51.866 4.7425 42.987-22.394-2.1409-8.5938-2.6616-16.263-2.9542-22.878 0.81542-21.076 7.7593-37.108 12.829-41.863 5.3205-3.8167 11.699-6.698 18.965-8.8299 55.854-15.104 131.16-8.5366 159.01-30.294m-611.76-26.927c9.4441 2.9549 23.228 39.965 67.56 46.542 6.2888 1.5149 13.531 2.1587 21.735 1.813 49.226-2.074 76.874 30.609 97.32 59.365 6.4152 9.7693 12.765 20.104 19.631 29.048 18.652 25.573 55.006 60.585 89.164 79.177 20.495 11.155 40.867 16.863 57.817 11.622 14.055-2.9638 13.544-7.7534 6.5875-13.881-6.9567-6.1274-16.119-21.453-14.412-34.247 2.8949-18.303 15.625-25.963 33.542-27.316 25.254-1.1452 54.372 3.6158 47.17-22.984-1.5172-8.4545-1.6376-15.988-1.8162-22.459 1.4394-20.846 7.1099-37.303 12.246-42.325 5.1824-3.7603 11.422-6.6015 18.57-8.6986 55.858-14.89 128.11-10.882 155.04-31.914m-608.13-24.763c10.793 3.377 24.37 41.148 67.053 49.059 6.0469 1.7876 13.065 2.68 21.053 2.5696 47.931-0.66247 76.525 30.522 97.716 57.619 6.6064 9.2427 13.231 19.176 20.369 27.872 19.283 24.84 55.765 59.446 89.238 78.22 20.084 11.265 39.849 17.36 56.072 12.853 13.38-2.1238 12.273-6.0654 4.4312-11.642s-17.573-21.771-15.778-35.551c2.9052-18.743 15.887-27.227 34.79-28.919 26.239-1.5524 56.878 2.4892 51.353-23.574-0.89339-8.3152-0.61356-15.713-0.67833-22.039 2.0634-20.616 6.4605-37.499 11.663-42.786 5.0442-3.7039 11.146-6.5049 18.176-8.5673 55.861-14.677 125.07-13.228 151.06-33.534m-604.5-22.598c12.142 3.7991 25.513 42.332 66.547 51.576 5.8051 2.0603 12.599 3.2014 20.371 3.3262 46.636 0.74901 76.176 30.436 98.112 55.874 6.7977 8.7161 13.696 18.248 21.107 26.695 19.915 24.107 56.523 58.306 89.313 77.263 19.674 11.374 38.831 17.857 54.327 14.084 12.705-1.2837 11.002-4.3774 2.275-9.4026s-19.027-22.088-17.144-36.855c2.9155-19.183 16.148-28.491 36.037-30.522 27.224-1.9596 59.384 1.3625 55.536-24.164-0.26962-8.1759 0.41045-15.439 0.4596-21.619 2.6874-20.386 5.8111-37.694 11.08-43.248 4.906-3.6474 10.87-6.4083 17.782-8.436 55.865-14.464 122.02-15.573 147.09-35.154m-600.87-20.434c13.492 4.2212 26.655 43.515 66.04 54.094 5.5632 2.333 12.133 3.7227 19.69 4.0828 45.341 2.1605 75.826 30.349 98.508 54.129 6.9889 8.1895 14.161 17.32 21.846 25.518 20.546 23.373 57.282 57.167 89.387 76.306 19.263 11.483 37.813 18.354 52.582 15.315 12.03-0.44355 9.731-2.6894 0.11874-7.1635-9.6122-4.4741-20.48-22.406-18.51-38.16 2.9258-19.623 16.41-29.755 37.285-32.126 28.21-2.3668 61.89 0.23579 59.719-24.754 0.35415-8.0366 1.4344-15.164 1.5975-21.2 3.3114-20.156 5.1617-37.89 10.496-43.71 4.7679-3.591 10.594-6.3118 17.387-8.3047 55.868-14.251 118.98-17.919 143.12-36.775m-597.25-18.27c14.841 4.6434 27.797 44.699 65.533 56.611 5.3213 2.6057 11.667 4.2441 19.008 4.8394 44.047 3.572 75.477 30.263 98.903 52.384 7.1801 7.6629 14.626 16.392 22.584 24.341 21.178 22.64 58.041 56.027 89.462 75.348 18.853 11.593 36.796 18.851 50.837 16.547 11.355 0.39655 8.4599-1.0014-2.0375-4.9245-10.497-3.923-21.934-22.723-19.875-39.464 2.936-20.063 16.671-31.019 38.532-33.729 29.195-2.774 64.396-0.89088 63.902-25.344 0.97793-7.8974 2.4585-14.889 2.7355-20.78 3.9354-19.927 4.5123-38.086 9.9131-44.172 4.6297-3.5345 10.318-6.2152 16.993-8.1734 55.872-14.038 115.93-20.264 139.14-38.395m-593.62-16.106c16.19 5.0655 28.939 45.882 65.027 59.128 5.0794 2.8784 11.201 4.7654 18.326 5.596 42.752 4.9835 75.128 30.176 99.299 50.638 7.3713 7.1363 15.091 15.464 23.322 23.164 21.81 21.907 58.799 54.888 89.536 74.391 18.442 11.702 35.778 19.348 49.092 17.778 10.68 1.2366 7.1888 0.68658-4.1938-2.6854-11.383-3.372-23.388-23.041-21.241-40.768 2.9463-20.503 16.933-32.283 39.78-35.333 30.18-3.1811 66.902-2.0176 68.084-25.934 1.6017-7.7581 3.4825-14.614 3.8734-20.361 4.5594-19.697 3.8629-38.281 9.3298-44.634 4.4916-3.4781 10.042-6.1186 16.598-8.0421 55.875-13.824 112.89-22.61 135.17-40.015m-589.99-13.941c17.539 5.4876 30.082 47.066 64.52 61.645 4.8376 3.1511 10.735 5.2868 17.644 6.3526 41.457 6.3949 74.779 30.09 99.695 48.893 7.5625 6.6097 15.556 14.536 24.061 21.987 22.441 21.174 59.558 53.748 89.611 73.434 18.032 11.812 34.76 19.845 47.347 19.009 10.005 2.0768 5.9177 2.3746-6.35-0.44631-12.268-2.8209-24.841-23.358-22.607-42.073 2.9566-20.942 17.194-33.547 41.027-36.936 31.165-3.5883 69.408-3.1442 72.267-26.525 2.2255-7.6188 4.5065-14.34 5.0113-19.941 5.1834-19.467 3.2135-38.477 8.7466-45.095 4.3534-3.4216 9.7658-6.0221 16.204-7.9108 55.878-13.611 109.84-24.955 131.2-41.635m-586.36-11.777c18.888 5.9097 31.224 48.249 64.014 64.162 4.5957 3.4238 10.269 5.8081 16.962 7.1092 40.162 7.8064 74.429 30.003 100.09 47.148 7.7537 6.083 16.022 13.608 24.799 20.81 23.073 20.44 60.317 52.609 89.685 72.477 17.621 11.921 33.743 20.343 45.602 20.24 9.3296 2.9168 4.6466 4.0625-8.5062 1.7928-13.153-2.2698-26.295-23.676-23.972-43.377 2.9669-21.382 17.456-34.811 42.275-38.539 32.151-3.9955 71.913-4.2709 76.45-27.115 2.8492-7.4795 5.5305-14.065 6.1492-19.521 5.8073-19.237 2.564-38.673 8.1633-45.557 4.2152-3.3652 9.4898-5.9255 15.809-7.7794 55.882-13.398 106.8-27.3 127.22-43.256m-582.73-9.6127c20.237 6.3318 32.366 49.433 63.507 66.679 4.3538 3.6964 9.8025 6.3295 16.28 7.8658 38.867 9.2179 74.08 29.916 100.49 45.403 7.9449 5.5564 16.487 12.68 25.537 19.633 23.704 19.707 61.075 51.469 89.76 71.52 17.21 12.031 32.725 20.84 43.857 21.472 8.6546 3.757 3.3755 5.7505-10.662 4.0318-14.038-1.7187-27.749-23.993-25.338-44.681 2.9772-21.822 17.717-36.076 43.523-40.143 33.136-4.4027 74.419-5.3976 80.633-27.705 3.473-7.3403 6.5545-13.79 7.2872-19.102 6.4313-19.007 1.9146-38.868 7.58-46.019 4.0771-3.3088 9.2136-5.8289 15.415-7.6481 55.885-13.185 103.75-29.646 123.25-44.876m-579.1-7.4484c21.587 6.754 33.508 50.616 63.001 69.196 4.112 3.9691 9.3364 6.8508 15.599 8.6224 37.573 10.629 73.731 29.83 100.88 43.657 8.1361 5.0298 16.952 11.752 26.276 18.456 24.336 18.974 61.834 50.33 89.834 70.563 16.8 12.14 31.707 21.337 42.112 22.703 7.9795 4.597 2.1044 7.4385-12.819 6.2709-14.923-1.1676-29.202-24.311-26.704-45.986 2.9875-22.262 17.979-37.34 44.77-41.746 34.121-4.8099 76.925-6.5243 84.816-28.295 4.0968-7.201 7.5785-13.515 8.4251-18.682 7.0553-18.777 1.2652-39.064 6.9967-46.481 3.9389-3.2523 8.9376-5.7324 15.021-7.5168 55.889-12.972 100.71-31.991 119.28-46.496m-575.47-5.2842c22.936 7.1761 34.651 51.8 62.494 71.713 3.8701 4.2418 8.8704 7.3722 14.917 9.379 36.278 12.041 73.381 29.743 101.28 41.912 8.3273 4.5032 17.417 10.824 27.014 17.279 24.967 18.24 62.593 49.19 89.908 69.606 16.389 12.249 30.689 21.834 40.367 23.934 7.3045 5.4372 0.83329 9.1265-14.975 8.51s-30.656-24.628-28.07-47.29c2.9977-22.702 18.24-38.604 46.018-43.349 35.106-5.2171 79.431-7.651 88.999-28.885 4.7206-7.0617 8.6025-13.241 9.563-18.262 7.6793-18.548 0.61584-39.259 6.4135-46.943 3.8008-3.1959 8.6614-5.6358 14.626-7.3855 55.892-12.759 97.663-34.337 115.3-48.116m-571.84-3.1199c24.285 7.5982 35.793 52.983 61.987 74.231 3.6282 4.5145 8.4043 7.8935 14.235 10.136 34.983 13.452 73.032 29.657 101.67 40.167 8.5185 3.9766 17.882 9.8963 27.752 16.102 25.599 17.507 63.351 48.051 89.983 68.649 15.979 12.359 29.672 22.331 38.622 25.165 6.6294 6.2773-0.4378 10.814-17.131 10.749-16.693-0.0654-32.11-24.946-29.435-48.595 3.008-23.142 18.502-39.868 47.265-44.953 36.092-5.6242 81.937-8.7776 93.182-29.475 5.3443-6.9224 9.6265-12.966 10.701-17.843 8.3033-18.318-0.0336-39.455 5.8302-47.405 3.6626-3.1394 8.3854-5.5392 14.232-7.2542 55.896-12.545 94.618-36.682 111.33-49.737m-568.21-0.95558c25.634 8.0203 36.935 54.167 61.481 76.748 3.3863 4.7872 7.9383 8.4149 13.553 10.892 33.688 14.864 72.683 29.57 102.07 38.422 8.7097 3.45 18.347 8.9683 28.491 14.925 26.23 16.774 64.11 46.911 90.057 67.691 15.568 12.468 28.654 22.828 36.877 26.396 5.9544 7.1174-1.7089 12.502-19.287 12.988s-33.563-25.264-30.801-49.899c3.0183-23.581 18.763-41.132 48.513-46.556 37.077-6.0314 84.443-9.9043 97.365-30.065 5.9681-6.7832 10.65-12.691 11.839-17.423 8.9273-18.088-0.68296-39.651 5.2469-47.866 3.5244-3.083 8.1092-5.4426 13.837-7.1229 55.899-12.332 91.573-39.028 107.36-51.357m-564.58 1.2087c26.983 8.4425 38.077 55.35 60.974 79.265 3.1445 5.0599 7.4722 8.9362 12.871 11.649 32.394 16.275 72.334 29.484 102.47 36.676 8.9009 2.9234 18.813 8.0404 29.229 13.748 26.862 16.04 64.869 45.772 90.132 66.734 15.158 12.578 27.636 23.325 35.132 27.628 5.2793 7.9575-2.98 14.19-21.444 15.227-18.464 1.0368-35.017-25.581-32.167-51.203 3.0286-24.021 19.025-42.396 49.76-48.16 38.062-6.4386 86.949-11.031 101.55-30.655 6.5919-6.6439 11.674-12.416 12.977-17.003 9.5513-17.858-1.3324-39.846 4.6636-48.328 3.3863-3.0266 7.8332-5.3461 13.443-6.9916 55.903-12.119 88.528-41.373 103.38-52.977m-560.95 3.373c28.332 8.8646 39.22 56.534 60.468 81.782 2.9026 5.3326 7.0062 9.4576 12.189 12.405 31.099 17.687 71.984 29.397 102.86 34.931 9.0922 2.3968 19.278 7.1124 29.967 12.571 27.494 15.307 65.627 44.632 90.206 65.777 14.747 12.687 26.618 23.822 33.387 28.859 4.6043 8.7976-4.2511 15.878-23.6 17.466-19.349 1.5878-36.471-25.899-33.533-52.508 3.0389-24.461 19.286-43.66 51.008-49.763 39.048-6.8458 89.455-12.158 105.73-31.245 7.2156-6.5046 12.698-12.142 14.115-16.584 10.175-17.628-1.9818-40.042 4.0804-48.79 3.2481-2.9701 7.557-5.2495 13.049-6.8603 55.906-11.906 85.484-43.719 99.409-54.597m-557.32 5.5373c29.681 9.2867 40.362 57.717 59.961 84.299 2.6607 5.6053 6.5401 9.9789 11.507 13.162 29.804 19.098 71.635 29.311 103.26 33.186 9.2834 1.8702 19.743 6.1844 30.706 11.394 28.125 14.574 66.386 43.493 90.281 64.82 14.337 12.797 25.601 24.319 31.642 30.09 3.9292 9.6376-5.5222 17.566-25.756 19.705-20.234 2.1389-37.924-26.216-34.898-53.812 3.0492-24.901 19.548-44.924 52.256-51.366 40.033-7.253 91.961-13.284 109.91-31.835 7.8394-6.3653 13.722-11.867 15.253-16.164 10.799-17.399-2.6312-40.238 3.4971-49.252 3.1099-2.9137 7.281-5.1529 12.654-6.7289 55.909-11.693 82.439-46.064 95.436-56.218m-553.69 7.7016c31.031 9.7088 41.504 58.901 59.455 86.816 2.4188 5.878 6.0741 10.5 10.826 13.919 28.509 20.51 71.286 29.224 103.65 31.44 9.4746 1.3435 20.208 5.2564 31.444 10.217 28.757 13.84 67.145 42.353 90.355 63.863 13.926 12.906 24.583 24.816 29.897 31.321 3.2542 10.478-6.7933 19.254-27.912 21.944-21.119 2.69-39.378-26.534-36.264-55.116 3.0594-25.341 19.809-46.188 53.503-52.97 41.018-7.6602 94.467-14.411 114.1-32.425 8.4632-6.2261 14.746-11.592 16.391-15.744 11.423-17.169-3.2806-40.433 2.9138-49.714 2.9718-2.8572 7.0048-5.0564 12.26-6.5976 55.913-11.479 79.394-48.41 91.463-57.838m-550.06 9.8659c32.38 10.131 42.646 60.084 58.948 89.333 2.177 6.1507 5.608 11.022 10.144 14.675 27.215 21.921 70.937 29.138 104.05 29.695 9.6658 0.81694 20.673 4.3284 32.182 9.0396 29.388 13.107 67.903 41.213 90.43 62.906 13.516 13.015 23.565 25.313 28.152 32.552 2.5791 11.318-8.0644 20.942-30.069 24.184-22.004 3.2411-40.832-26.851-37.63-56.421 3.0697-25.78 20.071-47.452 54.751-54.573 42.003-8.0674 96.973-15.538 118.28-33.016 9.087-6.0868 15.771-11.317 17.529-15.325 12.047-16.939-3.93-40.629 2.3305-50.175 2.8336-2.8008 6.7288-4.9598 11.865-6.4663 55.916-11.266 76.349-50.755 87.489-59.458m-546.43 12.03c33.729 10.553 43.789 61.268 58.442 91.85 1.9351 6.4234 5.142 11.543 9.4619 15.432 25.92 23.333 70.587 29.051 104.44 27.95 9.857 0.29033 21.138 3.4005 32.92 7.8626 30.02 12.374 68.662 40.074 90.504 61.949 13.105 13.125 22.548 25.81 26.407 33.784 1.904 12.158-9.3355 22.63-32.225 26.423s-42.286-27.169-38.995-57.725c3.08-26.22 20.332-48.716 55.998-56.177 42.989-8.4745 99.479-16.664 122.46-33.606 9.7107-5.9475 16.795-11.043 18.666-14.905 12.671-16.709-4.5794-40.825 1.7472-50.637 2.6954-2.7443 6.4526-4.8632 11.471-6.335 55.92-11.053 73.304-53.101 83.516-61.078m-542.8 14.194c35.078 10.975 44.931 62.451 57.935 94.368 1.6932 6.6961 4.6759 12.064 8.7801 16.188 24.625 24.744 70.238 28.965 104.84 26.205 10.048-0.23628 21.604 2.4725 33.659 6.6856 30.651 11.641 69.421 38.934 90.578 60.992 12.695 13.234 21.53 26.307 24.662 35.015 1.229 12.998-10.607 24.318-34.381 28.662s-43.739-27.486-40.361-59.029c3.0903-26.66 20.594-49.98 57.246-57.78 43.974-8.8817 101.98-17.791 126.65-34.196 10.334-5.8082 17.819-10.768 19.804-14.486 13.295-16.479-5.2288-41.02 1.164-51.099 2.5573-2.6879 6.1766-4.7667 11.076-6.2037 55.923-10.84 70.259-55.446 79.543-62.699m-539.17 16.359c36.427 11.397 46.073 63.635 57.428 96.885 1.4514 6.9688 4.2099 12.586 8.0983 16.945 23.33 26.156 69.889 28.878 105.24 24.459 10.239-0.76289 22.069 1.5445 34.397 5.5087 31.283 10.907 70.179 37.795 90.653 60.034 12.284 13.344 20.512 26.804 22.917 36.246 0.55395 13.838-11.878 26.006-36.537 30.901-24.66 4.8944-45.193-27.804-41.727-60.334 3.1006-27.1 20.855-51.244 58.494-59.383 44.959-9.2889 104.49-18.918 130.83-34.786 10.958-5.669 18.843-10.493 20.942-14.066 13.919-16.25-5.8782-41.216 0.5807-51.561 2.4191-2.6315 5.9004-4.6701 10.682-6.0724 55.927-10.627 67.214-57.792 75.569-64.319m-535.54 18.523c37.776 11.819 47.215 64.818 56.922 99.402 1.2095 7.2415 3.7438 13.107 7.4164 17.702 22.035 27.567 69.54 28.791 105.63 22.714 10.431-1.2895 22.534 0.61652 35.135 4.3317 31.914 10.174 70.938 36.655 90.727 59.077 11.874 13.453 19.494 27.301 21.172 37.477-0.1211 14.678-13.149 27.694-38.694 33.14-25.545 5.4455-46.647-28.121-43.093-61.638 3.1108-27.54 21.117-52.508 59.741-60.987 45.944-9.6961 107-20.044 135.01-35.376 11.582-5.5297 19.867-10.218 22.08-13.646 14.543-16.02-6.5276-41.411-3e-3 -52.023 2.281-2.575 5.6244-4.5735 10.288-5.9411 55.93-10.414 64.169-60.137 71.596-65.939m-531.91 20.687c39.126 12.242 48.358 66.002 56.415 101.92 0.96761 7.5142 3.2778 13.628 6.7346 18.458 20.741 28.979 69.19 28.705 106.03 20.969 10.622-1.8161 22.999-0.31145 35.874 3.1547 32.546 9.4407 71.697 35.516 90.802 58.12 11.463 13.563 18.477 27.798 19.427 38.709-0.79615 15.518-14.42 29.382-40.85 35.379-26.43 5.9966-48.1-28.439-44.458-62.942 3.1211-27.98 21.378-53.772 60.989-62.59 46.93-10.103 109.5-21.171 139.19-35.966 12.206-5.3904 20.891-9.9437 23.218-13.227 15.167-15.79-7.177-41.607-0.58585-52.485 2.1428-2.5186 5.3482-4.477 9.8931-5.8098 55.933-10.2 61.124-62.483 67.622-67.559m-528.29 22.852c40.475 12.664 49.5 67.185 55.909 104.44 0.72573 7.7869 2.8117 14.15 6.0527 19.215 19.446 30.39 68.841 28.618 106.42 19.224 10.813-2.3427 23.464-1.2394 36.612 1.9777 33.178 8.7074 72.455 34.376 90.876 57.163 11.053 13.672 17.459 28.295 17.682 39.94-1.4712 16.358-15.691 31.07-43.006 37.618-27.315 6.5476-49.554-28.756-45.824-64.247 3.1314-28.419 21.64-55.036 62.236-64.193 47.915-10.51 112.01-22.298 143.38-36.556 12.83-5.2512 21.915-9.669 24.356-12.807 15.791-15.56-7.8264-41.803-1.1691-52.946 2.0046-2.4621 5.0722-4.3804 9.4987-5.6785 55.937-9.9872 58.079-64.828 63.649-69.18m-524.66 25.016c41.824 13.086 50.642 68.369 55.402 106.95 0.48386 8.0596 2.3457 14.671 5.3709 19.971 18.151 31.802 68.492 28.532 106.82 17.478 11.004-2.8693 23.929-2.1674 37.35 0.80068 33.809 7.974 73.214 33.237 90.951 56.206 10.642 13.781 16.441 28.793 15.937 41.171-2.1462 17.199-16.962 32.758-45.162 39.857-28.2 7.0987-51.008-29.074-47.19-65.551 3.1417-28.859 21.901-56.3 63.484-65.797 48.9-10.918 114.51-23.425 147.56-37.146 13.453-5.1119 22.939-9.3942 25.494-12.387 16.415-15.33-8.4758-41.998-1.7524-53.408 1.8665-2.4057 4.796-4.2838 9.1043-5.5471 55.94-9.774 55.034-67.174 59.676-70.8m-521.03 27.18c43.173 13.508 51.784 69.552 54.896 109.47 0.24199 8.3323 1.8796 15.192 4.689 20.728 16.856 33.213 68.142 28.445 107.22 15.733 11.195-3.396 24.395-3.0954 38.089-0.37631 34.441 7.2407 73.972 32.097 91.025 55.249 10.232 13.891 15.424 29.29 14.192 42.402-2.8213 18.039-18.233 34.446-47.319 42.096-29.086 7.6498-52.461-29.392-48.556-66.855 3.152-29.299 22.163-57.564 64.731-67.4 49.886-11.325 117.02-24.551 151.74-37.736 14.077-4.9726 23.963-9.1195 26.632-11.968 17.039-15.101-9.1252-42.194-2.3357-53.87 1.7283-2.3492 4.52-4.1873 8.7099-5.4158 55.944-9.5608 51.989-69.519 55.702-72.42m-517.4 29.344c44.522 13.93 52.927 70.736 54.389 111.99 1.14e-4 8.605 1.4136 15.714 4.0072 21.485 15.562 34.625 67.793 28.359 107.61 13.988 11.387-3.9226 24.86-4.0234 38.827-1.5533 35.072 6.5074 74.731 30.958 91.1 54.292 9.821 14 14.406 29.787 12.447 43.633-3.4964 18.879-19.504 36.134-49.475 44.335-29.971 8.2009-53.915-29.709-49.921-68.16 3.1622-29.739 22.424-58.828 65.979-69.004 50.871-11.732 119.53-25.678 155.93-38.326 14.701-4.8333 24.987-8.8447 27.77-11.548 17.663-14.871-9.7746-42.39-2.919-54.332 1.5902-2.2928 4.2438-4.0907 8.3154-5.2845 55.947-9.3476 48.944-71.865 51.729-74.04m-513.77 31.509c45.871 14.352 54.069 71.919 53.882 114.5-0.24176 8.8777 0.94752 16.235 3.3253 22.241 14.267 36.036 67.444 28.272 108.01 12.243 11.578-4.4492 25.325-4.9513 39.565-2.7303 35.704 5.7741 75.49 29.818 91.174 53.335 9.4105 14.11 13.388 30.284 10.702 44.865-4.1714 19.719-20.775 37.822-51.631 46.574-30.856 8.752-55.369-30.027-51.287-69.464 3.1725-30.179 22.686-60.092 67.227-70.607 51.856-12.139 122.03-26.805 160.11-38.916 15.325-4.694 26.011-8.57 28.908-11.128 18.287-14.641-10.424-42.585-3.5022-54.794 1.452-2.2364 3.9678-3.9941 7.921-5.1532 55.951-9.1344 45.899-74.21 47.756-75.661m-510.14 33.673c47.221 14.774 55.211 73.103 53.376 117.02-0.48363 9.1504 0.48147 16.757 2.6435 22.998 12.972 37.448 67.095 28.186 108.4 10.497 11.769-4.9758 25.79-5.8793 40.304-3.9073 36.335 5.0408 76.248 28.679 91.248 52.377 9 14.219 12.37 30.781 8.9566 46.096-4.8465 20.559-22.046 39.51-53.787 48.813-31.741 9.3031-56.822-30.344-52.653-70.768 3.1828-30.619 22.948-61.356 68.474-72.21 52.841-12.546 124.54-27.931 164.29-39.507 15.948-4.5548 27.035-8.2952 30.046-10.709 18.911-14.411-11.073-42.781-4.0855-55.255 1.3138-2.1799 3.6916-3.8976 7.5266-5.0219 55.954-8.9212 42.854-76.556 43.782-77.281m-506.51 35.837c48.57 15.196 56.353 74.286 52.869 119.54-0.72551 9.4231 0.01542 17.278 1.9616 23.754 11.677 38.859 66.745 28.099 108.8 8.7522 11.96-5.5024 26.255-6.8073 41.042-5.0843 36.967 4.3075 77.007 27.539 91.323 51.42 8.5894 14.329 11.353 31.278 7.2116 47.327-5.5215 21.399-23.318 41.198-55.944 51.052-32.626 9.8542-58.276-30.662-54.018-72.073 3.1931-31.058 23.209-62.62 69.722-73.814 53.827-12.954 127.04-29.058 168.47-40.097 16.572-4.4155 28.059-8.0205 31.184-10.289 19.535-14.181-11.723-42.976-4.6688-55.717 1.1757-2.1235 3.4156-3.801 7.1322-4.8906 55.958-8.7081 39.809-78.901 39.809-78.901" fill="none" stroke="url(#linearGradient3595)" stroke-width=".37189px"/>
 <path d="m541.21 39.193v276.26h-575.56l4e-6 -277.37 288.35 212.01z" fill="#1b1e20"/>
 <g transform="matrix(2.0418 0 0 2.0418 -114.97 110.64)" opacity=".02" stroke-width=".6884">
  <g transform="translate(0 77.637)" opacity=".075" stroke-width=".6884">
   <path d="m-21.655-173.61 202.37 148.61 202.37-148.61v16.181l-202.37 148.61-202.37-148.61z" fill="url(#linearGradient21995)" stop-color="#000000" style="-inkscape-stroke:none;font-variation-settings:normal"/>
   <path d="m-21.655-193.8 202.37 148.61 202.37-148.61v22.391l-202.37 148.61-202.37-148.61z" fill="url(#linearGradient21997)"/>
   <path d="m-21.655-157.94 202.37 148.61 202.37-148.61v1.7412l-202.37 148.61-202.37-148.61z" fill="url(#linearGradient21999)" stop-color="#000000" style="-inkscape-stroke:none;font-variation-settings:normal;paint-order:stroke fill markers"/>
  </g>
  <g>
   <path d="m-21.656-22.398v20.919l191.38 140.54 10.981 23.178 10.981-23.178 191.38-140.54v-20.919l-202.37 148.61z" fill="url(#linearGradient22001)" stop-color="#000000" style="-inkscape-stroke:none;font-variation-settings:normal"/>
   <path d="m191.22 138.75-10.513 23.491 202.37-148.61v-15.771z" fill="url(#linearGradient22003)"/>
   <path d="m-21.656-2.1353v15.771l202.37 148.61-10.513-23.491z" fill="url(#linearGradient22005)"/>
  </g>
  <path d="m-21.656-2.1353v1.3126l190.92 140.2 11.449 22.866 11.449-22.866 190.92-140.2v-1.3126l-191.85 140.89-10.513 21.102-10.513-21.102-191.54-140.66z" color="#000000" fill="url(#linearGradient22007)" stroke-linecap="square" stroke-width=".18214" style="-inkscape-stroke:none"/>
  <g>
   <path d="m-21.655-41.581 202.37 148.61 202.37-148.61v21.473l-202.37 148.61-202.37-148.61z" fill="url(#linearGradient22009)" stop-color="#000000" style="-inkscape-stroke:none;font-variation-settings:normal"/>
   <path d="m-21.655-23.098 202.37 148.61 202.37-148.61v2.9889l-202.37 148.61-202.37-148.61z" fill="url(#linearGradient22011)" stop-color="#000000" style="-inkscape-stroke:none;font-variation-settings:normal;paint-order:stroke fill markers"/>
   <path d="m-21.655-62.914 202.37 148.61 202.37-148.61v22.391l-202.37 148.61-202.37-148.61z" fill="url(#linearGradient22013)"/>
   <path d="m-21.655-64.05 202.37 148.61 202.37-148.61v1.7412l-202.37 148.61-202.37-148.61z" fill="url(#linearGradient22015)" stop-color="#000000" style="-inkscape-stroke:none;font-variation-settings:normal;paint-order:stroke fill markers"/>
   <path d="m191.22 138.75-10.513 23.491 202.37-148.61v-15.771z" fill="url(#linearGradient22017)"/>
   <path d="m170.2 138.75 10.513 23.491-202.37-148.61-2e-6 -15.771z" fill="url(#linearGradient22019)"/>
  </g>
 </g>
 <g transform="matrix(1.4056 0 0 1.4056 -8.1143e-6 131.51)" opacity=".03">
  <path d="m-21.655-173.61 202.37 148.61 202.37-148.61v16.181l-202.37 148.61-202.37-148.61z" fill="url(#linearGradient21995)" stop-color="#000000" style="-inkscape-stroke:none;font-variation-settings:normal"/>
  <path d="m-21.655-193.8 202.37 148.61 202.37-148.61v22.391l-202.37 148.61-202.37-148.61z" fill="url(#linearGradient21997)"/>
  <path d="m-21.655-157.94 202.37 148.61 202.37-148.61v1.7412l-202.37 148.61-202.37-148.61z" fill="url(#linearGradient21999)" stop-color="#000000" style="-inkscape-stroke:none;font-variation-settings:normal;paint-order:stroke fill markers"/>
 </g>
 <path d="m268.78 217.41-14.777 33.018 284.44-208.88v-22.167z" fill="url(#linearGradient24593)"/>
 <path d="m-30.438 19.382v22.167l284.44 208.88-14.777-33.018z" fill="url(#linearGradient78325)"/>
 <path d="m-30.438 19.382v1.8449l268.35 197.06 16.093 32.139 16.093-32.139 268.35-197.06v-1.8449l-269.66 198.03-14.777 29.66-14.777-29.66-269.22-197.7z" color="#000000" fill="url(#linearGradient87990)" stroke-linecap="square" stroke-width=".37189" style="-inkscape-stroke:none"/>
 <g>
  <path d="m-30.438-36.062 284.44 208.88 284.44-208.88v30.181l-284.44 208.88-284.44-208.88z" fill="url(#linearGradient25753)" stop-color="#000000" style="-inkscape-stroke:none;font-variation-settings:normal"/>
  <path d="m-30.438-10.082 284.44 208.88 284.44-208.88v4.2011l-284.44 208.88-284.44-208.88z" fill="url(#linearGradient25219)" stop-color="#000000" style="-inkscape-stroke:none;font-variation-settings:normal;paint-order:stroke fill markers"/>
  <path d="m268.78 217.41-14.777 33.018 284.44-208.88v-22.167z" fill="url(#linearGradient14910)"/>
  <path d="m239.22 217.41 14.777 33.018-284.44-208.88-2e-6 -22.167z" fill="url(#linearGradient15720)"/>
  <path d="m156.23 158.31v4.4126l47.767 35.078v-4.4126zm0 6.6439v6.9758l47.767 35.078v-6.9758zm47.767 44.192-47.767-35.078v2.9751l47.767 35.078z" fill="url(#linearGradient35006)"/>
  <path d="m485.81 61.968v4.4125l-47.767 35.078v-4.4125zm0 6.6439v6.9758l-47.767 35.078v-6.9758zm-47.767 44.192 47.767-35.078v2.9751l-47.767 35.078z" fill="url(#linearGradient35006-3)"/>
  <path d="m254 174.3 284.68-208.1-0.24187-2.2649z" fill="#d0b2e4"/>
  <path d="m254 174.3-284.68-208.1 0.24187-2.2649z" fill="#b2e3e4"/>
  <path d="m-30.438-66.047 284.44 208.88 284.44-208.88v31.472l-284.44 208.88-284.44-208.88z" fill="url(#linearGradient26562)"/>
 </g>
 <g transform="matrix(1.1441 0 0 1.145 62.387 37.753)" fill="none" stop-color="#000000" stroke="#235dc6" stroke-width=".64985" style="-inkscape-stroke:none;font-variation-settings:normal;paint-order:stroke fill markers">
  <path d="m116.37 53.187v6.7346" stop-color="#000000" style="-inkscape-stroke:none;font-variation-settings:normal;paint-order:stroke fill markers"/>
  <path d="m122.49 57.678v8.7187" stop-color="#000000" style="-inkscape-stroke:none;font-variation-settings:normal;paint-order:stroke fill markers"/>
  <path d="m133.56 65.81v8.379" stop-color="#000000" style="-inkscape-stroke:none;font-variation-settings:normal;paint-order:stroke fill markers"/>
  <path d="m128.48 62.077v4.1961" stop-color="#000000" style="-inkscape-stroke:none;font-variation-settings:normal;paint-order:stroke fill markers"/>
  <circle cx="116.42" cy="61.028" r="1.21" stop-color="#000000" style="-inkscape-stroke:none;font-variation-settings:normal;paint-order:stroke fill markers"/>
  <circle cx="122.45" cy="66.901" r=".64061" stop-color="#000000" style="-inkscape-stroke:none;font-variation-settings:normal;paint-order:stroke fill markers"/>
  <circle cx="128.5" cy="67.357" r="1.21" stop-color="#000000" style="-inkscape-stroke:none;font-variation-settings:normal;paint-order:stroke fill markers"/>
  <circle cx="133.55" cy="75.222" r="1.21" stop-color="#000000" style="-inkscape-stroke:none;font-variation-settings:normal;paint-order:stroke fill markers"/>
 </g>
 <path d="m39.548-5.3468v22.167l12.24 8.9885v-22.167zm15.86 11.647v22.167l24.621 18.081v-22.167zm32.133 23.597 0.20555 22.318 15.442 11.34 0.0269-22.147zm21.353 15.681-0.28909 21.955 4.6617 3.4233v-22.167z" fill="url(#linearGradient34063)" stop-color="#000000" style="-inkscape-stroke:none;font-variation-settings:normal"/>
 <path d="m346.84 168.89v10.266l-12.24 8.9885v-10.266zm-15.86 11.647v10.266l-24.621 18.081v-10.267zm-32.133 23.597-0.20555 10.417-15.442 11.34-0.0268-10.247zm-21.353 15.681 0.2891 10.054-4.6617 3.4233v-10.267z" fill="url(#linearGradient53858)" stop-color="#000000" style="-inkscape-stroke:none;font-variation-settings:normal"/>
 <g transform="matrix(1.4056 0 0 1.4056 -8.1143e-6 54.806)" opacity=".03">
  <path d="m-21.655-173.61 202.37 148.61 202.37-148.61v16.181l-202.37 148.61-202.37-148.61z" fill="url(#linearGradient21995)" stop-color="#000000" style="-inkscape-stroke:none;font-variation-settings:normal"/>
  <path d="m-21.655-193.8 202.37 148.61 202.37-148.61v22.391l-202.37 148.61-202.37-148.61z" fill="url(#linearGradient21997)"/>
  <path d="m-21.655-157.94 202.37 148.61 202.37-148.61v1.7412l-202.37 148.61-202.37-148.61z" fill="url(#linearGradient21999)" stop-color="#000000" style="-inkscape-stroke:none;font-variation-settings:normal;paint-order:stroke fill markers"/>
 </g>
 <path d="m142.05 64.725v24.467l35.263 25.896v-24.468z" fill="#7777e1" fill-opacity=".095564"/>
 <g>
  <path d="m167.01 118.09v10.363l86.986 64.106v-10.363zm0 12.594v4.0007l86.986 64.106v-4.0007z" fill="url(#linearGradient35392)"/>
  <path d="m-0.049168 50.603v5.9785l46.106 33.859v-5.9792z" fill="url(#linearGradient37083)"/>
  <path d="m124.05 62.433v14.649l112.98 82.965v-14.651z" fill="url(#linearGradient37280)"/>
  <path d="m34.681 74.29v14.65l31.364 23.033v-4.9813zm37.323 37.077v4.9813l12.271 9.011v-4.9813zm15.239 11.191v4.9813l12.886 9.4636v-4.982zm21.924 16.1v4.9813l16.221 11.913v-4.982zm21.032 15.445v4.982l9.9625 7.3158v-4.982zm13.924 10.225v4.982l3.5337 2.5952v-4.982z" fill="url(#linearGradient37849)"/>
 </g>
 <g transform="matrix(1.1441 0 0 1.145 98.406 64.76)" fill="none" stroke="#235dc6" stroke-width=".64985">
  <path d="m116.37 53.187v6.7346" stop-color="#000000" style="font-variation-settings:normal"/>
  <path d="m122.49 57.678v8.7187"/>
  <path d="m128.48 62.077v4.1961"/>
  <circle cx="116.42" cy="61.028" r="1.21" stop-color="#000000" style="font-variation-settings:normal;paint-order:stroke fill markers"/>
  <circle cx="122.45" cy="66.901" r=".64061" stop-color="#000000" style="font-variation-settings:normal;paint-order:stroke fill markers"/>
  <circle cx="128.5" cy="67.357" r="1.21" stop-color="#000000" style="font-variation-settings:normal;paint-order:stroke fill markers"/>
  <path d="m110.31 48.673v8.379"/>
  <circle cx="110.3" cy="58.084" r="1.21" stop-color="#000000" style="font-variation-settings:normal;paint-order:stroke fill markers"/>
 </g>
 <g>
  <path d="m-30.438-67.643 284.44 208.88 284.44-208.88v2.4473l-284.44 208.88-284.44-208.88z" fill="url(#linearGradient69576)" stop-color="#000000" style="-inkscape-stroke:none;font-variation-settings:normal;paint-order:stroke fill markers"/>
  <path d="m347.27 93.539v22.167l-12.24 8.9885v-22.167zm-15.86 11.647v22.167l-24.621 18.081v-22.167zm-32.133 23.597-0.20555 22.318-15.442 11.34-0.0268-22.147zm-21.353 15.681 0.28909 21.954-4.6617 3.4232v-22.167z" fill="url(#linearGradient53643)" stop-color="#000000" style="-inkscape-stroke:none;font-variation-settings:normal"/>
  <path d="m470.05-19.986v14.65l-31.364 23.033v-4.9813zm-37.323 37.077v4.9813l-12.271 9.011v-4.9813zm-15.239 11.191v4.9813l-12.886 9.4636v-4.982zm-21.924 16.1v4.9813l-16.221 11.913v-4.982zm-21.032 15.445v4.982l-9.9626 7.3157v-4.982zm-13.924 10.225v4.982l-3.5337 2.5952v-4.982z" fill="url(#linearGradient53697)"/>
  <path d="m445.71 21.055v14.649l-112.98 82.965v-14.651z" fill="url(#linearGradient53804)"/>
  <path d="m340.99 118.09v10.363l-86.986 64.106v-10.363zm0 12.594v4.0007l-86.986 64.106v-4.0007z" fill="url(#linearGradient5163)"/>
 </g>
</svg>
