<?xml version="1.0" encoding="UTF-8"?>
<svg id="svg514" width="3840" height="2160" version="1.1" viewBox="0 0 1016 571.5" xmlns="http://www.w3.org/2000/svg" xmlns:xlink="http://www.w3.org/1999/xlink">
<defs id="defs146">
<linearGradient id="linearGradient5521" x1="747.79" x2="1354.7" y1="381" y2="381" gradientTransform="matrix(2.2321 0 0 .032661 -1669.2 301.97)" gradientUnits="userSpaceOnUse" xlink:href="#linearGradient1294-7"/>
<linearGradient id="linearGradient1294-7">
<stop id="stop660" stop-color="#6a5e19" offset="0"/>
<stop id="stop662" stop-color="#d1b832" stop-opacity=".98824" offset=".14669"/>
<stop id="stop664" stop-color="#8c7b20" stop-opacity=".96863" offset=".30531"/>
<stop id="stop666" stop-color="#dbc865" stop-opacity=".95686" offset=".51079"/>
<stop id="stop668" stop-color="#82721e" stop-opacity=".94902" offset=".6231"/>
<stop id="stop670" stop-color="#968623" stop-opacity=".99608" offset=".83541"/>
<stop id="stop672" stop-color="#cfb530" stop-opacity=".92157" offset="1"/>
</linearGradient>
<linearGradient id="linearGradient5523" x1="747.79" x2="1354.7" y1="381" y2="381" gradientTransform="matrix(2.2321 0 0 .08907 -1669.2 308.79)" gradientUnits="userSpaceOnUse" xlink:href="#linearGradient1056-3"/>
<linearGradient id="linearGradient1056-3">
<stop id="stop683" stop-color="#6a5e19" offset="0"/>
<stop id="stop685" stop-color="#85751e" stop-opacity=".98824" offset=".14669"/>
<stop id="stop687" stop-color="#a38f26" stop-opacity=".96863" offset=".30531"/>
<stop id="stop689" stop-color="#f5d737" stop-opacity=".95686" offset=".51079"/>
<stop id="stop691" stop-color="#968623" stop-opacity=".99608" offset=".83541"/>
<stop id="stop693" stop-color="#4e4412" stop-opacity=".92157" offset="1"/>
</linearGradient>
<linearGradient id="linearGradient5525" x1="747.79" x2="1354.7" y1="381" y2="381" gradientTransform="matrix(2.2321 0 0 1 -1669.2 17.384)" gradientUnits="userSpaceOnUse" xlink:href="#linearGradient8802"/>
<linearGradient id="linearGradient8802">
<stop id="stop8796" stop-color="#1b668f" offset="0"/>
<stop id="stop8798" stop-color="#121c94" offset=".43039"/>
<stop id="stop8800" stop-color="#382279" offset="1"/>
</linearGradient>
<linearGradient id="linearGradient5527" x1="747.79" x2="1354.7" y1="381" y2="381" gradientTransform="matrix(2.2321 0 0 .25888 -1669.2 257.33)" gradientUnits="userSpaceOnUse" xlink:href="#linearGradient25753-9"/>
<linearGradient id="linearGradient25753-9" x1="-21.655" x2="383.08" y1="92.147" y2="92.147" gradientTransform="matrix(3.7501 0 0 3.7501 69.604 -626.98)" gradientUnits="userSpaceOnUse">
<stop id="stop736" stop-color="#4465eb" offset="0"/>
<stop id="stop738" stop-color="#46a7e1" offset=".5"/>
<stop id="stop740" stop-color="#6b50c1" offset="1"/>
</linearGradient>
<linearGradient id="linearGradient5529" x1="747.79" x2="1354.7" y1="381" y2="381" gradientTransform="matrix(2.2321 0 0 .08907 -1669.2 385.34)" gradientUnits="userSpaceOnUse" xlink:href="#linearGradient1056-3"/>
<linearGradient id="linearGradient5531" x1="747.79" x2="1354.7" y1="381" y2="381" gradientTransform="matrix(2.2321 0 0 .032661 -1669.2 435.14)" gradientUnits="userSpaceOnUse" xlink:href="#linearGradient1294-7"/>
<linearGradient id="linearGradient4540" x1="1938.1" x2="3320.3" y1="1738.6" y2="1738.6" gradientUnits="userSpaceOnUse" xlink:href="#linearGradient1056-3"/>
<linearGradient id="linearGradient1730" x1="1938.1" x2="3320.3" y1="1738.6" y2="1738.6" gradientUnits="userSpaceOnUse">
<stop id="stop606" stop-color="#2936ea" offset="0"/>
<stop id="stop608" stop-color="#164593" offset="1"/>
</linearGradient>
<linearGradient id="linearGradient1738" x1="1938.1" x2="3320.3" y1="1738.6" y2="1738.6" gradientUnits="userSpaceOnUse" xlink:href="#linearGradient25753-9"/>
<linearGradient id="linearGradient1122" x1="642.77" x2="711.93" y1="381" y2="381" gradientTransform="matrix(1.192 0 0 1.192 -130.05 -73.152)" gradientUnits="userSpaceOnUse" xlink:href="#linearGradient1056-3"/>
</defs>
<rect id="rect148" x="-.0016696" y="3.7115e-7" width="1016" height="571.5" fill="#1b1e20" stop-color="#000000" stroke-width=".75" style="-inkscape-stroke:none;font-variation-settings:normal;paint-order:stroke fill markers"/>
<g id="g7521" transform="matrix(.75 0 0 .75 313.57 202.68)">
<g id="g5519" transform="matrix(.99998 0 0 .77602 -418.09 -134.86)" opacity=".05">
<rect id="rect5497" x="-1.4692e-5" y="312.17" width="1354.7" height="4.4962" ry=".027054" fill="url(#linearGradient5521)" stop-color="#000000" stroke-width=".084371" style="-inkscape-stroke:none;font-variation-settings:'wght' 700;paint-order:stroke fill markers"/>
<rect id="rect5499" x="-1.4692e-5" y="423.77" width="1354.7" height="21.563" ry=".12975" fill="#243bcf" stop-color="#000000" stroke-width=".18477" style="-inkscape-stroke:none;font-variation-settings:'wght' 700;paint-order:stroke fill markers"/>
<rect id="rect5501" x="-1.4692e-5" y="338.23" width="1354.7" height="8.9924" ry=".054108" fill="url(#linearGradient5523)" stop-color="#000000" stroke-width=".11932" style="-inkscape-stroke:none;font-variation-settings:'wght' 700;paint-order:stroke fill markers"/>
<rect id="rect5503" x="-1.4692e-5" y="316.67" width="1354.7" height="21.614" ry=".13759" fill="#243bcf" stop-color="#000000" stroke-width=".19027" style="-inkscape-stroke:none;font-variation-settings:'wght' 700;paint-order:stroke fill markers"/>
<path id="path5505" transform="matrix(.98012 0 0 .0013951 -1899.5 335.8)" d="m2629.2 1047.5 691.09 691.09-691.09 691.09-691.09-691.09z" fill="#fff" stop-color="#000000" stroke-width="9.3056" style="-inkscape-stroke:none;font-variation-settings:normal;paint-order:stroke fill markers"/>
<rect id="rect5507" x="-2.9385e-5" y="364.61" width="1354.7" height="50.225" ry="0" fill="url(#linearGradient5525)" stop-color="#000000" stroke-width=".32705" style="-inkscape-stroke:none;font-variation-settings:'wght' 700;paint-order:stroke fill markers"/>
<rect id="rect5509" x="-1.4692e-5" y="347.22" width="1354.7" height="17.49" ry=".10524" fill="url(#linearGradient5527)" stop-color="#000000" stroke-width=".1664" style="-inkscape-stroke:none;font-variation-settings:'wght' 700;paint-order:stroke fill markers"/>
<path id="path5511" transform="matrix(.98012 0 0 .0013951 -1899.5 421.35)" d="m2629.2 1047.5 691.09 691.09-691.09 691.09-691.09-691.09z" fill="#fff" stop-color="#000000" stroke-width="9.3056" style="-inkscape-stroke:none;font-variation-settings:normal;paint-order:stroke fill markers"/>
<path id="path5513" transform="matrix(.98012 0 0 .0022635 -1899.5 360.67)" d="m2629.2 1047.5 691.09 691.09-691.09 691.09-691.09-691.09z" fill="#fff" stop-color="#000000" stroke-width="9.3056" style="-inkscape-stroke:none;font-variation-settings:normal;paint-order:stroke fill markers"/>
<rect id="rect5515" x="-1.4692e-5" y="414.78" width="1354.7" height="8.9923" ry=".054107" fill="url(#linearGradient5529)" stop-color="#000000" stroke-width=".11932" style="-inkscape-stroke:none;font-variation-settings:'wght' 700;paint-order:stroke fill markers"/>
<rect id="rect5517" x="-1.4692e-5" y="445.33" width="1354.7" height="4.4962" ry=".027054" fill="url(#linearGradient5531)" stop-color="#000000" stroke-width=".084371" style="-inkscape-stroke:none;font-variation-settings:'wght' 700;paint-order:stroke fill markers"/>
</g>
<g id="g5398" transform="matrix(.99998 0 0 .77602 -418.09 -235.64)" opacity=".05">
<rect id="rect5376" x="-1.4692e-5" y="312.17" width="1354.7" height="4.4962" ry=".027054" fill="url(#linearGradient5521)" stop-color="#000000" stroke-width=".084371" style="-inkscape-stroke:none;font-variation-settings:'wght' 700;paint-order:stroke fill markers"/>
<rect id="rect5378" x="-1.4692e-5" y="423.77" width="1354.7" height="21.563" ry=".12975" fill="#243bcf" stop-color="#000000" stroke-width=".18477" style="-inkscape-stroke:none;font-variation-settings:'wght' 700;paint-order:stroke fill markers"/>
<rect id="rect5380" x="-1.4692e-5" y="338.23" width="1354.7" height="8.9924" ry=".054108" fill="url(#linearGradient5523)" stop-color="#000000" stroke-width=".11932" style="-inkscape-stroke:none;font-variation-settings:'wght' 700;paint-order:stroke fill markers"/>
<rect id="rect5382" x="-1.4692e-5" y="316.67" width="1354.7" height="21.614" ry=".13759" fill="#243bcf" stop-color="#000000" stroke-width=".19027" style="-inkscape-stroke:none;font-variation-settings:'wght' 700;paint-order:stroke fill markers"/>
<path id="path5384" transform="matrix(.98012 0 0 .0013951 -1899.5 335.8)" d="m2629.2 1047.5 691.09 691.09-691.09 691.09-691.09-691.09z" fill="#fff" stop-color="#000000" stroke-width="9.3056" style="-inkscape-stroke:none;font-variation-settings:normal;paint-order:stroke fill markers"/>
<rect id="rect5386" x="-2.9385e-5" y="364.61" width="1354.7" height="50.225" ry="0" fill="url(#linearGradient5525)" stop-color="#000000" stroke-width=".32705" style="-inkscape-stroke:none;font-variation-settings:'wght' 700;paint-order:stroke fill markers"/>
<rect id="rect5388" x="-1.4692e-5" y="347.22" width="1354.7" height="17.49" ry=".10524" fill="url(#linearGradient5527)" stop-color="#000000" stroke-width=".1664" style="-inkscape-stroke:none;font-variation-settings:'wght' 700;paint-order:stroke fill markers"/>
<path id="path5390" transform="matrix(.98012 0 0 .0013951 -1899.5 421.35)" d="m2629.2 1047.5 691.09 691.09-691.09 691.09-691.09-691.09z" fill="#fff" stop-color="#000000" stroke-width="9.3056" style="-inkscape-stroke:none;font-variation-settings:normal;paint-order:stroke fill markers"/>
<path id="path5392" transform="matrix(.98012 0 0 .0022635 -1899.5 360.67)" d="m2629.2 1047.5 691.09 691.09-691.09 691.09-691.09-691.09z" fill="#fff" stop-color="#000000" stroke-width="9.3056" style="-inkscape-stroke:none;font-variation-settings:normal;paint-order:stroke fill markers"/>
<rect id="rect5394" x="-1.4692e-5" y="414.78" width="1354.7" height="8.9923" ry=".054107" fill="url(#linearGradient5529)" stop-color="#000000" stroke-width=".11932" style="-inkscape-stroke:none;font-variation-settings:'wght' 700;paint-order:stroke fill markers"/>
<rect id="rect5396" x="-1.4692e-5" y="445.33" width="1354.7" height="4.4962" ry=".027054" fill="url(#linearGradient5531)" stop-color="#000000" stroke-width=".084371" style="-inkscape-stroke:none;font-variation-settings:'wght' 700;paint-order:stroke fill markers"/>
</g>
<use id="use6459" transform="matrix(2.2422 0 0 2.2422 -322.05 -137.58)" opacity=".05" xlink:href="#g2305"/>
<use id="use6249" transform="matrix(1.9998 0 0 1.9998 -259.2 -110.73)" opacity=".08" xlink:href="#g2305"/>
<g id="g7941" transform="matrix(.99998 0 0 .77602 -418.09 -184.91)">
<rect id="rect1732" x="-1.4692e-5" y="312.17" width="1354.7" height="4.4962" ry=".027054" fill="url(#linearGradient5521)" stop-color="#000000" stroke-width=".084371" style="-inkscape-stroke:none;font-variation-settings:'wght' 700;paint-order:stroke fill markers"/>
<rect id="rect2472" x="-1.4692e-5" y="423.77" width="1354.7" height="21.563" ry=".12975" fill="#243bcf" stop-color="#000000" stroke-width=".18477" style="-inkscape-stroke:none;font-variation-settings:'wght' 700;paint-order:stroke fill markers"/>
<rect id="rect2470" x="-1.4692e-5" y="338.23" width="1354.7" height="8.9924" ry=".054108" fill="url(#linearGradient5523)" stop-color="#000000" stroke-width=".11932" style="-inkscape-stroke:none;font-variation-settings:'wght' 700;paint-order:stroke fill markers"/>
<rect id="rect5260" x="-1.4692e-5" y="316.67" width="1354.7" height="21.614" ry=".13759" fill="#243bcf" stop-color="#000000" stroke-width=".19027" style="-inkscape-stroke:none;font-variation-settings:'wght' 700;paint-order:stroke fill markers"/>
<path id="path7650" transform="matrix(.98012 0 0 .0013951 -1899.5 335.8)" d="m2629.2 1047.5 691.09 691.09-691.09 691.09-691.09-691.09z" fill="#fff" stop-color="#000000" stroke-width="9.3056" style="-inkscape-stroke:none;font-variation-settings:normal;paint-order:stroke fill markers"/>
<rect id="rect4362" x="-2.9385e-5" y="364.61" width="1354.7" height="50.225" ry="0" fill="url(#linearGradient5525)" stop-color="#000000" stroke-width=".32705" style="-inkscape-stroke:none;font-variation-settings:'wght' 700;paint-order:stroke fill markers"/>
<rect id="rect2296" x="-1.4692e-5" y="347.22" width="1354.7" height="17.49" ry=".10524" fill="url(#linearGradient5527)" stop-color="#000000" stroke-width=".1664" style="-inkscape-stroke:none;font-variation-settings:'wght' 700;paint-order:stroke fill markers"/>
<path id="path7736" transform="matrix(.98012 0 0 .0013951 -1899.5 421.35)" d="m2629.2 1047.5 691.09 691.09-691.09 691.09-691.09-691.09z" fill="#fff" stop-color="#000000" stroke-width="9.3056" style="-inkscape-stroke:none;font-variation-settings:normal;paint-order:stroke fill markers"/>
<path id="path7931" transform="matrix(.98012 0 0 .0022635 -1899.5 360.67)" d="m2629.2 1047.5 691.09 691.09-691.09 691.09-691.09-691.09z" fill="#fff" stop-color="#000000" stroke-width="9.3056" style="-inkscape-stroke:none;font-variation-settings:normal;paint-order:stroke fill markers"/>
<rect id="rect5252" x="-1.4692e-5" y="414.78" width="1354.7" height="8.9923" ry=".054107" fill="url(#linearGradient5529)" stop-color="#000000" stroke-width=".11932" style="-inkscape-stroke:none;font-variation-settings:'wght' 700;paint-order:stroke fill markers"/>
<rect id="rect5256" x="-1.4692e-5" y="445.33" width="1354.7" height="4.4962" ry=".027054" fill="url(#linearGradient5531)" stop-color="#000000" stroke-width=".084371" style="-inkscape-stroke:none;font-variation-settings:'wght' 700;paint-order:stroke fill markers"/>
</g>
<g id="g2305" transform="matrix(.78561 0 0 .78561 -272.89 -188.56)">
<path id="path7400" transform="matrix(.17818 0 0 .24421 208.88 -43.578)" d="m2629.2 1047.5-691.09 691.09 691.09 691.09 691.09-691.09zm0 27.181 663.74 663.91-663.74 663.91-663.74-663.91z" fill="url(#linearGradient4540)" stop-color="#000000" stroke-width=".26459" style="-inkscape-stroke:none;font-variation-settings:'wght' 700;paint-order:stroke fill markers"/>
<path id="path1821" transform="matrix(.17113 0 0 .23461 227.42 -26.879)" d="m2629.2 1047.5 691.09 691.09-691.09 691.09-691.09-691.09z" fill="url(#linearGradient1730)" stop-color="#000000" stroke-width=".26459" style="-inkscape-stroke:none;font-variation-settings:'wght' 700;paint-order:stroke fill markers"/>
<path id="path1071" transform="matrix(.13684 0 0 .18375 317.58 61.54)" d="m2629.2 1047.5-691.09 691.09 691.09 691.09 691.09-691.09zm0 60.145 630.95 630.95-630.95 630.95-630.95-630.95z" fill="url(#linearGradient4540)" stop-color="#000000" stroke-width=".26459" style="-inkscape-stroke:none;font-variation-settings:'wght' 700;paint-order:stroke fill markers"/>
<path id="path8299" transform="matrix(.12493 0 0 .16776 348.88 89.341)" d="m2629.2 1047.5 691.09 691.09-691.09 691.09-691.09-691.09z" fill="url(#linearGradient1738)" stop-color="#000000" stroke-width=".26459" style="-inkscape-stroke:none;font-variation-settings:'wght' 700;paint-order:stroke fill markers"/>
<path id="path8804" transform="matrix(.10648 0 0 .14299 397.39 132.41)" d="m2629.2 1047.5-691.09 691.09 691.09 691.09 691.09-691.09zm0 45.751 645.34 645.34-645.34 645.34-645.34-645.34z" fill="#fff" stop-color="#000000" stroke-width="9.3056" style="-inkscape-stroke:none;font-variation-settings:normal;paint-order:stroke fill markers"/>
<path id="path3296" transform="matrix(.099434 0 0 .13352 415.92 148.87)" d="m2629.2 1047.5 691.09 691.09-691.09 691.09-691.09-691.09z" fill="#333" stop-color="#000000" stroke-width="9.3056" style="-inkscape-stroke:none;font-variation-settings:normal;paint-order:stroke fill markers"/>
<path id="path3298" d="m677.35 321.52c-24.719 0-44.293 34.757-44.293 59.477s19.574 59.477 44.293 59.477c24.719 0 44.293-34.757 44.293-59.477 0-24.719-19.574-59.477-44.293-59.477zm0 4.1204c23.007 0 41.225 32.35 41.225 55.356 0 23.007-18.218 55.356-41.225 55.356-23.007 0-41.225-32.35-41.225-55.356 0-23.007 18.218-55.356 41.225-55.356z" fill="#47a6e0" stop-color="#000000" stroke-width=".69112" style="paint-order:stroke fill markers"/>
<path id="path4523" d="m677.35 325.64c-23.007 0-41.225 32.35-41.225 55.356s18.218 55.356 41.225 55.356c23.007 0 41.225-32.35 41.225-55.356 0-23.007-18.218-55.356-41.225-55.356zm0 6.5365c20.29 0 36.357 28.53 36.357 48.82s-16.067 48.82-36.357 48.82c-20.29 0-36.357-28.53-36.357-48.82 0-20.29 16.067-48.82 36.357-48.82z" fill="url(#linearGradient1122)" stop-color="#000000" stroke-width=".64324" style="paint-order:stroke fill markers"/>
<path id="path1124" d="m677.35 331.65c-20.511 0-36.753 28.84-36.753 49.351s16.242 49.352 36.753 49.352c20.511 0 36.752-28.841 36.752-49.352 0-20.511-16.241-49.351-36.752-49.351zm0 6.3516c17.871 0 32.023 25.128 32.023 42.999 0 17.871-14.152 42.999-32.023 42.999-17.871 0-32.023-25.128-32.023-42.999s14.152-42.999 32.023-42.999z" fill="#ccc" stop-color="#000000" stroke-width=".57346" style="paint-order:stroke fill markers"/>
<path id="path1324" d="m677.35 336.59c18.459 0 33.075 25.955 33.075 44.414s-14.617 44.414-33.075 44.414c-18.459 0-33.075-25.955-33.075-44.414 0-18.459 14.617-44.414 33.075-44.414z" fill="#fff" stop-color="#000000" stroke-width=".51609" style="paint-order:stroke fill markers"/>
<path id="path7265" transform="matrix(.48248 0 0 .0016745 -591.18 378.09)" d="m2629.2 1047.5 691.09 691.09-691.09 691.09-691.09-691.09z" fill="#fff" stop-color="#000000" stroke-width="9.3056" style="-inkscape-stroke:none;font-variation-settings:normal;paint-order:stroke fill markers"/>
<path id="path7457" transform="matrix(0 .18443 -.0030753 0 682.7 -103.89)" d="m2629.2 1047.5 691.09 691.09-691.09 691.09-691.09-691.09z" fill="#fff" stop-color="#000000" stroke-width="9.3056" style="-inkscape-stroke:none;font-variation-settings:normal;paint-order:stroke fill markers"/>
</g>
</g>
</svg>
