<?xml version="1.0" encoding="UTF-8"?>
<!-- Created with Inkscape (http://www.inkscape.org/) -->
<svg width="3640" height="2160" version="1.1" viewBox="0 0 963.08 571.5" xmlns="http://www.w3.org/2000/svg" xmlns:xlink="http://www.w3.org/1999/xlink">
 <defs>
  <linearGradient id="linearGradient16905">
   <stop stop-color="#1b668f" offset="0"/>
   <stop stop-color="#121c94" offset=".5"/>
   <stop stop-color="#382279" offset="1"/>
  </linearGradient>
  <linearGradient id="linearGradient12915">
   <stop stop-color="#445feb" offset="0"/>
   <stop stop-color="#252fb5" offset=".5"/>
   <stop stop-color="#9b53c1" offset="1"/>
  </linearGradient>
  <linearGradient id="linearGradient78639">
   <stop stop-color="#2936ea" offset="0"/>
   <stop stop-color="#164593" offset="1"/>
  </linearGradient>
  <linearGradient id="linearGradient75480-3" x1="-21.655" x2="1378.4" y1="110.14" y2="110.14" gradientTransform="matrix(.74414 0 0 .74414 -26.708 30.866)" gradientUnits="userSpaceOnUse" xlink:href="#linearGradient16905"/>
  <linearGradient id="linearGradient3595-6" x1="-21.656" x2="383.08" y1="81.035" y2="81.035" gradientTransform="matrix(2.8125 0 0 2.8125 -26.708 -7.4653e-5)" gradientUnits="userSpaceOnUse">
   <stop stop-color="#51d677" stop-opacity=".47843" offset="0"/>
   <stop stop-color="#eded84" stop-opacity=".32941" offset=".26488"/>
   <stop stop-color="#a9ebf6" stop-opacity=".19951" offset=".49538"/>
   <stop stop-color="#e9bf9d" stop-opacity=".35686" offset=".74191"/>
   <stop stop-color="#5138aa" stop-opacity=".52157" offset="1"/>
  </linearGradient>
  <linearGradient id="linearGradient21995-7" x1="-21.655" x2="383.08" y1="92.147" y2="92.147" gradientTransform="translate(0 -155.84)" gradientUnits="userSpaceOnUse" xlink:href="#linearGradient12915"/>
  <linearGradient id="linearGradient21997-5" x1="-21.655" x2="383.08" y1="99.556" y2="99.556" gradientTransform="translate(0 -189.92)" gradientUnits="userSpaceOnUse" xlink:href="#linearGradient12843-3"/>
  <linearGradient id="linearGradient12843-3">
   <stop stop-color="#3410ab" stop-opacity=".67526" offset="0"/>
   <stop stop-color="#169bd6" offset=".5"/>
   <stop stop-color="#0940a2" stop-opacity=".56984" offset="1"/>
  </linearGradient>
  <linearGradient id="linearGradient21999-5" x1="-24.528" x2="386.16" y1="-24.045" y2="-24.045" gradientTransform="translate(0 -138.44)" gradientUnits="userSpaceOnUse" xlink:href="#linearGradient26557-6"/>
  <linearGradient id="linearGradient26557-6">
   <stop stop-color="#6a5e19" offset="0"/>
   <stop stop-color="#85751e" stop-opacity=".98824" offset=".14669"/>
   <stop stop-color="#8c7b20" stop-opacity=".96863" offset=".30531"/>
   <stop stop-color="#bda62c" stop-opacity=".95686" offset=".51079"/>
   <stop stop-color="#82721e" stop-opacity=".94902" offset=".6231"/>
   <stop stop-color="#968623" stop-opacity=".99608" offset=".83541"/>
   <stop stop-color="#4e4412" stop-opacity=".92157" offset="1"/>
  </linearGradient>
  <linearGradient id="linearGradient22001-2" x1="-21.655" x2="1378.4" y1="110.14" y2="110.14" gradientTransform="matrix(.26458 0 0 .26458 0 -4.9003)" gradientUnits="userSpaceOnUse" xlink:href="#linearGradient16905"/>
  <linearGradient id="linearGradient22003-9" x1="181.04" x2="361.42" y1="110.14" y2="110.14" gradientTransform="translate(0 -18.521)" gradientUnits="userSpaceOnUse" xlink:href="#linearGradient78639"/>
  <linearGradient id="linearGradient22005-1" x1="-21.655" x2="183.99" y1="110.14" y2="110.14" gradientTransform="translate(0 -18.521)" gradientUnits="userSpaceOnUse">
   <stop stop-color="#2f38a6" offset="0"/>
   <stop stop-color="#3d33eb" offset="1"/>
  </linearGradient>
  <linearGradient id="linearGradient22007-2" x1="-82.44" x2="1448.4" y1="345.52" y2="345.52" gradientTransform="scale(.26458)" gradientUnits="userSpaceOnUse" xlink:href="#linearGradient1294-7"/>
  <linearGradient id="linearGradient1294-7">
   <stop stop-color="#6a5e19" offset="0"/>
   <stop stop-color="#d1b832" stop-opacity=".98824" offset=".14669"/>
   <stop stop-color="#8c7b20" stop-opacity=".96863" offset=".30531"/>
   <stop stop-color="#dbc865" stop-opacity=".95686" offset=".51079"/>
   <stop stop-color="#82721e" stop-opacity=".94902" offset=".6231"/>
   <stop stop-color="#968623" stop-opacity=".99608" offset=".83541"/>
   <stop stop-color="#cfb530" stop-opacity=".92157" offset="1"/>
  </linearGradient>
  <linearGradient id="linearGradient22009-0" x1="-21.655" x2="383.08" y1="92.147" y2="92.147" gradientTransform="translate(0 -18.521)" gradientUnits="userSpaceOnUse">
   <stop stop-color="#445feb" offset="0"/>
   <stop stop-color="#4a55ed" offset=".5"/>
   <stop stop-color="#9b53c1" offset="1"/>
  </linearGradient>
  <linearGradient id="linearGradient22011-9" x1="-24.528" x2="386.16" y1="-24.045" y2="-24.045" gradientTransform="translate(0 -2.3527)" gradientUnits="userSpaceOnUse" xlink:href="#linearGradient1056-3"/>
  <linearGradient id="linearGradient1056-3">
   <stop stop-color="#6a5e19" offset="0"/>
   <stop stop-color="#85751e" stop-opacity=".98824" offset=".14669"/>
   <stop stop-color="#a38f26" stop-opacity=".96863" offset=".30531"/>
   <stop stop-color="#f5d737" stop-opacity=".95686" offset=".51079"/>
   <stop stop-color="#968623" stop-opacity=".99608" offset=".83541"/>
   <stop stop-color="#4e4412" stop-opacity=".92157" offset="1"/>
  </linearGradient>
  <linearGradient id="linearGradient22013-6" x1="-21.655" x2="383.08" y1="99.556" y2="99.556" gradientTransform="translate(0 -59.037)" gradientUnits="userSpaceOnUse">
   <stop stop-color="#3410ab" stop-opacity=".67526" offset="0"/>
   <stop stop-color="#2936e9" offset=".5"/>
   <stop stop-color="#0940a2" stop-opacity=".56984" offset="1"/>
  </linearGradient>
  <linearGradient id="linearGradient22015-0" x1="-24.528" x2="386.16" y1="-24.045" y2="-24.045" gradientTransform="translate(0 -44.553)" gradientUnits="userSpaceOnUse" xlink:href="#linearGradient17531-6"/>
  <linearGradient id="linearGradient17531-6">
   <stop stop-color="#6a5e19" offset="0"/>
   <stop stop-color="#85751e" stop-opacity=".98824" offset=".14669"/>
   <stop stop-color="#8c7b20" stop-opacity=".96863" offset=".30531"/>
   <stop stop-color="#d1b637" stop-opacity=".95686" offset=".51079"/>
   <stop stop-color="#82721e" stop-opacity=".94902" offset=".6231"/>
   <stop stop-color="#968623" stop-opacity=".99608" offset=".83541"/>
   <stop stop-color="#4e4412" stop-opacity=".92157" offset="1"/>
  </linearGradient>
  <linearGradient id="linearGradient22017-2" x1="253.56" x2="239.42" y1="147.01" y2="130.45" gradientTransform="translate(0 -18.521)" gradientUnits="userSpaceOnUse">
   <stop stop-color="#28ead8" stop-opacity=".58819" offset="0"/>
   <stop stop-color="#164593" stop-opacity=".023098" offset="1"/>
  </linearGradient>
  <linearGradient id="linearGradient22019-6" x1="251.13" x2="241.25" y1="138.13" y2="126.04" gradientTransform="matrix(-1 0 0 1 361.42 -18.521)" gradientUnits="userSpaceOnUse">
   <stop stop-color="#dc29ea" stop-opacity=".68736" offset="0"/>
   <stop stop-color="#164593" stop-opacity=".023098" offset="1"/>
  </linearGradient>
  <linearGradient id="linearGradient24593-1" x1="181.04" x2="361.42" y1="110.14" y2="110.14" gradientTransform="matrix(2.8125 0 0 2.8125 -26.708 -7.4415)" gradientUnits="userSpaceOnUse" xlink:href="#linearGradient78639"/>
  <linearGradient id="linearGradient78325-8" x1="-21.655" x2="183.99" y1="110.14" y2="110.14" gradientTransform="matrix(2.8125 0 0 2.8125 -26.708 -7.4415)" gradientUnits="userSpaceOnUse">
   <stop stop-color="#2e3476" offset="0"/>
   <stop stop-color="#3d33eb" offset="1"/>
  </linearGradient>
  <linearGradient id="linearGradient87990-7" x1="-82.44" x2="1448.4" y1="345.52" y2="345.52" gradientTransform="matrix(.74414 0 0 .74414 -26.708 44.648)" gradientUnits="userSpaceOnUse" xlink:href="#linearGradient1294-7"/>
  <linearGradient id="linearGradient25753-9" x1="-21.655" x2="383.08" y1="92.147" y2="92.147" gradientTransform="matrix(2.8125 0 0 2.8125 -26.708 -7.4415)" gradientUnits="userSpaceOnUse">
   <stop stop-color="#4465eb" offset="0"/>
   <stop stop-color="#46a7e1" offset=".5"/>
   <stop stop-color="#6b50c1" offset="1"/>
  </linearGradient>
  <linearGradient id="linearGradient25219-2" x1="-24.528" x2="386.16" y1="-24.045" y2="-24.045" gradientTransform="matrix(2.8125 0 0 2.8125 -26.708 38.031)" gradientUnits="userSpaceOnUse" xlink:href="#linearGradient1056-3"/>
  <linearGradient id="linearGradient14910-0" x1="253.56" x2="239.42" y1="147.01" y2="130.45" gradientTransform="matrix(2.8125 0 0 2.8125 -26.708 -7.4415)" gradientUnits="userSpaceOnUse">
   <stop stop-color="#e06fea" stop-opacity=".39011" offset="0"/>
   <stop stop-color="#164593" stop-opacity=".023098" offset="1"/>
  </linearGradient>
  <linearGradient id="linearGradient15720-2" x1="251.13" x2="241.25" y1="138.13" y2="126.04" gradientTransform="matrix(-2.8125 0 0 2.8125 989.79 -7.4415)" gradientUnits="userSpaceOnUse">
   <stop stop-color="#dc29ea" stop-opacity=".18321" offset="0"/>
   <stop stop-color="#164593" stop-opacity=".023098" offset="1"/>
  </linearGradient>
  <linearGradient id="linearGradient35006-37" x1="542.26" x2="409.86" y1="531.52" y2="437.69" gradientTransform="matrix(.74414 0 0 .74414 -26.708 -7.4653e-5)" gradientUnits="userSpaceOnUse">
   <stop stop-color="#9e80dc" stop-opacity=".08" offset="0"/>
   <stop stop-color="#9e80dc" stop-opacity="0" offset="1"/>
  </linearGradient>
  <linearGradient id="linearGradient35006-3-5" x1="542.26" x2="409.86" y1="531.52" y2="437.69" gradientTransform="matrix(-.74414 0 0 .74414 1258 -192.77)" gradientUnits="userSpaceOnUse">
   <stop stop-color="#9e80dc" stop-opacity=".12323" offset="0"/>
   <stop stop-color="#9e80dc" stop-opacity="0" offset="1"/>
  </linearGradient>
  <linearGradient id="linearGradient26562-9" x1="-21.655" x2="383.08" y1="99.556" y2="99.556" gradientTransform="matrix(2.8125 0 0 2.8125 -26.708 -121.39)" gradientUnits="userSpaceOnUse">
   <stop stop-color="#0031b6" offset="0"/>
   <stop stop-color="#255cc7" offset=".5"/>
   <stop stop-color="#3d3dd3" offset="1"/>
  </linearGradient>
  <linearGradient id="linearGradient34063-2" x1="79.735" x2="21.187" y1="42.158" y2="1.0037" gradientTransform="matrix(2.8125 0 0 2.8125 -26.708 -7.4653e-5)" gradientUnits="userSpaceOnUse">
   <stop stop-color="#9e7fdc" stop-opacity=".1" offset="0"/>
   <stop stop-color="#9e7fdc" stop-opacity="0" offset="1"/>
  </linearGradient>
  <linearGradient id="linearGradient53858-2" x1="79.735" x2="21.187" y1="42.158" y2="1.0037" gradientTransform="matrix(-2.8125 0 0 2.8125 746.44 324.83)" gradientUnits="userSpaceOnUse">
   <stop stop-color="#7fdcdb" stop-opacity=".07" offset="0"/>
   <stop stop-color="#9e7fdc" stop-opacity="0" offset="1"/>
  </linearGradient>
  <linearGradient id="linearGradient35392-8" x1="654.09" x2="409.86" y1="615.36" y2="437.69" gradientTransform="matrix(.74414 0 0 .74414 -5.1281 -80.462)" gradientUnits="userSpaceOnUse">
   <stop stop-color="#b1cdef" stop-opacity=".26275" offset="0"/>
   <stop stop-color="#9e80dc" stop-opacity="0" offset="1"/>
  </linearGradient>
  <linearGradient id="linearGradient37083-9" x1="32.688" x2="-4.3074" y1="61.359" y2="35.59" gradientTransform="matrix(2.8125 0 0 2.8125 -26.708 -7.4653e-5)" gradientUnits="userSpaceOnUse">
   <stop stop-color="#a9e3ed" stop-opacity=".05" offset="0"/>
   <stop stop-color="#a9e3ed" stop-opacity="0" offset="1"/>
  </linearGradient>
  <linearGradient id="linearGradient37280-7" x1="32.688" x2="-4.3074" y1="61.359" y2="35.59" gradientTransform="matrix(6.8916 0 0 6.8916 221.75 -122.98)" gradientUnits="userSpaceOnUse">
   <stop stop-color="#60cbde" stop-opacity=".059582" offset="0"/>
   <stop stop-color="#a9e3ed" stop-opacity="0" offset="1"/>
  </linearGradient>
  <linearGradient id="linearGradient37849-3" x1="32.688" x2="-4.3074" y1="61.359" y2="35.59" gradientTransform="matrix(6.8916 0 0 6.8916 42.928 -99.255)" gradientUnits="userSpaceOnUse">
   <stop stop-color="#84b0b8" stop-opacity=".05" offset="0"/>
   <stop stop-color="#a9e3ed" stop-opacity="0" offset="1"/>
  </linearGradient>
  <linearGradient id="linearGradient69576-6" x1="-24.528" x2="386.16" y1="-24.045" y2="-24.045" gradientTransform="matrix(2.8125 0 0 2.8125 -26.708 -80.656)" gradientUnits="userSpaceOnUse" xlink:href="#linearGradient17531-6"/>
  <linearGradient id="linearGradient53643-1" x1="79.735" x2="21.187" y1="42.158" y2="1.0037" gradientTransform="matrix(-2.8125 0 0 2.8125 747.31 197.87)" gradientUnits="userSpaceOnUse">
   <stop stop-color="#dc7fdc" stop-opacity=".08" offset="0"/>
   <stop stop-color="#9e7fdc" stop-opacity="0" offset="1"/>
  </linearGradient>
  <linearGradient id="linearGradient53697-2" x1="32.688" x2="-4.3074" y1="61.359" y2="35.59" gradientTransform="matrix(-6.8916 0 0 6.8916 913.62 -287.9)" gradientUnits="userSpaceOnUse">
   <stop stop-color="#a9e3ed" stop-opacity=".06" offset="0"/>
   <stop stop-color="#a9e3ed" stop-opacity="0" offset="1"/>
  </linearGradient>
  <linearGradient id="linearGradient53804-9" x1="32.688" x2="-4.3074" y1="61.359" y2="35.59" gradientTransform="matrix(-6.8916 0 0 6.8916 864.91 -205.78)" gradientUnits="userSpaceOnUse">
   <stop stop-color="#dd83f2" stop-opacity=".12549" offset="0"/>
   <stop stop-color="#a9e3ed" stop-opacity="0" offset="1"/>
  </linearGradient>
  <linearGradient id="linearGradient5163-3" x1="654.09" x2="409.86" y1="615.36" y2="437.69" gradientTransform="matrix(-.74414 0 0 .74414 968.21 -80.462)" gradientUnits="userSpaceOnUse">
   <stop stop-color="#b1cdef" stop-opacity=".14678" offset="0"/>
   <stop stop-color="#9e80dc" stop-opacity="0" offset="1"/>
  </linearGradient>
 </defs>
 <rect x="-7.5977e-6" y="-1.2773e-5" width="963.08" height="571.5" fill="#1b1e20" stop-color="#000000" style="paint-order:stroke fill markers"/>
 <path d="m-87.614-18.346v58.835l538.27 395.28 30.885 65.189 30.885-65.189 538.27-395.28v-58.835l-569.15 417.96z" fill="url(#linearGradient75480-3)" stop-color="#000000" style="-inkscape-stroke:none;font-variation-settings:normal"/>
 <path d="m-143.02 44.555s30.479 63.391 142.28 57.873c15.972-0.78836 33.603-2.983 53.042-6.9698 116.63-23.92 158.72 62.46 189.19 143.23 10.159 26.924 19.028 53.226 28.939 74.611 28.476 61.443 99.439 137.19 177.37 171.84 46.76 20.788 96.028 26.78 140.13 6.0093 37.579-17.698 44.906-39.158 43.384-59.137-1.5221-19.98-11.893-38.48-9.7093-50.257 5.6487-30.464 27.603-34.247 49.642-32.2 36.731 3.4118 73.697 23.016 35.796-37.725-11.773-18.868-17.62-35.84-19.573-50.817-5.8599-44.931 23.323-71.903 32.674-78.222 12.305-8.3148 26.723-14.562 42.684-19.245 111.72-32.781 299 11.078 365.88-41.165m-1267.7-79.865c2.6996 0.84466 32.765 65.759 141.27 62.91 15.488-0.2427 32.67-1.9398 51.678-5.4558 114.04-21.096 158.02 62.286 189.98 139.74 10.541 25.871 19.958 51.369 30.416 72.256 29.739 59.976 100.96 134.91 177.52 169.92 45.938 21.007 93.992 27.775 136.64 8.473 36.228-16.017 42.362-35.78 39.069-54.657-3.2933-18.877-14.802-39.115-12.442-52.867 5.6692-31.344 28.126-36.776 52.138-35.408 38.703 2.597 78.711 20.762 44.166-38.906-10.525-18.589-15.571-35.291-17.296-49.978-4.6113-44.471 22.023-72.294 31.507-79.146 12.029-8.2019 26.171-14.369 41.894-18.982 111.73-32.355 292.91 6.3847 357.93-44.407m-1260.4-75.534c5.3993 1.6893 35.051 68.128 140.25 67.946 15.004 0.30296 31.738-0.89661 50.313-3.9419 111.45-18.272 157.32 62.113 190.78 136.25 10.924 24.817 20.889 49.512 31.894 69.901 31.003 58.508 102.48 132.63 177.67 168.01 45.117 21.226 91.955 28.77 133.15 10.937 34.877-14.336 39.819-32.402 34.754-50.177-5.0644-17.774-17.711-39.75-15.175-55.477 5.6898-32.224 28.65-39.305 54.635-38.616 40.674 1.7823 83.725 18.508 52.536-40.087-9.2766-18.311-13.522-34.741-15.019-49.138-3.3627-44.011 20.724-72.686 30.34-80.07 11.752-8.089 25.618-14.176 41.105-18.72 111.74-31.928 286.82 1.6915 349.98-47.649m-1253.2-71.203c8.0989 2.534 37.336 70.496 139.24 72.983 14.52 0.84862 30.805 0.1466 48.949-2.4279 108.86-15.447 156.62 61.94 191.57 132.76 11.306 23.763 21.82 47.655 33.371 67.546 32.267 57.041 103.99 130.35 177.82 166.09 44.295 21.445 89.919 29.764 129.66 13.4 33.527-12.655 37.275-29.025 30.44-45.696-6.8356-16.672-20.619-40.386-17.908-58.087 5.7104-33.104 29.173-41.835 57.131-41.825 42.646 0.9675 88.74 16.253 60.906-41.267-8.0284-18.032-11.473-34.191-12.742-48.298-2.1141-43.551 19.424-73.077 29.173-80.994 11.476-7.976 25.066-13.982 40.316-18.457 111.74-31.502 280.72-3.0018 342.03-50.891m-1245.9-66.872c10.799 3.3786 39.622 72.864 138.23 78.02 14.036 1.3943 29.873 1.1898 47.585-0.91401 106.27-12.623 155.92 61.767 192.36 129.26 11.689 22.709 22.751 45.798 34.848 65.191 33.531 55.574 105.51 128.07 177.97 164.18 43.474 21.664 87.882 30.759 126.17 15.864 32.176-10.974 34.732-25.647 26.125-41.216s-23.528-41.021-20.64-60.697c5.731-33.985 29.696-44.364 59.628-45.033 44.617 0.15273 93.754 13.999 69.276-42.448-6.7803-17.753-9.4237-33.641-10.465-47.458-0.86552-43.091 18.125-73.468 28.006-81.918 11.199-7.8631 24.513-13.789 39.527-18.194 111.75-31.075 274.63-7.695 334.08-54.133m-1238.6-62.542c13.498 4.2233 41.907 75.232 137.21 83.056 13.552 1.9399 28.94 2.233 46.22 0.59993 103.68-9.7986 155.22 61.594 193.15 125.77 12.072 21.656 23.682 43.941 36.326 62.836 34.794 54.106 107.03 125.79 178.12 162.26 42.652 21.883 85.846 31.754 122.67 18.328 30.825-9.2926 32.189-22.27 21.811-36.736-10.378-14.466-26.437-41.656-23.373-63.307 5.7515-34.865 30.22-46.893 62.124-48.241 46.589-0.66204 98.768 11.744 77.646-43.629-5.5321-17.475-7.3747-33.092-8.1882-46.619 0.38307-42.632 16.826-73.86 26.839-82.842 10.923-7.7502 23.961-13.596 38.738-17.931 111.76-30.648 268.54-12.388 326.13-57.375m-1231.4-58.211c16.198 5.0679 44.193 77.6 136.2 88.093 13.068 2.4856 28.008 3.2762 44.856 2.1139 101.09-6.9743 154.52 61.421 193.94 122.28 12.454 20.602 24.612 42.085 37.803 60.481 36.058 52.639 108.55 123.51 178.27 160.35 41.831 22.102 83.809 32.748 119.18 20.791 29.474-7.6116 29.645-18.892 17.496-32.255-12.149-13.364-29.346-42.292-26.106-65.917 5.7721-35.745 30.743-49.422 64.62-51.45 48.56-1.4768 103.78 9.4897 86.016-44.81-4.284-17.196-5.3257-32.542-5.9112-45.779 1.6316-42.172 15.526-74.251 25.672-83.766 10.646-7.6372 23.409-13.403 37.948-17.669 111.76-30.222 262.44-17.082 318.18-60.617m-1224.1-53.88c18.897 5.9126 46.479 79.968 135.19 93.13 12.584 3.0312 27.075 4.3194 43.492 3.6278 98.499-4.1499 153.82 61.247 194.74 118.79 12.837 19.548 25.543 40.228 39.28 58.125 37.322 51.172 110.07 121.23 178.41 158.43 41.009 22.321 81.773 33.743 115.69 23.255 28.124-5.9306 27.102-15.514 13.181-27.775-13.92-12.261-32.254-42.927-28.839-68.527 5.7927-36.625 31.266-51.952 67.117-54.658 50.532-2.2916 108.8 7.2352 94.386-45.99-3.0358-16.917-3.2767-31.992-3.6343-44.939 2.8802-41.712 14.227-74.643 24.504-84.69 10.37-7.5243 22.856-13.209 37.159-17.406 111.77-29.795 256.35-21.775 310.22-63.859m-1216.9-49.55c21.597 6.7573 48.764 82.336 134.17 98.166 12.1 3.5769 26.142 5.3627 42.127 5.1417 95.908-1.3256 153.12 61.074 195.53 115.29 13.219 18.494 26.474 38.371 40.758 55.77 38.586 49.704 111.58 118.95 178.56 156.52 40.188 22.54 79.737 34.737 112.2 25.718 26.773-4.2496 24.558-12.137 8.8668-23.295s-35.163-43.563-31.572-71.137c5.8132-37.505 31.789-54.481 69.613-57.866 52.504-3.1063 113.81 4.9808 102.76-47.171-1.7877-16.638-1.2277-31.442-1.3573-44.1 4.1288-41.252 12.927-75.034 23.337-85.614 10.093-7.4113 22.304-13.016 36.37-17.143 111.78-29.369 250.26-26.468 302.27-67.101m-1209.6-45.219c24.297 7.6019 51.05 84.705 133.16 103.2 11.616 4.1226 25.21 6.4059 40.763 6.6557 93.318 1.4988 152.43 60.901 196.32 111.8 13.602 17.441 27.405 36.514 42.235 53.415 39.849 48.237 113.1 116.67 178.71 154.6 39.367 22.759 77.7 35.732 108.71 28.182 25.422-2.5686 22.015-8.759 4.5522-18.814-17.463-10.055-38.072-44.198-34.304-73.747 5.8338-38.385 32.313-57.01 72.109-61.075 54.475-3.9211 118.83 2.7263 111.13-48.352-0.5395-16.36 0.8213-30.892 0.91965-43.26 5.3774-40.792 11.628-75.426 22.17-86.539 9.8169-7.2984 21.751-12.823 35.581-16.88 111.78-28.942 244.17-31.161 294.32-70.343m-1202.3-40.888c26.996 8.4466 53.336 87.073 132.14 108.24 11.132 4.6682 24.277 7.4491 39.399 8.1696 90.727 4.3231 151.73 60.728 197.11 108.31 13.985 16.387 28.336 34.657 43.713 51.06 41.113 46.77 114.62 114.39 178.86 152.69 38.545 22.978 75.664 36.727 105.22 30.646 24.071-0.88754 19.471-5.3814 0.2376-14.334-19.234-8.9526-40.981-44.833-37.037-76.357 5.8544-39.265 32.836-59.54 74.606-64.283 56.447-4.7359 123.84 0.47183 119.5-49.533 0.70866-16.081 2.8703-30.343 3.1966-42.42 6.626-40.332 10.328-75.817 21.003-87.463 9.5404-7.1854 21.199-12.63 34.791-16.618 111.79-28.516 238.07-35.855 286.37-73.585m-1195.1-36.558c29.696 9.2912 55.621 89.441 131.13 113.28 10.648 5.2139 23.345 8.4923 38.034 9.6835 88.136 7.1474 151.03 60.555 197.9 104.82 14.367 15.333 29.266 32.8 45.19 48.705 42.377 45.302 116.14 112.11 179.01 150.77 37.724 23.197 73.627 37.721 101.72 33.109 22.721 0.79348 16.928-2.0038-4.077-9.8538-21.005-7.8499-43.89-45.469-39.77-78.967 5.875-40.145 33.359-62.069 77.102-67.491 58.418-5.5506 128.85-1.7826 127.87-50.714 1.9568-15.802 4.9193-29.793 5.4736-41.581 7.8746-39.872 9.0289-76.209 19.836-88.387 9.264-7.0725 20.646-12.436 34.002-16.355 111.8-28.089 231.98-40.548 278.42-76.827m-1187.8-32.227c32.396 10.136 57.907 91.809 130.12 118.31 10.164 5.7595 22.412 9.5355 36.67 11.197 85.545 9.9718 150.33 60.382 198.7 101.33 14.75 14.28 30.197 30.943 46.667 46.35 43.64 43.835 117.66 109.83 179.16 148.86 36.902 23.416 71.591 38.716 98.232 35.573 21.37 2.4745 14.385 1.3738-8.3916-5.3734s-46.798-46.104-42.503-81.577c5.8955-41.025 33.882-64.598 79.599-70.7 60.39-6.3654 133.87-4.0371 136.24-51.894 3.205-15.524 6.9683-29.243 7.7506-40.741 9.1232-39.413 7.7295-76.6 18.669-89.311 8.9875-6.9596 20.094-12.243 33.213-16.092 111.8-27.662 225.89-45.241 270.47-80.07m-1180.5-27.896c35.095 10.981 60.192 94.177 129.1 123.35 9.6799 6.3052 21.48 10.579 35.305 12.711 82.954 12.796 149.63 60.208 199.49 97.834 15.132 13.226 31.128 29.087 48.145 43.995 44.904 42.368 119.17 107.55 179.31 146.94 36.081 23.635 69.554 39.71 94.74 38.037 20.019 4.1555 11.841 4.7514-12.706-0.89307-24.547-5.6445-49.707-46.739-45.236-84.187 5.9161-41.905 34.406-67.128 82.095-73.908 62.361-7.1802 138.88-6.2916 144.61-53.075 4.4531-15.245 9.0173-28.693 10.028-39.901 10.372-38.953 6.43-76.992 17.502-90.235 8.711-6.8466 19.541-12.05 32.424-15.829 111.81-27.236 219.79-49.934 262.52-83.312m-1173.3-23.566c37.795 11.825 62.478 96.545 128.09 128.39 9.1959 6.8509 20.547 11.622 33.941 14.225 80.364 15.62 148.93 60.035 200.28 94.342 15.515 12.172 32.059 27.23 49.622 41.639 46.168 40.9 120.69 105.27 179.46 145.02 35.259 23.854 67.518 40.705 91.249 40.5 18.668 5.8366 9.2977 8.1291-17.021 3.5873s-52.616-47.375-47.968-86.797c5.9367-42.785 34.929-69.657 84.591-77.116 64.333-7.9949 143.9-8.546 152.98-54.256 5.7013-14.966 11.066-28.144 12.304-39.062 11.62-38.493 5.1306-77.383 16.335-91.159 8.4346-6.7337 18.989-11.857 31.634-15.566 111.82-26.809 213.7-54.628 254.57-86.554m-1166-19.235c40.495 12.67 64.764 98.913 127.08 133.42 8.7119 7.3965 19.615 12.665 32.577 15.739 77.773 18.445 148.23 59.862 201.07 90.849 15.898 11.118 32.99 25.373 51.099 39.284 47.432 39.433 122.21 102.99 179.61 143.11 34.438 24.073 65.482 41.7 87.757 42.964 17.318 7.5176 6.7542 11.507-21.335 8.0676-28.09-3.4391-55.525-48.01-50.701-89.407 5.9572-43.665 35.452-72.186 87.088-80.325 66.304-8.8097 148.91-10.8 161.35-55.437 6.9494-14.688 13.115-27.594 14.581-38.222 12.869-38.033 3.8312-77.774 15.167-92.083 8.1581-6.6208 18.436-11.664 30.845-15.304 111.83-26.383 207.61-59.321 246.62-89.796m-1158.8-14.904c43.194 13.515 67.049 101.28 126.06 138.46 8.2279 7.9422 18.682 13.708 31.212 17.253 75.182 21.269 147.53 59.689 201.86 87.357 16.28 10.065 33.92 23.516 52.577 36.929 48.695 37.966 123.73 100.71 179.76 141.19 33.616 24.292 63.445 42.694 84.265 45.428 15.967 9.1986 4.2108 14.884-25.65 12.548-29.861-2.3364-58.433-48.646-53.434-92.017 5.9778-44.545 35.975-74.716 89.584-83.533 68.276-9.6245 153.93-13.055 169.72-56.617 8.1976-14.409 15.164-27.044 16.858-37.382 14.118-37.573 2.5317-78.166 14-93.007 7.8817-6.5078 17.884-11.47 30.056-15.041 111.83-25.956 201.52-64.014 238.67-93.038m-1151.5-10.573c45.894 14.359 69.335 103.65 125.05 143.5 7.7439 8.4878 17.749 14.752 29.848 18.767 72.591 24.093 146.83 59.516 202.66 83.865 16.663 9.0108 34.851 21.659 54.054 34.574 49.959 36.498 125.25 98.428 179.9 139.28 32.795 24.511 61.409 43.689 80.773 47.891 14.616 10.88 1.6674 18.262-29.965 17.028-31.632-1.2336-61.342-49.281-56.167-94.627 5.9984-45.426 36.499-77.245 92.08-86.741 70.247-10.439 158.94-15.309 178.09-57.798 9.4457-14.13 17.213-26.494 19.135-36.542 15.366-37.113 1.2323-78.557 12.833-93.931 7.6052-6.3949 17.331-11.277 29.267-14.778 111.84-25.53 195.42-68.707 230.72-96.28m-1144.2-6.2428c48.593 15.204 71.621 106.02 124.04 148.53 7.26 9.0335 16.817 15.795 28.484 20.281 70 26.918 146.14 59.343 203.45 80.373 17.045 7.9571 35.782 19.802 55.531 32.219 51.223 35.031 126.76 96.148 180.05 137.36 31.973 24.73 59.372 44.683 77.282 50.355 13.265 12.561-0.87604 21.64-34.279 21.509-33.403-0.13093-64.251-49.916-58.9-97.236 6.019-46.306 37.022-79.774 94.577-89.95 72.219-11.254 163.95-17.564 186.45-58.979 10.694-13.852 19.262-25.945 21.412-35.703 16.615-36.654-0.0671-78.949 11.666-94.855 7.3288-6.2819 16.779-11.084 28.477-14.515 111.85-25.103 189.33-73.401 222.77-99.522m-1137-1.9121c51.293 16.048 73.906 108.39 123.02 153.57 6.776 9.5791 15.884 16.838 27.119 21.795 67.41 29.742 145.44 59.169 204.24 76.881 17.428 6.9034 36.713 17.945 57.009 29.864 52.487 33.564 128.28 93.868 180.2 135.45 31.152 24.949 57.336 45.678 73.79 52.819 11.915 14.242-3.4195 25.017-38.594 25.989-35.174 0.9718-67.16-50.552-61.632-99.846 6.0396-47.186 37.545-82.304 97.073-93.158 74.19-12.069 168.97-19.818 194.82-60.16 11.942-13.573 21.311-25.395 23.689-34.863 17.863-36.194-1.3666-79.34 10.499-95.779 7.0523-6.169 16.226-10.891 27.688-14.253 111.85-24.676 183.24-78.094 214.82-102.76m-1129.7 2.4186c53.993 16.893 76.192 110.75 122.01 158.61 6.292 10.125 14.952 17.881 25.755 23.309 64.819 32.566 144.74 58.996 205.03 73.388 17.811 5.8496 37.644 16.089 58.486 27.509 53.75 32.096 129.8 91.588 180.35 133.53 30.331 25.168 55.299 46.673 70.298 55.282 10.564 15.923-5.9629 28.395-42.908 30.469-36.945 2.0745-70.068-51.187-64.365-102.46 6.0601-48.066 38.068-84.833 99.57-96.366 76.162-12.884 173.98-22.073 203.19-61.34 13.19-13.294 23.36-24.845 25.966-34.023 19.112-35.734-2.666-79.732 9.3318-96.704 6.7758-6.0561 15.674-10.697 26.899-13.99 111.86-24.25 177.14-82.787 206.87-106.01m-1122.4 6.7493c56.692 17.738 78.477 113.12 120.99 163.64 5.808 10.67 14.019 18.924 24.391 24.823 62.228 35.391 144.04 58.823 205.82 69.896 18.193 4.7959 38.574 14.232 59.964 25.153 55.014 30.629 131.32 89.308 180.5 131.62 29.509 25.387 53.263 47.667 66.806 57.746 9.213 17.604-8.5063 31.772-47.223 34.95-38.717 3.1772-72.977-51.823-67.098-105.07 6.0807-48.946 38.592-87.362 102.07-99.575 78.133-13.698 179-24.327 211.56-62.521 14.438-13.016 25.409-24.295 28.243-33.184 20.36-35.274-3.9654-80.123 8.1647-97.628 6.4994-5.9431 15.121-10.504 26.11-13.727 111.87-23.823 171.05-87.48 198.92-109.25m-1115.2 11.08c59.392 18.582 80.763 115.49 119.98 168.68 5.324 11.216 13.087 19.968 23.026 26.337 59.637 38.215 143.34 58.65 206.62 66.404 18.576 3.7422 39.505 12.375 61.441 22.798 56.278 29.162 132.84 87.027 180.65 129.7 28.688 25.606 51.227 48.662 63.315 60.209 7.8622 19.285-11.05 35.15-51.538 39.43-40.488 4.2799-75.886-52.458-69.831-107.68 6.1013-49.826 39.115-89.891 104.56-102.78 80.105-14.513 184.01-26.582 219.93-63.702 15.686-12.737 27.458-23.746 30.52-32.344 21.609-34.814-5.2649-80.515 6.9976-98.552 6.2229-5.8302 14.569-10.311 25.321-13.464 111.87-23.397 164.96-92.174 190.97-112.49m-1107.9 15.411c62.092 19.427 83.049 117.86 118.97 173.72 4.8401 11.762 12.154 21.011 21.662 27.851 57.046 41.04 142.64 58.477 207.41 62.912 18.958 2.6884 40.436 10.518 62.918 20.443 57.541 27.695 134.35 84.747 180.8 127.79 27.866 25.825 49.19 49.656 59.823 62.673 6.5115 20.966-13.593 38.528-55.852 43.91-42.259 5.3827-78.795-53.093-72.563-110.29 6.1218-50.706 39.638-92.421 107.06-105.99 82.076-15.328 189.03-28.836 228.3-64.883 16.935-12.458 29.507-23.196 32.797-31.504 22.858-34.354-6.5643-80.906 5.8304-99.476 5.9465-5.7172 14.017-10.118 24.531-13.202 111.88-22.97 158.86-96.867 183.01-115.73m-1100.7 19.741c64.791 20.272 85.334 120.23 117.95 178.75 4.3561 12.307 11.222 22.054 20.297 29.365 54.456 43.864 141.94 58.304 208.2 59.419 19.341 1.6347 41.367 8.6611 64.396 18.088 58.805 26.227 135.87 82.467 180.95 125.87 27.045 26.044 47.154 50.651 56.331 65.137 5.1607 22.647-16.137 41.905-60.167 48.391s-81.704-53.729-75.296-112.9c6.1424-51.586 40.162-94.95 109.56-109.2 84.048-16.143 194.04-31.091 236.67-66.063 18.183-12.18 31.556-22.646 35.074-30.665 24.106-33.895-7.8638-81.297 4.6633-100.4 5.67-5.6043 13.464-9.9245 23.742-12.939 111.89-22.544 152.77-101.56 175.06-118.97m-1093.4 24.072c67.491 21.116 87.62 122.59 116.94 183.79 3.8721 12.853 10.289 23.097 18.933 30.879 51.865 46.688 141.24 58.13 208.99 55.927 19.724 0.58093 42.298 6.8042 65.873 15.733 60.069 24.76 137.39 80.187 181.1 123.96 26.223 26.263 45.117 51.646 52.839 67.6 3.81 24.328-18.68 45.283-64.481 52.871-45.801 7.5881-84.612-54.364-78.029-115.51 6.163-52.466 40.685-97.479 112.05-112.41 86.019-16.957 199.05-33.345 245.04-67.244 19.431-11.901 33.605-22.096 37.351-29.825 25.355-33.435-9.1632-81.689 3.4962-101.32 5.3935-5.4914 12.912-9.7312 22.953-12.676 111.89-22.117 146.68-106.25 167.11-122.22m-1086.1 28.403c70.19 21.961 89.906 124.96 115.93 188.83 3.3881 13.399 9.3564 24.14 17.569 32.393 49.274 49.513 140.54 57.957 209.78 52.435 20.106-0.47281 43.228 4.9474 67.35 13.378 61.333 23.293 138.91 77.907 181.25 122.04 25.402 26.481 43.081 52.64 49.348 70.064 2.4592 26.009-21.223 48.66-68.796 57.351-47.572 8.6908-87.521-54.999-80.762-118.12 6.1836-53.346 41.208-100.01 114.55-115.62 87.991-17.772 204.07-35.6 253.41-68.425 20.679-11.622 35.654-21.546 39.628-28.985 26.603-32.975-10.463-82.08 2.3291-102.25 5.1171-5.3784 12.359-9.538 22.164-12.413 111.9-21.69 140.59-110.95 159.16-125.46m-1078.9 32.733c72.89 22.806 92.191 127.33 114.91 193.86 2.9041 13.944 8.4239 25.184 16.204 33.906 46.683 52.337 139.85 57.784 210.58 48.943 20.489-1.5265 44.159 3.0905 68.828 11.023 62.596 21.825 140.43 75.627 181.39 120.13 24.58 26.7 41.044 53.635 45.856 72.528 1.1084 27.69-23.767 52.038-73.111 61.832-49.344 9.7935-90.43-55.635-83.495-120.73 6.2041-54.226 41.731-102.54 117.04-118.82 89.962-18.587 209.08-37.854 261.78-69.606 21.927-11.343 37.703-20.997 41.905-28.146 27.852-32.515-11.762-82.472 1.162-103.17 4.8406-5.2655 11.807-9.3448 21.374-12.151 111.91-21.264 134.49-115.64 151.21-128.7m-1071.6 37.064c75.59 23.65 94.477 129.7 113.9 198.9 2.4201 14.49 7.4913 26.227 14.84 35.42 44.092 55.161 139.15 57.611 211.37 45.451 20.871-2.5803 45.09 1.2337 70.305 8.6676 63.86 20.358 141.95 73.347 181.54 118.21 23.759 26.919 39.008 54.629 42.364 74.991-0.24233 29.371-26.31 55.416-77.425 66.312s-93.339-56.27-86.227-123.34c6.2247-55.106 42.255-105.07 119.54-122.03 91.934-19.402 214.1-40.109 270.15-70.786 23.175-11.065 39.752-20.447 44.182-27.306 29.101-32.055-13.062-82.863-5e-3 -104.1 4.5642-5.1525 11.254-9.1515 20.585-11.888 111.91-20.837 128.4-120.33 143.26-131.94m-1064.3 41.395c78.289 24.495 96.762 132.07 112.89 203.94 1.9362 15.036 6.5588 27.27 13.476 36.934 41.502 57.986 138.45 57.438 212.16 41.958 21.254-3.634 46.021-0.6232 71.783 6.3124 65.124 18.891 143.46 71.067 181.69 116.3 22.937 27.138 36.972 55.624 38.872 77.455-1.5931 31.052-28.854 58.793-81.74 70.792-52.886 11.999-96.247-56.906-88.96-125.95 6.2453-55.986 42.778-107.6 122.04-125.24 93.905-20.216 219.11-42.363 278.52-71.967 24.424-10.786 41.801-19.897 46.459-26.466 30.349-31.595-14.361-83.255-1.1723-105.02 4.2877-5.0396 10.702-8.9583 19.796-11.625 111.92-20.411 122.31-125.03 135.31-135.18m-1057.1 45.726c80.989 25.34 99.048 134.44 111.87 208.97 1.4522 15.581 5.6262 28.313 12.111 38.448 38.911 60.81 137.75 57.265 212.95 38.466 21.637-4.6878 46.951-2.4801 73.26 3.9573 66.388 17.423 144.98 68.786 181.84 114.38 22.116 27.357 34.935 56.619 35.381 79.919-2.9438 32.733-31.397 62.171-86.054 75.273-54.657 13.102-99.156-57.541-91.693-128.56 6.2659-56.867 43.301-110.13 124.53-128.45 95.877-21.031 224.13-44.617 286.89-73.148 25.672-10.507 43.85-19.347 48.736-25.626 31.598-31.135-15.66-83.646-2.3394-105.94 4.0112-4.9267 10.149-8.7651 19.007-11.362 111.93-19.984 116.21-129.72 127.36-138.43m-1049.8 50.056c83.689 26.184 101.33 136.8 110.86 214.01 0.96819 16.127 4.6936 29.357 10.747 39.962 36.32 63.634 137.05 57.092 213.74 34.974 22.019-5.7415 47.882-4.3369 74.737 1.6022 67.651 15.956 146.5 66.506 181.99 112.47 21.295 27.576 32.899 57.613 31.889 82.382-4.2946 34.414-33.941 65.549-90.369 79.753-56.428 14.204-102.06-58.176-94.426-131.17 6.2864-57.747 43.824-112.66 127.03-131.66 97.848-21.846 229.14-46.872 295.26-74.329 26.92-10.229 45.899-18.798 51.013-24.787 32.846-30.676-16.96-84.038-3.5065-106.87 3.7348-4.8137 9.5968-8.5718 18.217-11.1 111.94-19.557 110.12-134.41 119.41-141.67m-1042.6 54.387c86.388 27.029 103.62 139.17 109.84 219.05 0.48421 16.673 3.7611 30.4 9.3826 41.476 33.729 66.459 136.35 56.918 214.54 31.482 22.402-6.7952 48.813-6.1938 76.215-0.75299 68.915 14.489 148.02 64.226 182.14 110.55 20.473 27.795 30.862 58.608 28.397 84.846-5.6454 36.095-36.484 68.926-94.684 84.233-58.199 15.307-104.97-58.812-97.159-133.78 6.307-58.627 44.348-115.18 129.53-134.87 99.82-22.661 234.15-49.126 303.63-75.509 28.168-9.95 47.948-18.248 53.29-23.947 34.095-30.216-18.259-84.429-4.6736-107.79 3.4583-4.7008 9.0443-8.3786 17.428-10.837 111.94-19.131 104.03-139.11 111.46-144.91m-1035.3 58.718c89.088 27.874 105.9 141.54 108.83 224.08 2.28e-4 17.218 2.8285 31.443 8.0183 42.99 31.138 69.283 135.65 56.745 215.33 27.99 22.784-7.849 49.744-8.0506 77.692-3.1081 70.179 13.021 149.54 61.946 182.29 108.64 19.652 28.014 28.826 59.602 24.905 87.31-6.9961 37.776-39.027 72.304-98.998 88.714-59.971 16.41-107.88-59.447-99.891-136.39 6.3276-59.507 44.871-117.71 132.02-138.07 101.79-23.475 239.17-51.381 312-76.69 29.416-9.6714 49.997-17.698 55.567-23.107 35.344-29.756-19.559-84.821-5.8408-108.72 3.1819-4.5878 8.4918-8.1854 16.639-10.574 111.95-18.704 97.935-143.8 103.51-148.15m-1028 63.048c91.788 28.718 108.19 143.91 107.82 229.12-0.48375 17.764 1.896 32.486 6.6539 44.504 28.548 72.107 134.95 56.572 216.12 24.497 23.167-8.9027 50.675-9.9075 79.169-5.4633 71.442 11.554 151.05 59.666 182.44 106.72 18.83 28.233 26.789 60.597 21.414 89.773-8.3469 39.457-41.571 75.681-103.31 93.194-61.742 17.513-110.79-60.083-102.62-139 6.3482-60.387 45.394-120.24 134.52-141.28 103.76-24.29 244.18-53.635 320.37-77.871 30.664-9.3927 52.046-17.148 57.844-22.268 36.592-29.296-20.858-85.212-7.0079-109.64 2.9054-4.4749 7.9394-7.9922 15.85-10.311 111.96-18.278 91.843-148.49 95.558-151.4m-1020.8 67.379c94.487 29.563 110.48 146.28 106.8 234.16-0.96774 18.31 0.96342 33.529 5.2896 46.018 25.957 74.932 134.25 56.399 216.91 21.005 23.55-9.9564 51.605-11.764 80.647-7.8184 72.706 10.087 152.57 57.386 182.59 104.81 18.009 28.452 24.753 61.592 17.922 92.237-9.6977 41.138-44.114 79.059-107.63 97.674-63.513 18.615-113.7-60.718-105.36-141.61 6.3687-61.267 45.917-122.77 137.02-144.49 105.73-25.105 249.2-55.89 328.74-79.052 31.912-9.114 54.096-16.599 60.121-21.428 37.841-28.836-22.158-85.603-8.175-110.56 2.6289-4.362 7.3869-7.7989 15.061-10.049 111.96-17.851 85.75-153.19 87.607-154.64m-1013.5 71.71c97.187 30.408 112.76 148.64 105.79 239.19-1.4517 18.855 0.0309 34.573 3.9252 47.532 23.366 77.756 133.56 56.226 217.7 17.513 23.932-11.01 52.536-13.621 82.124-10.174 73.97 8.6192 154.09 55.106 182.73 102.89 17.187 28.671 22.716 62.586 14.43 94.7-11.048 42.819-46.658 82.437-111.94 102.15-65.284 19.718-116.61-61.353-108.09-144.22 6.3893-62.147 46.441-125.3 139.51-147.7 107.71-25.92 254.21-58.144 337.11-80.232 33.161-8.8353 56.145-16.049 62.398-20.588 39.089-28.376-23.457-85.995-9.3421-111.49 2.3525-4.249 6.8344-7.6057 14.271-9.7859 111.97-17.425 79.657-157.88 79.657-157.88" fill="none" stroke="url(#linearGradient3595-6)" stroke-width=".74414px"/>
 <path d="m1056.2 78.285v552.8h-1151.7l9e-6 -555 576.98 424.23z" fill="#1b1e20"/>
 <g transform="matrix(4.0856 0 0 4.0856 -256.76 221.25)" opacity=".02" stroke-width=".6884">
  <g transform="translate(0 77.637)" opacity=".075" stroke-width=".6884">
   <path d="m-21.655-173.61 202.37 148.61 202.37-148.61v16.181l-202.37 148.61-202.37-148.61z" fill="url(#linearGradient21995-7)" stop-color="#000000" style="-inkscape-stroke:none;font-variation-settings:normal"/>
   <path d="m-21.655-193.8 202.37 148.61 202.37-148.61v22.391l-202.37 148.61-202.37-148.61z" fill="url(#linearGradient21997-5)"/>
   <path d="m-21.655-157.94 202.37 148.61 202.37-148.61v1.7412l-202.37 148.61-202.37-148.61z" fill="url(#linearGradient21999-5)" stop-color="#000000" style="-inkscape-stroke:none;font-variation-settings:normal;paint-order:stroke fill markers"/>
  </g>
  <g>
   <path d="m-21.656-22.398v20.919l191.38 140.54 10.981 23.178 10.981-23.178 191.38-140.54v-20.919l-202.37 148.61z" fill="url(#linearGradient22001-2)" stop-color="#000000" style="-inkscape-stroke:none;font-variation-settings:normal"/>
   <path d="m191.22 138.75-10.513 23.491 202.37-148.61v-15.771z" fill="url(#linearGradient22003-9)"/>
   <path d="m-21.656-2.1353v15.771l202.37 148.61-10.513-23.491z" fill="url(#linearGradient22005-1)"/>
  </g>
  <path d="m-21.656-2.1353v1.3126l190.92 140.2 11.449 22.866 11.449-22.866 190.92-140.2v-1.3126l-191.85 140.89-10.513 21.102-10.513-21.102-191.54-140.66z" color="#000000" fill="url(#linearGradient22007-2)" stroke-linecap="square" stroke-width=".18214" style="-inkscape-stroke:none"/>
  <g>
   <path d="m-21.655-41.581 202.37 148.61 202.37-148.61v21.473l-202.37 148.61-202.37-148.61z" fill="url(#linearGradient22009-0)" stop-color="#000000" style="-inkscape-stroke:none;font-variation-settings:normal"/>
   <path d="m-21.655-23.098 202.37 148.61 202.37-148.61v2.9889l-202.37 148.61-202.37-148.61z" fill="url(#linearGradient22011-9)" stop-color="#000000" style="-inkscape-stroke:none;font-variation-settings:normal;paint-order:stroke fill markers"/>
   <path d="m-21.655-62.914 202.37 148.61 202.37-148.61v22.391l-202.37 148.61-202.37-148.61z" fill="url(#linearGradient22013-6)"/>
   <path d="m-21.655-64.05 202.37 148.61 202.37-148.61v1.7412l-202.37 148.61-202.37-148.61z" fill="url(#linearGradient22015-0)" stop-color="#000000" style="-inkscape-stroke:none;font-variation-settings:normal;paint-order:stroke fill markers"/>
   <path d="m191.22 138.75-10.513 23.491 202.37-148.61v-15.771z" fill="url(#linearGradient22017-2)"/>
   <path d="m170.2 138.75 10.513 23.491-202.37-148.61-2e-6 -15.771z" fill="url(#linearGradient22019-6)"/>
  </g>
 </g>
 <g transform="matrix(2.8125 0 0 2.8125 -26.708 263)" opacity=".03">
  <path d="m-21.655-173.61 202.37 148.61 202.37-148.61v16.181l-202.37 148.61-202.37-148.61z" fill="url(#linearGradient21995-7)" stop-color="#000000" style="-inkscape-stroke:none;font-variation-settings:normal"/>
  <path d="m-21.655-193.8 202.37 148.61 202.37-148.61v22.391l-202.37 148.61-202.37-148.61z" fill="url(#linearGradient21997-5)"/>
  <path d="m-21.655-157.94 202.37 148.61 202.37-148.61v1.7412l-202.37 148.61-202.37-148.61z" fill="url(#linearGradient21999-5)" stop-color="#000000" style="-inkscape-stroke:none;font-variation-settings:normal;paint-order:stroke fill markers"/>
 </g>
 <path d="m511.11 434.89-29.568 66.069 569.15-417.96v-44.355z" fill="url(#linearGradient24593-1)"/>
 <path d="m-87.614 38.643v44.355l569.15 417.96-29.568-66.069z" fill="url(#linearGradient78325-8)"/>
 <path d="m-87.614 38.643v3.6916l536.95 394.31 32.202 64.31 32.202-64.31 536.95-394.31v-3.6916l-0.8808 0.64676-538.71 395.6-29.568 59.349-29.568-59.349-538.71-395.6z" color="#000000" fill="url(#linearGradient87990-7)" stroke-linecap="square" stroke-width=".74414" style="-inkscape-stroke:none"/>
 <g>
  <path d="m-87.614-72.3 569.15 417.96 569.15-417.96v60.392l-569.15 417.96-569.15-417.96z" fill="url(#linearGradient25753-9)" stop-color="#000000" style="-inkscape-stroke:none;font-variation-settings:normal"/>
  <path d="m-87.614-20.313 569.15 417.96 569.15-417.96v8.4062l-569.15 417.96-569.15-417.96z" fill="url(#linearGradient25219-2)" stop-color="#000000" style="-inkscape-stroke:none;font-variation-settings:normal;paint-order:stroke fill markers"/>
  <path d="m511.11 434.89-29.568 66.069 569.15-417.96v-44.355z" fill="url(#linearGradient14910-0)"/>
  <path d="m451.97 434.89 29.568 66.069-569.15-417.96-6e-6 -44.355z" fill="url(#linearGradient15720-2)"/>
  <path d="m285.9 316.63v8.8294l95.58 70.19v-8.8294zm0 13.294v13.958l95.58 70.19v-13.958zm95.58 88.428-95.58-70.19v5.9531l95.58 70.19z" fill="url(#linearGradient35006-37)"/>
  <path d="m945.39 123.86v8.8294l-95.58 70.19v-8.8294zm0 13.294v13.958l-95.58 70.19v-13.958zm-95.58 88.428 95.58-70.19v5.9531l-95.58 70.19z" fill="url(#linearGradient35006-3-5)"/>
  <path d="m481.54 348.64 569.64-416.4-0.484-4.532z" fill="#d0b2e4"/>
  <path d="m481.54 348.64-569.64-416.4 0.48398-4.532z" fill="#b2e3e4"/>
  <path d="m-87.614-132.3 569.15 417.96 569.15-417.96v62.975l-569.15 417.96-569.15-417.96z" fill="url(#linearGradient26562-9)"/>
 </g>
 <g transform="matrix(2.2893 0 0 2.2911 98.127 75.404)" fill="none" stop-color="#000000" stroke="#235dc6" stroke-width=".64985" style="-inkscape-stroke:none;font-variation-settings:normal;paint-order:stroke fill markers">
  <path d="m116.37 53.187v6.7346" stop-color="#000000" style="-inkscape-stroke:none;font-variation-settings:normal;paint-order:stroke fill markers"/>
  <path d="m122.49 57.678v8.7187" stop-color="#000000" style="-inkscape-stroke:none;font-variation-settings:normal;paint-order:stroke fill markers"/>
  <path d="m133.56 65.81v8.379" stop-color="#000000" style="-inkscape-stroke:none;font-variation-settings:normal;paint-order:stroke fill markers"/>
  <path d="m128.48 62.077v4.1961" stop-color="#000000" style="-inkscape-stroke:none;font-variation-settings:normal;paint-order:stroke fill markers"/>
  <circle cx="116.42" cy="61.028" r="1.21" stop-color="#000000" style="-inkscape-stroke:none;font-variation-settings:normal;paint-order:stroke fill markers"/>
  <circle cx="122.45" cy="66.901" r=".64061" stop-color="#000000" style="-inkscape-stroke:none;font-variation-settings:normal;paint-order:stroke fill markers"/>
  <circle cx="128.5" cy="67.357" r="1.21" stop-color="#000000" style="-inkscape-stroke:none;font-variation-settings:normal;paint-order:stroke fill markers"/>
  <circle cx="133.55" cy="75.222" r="1.21" stop-color="#000000" style="-inkscape-stroke:none;font-variation-settings:normal;paint-order:stroke fill markers"/>
 </g>
 <path d="m52.427-10.838v44.355l24.493 17.986v-44.355zm31.736 23.305v44.355l49.266 36.179v-44.356zm64.297 47.217 0.41131 44.657 30.899 22.69 0.0538-44.316zm42.727 31.377-0.57846 43.93 9.3279 6.8499v-44.356z" fill="url(#linearGradient34063-2)" stop-color="#000000" style="-inkscape-stroke:none;font-variation-settings:normal"/>
 <path d="m667.3 337.81v20.542l-24.493 17.986v-20.542zm-31.736 23.305v20.542l-49.266 36.179v-20.544zm-64.297 47.217-0.4113 20.845-30.899 22.69-0.0537-20.503zm-42.727 31.377 0.57847 20.118-9.3279 6.8499v-20.544z" fill="url(#linearGradient53858-2)" stop-color="#000000" style="-inkscape-stroke:none;font-variation-settings:normal"/>
 <g transform="matrix(2.8125 0 0 2.8125 -26.708 109.53)" opacity=".03">
  <path d="m-21.655-173.61 202.37 148.61 202.37-148.61v16.181l-202.37 148.61-202.37-148.61z" fill="url(#linearGradient21995-7)" stop-color="#000000" style="-inkscape-stroke:none;font-variation-settings:normal"/>
  <path d="m-21.655-193.8 202.37 148.61 202.37-148.61v22.391l-202.37 148.61-202.37-148.61z" fill="url(#linearGradient21997-5)"/>
  <path d="m-21.655-157.94 202.37 148.61 202.37-148.61v1.7412l-202.37 148.61-202.37-148.61z" fill="url(#linearGradient21999-5)" stop-color="#000000" style="-inkscape-stroke:none;font-variation-settings:normal;paint-order:stroke fill markers"/>
 </g>
 <path d="m257.53 129.37v48.958l70.56 51.817v-48.959z" fill="#7777e1" fill-opacity=".095564"/>
 <g>
  <path d="m307.48 236.17v20.736l174.06 128.27v-20.736zm0 25.2v8.0053l174.06 128.27v-8.0053z" fill="url(#linearGradient35392-8)"/>
  <path d="m-26.806 101.12v11.963l92.257 67.75v-11.964z" fill="url(#linearGradient37083-9)"/>
  <path d="m221.51 124.79v29.313l226.06 166.01v-29.317z" fill="url(#linearGradient37280-7)"/>
  <path d="m42.688 148.51v29.314l62.759 46.089v-9.9674zm74.681 74.19v9.9674l24.554 18.031v-9.9674zm30.494 22.393v9.9674l25.785 18.936v-9.9689zm43.869 32.216v9.9674l32.459 23.837v-9.9688zm42.085 30.905v9.9688l19.935 14.639v-9.9688zm27.862 20.46v9.9689l7.0708 5.193v-9.9688z" fill="url(#linearGradient37849-3)"/>
 </g>
 <g transform="matrix(2.2893 0 0 2.2911 170.2 129.44)" fill="none" stroke="#235dc6" stroke-width=".64985">
  <path d="m116.37 53.187v6.7346" stop-color="#000000" style="font-variation-settings:normal"/>
  <path d="m122.49 57.678v8.7187"/>
  <path d="m128.48 62.077v4.1961"/>
  <circle cx="116.42" cy="61.028" r="1.21" stop-color="#000000" style="font-variation-settings:normal;paint-order:stroke fill markers"/>
  <circle cx="122.45" cy="66.901" r=".64061" stop-color="#000000" style="font-variation-settings:normal;paint-order:stroke fill markers"/>
  <circle cx="128.5" cy="67.357" r="1.21" stop-color="#000000" style="font-variation-settings:normal;paint-order:stroke fill markers"/>
  <path d="m110.31 48.673v8.379"/>
  <circle cx="110.3" cy="58.084" r="1.21" stop-color="#000000" style="font-variation-settings:normal;paint-order:stroke fill markers"/>
 </g>
 <g>
  <path d="m-87.614-135.49 569.15 417.96 569.15-417.96v4.897l-569.15 417.96-569.15-417.96z" fill="url(#linearGradient69576-6)" stop-color="#000000" style="-inkscape-stroke:none;font-variation-settings:normal;paint-order:stroke fill markers"/>
  <path d="m668.17 187.03v44.355l-24.493 17.986v-44.355zm-31.736 23.305v44.355l-49.266 36.179v-44.356zm-64.297 47.217-0.4113 44.657-30.899 22.69-0.0537-44.316zm-42.727 31.377 0.57848 43.93-9.3279 6.8498v-44.356z" fill="url(#linearGradient53643-1)" stop-color="#000000" style="-inkscape-stroke:none;font-variation-settings:normal"/>
  <path d="m913.86-40.132v29.314l-62.759 46.089v-9.9674zm-74.681 74.19v9.9674l-24.554 18.031v-9.9674zm-30.494 22.393v9.9674l-25.785 18.936v-9.9689zm-43.869 32.216v9.9674l-32.459 23.837v-9.9688zm-42.085 30.905v9.9688l-19.935 14.639v-9.9688zm-27.862 20.46v9.9689l-7.0708 5.193v-9.9688z" fill="url(#linearGradient53697-2)"/>
  <path d="m865.15 41.99v29.313l-226.06 166.01v-29.317z" fill="url(#linearGradient53804-9)"/>
  <path d="m655.6 236.17v20.736l-174.06 128.27v-20.736zm0 25.2v8.0053l-174.06 128.27v-8.0053z" fill="url(#linearGradient5163-3)"/>
 </g>
</svg>
