<?xml version="1.0" encoding="UTF-8"?>
<!-- Created with Inkscape (http://www.inkscape.org/) -->
<svg width="400" height="255" version="1.1" viewBox="0 0 105.83 67.469" xmlns="http://www.w3.org/2000/svg" xmlns:xlink="http://www.w3.org/1999/xlink">
 <defs>
  <linearGradient id="linearGradient16905">
   <stop stop-color="#1b668f" offset="0"/>
   <stop stop-color="#121c94" offset=".5"/>
   <stop stop-color="#382279" offset="1"/>
  </linearGradient>
  <linearGradient id="linearGradient12915">
   <stop stop-color="#445feb" offset="0"/>
   <stop stop-color="#252fb5" offset=".5"/>
   <stop stop-color="#9b53c1" offset="1"/>
  </linearGradient>
  <linearGradient id="linearGradient78639">
   <stop stop-color="#2936ea" offset="0"/>
   <stop stop-color="#164593" offset="1"/>
  </linearGradient>
  <linearGradient id="linearGradient75480-3" x1="-21.655" x2="1378.4" y1="110.14" y2="110.14" gradientTransform="matrix(.08785 0 0 .08785 -7.0867 3.6439)" gradientUnits="userSpaceOnUse" xlink:href="#linearGradient16905"/>
  <linearGradient id="linearGradient3595-6" x1="-21.656" x2="383.08" y1="81.035" y2="81.035" gradientTransform="matrix(.33203 0 0 .33203 -7.0867 -9.1482e-6)" gradientUnits="userSpaceOnUse">
   <stop stop-color="#51d677" stop-opacity=".47843" offset="0"/>
   <stop stop-color="#eded84" stop-opacity=".32941" offset=".26488"/>
   <stop stop-color="#a9ebf6" stop-opacity=".19951" offset=".49538"/>
   <stop stop-color="#e9bf9d" stop-opacity=".35686" offset=".74191"/>
   <stop stop-color="#5138aa" stop-opacity=".52157" offset="1"/>
  </linearGradient>
  <linearGradient id="linearGradient21995-7" x1="-21.655" x2="383.08" y1="92.147" y2="92.147" gradientTransform="translate(0 -155.84)" gradientUnits="userSpaceOnUse" xlink:href="#linearGradient12915"/>
  <linearGradient id="linearGradient21997-5" x1="-21.655" x2="383.08" y1="99.556" y2="99.556" gradientTransform="translate(0 -189.92)" gradientUnits="userSpaceOnUse" xlink:href="#linearGradient12843-3"/>
  <linearGradient id="linearGradient12843-3">
   <stop stop-color="#3410ab" stop-opacity=".67526" offset="0"/>
   <stop stop-color="#169bd6" offset=".5"/>
   <stop stop-color="#0940a2" stop-opacity=".56984" offset="1"/>
  </linearGradient>
  <linearGradient id="linearGradient21999-5" x1="-24.528" x2="386.16" y1="-24.045" y2="-24.045" gradientTransform="translate(0 -138.44)" gradientUnits="userSpaceOnUse" xlink:href="#linearGradient26557-6"/>
  <linearGradient id="linearGradient26557-6">
   <stop stop-color="#6a5e19" offset="0"/>
   <stop stop-color="#85751e" stop-opacity=".98824" offset=".14669"/>
   <stop stop-color="#8c7b20" stop-opacity=".96863" offset=".30531"/>
   <stop stop-color="#bda62c" stop-opacity=".95686" offset=".51079"/>
   <stop stop-color="#82721e" stop-opacity=".94902" offset=".6231"/>
   <stop stop-color="#968623" stop-opacity=".99608" offset=".83541"/>
   <stop stop-color="#4e4412" stop-opacity=".92157" offset="1"/>
  </linearGradient>
  <linearGradient id="linearGradient22001-2" x1="-21.655" x2="1378.4" y1="110.14" y2="110.14" gradientTransform="matrix(.26458 0 0 .26458 0 -4.9003)" gradientUnits="userSpaceOnUse" xlink:href="#linearGradient16905"/>
  <linearGradient id="linearGradient22003-9" x1="181.04" x2="361.42" y1="110.14" y2="110.14" gradientTransform="translate(0 -18.521)" gradientUnits="userSpaceOnUse" xlink:href="#linearGradient78639"/>
  <linearGradient id="linearGradient22005-1" x1="-21.655" x2="183.99" y1="110.14" y2="110.14" gradientTransform="translate(0 -18.521)" gradientUnits="userSpaceOnUse">
   <stop stop-color="#2f38a6" offset="0"/>
   <stop stop-color="#3d33eb" offset="1"/>
  </linearGradient>
  <linearGradient id="linearGradient22007-2" x1="-82.44" x2="1448.4" y1="345.52" y2="345.52" gradientTransform="scale(.26458)" gradientUnits="userSpaceOnUse" xlink:href="#linearGradient1294-7"/>
  <linearGradient id="linearGradient1294-7">
   <stop stop-color="#6a5e19" offset="0"/>
   <stop stop-color="#d1b832" stop-opacity=".98824" offset=".14669"/>
   <stop stop-color="#8c7b20" stop-opacity=".96863" offset=".30531"/>
   <stop stop-color="#dbc865" stop-opacity=".95686" offset=".51079"/>
   <stop stop-color="#82721e" stop-opacity=".94902" offset=".6231"/>
   <stop stop-color="#968623" stop-opacity=".99608" offset=".83541"/>
   <stop stop-color="#cfb530" stop-opacity=".92157" offset="1"/>
  </linearGradient>
  <linearGradient id="linearGradient22009-0" x1="-21.655" x2="383.08" y1="92.147" y2="92.147" gradientTransform="translate(0 -18.521)" gradientUnits="userSpaceOnUse">
   <stop stop-color="#445feb" offset="0"/>
   <stop stop-color="#4a55ed" offset=".5"/>
   <stop stop-color="#9b53c1" offset="1"/>
  </linearGradient>
  <linearGradient id="linearGradient22011-9" x1="-24.528" x2="386.16" y1="-24.045" y2="-24.045" gradientTransform="translate(0 -2.3527)" gradientUnits="userSpaceOnUse" xlink:href="#linearGradient1056-3"/>
  <linearGradient id="linearGradient1056-3">
   <stop stop-color="#6a5e19" offset="0"/>
   <stop stop-color="#85751e" stop-opacity=".98824" offset=".14669"/>
   <stop stop-color="#a38f26" stop-opacity=".96863" offset=".30531"/>
   <stop stop-color="#f5d737" stop-opacity=".95686" offset=".51079"/>
   <stop stop-color="#968623" stop-opacity=".99608" offset=".83541"/>
   <stop stop-color="#4e4412" stop-opacity=".92157" offset="1"/>
  </linearGradient>
  <linearGradient id="linearGradient22013-6" x1="-21.655" x2="383.08" y1="99.556" y2="99.556" gradientTransform="translate(0 -59.037)" gradientUnits="userSpaceOnUse">
   <stop stop-color="#3410ab" stop-opacity=".67526" offset="0"/>
   <stop stop-color="#2936e9" offset=".5"/>
   <stop stop-color="#0940a2" stop-opacity=".56984" offset="1"/>
  </linearGradient>
  <linearGradient id="linearGradient22015-0" x1="-24.528" x2="386.16" y1="-24.045" y2="-24.045" gradientTransform="translate(0 -44.553)" gradientUnits="userSpaceOnUse" xlink:href="#linearGradient17531-6"/>
  <linearGradient id="linearGradient17531-6">
   <stop stop-color="#6a5e19" offset="0"/>
   <stop stop-color="#85751e" stop-opacity=".98824" offset=".14669"/>
   <stop stop-color="#8c7b20" stop-opacity=".96863" offset=".30531"/>
   <stop stop-color="#d1b637" stop-opacity=".95686" offset=".51079"/>
   <stop stop-color="#82721e" stop-opacity=".94902" offset=".6231"/>
   <stop stop-color="#968623" stop-opacity=".99608" offset=".83541"/>
   <stop stop-color="#4e4412" stop-opacity=".92157" offset="1"/>
  </linearGradient>
  <linearGradient id="linearGradient22017-2" x1="253.56" x2="239.42" y1="147.01" y2="130.45" gradientTransform="translate(0 -18.521)" gradientUnits="userSpaceOnUse">
   <stop stop-color="#28ead8" stop-opacity=".58819" offset="0"/>
   <stop stop-color="#164593" stop-opacity=".023098" offset="1"/>
  </linearGradient>
  <linearGradient id="linearGradient22019-6" x1="251.13" x2="241.25" y1="138.13" y2="126.04" gradientTransform="matrix(-1 0 0 1 361.42 -18.521)" gradientUnits="userSpaceOnUse">
   <stop stop-color="#dc29ea" stop-opacity=".68736" offset="0"/>
   <stop stop-color="#164593" stop-opacity=".023098" offset="1"/>
  </linearGradient>
  <linearGradient id="linearGradient24593-1" x1="181.04" x2="361.42" y1="110.14" y2="110.14" gradientTransform="matrix(.33203 0 0 .33203 -7.0867 -.87851)" gradientUnits="userSpaceOnUse" xlink:href="#linearGradient78639"/>
  <linearGradient id="linearGradient78325-8" x1="-21.655" x2="183.99" y1="110.14" y2="110.14" gradientTransform="matrix(.33203 0 0 .33203 -7.0867 -.87851)" gradientUnits="userSpaceOnUse">
   <stop stop-color="#2e3476" offset="0"/>
   <stop stop-color="#3d33eb" offset="1"/>
  </linearGradient>
  <linearGradient id="linearGradient87990-7" x1="-82.44" x2="1448.4" y1="345.52" y2="345.52" gradientTransform="matrix(.08785 0 0 .08785 -7.0867 5.271)" gradientUnits="userSpaceOnUse" xlink:href="#linearGradient1294-7"/>
  <linearGradient id="linearGradient25753-9" x1="-21.655" x2="383.08" y1="92.147" y2="92.147" gradientTransform="matrix(.33203 0 0 .33203 -7.0867 -.87851)" gradientUnits="userSpaceOnUse">
   <stop stop-color="#4465eb" offset="0"/>
   <stop stop-color="#46a7e1" offset=".5"/>
   <stop stop-color="#6b50c1" offset="1"/>
  </linearGradient>
  <linearGradient id="linearGradient25219-2" x1="-24.528" x2="386.16" y1="-24.045" y2="-24.045" gradientTransform="matrix(.33203 0 0 .33203 -7.0867 4.4898)" gradientUnits="userSpaceOnUse" xlink:href="#linearGradient1056-3"/>
  <linearGradient id="linearGradient14910-0" x1="253.56" x2="239.42" y1="147.01" y2="130.45" gradientTransform="matrix(.33203 0 0 .33203 -7.0867 -.87851)" gradientUnits="userSpaceOnUse">
   <stop stop-color="#e06fea" stop-opacity=".39011" offset="0"/>
   <stop stop-color="#164593" stop-opacity=".023098" offset="1"/>
  </linearGradient>
  <linearGradient id="linearGradient15720-2" x1="251.13" x2="241.25" y1="138.13" y2="126.04" gradientTransform="matrix(-.33203 0 0 .33203 112.92 -.87851)" gradientUnits="userSpaceOnUse">
   <stop stop-color="#dc29ea" stop-opacity=".18321" offset="0"/>
   <stop stop-color="#164593" stop-opacity=".023098" offset="1"/>
  </linearGradient>
  <linearGradient id="linearGradient35006-37" x1="542.26" x2="409.86" y1="531.52" y2="437.69" gradientTransform="matrix(.08785 0 0 .08785 -7.0867 -9.1482e-6)" gradientUnits="userSpaceOnUse">
   <stop stop-color="#9e80dc" stop-opacity=".08" offset="0"/>
   <stop stop-color="#9e80dc" stop-opacity="0" offset="1"/>
  </linearGradient>
  <linearGradient id="linearGradient35006-3-5" x1="542.26" x2="409.86" y1="531.52" y2="437.69" gradientTransform="matrix(-.08785 0 0 .08785 144.58 -22.758)" gradientUnits="userSpaceOnUse">
   <stop stop-color="#9e80dc" stop-opacity=".12323" offset="0"/>
   <stop stop-color="#9e80dc" stop-opacity="0" offset="1"/>
  </linearGradient>
  <linearGradient id="linearGradient26562-9" x1="-21.655" x2="383.08" y1="99.556" y2="99.556" gradientTransform="matrix(.33203 0 0 .33203 -7.0867 -14.331)" gradientUnits="userSpaceOnUse">
   <stop stop-color="#0031b6" offset="0"/>
   <stop stop-color="#255cc7" offset=".5"/>
   <stop stop-color="#3d3dd3" offset="1"/>
  </linearGradient>
  <linearGradient id="linearGradient34063-2" x1="79.735" x2="21.187" y1="42.158" y2="1.0037" gradientTransform="matrix(.33203 0 0 .33203 -7.0867 -9.1482e-6)" gradientUnits="userSpaceOnUse">
   <stop stop-color="#9e7fdc" stop-opacity=".1" offset="0"/>
   <stop stop-color="#9e7fdc" stop-opacity="0" offset="1"/>
  </linearGradient>
  <linearGradient id="linearGradient53858-2" x1="79.735" x2="21.187" y1="42.158" y2="1.0037" gradientTransform="matrix(-.33203 0 0 .33203 84.188 38.348)" gradientUnits="userSpaceOnUse">
   <stop stop-color="#7fdcdb" stop-opacity=".07" offset="0"/>
   <stop stop-color="#9e7fdc" stop-opacity="0" offset="1"/>
  </linearGradient>
  <linearGradient id="linearGradient35392-8" x1="654.09" x2="409.86" y1="615.36" y2="437.69" gradientTransform="matrix(.08785 0 0 .08785 -4.5391 -9.499)" gradientUnits="userSpaceOnUse">
   <stop stop-color="#b1cdef" stop-opacity=".26275" offset="0"/>
   <stop stop-color="#9e80dc" stop-opacity="0" offset="1"/>
  </linearGradient>
  <linearGradient id="linearGradient37083-9" x1="32.688" x2="-4.3074" y1="61.359" y2="35.59" gradientTransform="matrix(.33203 0 0 .33203 -7.0867 -9.1482e-6)" gradientUnits="userSpaceOnUse">
   <stop stop-color="#a9e3ed" stop-opacity=".05" offset="0"/>
   <stop stop-color="#a9e3ed" stop-opacity="0" offset="1"/>
  </linearGradient>
  <linearGradient id="linearGradient37280-7" x1="32.688" x2="-4.3074" y1="61.359" y2="35.59" gradientTransform="matrix(.81359 0 0 .81359 22.245 -14.519)" gradientUnits="userSpaceOnUse">
   <stop stop-color="#60cbde" stop-opacity=".059582" offset="0"/>
   <stop stop-color="#a9e3ed" stop-opacity="0" offset="1"/>
  </linearGradient>
  <linearGradient id="linearGradient37849-3" x1="32.688" x2="-4.3074" y1="61.359" y2="35.59" gradientTransform="matrix(.81359 0 0 .81359 1.1343 -11.718)" gradientUnits="userSpaceOnUse">
   <stop stop-color="#84b0b8" stop-opacity=".05" offset="0"/>
   <stop stop-color="#a9e3ed" stop-opacity="0" offset="1"/>
  </linearGradient>
  <linearGradient id="linearGradient69576-6" x1="-24.528" x2="386.16" y1="-24.045" y2="-24.045" gradientTransform="matrix(.33203 0 0 .33203 -7.0867 -9.522)" gradientUnits="userSpaceOnUse" xlink:href="#linearGradient17531-6"/>
  <linearGradient id="linearGradient53643-1" x1="79.735" x2="21.187" y1="42.158" y2="1.0037" gradientTransform="matrix(-.33203 0 0 .33203 84.291 23.36)" gradientUnits="userSpaceOnUse">
   <stop stop-color="#dc7fdc" stop-opacity=".08" offset="0"/>
   <stop stop-color="#9e7fdc" stop-opacity="0" offset="1"/>
  </linearGradient>
  <linearGradient id="linearGradient53697-2" x1="32.688" x2="-4.3074" y1="61.359" y2="35.59" gradientTransform="matrix(-.81359 0 0 .81359 103.92 -33.988)" gradientUnits="userSpaceOnUse">
   <stop stop-color="#a9e3ed" stop-opacity=".06" offset="0"/>
   <stop stop-color="#a9e3ed" stop-opacity="0" offset="1"/>
  </linearGradient>
  <linearGradient id="linearGradient53804-9" x1="32.688" x2="-4.3074" y1="61.359" y2="35.59" gradientTransform="matrix(-.81359 0 0 .81359 98.174 -24.293)" gradientUnits="userSpaceOnUse">
   <stop stop-color="#dd83f2" stop-opacity=".12549" offset="0"/>
   <stop stop-color="#a9e3ed" stop-opacity="0" offset="1"/>
  </linearGradient>
  <linearGradient id="linearGradient5163-3" x1="654.09" x2="409.86" y1="615.36" y2="437.69" gradientTransform="matrix(-.08785 0 0 .08785 110.37 -9.499)" gradientUnits="userSpaceOnUse">
   <stop stop-color="#b1cdef" stop-opacity=".14678" offset="0"/>
   <stop stop-color="#9e80dc" stop-opacity="0" offset="1"/>
  </linearGradient>
 </defs>
 <rect width="105.83" height="67.469" fill="#1b1e20" stop-color="#000000" style="paint-order:stroke fill markers"/>
 <path d="m-14.277-2.1659v6.9458l63.546 46.665 3.6461 7.696 3.6461-7.696 63.546-46.665v-6.9458l-67.192 49.343z" fill="url(#linearGradient75480-3)" stop-color="#000000" style="-inkscape-stroke:none;font-variation-settings:normal"/>
 <path d="m-20.818 5.2599s3.5983 7.4837 16.797 6.8322c1.8855-0.09307 3.967-0.35216 6.2619-0.82282 13.769-2.8239 18.737 7.3737 22.335 16.909 1.1993 3.1786 2.2463 6.2836 3.4164 8.8083 3.3617 7.2537 11.739 16.196 20.94 20.286 5.5203 2.4542 11.337 3.1616 16.544 0.70944 4.4364-2.0893 5.3014-4.6228 5.1217-6.9815-0.1797-2.3587-1.404-4.5427-1.1462-5.9331 0.66686-3.5965 3.2587-4.043 5.8605-3.8013 4.3364 0.40278 8.7004 2.7172 4.226-4.4537-1.3899-2.2275-2.0801-4.2312-2.3107-5.9993-0.69179-5.3043 2.7534-8.4885 3.8574-9.2346 1.4527-0.98162 3.1549-1.7191 5.0391-2.272 13.189-3.87 35.299 1.3078 43.194-4.8597m-149.66-9.4285c0.31871 0.099717 3.8681 7.7633 16.677 7.4268 1.8284-0.02865 3.8569-0.22901 6.1009-0.64409 13.464-2.4905 18.655 7.3533 22.429 16.497 1.2444 3.0542 2.3562 6.0644 3.5908 8.5303 3.5109 7.0805 11.919 15.927 20.957 20.06 5.4233 2.48 11.096 3.279 16.131 1.0003 4.277-1.8909 5.0011-4.224 4.6123-6.4526-0.38879-2.2286-1.7474-4.6178-1.4689-6.2413 0.66929-3.7004 3.3205-4.3416 6.1552-4.1801 4.5691 0.3066 9.2923 2.4511 5.2141-4.5931-1.2425-2.1946-1.8382-4.1663-2.0419-5.9001-0.54439-5.2501 2.6-8.5348 3.7196-9.3436 1.42-0.96828 3.0896-1.6963 4.9459-2.241 13.19-3.8197 34.58 0.75376 42.256-5.2425m-148.8-8.9172c0.63742 0.19943 4.1379 8.0429 16.558 8.0215 1.7713 0.03577 3.7468-0.10585 5.9398-0.46536 13.158-2.1571 18.572 7.3328 22.522 16.085 1.2896 2.9298 2.4661 5.8452 3.7652 8.2522 3.6601 6.9073 12.098 15.658 20.975 19.834 5.3263 2.5059 10.856 3.3964 15.719 1.2911 4.1175-1.6924 4.7008-3.8253 4.103-5.9237-0.59789-2.0984-2.0908-4.6928-1.7915-6.5494 0.67172-3.8043 3.3823-4.6402 6.45-4.5589 4.8019 0.21041 9.8843 2.1849 6.2022-4.7325-1.0952-2.1617-1.5963-4.1014-1.7731-5.801-0.39699-5.1958 2.4466-8.581 3.5818-9.4527 1.3874-0.95495 3.0244-1.6735 4.8527-2.21 13.191-3.7693 33.86 0.19969 41.317-5.6252m-147.94-8.406c0.95612 0.29915 4.4078 8.3224 16.438 8.6161 1.7141 0.10018 3.6367 0.01731 5.7787-0.28663 12.852-1.8236 18.49 7.3124 22.616 15.673 1.3348 2.8054 2.576 5.626 3.9396 7.9742 3.8093 6.734 12.277 15.389 20.993 19.608 5.2293 2.5317 10.615 3.5139 15.307 1.582 3.958-1.494 4.4006-3.4265 3.5936-5.3947-0.80699-1.9682-2.4342-4.7678-2.1141-6.8575 0.67414-3.9082 3.444-4.9388 6.7447-4.9376 5.0346 0.11422 10.476 1.9188 7.1903-4.8719-0.9478-2.1288-1.3544-4.0365-1.5043-5.7019-0.24958-5.1415 2.2932-8.6272 3.444-9.5618 1.3548-0.94162 2.9592-1.6507 4.7595-2.1789 13.192-3.719 33.141-0.35438 40.378-6.008m-147.09-7.8947c1.2748 0.39887 4.6776 8.602 16.318 9.2107 1.657 0.1646 3.5267 0.14046 5.6177-0.1079 12.546-1.4902 18.407 7.292 22.709 15.26 1.38 2.681 2.6859 5.4068 4.114 7.6962 3.9585 6.5608 12.456 15.119 21.01 19.382 5.1323 2.5576 10.375 3.6313 14.895 1.8728 3.7986-1.2955 4.1003-3.0278 3.0842-4.8658s-2.7776-4.8428-2.4367-7.1656c0.67657-4.0121 3.5058-5.2374 7.0394-5.3164 5.2674 0.01803 11.068 1.6526 8.1785-5.0113-0.80045-2.0959-1.1125-3.9716-1.2355-5.6028-0.10218-5.0872 2.1398-8.6734 3.3062-9.6709 1.3221-0.92829 2.894-1.6279 4.6664-2.1479 13.193-3.6686 32.422-0.90845 39.44-6.3907m-146.23-7.3834c1.5935 0.49858 4.9474 8.8816 16.199 9.8053 1.5999 0.22902 3.4166 0.26362 5.4566 0.07082 12.24-1.1568 18.325 7.2715 22.803 14.848 1.4251 2.5566 2.7958 5.1876 4.2885 7.4181 4.1077 6.3876 12.636 14.85 21.028 19.156 5.0354 2.5834 10.135 3.7487 14.482 2.1637 3.6391-1.0971 3.8-2.6291 2.5749-4.3369-1.2252-1.7078-3.121-4.9178-2.7594-7.4738 0.679-4.116 3.5676-5.536 7.3341-5.6952 5.5001-0.07816 11.66 1.3865 9.1666-5.1507-0.6531-2.063-0.87063-3.9066-0.96667-5.5036 0.04522-5.0329 1.9864-8.7196 3.1685-9.78 1.2895-0.91495 2.8287-1.6051 4.5732-2.1169 13.194-3.6182 31.702-1.4625 38.501-6.7735m-145.37-6.8722c1.9122 0.5983 5.2173 9.1612 16.079 10.4 1.5427 0.29344 3.3065 0.38678 5.2955 0.24955 11.934-0.82335 18.242 7.2511 22.896 14.436 1.4703 2.4322 2.9056 4.9683 4.4629 7.1401 4.2569 6.2144 12.815 14.581 21.045 18.93 4.9384 2.6093 9.8942 3.8661 14.07 2.4545 3.4796-0.8986 3.4998-2.2303 2.0655-3.8079-1.4343-1.5776-3.4644-4.9928-3.082-7.7819 0.68143-4.2199 3.6294-5.8346 7.6288-6.0739 5.7329-0.17434 12.252 1.1203 10.155-5.2901-0.50575-2.0301-0.62874-3.8417-0.69786-5.4045 0.19263-4.9786 1.833-8.7658 3.0307-9.8891 1.2569-0.90162 2.7635-1.5823 4.48-2.0859 13.194-3.5679 30.983-2.0166 37.562-7.1562m-144.52-6.3609c2.231 0.69802 5.4871 9.4407 15.959 10.995 1.4856 0.35786 3.1964 0.50994 5.1344 0.42828 11.628-0.48992 18.16 7.2306 22.99 14.024 1.5155 2.3078 3.0155 4.7491 4.6373 6.862 4.4061 6.0411 12.994 14.312 21.063 18.704 4.8414 2.6351 9.6538 3.9835 13.658 2.7454 3.3202-0.70014 3.1995-1.8316 1.5561-3.279-1.6434-1.4475-3.8078-5.0678-3.4046-8.09 0.68386-4.3238 3.6911-6.1332 7.9235-6.4527 5.9656-0.27053 12.844 0.85416 11.143-5.4295-0.3584-1.9972-0.38684-3.7768-0.42905-5.3054 0.34003-4.9243 1.6795-8.812 2.8929-9.9982 1.2242-0.88829 2.6983-1.5594 4.3868-2.0549 13.195-3.5175 30.264-2.5706 36.624-7.539m-143.66-5.8496c2.5497 0.79774 5.7569 9.7203 15.84 11.589 1.4285 0.42228 3.0863 0.63309 4.9734 0.60701 11.323-0.15649 18.077 7.2102 23.083 13.611 1.5606 2.1834 3.1254 4.5299 4.8117 6.584 4.5553 5.8679 13.173 14.043 21.081 18.478 4.7444 2.661 9.4134 4.1009 13.246 3.0362 3.1607-0.50169 2.8992-1.4328 1.0468-2.7501-1.8525-1.3173-4.1512-5.1428-3.7272-8.3981 0.68629-4.4277 3.7529-6.4318 8.2182-6.8315 6.1984-0.36672 13.436 0.58801 12.131-5.5688-0.21104-1.9643-0.14494-3.7119-0.16024-5.2062 0.48744-4.87 1.5261-8.8582 2.7551-10.107 1.1916-0.87495 2.6331-1.5366 4.2937-2.0238 13.196-3.4672 29.544-3.1247 35.685-7.9217m-142.8-5.3384c2.8684 0.89745 6.0268 9.9999 15.72 12.184 1.3713 0.48669 2.9762 0.75625 4.8123 0.78574 11.017 0.17694 17.995 7.1897 23.177 13.199 1.6058 2.059 3.2353 4.3107 4.9861 6.306 4.7044 5.6947 13.352 13.773 21.098 18.252 4.6475 2.6868 9.173 4.2184 12.834 3.3271 3.0012-0.30323 2.599-1.0341 0.53741-2.2212-2.0616-1.1871-4.4946-5.2178-4.0498-8.7062 0.68872-4.5316 3.8147-6.7304 8.5129-7.2102 6.4311-0.46291 14.028 0.32185 13.119-5.7082-0.06369-1.9314 0.09696-3.647 0.10857-5.1071 0.63484-4.8158 1.3727-8.9045 2.6173-10.216 1.1589-0.86162 2.5678-1.5138 4.2005-1.9928 13.197-3.4168 28.825-3.6788 34.747-8.3045m-141.94-4.8271c3.1871 0.99717 6.2966 10.279 15.6 12.778 1.3142 0.55111 2.8661 0.87941 4.6512 0.96447 10.711 0.51037 17.912 7.1693 23.27 12.787 1.651 1.9346 3.3452 4.0915 5.1605 6.0279 4.8536 5.5215 13.532 13.504 21.116 18.025 4.5505 2.7127 8.9326 4.3358 12.421 3.6179 2.8418-0.10478 2.2987-0.63531 0.02805-1.6922s-4.838-5.2928-4.3725-9.0144c0.69115-4.6355 3.8765-7.029 8.8077-7.589 6.6639-0.5591 14.62 0.0557 14.107-5.8476 0.08366-1.8985 0.33886-3.5821 0.37738-5.008 0.78224-4.7615 1.2193-8.9507 2.4795-10.325 1.1263-0.84829 2.5026-1.491 4.1073-1.9618 13.198-3.3664 28.106-4.2329 33.808-8.6872m-141.09-4.3158c3.5058 1.0969 6.5664 10.559 15.481 13.373 1.257 0.61553 2.756 1.0026 4.4902 1.1432 10.405 0.8438 17.83 7.1488 23.364 12.374 1.6961 1.8102 3.4551 3.8723 5.3349 5.7499 5.0028 5.3482 13.711 13.235 21.133 17.799 4.4535 2.7385 8.6921 4.4532 12.009 3.9088 2.6823 0.09368 1.9984-0.23656-0.48132-1.1633-2.4798-0.92673-5.1814-5.3679-4.6951-9.3225 0.69357-4.7394 3.9382-7.3276 9.1024-7.9677 6.8966-0.65528 15.212-0.21045 15.095-5.987 0.23101-1.8656 0.58075-3.5172 0.64619-4.9088 0.92965-4.7072 1.0659-8.9969 2.3417-10.435 1.0937-0.83495 2.4374-1.4682 4.0142-1.9308 13.198-3.3161 27.387-4.7869 32.869-9.0699m-140.23-3.8046c3.8245 1.1966 6.8362 10.839 15.361 13.968 1.1999 0.67995 2.6459 1.1257 4.3291 1.3219 10.099 1.1772 17.747 7.1284 23.457 11.962 1.7413 1.6858 3.565 3.6531 5.5093 5.4719 5.152 5.175 13.89 12.966 21.151 17.573 4.3565 2.7644 8.4517 4.5706 11.597 4.1996 2.5228 0.29213 1.6982 0.16219-0.99068-0.63436-2.6889-0.79655-5.5248-5.4429-5.0177-9.6306 0.696-4.8433 4-7.6262 9.3971-8.3465 7.1294-0.75147 15.804-0.4766 16.083-6.1264 0.37836-1.8327 0.82265-3.4523 0.915-4.8097 1.077-4.6529 0.91251-9.0431 2.204-10.544 1.061-0.82162 2.3722-1.4454 3.921-1.8998 13.199-3.2657 26.667-5.341 31.931-9.4527m-139.37-3.2933c4.1432 1.2963 7.1061 11.118 15.241 14.562 1.1428 0.74437 2.5358 1.2489 4.168 1.5007 9.7933 1.5107 17.665 7.108 23.551 11.55 1.7865 1.5614 3.6748 3.4338 5.6838 5.1938 5.3012 5.0018 14.069 12.697 21.168 17.347 4.2595 2.7902 8.2113 4.688 11.185 4.4905 2.3634 0.49059 1.3979 0.56094-1.5-0.10543-2.898-0.66637-5.8682-5.5179-5.3403-9.9387 0.69843-4.9472 4.0618-7.9248 9.6918-8.7253 7.3621-0.84766 16.396-0.74276 17.072-6.2658 0.52572-1.7998 1.0645-3.3874 1.1838-4.7106 1.2245-4.5986 0.75911-9.0893 2.0662-10.653 1.0284-0.80829 2.307-1.4226 3.8278-1.8687 13.2-3.2154 25.948-5.8951 30.992-9.8354m-138.51-2.7821c4.4619 1.396 7.3759 11.398 15.122 15.157 1.0856 0.80878 2.4257 1.372 4.0069 1.6794 9.4874 1.8441 17.582 7.0875 23.644 11.138 1.8316 1.437 3.7847 3.2146 5.8582 4.9158 5.4504 4.8285 14.248 12.428 21.186 17.121 4.1626 2.8161 7.9709 4.8055 10.772 4.7813 2.2039 0.68904 1.0976 0.95968-2.0094 0.4235-3.1071-0.53618-6.2116-5.5929-5.663-10.247 0.70086-5.0511 4.1236-8.2234 9.9865-9.104 7.5948-0.94385 16.988-1.0089 18.06-6.4052 0.67307-1.7669 1.3064-3.3225 1.4526-4.6115 1.3719-4.5443 0.6057-9.1355 1.9284-10.762 0.99575-0.79495 2.2417-1.3998 3.7346-1.8377 13.201-3.165 25.229-6.4491 30.054-10.218m-137.66-2.2708c4.7806 1.4958 7.6457 11.677 15.002 15.751 1.0285 0.8732 2.3156 1.4952 3.8459 1.8581 9.1816 2.1775 17.5 7.0671 23.738 10.725 1.8768 1.3126 3.8946 2.9954 6.0326 4.6377 5.5996 4.6553 14.428 12.158 21.204 16.895 4.0656 2.8419 7.7305 4.9229 10.36 5.0722 2.0444 0.8875 0.79738 1.3584-2.5188 0.95243-3.3161-0.406-6.555-5.6679-5.9856-10.555 0.70329-5.155 4.1853-8.522 10.281-9.4828 7.8276-1.04 17.58-1.2751 19.048-6.5446 0.82042-1.734 1.5483-3.2576 1.7214-4.5123 1.5193-4.49 0.45229-9.1817 1.7906-10.871 0.96312-0.78162 2.1765-1.377 3.6415-1.8067 13.202-3.1146 24.509-7.0032 29.115-10.601m-136.8-1.7595c5.0993 1.5955 7.9156 11.957 14.882 16.346 0.97136 0.93762 2.2055 1.6184 3.6848 2.0368 8.8757 2.5109 17.417 7.0466 23.831 10.313 1.922 1.1882 4.0045 2.7762 6.207 4.3597 5.7488 4.4821 14.607 11.889 21.221 16.669 3.9686 2.8678 7.4901 5.0403 9.948 5.363 1.885 1.0859 0.49711 1.7572-3.0281 1.4814-3.5252-0.27582-6.8984-5.7429-6.3082-10.863 0.70572-5.2589 4.2471-8.8206 10.576-9.8616 8.0603-1.1362 18.172-1.5412 20.036-6.684 0.96777-1.7011 1.7902-3.1927 1.9902-4.4132 1.6667-4.4357 0.29889-9.228 1.6528-10.98 0.93048-0.76829 2.1113-1.3541 3.5483-1.7757 13.202-3.0643 23.79-7.5573 28.176-10.984m-135.94-1.2483c5.418 1.6952 8.1854 12.236 14.763 16.941 0.91422 1.002 2.0954 1.7415 3.5237 2.2156 8.5698 2.8444 17.335 7.0262 23.925 9.9008 1.9671 1.0638 4.1144 2.557 6.3814 4.0817 5.898 4.3089 14.786 11.62 21.239 16.443 3.8716 2.8936 7.2497 5.1577 9.5358 5.6538 1.7255 1.2844 0.19684 2.1559-3.5375 2.0103-3.7343-0.14564-7.2418-5.8179-6.6308-11.171 0.70815-5.3628 4.3089-9.1192 10.871-10.24 8.2931-1.2324 18.764-1.8074 21.024-6.8234 1.1151-1.6682 2.0321-3.1278 2.259-4.3141 1.8141-4.3815 0.14548-9.2742 1.515-11.089 0.89784-0.75495 2.0461-1.3313 3.4551-1.7447 13.203-3.0139 23.071-8.1113 27.238-11.366m-135.08-0.737c5.7367 1.7949 8.4552 12.516 14.643 17.535 0.85708 1.0665 1.9853 1.8647 3.3627 2.3943 8.264 3.1778 17.252 7.0058 24.018 9.4885 2.0123 0.93938 4.2243 2.3378 6.5558 3.8036 6.0472 4.1356 14.965 11.351 21.256 16.217 3.7747 2.9195 7.0093 5.2751 9.1236 5.9447 1.566 1.4829-0.10342 2.5547-4.0469 2.5392-3.9434-0.01546-7.5852-5.8929-6.9534-11.479 0.71058-5.4667 4.3707-9.4178 11.165-10.619 8.5258-1.3286 19.356-2.0735 22.012-6.9628 1.2625-1.6353 2.274-3.0629 2.5279-4.2149 1.9615-4.3272-0.0079-9.3204 1.3772-11.198 0.8652-0.74162 1.9808-1.3085 3.3619-1.7136 13.204-2.9636 22.351-8.6654 26.299-11.749m-134.23-0.22573c6.0555 1.8946 8.7251 12.796 14.523 18.13 0.79995 1.1309 1.8752 1.9878 3.2016 2.573 7.9581 3.5112 17.17 6.9853 24.112 9.0762 2.0575 0.81498 4.3342 2.1186 6.7302 3.5256 6.1964 3.9624 15.145 11.082 21.274 15.991 3.6777 2.9453 6.7688 5.3926 8.7113 6.2355 1.4066 1.6813-0.40369 2.9534-4.5562 3.0682-4.1525 0.11472-7.9286-5.9679-7.2761-11.787 0.713-5.5706 4.4324-9.7164 11.46-10.998 8.7586-1.4248 19.948-2.3397 23-7.1022 1.4098-1.6024 2.5159-2.998 2.7967-4.1158 2.1089-4.2729-0.16133-9.3666 1.2395-11.307 0.83257-0.72829 1.9156-1.2857 3.2688-1.6826 13.205-2.9132 21.632-9.2195 25.36-12.132m-133.37 0.28553c6.3742 1.9943 8.9949 13.075 14.404 18.725 0.74281 1.1953 1.7651 2.111 3.0405 2.7518 7.6523 3.8447 17.087 6.9649 24.205 8.6639 2.1026 0.69058 4.444 1.8993 6.9047 3.2476 6.3455 3.7892 15.324 10.812 21.292 15.764 3.5807 2.9712 6.5284 5.51 8.2991 6.5264 1.2471 1.8798-0.70396 3.3522-5.0656 3.5971-4.3616 0.24491-8.272-6.043-7.5987-12.096 0.71543-5.6745 4.4942-10.015 11.755-11.377 8.9913-1.521 20.54-2.6058 23.988-7.2416 1.5572-1.5695 2.7578-2.9331 3.0655-4.0167 2.2563-4.2186-0.31474-9.4128 1.1017-11.416 0.79993-0.71495 1.8504-1.2629 3.1756-1.6516 13.206-2.8628 20.913-9.7735 24.422-12.515m-132.51 0.79679c6.6929 2.0941 9.2647 13.355 14.284 19.319 0.68567 1.2597 1.6551 2.2341 2.8795 2.9305 7.3464 4.1781 17.005 6.9444 24.299 8.2517 2.1478 0.56618 4.5539 1.6801 7.0791 2.9695 6.4947 3.616 15.503 10.543 21.309 15.538 3.4837 2.997 6.288 5.6274 7.8869 6.8172 1.0876 2.0782-1.0042 3.7509-5.575 4.126-4.5707 0.37509-8.6154-6.118-7.9213-12.404 0.71786-5.7784 4.556-10.314 12.049-11.755 9.2241-1.6172 21.132-2.872 24.976-7.381 1.7045-1.5366 2.9997-2.8682 3.3343-3.9175 2.4037-4.1643-0.46814-9.459 0.96389-11.526 0.76729-0.70162 1.7852-1.2401 3.0824-1.6206 13.207-2.8125 20.194-10.328 23.483-12.897m-131.65 1.3081c7.0116 2.1938 9.5346 13.634 14.164 19.914 0.62853 1.3241 1.545 2.3573 2.7184 3.1092 7.0405 4.5115 16.922 6.924 24.392 7.8394 2.193 0.44178 4.6638 1.4609 7.2535 2.6915 6.6439 3.4427 15.682 10.274 21.327 15.312 3.3867 3.0229 6.0476 5.7448 7.4747 7.1081 0.92818 2.2767-1.3045 4.1497-6.0843 4.6549-4.7798 0.50527-8.9588-6.193-8.2439-12.712 0.72029-5.8823 4.6178-10.612 12.344-12.134 9.4568-1.7134 21.724-3.1381 25.965-7.5204 1.8519-1.5037 3.2416-2.8033 3.6031-3.8184 2.5511-4.11-0.62155-9.5052 0.82611-11.635 0.73465-0.68829 1.72-1.2173 2.9892-1.5896 13.207-2.7621 19.474-10.882 22.545-13.28m-130.8 1.8193c7.3303 2.2935 9.8044 13.914 14.045 20.508 0.5714 1.3885 1.4349 2.4805 2.5573 3.2879 6.7347 4.845 16.84 6.9035 24.486 7.4271 2.2382 0.31738 4.7737 1.2417 7.4279 2.4134 6.7931 3.2695 15.861 10.005 21.344 15.086 3.2898 3.0487 5.8072 5.8622 7.0625 7.3989 0.76872 2.4751-1.6048 4.5484-6.5937 5.1839-4.9889 0.63546-9.3022-6.268-8.5666-13.02 0.72272-5.9862 4.6795-10.911 12.639-12.513 9.6896-1.8095 22.316-3.4043 26.953-7.6598 1.9992-1.4708 3.4835-2.7384 3.8719-3.7193 2.6985-4.0557-0.77496-9.5514 0.68832-11.744 0.70201-0.67495 1.6547-1.1945 2.8961-1.5585 13.208-2.7118 18.755-11.436 21.606-13.663m-129.94 2.3306c7.649 2.3932 10.074 14.193 13.925 21.103 0.51426 1.453 1.3248 2.6036 2.3962 3.4667 6.4288 5.1784 16.757 6.8831 24.579 7.0148 2.2833 0.19298 4.8836 1.0225 7.6023 2.1354 6.9423 3.0963 16.041 9.7358 21.362 14.86 3.1928 3.0746 5.5668 5.9797 6.6502 7.6898 0.60925 2.6736-1.905 4.9472-7.103 5.7128-5.198 0.76564-9.6456-6.343-8.8892-13.328 0.72515-6.09 4.7413-11.209 12.934-12.892 9.9223-1.9057 22.908-3.6704 27.941-7.7992 2.1466-1.4379 3.7254-2.6735 4.1407-3.6201 2.8459-4.0015-0.92836-9.5977 0.55053-11.853 0.66938-0.66162 1.5895-1.1716 2.8029-1.5275 13.209-2.6614 18.036-11.99 20.667-14.046m-129.08 2.8418c7.9677 2.4929 10.344 14.473 13.805 21.698 0.45712 1.5174 1.2147 2.7268 2.2352 3.6454 6.123 5.5118 16.675 6.8627 24.673 6.6025 2.3285 0.06858 4.9935 0.80328 7.7767 1.8574 7.0915 2.923 16.22 9.4666 21.38 14.634 3.0958 3.1004 5.3264 6.0971 6.238 7.9806 0.44979 2.872-2.2053 5.3459-7.6124 6.2417-5.4071 0.89582-9.989-6.418-9.2118-13.636 0.72758-6.1939 4.8031-11.508 13.228-13.27 10.155-2.0019 23.5-3.9366 28.929-7.9386 2.2939-1.405 3.9673-2.6086 4.4095-3.521 2.9933-3.9472-1.0818-9.6439 0.41275-11.962 0.63674-0.64829 1.5243-1.1488 2.7097-1.4965 13.21-2.611 17.316-12.544 19.729-14.428m-128.22 3.3531c8.2864 2.5926 10.614 14.753 13.686 22.292 0.39999 1.5818 1.1046 2.8499 2.0741 3.8241 5.8171 5.8452 16.592 6.8422 24.766 6.1903 2.3737-0.05582 5.1034 0.58407 7.9511 1.5793 7.2407 2.7498 16.399 9.1974 21.397 14.408 2.9988 3.1263 5.0859 6.2145 5.8258 8.2715 0.29032 3.0705-2.5056 5.7447-8.1218 6.7707-5.6162 1.026-10.332-6.493-9.5344-13.944 0.73001-6.2978 4.8649-11.807 13.523-13.649 10.388-2.0981 24.092-4.2027 29.917-8.078 2.4413-1.3721 4.2092-2.5437 4.6783-3.4219 3.1407-3.8929-1.2352-9.6901 0.27496-12.071 0.6041-0.63496 1.4591-1.126 2.6166-1.4655 13.211-2.5607 16.597-13.098 18.79-14.811m-127.37 3.8644c8.6051 2.6924 10.884 15.032 13.566 22.887 0.34285 1.6462 0.99449 2.9731 1.913 4.0029 5.5112 6.1787 16.51 6.8218 24.86 5.778 2.4188-0.18022 5.2132 0.36485 8.1255 1.3013 7.3899 2.5766 16.578 8.9282 21.415 14.182 2.9019 3.1521 4.8455 6.3319 5.4136 8.5623 0.13086 3.269-2.8058 6.1434-8.6311 7.2996-5.8253 1.1562-10.676-6.568-9.857-14.252 0.73244-6.4017 4.9266-12.105 13.818-14.028 10.621-2.1943 24.684-4.4689 30.905-8.2174 2.5886-1.3392 4.4511-2.4788 4.9471-3.3228 3.2881-3.8386-1.3886-9.7363 0.13718-12.18 0.57146-0.62162 1.3938-1.1032 2.5234-1.4345 13.211-2.5103 15.878-13.652 17.852-15.194m-126.51 4.3756c8.9238 2.7921 11.154 15.312 13.446 23.481 0.28571 1.7106 0.88439 3.0962 1.752 4.1816 5.2054 6.5121 16.427 6.8013 24.953 5.3657 2.464-0.30462 5.3231 0.14564 8.3 1.0233 7.5391 2.4034 16.757 8.659 21.432 13.956 2.8049 3.178 4.6051 6.4493 5.0013 8.8532-0.02861 3.4674-3.1061 6.5422-9.1405 7.8285-6.0344 1.2864-11.019-6.643-10.18-14.561 0.73486-6.5056 4.9884-12.404 14.112-14.407 10.853-2.2905 25.275-4.7351 31.893-8.3568 2.736-1.3063 4.693-2.4139 5.216-3.2236 3.4355-3.7843-1.542-9.7825-6.09e-4 -12.289 0.53883-0.60829 1.3286-1.0804 2.4302-1.4034 13.212-2.46 15.158-14.206 16.913-15.577m-125.65 4.8869c9.2425 2.8918 11.423 15.591 13.327 24.076 0.22857 1.7751 0.7743 3.2194 1.5909 4.3603 4.8995 6.8455 16.345 6.7809 25.047 4.9534 2.5092-0.42902 5.433-0.07357 8.4744 0.74522 7.6883 2.2301 16.937 8.3898 21.45 13.73 2.7079 3.2038 4.3647 6.5667 4.5891 9.144-0.18807 3.6659-3.4064 6.9409-9.6499 8.3575-6.2435 1.4165-11.363-6.718-10.502-14.869 0.73729-6.6095 5.0502-12.702 14.407-14.785 11.086-2.3867 25.867-5.0012 32.881-8.4962 2.8833-1.2734 4.9349-2.349 5.4848-3.1245 3.5829-3.73-1.6954-9.8287-0.1384-12.398 0.50619-0.59495 1.2634-1.0576 2.337-1.3724 13.213-2.4096 14.439-14.76 15.974-15.959m-124.8 5.3982c9.5612 2.9915 11.693 15.871 13.207 24.671 0.17144 1.8395 0.66421 3.3426 1.4298 4.5391 4.5937 7.179 16.262 6.7604 25.14 4.5412 2.5543-0.55342 5.5429-0.29279 8.6488 0.46718 7.8374 2.0569 17.116 8.1207 21.467 13.503 2.6109 3.2297 4.1243 6.6842 4.1769 9.4349-0.34754 3.8643-3.7066 7.3397-10.159 8.8864-6.4526 1.5467-11.706-6.7931-10.825-15.177 0.73972-6.7134 5.112-13.001 14.702-15.164 11.319-2.4829 26.459-5.2674 33.87-8.6356 3.0307-1.2405 5.1768-2.2841 5.7536-3.0254 3.7303-3.6757-1.8488-9.8749-0.27618-12.507 0.47355-0.58162 1.1982-1.0348 2.2439-1.3414 13.214-2.3592 13.72-15.314 15.036-16.342m-123.94 5.9094c9.8799 3.0912 11.963 16.151 13.087 25.265 0.1143 1.9039 0.55411 3.4657 1.2687 4.7178 4.2878 7.5124 16.18 6.74 25.234 4.1289 2.5995-0.67782 5.6528-0.512 8.8232 0.18914 7.9866 1.8837 17.295 7.8515 21.485 13.277 2.514 3.2556 3.8839 6.8016 3.7647 9.7257-0.507 4.0628-4.0069 7.7384-10.669 9.4153-6.6617 1.6769-12.049-6.8681-11.148-15.485 0.74215-6.8173 5.1737-13.3 14.997-15.543 11.552-2.579 27.051-5.5335 34.858-8.7749 3.178-1.2076 5.4187-2.2192 6.0224-2.9262 3.8777-3.6214-2.0022-9.9211-0.41396-12.616 0.44091-0.56829 1.133-1.012 2.1507-1.3104 13.215-2.3089 13-15.868 14.097-16.725m-123.08 6.4207c10.199 3.1909 12.233 16.43 12.968 25.86 0.057164 1.9683 0.44402 3.5889 1.1077 4.8965 3.9819 7.8458 16.097 6.7196 25.327 3.7166 2.6447-0.80222 5.7627-0.73121 8.9976-0.0889 8.1358 1.7105 17.474 7.5823 21.503 13.051 2.417 3.2814 3.6435 6.919 3.3525 10.017-0.66647 4.2612-4.3072 8.1372-11.178 9.9442-6.8708 1.8071-12.393-6.9431-11.47-15.793 0.74458-6.9212 5.2355-13.598 15.291-15.922 11.784-2.6752 27.643-5.7997 35.846-8.9143 3.3254-1.1747 5.6606-2.1543 6.2912-2.8271 4.0251-3.5672-2.1556-9.9674-0.55175-12.726 0.40828-0.55496 1.0677-0.98915 2.0575-1.2794 13.215-2.2585 12.281-16.422 13.158-17.108m-122.22 6.932c10.517 3.2907 12.503 16.71 12.848 26.454 2.68e-5 2.0327 0.33392 3.712 0.94661 5.0752 3.6761 8.1793 16.015 6.6991 25.421 3.3043 2.6898-0.92662 5.8726-0.95043 9.172-0.36693 8.285 1.5372 17.654 7.3131 21.52 12.825 2.32 3.3073 3.4031 7.0364 2.9402 10.307-0.82594 4.4597-4.6074 8.5359-11.687 10.473-7.0799 1.9373-12.736-7.0181-11.793-16.101 0.74701-7.0251 5.2973-13.897 15.586-16.301 12.017-2.7714 28.235-6.0658 36.834-9.0537 3.4728-1.1418 5.9025-2.0894 6.56-2.728 4.1725-3.5129-2.309-10.014-0.68953-12.835 0.37563-0.54162 1.0025-0.96633 1.9643-1.2483 13.216-2.2082 11.562-16.976 12.22-17.49m-121.37 7.4432c10.836 3.3904 12.773 16.989 12.728 27.049-0.05711 2.0971 0.22383 3.8352 0.78554 5.254 3.3702 8.5127 15.932 6.6787 25.514 2.8921 2.735-1.051 5.9824-1.1696 9.3464-0.64497 8.4342 1.364 17.833 7.0439 21.538 12.599 2.223 3.3331 3.1626 7.1538 2.528 10.598-0.9854 4.6581-4.9077 8.9347-12.197 11.002-7.289 2.0675-13.08-7.0931-12.115-16.409 0.74944-7.129 5.3591-14.195 15.881-16.679 12.25-2.8676 28.827-6.332 37.822-9.1931 3.6201-1.1089 6.1444-2.0245 6.8288-2.6288 4.3199-3.4586-2.4624-10.06-0.82732-12.944 0.343-0.52829 0.93729-0.94352 1.8712-1.2173 13.217-2.1578 10.843-17.53 11.281-17.873m-120.51 7.9545c11.155 3.4901 13.042 17.269 12.609 27.644-0.11425 2.1616 0.11374 3.9583 0.62446 5.4327 3.0644 8.8461 15.85 6.6582 25.608 2.4798 2.7802-1.1754 6.0923-1.3889 9.5208-0.92301 8.5834 1.1908 18.012 6.7747 21.555 12.373 2.126 3.359 2.9222 7.2713 2.1158 10.889-1.1449 4.8566-5.208 9.3334-12.706 11.531-7.4981 2.1976-13.423-7.1681-12.438-16.717 0.75186-7.2329 5.4208-14.494 16.175-17.058 12.483-2.9638 29.419-6.5981 38.81-9.3325 3.7675-1.076 6.3863-1.9596 7.0976-2.5297 4.4673-3.4043-2.6158-10.106-0.96511-13.053 0.31036-0.51496 0.87207-0.92071 1.778-1.1863 13.218-2.1074 10.123-18.085 10.343-18.256m-119.65 8.4658c11.473 3.5898 13.312 17.548 12.489 28.238-0.17138 2.226 0.00364 4.0815 0.46339 5.6114 2.7585 9.1796 15.767 6.6378 25.701 2.0675 2.8253-1.2998 6.2022-1.6081 9.6953-1.201 8.7326 1.0176 18.191 6.5056 21.573 12.147 2.0291 3.3848 2.6818 7.3887 1.7036 11.18-1.3043 5.055-5.5082 9.7321-13.215 12.06-7.7072 2.3278-13.766-7.2431-12.761-17.026 0.7543-7.3368 5.4826-14.793 16.47-17.437 12.715-3.06 30.011-6.8643 39.798-9.4719 3.9148-1.0431 6.6282-1.8947 7.3664-2.4306 4.6147-3.35-2.7692-10.152-1.1029-13.162 0.27772-0.50162 0.80684-0.8979 1.6848-1.1553 13.219-2.0571 9.404-18.639 9.404-18.639" fill="none" stroke="url(#linearGradient3595-6)" stroke-width=".08785px"/>
 <path d="m120.76 9.242v65.261h-135.96l1e-6 -65.521 68.116 50.083z" fill="#1b1e20"/>
 <g transform="matrix(.48232 0 0 .48232 -34.246 26.12)" opacity=".02" stroke-width=".6884">
  <g transform="translate(0 77.637)" opacity=".075" stroke-width=".6884">
   <path d="m-21.655-173.61 202.37 148.61 202.37-148.61v16.181l-202.37 148.61-202.37-148.61z" fill="url(#linearGradient21995-7)" stop-color="#000000" style="-inkscape-stroke:none;font-variation-settings:normal"/>
   <path d="m-21.655-193.8 202.37 148.61 202.37-148.61v22.391l-202.37 148.61-202.37-148.61z" fill="url(#linearGradient21997-5)"/>
   <path d="m-21.655-157.94 202.37 148.61 202.37-148.61v1.7412l-202.37 148.61-202.37-148.61z" fill="url(#linearGradient21999-5)" stop-color="#000000" style="-inkscape-stroke:none;font-variation-settings:normal;paint-order:stroke fill markers"/>
  </g>
  <g>
   <path d="m-21.656-22.398v20.919l191.38 140.54 10.981 23.178 10.981-23.178 191.38-140.54v-20.919l-202.37 148.61z" fill="url(#linearGradient22001-2)" stop-color="#000000" style="-inkscape-stroke:none;font-variation-settings:normal"/>
   <path d="m191.22 138.75-10.513 23.491 202.37-148.61v-15.771z" fill="url(#linearGradient22003-9)"/>
   <path d="m-21.656-2.1353v15.771l202.37 148.61-10.513-23.491z" fill="url(#linearGradient22005-1)"/>
  </g>
  <path d="m-21.656-2.1353v1.3126l190.92 140.2 11.449 22.866 11.449-22.866 190.92-140.2v-1.3126l-191.85 140.89-10.513 21.102-10.513-21.102-191.54-140.66z" color="#000000" fill="url(#linearGradient22007-2)" stroke-linecap="square" stroke-width=".18214" style="-inkscape-stroke:none"/>
  <g>
   <path d="m-21.655-41.581 202.37 148.61 202.37-148.61v21.473l-202.37 148.61-202.37-148.61z" fill="url(#linearGradient22009-0)" stop-color="#000000" style="-inkscape-stroke:none;font-variation-settings:normal"/>
   <path d="m-21.655-23.098 202.37 148.61 202.37-148.61v2.9889l-202.37 148.61-202.37-148.61z" fill="url(#linearGradient22011-9)" stop-color="#000000" style="-inkscape-stroke:none;font-variation-settings:normal;paint-order:stroke fill markers"/>
   <path d="m-21.655-62.914 202.37 148.61 202.37-148.61v22.391l-202.37 148.61-202.37-148.61z" fill="url(#linearGradient22013-6)"/>
   <path d="m-21.655-64.05 202.37 148.61 202.37-148.61v1.7412l-202.37 148.61-202.37-148.61z" fill="url(#linearGradient22015-0)" stop-color="#000000" style="-inkscape-stroke:none;font-variation-settings:normal;paint-order:stroke fill markers"/>
   <path d="m191.22 138.75-10.513 23.491 202.37-148.61v-15.771z" fill="url(#linearGradient22017-2)"/>
   <path d="m170.2 138.75 10.513 23.491-202.37-148.61-2e-6 -15.771z" fill="url(#linearGradient22019-6)"/>
  </g>
 </g>
 <g transform="matrix(.33203 0 0 .33203 -7.0867 31.049)" opacity=".03">
  <path d="m-21.655-173.61 202.37 148.61 202.37-148.61v16.181l-202.37 148.61-202.37-148.61z" fill="url(#linearGradient21995-7)" stop-color="#000000" style="-inkscape-stroke:none;font-variation-settings:normal"/>
  <path d="m-21.655-193.8 202.37 148.61 202.37-148.61v22.391l-202.37 148.61-202.37-148.61z" fill="url(#linearGradient21997-5)"/>
  <path d="m-21.655-157.94 202.37 148.61 202.37-148.61v1.7412l-202.37 148.61-202.37-148.61z" fill="url(#linearGradient21999-5)" stop-color="#000000" style="-inkscape-stroke:none;font-variation-settings:normal;paint-order:stroke fill markers"/>
 </g>
 <path d="m56.406 51.341-3.4907 7.7998 67.192-49.343v-5.2364z" fill="url(#linearGradient24593-1)"/>
 <path d="m-14.277 4.562v5.2364l67.192 49.343-3.4907-7.7998z" fill="url(#linearGradient78325-8)"/>
 <path d="m-14.277 4.562v0.43582l63.39 46.551 3.8016 7.5922 3.8016-7.5922 63.39-46.551v-0.43582l-63.701 46.779-3.4907 7.0065-3.4907-7.0065-63.597-46.703z" color="#000000" fill="url(#linearGradient87990-7)" stroke-linecap="square" stroke-width=".08785" style="-inkscape-stroke:none"/>
 <g>
  <path d="m-14.277-8.5354 67.192 49.343 67.192-49.343v7.1297l-67.192 49.343-67.192-49.343z" fill="url(#linearGradient25753-9)" stop-color="#000000" style="-inkscape-stroke:none;font-variation-settings:normal"/>
  <path d="m-14.277-2.3981 67.192 49.343 67.192-49.343v0.99241l-67.192 49.343-67.192-49.343z" fill="url(#linearGradient25219-2)" stop-color="#000000" style="-inkscape-stroke:none;font-variation-settings:normal;paint-order:stroke fill markers"/>
  <path d="m56.406 51.341-3.4907 7.7998 67.192-49.343v-5.2364z" fill="url(#linearGradient14910-0)"/>
  <path d="m49.424 51.341 3.4907 7.7998-67.192-49.343v-5.2364z" fill="url(#linearGradient15720-2)"/>
  <path d="m29.819 37.38v1.0424l11.284 8.2864v-1.0424zm0 1.5695v1.6479l11.284 8.2864v-1.6479zm11.284 10.439-11.284-8.2864v0.7028l11.284 8.2864z" fill="url(#linearGradient35006-37)"/>
  <path d="m107.68 14.622v1.0424l-11.284 8.2864v-1.0424zm0 1.5695v1.6479l-11.284 8.2864v-1.6479zm-11.284 10.439 11.284-8.2864v0.7028l-11.284 8.2864z" fill="url(#linearGradient35006-3-5)"/>
  <path d="m52.915 41.159 67.249-49.159-0.0571-0.53503z" fill="#d0b2e4"/>
  <path d="m52.915 41.159-67.249-49.159 0.05714-0.53503z" fill="#b2e3e4"/>
  <path d="m-14.277-15.619 67.192 49.343 67.192-49.343v7.4345l-67.192 49.343-67.192-49.343z" fill="url(#linearGradient26562-9)"/>
 </g>
 <g transform="matrix(.27027 0 0 .27047 7.6508 8.9019)" fill="none" stop-color="#000000" stroke="#235dc6" stroke-width=".64985" style="-inkscape-stroke:none;font-variation-settings:normal;paint-order:stroke fill markers">
  <path d="m116.37 53.187v6.7346" stop-color="#000000" style="-inkscape-stroke:none;font-variation-settings:normal;paint-order:stroke fill markers"/>
  <path d="m122.49 57.678v8.7187" stop-color="#000000" style="-inkscape-stroke:none;font-variation-settings:normal;paint-order:stroke fill markers"/>
  <path d="m133.56 65.81v8.379" stop-color="#000000" style="-inkscape-stroke:none;font-variation-settings:normal;paint-order:stroke fill markers"/>
  <path d="m128.48 62.077v4.1961" stop-color="#000000" style="-inkscape-stroke:none;font-variation-settings:normal;paint-order:stroke fill markers"/>
  <circle cx="116.42" cy="61.028" r="1.21" stop-color="#000000" style="-inkscape-stroke:none;font-variation-settings:normal;paint-order:stroke fill markers"/>
  <circle cx="122.45" cy="66.901" r=".64061" stop-color="#000000" style="-inkscape-stroke:none;font-variation-settings:normal;paint-order:stroke fill markers"/>
  <circle cx="128.5" cy="67.357" r="1.21" stop-color="#000000" style="-inkscape-stroke:none;font-variation-settings:normal;paint-order:stroke fill markers"/>
  <circle cx="133.55" cy="75.222" r="1.21" stop-color="#000000" style="-inkscape-stroke:none;font-variation-settings:normal;paint-order:stroke fill markers"/>
 </g>
 <path d="m2.2556-1.2795v5.2364l2.8915 2.1233v-5.2364zm3.7467 2.7513v5.2364l5.8161 4.2712v-5.2365zm7.5906 5.5742 0.04856 5.272 3.6478 2.6787 0.0064-5.2317zm5.0442 3.7043-0.06829 5.1863 1.1012 0.80867v-5.2365z" fill="url(#linearGradient34063-2)" stop-color="#000000" style="-inkscape-stroke:none;font-variation-settings:normal"/>
 <path d="m74.845 39.88v2.4251l-2.8915 2.1233v-2.4251zm-3.7467 2.7513v2.4251l-5.8161 4.2712v-2.4253zm-7.5906 5.5742-0.04856 2.4608-3.6478 2.6787-0.0063-2.4205zm-5.0442 3.7043 0.06829 2.375-1.1012 0.80867v-2.4253z" fill="url(#linearGradient53858-2)" stop-color="#000000" style="-inkscape-stroke:none;font-variation-settings:normal"/>
 <g transform="matrix(.33203 0 0 .33203 -7.0867 12.93)" opacity=".03">
  <path d="m-21.655-173.61 202.37 148.61 202.37-148.61v16.181l-202.37 148.61-202.37-148.61z" fill="url(#linearGradient21995-7)" stop-color="#000000" style="-inkscape-stroke:none;font-variation-settings:normal"/>
  <path d="m-21.655-193.8 202.37 148.61 202.37-148.61v22.391l-202.37 148.61-202.37-148.61z" fill="url(#linearGradient21997-5)"/>
  <path d="m-21.655-157.94 202.37 148.61 202.37-148.61v1.7412l-202.37 148.61-202.37-148.61z" fill="url(#linearGradient21999-5)" stop-color="#000000" style="-inkscape-stroke:none;font-variation-settings:normal;paint-order:stroke fill markers"/>
 </g>
 <path d="m26.469 15.273v5.7798l8.33 6.1173v-5.7799z" fill="#7777e1" fill-opacity=".095564"/>
 <g>
  <path d="m32.367 27.881v2.448l20.548 15.144v-2.448zm0 2.9751v0.94508l20.548 15.144v-0.94508z" fill="url(#linearGradient35392-8)"/>
  <path d="m-7.0983 11.937v1.4123l10.892 7.9983v-1.4125z" fill="url(#linearGradient37083-9)"/>
  <path d="m22.216 14.732v3.4606l26.688 19.599v-3.461z" fill="url(#linearGradient37280-7)"/>
  <path d="m1.1059 17.533v3.4606l7.4091 5.4411v-1.1767zm8.8166 8.7586v1.1767l2.8987 2.1287v-1.1767zm3.6 2.6436v1.1767l3.044 2.2355v-1.1769zm5.179 3.8033v1.1767l3.832 2.8141v-1.1769zm4.9683 3.6485v1.1769l2.3534 1.7282v-1.1769zm3.2892 2.4154v1.1769l0.83475 0.61306v-1.1769z" fill="url(#linearGradient37849-3)"/>
 </g>
 <g transform="matrix(.27027 0 0 .27047 16.16 15.282)" fill="none" stroke="#235dc6" stroke-width=".64985">
  <path d="m116.37 53.187v6.7346" stop-color="#000000" style="font-variation-settings:normal"/>
  <path d="m122.49 57.678v8.7187"/>
  <path d="m128.48 62.077v4.1961"/>
  <circle cx="116.42" cy="61.028" r="1.21" stop-color="#000000" style="font-variation-settings:normal;paint-order:stroke fill markers"/>
  <circle cx="122.45" cy="66.901" r=".64061" stop-color="#000000" style="font-variation-settings:normal;paint-order:stroke fill markers"/>
  <circle cx="128.5" cy="67.357" r="1.21" stop-color="#000000" style="font-variation-settings:normal;paint-order:stroke fill markers"/>
  <path d="m110.31 48.673v8.379"/>
  <circle cx="110.3" cy="58.084" r="1.21" stop-color="#000000" style="font-variation-settings:normal;paint-order:stroke fill markers"/>
 </g>
 <g>
  <path d="m-14.277-15.996 67.192 49.343 67.192-49.343v0.57813l-67.192 49.343-67.192-49.343z" fill="url(#linearGradient69576-6)" stop-color="#000000" style="-inkscape-stroke:none;font-variation-settings:normal;paint-order:stroke fill markers"/>
  <path d="m74.948 22.08v5.2364l-2.8915 2.1233v-5.2364zm-3.7467 2.7513v5.2364l-5.8161 4.2712v-5.2365zm-7.5906 5.5742-0.04856 5.272-3.6478 2.6787-0.0063-5.2317zm-5.0442 3.7043 0.06829 5.1863-1.1012 0.80866v-5.2365z" fill="url(#linearGradient53643-1)" stop-color="#000000" style="-inkscape-stroke:none;font-variation-settings:normal"/>
  <path d="m103.95-4.7378v3.4606l-7.4091 5.4411v-1.1767zm-8.8166 8.7586v1.1767l-2.8987 2.1287v-1.1767zm-3.6 2.6436v1.1767l-3.044 2.2355v-1.1769zm-5.179 3.8033v1.1767l-3.832 2.8141v-1.1769zm-4.9683 3.6485v1.1769l-2.3534 1.7282v-1.1769zm-3.2892 2.4154v1.1769l-0.83475 0.61306v-1.1769z" fill="url(#linearGradient53697-2)"/>
  <path d="m98.202 4.9572v3.4606l-26.688 19.599v-3.461z" fill="url(#linearGradient53804-9)"/>
  <path d="m73.463 27.881v2.448l-20.548 15.144v-2.448zm0 2.9751v0.94508l-20.548 15.144v-0.94508z" fill="url(#linearGradient5163-3)"/>
 </g>
</svg>
