<?xml version="1.0" encoding="UTF-8" standalone="no"?>
<!-- Created with Inkscape (http://www.inkscape.org/) -->

<svg
   width="32"
   height="32"
   viewBox="0 0 32 32.000001"
   id="svg6329"
   version="1.1"
   xmlns="http://www.w3.org/2000/svg"
   xmlns:svg="http://www.w3.org/2000/svg"
   xmlns:rdf="http://www.w3.org/1999/02/22-rdf-syntax-ns#"
   xmlns:cc="http://creativecommons.org/ns#"
   xmlns:dc="http://purl.org/dc/elements/1.1/">
  <defs
     id="defs6331">
    <linearGradient
       id="c"
       y1="527.01447"
       x1="406.50085"
       y2="539.82538"
       x2="419.97357"
       gradientUnits="userSpaceOnUse"
       gradientTransform="matrix(0.6999997,0,0,0.6999997,-269.99888,669.70239)">
      <stop
         stop-color="#292c2f"
         id="stop17" />
      <stop
         offset="1"
         stop-opacity="0"
         id="stop19" />
    </linearGradient>
    <linearGradient
       gradientTransform="matrix(0.6999997,0,0,0.6999997,-0.8000067,1019.5622)"
       id="b"
       y1="43.722721"
       y2="7.3077364"
       x2="9.343915"
       gradientUnits="userSpaceOnUse"
       x1="31.819818">
      <stop
         stop-color="#536161"
         id="stop12"
         style="stop-color:#dce1e1;stop-opacity:1" />
      <stop
         offset="1"
         stop-color="#f4f5f5"
         id="stop14"
         style="stop-color:#fbfbfb;stop-opacity:1" />
    </linearGradient>
    <linearGradient
       id="a"
       y1="547.63354"
       y2="499.67896"
       x2="388.86475"
       gradientUnits="userSpaceOnUse"
       gradientTransform="matrix(0.6999997,0,0,0.6999997,-269.99888,669.70239)"
       x1="428.81628">
      <stop
         stop-color="#2a2c2f"
         id="stop7" />
      <stop
         offset="1"
         stop-color="#536161"
         id="stop9" />
    </linearGradient>
    <linearGradient
       id="c-7"
       y1="527.01398"
       x1="406.50101"
       y2="539.82501"
       x2="419.974"
       gradientUnits="userSpaceOnUse"
       gradientTransform="translate(-369.22473,507.30967)">
      <stop
         stop-color="#292c2f"
         id="stop12-9" />
      <stop
         offset="1"
         stop-opacity="0"
         id="stop14-4" />
    </linearGradient>
    <linearGradient
       id="a-5"
       y1="547.63397"
       y2="499.67899"
       x2="388.86499"
       gradientUnits="userSpaceOnUse"
       gradientTransform="translate(-360.7519,510.0856)"
       x1="428.81601">
      <stop
         stop-color="#2a2c2f"
         id="stop2" />
      <stop
         offset="1"
         stop-color="#536161"
         id="stop4" />
    </linearGradient>
  </defs>
  <metadata
     id="metadata6334">
    <rdf:RDF>
      <cc:Work
         rdf:about="">
        <dc:format>image/svg+xml</dc:format>
        <dc:type
           rdf:resource="http://purl.org/dc/dcmitype/StillImage" />
      </cc:Work>
    </rdf:RDF>
  </metadata>
  <g
     id="layer1"
     transform="translate(0,-1020.3622)">
    <g
       id="g878"
       transform="matrix(0.7,0,0,0.7,-17.472676,312.64225)">
      <rect
         style="fill:url(#a-5)"
         height="40"
         rx="1"
         y="1013.8856"
         x="27.818098"
         width="40"
         ry="1"
         id="rect19" />
      <path
         style="opacity:0.3;fill:#000000;fill-opacity:1"
         d="m 27.818098,1051.8856 v 1 c 0,0.554 0.445996,1 1,1 h 38 c 0.554004,0 1,-0.446 1,-1 v -1 c 0,0.554 -0.445996,1 -1,1 h -38 c -0.554004,0 -1,-0.446 -1,-1 z"
         id="path21" />
      <path
         id="path25"
         style="opacity:0.4;fill:url(#c-7);fill-rule:evenodd"
         d="m 36.51927,1026.577 23.203125,12.9551 -0.605469,1.6621 -23.203125,-12.9551 -0.002,12.9551 9.585938,9.5859 13.853515,-0.084 8.466844,-6.3887 v -9.6367 l -8.09375,-8.0938 z" />
      <path
         id="path31-1"
         style="fill:#ebeded;fill-opacity:1;stroke-width:1.69794"
         d="m 36.519542,1026.5776 6.420964,3.5851 H 56.13779 v 1.9303 h -9.738491 l 6.420988,3.5852 h 3.317519 v 1.8522 l 3.585144,2.0014 v -9.7183 h 7.93e-4 v -3.2359 z m -0.606296,1.6618 -7.94e-4,12.9542 h 23.204273 l -6.421845,-3.5851 H 51.453333 51.45254 39.498557 v -7.3677 z" />
      <path
         d="m 27.818098,1015.8856 v -1 c 0,-0.554 0.445996,-1 1,-1 h 38 c 0.554004,0 1,0.446 1,1 v 1 c 0,-0.554 -0.445996,-1 -1,-1 h -38 c -0.554004,0 -1,0.446 -1,1 z"
         style="opacity:0.3;fill:#ffffff;fill-opacity:1"
         id="path27-2" />
    </g>
  </g>
</svg>
