<?xml version="1.0" encoding="UTF-8" standalone="no"?>
<svg
   width="48"
   height="48"
   version="1.1"
   id="svg29"
   xmlns="http://www.w3.org/2000/svg"
   xmlns:svg="http://www.w3.org/2000/svg">
  <defs
     id="defs17">
    <linearGradient
       id="a"
       y1="547.634"
       y2="499.679"
       x2="388.865"
       gradientUnits="userSpaceOnUse"
       gradientTransform="translate(-384.57,-499.8)"
       x1="428.816">
      <stop
         stop-color="#2a2c2f"
         id="stop2" />
      <stop
         offset="1"
         stop-color="#536161"
         id="stop4" />
    </linearGradient>
    <linearGradient
       id="b"
       y1="44"
       y2="12"
       x2="14"
       gradientUnits="userSpaceOnUse"
       x1="36">
      <stop
         stop-color="#536161"
         style="stop-color:#bfc9c9;stop-opacity:1"
         id="stop7" />
      <stop
         offset="1"
         stop-color="#f4f5f5"
         style="stop-color:#fbfbfb;stop-opacity:1"
         id="stop9" />
    </linearGradient>
    <linearGradient
       id="c"
       y1="527.014"
       x1="406.501"
       y2="539.825"
       x2="419.974"
       gradientUnits="userSpaceOnUse"
       gradientTransform="translate(-393.04283,-502.57593)">
      <stop
         stop-color="#292c2f"
         id="stop12" />
      <stop
         offset="1"
         stop-opacity="0"
         id="stop14" />
    </linearGradient>
  </defs>
  <rect
     style="fill:url(#a)"
     height="40"
     rx="1"
     y="4"
     x="4"
     width="40"
     ry="1"
     id="rect19" />
  <path
     style="fill:#000000;fill-opacity:1;opacity:0.3"
     d="M 4 42 L 4 43 C 4 43.554007 4.4459958 44 5 44 L 43 44 C 43.554004 44 44 43.554007 44 43 L 44 42 C 44 42.554007 43.554004 43 43 43 L 5 43 C 4.4459958 43 4 42.554007 4 42 z"
     id="path21" />
  <path
     id="path25"
     style="opacity:0.4;fill:url(#c);fill-rule:evenodd"
     d="M 12.701172 16.691406 L 35.904297 29.646484 L 35.298828 31.308594 L 12.095703 18.353516 L 12.09375 31.308594 L 21.679688 40.894531 L 35.533203 40.810547 L 44 34.421875 L 44 24.785156 L 35.90625 16.691406 L 12.701172 16.691406 z " />
  <path
     id="path31-1"
     style="fill:#ebeded;fill-opacity:1;stroke-width:1.69794"
     d="m 12.701444,16.691964 6.420964,3.585139 h 13.197284 v 1.930326 h -9.738491 l 6.420988,3.58514 h 3.317519 v 1.852235 l 3.585144,2.001396 v -9.718309 h 7.93e-4 v -3.235926 z m -0.606296,1.661834 -7.94e-4,12.954238 h 23.204273 l -6.421845,-3.585143 h -1.241547 -7.93e-4 -11.953983 v -7.367697 z" />
  <path
     d="M 4,6 4,5 C 4,4.445993 4.445996,4 5,4 l 38,0 c 0.554004,0 1,0.445993 1,1 l 0,1 C 44,5.445993 43.554004,5 43,5 L 5,5 C 4.445996,5 4,5.445993 4,6 Z"
     style="opacity:0.3;fill:#ffffff;fill-opacity:1"
     id="path27" />
</svg>
