<?xml version="1.0" encoding="UTF-8"?>
<svg width="64" height="64" version="1.1" viewBox="0 0 16.933 16.933" xmlns="http://www.w3.org/2000/svg" xmlns:cc="http://creativecommons.org/ns#" xmlns:dc="http://purl.org/dc/elements/1.1/" xmlns:rdf="http://www.w3.org/1999/02/22-rdf-syntax-ns#" xmlns:xlink="http://www.w3.org/1999/xlink">
 <defs>
  <linearGradient id="linearGradient2174" x1="31.909" x2="18.722" y1="4.5174" y2="7.2241" gradientTransform="translate(-16.447 4.1625)" gradientUnits="userSpaceOnUse">
   <stop stop-color="#ffa532" offset="0"/>
   <stop stop-color="#ff7548" offset="1"/>
  </linearGradient>
  <linearGradient id="linearGradient2166" x1="32.936" x2="19.767" y1="4.5534" y2="9.8915" gradientTransform="matrix(3.7795 0 0 3.7795 -67.662 1.5118e-6)" gradientUnits="userSpaceOnUse">
   <stop stop-color="#ff7042" offset="0"/>
   <stop stop-color="#ff545f" offset="1"/>
  </linearGradient>
  <linearGradient id="linearGradient2158" x1="33.097" x2="20.245" y1="5.1808" y2="10.108" gradientTransform="matrix(3.7795 0 0 3.7795 -67.662 1.5118e-6)" gradientUnits="userSpaceOnUse">
   <stop stop-color="#c34bca" offset="0"/>
   <stop stop-color="#aa5ec6" offset="1"/>
  </linearGradient>
  <linearGradient id="linearGradient2150" x1="33.026" x2="19.815" y1="7.609" y2="10.771" gradientTransform="matrix(3.7795 0 0 3.7795 -67.662 1.5118e-6)" gradientUnits="userSpaceOnUse">
   <stop stop-color="#6b1ae9" offset="0"/>
   <stop stop-color="#5c35ef" offset="1"/>
  </linearGradient>
  <linearGradient id="linearGradient2142" x1="19.632" x2="33.263" y1="10.416" y2="11.45" gradientTransform="translate(-16.447 4.1625)" gradientUnits="userSpaceOnUse">
   <stop stop-color="#70c5fd" offset="0"/>
   <stop stop-color="#52adf8" offset="1"/>
  </linearGradient>
 </defs>
 <metadata>
  <rdf:RDF>
   <cc:Work rdf:about="">
    <dc:format>image/svg+xml</dc:format>
    <dc:type rdf:resource="http://purl.org/dc/dcmitype/StillImage"/>
   </cc:Work>
  </rdf:RDF>
 </metadata>
 <g transform="translate(-1.4552 -4.1625)">
  <path d="m3.2675 8.3251 3.7817 2.1115h7.7727v0.21291c0.7392-0.04599 1.454-0.15635 2.1115-0.41858v-1.9058zm-0.35708 0.97875v5.7237c0.76298-0.29464 1.4509-0.71677 2.1115-1.1818v-3.3631z" fill="url(#linearGradient2174)"/>
  <path transform="matrix(.26458 0 0 .26458 1.4552 4.1625)" d="m57.088 15.732c-2.6638 3.0867-5.7651 5.4164-10.734 5.7109-6.4569 0.38273-10.404-1.6596-17.26-0.44141-3.2032 0.56918-5.7661 1.5445-7.9512 2.7109h29.377v1.8906 0.58789 0.38672l7.9805-8.8262v-2.0195h-1.4121zm-28.246 12.277 3.3242 1.8555 5.1191 2.8594h0.001953l10.529-3.1582 1.4082-1.5566h-13.26-7.123zm-15.361 1.4863c-1.0448 0.96623-2.0513 1.8941-3.0898 2.7266l3.0898 1.0176v-3.7441z" fill="url(#linearGradient2166)"/>
  <path transform="matrix(.26458 0 0 .26458 1.4552 4.1625)" d="m58.5 17.752c-3.3693 1.6297-6.5187 3.7223-9.5156 5.9609h1.5352v2.0801l7.9805-5.2441v-2.7969zm-15.025 10.258c-2.1 1.6695-4.1575 3.2859-6.1875 4.7148l1.4512 0.81055 8.4082-5.5254h-3.6719zm-37.975 0.95703v4.2324l8.6387 10.467h12.449l2.0898-3.3789h-15.197v-7.0469c-2.6008-1.7576-5.1598-3.5099-7.9805-4.2734z" fill="url(#linearGradient2158)"/>
  <path transform="matrix(.26458 0 0 .26458 1.4552 4.1625)" d="m58.5 20.549c-2.8558 0.79854-5.4781 2.1221-7.9805 3.7402v3.7207h-5.082c-2.2355 1.7906-4.4402 3.6899-6.6992 5.5254l4.3965 2.4551h5.3691l9.9961-4.0801v-11.361zm-53 12.65v2.5547l8.6191 12.336 14.703-0.12305 11.27-7.6797h-11.414c-2.282 1.1097-4.7049 1.9681-7.3398 2.4355-7.5078 1.332-10.907-5.9335-15.838-9.5234z" fill="url(#linearGradient2150)"/>
  <path d="m16.933 12.605c-0.86755 0.26714-1.7569 0.64938-2.6448 1.0795h0.5333v1.0909l2.1115 1.1787zm-14.023 1.017v3.3109h13.666l-3.7822-2.1115h-0.73174c-1.5311 0.80068-2.9901 1.5482-4.2297 1.8268-2.8781 0.64675-3.2967-1.8405-4.9227-3.0262z" fill="url(#linearGradient2142)"/>
 </g>
</svg>
