<?xml version="1.0" encoding="UTF-8"?>
<svg width="96" height="96" version="1.1" viewBox="0 0 25.4 25.4" xmlns="http://www.w3.org/2000/svg" xmlns:cc="http://creativecommons.org/ns#" xmlns:dc="http://purl.org/dc/elements/1.1/" xmlns:rdf="http://www.w3.org/1999/02/22-rdf-syntax-ns#" xmlns:xlink="http://www.w3.org/1999/xlink">
 <defs>
  <linearGradient id="linearGradient2142-0" x1="19.632" x2="33.263" y1="10.416" y2="11.45" gradientTransform="matrix(1.5 0 0 1.5 -25.398 4.1625)" gradientUnits="userSpaceOnUse">
   <stop stop-color="#70c5fd" offset="0"/>
   <stop stop-color="#52adf8" offset="1"/>
  </linearGradient>
  <linearGradient id="linearGradient2150-5" x1="33.026" x2="19.815" y1="7.609" y2="10.771" gradientTransform="matrix(1.5 0 0 1.5 -25.398 4.1625)" gradientUnits="userSpaceOnUse">
   <stop stop-color="#6b1ae9" offset="0"/>
   <stop stop-color="#5c35ef" offset="1"/>
  </linearGradient>
  <linearGradient id="linearGradient2158-4" x1="33.097" x2="20.245" y1="5.1808" y2="10.108" gradientTransform="matrix(1.5 0 0 1.5 -25.398 4.1625)" gradientUnits="userSpaceOnUse">
   <stop stop-color="#c34bca" offset="0"/>
   <stop stop-color="#aa5ec6" offset="1"/>
  </linearGradient>
  <linearGradient id="linearGradient2166-2" x1="32.936" x2="19.767" y1="4.5534" y2="9.8915" gradientTransform="matrix(1.5 0 0 1.5 -25.398 4.1625)" gradientUnits="userSpaceOnUse">
   <stop stop-color="#ff7042" offset="0"/>
   <stop stop-color="#ff545f" offset="1"/>
  </linearGradient>
  <linearGradient id="linearGradient2174-9" x1="31.909" x2="18.722" y1="4.5174" y2="7.2241" gradientTransform="matrix(1.5 0 0 1.5 -25.398 4.1625)" gradientUnits="userSpaceOnUse">
   <stop stop-color="#ffa532" offset="0"/>
   <stop stop-color="#ff7548" offset="1"/>
  </linearGradient>
 </defs>
 <metadata>
  <rdf:RDF>
   <cc:Work rdf:about="">
    <dc:format>image/svg+xml</dc:format>
    <dc:type rdf:resource="http://purl.org/dc/dcmitype/StillImage"/>
   </cc:Work>
  </rdf:RDF>
 </metadata>
 <g transform="translate(-1.4552 -4.1625)">
  <path d="m4.1736 10.406 5.6726 3.1673h11.659v0.31936c1.1088-0.06898 2.181-0.23453 3.1673-0.62787v-2.8588zm-0.53563 1.4681v8.5856c1.1445-0.44196 2.1764-1.0752 3.1673-1.7728v-5.0447z" fill="url(#linearGradient2174-9)"/>
  <path d="m24.112 10.406c-1.0572 1.225-2.288 2.1496-4.2602 2.2665-2.5626 0.1519-4.1292-0.65864-6.85-0.17518-1.2713 0.22589-2.2884 0.61298-3.1556 1.0759h11.659v1.1371l3.1673-3.5029v-0.80151zm-11.21 4.8726 1.3193 0.73639 2.0317 1.1348h7.95e-4l4.1788-1.2534 0.55888-0.6178h-5.2625zm-6.0966 0.58989c-0.41467 0.38348-0.81411 0.75172-1.2263 1.0821l1.2263 0.40385z" fill="url(#linearGradient2166-2)"/>
  <path d="m24.672 11.208c-1.3372 0.64681-2.5871 1.4773-3.7765 2.3658h0.60927v0.82554l3.1673-2.0813zm-5.9632 4.0711c-0.83343 0.6626-1.65 1.3041-2.4557 1.8712l0.57594 0.32169 3.337-2.1929zm-15.071 0.37982v1.6798l3.4285 4.154h4.9408l0.82941-1.341h-6.0314v-2.7967c-1.0322-0.69757-2.0478-1.393-3.1673-1.696z" fill="url(#linearGradient2158-4)"/>
  <path d="m24.672 12.318c-1.1334 0.31692-2.1741 0.8422-3.1673 1.4844v1.4767h-2.0169c-0.88723 0.71063-1.7622 1.4645-2.6588 2.1929l1.7449 0.97436h2.1309l3.9672-1.6193zm-21.034 5.0207v1.0139l3.4207 4.8959 5.8353-0.04884 4.4726-3.0479h-4.53c-0.90568 0.44042-1.8673 0.78109-2.913 0.96661-2.9797 0.52863-4.3287-2.3549-6.2857-3.7796z" fill="url(#linearGradient2150-5)"/>
  <path d="m24.672 16.827c-1.3013 0.40072-2.6354 0.97407-3.9672 1.6193h0.79996v1.6363l3.1673 1.7681zm-21.034 1.5255v4.9664h20.5l-5.6733-3.1673h-1.0976c-2.2966 1.201-4.4851 2.3223-6.3446 2.7402-4.3172 0.97013-4.945-2.7607-7.3841-4.5393z" fill="url(#linearGradient2142-0)"/>
 </g>
</svg>
