<?xml version="1.0" encoding="UTF-8" standalone="no"?>
<svg
   width="96"
   height="96"
   version="1.1"
   viewBox="0 0 25.4 25.4"
   id="svg43"
   xmlns="http://www.w3.org/2000/svg"
   xmlns:svg="http://www.w3.org/2000/svg"
   xmlns:rdf="http://www.w3.org/1999/02/22-rdf-syntax-ns#"
   xmlns:cc="http://creativecommons.org/ns#"
   xmlns:dc="http://purl.org/dc/elements/1.1/">
  <defs
     id="defs27">
    <linearGradient
       id="linearGradient2142-0"
       x1="19.632"
       x2="33.263"
       y1="10.416"
       y2="11.45"
       gradientTransform="matrix(1.5,0,0,1.5,-25.398,4.1625)"
       gradientUnits="userSpaceOnUse">
      <stop
         stop-color="#70c5fd"
         offset="0"
         id="stop2" />
      <stop
         stop-color="#52adf8"
         offset="1"
         id="stop4" />
    </linearGradient>
    <linearGradient
       id="linearGradient2150-5"
       x1="33.026"
       x2="19.815"
       y1="7.609"
       y2="10.771"
       gradientTransform="matrix(1.5,0,0,1.5,-25.398,4.1625)"
       gradientUnits="userSpaceOnUse">
      <stop
         stop-color="#6b1ae9"
         offset="0"
         id="stop7" />
      <stop
         stop-color="#5c35ef"
         offset="1"
         id="stop9" />
    </linearGradient>
    <linearGradient
       id="linearGradient2158-4"
       x1="33.097"
       x2="20.245"
       y1="5.1808"
       y2="10.108"
       gradientTransform="matrix(1.5,0,0,1.5,-25.398,4.1625)"
       gradientUnits="userSpaceOnUse">
      <stop
         stop-color="#c34bca"
         offset="0"
         id="stop12" />
      <stop
         stop-color="#aa5ec6"
         offset="1"
         id="stop14" />
    </linearGradient>
    <linearGradient
       id="linearGradient2166-2"
       x1="32.936"
       x2="19.767"
       y1="4.5534"
       y2="9.8915"
       gradientTransform="matrix(1.5,0,0,1.5,-25.398,4.1625)"
       gradientUnits="userSpaceOnUse">
      <stop
         stop-color="#ff7042"
         offset="0"
         id="stop17" />
      <stop
         stop-color="#ff545f"
         offset="1"
         id="stop19" />
    </linearGradient>
    <linearGradient
       id="linearGradient2174-9"
       x1="31.909"
       x2="18.722"
       y1="4.5174"
       y2="7.2241"
       gradientTransform="matrix(1.5,0,0,1.5,-25.398,4.1625)"
       gradientUnits="userSpaceOnUse">
      <stop
         stop-color="#ffa532"
         offset="0"
         id="stop22" />
      <stop
         stop-color="#ff7548"
         offset="1"
         id="stop24" />
    </linearGradient>
  </defs>
  <metadata
     id="metadata29">
    <rdf:RDF>
      <cc:Work
         rdf:about="">
        <dc:format>image/svg+xml</dc:format>
        <dc:type
           rdf:resource="http://purl.org/dc/dcmitype/StillImage" />
      </cc:Work>
    </rdf:RDF>
  </metadata>
  <path
     id="path31"
     style="fill:#60a5fa;fill-opacity:1;stroke-width:1.49988"
     d="M 2.7190471,6.2452231 8.3917783,9.4121557 H 20.049594 v 0.3193287 c 1.108711,-0.068978 2.180761,-0.2344927 3.166932,-0.6278059 V 6.2452231 Z M 2.1834743,7.7132047 V 16.29787 C 3.3278526,15.855946 4.3595865,15.222776 5.3504072,14.525287 V 9.4811368 Z" />
  <path
     id="path33"
     style="fill:#3b82f6;fill-opacity:1;stroke-width:0.396839"
     d="M 22.655377,6.2444492 C 21.598287,7.4693875 20.368205,8.3938803 18.396371,8.5107501 15.834051,8.662634 14.267009,7.8521538 11.54631,8.3355856 10.275169,8.5614616 9.2581264,8.9485025 8.3910029,9.4113818 H 20.048818 v 0.7502672 0.233294 0.153465 l 3.166933,-3.5025378 v -0.801421 z m -11.209051,4.8720838 1.319168,0.736316 2.031455,1.134701 h 7.94e-4 l 4.178399,-1.253287 0.558824,-0.61773 h -5.261962 z m -6.0951434,0.589828 c -0.4146141,0.383443 -0.8140483,0.751623 -1.2261607,1.081997 l 1.2261607,0.403811 z" />
  <path
     id="path35"
     style="fill:#2563eb;fill-opacity:1;stroke-width:0.396839"
     d="m 23.216526,7.0458702 c -1.337067,0.6467265 -2.586853,1.4771487 -3.776137,2.3655116 h 0.609205 V 10.23683 l 3.166932,-2.0810615 z m -5.962607,4.0706628 c -0.83336,0.662522 -1.649837,1.303975 -2.455419,1.871017 l 0.575877,0.321654 3.336672,-2.192671 z M 2.1834743,11.497092 v 1.6788 l 3.4281303,4.154371 h 4.9402914 l 0.829324,-1.34087 H 5.3504072 V 13.192944 C 4.3183106,12.495461 3.3028351,11.800077 2.1834743,11.497092 Z" />
  <path
     id="path37"
     style="fill:#1d4ed8;fill-opacity:1;stroke-width:0.396839"
     d="m 23.216526,8.1557685 c -1.133291,0.3168899 -2.17466,0.8421345 -3.167708,1.484258 v 1.4765065 h -2.016729 c -0.887134,0.71058 -1.762028,1.464274 -2.658488,2.192671 l 1.745456,0.974262 h 2.130665 l 3.966804,-1.61912 V 8.1565439 Z M 2.1834743,13.175892 v 1.013791 l 3.4203806,4.895336 5.8347211,-0.04884 4.472923,-3.047573 H 11.381996 C 10.476411,16.428984 9.5149128,16.76964 8.4692846,16.955124 5.4899023,17.483712 4.1410583,14.600495 2.1842494,13.175886 Z" />
  <path
     id="path39"
     style="fill:#1e40af;fill-opacity:1;stroke-width:1.49988"
     d="m 23.215751,12.664346 c -1.301221,0.400679 -2.63506,0.973991 -3.966805,1.61912 h 0.799872 v 1.63617 l 3.166933,1.767934 z M 2.1834743,14.190457 v 4.965094 H 22.680178 l -5.672731,-3.166934 h -1.097498 c -2.296465,1.200926 -4.48469,2.322003 -6.3439408,2.73987 -4.316286,0.969932 -4.9444563,-2.759366 -7.3825339,-4.53803 z" />
</svg>
