<svg xmlns="http://www.w3.org/2000/svg" xmlns:xlink="http://www.w3.org/1999/xlink" width="64" height="64"><defs><linearGradient id="a" x1="417.096" x2="430.665" y1="551.608" y2="537.184" gradientTransform="matrix(-1 0 0 1 452.144 499.8)" gradientUnits="userSpaceOnUse" spreadMethod="pad"><stop offset="0" stop-color="#2f74c8"/><stop offset="1" stop-color="#4699d7"/></linearGradient><linearGradient xlink:href="#a" id="c" x1="50.364" x2="6.24" y1="1040.486" y2="996.362" gradientUnits="userSpaceOnUse"/><linearGradient id="b" x1="405.57" x2="427.57" y1="509.8" y2="533.8" gradientUnits="userSpaceOnUse"><stop offset="0" stop-opacity=".286"/><stop offset="1" stop-opacity="0"/></linearGradient><linearGradient xlink:href="#b" id="d" x1="-100.707" x2="-69.846" y1="1043.231" y2="1074.092" gradientTransform="translate(126.765 -136) scale(1.09987)" gradientUnits="userSpaceOnUse"/></defs><g transform="translate(0 -988.362)"><rect width="51.992" height="51.992" x="6" y="994.37" rx=".992" ry=".992" style="fill:url(#c);fill-opacity:1"/><path d="m16 1029.362 16 16h25.992v-25L48 1011.42H16.926l5.944 5.943H45v9H23v-6l-7-5.469z" style="fill:url(#d);stroke:none;stroke-width:.4;stroke-linecap:butt;stroke-linejoin:miter;stroke-opacity:1;font-variation-settings:normal;opacity:.2;vector-effect:none;fill-opacity:1;stroke-miterlimit:4;stroke-dasharray:none;stroke-dashoffset:0;-inkscape-stroke:none;stop-color:#000;stop-opacity:1"/><path d="M6.992 6.008A.99.99 0 0 0 6 7v1a.99.99 0 0 1 .992-.992H57a.99.99 0 0 1 .992.992V7A.99.99 0 0 0 57 6.008H6.992z" style="fill:#fff;color:#000;clip-rule:nonzero;display:inline;overflow:visible;visibility:visible;opacity:.3;isolation:auto;mix-blend-mode:normal;color-interpolation:sRGB;color-interpolation-filters:linearRGB;solid-color:#000;solid-opacity:1;fill-opacity:1;fill-rule:nonzero;stroke-width:1;stroke-linecap:butt;stroke-linejoin:miter;stroke-miterlimit:4;stroke-dasharray:none;stroke-dashoffset:0;stroke-opacity:1;filter-blend-mode:normal;filter-gaussianBlur-deviation:0;color-rendering:auto;image-rendering:auto;shape-rendering:auto;text-rendering:auto;enable-background:accumulate" transform="translate(0 988.362)"/><path d="M6.992 1046.362a.99.99 0 0 1-.992-.992v-1c0 .55.443.992.992.992H57a.99.99 0 0 0 .992-.992v1a.99.99 0 0 1-.992.992H6.992z" style="color:#000;clip-rule:nonzero;display:inline;overflow:visible;visibility:visible;opacity:.3;isolation:auto;mix-blend-mode:normal;color-interpolation:sRGB;color-interpolation-filters:linearRGB;solid-color:#000;solid-opacity:1;fill:#000;fill-opacity:1;fill-rule:nonzero;stroke-width:1;stroke-linecap:butt;stroke-linejoin:miter;stroke-miterlimit:4;stroke-dasharray:none;stroke-dashoffset:0;stroke-opacity:1;color-rendering:auto;image-rendering:auto;shape-rendering:auto;text-rendering:auto;enable-background:accumulate;filter-blend-mode:normal;filter-gaussianBlur-deviation:0"/><path fill="#ebeded" d="m16.816 1011.362 8.63 4.417H43.18v2.376H30.093l8.63 4.415h4.458v2.28l4.819 2.467v-15.955zm-.816 2.046v15.954h31.184l-8.63-4.416H20.82v-9.071z" style="fill:#dee2e2;fill-opacity:1;stroke-width:.999995"/></g></svg>