<svg width="64" height="64" version="1.1" viewBox="0 0 64 64" xmlns="http://www.w3.org/2000/svg">
<defs>
<linearGradient id="c-74" x1="406.5" x2="419.97" y1="527.01" y2="539.83" gradientTransform="matrix(1.3 0 0 1.3 -510.16 335.82)" gradientUnits="userSpaceOnUse">
<stop stop-color="#292c2f" offset="0"/>
<stop stop-opacity="0" offset="1"/>
</linearGradient>
<linearGradient id="a-8" x1="428.82" x2="388.86" y1="547.63" y2="499.68" gradientTransform="matrix(1.3 0 0 1.3 -499.14 339.43)" gradientUnits="userSpaceOnUse">
<stop stop-color="#2a2c2f" offset="0"/>
<stop stop-color="#536161" offset="1"/>
</linearGradient>
</defs>
<g transform="translate(0 -988.36)">
<g stroke-width="1.3">
<rect x="6" y="994.37" width="52" height="52" rx="1.3" ry="1.3" fill="url(#a-8)"/>
<path d="m6 1043.8v1.3c0 0.7202 0.57979 1.3 1.3 1.3h49.4c0.72021 0 1.3-0.5798 1.3-1.3v-1.3c0 0.7202-0.57979 1.3-1.3 1.3h-49.4c-0.72021 0-1.3-0.5798-1.3-1.3z" opacity=".3"/>
<path d="m17.312 1010.9 30.164 16.842-0.78711 2.1608-30.164-16.842-0.0026 16.842 12.462 12.462 18.01-0.1092 11.007-8.3051v-12.528l-10.522-10.522z" fill="url(#c-74)" fill-rule="evenodd" opacity=".4"/>
</g>
<path d="m17.312 1010.9 8.3473 4.6607h17.156v2.5094h-12.66l8.3473 4.6606h4.3128v2.408l4.6607 2.6019v-12.634h1e-3v-4.2068zm-0.78818 2.1604-1e-3 16.84h30.166l-8.3484-4.6606h-17.155v-9.5781z" fill="#ebeded" stroke-width="2.2073"/>
<path d="m6 996.97v-1.3c0-0.7202 0.57979-1.3 1.3-1.3h49.4c0.72021 0 1.3 0.5798 1.3 1.3v1.3c0-0.7202-0.57979-1.3-1.3-1.3h-49.4c-0.72021 0-1.3 0.5798-1.3 1.3z" fill="#fff" opacity=".3" stroke-width="1.3"/>
</g>
</svg>
