<svg xmlns="http://www.w3.org/2000/svg" xmlns:xlink="http://www.w3.org/1999/xlink" width="48" height="48"><defs><linearGradient id="b" x1="405.57" x2="427.57" y1="509.8" y2="533.8" gradientUnits="userSpaceOnUse"><stop offset="0" stop-opacity=".286"/><stop offset="1" stop-opacity="0"/></linearGradient><linearGradient id="a" x1="417.096" x2="430.665" y1="551.608" y2="537.184" gradientTransform="matrix(-1 0 0 1 452.144 499.8)" gradientUnits="userSpaceOnUse" spreadMethod="pad"><stop offset="0" stop-color="#2f74c8"/><stop offset="1" stop-color="#4699d7"/></linearGradient><linearGradient xlink:href="#a" id="c" x1="41" x2="4" y1="43" y2="6" gradientUnits="userSpaceOnUse"/><linearGradient xlink:href="#b" id="d" x1="-51.052" x2="-30.604" y1="1040.915" y2="1061.364" gradientTransform="translate(71.765 -1124.362) scale(1.09987)" gradientUnits="userSpaceOnUse"/></defs><rect width="40" height="40" x="4" y="4" rx="1" ry="1" style="fill:url(#c)"/><path d="m12 31 12 12h20V25l-8-8H12.612l5 5H33v7H17v-5l-5-3.978z" style="fill:url(#d);stroke:none;stroke-width:.4;stroke-linecap:butt;stroke-linejoin:miter;stroke-opacity:1;font-variation-settings:normal;opacity:.2;vector-effect:none;fill-opacity:1;stroke-miterlimit:4;stroke-dasharray:none;stroke-dashoffset:0;-inkscape-stroke:none;stop-color:#000;stop-opacity:1"/><path d="M4 42v1c0 .554.446 1 1 1h38c.554 0 1-.446 1-1v-1c0 .554-.446 1-1 1H5c-.554 0-1-.446-1-1z" style="fill:#000;fill-opacity:1;opacity:.3"/><path d="M4 6V5c0-.554.446-1 1-1h38c.554 0 1 .446 1 1v1c0-.554-.446-1-1-1H5c-.554 0-1 .446-1 1Z" style="opacity:.3;fill:#fff;fill-opacity:1"/><path fill="#ebeded" d="m12.612 17 6.473 3.435h13.3v1.848H22.57l6.472 3.434h3.344v1.774L36 29.409V17ZM12 18.591V31h23.388l-6.473-3.435h-13.3V20.51z" style="stroke-width:.999995;font-variation-settings:normal;opacity:1;vector-effect:none;fill:#dee2e2;fill-opacity:1;stroke-linecap:butt;stroke-linejoin:miter;stroke-miterlimit:4;stroke-dasharray:none;stroke-dashoffset:0;stroke-opacity:1;-inkscape-stroke:none;stop-color:#000;stop-opacity:1"/></svg>