<?xml version="1.0" encoding="UTF-8" standalone="no"?>
<svg
   width="1080"
   height="1920"
   version="1.1"
   viewBox="0 0 285.75 508"
   id="svg57"
   sodipodi:docname="1080x1920.svg"
   inkscape:version="1.3.2 (091e20ef0f, 2023-11-25)"
   inkscape:export-filename="1080x1920.png"
   inkscape:export-xdpi="96"
   inkscape:export-ydpi="96"
   xmlns:inkscape="http://www.inkscape.org/namespaces/inkscape"
   xmlns:sodipodi="http://sodipodi.sourceforge.net/DTD/sodipodi-0.dtd"
   xmlns:xlink="http://www.w3.org/1999/xlink"
   xmlns="http://www.w3.org/2000/svg"
   xmlns:svg="http://www.w3.org/2000/svg">
  <sodipodi:namedview
     id="namedview57"
     pagecolor="#505050"
     bordercolor="#ffffff"
     borderopacity="1"
     inkscape:showpageshadow="0"
     inkscape:pageopacity="0"
     inkscape:pagecheckerboard="1"
     inkscape:deskcolor="#505050"
     inkscape:zoom="0.26197917"
     inkscape:cx="538.21074"
     inkscape:cy="960"
     inkscape:window-width="1280"
     inkscape:window-height="660"
     inkscape:window-x="0"
     inkscape:window-y="0"
     inkscape:window-maximized="1"
     inkscape:current-layer="svg57" />
  <defs
     id="defs28">
    <linearGradient
       id="linearGradient1056-3">
      <stop
         stop-color="#6a5e19"
         offset="0"
         id="stop1" />
      <stop
         stop-color="#85751e"
         stop-opacity=".98824"
         offset=".14669"
         id="stop2" />
      <stop
         stop-color="#a38f26"
         stop-opacity=".96863"
         offset=".30531"
         id="stop3" />
      <stop
         stop-color="#f5d737"
         stop-opacity=".95686"
         offset=".51079"
         id="stop4" />
      <stop
         stop-color="#968623"
         stop-opacity=".99608"
         offset=".83541"
         id="stop5" />
      <stop
         stop-color="#4e4412"
         stop-opacity=".92157"
         offset="1"
         id="stop6" />
    </linearGradient>
    <linearGradient
       id="linearGradient207136"
       x1="571.82001"
       x2="141.92"
       y1="101.55"
       y2="180.99001"
       gradientTransform="matrix(0.97337,0,0,0.97337,-23.526,41.602)"
       gradientUnits="userSpaceOnUse"
       xlink:href="#linearGradient207134" />
    <linearGradient
       id="linearGradient207134">
      <stop
         stop-color="#4985dc"
         stop-opacity=".66737"
         offset="0"
         id="stop7" />
      <stop
         stop-color="#3b82f6"
         offset="1"
         id="stop8" />
    </linearGradient>
    <linearGradient
       id="linearGradient232772"
       x1="115.86"
       x2="651.17999"
       y1="174.42"
       y2="78.849998"
       gradientTransform="matrix(0.97337,0,0,0.97337,-23.526,41.602)"
       gradientUnits="userSpaceOnUse"
       xlink:href="#linearGradient1056-3" />
    <linearGradient
       id="linearGradient32557"
       x1="263.97"
       x2="550.77002"
       y1="219.28"
       y2="119.84"
       gradientTransform="matrix(1.2636,0.12384,-0.098499,0.69025,-164.51,15.629)"
       gradientUnits="userSpaceOnUse">
      <stop
         stop-color="#1d4ed8"
         offset="0"
         id="stop9" />
      <stop
         stop-color="#643192"
         offset="1"
         id="stop10" />
    </linearGradient>
    <linearGradient
       id="linearGradient185644"
       x1="225.32001"
       x2="551.10999"
       y1="227.28999"
       y2="98.471001"
       gradientTransform="matrix(1.2192,0.24243,-0.15959,0.67789,-109.89,-14.01)"
       gradientUnits="userSpaceOnUse">
      <stop
         stop-color="#2245a7"
         stop-opacity=".493"
         offset="0"
         id="stop11" />
      <stop
         stop-color="#643192"
         stop-opacity=".48934"
         offset="1"
         id="stop12" />
    </linearGradient>
    <linearGradient
       id="linearGradient41477"
       x1="484.01001"
       x2="26.146999"
       y1="-28.693001"
       y2="259.51001"
       gradientUnits="userSpaceOnUse">
      <stop
         stop-color="#826bdd"
         stop-opacity=".86275"
         offset="0"
         id="stop13" />
      <stop
         stop-color="#3462e3"
         offset="1"
         id="stop14" />
    </linearGradient>
    <linearGradient
       id="linearGradient59750"
       x1="577.84998"
       x2="73.580002"
       y1="19.691"
       y2="216.75999"
       gradientTransform="translate(4e-6)"
       gradientUnits="userSpaceOnUse">
      <stop
         stop-color="#47a4e0"
         stop-opacity=".39162"
         offset="0"
         id="stop15" />
      <stop
         stop-color="#5231cf"
         stop-opacity=".60102"
         offset="1"
         id="stop16" />
    </linearGradient>
    <linearGradient
       id="linearGradient48715"
       x1="139.32001"
       x2="501.87"
       y1="133.75"
       y2="-93.876999"
       gradientTransform="matrix(1.3232,0,0,0.8739,-93.857,83.453)"
       gradientUnits="userSpaceOnUse"
       xlink:href="#linearGradient1056-3" />
    <linearGradient
       id="linearGradient13495"
       x1="139.32001"
       x2="479.01001"
       y1="133.75"
       y2="-26.367001"
       gradientTransform="matrix(1.3232,0,0,0.8739,-93.857,83.453)"
       gradientUnits="userSpaceOnUse">
      <stop
         stop-color="#47d2f5"
         stop-opacity=".73341"
         offset="0"
         id="stop17" />
      <stop
         stop-color="#5231cf"
         offset="1"
         id="stop18" />
    </linearGradient>
    <linearGradient
       id="linearGradient184763"
       x1="139.32001"
       x2="479.01001"
       y1="133.75"
       y2="-26.367001"
       gradientTransform="matrix(1.3195,0.098825,-0.06527,0.87146,-57.38,63.217)"
       gradientUnits="userSpaceOnUse">
      <stop
         stop-color="#2d5be6"
         stop-opacity=".4454"
         offset="0"
         id="stop19" />
      <stop
         stop-color="#3b2397"
         stop-opacity=".58208"
         offset="1"
         id="stop20" />
    </linearGradient>
    <linearGradient
       id="linearGradient69170"
       x1="139.32001"
       x2="479.01001"
       y1="133.75"
       y2="-26.367001"
       gradientTransform="matrix(1.3232,0,0,0.8739,-93.857,83.453)"
       gradientUnits="userSpaceOnUse">
      <stop
         stop-color="#6285ea"
         stop-opacity=".75537"
         offset="0"
         id="stop21" />
      <stop
         stop-color="#31c3cf"
         stop-opacity=".79015"
         offset="1"
         id="stop22" />
    </linearGradient>
    <linearGradient
       id="linearGradient184335"
       x1="465.01001"
       x2="75.025002"
       y1="42.714001"
       y2="197.28999"
       gradientUnits="userSpaceOnUse">
      <stop
         stop-color="#1f4ac5"
         stop-opacity=".51435"
         offset="0"
         id="stop23" />
      <stop
         stop-color="#1f4ac5"
         stop-opacity="0"
         offset="1"
         id="stop24" />
    </linearGradient>
    <linearGradient
       id="linearGradient86933"
       x1="571.82001"
       x2="141.92"
       y1="101.55"
       y2="180.99001"
       gradientTransform="matrix(0.97337,0,0,0.97337,5.2279,31.856)"
       gradientUnits="userSpaceOnUse"
       xlink:href="#linearGradient207134" />
    <linearGradient
       id="linearGradient86935"
       x1="115.86"
       x2="651.17999"
       y1="174.42"
       y2="78.849998"
       gradientTransform="matrix(0.97337,0,0,0.97337,5.2279,31.856)"
       gradientUnits="userSpaceOnUse"
       xlink:href="#linearGradient1056-3" />
    <linearGradient
       id="linearGradient86937"
       x1="263.97"
       x2="550.77002"
       y1="219.28"
       y2="119.84"
       gradientTransform="matrix(1.2636,0.12384,-0.098499,0.69025,-135.76,5.8828)"
       gradientUnits="userSpaceOnUse">
      <stop
         stop-color="#173ead"
         offset="0"
         id="stop25" />
      <stop
         stop-color="#643192"
         offset="1"
         id="stop26" />
    </linearGradient>
    <linearGradient
       id="linearGradient49727"
       x1="-53.014"
       x2="1282.4"
       y1="1437.9"
       y2="643.47998"
       gradientTransform="matrix(0.37189,0,0,0.37189,8.4558,-318.93)"
       gradientUnits="userSpaceOnUse"
       xlink:href="#linearGradient1056-3" />
    <linearGradient
       id="linearGradient2233"
       x1="484.01001"
       x2="26.146999"
       y1="-28.693001"
       y2="259.51001"
       gradientUnits="userSpaceOnUse">
      <stop
         stop-color="#5448d3"
         offset="0"
         id="stop27" />
      <stop
         stop-color="#133390"
         offset="1"
         id="stop28" />
    </linearGradient>
    <linearGradient
       inkscape:collect="always"
       xlink:href="#linearGradient59750"
       id="linearGradient57"
       gradientUnits="userSpaceOnUse"
       gradientTransform="translate(4e-6)"
       x1="577.84998"
       y1="19.691"
       x2="73.580002"
       y2="216.75999" />
    <linearGradient
       inkscape:collect="always"
       xlink:href="#linearGradient1056-3"
       id="linearGradient58"
       gradientUnits="userSpaceOnUse"
       gradientTransform="matrix(1.3232,0,0,0.8739,-93.857,83.453)"
       x1="139.32001"
       y1="133.75"
       x2="501.87"
       y2="-93.876999" />
    <linearGradient
       inkscape:collect="always"
       xlink:href="#linearGradient13495"
       id="linearGradient59"
       gradientUnits="userSpaceOnUse"
       gradientTransform="matrix(1.3232,0,0,0.8739,-93.857,83.453)"
       x1="139.32001"
       y1="133.75"
       x2="479.01001"
       y2="-26.367001" />
    <linearGradient
       inkscape:collect="always"
       xlink:href="#linearGradient184763"
       id="linearGradient60"
       gradientUnits="userSpaceOnUse"
       gradientTransform="matrix(1.3195,0.098825,-0.06527,0.87146,-57.38,63.217)"
       x1="139.32001"
       y1="133.75"
       x2="479.01001"
       y2="-26.367001" />
    <linearGradient
       inkscape:collect="always"
       xlink:href="#linearGradient59750"
       id="linearGradient61"
       gradientUnits="userSpaceOnUse"
       gradientTransform="translate(4e-6)"
       x1="577.84998"
       y1="19.691"
       x2="73.580002"
       y2="216.75999" />
    <linearGradient
       inkscape:collect="always"
       xlink:href="#linearGradient69170"
       id="linearGradient62"
       gradientUnits="userSpaceOnUse"
       gradientTransform="matrix(1.3232,0,0,0.8739,-93.857,83.453)"
       x1="139.32001"
       y1="133.75"
       x2="479.01001"
       y2="-26.367001" />
    <linearGradient
       inkscape:collect="always"
       xlink:href="#linearGradient184335"
       id="linearGradient63"
       gradientUnits="userSpaceOnUse"
       x1="465.01001"
       y1="42.714001"
       x2="75.025002"
       y2="197.28999" />
    <linearGradient
       inkscape:collect="always"
       xlink:href="#linearGradient59750"
       id="linearGradient64"
       gradientUnits="userSpaceOnUse"
       gradientTransform="translate(4e-6)"
       x1="577.84998"
       y1="19.691"
       x2="73.580002"
       y2="216.75999" />
    <linearGradient
       inkscape:collect="always"
       xlink:href="#linearGradient13495"
       id="linearGradient65"
       gradientUnits="userSpaceOnUse"
       gradientTransform="matrix(1.3232,0,0,0.8739,-93.857,83.453)"
       x1="139.32001"
       y1="133.75"
       x2="479.01001"
       y2="-26.367001" />
    <linearGradient
       inkscape:collect="always"
       xlink:href="#linearGradient184763"
       id="linearGradient66"
       gradientUnits="userSpaceOnUse"
       gradientTransform="matrix(1.3195,0.098825,-0.06527,0.87146,-57.38,63.217)"
       x1="139.32001"
       y1="133.75"
       x2="479.01001"
       y2="-26.367001" />
    <linearGradient
       inkscape:collect="always"
       xlink:href="#linearGradient59750"
       id="linearGradient67"
       gradientUnits="userSpaceOnUse"
       gradientTransform="translate(4e-6)"
       x1="577.84998"
       y1="19.691"
       x2="73.580002"
       y2="216.75999" />
    <linearGradient
       inkscape:collect="always"
       xlink:href="#linearGradient69170"
       id="linearGradient68"
       gradientUnits="userSpaceOnUse"
       gradientTransform="matrix(1.3232,0,0,0.8739,-93.857,83.453)"
       x1="139.32001"
       y1="133.75"
       x2="479.01001"
       y2="-26.367001" />
    <linearGradient
       inkscape:collect="always"
       xlink:href="#linearGradient184335"
       id="linearGradient69"
       gradientUnits="userSpaceOnUse"
       x1="465.01001"
       y1="42.714001"
       x2="75.025002"
       y2="197.28999" />
  </defs>
  <rect
     width="285.75"
     height="508"
     fill="#1b1e20"
     stop-color="#000000"
     style="font-variation-settings:normal;stroke-width:0.999999;-inkscape-stroke:none;paint-order:stroke fill markers"
     id="rect28"
     x="0"
     y="0" />
  <g
     transform="matrix(0.6954451,0.34308521,-0.34308521,0.6954451,112.69108,179.55489)"
     opacity="0.03"
     id="g31"
     style="stroke-width:0.769838">
    <path
       d="m 54.659,197.53 40.004,40.455 c 114.11,-108.89 302.47,-104.88 435.19,-44.735 L 620.013,42.29 C 452.023,-23.853 181.833,18.894 54.663,197.53 Z"
       fill="url(#linearGradient59750)"
       id="path28"
       style="fill:url(#linearGradient67);stroke-width:0.769838" />
    <path
       d="m 54.659,197.53 14.519,21.359 c 114.11,-108.89 308.46,-174.04 441.18,-113.9 l 98.004,-58.271 c -198.14,-72.309 -440.27,4.2929 -553.7,150.81 z"
       fill="#6ea8f1"
       id="path29"
       style="stroke-width:0.769838" />
    <path
       d="m 54.659,197.53 26.407,39.412 c 114.11,-108.89 328.25,-134.05 460.97,-73.907 l 66.327,-112.61 c -167.99,-66.143 -418.54,-20.371 -553.7,147.11 z"
       fill="url(#linearGradient69170)"
       id="path30"
       style="fill:url(#linearGradient68);stroke-width:0.769838" />
    <path
       d="m 85.306,179.22 32.149,80.29 c 125.62,-97.605 319.14,-112.01 446.93,-39.568 l 93.09,-134.77 C 494.745,3.417 237.885,25.27 85.305,179.217 Z"
       fill="url(#linearGradient184335)"
       id="path31"
       style="fill:url(#linearGradient69);stroke-width:0.769838" />
  </g>
  <g
     transform="matrix(0.89103173,-0.10866314,0.10866314,0.89103173,-123.7561,115.26863)"
     opacity="0.03"
     id="g35"
     style="stroke-width:0.769838">
    <path
       d="m 54.659,197.53 56.671,58.606 C 225.44,147.246 397.14,133.106 529.85,193.25 L 620.01,42.29 C 452.02,-23.853 181.83,18.894 54.66,197.53 Z"
       fill="url(#linearGradient59750)"
       id="path32"
       style="fill:url(#linearGradient64);stroke-width:0.769838" />
    <path
       d="m 54.659,197.53 27.224,30.413 c 120.46,-95.128 339.7,-137.8 472.41,-77.654 l 54.064,-103.57 c -198.14,-72.309 -440.27,4.2929 -553.7,150.81 z"
       fill="url(#linearGradient48715)"
       id="path33"
       style="fill:url(#linearGradient48715);stroke-width:0.769838" />
    <path
       d="m 54.659,197.53 53.564,65.129 c 114.11,-108.89 288.91,-129.55 421.63,-69.409 L 608.362,50.42 C 440.372,-15.723 189.822,30.049 54.662,197.53 Z"
       fill="url(#linearGradient13495)"
       opacity="1"
       id="path34"
       style="fill:url(#linearGradient65);stroke-width:0.769838" />
    <path
       d="m 82.201,188.07 44.476,69.385 c 121.93,-100.06 301.86,-108.05 429.71,-38.162 L 645.344,82.733 C 482.764,4.228 229.494,31.158 82.204,188.073 Z"
       fill="url(#linearGradient184763)"
       opacity="1"
       id="path35"
       style="fill:url(#linearGradient66);stroke-width:0.769838" />
  </g>
  <g
     transform="matrix(0.89699403,0.03374087,-0.03374087,0.89699403,-48.351917,135.93013)"
     id="g37"
     style="stroke-width:0.769838">
    <path
       d="m -9.0013,237.64 79.977,24.627 c 98.8,-148.9 237.91,-197.46 484.06,-182.49 l -53.459,-125.26 c -308,13.057 -423.58,90.449 -510.58,283.12 z"
       fill="url(#linearGradient49727)"
       stop-color="#000000"
       style="font-variation-settings:normal;fill:url(#linearGradient49727);stroke-width:0.59265;-inkscape-stroke:none"
       id="path36" />
    <path
       d="m -7.8188,237.22 60.141,58.387 c 98.8,-148.9 253.33,-202.23 499.49,-187.26 l -54.869,-151.93 c -300.8,13.291 -418.96,88.271 -504.76,280.8 z"
       fill="url(#linearGradient2233)"
       stop-color="#000000"
       style="font-variation-settings:normal;fill:url(#linearGradient2233);stroke-width:0.59265;-inkscape-stroke:none"
       id="path37" />
  </g>
  <g
     transform="matrix(0.53490481,-0.26227599,0.26227599,0.53490481,-150.96962,273.54871)"
     id="g41"
     style="stroke-width:0.769838">
    <path
       d="m 121.41,179.6 47.213,33.178 c 143.04,-79.716 298.99,-67.908 422.63,18.814 L 568.55,134.989 C 466.62,108.015 403.27,98.293 311.64,110.15 211.3,123.134 121.41,179.6 121.41,179.6 Z"
       fill="url(#linearGradient86933)"
       id="path38"
       style="fill:url(#linearGradient86933);stroke-width:0.769838" />
    <path
       d="m 121.41,179.6 38.205,44.215 c 143.04,-79.716 305.83,-80.106 429.47,6.615 l -26.43,-87.325 C 407.595,88.193 263.875,99.051 121.415,179.6 Z"
       fill="url(#linearGradient86935)"
       id="path39"
       style="fill:url(#linearGradient86935);stroke-width:0.769838" />
    <path
       d="m 121.41,179.6 14.577,54.2 c 141.68,-66.348 333.31,-46.525 433.05,20.266 l -10.534,-108.86 c -131.2,-47.756 -275.37,-54.497 -437.09,34.39 z"
       fill="url(#linearGradient86937)"
       id="path40"
       style="fill:url(#linearGradient86937);stroke-width:0.769838" />
    <path
       transform="scale(0.26458)"
       d="m 1354.9,700.58 c -265.07,-0.35257 -538.53,73.342 -801.94,220.41 540.63,-301.29 1130.4,-288.51 1597.7,39.254 l -0.6211,-6.4277 c -240.8,-168.71 -513.24,-252.86 -795.18,-253.24 z"
       fill="#6f5fd9"
       id="path41"
       style="stroke-width:0.769838" />
  </g>
  <g
     transform="matrix(0.89047317,0.11315239,-0.11315239,0.89047317,-9.9755256,79.665032)"
     id="g45"
     style="stroke-width:0.769838">
    <path
       d="m 54.659,197.53 56.671,58.606 C 225.44,147.246 397.14,133.106 529.85,193.25 L 620.01,42.29 C 452.02,-23.853 181.83,18.894 54.66,197.53 Z"
       fill="url(#linearGradient59750)"
       id="path42"
       style="fill:url(#linearGradient61);stroke-width:0.769838" />
    <path
       d="m 54.659,197.53 14.519,21.359 c 114.11,-108.89 352.4,-128.74 485.12,-68.6 l 54.064,-103.57 c -198.14,-72.309 -440.27,4.2929 -553.7,150.81 z"
       fill="#6ea8f1"
       id="path43"
       style="stroke-width:0.769838" />
    <path
       d="m 54.659,197.53 39.405,76.898 c 114.11,-108.89 303.07,-141.32 435.79,-81.178 L 608.363,50.42 C 440.373,-15.723 189.823,30.049 54.663,197.53 Z"
       fill="url(#linearGradient69170)"
       id="path44"
       style="fill:url(#linearGradient62);stroke-width:0.769838" />
    <path
       d="m 85.306,179.22 32.149,80.29 c 125.62,-97.605 319.14,-112.01 446.93,-39.568 l 93.09,-134.77 C 494.745,3.417 237.885,25.27 85.305,179.217 Z"
       fill="url(#linearGradient184335)"
       id="path45"
       style="fill:url(#linearGradient63);stroke-width:0.769838" />
  </g>
  <g
     transform="matrix(0.89707197,0.03170408,-0.03170408,0.89707197,-62.831588,144.87746)"
     id="g49"
     style="stroke-width:0.769838">
    <path
       d="m 54.659,197.53 56.671,58.606 C 225.44,147.246 397.14,133.106 529.85,193.25 L 620.01,42.29 C 452.02,-23.853 181.83,18.894 54.66,197.53 Z"
       fill="url(#linearGradient59750)"
       id="path46"
       style="fill:url(#linearGradient57);stroke-width:0.769838" />
    <path
       d="m 54.659,197.53 27.224,30.413 c 120.46,-95.128 339.7,-137.8 472.41,-77.654 l 54.064,-103.57 c -198.14,-72.309 -440.27,4.2929 -553.7,150.81 z"
       fill="url(#linearGradient48715)"
       id="path47"
       style="fill:url(#linearGradient58);stroke-width:0.769838" />
    <path
       d="m 54.659,197.53 47.29,66.784 c 114.11,-108.89 295.19,-131.21 427.9,-71.064 L 608.358,50.42 C 440.368,-15.723 189.818,30.049 54.658,197.53 Z"
       fill="url(#linearGradient13495)"
       id="path48"
       style="fill:url(#linearGradient59);stroke-width:0.769838" />
    <path
       d="M 82.201,188.07 124.37,258.2 C 246.3,158.14 428.53,149.41 556.39,219.294 L 645.347,82.734 C 482.767,4.229 229.497,31.159 82.207,188.074 Z"
       fill="url(#linearGradient184763)"
       id="path49"
       style="fill:url(#linearGradient60);stroke-width:0.769838" />
  </g>
  <g
     transform="matrix(0.61275237,0.21040793,-0.28667074,0.46172058,137.94834,170.69589)"
     id="g51"
     style="stroke-width:0.769838">
    <path
       d="m -12.161,233.08 83.136,29.185 c 98.8,-148.9 237.91,-197.46 484.06,-182.49 l -3.6149,-157.16 c -308,13.057 -474.84,110.47 -563.59,310.46 z"
       fill="#ffffff"
       stop-color="#000000"
       style="font-variation-settings:normal;stroke-width:0.59265;-inkscape-stroke:none"
       id="path50" />
    <path
       d="m -12.161,233.08 71.679,94.746 c 98.8,-148.9 246.14,-234.45 492.29,-219.48 l -15.333,-181.45 c -300.8,13.291 -462.84,113.65 -548.64,306.19 z"
       fill="url(#linearGradient41477)"
       stop-color="#000000"
       style="font-variation-settings:normal;fill:url(#linearGradient41477);stroke-width:0.59265;-inkscape-stroke:none"
       id="path51" />
  </g>
  <g
     transform="matrix(0.89763053,0,0,0.89763053,-50.189966,141.01691)"
     id="g57"
     style="stroke-width:0.769838">
    <path
       d="m 92.652,189.34 47.213,33.178 c 143.04,-79.716 298.99,-67.908 422.63,18.814 l -10.556,-89.046 c -95.747,-36.385 -177.43,-44.253 -269.06,-32.396 -100.34,12.984 -190.23,69.45 -190.23,69.45 z"
       fill="url(#linearGradient207136)"
       id="path52"
       style="fill:url(#linearGradient207136);stroke-width:0.769838" />
    <path
       d="m 92.652,189.34 27.696,56.762 c 143.04,-79.716 319.14,-75.924 442.78,10.797 L 533.899,152.849 C 378.839,97.937 235.119,108.795 92.659,189.344 Z"
       fill="url(#linearGradient232772)"
       id="path53"
       style="fill:url(#linearGradient232772);stroke-width:0.769838" />
    <path
       d="m 92.652,189.34 24.886,64.08 c 1.6551,-0.9224 3.312,-1.8337 4.9706,-2.7338 141.68,-76.893 295.56,-72.598 417.76,13.12 l -10.534,-108.86 c -131.2,-47.756 -275.37,-54.497 -437.09,34.39 z"
       fill="url(#linearGradient32557)"
       opacity="0.88369"
       id="path54"
       style="fill:url(#linearGradient32557);stroke-width:0.59265" />
    <path
       d="m 329.72,195.11 c -70.134,-0.0933 -142.49,19.405 -212.18,58.317 143.04,-79.716 299.1,-76.336 422.74,10.386 l -0.16433,-1.7007 c -63.71,-44.639 -135.8,-66.903 -210.39,-67.002 z"
       fill="#6f5fd9"
       id="path55"
       style="stroke-width:0.769838" />
    <path
       transform="scale(0.26458)"
       d="m 1405.2,390.52 c -298.22,0.60764 -551.7,77.426 -551.7,77.426 l 12.244,62.34 c 508.57,-96.659 995.05,-33.402 1427.2,280.69 37.317,-43.711 79.001,-91.635 112.83,-129.84 -278.84,-153.95 -486.35,-234.89 -789.56,-276.98 -71.018,-9.8576 -142.22,-13.777 -211.04,-13.637 z"
       fill="#4460c5"
       fill-opacity="0.4753"
       id="path56"
       style="stroke-width:0.59265" />
    <path
       d="m 124.54,183.18 6.0283,21.751 c 135.89,-72.085 332.79,-50.319 445.25,27.527 l -22.174,-44.11 c -144.29,-72.081 -309.44,-65.056 -429.11,-5.1675 z"
       fill="url(#linearGradient185644)"
       opacity="0.88369"
       id="path57"
       style="fill:url(#linearGradient185644);stroke-width:0.59265" />
  </g>
</svg>
