<?xml version="1.0" encoding="UTF-8" standalone="no"?>
<svg
   width="32"
   height="32"
   version="1"
   id="svg12"
   xmlns="http://www.w3.org/2000/svg"
   xmlns:svg="http://www.w3.org/2000/svg">
  <defs
     id="defs16" />
  <path
     id="path12"
     style="font-variation-settings:normal;opacity:0.2;vector-effect:none;fill:#000000;fill-opacity:1;stroke:none;stroke-width:1;stroke-linecap:butt;stroke-linejoin:miter;stroke-miterlimit:4;stroke-dasharray:none;stroke-dashoffset:0;stroke-opacity:1;-inkscape-stroke:none;stop-color:#000000;stop-opacity:1"
     d="m 2.0633203,7.1276878 8.0757457,4.5090872 h 16.598432 v 2.427801 H 14.489245 l 8.075774,4.509088 h 4.172507 v 2.329585 l 4.509088,2.517193 V 11.197565 h 0.0011 V 7.1276878 Z M 1.3007683,9.2178031 1.2996411,25.510558 H 30.484035 l -8.076852,-4.509095 h -1.561521 -0.0011 -15.0347117 v -9.266471 z" />
  <path
     style="fill:#2563eb;fill-opacity:1;stroke-width:0.811139"
     d="M 0.93088527,8.4842333 0.92975786,24.776983 H 30.11415 l -8.076853,-4.50909 h -1.561516 -0.0011 -15.0347119 v -9.266471 z"
     id="path44874" />
  <path
     style="fill:#3b82f6;fill-opacity:1;stroke-width:0.811139"
     d="M 1.6934373,6.3941178 9.7691828,10.903205 H 26.367614 v 2.427801 H 14.119361 l 8.075773,4.509088 h 4.172505 v 2.329585 L 30.87673,22.68687 V 10.463996 h 0.0011 V 6.3941178 Z"
     id="path29607" />
  <path
     id="path31"
     style="font-variation-settings:normal;opacity:0.2;vector-effect:none;fill:#ffffff;fill-opacity:1;stroke-width:1;stroke-linecap:butt;stroke-linejoin:miter;stroke-miterlimit:4;stroke-dasharray:none;stroke-dashoffset:0;stroke-opacity:1;-inkscape-stroke:none;stop-color:#000000;stop-opacity:1"
     d="m 1.6953124,6.3945318 0.9726565,0.542968 H 30.249999 v 4.0703122 11.332031 l 0.625,0.347656 V 10.464844 h 0.0041 V 6.3945318 Z m -0.76562492,2.089842 v 0.765382 L 4.8125,11.417724 v 9.394775 h 16.933594 l 7.101561,3.964844 h 1.265626 L 22.039062,20.269531 H 5.4414061 V 11 Z M 14.121093,13.332032 15.093749,13.875 26.367614,13.874 v -0.542968 z" />
</svg>
