<?xml version="1.0" encoding="UTF-8" standalone="no"?>
<!-- Created with Inkscape (http://www.inkscape.org/) -->

<svg
   width="31.999998"
   height="31.999998"
   viewBox="0 0 8.466666 8.466666"
   version="1.1"
   id="svg1065"
   xmlns="http://www.w3.org/2000/svg"
   xmlns:svg="http://www.w3.org/2000/svg">
  <defs
     id="defs1062" />
  <g
     id="layer1"
     style="stroke-width:1.99999"
     transform="scale(0.49999996)">
    <path
       id="path31"
       style="fill:#60a5fa;fill-opacity:1;stroke-width:7.5592"
       d="m 6.8496094,15.734375 14.2949216,7.980469 h 29.376953 v 0.804687 c 2.793884,-0.17382 5.495381,-0.590907 7.980469,-1.582031 V 15.734375 Z M 5.5,19.433594 v 21.632812 c 2.8837606,-1.113622 5.483664,-2.709169 7.980469,-4.466797 V 23.888672 Z"
       transform="scale(0.26458333)" />
    <path
       id="path33"
       style="fill:#3b82f6;fill-opacity:1;stroke-width:2.00002"
       d="m 57.087891,15.732422 c -2.6638,3.08677 -5.763527,5.416433 -10.732422,5.710937 -6.456885,0.382738 -10.405732,-1.659623 -17.261719,-0.441406 -3.203195,0.569193 -5.766076,1.544511 -7.951172,2.710938 h 29.376953 v 1.890625 0.58789 0.386719 L 58.5,17.751953 v -2.019531 z m -28.246094,12.277344 3.324219,1.855468 5.11914,2.859375 h 0.002 l 10.529297,-3.158203 1.408203,-1.55664 H 35.964844 Z m -15.359375,1.486328 c -1.044798,0.966251 -2.051347,1.894042 -3.089844,2.726562 l 3.089844,1.017578 z"
       transform="scale(0.26458333)" />
    <path
       id="path35"
       style="fill:#2563eb;fill-opacity:1;stroke-width:2.00002"
       d="m 58.501953,17.751953 c -3.369324,1.62971 -6.518705,3.72232 -9.515625,5.960938 h 1.535156 v 2.080078 l 7.980469,-5.244141 z M 43.476562,28.009766 c -2.100015,1.669511 -4.157485,3.285933 -6.1875,4.714843 l 1.451172,0.810547 8.408204,-5.52539 z M 5.5,28.96875 v 4.230469 l 8.638672,10.46875 h 12.449219 l 2.089843,-3.378907 H 13.480469 V 33.242188 C 10.879651,31.484575 8.3207181,29.732252 5.5,28.96875 Z"
       transform="scale(0.26458333)" />
    <path
       id="path37"
       style="fill:#1d4ed8;fill-opacity:1;stroke-width:2.00002"
       d="m 58.501953,20.548828 c -2.855822,0.798542 -5.480004,2.122124 -7.982422,3.740234 v 3.720704 H 45.4375 c -2.235519,1.790615 -4.440199,3.689878 -6.699219,5.52539 l 4.398438,2.455078 h 5.36914 l 9.996094,-4.080078 V 20.550781 Z M 5.5,33.199219 v 2.554687 L 14.119141,48.089844 28.822266,47.966797 40.09375,40.287109 H 28.679688 C 26.397673,41.39682 23.97476,42.25525 21.339844,42.722656 13.83199,44.054664 10.432989,36.789143 5.5019531,33.199219 Z"
       transform="scale(0.26458333)" />
    <path
       id="path39"
       style="fill:#1e40af;fill-opacity:1;stroke-width:7.5592"
       d="m 58.5,31.910156 c -3.278993,1.009686 -6.640187,2.454394 -9.996094,4.080078 h 2.015625 v 4.123047 L 58.5,44.568359 Z m -53,3.845703 V 48.267578 H 57.150391 L 42.855469,40.287109 H 40.089844 C 34.302896,43.313362 28.788709,46.138407 24.103516,47.191406 13.226748,49.635571 11.6438,40.237979 5.5,35.755859 Z"
       transform="scale(0.26458333)" />
  </g>
</svg>
